<?xml version="1.0" encoding="UTF-8"?><svg id="Layer_2" xmlns="http://www.w3.org/2000/svg" viewBox="0 0 573.71 199.61"><defs><style>.cls-1{fill:#adadad;}</style></defs><g id="Layer_1-2"><g><path class="cls-1" d="M76.85,63.23c-1.99-1.99-4.34-2.99-7.05-2.99s-5.06,1-7.05,2.99c-1.99,1.99-2.99,4.34-2.99,7.05,0-2.71-.96-5.06-2.87-7.05-1.91-1.99-4.22-2.99-6.93-2.99-2.87,0-5.26,1-7.17,2.99-1.91,1.99-2.87,4.34-2.87,7.05,0-2.71-1-5.06-2.99-7.05-1.99-1.99-4.34-2.99-7.05-2.99s-5.02,1-6.93,2.99c-1.91,1.99-2.87,4.34-2.87,7.05s.96,5.06,2.87,7.05c1.91,2,4.22,2.99,6.93,2.99s5.06,.96,7.05,2.87c1.99,1.91,2.99,4.22,2.99,6.93v0c0-2.71,.96-5.02,2.87-6.93,1.91-1.91,4.3-2.87,7.17-2.87,2.71,0,5.02,.96,6.93,2.87,1.91,1.91,2.87,4.22,2.87,6.93s-.96,5.06-2.87,7.05c-1.91,1.99-4.22,2.99-6.93,2.99-2.87,0-5.26,1-7.17,2.99-1.91,2-2.87,4.34-2.87,7.05,0-2.71-1-5.06-2.99-7.05-1.99-1.99-4.34-2.99-7.05-2.99s-5.02,1-6.93,2.99c-1.91,2-2.87,4.34-2.87,7.05s.96,5.02,2.87,6.93c1.91,1.91,4.22,2.87,6.93,2.87-2.71,0-5.02,1-6.93,2.99-1.91,1.99-2.87,4.34-2.87,7.05s.96,5.06,2.87,7.05c1.91,1.99,4.22,2.99,6.93,2.99-2.71,0-5.02,.96-6.93,2.87s-2.87,4.22-2.87,6.93-1,5.06-2.99,7.05c-1.99,2-4.34,2.99-7.05,2.99s-5.06-.99-7.05-2.99c-1.99-1.99-2.99-4.34-2.99-7.05s.99-5.02,2.99-6.93c1.99-1.91,4.34-2.87,7.05-2.87-2.71,0-5.06-.99-7.05-2.99-1.99-1.99-2.99-4.34-2.99-7.05s.99-5.06,2.99-7.05c1.99-1.99,4.34-2.99,7.05-2.99-2.71,0-5.06-.96-7.05-2.87-1.99-1.91-2.99-4.22-2.99-6.93s.99-5.06,2.99-7.05c1.99-1.99,4.34-2.99,7.05-2.99s5.06-.99,7.05-2.99,2.99-4.34,2.99-7.05-1-5.02-2.99-6.93c-1.99-1.91-4.34-2.87-7.05-2.87s-5.06-.99-7.05-2.99c-1.99-1.99-2.99-4.34-2.99-7.05s.99-5.06,2.99-7.05c1.99-1.99,4.34-2.99,7.05-2.99s5.06-.96,7.05-2.87c1.99-1.91,2.99-4.22,2.99-6.93s.96-5.06,2.87-7.05c1.91-1.99,4.22-2.99,6.93-2.99s5.06,1,7.05,2.99c1.99,1.99,2.99,4.34,2.99,7.05,0-2.71,.96-5.06,2.87-7.05,1.91-1.99,4.3-2.99,7.17-2.99,2.71,0,5.02,1,6.93,2.99,1.91,1.99,2.87,4.34,2.87,7.05,0-2.71,.99-5.06,2.99-7.05,1.99-1.99,4.34-2.99,7.05-2.99s5.06,1,7.05,2.99c1.99,1.99,2.99,4.34,2.99,7.05s.96,5.02,2.87,6.93c1.91,1.91,4.22,2.87,6.93,2.87s5.06,1,7.05,2.99c1.99,1.99,2.99,4.34,2.99,7.05s-1,5.06-2.99,7.05c-1.99,2-4.34,2.99-7.05,2.99s-5.02-.99-6.93-2.99c-1.91-1.99-2.87-4.34-2.87-7.05s-1-5.06-2.99-7.05Z"/><path class="cls-1" d="M89.4,17.69c-1.91-1.91-2.87-4.22-2.87-6.93s.96-5.06,2.87-7.05c1.91-1.99,4.22-2.99,6.93-2.99s5.06,1,7.05,2.99c1.99,2,2.99,4.34,2.99,7.05s-1,5.02-2.99,6.93c-1.99,1.91-4.34,2.87-7.05,2.87s-5.02-.96-6.93-2.87Zm19.96,65.62c-1.99,1.99-2.99,4.34-2.99,7.05s.99,5.02,2.99,6.93c1.99,1.91,4.34,2.87,7.05,2.87-2.71,0-5.06,1-7.05,2.99-1.99,2-2.99,4.34-2.99,7.05s.99,5.02,2.99,6.93c1.99,1.91,4.34,2.87,7.05,2.87-2.71,0-5.06,1-7.05,2.99-1.99,1.99-2.99,4.34-2.99,7.05s.99,5.06,2.99,7.05c1.99,1.99,4.34,2.99,7.05,2.99-2.71,0-5.06,.96-7.05,2.87-1.99,1.91-2.99,4.22-2.99,6.93s-1,5.06-2.99,7.05c-1.99,2-4.34,2.99-7.05,2.99s-5.02-.99-6.93-2.99c-1.91-1.99-2.87-4.34-2.87-7.05s.96-5.02,2.87-6.93c1.91-1.91,4.22-2.87,6.93-2.87-2.71,0-5.02-.99-6.93-2.99-1.91-1.99-2.87-4.34-2.87-7.05s.96-5.06,2.87-7.05c1.91-1.99,4.22-2.99,6.93-2.99-2.71,0-5.02-.96-6.93-2.87-1.91-1.91-2.87-4.22-2.87-6.93s.96-5.06,2.87-7.05c1.91-1.99,4.22-2.99,6.93-2.99-2.71,0-5.02-.96-6.93-2.87-1.91-1.91-2.87-4.22-2.87-6.93s.96-5.06,2.87-7.05c1.91-1.99,4.22-2.99,6.93-2.99-2.71,0-5.02-.99-6.93-2.99-1.91-1.99-2.87-4.34-2.87-7.05s.96-5.02,2.87-6.93c1.91-1.91,4.22-2.87,6.93-2.87-2.71,0-5.02-.99-6.93-2.99-1.91-1.99-2.87-4.34-2.87-7.05s.96-5.06,2.87-7.05c1.91-1.99,4.22-2.99,6.93-2.99s5.06,1,7.05,2.99c1.99,1.99,2.99,4.34,2.99,7.05s.99,5.06,2.99,7.05c1.99,2,4.34,2.99,7.05,2.99-2.71,0-5.06,.96-7.05,2.87-1.99,1.91-2.99,4.22-2.99,6.93s.99,5.06,2.99,7.05c1.99,2,4.34,2.99,7.05,2.99-2.71,0-5.06,1-7.05,2.99Z"/><path class="cls-1" d="M210.24,97.05c-1.99,2.07-4.34,3.11-7.05,3.11,2.71,0,5.06,1,7.05,2.99,1.99,2,2.99,4.34,2.99,7.05,0,2.55-1,4.82-2.99,6.81-1.99,1.99-4.34,2.99-7.05,2.99,2.71,0,5.06,1,7.05,2.99,1.99,1.99,2.99,4.26,2.99,6.81,0,2.87-1,5.26-2.99,7.17-1.99,1.91-4.34,2.87-7.05,2.87,2.71,0,5.06,1,7.05,2.99,1.99,1.99,2.99,4.42,2.99,7.29,0,2.55-1,4.82-2.99,6.81-1.99,2-4.34,2.99-7.05,2.99,2.71,0,5.06,.99,7.05,2.99,1.99,1.99,2.99,4.26,2.99,6.81,0,2.71-1,5.06-2.99,7.05-1.99,1.99-4.34,2.99-7.05,2.99s-5.06,.96-7.05,2.87c-1.99,1.91-2.99,4.14-2.99,6.69,0,2.87-.96,5.3-2.87,7.29-1.91,1.99-4.22,2.99-6.93,2.99-2.87,0-5.22-1-7.05-2.99-1.83-2-2.75-4.42-2.75-7.29,0,2.87-1,5.3-2.99,7.29-1.99,1.99-4.42,2.99-7.29,2.99-2.71,0-5.06-1-7.05-2.99-1.99-2-2.99-4.42-2.99-7.29,0,2.87-.92,5.3-2.75,7.29-1.83,1.99-4.18,2.99-7.05,2.99-2.71,0-5.1-1-7.17-2.99-2.07-2-3.11-4.42-3.11-7.29,0-2.55-.96-4.78-2.87-6.69-1.91-1.91-4.15-2.87-6.69-2.87-2.71,0-5.06-1-7.05-2.99-1.99-1.99-2.99-4.34-2.99-7.05s.99-5.02,2.99-6.93c1.99-1.91,4.34-2.87,7.05-2.87,2.55,0,4.78,.96,6.69,2.87,1.91,1.91,2.87,4.22,2.87,6.93s1.03,5.06,3.11,7.05c2.07,1.99,4.46,2.99,7.17,2.99,2.87,0,5.22-1,7.05-2.99,1.83-1.99,2.75-4.34,2.75-7.05,0,2.71,.99,5.06,2.99,7.05,1.99,1.99,4.34,2.99,7.05,2.99,2.87,0,5.3-1,7.29-2.99,1.99-1.99,2.99-4.34,2.99-7.05,0,2.71,.92,5.06,2.75,7.05,1.83,1.99,4.18,2.99,7.05,2.99,2.71,0,5.02-1,6.93-2.99,1.91-1.99,2.87-4.34,2.87-7.05s-.96-5.02-2.87-6.93c-1.91-1.91-4.22-2.87-6.93-2.87,2.71,0,5.02-.96,6.93-2.87,1.91-1.91,2.87-4.22,2.87-6.93,0-3.03-.96-5.5-2.87-7.41-1.91-1.91-4.22-2.87-6.93-2.87,2.87,0,5.22-.96,7.05-2.87,1.83-1.91,2.75-4.3,2.75-7.17,0-2.71-.96-5.02-2.87-6.93-1.91-1.91-4.22-2.87-6.93-2.87,2.71,0,5.02-.96,6.93-2.87,1.91-1.91,2.87-4.22,2.87-6.93s-.96-5.06-2.87-7.05c-1.91-1.99-4.22-2.99-6.93-2.99,2.71,0,5.02-1.03,6.93-3.11,1.91-2.07,2.87-4.46,2.87-7.17,0-2.39-.96-4.58-2.87-6.57-1.91-1.99-4.22-2.99-6.93-2.99,2.71,0,5.02-.96,6.93-2.87,1.91-1.91,2.87-4.22,2.87-6.93,0-3.03-.92-5.46-2.75-7.29-1.83-1.83-4.18-2.75-7.05-2.75s-5.22,.92-7.05,2.75-2.75,4.27-2.75,7.29c0-2.87-1-5.26-2.99-7.17-1.99-1.91-4.42-2.87-7.29-2.87s-5.26,.96-7.17,2.87c-1.91,1.91-2.87,4.3-2.87,7.17,0-3.03-.92-5.46-2.75-7.29-1.83-1.83-4.18-2.75-7.05-2.75s-5.3,.96-7.29,2.87c-1.99,1.91-2.99,4.3-2.99,7.17,0,2.55,1.03,4.82,3.11,6.81,2.07,2,4.46,2.99,7.17,2.99-2.71,0-5.1,1-7.17,2.99-2.07,1.99-3.11,4.18-3.11,6.57,0,2.71,1.03,5.1,3.11,7.17,2.07,2.07,4.46,3.11,7.17,3.11-2.71,0-5.1,1-7.17,2.99-2.07,2-3.11,4.34-3.11,7.05,0,2.55,1.03,4.82,3.11,6.81,2.07,1.99,4.46,2.99,7.17,2.99-2.71,0-5.1,1-7.17,2.99-2.07,1.99-3.11,4.26-3.11,6.81,0,2.87,.99,5.26,2.99,7.17,1.99,1.91,4.42,2.87,7.29,2.87s5.22-.92,7.05-2.75,2.75-4.26,2.75-7.29c0,2.87,.96,5.26,2.87,7.17,1.91,1.91,4.3,2.87,7.17,2.87s5.3-.96,7.29-2.87c1.99-1.91,2.99-4.3,2.99-7.17,0,3.03,.92,5.46,2.75,7.29,1.83,1.83,4.18,2.75,7.05,2.75-2.87,0-5.22,.96-7.05,2.87-1.83,1.91-2.75,4.39-2.75,7.41,0,2.71-1,5.02-2.99,6.93-1.99,1.91-4.42,2.87-7.29,2.87-2.71,0-5.06-.96-7.05-2.87-1.99-1.91-2.99-4.22-2.99-6.93,0,2.71-.92,5.02-2.75,6.93-1.83,1.91-4.18,2.87-7.05,2.87-2.71,0-5.1-.99-7.17-2.99-2.07-1.99-3.11-4.26-3.11-6.81,0-3.03-.92-5.5-2.75-7.41-1.83-1.91-4.1-2.87-6.81-2.87-2.87,0-5.26-.96-7.17-2.87-1.91-1.91-2.87-4.3-2.87-7.17,0-2.71,.99-5.02,2.99-6.93,1.99-1.91,4.34-2.87,7.05-2.87-2.71,0-5.06-.96-7.05-2.87-1.99-1.91-2.99-4.22-2.99-6.93s.99-5.06,2.99-7.05c1.99-1.99,4.34-2.99,7.05-2.99-2.71,0-5.06-1.03-7.05-3.11-1.99-2.07-2.99-4.46-2.99-7.17,0-2.39,.99-4.58,2.99-6.57,1.99-1.99,4.34-2.99,7.05-2.99-2.71,0-5.06-.96-7.05-2.87-1.99-1.91-2.99-4.22-2.99-6.93,0-2.87,.96-5.26,2.87-7.17,1.91-1.91,4.3-2.87,7.17-2.87,2.71,0,4.98-.96,6.81-2.87,1.83-1.91,2.75-4.38,2.75-7.41,0-2.55,1.03-4.82,3.11-6.81,2.07-1.99,4.46-2.99,7.17-2.99,2.87,0,5.22,.96,7.05,2.87,1.83,1.91,2.75,4.22,2.75,6.93,0-2.71,.99-5.02,2.99-6.93,1.99-1.91,4.34-2.87,7.05-2.87,2.87,0,5.3,.96,7.29,2.87,1.99,1.91,2.99,4.22,2.99,6.93,0-2.71,.92-5.02,2.75-6.93,1.83-1.91,4.18-2.87,7.05-2.87,2.71,0,5.02,.96,6.93,2.87,1.91,1.91,2.87,4.22,2.87,6.93,0,2.87,.99,5.3,2.99,7.29,1.99,2,4.34,2.99,7.05,2.99s5.06,.96,7.05,2.87c1.99,1.91,2.99,4.3,2.99,7.17,0,2.55-1,4.82-2.99,6.81-1.99,2-4.34,2.99-7.05,2.99,2.55,0,4.86,1,6.93,2.99,2.07,1.99,3.11,4.18,3.11,6.57,0,2.71-1,5.1-2.99,7.17Z"/><path class="cls-1" d="M298.09,156.94c-2.07-1.99-3.11-4.34-3.11-7.05s-.96-5.02-2.87-6.93-4.3-2.87-7.17-2.87c-2.71,0-4.98-.99-6.81-2.99-1.83-1.99-2.75-4.34-2.75-7.05,0-2.87,.92-5.3,2.75-7.29,1.83-1.99,4.1-2.99,6.81-2.99-2.71,0-4.98-.96-6.81-2.87-1.83-1.91-2.75-4.22-2.75-6.93s.92-5.06,2.75-7.05c1.83-1.99,4.1-2.99,6.81-2.99-2.71,0-4.98-.92-6.81-2.75-1.83-1.83-2.75-4.1-2.75-6.81,0-3.03,.92-5.5,2.75-7.41,1.83-1.91,4.1-2.87,6.81-2.87-2.71,0-4.98-.99-6.81-2.99-1.83-1.99-2.75-4.34-2.75-7.05,0-2.87,.92-5.26,2.75-7.17,1.83-1.91,4.1-2.87,6.81-2.87,2.87,0,5.26-.99,7.17-2.99,1.91-1.99,2.87-4.34,2.87-7.05s-.96-4.98-2.87-6.81c-1.91-1.83-4.3-2.75-7.17-2.75-2.71,0-4.98-.99-6.81-2.99-1.83-1.99-2.75-4.42-2.75-7.29,0-2.71,.92-5.06,2.75-7.05,1.83-1.99,4.1-2.99,6.81-2.99-2.71,0-4.98-.96-6.81-2.87-1.83-1.91-2.75-4.3-2.75-7.17,0-2.71,.92-5.06,2.75-7.05,1.83-1.99,4.1-2.99,6.81-2.99,2.87,0,5.26,1,7.17,2.99,1.91,1.99,2.87,4.34,2.87,7.05,0,2.87,.99,5.26,2.99,7.17,1.99,1.91,4.42,2.87,7.29,2.87-2.71,0-5.1,1-7.17,2.99-2.07,1.99-3.11,4.34-3.11,7.05s1.03,5.1,3.11,7.17c2.07,2.07,4.46,3.11,7.17,3.11s5.02,.92,6.93,2.75c1.91,1.83,2.87,4.1,2.87,6.81,0-2.71,.99-4.98,2.99-6.81,1.99-1.83,4.34-2.75,7.05-2.75s5.02,.92,6.93,2.75c1.91,1.83,2.87,4.1,2.87,6.81s-.96,5.06-2.87,7.05c-1.91,1.99-4.22,2.99-6.93,2.99s-5.06,.96-7.05,2.87c-1.99,1.91-2.99,4.3-2.99,7.17,0-2.87-.96-5.26-2.87-7.17-1.91-1.91-4.22-2.87-6.93-2.87h0c-2.87,0-5.3,.96-7.29,2.87-1.99,1.91-2.99,4.3-2.99,7.17,0,2.71,1.03,5.06,3.11,7.05,2.07,1.99,4.46,2.99,7.17,2.99-2.87,0-5.3,1-7.29,2.99-1.99,2-2.99,4.42-2.99,7.29,0,2.55,1.03,4.78,3.11,6.69,2.07,1.91,4.46,2.87,7.17,2.87-2.71,0-5.1,1-7.17,2.99-2.07,1.99-3.11,4.34-3.11,7.05s1.03,5.02,3.11,6.93c2.07,1.91,4.46,2.87,7.17,2.87-2.71,0-5.1,1-7.17,2.99-2.07,1.99-3.11,4.42-3.11,7.29,0,2.71,1.03,5.06,3.11,7.05,2.07,1.99,4.46,2.99,7.17,2.99s5.02-.99,6.93-2.99c1.91-1.99,2.87-4.34,2.87-7.05,0,2.71,.99,5.06,2.99,7.05,1.99,1.99,4.34,2.99,7.05,2.99h0c2.71,0,5.02-.99,6.93-2.99,1.91-1.99,2.87-4.34,2.87-7.05,0,2.55,1.03,4.86,3.11,6.93,2.07,2.07,4.38,3.11,6.93,3.11,2.87,0,5.26,.96,7.17,2.87,1.91,1.91,2.87,4.22,2.87,6.93s-.96,5.06-2.87,7.05c-1.91,2-4.3,2.99-7.17,2.99-2.55,0-4.86-1.03-6.93-3.11-2.07-2.07-3.11-4.38-3.11-6.93,0,2.71-.96,5.06-2.87,7.05-1.91,2-4.22,2.99-6.93,2.99s-5.06-.99-7.05-2.99c-1.99-1.99-2.99-4.34-2.99-7.05,0,2.71-.96,5.06-2.87,7.05-1.91,2-4.22,2.99-6.93,2.99s-5.1-.99-7.17-2.99Z"/><path class="cls-1" d="M338.37,156.94c-1.99,2-4.34,2.99-7.05,2.99s-5.02-.99-6.93-2.99c-1.91-1.99-2.87-4.34-2.87-7.05s.96-5.02,2.87-6.93c1.91-1.91,4.22-2.87,6.93-2.87-2.71,0-5.02-.99-6.93-2.99-1.91-1.99-2.87-4.34-2.87-7.05s.96-5.06,2.87-7.05c1.91-1.99,4.22-2.99,6.93-2.99-2.71,0-5.02-.96-6.93-2.87-1.91-1.91-2.87-4.22-2.87-6.93s.96-5.06,2.87-7.05c1.91-1.99,4.22-2.99,6.93-2.99-2.71,0-5.02-.99-6.93-2.99-1.91-1.99-2.87-4.34-2.87-7.05s.96-5.02,2.87-6.93c1.91-1.91,4.22-2.87,6.93-2.87-2.71,0-5.02-.99-6.93-2.99-1.91-1.99-2.87-4.34-2.87-7.05s.96-5.06,2.87-7.05c1.91-1.99,4.22-2.99,6.93-2.99s5.06-.96,7.05-2.87c1.99-1.91,2.99-4.22,2.99-6.93s.99-5.06,2.99-7.05c1.99-1.99,4.34-2.99,7.05-2.99s5.02,1,6.93,2.99c1.91,1.99,2.87,4.34,2.87,7.05,0-2.71,.99-5.06,2.99-7.05,1.99-1.99,4.34-2.99,7.05-2.99s5.06,1,7.05,2.99c1.99,1.99,2.99,4.34,2.99,7.05,0-2.71,.96-5.06,2.87-7.05,1.91-1.99,4.22-2.99,6.93-2.99s5.06,1,7.05,2.99c1.99,1.99,2.99,4.34,2.99,7.05s-1,5.02-2.99,6.93c-1.99,1.91-4.34,2.87-7.05,2.87s-5.02,1-6.93,2.99c-1.91,1.99-2.87,4.34-2.87,7.05,0-2.71-1-5.06-2.99-7.05-1.99-1.99-4.34-2.99-7.05-2.99s-5.06,1-7.05,2.99c-1.99,1.99-2.99,4.34-2.99,7.05,0-2.71-.96-5.06-2.87-7.05-1.91-1.99-4.22-2.99-6.93-2.99s-5.06,1-7.05,2.99c-1.99,1.99-2.99,4.34-2.99,7.05s.99,5.06,2.99,7.05c1.99,2,4.34,2.99,7.05,2.99-2.71,0-5.06,.96-7.05,2.87-1.99,1.91-2.99,4.22-2.99,6.93s.99,5.06,2.99,7.05c1.99,1.99,4.34,2.99,7.05,2.99-2.71,0-5.06,1-7.05,2.99-1.99,2-2.99,4.34-2.99,7.05s.99,5.02,2.99,6.93c1.99,1.91,4.34,2.87,7.05,2.87-2.71,0-5.06,1-7.05,2.99-1.99,1.99-2.99,4.34-2.99,7.05s.99,5.06,2.99,7.05c1.99,1.99,4.34,2.99,7.05,2.99-2.71,0-5.06,.96-7.05,2.87-1.99,1.91-2.99,4.22-2.99,6.93s-1,5.06-2.99,7.05Z"/><path class="cls-1" d="M391.19,122.99c1.99-1.99,4.34-2.99,7.05-2.99-2.71,0-5.06-.96-7.05-2.87-1.99-1.91-2.99-4.22-2.99-6.93s.99-5.06,2.99-7.05c1.99-1.99,4.34-2.99,7.05-2.99-2.71,0-5.06-.99-7.05-2.99-1.99-1.99-2.99-4.34-2.99-7.05s.99-5.02,2.99-6.93c1.99-1.91,4.34-2.87,7.05-2.87-2.71,0-5.06-.99-7.05-2.99-1.99-1.99-2.99-4.34-2.99-7.05s.99-5.06,2.99-7.05c1.99-1.99,4.34-2.99,7.05-2.99s5.02-.96,6.93-2.87c1.91-1.91,2.87-4.22,2.87-6.93s.99-5.06,2.99-7.05c1.99-1.99,4.34-2.99,7.05-2.99s5.06,1,7.05,2.99c1.99,1.99,2.99,4.34,2.99,7.05,0-2.71,.96-5.06,2.87-7.05,1.91-1.99,4.22-2.99,6.93-2.99s5.06,1,7.05,2.99c1.99,1.99,2.99,4.34,2.99,7.05,0-2.71,.99-5.06,2.99-7.05,1.99-1.99,4.34-2.99,7.05-2.99s5.02,1,6.93,2.99c1.91,1.99,2.87,4.34,2.87,7.05s.99,5.02,2.99,6.93c1.99,1.91,4.34,2.87,7.05,2.87s5.06,1,7.05,2.99c1.99,1.99,2.99,4.34,2.99,7.05s-1,5.06-2.99,7.05c-1.99,2-4.34,2.99-7.05,2.99s-5.06,.96-7.05,2.87c-1.99,1.91-2.99,4.22-2.99,6.93s-.96,5.06-2.87,7.05c-1.91,1.99-4.22,2.99-6.93,2.99s-5.06,1-7.05,2.99c-1.99,2-2.99,4.34-2.99,7.05,0-2.71-1-5.06-2.99-7.05-1.99-1.99-4.34-2.99-7.05-2.99s-5.02,1-6.93,2.99c-1.91,2-2.87,4.34-2.87,7.05,0-2.71-1-5.06-2.99-7.05-1.99-1.99-4.34-2.99-7.05-2.99,2.71,0,5.06-.99,7.05-2.99,1.99-1.99,2.99-4.34,2.99-7.05s.96-5.02,2.87-6.93c1.91-1.91,4.22-2.87,6.93-2.87s5.06,.96,7.05,2.87c1.99,1.91,2.99,4.22,2.99,6.93,0-2.71,.99-5.02,2.99-6.93,1.99-1.91,4.34-2.87,7.05-2.87s5.02-.99,6.93-2.99c1.91-1.99,2.87-4.34,2.87-7.05s-.96-5.06-2.87-7.05c-1.91-1.99-4.22-2.99-6.93-2.99s-5.06,1-7.05,2.99c-1.99,1.99-2.99,4.34-2.99,7.05,0-2.71-1-5.06-2.99-7.05-1.99-1.99-4.34-2.99-7.05-2.99s-5.02,1-6.93,2.99c-1.91,1.99-2.87,4.34-2.87,7.05,0-2.71-1-5.06-2.99-7.05-1.99-1.99-4.34-2.99-7.05-2.99s-5.06,1-7.05,2.99c-1.99,1.99-2.99,4.34-2.99,7.05s.99,5.06,2.99,7.05c1.99,2,4.34,2.99,7.05,2.99-2.71,0-5.06,.96-7.05,2.87-1.99,1.91-2.99,4.22-2.99,6.93s.99,5.06,2.99,7.05c1.99,1.99,4.34,2.99,7.05,2.99-2.71,0-5.06,1-7.05,2.99-1.99,2-2.99,4.34-2.99,7.05s.99,5.02,2.99,6.93c1.99,1.91,4.34,2.87,7.05,2.87-2.71,0-5.06,1-7.05,2.99-1.99,1.99-2.99,4.34-2.99,7.05s.99,5.06,2.99,7.05c1.99,1.99,4.34,2.99,7.05,2.99s5.06-.99,7.05-2.99c1.99-1.99,2.99-4.34,2.99-7.05,0,2.71,.96,5.06,2.87,7.05,1.91,1.99,4.22,2.99,6.93,2.99s5.06-.99,7.05-2.99,2.99-4.34,2.99-7.05c0,2.71,.99,5.06,2.99,7.05,1.99,1.99,4.34,2.99,7.05,2.99s5.02-.99,6.93-2.99c1.91-1.99,2.87-4.34,2.87-7.05s.99-5.06,2.99-7.05c1.99-1.99,4.34-2.99,7.05-2.99s5.06,1,7.05,2.99c1.99,1.99,2.99,4.34,2.99,7.05s-1,5.06-2.99,7.05c-1.99,1.99-4.34,2.99-7.05,2.99s-5.06,.96-7.05,2.87c-1.99,1.91-2.99,4.22-2.99,6.93s-.96,5.06-2.87,7.05c-1.91,2-4.22,2.99-6.93,2.99s-5.06-.99-7.05-2.99c-1.99-1.99-2.99-4.34-2.99-7.05,0,2.71-1,5.06-2.99,7.05-1.99,2-4.34,2.99-7.05,2.99s-5.02-.99-6.93-2.99c-1.91-1.99-2.87-4.34-2.87-7.05,0,2.71-1,5.06-2.99,7.05-1.99,2-4.34,2.99-7.05,2.99s-5.06-.99-7.05-2.99c-1.99-1.99-2.99-4.34-2.99-7.05s-.96-5.02-2.87-6.93c-1.91-1.91-4.22-2.87-6.93-2.87s-5.06-.99-7.05-2.99c-1.99-1.99-2.99-4.34-2.99-7.05s.99-5.06,2.99-7.05Z"/><path class="cls-1" d="M477.01,122.99c1.99-1.99,4.34-2.99,7.05-2.99-2.71,0-5.06-.96-7.05-2.87-1.99-1.91-2.99-4.22-2.99-6.93s.99-5.06,2.99-7.05c1.99-1.99,4.34-2.99,7.05-2.99-2.71,0-5.06-.99-7.05-2.99-1.99-1.99-2.99-4.34-2.99-7.05s.99-5.02,2.99-6.93c1.99-1.91,4.34-2.87,7.05-2.87-2.71,0-5.06-.99-7.05-2.99-1.99-1.99-2.99-4.34-2.99-7.05s.99-5.06,2.99-7.05c1.99-1.99,4.34-2.99,7.05-2.99s5.02-.96,6.93-2.87c1.91-1.91,2.87-4.22,2.87-6.93s.99-5.06,2.99-7.05c1.99-1.99,4.34-2.99,7.05-2.99s5.06,1,7.05,2.99c1.99,1.99,2.99,4.34,2.99,7.05,0-2.71,.96-5.06,2.87-7.05,1.91-1.99,4.22-2.99,6.93-2.99s5.06,1,7.05,2.99c1.99,1.99,2.99,4.34,2.99,7.05,0-2.71,.99-5.06,2.99-7.05,1.99-1.99,4.34-2.99,7.05-2.99s5.02,1,6.93,2.99c1.91,1.99,2.87,4.34,2.87,7.05s.99,5.02,2.99,6.93c1.99,1.91,4.34,2.87,7.05,2.87s5.06,1,7.05,2.99c1.99,1.99,2.99,4.34,2.99,7.05s-1,5.06-2.99,7.05c-1.99,2-4.34,2.99-7.05,2.99s-5.06,.96-7.05,2.87c-1.99,1.91-2.99,4.22-2.99,6.93s-.96,5.06-2.87,7.05c-1.91,1.99-4.22,2.99-6.93,2.99s-5.06,1-7.05,2.99c-1.99,2-2.99,4.34-2.99,7.05,0-2.71-1-5.06-2.99-7.05-1.99-1.99-4.34-2.99-7.05-2.99s-5.02,1-6.93,2.99c-1.91,2-2.87,4.34-2.87,7.05,0-2.71-1-5.06-2.99-7.05-1.99-1.99-4.34-2.99-7.05-2.99,2.71,0,5.06-.99,7.05-2.99,1.99-1.99,2.99-4.34,2.99-7.05s.96-5.02,2.87-6.93c1.91-1.91,4.22-2.87,6.93-2.87s5.06,.96,7.05,2.87c1.99,1.91,2.99,4.22,2.99,6.93,0-2.71,.99-5.02,2.99-6.93,1.99-1.91,4.34-2.87,7.05-2.87s5.02-.99,6.93-2.99c1.91-1.99,2.87-4.34,2.87-7.05s-.96-5.06-2.87-7.05c-1.91-1.99-4.22-2.99-6.93-2.99s-5.06,1-7.05,2.99c-1.99,1.99-2.99,4.34-2.99,7.05,0-2.71-1-5.06-2.99-7.05-1.99-1.99-4.34-2.99-7.05-2.99s-5.02,1-6.93,2.99c-1.91,1.99-2.87,4.34-2.87,7.05,0-2.71-1-5.06-2.99-7.05-1.99-1.99-4.34-2.99-7.05-2.99s-5.06,1-7.05,2.99c-1.99,1.99-2.99,4.34-2.99,7.05s.99,5.06,2.99,7.05c1.99,2,4.34,2.99,7.05,2.99-2.71,0-5.06,.96-7.05,2.87-1.99,1.91-2.99,4.22-2.99,6.93s.99,5.06,2.99,7.05c1.99,1.99,4.34,2.99,7.05,2.99-2.71,0-5.06,1-7.05,2.99-1.99,2-2.99,4.34-2.99,7.05s.99,5.02,2.99,6.93c1.99,1.91,4.34,2.87,7.05,2.87-2.71,0-5.06,1-7.05,2.99-1.99,1.99-2.99,4.34-2.99,7.05s.99,5.06,2.99,7.05c1.99,1.99,4.34,2.99,7.05,2.99s5.06-.99,7.05-2.99c1.99-1.99,2.99-4.34,2.99-7.05,0,2.71,.96,5.06,2.87,7.05,1.91,1.99,4.22,2.99,6.93,2.99s5.06-.99,7.05-2.99,2.99-4.34,2.99-7.05c0,2.71,.99,5.06,2.99,7.05,1.99,1.99,4.34,2.99,7.05,2.99s5.02-.99,6.93-2.99c1.91-1.99,2.87-4.34,2.87-7.05s.99-5.06,2.99-7.05c1.99-1.99,4.34-2.99,7.05-2.99s5.06,1,7.05,2.99c1.99,1.99,2.99,4.34,2.99,7.05s-1,5.06-2.99,7.05c-1.99,1.99-4.34,2.99-7.05,2.99s-5.06,.96-7.05,2.87c-1.99,1.91-2.99,4.22-2.99,6.93s-.96,5.06-2.87,7.05c-1.91,2-4.22,2.99-6.93,2.99s-5.06-.99-7.05-2.99c-1.99-1.99-2.99-4.34-2.99-7.05,0,2.71-1,5.06-2.99,7.05-1.99,2-4.34,2.99-7.05,2.99s-5.02-.99-6.93-2.99c-1.91-1.99-2.87-4.34-2.87-7.05,0,2.71-1,5.06-2.99,7.05-1.99,2-4.34,2.99-7.05,2.99s-5.06-.99-7.05-2.99c-1.99-1.99-2.99-4.34-2.99-7.05s-.96-5.02-2.87-6.93c-1.91-1.91-4.22-2.87-6.93-2.87s-5.06-.99-7.05-2.99c-1.99-1.99-2.99-4.34-2.99-7.05s.99-5.06,2.99-7.05Z"/></g></g></svg>