<?xml version="1.0" encoding="UTF-8"?><svg id="Layer_2" xmlns="http://www.w3.org/2000/svg" viewBox="0 0 315.06 107.59"><defs><style>.cls-1{fill:#0a6422;}</style></defs><g id="Layer_1-2"><g><path class="cls-1" d="M30.07,77.84h-4.13c-9.34,0-15.96-5.75-20.52-11.29C.87,61.23,0,52,0,46.68c0-13.46,9.34-26.06,17.7-30.4,2.93-1.41,4.56-2.5,5.54-4.56,.33-.76,1.09-1.41,2.06-1.85s2.06-.87,3.04-1.41C37.89,3.58,46.25,1.85,55.37,1.52c1.63,0,2.61,.43,3.8,.87,4.45,1.63,6.51,3.04,6.51,6.62,0,.54-.11,1.3-.22,2.06-.22,.76-.33,1.63-.33,2.5s0,2.06,.33,2.93c0,1.84-1.52,3.04-3.26,3.04-3.04,0-3.15-3.47-3.15-6.19,0-.76,.11-1.52,.33-2.5,.22-.98,.33-1.52,.33-1.63-.54-.22-.98-.43-1.41-.76-.76-.43-1.85-.87-2.71-.87-9.77,.33-17.15,2.06-27.47,7.82-2.71,4.78-9.01,6.19-11.94,9.12-4.99,5.32-10.1,13.57-10.1,22.26,0,16.29,10.31,25.08,20.84,25.08,.33,0,.76,0,1.19-.11h3.37c.76,.11,1.52,.11,2.28,.11,6.08,0,10.97-.87,11.51-3.8,.33-1.41,.87-2.61,1.63-3.58,.76-.98,1.19-1.74,1.19-2.39,0-1.63,1.3-3.04,3.04-3.04,1.63,0,3.04,1.41,3.04,3.04,0,3.26-2.61,4.99-3.04,7.17-1.09,5.43-5.1,7.06-8.79,7.82-2.71,.76-5.43,.87-8.03,.87-1.52,0-2.93,0-4.23-.11Z"/><path class="cls-1" d="M95.32,47.33c0,14.77-12.38,32.14-24.64,32.14-6.62,0-10.42-3.69-10.42-12.92,0-10.53,5.86-22.37,14.98-28.88,3.58-2.61,6.62-4.02,9.55-4.02,3.58,0,6.51,1.95,8.79,5.97,1.19,2.17,1.74,4.78,1.74,7.71Zm-28.88,18.46c0,3.91,.54,7.06,4.78,7.06,9.12,0,17.91-14.77,17.91-25.08,0-4.67-2.5-7.6-4.67-7.6-1.63,0-3.69,.87-6.19,2.71-6.84,4.89-11.83,14.87-11.83,22.91Z"/><path class="cls-1" d="M90.44,80.12c0-2.5,3.8-3.91,6.41-4.78-.22-.98-.33-1.85-.33-2.71,0-2.61,.87-4.88,1.63-6.95,1.3-3.69,2.71-7.27,4.23-10.86,1.41-3.58,2.93-7.06,4.34-10.53l4.23-10.31c2.93-7.27,5.86-13.9,7.27-21.28-2.06-.76-2.71-.98-3.58-.98-.33,0-.54,0-.87,.11-.33,.11-.54,.22-.87,.22-1.63,0-3.26-1.09-3.26-3.15,0-2.5,2.5-3.47,4.99-3.47,2.28,0,8.79,1.95,9.66,3.15,.33,.65,.54,1.41,.54,2.28-1.41,9.12-4.89,17.37-8.25,25.51l-4.23,10.21c-2.93,7.06-5.75,14.22-8.36,21.28-.76,1.74-1.3,3.26-1.3,4.89,3.15-1.63,5.65-3.69,7.27-7.27,.54-1.19,1.41-1.85,2.82-1.85,1.85,0,3.04,1.63,3.04,3.04,0,.33-.11,.76-.22,1.3-4.02,9.34-12.27,10.64-20.74,14.87-.43,.22-.87,.33-1.3,.33-1.63,0-3.15-1.3-3.15-3.04Z"/><path class="cls-1" d="M155.58,47.33c0,14.77-12.38,32.14-24.64,32.14-6.62,0-10.42-3.69-10.42-12.92,0-10.53,5.86-22.37,14.98-28.88,3.58-2.61,6.62-4.02,9.55-4.02,3.58,0,6.51,1.95,8.79,5.97,1.19,2.17,1.74,4.78,1.74,7.71Zm-28.88,18.46c0,3.91,.54,7.06,4.78,7.06,9.12,0,17.91-14.77,17.91-25.08,0-4.67-2.5-7.6-4.67-7.6-1.63,0-3.69,.87-6.19,2.71-6.84,4.89-11.83,14.87-11.83,22.91Z"/><path class="cls-1" d="M133.32,104.33c0-3.8,7.93-3.15,13.03-4.02,2.71-14.98,9.88-25.62,13.57-39.84,3.26-12.05,10.64-29.42,12.81-41.47,.22-1.63,1.19-2.5,3.04-2.5,2.28,0,3.15,1.84,3.15,3.69-.76,3.47-1.52,6.84-2.5,10.21,11.83,2.06,17.15,8.47,17.15,19,0,12.7-11.73,29.64-25.62,29.64-1.85,0-4.78-.43-7.27-1.41-3.04,7.38-6.19,14.55-7.82,22.04h.43c3.37,0,9.01,.54,9.01,4.02,0,1.84-1.41,3.26-3.04,3.26-.98,0-1.85-.11-2.82-.43-.98-.33-2.06-.43-3.04-.43-2.5,0-5.1,.22-7.71,.76-2.61,.54-5.32,.76-8.14,.76-2.5,0-4.23-.76-4.23-3.26Zm54.07-56.89c0-4.89-3.04-9.45-12.92-10.97-1.41,4.34-2.93,8.58-4.45,12.7-1.63,4.23-2.93,8.47-4.02,12.92-.76,3.15-1.63,6.08-2.82,9.12,1.63,.76,3.26,1.52,4.89,1.52,8.47,0,19.32-11.51,19.32-25.3Z"/><path class="cls-1" d="M211.82,78.06c-.98-.33-1.95-.43-2.82-.43-.33,0-.65,0-.87,.11-.22,.11-.43,.11-.65,.11-1.74,0-3.26-1.41-3.26-3.26,0-2.5,2.71-3.37,4.78-3.37,1.3,0,2.5,.11,3.58,.43,1.09,.33,1.95,.43,2.61,.43,3.04,0,6.51-6.19,8.69-11.62,2.06-5.43,4.13-13.9,4.13-18.24,0-2.5-.33-4.12-.87-4.99-.65-.76-1.09-1.19-1.19-1.19-2.5,0-7.93,7.71-12.7,7.71h-.43c-1.74,5.32-3.8,10.31-6.3,15.09-2.5,4.78-4.89,9.55-7.17,14.33,.22,.43,.33,.87,.33,1.41,0,1.63-1.41,3.26-3.15,3.26-2.61,0-4.02-2.93-4.02-4.34,0-2.5,3.47-8.36,5.43-11.94,5.1-9.66,9.12-18.78,11.18-29.2,1.74-9.88,7.93-17.7,9.45-27.14,.65-4.13,4.13-5.21,6.19-5.21s3.37,1.3,3.37,3.47c0,1.3-.65,2.17-1.85,2.61l-.87,.33c-.33,0-.65,.11-.76,.22-1.19,9.77-7.6,17.7-9.12,26.82-.11,.54-.22,1.09-.33,1.52-.11,.54-.22,.98-.33,1.52,3.26-2.61,6.84-6.95,11.18-6.95s8.36,3.58,8.36,12.7c0,13.9-9.01,36.26-19.22,36.26-1.19,0-2.39-.11-3.37-.43Z"/><path class="cls-1" d="M270.55,47.33c0,14.77-12.38,32.14-24.64,32.14-6.62,0-10.42-3.69-10.42-12.92,0-10.53,5.86-22.37,14.98-28.88,3.58-2.61,6.62-4.02,9.55-4.02,3.58,0,6.51,1.95,8.79,5.97,1.19,2.17,1.74,4.78,1.74,7.71Zm-28.88,18.46c0,3.91,.54,7.06,4.78,7.06,9.12,0,17.91-14.77,17.91-25.08,0-4.67-2.5-7.6-4.67-7.6-1.63,0-3.69,.87-6.19,2.71-6.84,4.89-11.83,14.87-11.83,22.91Z"/><path class="cls-1" d="M300.3,75.35c-1.19,1.41-3.69,3.47-5.86,3.47-1.63,0-3.04-1.19-3.04-3.04,0-1.41,.65-2.39,1.85-2.93,3.37-1.3,3.26-3.04,3.26-4.78,0-3.37,1.41-5.86,2.82-7.92l.54-.87c1.09-2.28,2.28-4.34,3.58-6.3,1.19-1.85,2.06-4.02,2.61-6.41l.11-.87c.11-.54,.33-1.19,.43-2.17,.11-.87,.43-1.85,.76-2.82-.76-.65-1.19-1.09-1.41-1.19-.33-.11-.43-.22-.54-.22-4.45,4.12-7.6,9.34-13.9,9.88-.54,1.19-1.09,2.28-1.63,3.47-.65,1.19-1.3,2.5-1.85,3.91-1.63,5.65-5.54,9.34-5.86,14.22-.33,3.47-4.02,8.03-8.47,8.03-1.63,0-3.15-1.19-3.15-3.04,0-3.37,5.1-2.71,5.43-5.43,.22-5.1,4.23-9.99,6.3-15.74,.98-2.61,4.23-9.01,4.23-10.1,0-.76-.11-1.3-.43-2.17-2.61,.54-4.02,2.17-5.43,6.51-.33,1.3-1.52,2.17-2.82,2.17-2.06,0-3.15-1.63-3.15-3.26,0-.33,0-.65,.11-.87,1.95-5.32,4.89-10.86,12.05-10.86,2.61,0,5.21,2.06,5.75,6.51,5.97-2.39,6.62-9.34,12.81-9.34,2.06,0,4.56,1.19,6.19,2.82h.33c1.74,0,3.15,1.52,3.15,3.15,0,.76-.33,1.52-.87,2.06-1.19,1.41-1.52,3.47-1.95,5.65l-.22,.87c-.76,4.78-3.26,8.36-5.43,12.16l-1.95,3.37c-1.41,2.5-1.95,3.37-1.95,5.43v.65c1.3-.11,2.71-2.17,4.34-4.23l1.3-1.74c.65-.76,1.41-1.09,2.39-1.09,1.63,0,3.15,1.41,3.15,3.04,0,.76-.22,1.41-.65,1.95l-1.19,1.52c-3.37,4.23-5.86,6.84-9.45,6.84-.76,0-1.52-.11-2.28-.33Z"/></g></g></svg>