<?xml version="1.0" encoding="UTF-8"?><svg id="Layer_2" xmlns="http://www.w3.org/2000/svg" viewBox="0 0 1387.24 434.87"><g id="Layer_1-2"><g><path d="M5.55,190.7v-26.45c0-9.79-3.44-14.55-5.55-18.78,4.23,2.12,8.99,5.55,18.78,5.55,7.67,0,13.22-5.55,13.22-13.22,0-9.79-3.44-14.55-5.55-18.78,4.23,2.12,8.99,5.55,18.78,5.55,7.67,0,13.23-5.55,13.23-13.22,0-9.79-3.44-14.55-5.55-18.78,4.23,2.12,8.99,5.55,18.78,5.55,7.67,0,13.23-5.55,13.23-13.22V45.23c0-7.67-5.55-13.22-13.23-13.22h-26.45c-7.67,0-13.22,5.55-13.22,13.22,0,9.79,3.44,14.55,5.55,18.78-4.23-2.12-8.99-5.55-18.78-5.55s-14.55,3.44-18.78,5.55c2.12-4.23,5.55-8.99,5.55-18.78S2.12,30.68,0,26.45c4.23,2.12,8.99,5.55,18.78,5.55,7.67,0,13.22-5.55,13.22-13.23,0-9.79-3.44-14.55-5.55-18.78,4.23,2.12,8.99,5.55,18.78,5.55h26.45c9.79,0,14.55-3.44,18.78-5.55-2.12,4.23-5.55,8.99-5.55,18.78,0,7.67,5.55,13.23,13.22,13.23,9.79,0,14.55-3.44,18.78-5.55-2.12,4.23-5.55,8.99-5.55,18.78v39.67c0,9.79,3.44,14.55,5.55,18.78-4.23-2.12-8.99-5.55-18.78-5.55-7.67,0-13.22,5.55-13.22,13.23,0,9.79,3.44,14.55,5.55,18.78-4.23-2.12-8.99-5.55-18.78-5.55-7.67,0-13.22,5.55-13.22,13.22,0,9.79,3.44,14.55,5.55,18.78-4.23-2.12-8.99-5.55-18.78-5.55-7.67,0-13.22,5.55-13.22,13.22v13.23H98.13c9.79,0,14.55-3.44,18.78-5.55-2.12,4.23-5.55,8.99-5.55,18.78s3.44,14.55,5.55,18.78c-4.23-2.12-8.99-5.55-18.78-5.55H18.78c-9.79,0-14.55,3.44-18.78,5.55,2.12-4.23,5.55-8.99,5.55-18.78Z"/><path d="M203.13,190.7v-52.9h-66.12c-9.79,0-14.55,3.44-18.78,5.55,2.12-4.23,5.55-8.99,5.55-18.78v-26.45c0-9.79-3.44-14.55-5.55-18.78,4.23,2.12,8.99,5.55,18.78,5.55,8.2,0,13.22-5.55,13.22-13.22,0-9.79-3.44-14.55-5.55-18.78,4.23,2.12,8.99,5.55,18.78,5.55,8.2,0,13.23-5.55,13.23-13.22,0-9.79-3.44-14.55-5.55-18.78,4.23,2.12,8.99,5.55,18.78,5.55h13.22v-13.23c0-9.79-3.44-14.55-5.55-18.78,4.23,2.12,8.99,5.55,18.78,5.55s14.55-3.44,18.78-5.55c-2.12,4.23-5.55,8.99-5.55,18.78V111.35h13.23c9.79,0,14.55-3.44,18.78-5.55-2.12,4.23-5.55,8.99-5.55,18.78s3.44,14.55,5.55,18.78c-4.23-2.12-8.99-5.55-18.78-5.55h-13.23v52.9c0,9.79,3.44,14.55,5.55,18.78-4.23-2.12-8.99-5.55-18.78-5.55s-14.55,3.44-18.78,5.55c2.12-4.23,5.55-8.99,5.55-18.78Zm-52.9-79.35h52.9V58.45h-13.22c-8.2,0-13.22,5.55-13.22,13.22,0,9.79,3.44,14.55,5.55,18.78-4.23-2.12-8.99-5.55-18.78-5.55-8.2,0-13.22,5.55-13.22,13.22v13.23Z"/><path d="M268.46,190.7c0-9.79-3.44-14.55-5.55-18.78,4.23,2.12,8.99,5.55,18.78,5.55s14.55-3.44,18.78-5.55c-2.12,4.23-5.55,8.99-5.55,18.78s3.44,14.55,5.55,18.78c-4.23-2.12-8.99-5.55-18.78-5.55s-14.55,3.44-18.78,5.55c2.12-4.23,5.55-8.99,5.55-18.78Z"/><path d="M340.4,190.7c0-7.67-5.55-13.22-13.22-13.22-9.79,0-14.55,3.44-18.78,5.55,2.12-4.23,5.55-8.99,5.55-18.78V45.23c0-9.79-3.44-14.55-5.55-18.78,4.23,2.12,8.99,5.55,18.78,5.55,7.67,0,13.22-5.55,13.22-13.23,0-9.79-3.44-14.55-5.55-18.78,4.23,2.12,8.99,5.55,18.78,5.55h26.45c9.79,0,14.55-3.44,18.78-5.55-2.12,4.23-5.55,8.99-5.55,18.78,0,7.67,5.55,13.23,13.22,13.23,9.79,0,14.55-3.44,18.78-5.55-2.12,4.23-5.55,8.99-5.55,18.78v119.02c0,9.79,3.44,14.55,5.55,18.78-4.23-2.12-8.99-5.55-18.78-5.55-7.67,0-13.22,5.55-13.22,13.22,0,9.79,3.44,14.55,5.55,18.78-4.23-2.12-8.99-5.55-18.78-5.55h-26.45c-9.79,0-14.55,3.44-18.78,5.55,2.12-4.23,5.55-8.99,5.55-18.78Zm39.67-13.22c7.67,0,13.23-5.55,13.23-13.23V45.23c0-7.67-5.55-13.22-13.23-13.22h-26.45c-7.67,0-13.23,5.55-13.23,13.22v119.02c0,7.67,5.55,13.23,13.23,13.23h26.45Z"/><path d="M463.91,190.7c0-7.67-5.03-13.22-13.22-13.22-9.79,0-14.55,3.44-18.78,5.55,2.12-4.23,5.55-8.99,5.55-18.78v-13.22c0-9.79-3.44-14.55-5.55-18.78,4.23,2.12,8.99,5.55,18.78,5.55s14.55-3.44,18.78-5.55c-2.12,4.23-5.55,8.99-5.55,18.78v13.22c0,7.67,5.03,13.23,13.22,13.23h26.45c8.2,0,13.22-5.55,13.22-13.23v-39.67c0-7.67-5.03-13.22-13.22-13.22-9.79,0-14.55,3.44-18.78,5.55,2.12-4.23,5.55-8.99,5.55-18.78s-3.44-14.55-5.55-18.78c4.23,2.12,8.99,5.55,18.78,5.55,8.2,0,13.22-5.55,13.22-13.22v-26.45c0-7.67-5.03-13.22-13.22-13.22h-26.45c-8.2,0-13.22,5.55-13.22,13.22,0,9.79,3.44,14.55,5.55,18.78-4.23-2.12-8.99-5.55-18.78-5.55s-14.55,3.44-18.78,5.55c2.12-4.23,5.55-8.99,5.55-18.78s-3.44-14.55-5.55-18.78c4.23,2.12,8.99,5.55,18.78,5.55,8.2,0,13.22-5.55,13.22-13.23,0-9.79-3.44-14.55-5.55-18.78,4.23,2.12,8.99,5.55,18.78,5.55h26.45c9.79,0,14.55-3.44,18.78-5.55-2.12,4.23-5.55,8.99-5.55,18.78,0,7.67,5.03,13.23,13.23,13.23,9.79,0,14.55-3.44,18.78-5.55-2.12,4.23-5.55,8.99-5.55,18.78v26.45c0,9.79,3.44,14.55,5.55,18.78-4.23-2.12-8.99-5.55-18.78-5.55-17.46-1.59-17.46,28.04,0,26.45,9.79,0,14.55-3.44,18.78-5.55-2.12,4.23-5.55,8.99-5.55,18.78v39.67c0,9.79,3.44,14.55,5.55,18.78-4.23-2.12-8.99-5.55-18.78-5.55-8.2,0-13.23,5.55-13.23,13.22,0,9.79,3.44,14.55,5.55,18.78-4.23-2.12-8.99-5.55-18.78-5.55h-26.45c-9.79,0-14.55,3.44-18.78,5.55,2.12-4.23,5.55-8.99,5.55-18.78Z"/><path d="M562.3,190.7c0-9.79-3.44-14.55-5.55-18.78,4.23,2.12,8.99,5.55,18.78,5.55s14.55-3.44,18.78-5.55c-2.12,4.23-5.55,8.99-5.55,18.78s3.44,14.55,5.55,18.78c-4.23-2.12-8.99-5.55-18.78-5.55s-14.55,3.44-18.78,5.55c2.12-4.23,5.55-8.99,5.55-18.78Z"/><path d="M626.83,124.58c0-9.79-3.44-14.55-5.55-18.78,4.23,2.12,8.99,5.55,18.78,5.55h105.8c9.79,0,14.55-3.44,18.78-5.55-2.12,4.23-5.55,8.99-5.55,18.78s3.44,14.55,5.55,18.78c-4.23-2.12-8.99-5.55-18.78-5.55h-105.8c-9.79,0-14.55,3.44-18.78,5.55,2.12-4.23,5.55-8.99,5.55-18.78Z"/><path d="M823.61,190.7c0-7.67-5.55-13.22-13.22-13.22-9.79,0-14.55,3.44-18.78,5.55,2.12-4.23,5.55-8.99,5.55-18.78V45.23c0-9.79-3.44-14.55-5.55-18.78,4.23,2.12,8.99,5.55,18.78,5.55,7.67,0,13.22-5.55,13.22-13.23,0-9.79-3.44-14.55-5.55-18.78,4.23,2.12,8.99,5.55,18.78,5.55h26.45c9.79,0,14.55-3.44,18.78-5.55-2.12,4.23-5.55,8.99-5.55,18.78,0,7.67,5.55,13.23,13.22,13.23,9.79,0,14.55-3.44,18.78-5.55-2.12,4.23-5.55,8.99-5.55,18.78v119.02c0,9.79,3.44,14.55,5.55,18.78-4.23-2.12-8.99-5.55-18.78-5.55-7.67,0-13.22,5.55-13.22,13.22,0,9.79,3.44,14.55,5.55,18.78-4.23-2.12-8.99-5.55-18.78-5.55h-26.45c-9.79,0-14.55,3.44-18.78,5.55,2.12-4.23,5.55-8.99,5.55-18.78Zm39.67-13.22c7.67,0,13.23-5.55,13.23-13.23V45.23c0-7.67-5.55-13.22-13.23-13.22h-26.45c-7.67,0-13.22,5.55-13.22,13.22v119.02c0,7.67,5.55,13.23,13.22,13.23h26.45Z"/><path d="M922,190.7v-26.45c0-9.79-3.44-14.55-5.55-18.78,4.23,2.12,8.99,5.55,18.78,5.55,7.67,0,13.22-5.55,13.22-13.22,0-9.79-3.44-14.55-5.55-18.78,4.23,2.12,8.99,5.55,18.78,5.55,7.67,0,13.23-5.55,13.23-13.22,0-9.79-3.44-14.55-5.55-18.78,4.23,2.12,8.99,5.55,18.78,5.55,7.67,0,13.23-5.55,13.23-13.22V45.23c0-7.67-5.55-13.22-13.23-13.22h-26.45c-7.67,0-13.22,5.55-13.22,13.22,0,9.79,3.44,14.55,5.55,18.78-4.23-2.12-8.99-5.55-18.78-5.55s-14.55,3.44-18.78,5.55c2.12-4.23,5.55-8.99,5.55-18.78s-3.44-14.55-5.55-18.78c4.23,2.12,8.99,5.55,18.78,5.55,7.67,0,13.22-5.55,13.22-13.23,0-9.79-3.44-14.55-5.55-18.78,4.23,2.12,8.99,5.55,18.78,5.55h26.45c9.79,0,14.55-3.44,18.78-5.55-2.12,4.23-5.55,8.99-5.55,18.78,0,7.67,5.55,13.23,13.22,13.23,9.79,0,14.55-3.44,18.78-5.55-2.12,4.23-5.55,8.99-5.55,18.78v39.67c0,9.79,3.44,14.55,5.55,18.78-4.23-2.12-8.99-5.55-18.78-5.55-7.67,0-13.22,5.55-13.22,13.23,0,9.79,3.44,14.55,5.55,18.78-4.23-2.12-8.99-5.55-18.78-5.55-7.67,0-13.22,5.55-13.22,13.22,0,9.79,3.44,14.55,5.55,18.78-4.23-2.12-8.99-5.55-18.78-5.55-7.67,0-13.22,5.55-13.22,13.22v13.23h66.12c9.79,0,14.55-3.44,18.78-5.55-2.12,4.23-5.55,8.99-5.55,18.78s3.44,14.55,5.55,18.78c-4.23-2.12-8.99-5.55-18.78-5.55h-79.35c-9.79,0-14.55,3.44-18.78,5.55,2.12-4.23,5.55-8.99,5.55-18.78Z"/><path d="M1046.84,190.7c0-9.79-3.44-14.55-5.55-18.78,4.23,2.12,8.99,5.55,18.78,5.55s14.55-3.44,18.78-5.55c-2.12,4.23-5.55,8.99-5.55,18.78s3.44,14.55,5.55,18.78c-4.23-2.12-8.99-5.55-18.78-5.55s-14.55,3.44-18.78,5.55c2.12-4.23,5.55-8.99,5.55-18.78Z"/><path d="M1118.78,190.7c0-7.67-5.55-13.22-13.22-13.22-9.79,0-14.55,3.44-18.78,5.55,2.12-4.23,5.55-8.99,5.55-18.78V45.23c0-9.79-3.44-14.55-5.55-18.78,4.23,2.12,8.99,5.55,18.78,5.55,7.67,0,13.22-5.55,13.22-13.23,0-9.79-3.44-14.55-5.55-18.78,4.23,2.12,8.99,5.55,18.78,5.55h26.45c9.79,0,14.55-3.44,18.78-5.55-2.12,4.23-5.55,8.99-5.55,18.78,0,7.67,5.55,13.23,13.22,13.23,9.79,0,14.55-3.44,18.78-5.55-2.12,4.23-5.55,8.99-5.55,18.78v119.02c0,9.79,3.44,14.55,5.55,18.78-4.23-2.12-8.99-5.55-18.78-5.55-7.67,0-13.22,5.55-13.22,13.22,0,9.79,3.44,14.55,5.55,18.78-4.23-2.12-8.99-5.55-18.78-5.55h-26.45c-9.79,0-14.55,3.44-18.78,5.55,2.12-4.23,5.55-8.99,5.55-18.78Zm39.67-13.22c7.67,0,13.23-5.55,13.23-13.23V45.23c0-7.67-5.55-13.22-13.23-13.22h-26.45c-7.67,0-13.23,5.55-13.23,13.22v119.02c0,7.67,5.55,13.23,13.23,13.23h26.45Z"/><path d="M1289.91,190.7v-52.9h-66.12c-9.79,0-14.55,3.44-18.78,5.55,2.12-4.23,5.55-8.99,5.55-18.78v-26.45c0-9.79-3.44-14.55-5.55-18.78,4.23,2.12,8.99,5.55,18.78,5.55,8.2,0,13.22-5.55,13.22-13.22,0-9.79-3.44-14.55-5.55-18.78,4.23,2.12,8.99,5.55,18.78,5.55,8.2,0,13.23-5.55,13.23-13.22,0-9.79-3.44-14.55-5.55-18.78,4.23,2.12,8.99,5.55,18.78,5.55h13.22v-13.23c0-9.79-3.44-14.55-5.55-18.78,4.23,2.12,8.99,5.55,18.78,5.55s14.55-3.44,18.78-5.55c-2.12,4.23-5.55,8.99-5.55,18.78V111.35h13.23c9.79,0,14.55-3.44,18.78-5.55-2.12,4.23-5.55,8.99-5.55,18.78s3.44,14.55,5.55,18.78c-4.23-2.12-8.99-5.55-18.78-5.55h-13.23v52.9c0,9.79,3.44,14.55,5.55,18.78-4.23-2.12-8.99-5.55-18.78-5.55s-14.55,3.44-18.78,5.55c2.12-4.23,5.55-8.99,5.55-18.78Zm-52.9-79.35h52.9V58.45h-13.22c-8.2,0-13.22,5.55-13.22,13.22,0,9.79,3.44,14.55,5.55,18.78-4.23-2.12-8.99-5.55-18.78-5.55-8.2,0-13.22,5.55-13.22,13.22v13.23Z"/><path d="M1355.24,190.7c0-9.79-3.44-14.55-5.55-18.78,4.23,2.12,8.99,5.55,18.78,5.55s14.55-3.44,18.78-5.55c-2.12,4.23-5.55,8.99-5.55,18.78s3.44,14.55,5.55,18.78c-4.23-2.12-8.99-5.55-18.78-5.55s-14.55,3.44-18.78,5.55c2.12-4.23,5.55-8.99,5.55-18.78Z"/><path d="M454.12,416.09v-26.45c0-9.79-3.44-14.55-5.55-18.78,4.23,2.12,8.99,5.55,18.78,5.55,7.67,0,13.22-5.55,13.22-13.22,0-9.79-3.44-14.55-5.55-18.78,4.23,2.12,8.99,5.55,18.78,5.55,7.67,0,13.22-5.55,13.22-13.22,0-9.79-3.44-14.55-5.55-18.78,4.23,2.12,8.99,5.55,18.78,5.55,7.67,0,13.23-5.55,13.23-13.23v-39.67c0-7.67-5.55-13.22-13.23-13.22h-26.45c-7.67,0-13.23,5.55-13.23,13.22,0,9.79,3.44,14.55,5.55,18.78-4.23-2.12-8.99-5.55-18.78-5.55s-14.55,3.44-18.78,5.55c2.12-4.23,5.55-8.99,5.55-18.78s-3.44-14.55-5.55-18.78c4.23,2.12,8.99,5.55,18.78,5.55,7.67,0,13.22-5.55,13.22-13.23,0-9.79-3.44-14.55-5.55-18.78,4.23,2.12,8.99,5.55,18.78,5.55h26.45c9.79,0,14.55-3.44,18.78-5.55-2.12,4.23-5.55,8.99-5.55,18.78,0,7.67,5.55,13.23,13.22,13.23,9.79,0,14.55-3.44,18.78-5.55-2.12,4.23-5.55,8.99-5.55,18.78v39.67c0,9.79,3.44,14.55,5.55,18.78-4.23-2.12-8.99-5.55-18.78-5.55-7.67,0-13.22,5.55-13.22,13.22,0,9.79,3.44,14.55,5.55,18.78-4.23-2.12-8.99-5.55-18.78-5.55-7.67,0-13.22,5.55-13.22,13.22,0,9.79,3.44,14.55,5.55,18.78-4.23-2.12-8.99-5.55-18.78-5.55-7.67,0-13.23,5.55-13.23,13.22v13.23h66.12c9.79,0,14.55-3.44,18.78-5.55-2.12,4.23-5.55,8.99-5.55,18.78s3.44,14.55,5.55,18.78c-4.23-2.12-8.99-5.55-18.78-5.55h-79.35c-9.79,0-14.55,3.44-18.78,5.55,2.12-4.23,5.55-8.99,5.55-18.78Z"/><path d="M605.41,416.09c0-7.67-5.55-13.22-13.22-13.22-9.79,0-14.55,3.44-18.78,5.55,2.12-4.23,5.55-8.99,5.55-18.78v-119.02c0-9.79-3.44-14.55-5.55-18.78,4.23,2.12,8.99,5.55,18.78,5.55,7.67,0,13.22-5.55,13.22-13.23,0-9.79-3.44-14.55-5.55-18.78,4.23,2.12,8.99,5.55,18.78,5.55h26.45c9.79,0,14.55-3.44,18.78-5.55-2.12,4.23-5.55,8.99-5.55,18.78,0,7.67,5.55,13.23,13.22,13.23,9.79,0,14.55-3.44,18.78-5.55-2.12,4.23-5.55,8.99-5.55,18.78v119.02c0,9.79,3.44,14.55,5.55,18.78-4.23-2.12-8.99-5.55-18.78-5.55-7.67,0-13.22,5.55-13.22,13.22,0,9.79,3.44,14.55,5.55,18.78-4.23-2.12-8.99-5.55-18.78-5.55h-26.45c-9.79,0-14.55,3.44-18.78,5.55,2.12-4.23,5.55-8.99,5.55-18.78Zm39.67-13.22c7.67,0,13.23-5.55,13.23-13.23v-119.02c0-7.67-5.55-13.22-13.23-13.22h-26.45c-7.67,0-13.22,5.55-13.22,13.22v119.02c0,7.67,5.55,13.23,13.22,13.23h26.45Z"/><path d="M703.8,416.09v-26.45c0-9.79-3.44-14.55-5.55-18.78,4.23,2.12,8.99,5.55,18.78,5.55,7.67,0,13.22-5.55,13.22-13.22,0-9.79-3.44-14.55-5.55-18.78,4.23,2.12,8.99,5.55,18.78,5.55,7.67,0,13.23-5.55,13.23-13.22,0-9.79-3.44-14.55-5.55-18.78,4.23,2.12,8.99,5.55,18.78,5.55,7.67,0,13.23-5.55,13.23-13.23v-39.67c0-7.67-5.55-13.22-13.23-13.22h-26.45c-7.67,0-13.22,5.55-13.22,13.22,0,9.79,3.44,14.55,5.55,18.78-4.23-2.12-8.99-5.55-18.78-5.55s-14.55,3.44-18.78,5.55c2.12-4.23,5.55-8.99,5.55-18.78s-3.44-14.55-5.55-18.78c4.23,2.12,8.99,5.55,18.78,5.55,7.67,0,13.22-5.55,13.22-13.23,0-9.79-3.44-14.55-5.55-18.78,4.23,2.12,8.99,5.55,18.78,5.55h26.45c9.79,0,14.55-3.44,18.78-5.55-2.12,4.23-5.55,8.99-5.55,18.78,0,7.67,5.55,13.23,13.22,13.23,9.79,0,14.55-3.44,18.78-5.55-2.12,4.23-5.55,8.99-5.55,18.78v39.67c0,9.79,3.44,14.55,5.55,18.78-4.23-2.12-8.99-5.55-18.78-5.55-7.67,0-13.22,5.55-13.22,13.22,0,9.79,3.44,14.55,5.55,18.78-4.23-2.12-8.99-5.55-18.78-5.55-7.67,0-13.22,5.55-13.22,13.22,0,9.79,3.44,14.55,5.55,18.78-4.23-2.12-8.99-5.55-18.78-5.55-7.67,0-13.22,5.55-13.22,13.22v13.23h66.12c9.79,0,14.55-3.44,18.78-5.55-2.12,4.23-5.55,8.99-5.55,18.78s3.44,14.55,5.55,18.78c-4.23-2.12-8.99-5.55-18.78-5.55h-79.35c-9.79,0-14.55,3.44-18.78,5.55,2.12-4.23,5.55-8.99,5.55-18.78Z"/><path d="M853.77,416.09c0-7.67-5.03-13.22-13.22-13.22-9.79,0-14.55,3.44-18.78,5.55,2.12-4.23,5.55-8.99,5.55-18.78v-13.22c0-9.79-3.44-14.55-5.55-18.78,4.23,2.12,8.99,5.55,18.78,5.55s14.55-3.44,18.78-5.55c-2.12,4.23-5.55,8.99-5.55,18.78v13.22c0,7.67,5.03,13.23,13.22,13.23h26.45c8.2,0,13.22-5.55,13.22-13.23v-39.67c0-7.67-5.03-13.22-13.22-13.22-9.79,0-14.55,3.44-18.78,5.55,2.12-4.23,5.55-8.99,5.55-18.78s-3.44-14.55-5.55-18.78c4.23,2.12,8.99,5.55,18.78,5.55,8.2,0,13.22-5.55,13.22-13.22v-26.45c0-7.67-5.03-13.22-13.22-13.22h-26.45c-8.2,0-13.22,5.55-13.22,13.22,0,9.79,3.44,14.55,5.55,18.78-4.23-2.12-8.99-5.55-18.78-5.55s-14.55,3.44-18.78,5.55c2.12-4.23,5.55-8.99,5.55-18.78s-3.44-14.55-5.55-18.78c4.23,2.12,8.99,5.55,18.78,5.55,8.2,0,13.22-5.55,13.22-13.23,0-9.79-3.44-14.55-5.55-18.78,4.23,2.12,8.99,5.55,18.78,5.55h26.45c9.79,0,14.55-3.44,18.78-5.55-2.12,4.23-5.55,8.99-5.55,18.78,0,7.67,5.03,13.23,13.23,13.23,9.79,0,14.55-3.44,18.78-5.55-2.12,4.23-5.55,8.99-5.55,18.78v26.45c0,9.79,3.44,14.55,5.55,18.78-4.23-2.12-8.99-5.55-18.78-5.55-17.46-1.59-17.46,28.04,0,26.45,9.79,0,14.55-3.44,18.78-5.55-2.12,4.23-5.55,8.99-5.55,18.78v39.67c0,9.79,3.44,14.55,5.55,18.78-4.23-2.12-8.99-5.55-18.78-5.55-8.2,0-13.23,5.55-13.23,13.22,0,9.79,3.44,14.55,5.55,18.78-4.23-2.12-8.99-5.55-18.78-5.55h-26.45c-9.79,0-14.55,3.44-18.78,5.55,2.12-4.23,5.55-8.99,5.55-18.78Z"/></g></g></svg>