<svg width="194" height="55" viewBox="0 0 194 55" fill="none" xmlns="http://www.w3.org/2000/svg">
<path d="M94.5925 54.9735C71.3297 54.9735 48.0668 55.0527 24.8072 54.9372C14.2465 54.8844 6.66501 49.7685 2.09197 40.1473C0.905525 37.6521 0.204738 34.972 0.119992 32.2128C0.015689 28.8165 -0.134247 25.3806 0.237333 22.0173C1.1891 13.383 5.65783 7.00299 13.1677 2.84097C16.6292 0.920035 20.3939 0.0156777 24.3444 0.0156777C71.3558 0.00907657 118.37 -0.0338309 165.382 0.0585852C172.696 0.0717875 178.684 3.43177 183.371 9.08565C186.203 12.5017 187.888 16.4756 188.625 20.8555C188.798 21.8787 188.86 22.9283 188.879 23.9646C188.918 26.1067 188.905 28.2488 188.889 30.3875C188.834 37.3848 186.246 43.2961 181.304 48.1479C177.66 51.729 173.263 53.8678 168.266 54.7062C166.966 54.924 165.62 54.9603 164.296 54.9603C141.063 54.9735 117.826 54.9702 94.5925 54.9702V54.9735ZM144.652 15.733C144.599 15.1983 144.603 14.6702 144.495 14.1685C143.719 10.5511 139.795 8.66318 136.294 10.2376C135.828 10.4488 135.479 10.4521 135.01 10.2376C132.719 9.18467 129.899 9.70946 128.224 11.4456C126.584 13.1454 126.284 15.4822 127.357 17.9312C127.455 18.1589 127.435 18.5154 127.327 18.7431C126.5 20.4957 126.5 22.2219 127.311 23.9811C127.432 24.2452 127.422 24.6677 127.298 24.9383C126.509 26.6711 126.513 28.3742 127.305 30.1037C127.428 30.371 127.428 30.7968 127.305 31.0642C126.516 32.797 126.513 34.4968 127.295 36.2329C127.425 36.52 127.353 36.9359 127.282 37.2725C127.122 38.0185 126.786 38.7413 126.734 39.4872C126.574 41.8207 127.885 43.91 129.964 44.8144C132.292 45.8276 135.091 45.3061 136.744 43.5535C138.309 41.8933 138.635 39.4773 137.647 37.2758C137.513 36.9821 137.494 36.5266 137.624 36.2395C138.416 34.5067 138.419 32.8069 137.624 31.0741C137.5 30.8034 137.49 30.3776 137.614 30.1103C138.432 28.3511 138.432 26.6216 137.585 24.8789C137.497 24.6974 137.406 24.4531 137.455 24.2782C137.771 23.1362 138.123 22.0074 138.485 20.806H139.211C139.58 22.0206 139.932 23.123 140.235 24.2419C140.29 24.4399 140.199 24.7139 140.101 24.9152C139.277 26.6315 139.283 28.3379 140.069 30.074C140.199 30.3611 140.193 30.8166 140.062 31.1071C139.293 32.8135 139.296 34.4869 140.056 36.1999C140.193 36.5101 140.18 36.992 140.036 37.3022C138.947 39.6721 139.508 42.428 141.457 44.0189C143.592 45.7616 146.871 45.7682 149.006 44.0288C150.952 42.4445 151.562 39.649 150.418 37.3287C150.199 36.8864 150.202 36.5662 150.418 36.1239C151.18 34.5595 151.197 32.9356 150.492 31.3546C150.248 30.8067 150.206 30.4206 150.473 29.8496C151.206 28.2785 151.187 26.648 150.434 25.0802C150.206 24.6049 150.209 24.2749 150.434 23.8029C151.92 20.7202 150.349 17.106 147.096 16.1489C146.327 15.9211 145.505 15.8716 144.642 15.7264L144.652 15.733ZM24.0934 14.9574C23.849 14.7989 23.787 14.7461 23.7153 14.7131C22.7733 14.2973 21.8281 13.888 20.8893 13.4688C20.8274 13.4391 20.7818 13.35 20.7459 13.2807C20.3711 12.5909 20.0126 11.8878 19.6214 11.2079C18.888 9.9306 18.4447 8.61367 19.5464 7.35615C20.1266 6.69274 20.8796 6.16794 21.6032 5.65306C23.5034 4.30642 25.5667 5.9039 26.0784 7.48157C26.1827 7.80503 26.3848 8.12849 26.6195 8.37273C27.2649 9.04274 27.9983 9.20447 28.9044 8.82491C30.2343 8.27041 31.6847 8.09878 32.8972 7.14161C34.5335 5.85109 36.2447 4.61998 38.2493 3.92356C38.2949 3.90705 38.3047 3.79153 38.3503 3.66611C38.0733 3.64961 37.8353 3.6199 37.5941 3.6199C33.2232 3.6199 28.8522 3.577 24.4813 3.63971C22.9982 3.65951 21.4956 3.81464 20.0419 4.11169C11.6846 5.83129 4.91794 13.0562 3.86187 21.608C3.49355 24.5851 3.50332 27.6382 3.62067 30.6483C3.95965 39.3717 8.17741 45.6032 15.8632 49.4814C16.1403 49.62 16.4402 49.7091 16.6716 49.7949C16.9552 49.148 17.1344 48.5737 17.4408 48.0786C17.8841 47.3558 17.7766 46.8574 17.0627 46.3821C16.7009 46.1412 16.3489 45.7913 16.1436 45.4085C15.1625 43.5799 15.2896 41.6623 15.9545 39.7876C16.5445 38.1241 17.2876 37.6257 19.0412 37.761C20.8437 37.8997 22.6364 38.1868 24.4291 38.4343C26.5608 38.7281 28.611 39.54 30.8079 39.4542C31.0165 39.4443 31.2317 39.5961 31.4337 39.5796C31.7792 39.5499 32.1215 39.4443 32.4637 39.3684C32.3334 39.0945 32.2682 38.7413 32.0596 38.5565C30.9579 37.5993 29.8464 36.6454 28.6827 35.7708C27.5322 34.906 26.3066 34.1502 25.1267 33.3251C24.553 32.9257 23.9533 32.5362 23.4709 32.0378C22.7701 31.3183 22.7277 30.7275 23.2981 29.8991C23.8066 29.163 24.4226 28.5029 24.9898 27.8065C25.1625 27.5953 25.3287 27.3807 25.5862 27.0573C24.0347 26.9583 23.4969 25.8559 22.9493 24.8459C22.744 24.463 22.7831 23.9151 22.8059 23.4464C22.8418 22.6972 23.1058 21.9348 23.008 21.212C22.8711 20.1954 22.4897 19.2151 22.2225 18.215C21.9161 17.0631 22.3398 16.1225 23.3828 15.5416C23.6208 15.4095 23.8098 15.1917 24.0934 14.9508V14.9574ZM99.7197 27.0705C103.683 26.9087 105.984 25.0076 106.134 20.8951C110.434 20.2911 112.471 18.4362 112.448 15.1818C112.428 12.3862 110.378 10.1154 107.513 9.76227C106.014 9.57744 104.589 9.84808 103.318 10.7194C101.548 11.934 100.877 13.7098 100.913 15.7792H99.7034C99.6871 15.5251 99.6675 15.3369 99.661 15.1488C99.5763 12.7526 98.2497 10.8977 96.043 10.0824C93.7386 9.23088 91.1082 9.84808 89.5338 11.604C88.0345 13.2807 87.7607 15.6571 88.7679 17.8289C88.8917 18.0929 88.8852 18.5187 88.7613 18.786C87.966 20.5155 87.9758 22.2153 88.732 23.958C88.8689 24.2716 88.8624 24.7469 88.7287 25.0604C87.9888 26.7734 87.9367 28.4666 88.7581 30.1433C88.9634 30.5592 88.9602 30.8628 88.7548 31.2754C87.953 32.896 87.9465 34.5595 88.7125 36.19C88.9308 36.6586 88.9471 36.992 88.7287 37.4739C87.7965 39.5136 87.9334 41.5204 89.3285 43.2796C90.867 45.2203 92.9628 45.8078 95.3227 45.2731C97.4446 44.7912 98.8983 43.4875 99.4654 41.3157C99.6349 40.6688 99.661 39.9823 99.7523 39.3387H100.89C101.229 43.141 103.181 45.2203 106.457 45.316C109.534 45.4052 111.979 43.4743 112.396 40.5929C112.588 39.2694 112.334 38.0152 111.614 36.8897C110.323 34.8796 108.354 34.2294 106.076 34.2492C106.125 32.4207 105.606 30.9123 104.306 29.734C103.005 28.5524 101.421 28.196 99.7164 28.2224V27.0738L99.7197 27.0705ZM158.547 15.8518C158.266 15.8518 158.022 15.8419 157.781 15.8518C153.459 16.0829 151.115 20.0039 152.885 24.0042C153.002 24.2716 152.96 24.6941 152.833 24.9713C152.083 26.6183 152.041 28.2653 152.81 29.8991C153.032 30.3677 153.041 30.711 152.816 31.1896C151.412 34.1535 152.751 37.5927 155.779 38.705C156.653 39.0251 157.618 39.0912 158.628 39.2925C158.605 40.8768 159.009 42.4049 160.235 43.6096C161.451 44.8045 162.931 45.3127 164.603 45.2731C167.839 45.1972 169.544 43.3588 170.251 39.177C170.613 39.1539 170.985 39.1407 171.36 39.1044C175.476 38.7248 177.693 34.7608 175.929 30.975C175.809 30.7143 175.845 30.2918 175.969 30.0179C176.728 28.3412 176.767 26.6744 175.965 25.0208C175.763 24.6082 175.753 24.3079 175.959 23.892C177.65 20.4429 175.581 16.4987 171.803 15.9475C171.275 15.8716 170.744 15.8386 170.225 15.7858C169.749 11.8482 167.895 9.82828 164.714 9.72596C161.164 9.61044 159.358 11.3795 158.543 15.8584L158.547 15.8518ZM83.217 51.3C83.142 51.1613 83.1355 51.1283 83.1192 51.1151C82.8747 50.9435 82.627 50.7752 82.3826 50.6003C76.3558 46.2501 72.7802 40.3784 71.9718 32.9224C71.6817 30.2324 71.7436 27.4929 71.7925 24.7799C71.9425 16.1027 75.58 9.26718 82.5716 4.25031C82.777 4.10179 82.9725 3.94006 83.2887 3.69252H54.3446C55.7592 4.49455 57.0565 5.19428 58.3211 5.95011C60.9841 7.54428 63.0376 9.81508 64.814 12.3136C66.9424 15.3072 67.728 18.8256 68.067 22.4167C68.3016 24.9086 67.904 27.4005 67.0924 29.767C66.0428 32.8267 64.5141 35.6256 62.1249 37.8633C61.8251 38.1439 61.5415 38.4376 61.2579 38.7347C60.9515 39.0549 60.9059 39.3981 61.3655 39.5796C62.2325 39.9229 63.1028 40.3157 64.0122 40.4873C65.0422 40.682 65.5865 41.3058 65.2377 42.3092C64.9737 43.0617 65.2671 43.1938 65.932 43.2565C67.5096 43.4083 69.0872 43.6129 70.655 43.8506C71.3851 43.9628 71.9685 44.3193 72.4477 44.9794C74.4164 47.6991 76.9946 49.6596 80.0651 50.9699C81.0755 51.4023 82.1022 51.4287 83.2202 51.3H83.217ZM125.365 15.327C125.219 12.4192 123.247 10.1682 120.284 9.79197C118.057 9.50812 116.112 10.1781 114.762 12.0595C113.452 13.8847 113.409 15.865 114.345 17.9048C114.466 18.1655 114.423 18.588 114.299 18.8619C113.533 20.5683 113.537 22.245 114.296 23.9547C114.426 24.2452 114.436 24.6974 114.306 24.9845C113.54 26.6909 113.54 28.3643 114.283 30.0806C114.42 30.3941 114.413 30.8694 114.276 31.183C113.546 32.8696 113.546 34.5199 114.276 36.2065C114.413 36.5233 114.43 37.0052 114.286 37.3088C113.181 39.7018 113.758 42.5238 115.73 44.0948C117.859 45.7913 121.095 45.7913 123.22 44.0948C125.196 42.5172 125.769 39.7117 124.661 37.3121C124.521 37.0085 124.537 36.5233 124.674 36.2098C125.408 34.5232 125.404 32.8762 124.671 31.1896C124.534 30.876 124.531 30.3974 124.668 30.0839C125.414 28.3709 125.417 26.6975 124.642 24.9911C124.511 24.704 124.524 24.2518 124.651 23.9613C125.414 22.2516 125.417 20.5782 124.651 18.8685C124.521 18.5781 124.557 18.1622 124.638 17.8322C124.844 16.9905 125.118 16.1687 125.362 15.3369L125.365 15.327ZM64.1262 23.6016L64.3446 23.562C63.9763 21.6641 63.6536 19.7531 63.2234 17.8685C62.8388 16.1819 61.7208 14.9211 60.5832 13.6966C60.1758 13.2576 59.7227 13.152 59.2338 13.5975C58.6927 14.0926 58.1419 14.5778 57.591 15.063C57.2259 15.3864 57.1673 15.6604 57.5128 16.1027C57.6888 16.3271 57.6692 16.8618 57.5291 17.1523C57.3498 17.5252 56.9652 17.7992 56.6523 18.1028C56.1536 18.5913 55.6223 18.9016 54.915 18.4593C54.7911 18.3834 54.4619 18.4593 54.3511 18.5781C53.3178 19.697 52.2357 20.7829 51.3263 22.0008C50.606 22.9712 50.7461 24.9845 51.4078 25.7271C52.4052 26.846 53.3635 28.0078 54.4424 29.0409C55.7755 30.3149 57.1477 31.5692 58.6275 32.655C59.6901 33.434 61.1862 32.9422 61.8577 31.7903C63.3244 29.2654 64.2501 26.5787 64.1197 23.5983L64.1262 23.6016ZM39.7063 8.2374C39.7063 8.32322 39.703 8.40903 39.6998 8.49815C40.3386 8.7655 40.9742 9.03614 41.6131 9.30019C43.1385 9.9306 44.6476 10.6105 46.3784 10.3927C46.6913 10.3531 47.0662 10.5412 47.3693 10.7062C49.149 11.6832 50.9384 12.6404 52.6757 13.6933C53.8133 14.3831 54.7292 13.9936 55.6484 13.3269C55.9124 13.1355 56.1275 12.8846 56.3752 12.6701C57.4932 11.703 57.5389 10.7392 56.3817 9.79858C54.3837 8.17469 52.0695 7.18782 49.5564 6.75545C46.7174 6.26696 43.9632 6.91387 41.2317 7.61029C40.7069 7.74562 40.2148 8.02287 39.7095 8.2374H39.7063ZM52.6757 39.1275C51.8609 38.5763 51.2448 38.0449 50.544 37.7082C48.7709 36.8534 46.8022 36.4045 45.2767 35.0447C45.2213 34.9951 45.1268 34.9885 45.0486 34.9621C43.4775 34.3845 41.8869 33.8498 40.3419 33.2095C39.791 32.9818 39.4129 33.0346 39.0316 33.4142C38.2232 34.2261 37.4051 35.0282 36.6326 35.8698C35.9546 36.6091 36.0426 36.9623 36.9031 37.4508C39.8921 39.1506 43.0277 40.2959 46.5251 40.2794C48.5688 40.2695 50.5375 39.9757 52.679 39.1341L52.6757 39.1275ZM46.8217 19.3405C47.9104 19.3636 48.9143 19.1392 49.7552 18.3702C50.2963 17.8751 50.8798 17.4262 51.4502 16.9641C51.8511 16.6374 51.8217 16.3667 51.3426 16.1984C50.8569 16.0301 50.3648 15.8617 49.8595 15.7825C48.1125 15.5086 46.411 15.1191 44.866 14.1817C42.9429 13.0133 40.7265 12.7922 38.6013 12.2872C38.3829 12.2344 38.0928 12.4885 37.8386 12.6008C37.9364 12.8285 37.9755 13.1223 38.1417 13.2708C39.9703 14.9046 41.851 16.4756 43.6437 18.1457C44.5727 19.0105 45.6092 19.3504 46.8185 19.3405H46.8217ZM45.8732 28.3775C48.5036 31.2259 51.3524 33.4868 55.2833 34.0743C55.0258 33.7145 54.6477 33.4736 54.312 33.1798C52.9006 31.9421 51.3752 30.8034 50.1301 29.4106C48.9078 28.0441 47.5551 28.0375 45.8732 28.3775ZM30.8014 30.9486C31.512 31.7672 32.1345 32.5065 32.7864 33.2161C33.246 33.7178 33.8001 33.7079 34.3216 33.3185C35.1039 32.7343 35.8764 32.1369 36.6163 31.4998C36.7499 31.3843 36.8054 30.9651 36.7043 30.8232C36.3295 30.2918 35.909 29.7802 35.4364 29.338C35.2799 29.1927 34.879 29.1927 34.6443 29.2786C33.7121 29.6218 32.7962 30.0179 31.8803 30.4073C31.5641 30.5427 31.2642 30.7143 30.8014 30.9486ZM42.0955 24.0637C42.6561 22.3375 40.8862 19.1788 38.8588 18.3636C39.5629 20.532 39.8138 22.8622 42.0955 24.0637ZM55.6973 42.7086H59.5793C58.4352 41.4412 57.0239 41.3917 55.6973 42.7086ZM30.9024 23.4464C30.922 23.3606 30.9416 23.2781 30.9611 23.1923C30.5048 22.9448 30.0615 22.6642 29.5856 22.4695C29.4715 22.4233 29.1097 22.6378 29.0902 22.7632C29.0282 23.2187 29.0674 23.6874 29.0674 24.232C29.3738 24.1495 29.5074 24.133 29.6215 24.0802C30.0517 23.8755 30.4755 23.6577 30.9024 23.4464Z" fill="white"/>
<path d="M190.679 6.68614C188.918 6.67623 187.416 5.20088 187.403 3.47798C187.39 1.73198 188.944 0.210412 190.724 0.226914C192.488 0.243417 193.987 1.71547 194 3.44167C194.013 5.19428 192.474 6.69604 190.679 6.68614ZM190.652 6.03922C192.22 6.05573 193.449 4.90713 193.436 3.44497C193.423 2.04553 192.243 0.900231 190.789 0.873827C189.218 0.847422 187.996 1.95311 187.97 3.43177C187.947 4.86422 189.14 6.02602 190.652 6.04252V6.03922Z" fill="white"/>
<path d="M164.766 20.7895C165.137 21.9975 165.499 23.123 165.815 24.2617C165.864 24.4333 165.747 24.6776 165.659 24.8624C164.824 26.6051 164.828 28.3379 165.659 30.0839C165.753 30.2852 165.832 30.5559 165.776 30.7572C165.476 31.8728 165.134 32.9785 164.772 34.1898H164.026C163.677 33.0115 163.325 31.8827 163.022 30.7407C162.966 30.5394 163.061 30.2654 163.159 30.0608C163.98 28.3412 163.977 26.6348 163.159 24.9185C163.061 24.7139 162.966 24.4399 163.022 24.2386C163.325 23.123 163.674 22.0206 164.042 20.7895H164.766Z" fill="white"/>
<path d="M192.122 4.01597C191.806 5.28339 190.965 5.65306 189.991 5.21408C189.075 4.80151 188.693 3.46148 189.202 2.4449C189.619 1.60985 190.675 1.2699 191.493 1.70887C191.634 1.78478 191.793 1.8739 191.875 1.99932C191.976 2.16105 192.002 2.36569 192.061 2.55382C191.881 2.52081 191.705 2.48121 191.526 2.4548C191.073 2.39539 190.519 2.16105 190.193 2.33928C189.86 2.52081 189.596 3.11822 189.593 3.53409C189.593 3.91035 189.906 4.46485 190.229 4.61338C190.558 4.7652 191.076 4.55066 191.493 4.42854C191.725 4.36253 191.914 4.1546 192.122 4.01267V4.01597Z" fill="white"/>
</svg>
