<?xml version="1.0" encoding="utf-8"?>
<!-- Generator: Adobe Illustrator 27.0.1, SVG Export Plug-In . SVG Version: 6.00 Build 0)  -->
<svg version="1.1" id="Layer_2_00000161623937993692559980000008513102548375158707_"
	 xmlns="http://www.w3.org/2000/svg" xmlns:xlink="http://www.w3.org/1999/xlink" x="0px" y="0px" viewBox="0 0 1025.8 173"
	 style="enable-background:new 0 0 1025.8 173;" xml:space="preserve">
<style type="text/css">
	.st0{fill:#1D6900;}
</style>
<g id="Layer_1-2">
	<g>
		<path class="st0" d="M0,167.9c0-5.9,12.3-4.9,20.1-6.2c4.2-23.2,15.3-39.6,21-61.6c5-18.6,16.5-45.5,19.8-64.2
			c0.3-2.5,1.8-3.9,4.7-3.9c3.5,0,4.9,2.8,4.9,5.7c-1.2,5.4-2.3,10.6-3.9,15.8C85,56.8,93.2,66.7,93.2,83
			c0,19.7-18.1,45.8-39.6,45.8c-2.8,0-7.4-0.7-11.2-2.2c-4.7,11.4-9.6,22.5-12.1,34.1h0.7c5.2,0,13.9,0.8,13.9,6.2
			c0,2.9-2.2,5-4.7,5c-1.5,0-2.8-0.2-4.4-0.7c-1.5-0.5-3.2-0.7-4.7-0.7c-3.9,0-7.9,0.3-11.9,1.2S10.9,173,6.5,173
			C2.7,173,0,171.8,0,167.9L0,167.9z M83.6,79.9c0-7.6-4.7-14.6-20-17c-2.2,6.7-4.5,13.3-6.9,19.7c-2.5,6.6-4.5,13.1-6.2,20
			c-1.2,4.9-2.5,9.4-4.4,14.1c2.5,1.2,5,2.3,7.6,2.3C66.8,119.1,83.6,101.3,83.6,79.9L83.6,79.9z"/>
		<path class="st0" d="M126.3,126.3c0-3.9,0.8-8.7,4.4-11.4v-3.7c0-12.9,13.9-25.4,17-38.8c-3-1.2-5.7-1.8-8.2-1.8
			c-9.2,0-14.8,6.2-21.3,17.5c-4.9,7.9-13.3,17.6-13.3,24.3c0,1.8,0.2,4.2,2,4.2c1.5,0,3.2-0.3,4.9-1c1.7-0.7,3.5-1,5.4-1
			c3.4,0,6.1,1.8,6.1,5c0,2.9-2,5-4.7,5c-0.2,0-0.3,0-0.5-0.2h-0.7c-1.3,0-2.8,0.3-4.7,1c-1.8,0.8-4,1.2-6.6,1.2
			c-5.9,0-11.1-4.5-11.1-14.3S103,94.1,109.5,83c8.6-14.6,16.6-22.3,29.9-22.3c2.7,0,7.1,0.5,10.9,1.8c2.5-4,7.2-7.2,11.9-7.2
			c3.4,0,6.1,1.7,6.1,4.9c0,6.6-8.7,3.5-10.1,8.9c-0.5,7.9-3.4,14.1-6.7,20.2c-2.7,4.7-7.9,12.8-10.1,18c-0.5,1.2-0.8,2.7-0.8,4.4
			v1.5h1.5c0.3,0.2,0.8,0.2,1.3,0.2c3.7,0,4.7-6.7,9.2-6.7c3.2,0,4.9,2.3,4.9,4.9c0,7.1-8.9,11.8-14.3,11.8c-1.2,0-2.4-0.2-3.2-0.3
			c-1-0.2-1.7-0.3-2.2-0.3c-0.8,0-1.3,0.2-1.5,0.3c-0.2,0.3-0.2,1.3-0.2,2.8v1.5c0,0.5,0,1.2,0.2,1.7c0,2.9-2.2,5.2-5,5.2
			C126.8,134,126.3,130.3,126.3,126.3L126.3,126.3z"/>
		<path class="st0" d="M168.9,76.9c0-1.2,0.3-2.2,0.8-3.2c5.2-8.2,11.4-12.3,18.6-12.3h0.2v-1.7c-0.2-0.5-0.2-1-0.2-1.5
			c0-4.5,0.5-9.2,5-9.2c5.2,0,5,6.4,5,12.4c1.9-0.8,3.9-1.8,5.9-3.4c2-1.3,4.4-2,7.2-2c10.8,0,12.6,5.2,14.9,14.8
			c0,3.5-2.4,6.1-6.4,6.1c-1.9,0-3.2-1.5-4.4-4c0-5.7,0.7-7.1-3.9-7.1c-2.2,0.8-4.2,1.8-6.1,3c-1.9,1.2-4,2.2-6.2,2.8
			c-0.5,3.5-1.7,7.1-3.2,10.6c-1.5,3.5-3,6.7-4.2,9.9l-2,2c-1.3,3.2-2.7,6.7-4.2,10.4c-1.5,3.9-3,7.4-4.5,10.9l-2.9,7.2
			c-1.9,2.7-2.7,6.4-7.7,6.4c-3.4,0-5.2-1.2-5.2-5c0-2,1.9-4.4,4-4.4l2.2-7.9c3.9-7.2,6.7-14.4,9.6-21.7l2.2-3
			c1.2-2.7,2.2-5.4,3.4-7.9c1-2.5,1.9-5,2.5-7.6c-2.9,0-7.4,0.8-12.1,7.7c-0.7,1.2-2.9,2.2-3.5,2.2C172,81.6,168.9,80.1,168.9,76.9
			L168.9,76.9z"/>
		<path class="st0" d="M233.1,115.9c-1.9,3.9-4.7,6.2-6.2,7.4l-1.5,1.2c-4.5,3.5-1,7.2-6.7,7.2c-3.2,0-4.7-2.4-4.7-5.2
			c0-5.2,3.4-7.7,5.5-9.6l1-1c1.5-1.2,4.9-4.2,4.9-7.1c-0.2-0.5-0.2-1.2-0.2-1.7v-1.7c0-10.8,4.7-19.5,9.2-27.4
			c0.7-1.2,1.2-3,1.7-5.5c0.3-2.3,1-4.9,1.9-7.4c-0.2-0.2-0.2-0.7-0.2-1.3s0.2-1.3,0.5-2c1.9-4.2,3.2-8.7,4.2-13.4
			c0.8-4.7,1.9-9.4,2.9-14.1c0.5-2.5,2-3.7,4.5-3.7c2.7,0,4.9,2.2,4.9,4.9c0,5.2-1.9,11.9-4,20.7c2,0.2,3.9,0.7,5.4,1.2
			c1.5,0.7,2.5,1,3,1s1-0.2,1.7-0.7c0.7-0.3,1.3-0.5,2-0.5c2.7,0,4.9,2,4.9,4.7c0,4.2-5,6.2-8.4,6.2c-2.2,0-4.4-0.5-6.4-1.3
			c-2-0.8-3.4-1.2-3.9-1.2c-3.2,0-3.5,12.3-6.2,17.3c-4,7.2-8.1,14.4-8.1,22.7v0.5c5.7-3.4,6.9-8.2,14.1-8.2c2.5,0,4.9,2,4.9,4.7
			c0,4.5-4.5,4.4-8.6,7.9c-2.7,2.5-6.6,5.5-11.9,5.5L233.1,115.9L233.1,115.9z"/>
		<path class="st0" d="M307,123.1c-1.9,2.2-5.7,5.4-9.1,5.4c-2.5,0-4.7-1.8-4.7-4.7c0-2.2,1-3.7,2.9-4.5c5.2-2,5-4.7,5-7.4
			c0-5.2,2.2-9.1,4.4-12.3l0.8-1.3c1.7-3.5,3.5-6.7,5.5-9.7c1.9-2.8,3.2-6.2,4-9.9l0.2-1.3c0.2-0.8,0.5-1.8,0.7-3.4
			c0.2-1.3,0.7-2.9,1.2-4.4c-1.2-1-1.9-1.7-2.2-1.8c-0.5-0.2-0.7-0.3-0.8-0.3c-6.9,6.4-11.8,14.4-21.5,15.3
			c-0.8,1.8-1.7,3.5-2.5,5.4c-1,1.8-2,3.9-2.9,6.1c-2.5,8.7-8.6,14.4-9.1,22c-0.5,5.4-6.2,12.4-13.1,12.4c-2.5,0-4.9-1.8-4.9-4.7
			c0-5.2,7.9-4.2,8.4-8.4c0.3-7.9,6.5-15.4,9.7-24.3c1.5-4,6.5-13.9,6.5-15.6c0-1.2-0.2-2-0.7-3.4c-4,0.8-6.2,3.4-8.4,10.1
			c-0.5,2-2.4,3.4-4.4,3.4c-3.2,0-4.9-2.5-4.9-5c0-0.5,0-1,0.2-1.3c3-8.2,7.6-16.8,18.6-16.8c4,0,8.1,3.2,8.9,10.1
			c9.2-3.7,10.2-14.4,19.8-14.4c3.2,0,7,1.8,9.6,4.4h0.5c2.7,0,4.9,2.3,4.9,4.9c0,1.2-0.5,2.3-1.3,3.2c-1.9,2.2-2.4,5.4-3,8.7
			l-0.3,1.3c-1.2,7.4-5,12.9-8.4,18.8l-3,5.2c-2.2,3.9-3,5.2-3,8.4v1c2-0.2,4.2-3.4,6.7-6.6l2-2.7c1-1.2,2.2-1.7,3.7-1.7
			c2.5,0,4.9,2.2,4.9,4.7c0,1.2-0.3,2.2-1,3l-1.9,2.3c-5.2,6.6-9.1,10.6-14.6,10.6C309.3,123.6,308.2,123.4,307,123.1L307,123.1z"/>
		<path class="st0" d="M367.3,113.4h0.2c-6.5,8.2-11.6,15.1-23.2,15.1c-5.5,0-11.9-4.9-11.9-10.8c0-1.3,0.3-2.5,1.2-3.4
			c0.8-0.8,1.2-2.2,1.2-3.9c0-0.8,0-1.7-0.2-2.7c-0.2-0.8-0.2-1.8-0.2-2.9c0-2.8,0.7-5.9,2.2-9.1c1.3-3,2.5-6.2,3.7-9.4
			c2.4-7.1,9.1-25.7,16.5-25.7c2.7,0,4.9,2.3,4.9,4.9c0,1.2-0.5,2.3-1.3,3.5c-4.5,4.5-6.9,10.2-9.4,16.5h0.7c7.9,0,15.6-6.6,19-17.1
			c0-3.7-8.1-3.5-8.1-8.6c0-2.9,2.4-4.9,5-4.9c7.4,0,12.8,7.9,12.8,13.3c0,1.2-0.2,2.3-0.5,3.5c-3.9,11.8-10.6,19-20.5,21.8
			l-1.5,0.5c-0.8,0.2-1.9,0.5-2.9,0.7c-1.2,0.3-2.4,0.5-3.5,0.5s-2.4-0.2-3.7-0.5c-0.5,1.7-1.3,3.4-2.2,4.9
			c-0.8,1.7-1.3,3.5-1.3,5.4c0,0.8,0,1.8,0.2,2.7c0.2,0.8,0.2,1.8,0.2,2.7c0,2.5-0.3,5-1.7,7.6c0.3,0.3,0.8,0.5,1.3,0.5
			c7.2,0,11.2-5.4,15.6-11.1v0.2c0.8-1.5,2.4-2.2,4.2-2.2c2.7,0,4.9,2,4.9,4.5C368.8,111.5,368.3,112.5,367.3,113.4L367.3,113.4z"/>
		<path class="st0" d="M383.4,76.9c0-1.2,0.3-2.2,0.8-3.2c5.2-8.2,11.4-12.3,18.6-12.3h0.2v-1.7c-0.2-0.5-0.2-1-0.2-1.5
			c0-4.5,0.5-9.2,5-9.2c5.2,0,5,6.4,5,12.4c1.9-0.8,3.9-1.8,5.9-3.4c2-1.3,4.4-2,7.2-2c10.8,0,12.6,5.2,15,14.8
			c0,3.5-2.4,6.1-6.4,6.1c-1.9,0-3.2-1.5-4.4-4c0-5.7,0.7-7.1-3.9-7.1c-2.2,0.8-4.2,1.8-6,3c-1.9,1.2-4,2.2-6.2,2.8
			c-0.5,3.5-1.7,7.1-3.2,10.6s-3,6.7-4.2,9.9l-2,2c-1.3,3.2-2.7,6.7-4.2,10.4c-1.5,3.9-3,7.4-4.5,10.9l-2.9,7.2
			c-1.9,2.7-2.7,6.4-7.7,6.4c-3.4,0-5.2-1.2-5.2-5c0-2,1.9-4.4,4-4.4l2.2-7.9c3.9-7.2,6.7-14.4,9.6-21.7l2.2-3
			c1.2-2.7,2.2-5.4,3.4-7.9c1-2.5,1.9-5,2.5-7.6c-2.9,0-7.4,0.8-12.1,7.7c-0.7,1.2-2.9,2.2-3.5,2.2
			C386.4,81.6,383.4,80.1,383.4,76.9L383.4,76.9z"/>
		<path class="st0" d="M429.2,109c0.8-2.2,3-4.7,5.7-4.7c2.9,0,4.5,2.5,4.5,5.7c0,8.1,3.9,10.4,9.1,10.4c7.2,0,9.2-8.7,9.2-13.6
			c0-6.7-4.4-13.1-6.4-20.5c-0.8-2.9-1.7-5.9-2.7-8.9c-1.2-2.8-1.7-5.5-1.7-8.1c0-9.9,9.7-18.1,19.5-18.1c5.2,0,9.1,1.8,11.6,5.7
			c1.2,1.8,1.5,1.7,4,1.7h1.7c1.9,0,3.9,1.7,3.9,4.2s-1.3,6.2-4.5,6.2h-1.9c-3.2,0-6.9-1-11.1-5.7c-0.5-0.5-1.7-2-3.9-2
			c-2.7,0-9.4,3.9-9.4,8.1c0,8.7,11.1,25.5,11.1,37.8c0,10.9-7.2,23.3-19.8,23.3C435,130.5,429.2,122.4,429.2,109L429.2,109z"/>
		<path class="st0" d="M475.4,137c0-2.2,0.2-4.9,2-8.1c11.6-18.8,23.7-37.1,36.3-54.8c12.6-17.6,25-35.3,37.3-52.9
			c3.9-5.5,4.5-10.1,4.5-16.6c0-2.5,2.3-4.7,4.9-4.7c2.8,0,4.7,2.5,4.7,5c0,7.2-0.7,14.3-6,21.8c-12.3,17.3-24.7,34.8-37.3,52.4
			c-12.6,17.6-24.7,35.9-35.9,54.7c-2.4,2.4,0.2,9.6-5.4,9.6C475.9,143.6,475.4,140.6,475.4,137L475.4,137z"/>
		<path class="st0" d="M547.6,130.5c0-3.9,5.9-6,9.9-7.4c-0.3-1.5-0.5-2.9-0.5-4.2c0-4,1.3-7.6,2.5-10.8c2-5.7,4.2-11.2,6.5-16.8
			c2.2-5.5,4.5-10.9,6.7-16.3l6.5-16c4.5-11.2,9.1-21.5,11.2-32.9c-3.2-1.2-4.2-1.5-5.5-1.5c-0.5,0-0.8,0-1.3,0.2s-0.8,0.3-1.3,0.3
			c-2.5,0-5-1.7-5-4.9c0-3.9,3.9-5.4,7.7-5.4c3.5,0,13.6,3,15,4.9c0.5,1,0.8,2.2,0.8,3.5c-2.2,14.1-7.6,26.9-12.8,39.5l-6.5,15.8
			c-4.5,10.9-8.9,22-12.9,32.9c-1.2,2.7-2,5-2,7.6c4.9-2.5,8.7-5.7,11.2-11.2c0.8-1.8,2.2-2.9,4.4-2.9c2.8,0,4.7,2.5,4.7,4.7
			c0,0.5-0.2,1.2-0.3,2c-6.2,14.4-19,16.5-32.1,23c-0.7,0.3-1.3,0.5-2,0.5C550,135.2,547.6,133.2,547.6,130.5L547.6,130.5z"/>
		<path class="st0" d="M648.4,79.8c0,22.8-19.2,49.7-38.1,49.7c-10.2,0-16.1-5.7-16.1-20c0-16.3,9.1-34.6,23.2-44.7
			c5.5-4,10.2-6.2,14.8-6.2c5.5,0,10.1,3,13.6,9.2C647.6,71.2,648.4,75.2,648.4,79.8L648.4,79.8z M603.7,108.3
			c0,6,0.8,10.9,7.4,10.9c14.1,0,27.7-22.8,27.7-38.8c0-7.2-3.9-11.8-7.2-11.8c-2.5,0-5.7,1.3-9.6,4.2
			C611.5,80.4,603.7,95.9,603.7,108.3L603.7,108.3z"/>
		<path class="st0" d="M648.4,113.4c0-1.8,0.2-3.7,0.7-5.7c4.2-19.2,20.5-47.4,36.1-47.4c4.5,0,13.1,4,13.1,9.9
			c0,2.5-1.7,4.9-4.9,4.9c-3.5,0-5.7-5-8.4-5c-1.8,0-4,1.3-6.5,3.9c-9.9,9.6-16.6,21.7-19.8,35.9c-0.3,1.5-0.5,2.9-0.5,3.7
			c0,4,2.2,5,3.5,5c2.8,0,11.1-7.4,15-12.3l2.7-3.2c1.2-1.2,2.3-1.7,3.5-1.7c2.7,0,5,2.3,5,5c0,1.2-0.5,2.3-1.3,3.2l-2.5,3
			c-5,6.4-13.6,15.6-22.3,15.6C653.4,128.3,648.4,121.3,648.4,113.4L648.4,113.4z"/>
		<path class="st0" d="M725.5,126.3c0-3.9,0.8-8.7,4.4-11.4v-3.7c0-12.9,13.9-25.4,17-38.8c-3-1.2-5.7-1.8-8.2-1.8
			c-9.2,0-14.8,6.2-21.3,17.5c-4.9,7.9-13.3,17.6-13.3,24.3c0,1.8,0.2,4.2,2,4.2c1.5,0,3.2-0.3,4.9-1c1.7-0.7,3.5-1,5.4-1
			c3.4,0,6,1.8,6,5c0,2.9-2,5-4.7,5c-0.2,0-0.3,0-0.5-0.2h-0.7c-1.3,0-2.8,0.3-4.7,1c-1.8,0.8-4,1.2-6.5,1.2
			c-5.9,0-11.1-4.5-11.1-14.3s8.1-18.3,14.6-29.4c8.6-14.6,16.6-22.3,29.9-22.3c2.7,0,7,0.5,10.9,1.8c2.5-4,7.2-7.2,11.9-7.2
			c3.4,0,6,1.7,6,4.9c0,6.6-8.7,3.5-10.1,8.9c-0.5,7.9-3.4,14.1-6.7,20.2c-2.7,4.7-7.9,12.8-10.1,18c-0.5,1.2-0.8,2.7-0.8,4.4v1.5
			h1.5c0.3,0.2,0.8,0.2,1.3,0.2c3.7,0,4.7-6.7,9.2-6.7c3.2,0,4.9,2.3,4.9,4.9c0,7.1-8.9,11.8-14.3,11.8c-1.2,0-2.3-0.2-3.2-0.3
			c-1-0.2-1.7-0.3-2.2-0.3c-0.8,0-1.3,0.2-1.5,0.3c-0.2,0.3-0.2,1.3-0.2,2.8v1.5c0,0.5,0,1.2,0.2,1.7c0,2.9-2.2,5.2-5,5.2
			C726,134,725.5,130.3,725.5,126.3L725.5,126.3z"/>
		<path class="st0" d="M777.4,115.9c-1.8,3.9-4.7,6.2-6.2,7.4l-1.5,1.2c-4.5,3.5-1,7.2-6.7,7.2c-3.2,0-4.7-2.4-4.7-5.2
			c0-5.2,3.4-7.7,5.5-9.6l1-1c1.5-1.2,4.9-4.2,4.9-7.1c-0.2-0.5-0.2-1.2-0.2-1.7v-1.7c0-10.8,4.7-19.5,9.2-27.4
			c0.7-1.2,1.2-3,1.7-5.5c0.3-2.3,1-4.9,1.8-7.4c-0.2-0.2-0.2-0.7-0.2-1.3s0.2-1.3,0.5-2c1.8-4.2,3.2-8.7,4.2-13.4
			c0.8-4.7,1.8-9.4,2.8-14.1c0.5-2.5,2-3.7,4.5-3.7c2.7,0,4.9,2.2,4.9,4.9c0,5.2-1.8,11.9-4,20.7c2,0.2,3.9,0.7,5.4,1.2
			c1.5,0.7,2.5,1,3,1s1-0.2,1.7-0.7c0.7-0.3,1.3-0.5,2-0.5c2.7,0,4.9,2,4.9,4.7c0,4.2-5,6.2-8.4,6.2c-2.2,0-4.4-0.5-6.4-1.3
			c-2-0.8-3.4-1.2-3.9-1.2c-3.2,0-3.5,12.3-6.2,17.3c-4,7.2-8.1,14.4-8.1,22.7v0.5c5.7-3.4,6.9-8.2,14.1-8.2c2.5,0,4.9,2,4.9,4.7
			c0,4.5-4.5,4.4-8.6,7.9c-2.7,2.5-6.5,5.5-11.9,5.5L777.4,115.9L777.4,115.9z"/>
		<path class="st0" d="M809.3,124.8c0-1.2,0.3-2.3,1-3.2c-0.2-0.7-0.2-1.3-0.2-2.2v-2c0-15.6,10.6-19.5,15.5-34.3
			c0.8-2.7,7.6-14.1,7.6-14.6c0-0.8-0.3-1.3-1-1.3c-4.4,0-9.9,8.7-16.1,8.7c-2.8,0-5.4-2.3-5.4-5.5c0-4.5,5.2-5,9.4-8.6
			c3.2-2.5,7.6-5.7,12.3-5.7c6,0,11.6,6.7,11.6,12.1c0,8.2-5.7,11.4-8.1,18.3c-3.7,11.1-15,21.2-15,30.9c5.2-2.2,9.4-5.9,12.4-11.1
			c1.2-1.8,2.7-2.5,4.5-2.5c3.2,0,5.4,2.7,5.4,5.5c0,1-0.2,1.8-0.7,2.7c-5.4,8.9-16.5,18-27.9,18C811.8,130,809.3,127.7,809.3,124.8
			L809.3,124.8z M832.8,48.9h-2.2c-2.7-0.7-3.5-3.4-3.5-6.5c0.7-1.2,2.5-2.9,4.7-2.9c0.2,0,0.8,0.2,1.7,0.3h2
			c1.8,0.7,3.4,1.3,5.2,1.3c1,0,1.8-0.3,2.5-0.8s1.3-0.7,1.8-0.7c2,0,4.2,3.7,4.2,5.2c0,2.9-4.7,6-9.2,6
			C837.3,50.9,834.7,50,832.8,48.9L832.8,48.9z"/>
		<path class="st0" d="M900.1,79.8c0,22.8-19.2,49.7-38.1,49.7c-10.2,0-16.1-5.7-16.1-20c0-16.3,9.1-34.6,23.2-44.7
			c5.5-4,10.2-6.2,14.8-6.2c5.5,0,10.1,3,13.6,9.2C899.3,71.2,900.2,75.2,900.1,79.8L900.1,79.8z M855.5,108.3
			c0,6,0.8,10.9,7.4,10.9c14.1,0,27.7-22.8,27.7-38.8c0-7.2-3.9-11.8-7.2-11.8c-2.5,0-5.7,1.3-9.6,4.2
			C863.2,80.4,855.5,95.9,855.5,108.3L855.5,108.3z"/>
		<path class="st0" d="M946.2,123.1c-1.8,2.2-5.7,5.4-9.1,5.4c-2.5,0-4.7-1.8-4.7-4.7c0-2.2,1-3.7,2.8-4.5c5.2-2,5-4.7,5-7.4
			c0-5.2,2.2-9.1,4.4-12.3l0.8-1.3c1.7-3.5,3.5-6.7,5.5-9.7c1.8-2.8,3.2-6.2,4-9.9l0.2-1.3c0.2-0.8,0.5-1.8,0.7-3.4
			c0.2-1.3,0.7-2.9,1.2-4.4c-1.2-1-1.8-1.7-2.2-1.8c-0.5-0.2-0.7-0.3-0.8-0.3c-6.9,6.4-11.8,14.4-21.5,15.3
			c-0.8,1.8-1.7,3.5-2.5,5.4c-1,1.8-2,3.9-2.8,6.1c-2.5,8.7-8.6,14.4-9.1,22c-0.5,5.4-6.2,12.4-13.1,12.4c-2.5,0-4.9-1.8-4.9-4.7
			c0-5.2,7.9-4.2,8.4-8.4c0.3-7.9,6.5-15.4,9.7-24.3c1.5-4,6.5-13.9,6.5-15.6c0-1.2-0.2-2-0.7-3.4c-4,0.8-6.2,3.4-8.4,10.1
			c-0.5,2-2.3,3.4-4.4,3.4c-3.2,0-4.9-2.5-4.9-5c0-0.5,0-1,0.2-1.3c3-8.2,7.6-16.8,18.6-16.8c4,0,8.1,3.2,8.9,10.1
			C943.5,68.7,944.5,58,954,58c3.2,0,7,1.8,9.6,4.4h0.5c2.7,0,4.9,2.3,4.9,4.9c0,1.2-0.5,2.3-1.3,3.2c-1.8,2.2-2.3,5.4-3,8.7
			l-0.3,1.3c-1.2,7.4-5,12.9-8.4,18.8l-3,5.2c-2.2,3.9-3,5.2-3,8.4v1c2-0.2,4.2-3.4,6.7-6.6l2-2.7c1-1.2,2.2-1.7,3.7-1.7
			c2.5,0,4.9,2.2,4.9,4.7c0,1.2-0.3,2.2-1,3l-1.8,2.3c-5.2,6.6-9.1,10.6-14.6,10.6C948.5,123.6,947.3,123.4,946.2,123.1L946.2,123.1
			z"/>
		<path class="st0" d="M967.3,109c0.8-2.2,3-4.7,5.7-4.7c2.8,0,4.5,2.5,4.5,5.7c0,8.1,3.9,10.4,9.1,10.4c7.2,0,9.2-8.7,9.2-13.6
			c0-6.7-4.4-13.1-6.4-20.5c-0.8-2.9-1.7-5.9-2.7-8.9c-1.2-2.8-1.7-5.5-1.7-8.1c0-9.9,9.7-18.1,19.5-18.1c5.2,0,9.1,1.8,11.6,5.7
			c1.2,1.8,1.5,1.7,4,1.7h1.7c1.8,0,3.9,1.7,3.9,4.2s-1.3,6.2-4.5,6.2h-1.8c-3.2,0-6.9-1-11.1-5.7c-0.5-0.5-1.7-2-3.9-2
			c-2.7,0-9.4,3.9-9.4,8.1c0,8.7,11.1,25.5,11.1,37.8c0,10.9-7.2,23.3-19.8,23.3C973,130.5,967.3,122.4,967.3,109L967.3,109z"/>
	</g>
</g>
</svg>
