<?xml version="1.0" encoding="UTF-8"?><svg id="Layer_2" xmlns="http://www.w3.org/2000/svg" viewBox="0 0 489.49 490"><g id="Layer_1-2"><path d="M489.49,263.73c0-.97-.16-1.85-.61-2.74-.6-1.19-.8-2.65-1.59-3.66-.93-1.19-1.22-2.56-1.7-3.86-.66-1.76-1.67-3.2-3.05-4.42-.47-.42-.96-.83-1.35-1.33-.82-1.05-1.58-2.14-2.45-3.33,.38-.88,.96-1.76,1.78-2.55,1.14-1.09,2.36-2.14,3.01-3.64,1.28-2.95,2.55-5.91,4.02-8.78,.44-.85,.6-1.77,.59-2.75-.04-2.61-.09-5.23,0-7.84,.08-2.07-1.09-3.57-2.06-5.18-.15-.26-.44-.47-.71-.62-2.48-1.34-4.76-3.14-7.74-3.39-.69-.06-1.38-.34-2.04-.6-1.39-.55-2.8-1.06-4.17-1.63-1.81-.75-3.62-1.07-5.54-1.06-5.47,.01-10.94-.05-16.4,.03-2.28,.04-4.6-.14-6.85,.49-.37,.1-.79,.04-1.18,.05-3.48,.11-6.89,.81-10.31,1.32-1.86,.28-3.66,.93-5.5,1.38-2.6,.65-5.21,1.26-7.8,1.93-1.22,.31-2.48,.59-3.62,1.11-1.14,.52-2.51-.17-3.55,.82-.2,.2-.8,.13-1.15,0-1.31-.48-2.66-.34-4-.35-2.85-.02-5.71,0-8.56,0-1.82,0-3.6-.06-5.41-.44-2.84-.6-5.43-1.63-7.76-3.34-.83-.61-.95-1.59-.19-2.2,1.09-.89,2.17-1.79,3.64-2.08,1.93-.38,3.82-1,5.76-1.34,3.18-.56,6.39-1,9.64-.99,3.49,.01,6.97,0,10.46,0,1.5,0,2.99-.06,4.47,.42,.73,.24,1.57,.15,2.36,.15,1.43,0,2.85-.04,4.27-.12,.94-.05,1.87-.19,2.8-.34,2.18-.35,4.36-.71,6.54-1.09,.46-.08,.93-.22,1.33-.43,1.95-1.04,3.91-2.05,5.79-3.19,1.29-.78,2.65-1.39,4.01-2.04,1.7-.8,3.49-1.54,4.8-2.95,.83-.89,1.82-1.51,2.81-2.15,2.72-1.74,4.95-3.92,6.25-6.94,.5-1.18,1.15-2.24,2.19-3.04,.3-.23,.53-.59,.73-.93,.8-1.36,1.53-2.76,2.37-4.1,.77-1.24,.82-2.52,.44-3.88-.13-.46-.21-.93-.39-1.37-.84-2.03-.44-3.77,.85-5.53,1.57-2.15,2.5-4.55,1.65-7.31-.25-.82-.42-1.69-.47-2.54-.07-1.18-.09-2.38,.06-3.54,.17-1.32,.6-2.6,.83-3.91,.16-.94,.15-1.89-.28-2.8-.7-1.49-1.14-3.11-2.25-4.41-.51-.59-.7-1.37-.9-2.15-.39-1.55-.56-3.1-.49-4.68,.06-1.28-.06-2.51-.67-3.69-.32-.62-.6-1.33-.66-2.01-.24-2.96-1.82-5.39-3.31-7.74-1.39-2.18-3.45-3.96-5.68-5.3-1.99-1.19-3.04-2.92-3.8-4.93-.41-1.09-.48-2.33-.97-3.37-.49-1.05-1.3-1.95-2.01-2.89-.42-.56-.88-1.1-1.41-1.56-1.24-1.09-2.6-2.02-3.14-3.74-.2-.64-.79-1.17-1.21-1.73-.23-.31-.66-.56-.73-.89-.26-1.23-1.18-1.79-2.14-2.39-3.08-1.93-5.92-4.16-8.25-6.99-.9-1.1-1.95-2.06-3.42-2.45-.51-.14-.96-.53-1.44-.8-.34-.19-.67-.43-1.03-.55-3.77-1.17-7.6-1.28-11.48-.65-1.55,.25-3.12,.49-4.69,.58-2.05,.12-4.09,.09-6.15,.39-4.11,.6-8.05,1.51-11.41,4.14-.36,.28-.85,.42-1.3,.57-.75,.25-1.52,.45-2.27,.69-2.28,.76-4.29,1.97-6.17,3.46-.86,.68-1.83,1.24-2.79,1.77-.3,.17-.77,.16-1.13,.08-.83-.21-1.16-.9-.91-1.88,.55-2.21,1.04-4.45,1.71-6.63,.55-1.79,.23-3.46-.55-4.99-.81-1.6-.95-3.33-1.27-5.01-.22-1.17-.42-2.28-.85-3.4-.46-1.18-.83-2.37-1.64-3.38-.49-.61-.95-1.27-1.33-1.96-.56-1.03-1.31-2.07-1.48-3.18-.31-1.97-1.08-3.78-1.57-5.68-.13-.53-.47-1.11-.35-1.58,.45-1.76-1.16-3.3-.48-5.06,.04-.1-.09-.3-.18-.42-1.1-1.64-2.12-3.37-3.88-4.41-1.11-.66-1.98-1.49-2.79-2.5-.77-.97-1.78-1.77-2.74-2.59-1.61-1.38-3.51-2.4-4.92-4.06-.6-.7-1.4-1.35-2.25-1.71-2.33-.98-4.73-1.83-7.28-2.02-1.5-.11-3.01-.08-4.51-.15-2.75-.12-5.47-.61-8.25-.04-1.57,.32-2.69-.48-3.29-2.06-.88-2.31-2.16-4.36-3.98-6.1-.7-.67-1.35-1.28-2.24-1.64-.51-.21-.99-.53-1.52-.65-1.86-.41-3.54-1.17-5.15-2.2-.66-.43-1.31-.81-1.88-1.38-1.76-1.8-3.18-3.93-5.29-5.39-.13-.09-.25-.21-.32-.34-.8-1.41-2.15-2.02-3.57-2.58-2.64-1.04-5.22-2.19-7.56-3.86-1.26-.9-2.97-1.03-4.2-2.09-.11-.09-.3-.08-.46-.11-1.55-.33-3.11-.59-4.63-.99-1.76-.46-3.57-.85-5.18-1.63-.94-.45-1.89-.75-2.86-1.03-1.06-.3-2.18-.4-3.23-.71-1.95-.58-3.96-.48-5.89-.23-2.73,.35-5.43,1-8.12,1.61-3.69,.84-7.32,1.94-11.06,2.6-1.27,.23-2.63,.33-3.83,1.1-.7,.45-1.72,.43-2.48-.14-.55-.41-1.14-.47-1.76-.61-2.7-.58-5.41-1.14-8.08-1.83-4.13-1.07-8.28-2-12.48-2.71-1.93-.33-3.95-.37-5.9,.13-2.27,.59-4.58,.95-6.77,1.97-1.98,.92-4.22,1.27-6.36,1.82-1.82,.47-3.72,.59-5.32,1.8-.67,.5-1.7,.51-2.38,1-2.46,1.78-5.19,2.96-7.99,4.06-1.07,.42-2.13,1.12-2.9,1.96-.69,.76-1.38,1.49-2.15,2.17-.53,.47-1.08,.94-1.52,1.49-1.38,1.74-2.68,3.54-4.95,4.22-.9,1.01-2.15,1.2-3.35,1.58-1.34,.43-2.82,.87-3.84,1.76-1.65,1.43-3.13,3.12-4.12,5.13-.31,.63-.48,1.33-.74,1.99-.49,1.21-1.37,1.93-2.72,1.91-.79,0-1.57-.11-2.36-.16-1.02-.06-2.08-.31-3.06-.12-1.42,.28-2.83,.32-4.25,.3-3.44-.04-6.78,.4-9.95,1.81-.64,.28-1.24,.66-1.86,.99-1.22,.63-1.88,1.88-2.98,2.65-1.29,.91-2.61,1.79-3.84,2.77-.79,.63-1.61,1.34-2.14,2.19-.56,.92-1.25,1.68-2.14,2.14-1.45,.77-2.44,1.98-3.51,3.13-.82,.88-1.55,1.8-1.17,3.16,.09,.34-.13,.76-.19,1.14-.09,.62-.26,1.25-.24,1.87,.04,1.22-.22,2.35-.74,3.44-.65,1.36-.96,2.82-1.15,4.31-.05,.39-.05,.83-.23,1.15-.9,1.57-1.65,3.29-2.84,4.61-1.55,1.72-1.75,3.82-2.25,5.85-.51,2.05-.74,4.16-1.49,6.16-.6,1.62-.93,3.26-.38,5.05,.67,2.17,1.1,4.42,1.62,6.63,.21,.89-.56,1.78-1.47,1.7-.31-.03-.63-.13-.89-.29-.8-.5-1.61-1.01-2.35-1.59-1.81-1.43-3.72-2.66-5.94-3.39-1.85-.62-3.85-.98-5.26-2.53-.05-.05-.14-.08-.21-.11-2.12-.87-4.17-1.89-6.44-2.34-2.87-.57-5.75-1.04-8.69-.97-.55,.01-1.12,.04-1.66-.07-3.42-.68-6.87-.98-10.35-.84-.78,.03-1.56,.16-2.33,.3-1.7,.32-3.43,.57-4.77,1.83-2.09,.59-3.48,2.05-4.8,3.66-.8,.97-1.7,1.9-2.7,2.65-1.57,1.18-3.07,2.46-4.82,3.4-.61,.33-1.3,.79-1.57,1.37-.57,1.23-1.64,2.14-2.11,3.38-.6,1.57-1.71,2.65-2.99,3.58-1.73,1.26-2.57,3.16-3.74,4.83-.21,.31-.25,.74-.36,1.11-.28,.98-.4,2.05-.87,2.93-.74,1.37-1.48,2.77-2.86,3.71-3.35,2.29-6.35,4.89-8.13,8.7-.64,1.38-1.05,2.79-1.47,4.22-.13,.45-.17,.94-.36,1.37-.79,1.78-1.07,3.63-.94,5.55,.03,.47,.04,.95,0,1.43-.13,1.41-.4,2.79-1.1,4.05-.89,1.58-1.73,3.19-2.63,4.76-.5,.87-.65,1.81-.5,2.75,.23,1.39,.52,2.77,.92,4.12,.41,1.42,.43,2.77-.01,4.19-.37,1.19-.61,2.43-.88,3.65-.05,.22-.04,.49,.03,.7,.49,1.32,.55,2.78,1.49,3.95,.59,.73,.94,1.65,1.46,2.44,.81,1.23,.98,2.44,.23,3.77-.34,.61-.56,1.31-.73,1.99-.24,1-.4,2.05,.15,3,.91,1.57,1.76,3.18,2.84,4.63,1.46,1.96,3.14,3.76,3.88,6.16,1.46,1.76,2.99,3.44,4.91,4.72,1.18,.79,2.3,1.67,3.44,2.52,.51,.38,.94,.88,1.49,1.16,3.59,1.8,7.15,3.66,10.69,5.56,.42,.22,.87,.41,1.23,.7,.76,.63,1.62,.9,2.58,1.04,1.41,.21,2.8,.51,4.19,.77,1.08,.2,2.17,.61,3.25,.57,3.22-.13,6.49,.71,9.68-.32,.29-.09,.63-.08,.94-.07,5.84,.21,11.69-.29,17.54,.36,3.4,.38,6.69,1.08,10.01,1.81,1.6,.36,2.91,1.14,4.09,2.21,.7,.63,.75,1.51,.04,2.03-.96,.7-1.89,1.51-2.96,1.94-2.79,1.12-5.65,2.03-8.71,2.02-3.8,0-7.61,0-11.41,0-.71,0-1.45-.05-2.12,.13-1.04,.29-1.98,.48-2.9-.31-.19-.16-.6-.08-.9-.09-.38,0-.81,.12-1.15,0-2.39-.84-4.86-1.38-7.28-2.09-2.58-.75-5.22-1.23-7.79-2-1.9-.57-3.83-.96-5.81-1.03-.47-.02-.94-.11-1.4-.22-3.01-.71-6.12-.51-9.15-1.07-7.13-.04-14.26-.08-21.39-.12-1.68,0-3.28,.31-4.83,1.02-1.5,.68-3.07,1.23-4.63,1.77-.82,.28-1.68,.42-2.53,.62-.53,.13-1.12,.16-1.6,.4-1.76,.89-3.49,1.82-5.21,2.79-.47,.27-1,.63-1.22,1.09-.7,1.48-1.63,2.88-1.58,4.65,.07,2.45,.05,4.91,0,7.37-.03,1.38,.3,2.65,.81,3.91,.99,2.47,2.4,4.75,3.34,7.25,.62,1.66,1.64,3.05,2.98,4.23,.95,.84,1.72,1.83,2.3,3.03-1.74,1.65-2.91,3.76-4.81,5.23-.3,.23-.55,.58-.72,.93-.79,1.63-1.54,3.28-2.29,4.93-.16,.35-.19,.76-.37,1.1-.64,1.26-1.35,2.49-1.96,3.76-.48,1-.73,2.07-.7,3.21,.05,2.38-.03,4.76,.03,7.13,.07,2.93,1.02,5.4,3.85,6.8,.28,.14,.53,.36,.81,.5,1.4,.7,2.81,1.39,4.22,2.09,2.67,.13,5.04,1.34,7.48,2.21,2.13,.77,4.23,1.22,6.47,1.22,5.07,0,10.14,0,15.21,0,.63,0,1.28,.06,1.9-.06,2.43-.45,4.89-.38,7.34-.47,.63-.02,1.27-.03,1.89-.13,1.56-.24,3.1-.54,4.66-.79,1.63-.27,3.29-.44,4.9-.8,3-.69,6.02-1.27,8.9-2.42,.65-.26,1.38-.33,2.08-.49,.54-.12,1.07-.24,1.61-.38,1.98-.51,3.95-1.05,5.94-1.53,.44-.11,.94,0,1.41,.04,.94,.09,1.87,.29,2.81,.31,3.33,.04,6.66,.06,9.98,0,2.8-.05,5.54,.1,8.13,1.3,2.05,.14,3.29,1.77,4.9,2.72,.65,.38,.68,1.42,.08,1.86-.88,.64-1.59,1.52-2.75,1.8-1.92,.46-3.8,1.07-5.73,1.5-1.07,.24-2.21,.18-3.29,.4-2.87,.57-5.75,.91-8.69,.84-3.41-.07-6.81-.04-10.22,0-1.2,.01-2.34-.13-3.49-.53-.72-.25-1.6-.47-2.3-.29-1.42,.37-2.82,.3-4.24,.33-.95,.02-1.86,.1-2.81,.32-2.15,.5-4.35,.76-6.52,1.16-.62,.11-1.27,.24-1.81,.53-1.67,.9-3.29,1.89-4.94,2.82-.89,.5-1.81,.94-2.72,1.41-2.37,1.23-4.91,2.16-6.85,4.13-.66,.67-1.52,1.13-2.29,1.69-1.02,.74-2.17,1.36-3.01,2.27-1.21,1.31-2.62,2.49-3.13,4.37-.31,1.13-1.08,2.09-1.93,2.96-.49,.5-.94,1.06-1.3,1.66-.58,.94-1.14,1.91-1.59,2.91-.45,.99-1.42,1.66-1.53,2.89-.12,1.3,.59,2.27,1,3.35,.66,1.72,.44,3.23-.59,4.71-.59,.84-1.25,1.67-1.65,2.6-.67,1.56-1.41,3.11-.72,4.96,.35,.92,.35,1.99,.68,2.98,.37,1.13,.26,2.33-.06,3.51-.38,1.36-.73,2.73-.97,4.12-.12,.68-.13,1.49,.12,2.1,.61,1.45,1.21,2.98,2.18,4.19,1.45,1.79,1.87,3.81,1.9,5.95,.04,2.46-.07,4.9,1.13,7.17,.11,.2,.12,.46,.15,.69,.46,3.06,2.02,5.62,3.68,8.13,.22,.33,.46,.67,.77,.89,1.81,1.27,3.17,3.09,5.11,4.2,.53,.3,.94,.83,1.36,1.3,1.26,1.37,1.98,3.05,2.32,4.84,.22,1.13,.63,2.15,1.28,3.02,.97,1.33,1.83,2.78,3.27,3.71,.52,.34,1.01,.8,1.35,1.32,1.09,1.63,2.07,3.32,3.15,4.96,.34,.52,.76,1.04,1.26,1.37,1.52,1,3.01,2.01,4.47,3.11,1.53,1.16,2.87,2.46,4.08,3.92,1.02,1.23,2.13,2.32,3.71,2.83,.51,.17,.96,.52,1.44,.79,.41,.23,.79,.54,1.23,.67,3.54,1.09,7.18,1.01,10.81,.72,2.2-.18,4.39-.58,6.59-.65,3.02-.1,6-.48,8.9-1.23,2.05-.53,4.18-1.19,5.93-2.32,1.77-1.14,3.6-1.94,5.54-2.59,2.21-.74,4.12-1.94,5.91-3.41,.78-.64,1.69-1.18,2.62-1.59,1.11-.5,2.09,.38,1.87,1.59-.1,.54-.36,1.06-.4,1.6-.21,2.38-1.01,4.6-1.73,6.99,.34,1.07,.52,2.11,.98,3.01,.86,1.67,.9,3.5,1.17,5.26,.19,1.26,.54,2.41,.9,3.61,.38,1.25,.98,2.29,1.69,3.35,.96,1.44,1.86,2.92,2.73,4.42,.23,.39,.25,.9,.35,1.36,.31,1.3,.42,2.68,.95,3.88,1.02,2.3,.95,4.76,1.26,7.16,.13,1.01,.37,1.85,1.03,2.55,1.14,1.2,2.19,2.48,3.65,3.36,.93,.56,1.77,1.32,2.36,2.3,.24,.4,.6,.74,.96,1.03,1.42,1.13,2.84,2.24,4.29,3.33,.69,.52,1.31,1.06,1.91,1.71,1.11,1.19,2.32,2.38,4.11,2.64,.7,.1,1.37,.38,2.06,.57,1.52,.42,3.05,.68,4.65,.76,2.36,.12,4.75-.1,7.1,.47,.8,.2,1.72-.05,2.58-.12,.78-.06,1.57-.19,2.35-.23,1.35-.06,2.22,.73,2.88,1.78,.25,.39,.39,.86,.56,1.3,1.47,3.69,3.87,6.44,7.75,7.7,.53,.17,1.05,.36,1.58,.49,1.56,.37,2.72,1.55,4.2,2.09,.26,.09,.41,.47,.64,.69,1.69,1.54,2.92,3.52,4.67,5,.3,.25,.69,.47,.87,.79,.71,1.29,1.96,1.93,3.19,2.33,3.93,1.3,7.21,3.89,11.04,5.34,.72,.9,1.77,.94,2.79,1.08,.55,.07,1.09,.19,1.63,.34,2.88,.81,5.81,1.39,8.61,2.58,2.6,1.11,5.39,1.73,8.3,1.66,1.44-.03,2.83-.24,4.22-.51,2.63-.52,5.28-1,7.85-1.75,2.96-.86,5.97-1.46,8.98-2.06,1.36-.27,2.75-.42,4.04-1.18,1.72-1,3.66-1.07,5.41-.04,1.42,.83,2.98,.93,4.51,1.27,.54,.12,1.09,.19,1.62,.32,4.06,.98,8.11,1.98,12.18,2.93,1.68,.39,3.39,.78,5.1,.96,3.53,.37,6.97-.27,10.2-1.62,2.28-.95,4.62-1.58,6.99-2.17,2.27-.57,4.62-.8,6.71-2.09,.91-.56,1.97-.93,2.92-1.52,1.54-.95,3.11-1.85,4.83-2.47,2.46-.88,4.69-2.06,6.46-4.15,1.16-1.37,2.49-2.62,3.7-3.97,1.78-2,3.61-2.97,6.28-3.91,2.12-.75,4.23-1.43,5.84-3.34,1.4-1.66,2.61-3.35,3.45-5.32,.91-2.11,1.62-2.81,3.72-2.48,2.39,.38,4.7,.31,7.05-.06,.15-.02,.32,0,.48,0,3.41,0,6.8-.09,10.04-1.34,1.91-.08,3.23-1.29,4.38-2.57,.76-.85,1.6-1.5,2.51-2.13,1.41-.99,2.95-1.84,4.03-3.23,1.37-1.77,3.08-3.11,4.89-4.41,1.06-.76,1.81-1.97,2.63-3.03,.26-.35,.35-.88,.4-1.33,.18-1.79,.28-3.59,.47-5.38,.06-.54,.33-1.05,.5-1.57,.43-1.35,1.06-2.68,1.21-4.07,.17-1.58,.95-2.83,1.65-4.13,.48-.89,1.17-1.68,1.82-2.47,1.32-1.59,1.67-3.53,1.92-5.47,.28-2.11,.6-4.17,1.45-6.16,.6-1.4,1.02-2.89,.49-4.54-.71-2.24-1.16-4.57-1.74-6.85-.14-.57-.17-1.11,.3-1.53,.59-.52,1.29-.67,1.97-.25,.87,.53,1.7,1.14,2.54,1.73,.58,.41,1.16,.82,1.71,1.25,1.72,1.34,3.81,1.88,5.8,2.66,.73,.29,1.55,.47,2.16,.92,2.4,1.79,5.15,2.72,7.99,3.4,2.84,.68,5.73,1.11,8.67,1.08,.63,0,1.27,.02,1.89,.11,3.13,.45,6.26,.83,9.43,.71,2.7-.1,5.37-.29,7.62-2.05,.12-.1,.27-.18,.42-.22,2.05-.51,3.35-1.98,4.61-3.53,1.6-1.97,3.61-3.53,5.68-4.93,1.64-1.11,3.38-1.95,4.17-3.97,.33-.85,1.31-1.47,1.6-2.32,.53-1.57,1.72-2.44,2.9-3.34,1.75-1.34,2.63-3.31,3.81-5.05,.2-.29,.12-.77,.18-1.15,.42-2.7,1.73-4.79,3.99-6.41,1.73-1.23,3.42-2.59,4.83-4.17,1.95-2.18,3.43-4.72,4.25-7.57,.35-1.21,.45-2.49,.86-3.67,.35-1,.47-1.99,.46-3.02,0-.79-.02-1.59,0-2.38,.07-1.93,.57-3.79,1.6-5.38,.87-1.34,1.45-2.8,2.19-4.19,.57-1.06,.54-2.12,.3-3.23-.29-1.3-.71-2.59-.87-3.9-.14-1.16-.09-2.38,.07-3.54,.16-1.24,.55-2.45,.82-3.67,.05-.23,.11-.5,.04-.7-.56-1.54-.63-3.26-1.76-4.59-1.75-2.06-2.08-4.36-1.04-6.85,.12-.29,.32-.58,.34-.88,.05-.78,.27-1.7-.04-2.34-1.04-2.12-2.29-4.14-3.47-6.19-.07-.13-.24-.2-.36-.3-1.21-1.07-2.02-2.41-2.64-3.88-.18-.43-.35-.88-.63-1.25-1.38-1.86-2.97-3.49-5-4.65-1.25-.71-2.39-1.55-3.39-2.58-.27-.28-.57-.57-.9-.75-1.53-.82-3.02-1.74-4.63-2.34-1.14-.42-2.11-1.04-3.12-1.65-2.7-1.63-5.33-3.44-8.67-3.51-.62-.01-1.24-.22-1.86-.37-2.31-.57-4.62-.98-7.02-.87-.7,.03-1.42-.08-2.1-.25-.97-.24-1.85-.15-2.79,.17-.81,.28-1.68,.56-2.52,.54-5.92-.16-11.87,.52-17.77-.44-2.02-.33-4.06-.58-6.07-.95-1.31-.25-2.58-.76-3.9-.97-1.49-.23-2.61-1.07-3.73-1.93-.8-.61-.79-1.67,.05-2.2,1.65-1.04,3.04-2.57,5.14-2.75,.15-.01,.31-.08,.45-.14,1.95-.76,3.96-1.02,6.05-.98,3.41,.05,6.81,.03,10.22,0,1.34,0,2.69,.15,4-.35,.34-.13,.79-.09,1.17-.01,1.45,.31,2.93,.58,4.34,1.04,2.85,.92,5.88,1.25,8.62,2.55,.14,.07,.31,.08,.46,.11,3.18,.55,6.28,1.5,9.51,1.86,3.29,.37,6.52,1.13,9.86,1.11,1.89,0,3.78,.36,5.67,.38,5.63,.06,11.25,.06,16.88,0,1.81-.02,3.56-.42,5.29-1.09,2.42-.94,4.84-1.97,7.46-2.29,.53-.06,1.05-.34,1.54-.57,.71-.34,1.38-.74,2.08-1.09,2.05-1.03,4.17-1.99,4.78-4.54,.02-.07,.06-.15,.11-.21,.66-.79,.72-1.72,.71-2.69-.02-2.46-.02-4.91,0-7.37Zm-318.21,63.72c-.33,.79-.76,1.55-1.21,2.28-1.56,2.54-3.61,4.76-4.83,7.53-.32,.71-.82,1.35-1.26,2-2.57,3.77-5.19,7.51-7.57,11.41-1.27,2.08-2.52,4.18-3.8,6.26-.2,.33-.43,.67-.7,.95-2.46,2.44-4.74,5.04-7.13,7.54-2.07,2.16-4.27,4.19-6.33,6.36-1.35,1.42-2.91,2.66-4.36,3.99-.41,.37-.93,.71-1.14,1.19-.54,1.24-1.59,1.97-2.57,2.73-1.25,.97-2.46,1.96-3.54,3.14-.51,.56-1.25,.94-1.94,1.31-.2,.11-.66-.02-.84-.2-.19-.18-.33-.63-.24-.84,.72-1.57,.94-3.31,1.9-4.82,.7-1.11,1.04-2.44,1.53-3.68,.49-1.25,.96-2.5,1.45-3.75,.12-.29,.23-.6,.42-.85,1.16-1.5,1.97-3.24,3.1-4.72,1.54-2.04,2.71-4.26,3.82-6.52,1.1-2.26,2.21-4.52,2.86-7,.33-1.27,1.08-2.45,1.74-3.62,1.32-2.33,2.3-4.88,4.19-6.85,1.95-2.03,3.71-4.28,6.16-5.79,.73-.45,1.35-1.08,2-1.64,1.94-1.67,4.26-2.65,6.56-3.68,2.22-1,4.41-2.09,6.64-3.05,1.15-.49,2.38-.8,3.3-1.1,.56,.09,.8,.12,1.03,.17,.58,.13,.98,.7,.74,1.26Zm.69-163.84c-.16,.02-.32,.02-.95,.05-.77-.23-2.02-.48-3.17-.96-2.11-.88-4.14-1.95-6.24-2.85-4.27-1.83-4.28-1.81-7.73-4.47-1.07-.82-2.17-1.6-3.16-2.51-2.55-2.35-5.16-4.7-6.73-7.84-1.34-2.67-2.85-5.26-3.88-8.09-1.44-3.94-3.5-7.6-5.56-11.24-1.66-1.42-2.15-3.65-3.64-5.23-.61-.65-.84-1.68-1.2-2.55-.42-1.02-.73-2.09-1.2-3.08-.7-1.49-1.16-3.06-2.01-4.5-.58-.99-.78-2.21-1.1-3.35-.16-.56,.49-1.15,1.03-.91,.7,.32,1.39,.73,1.99,1.22,1.1,.89,2.17,1.83,3.18,2.82,1.01,.98,2.16,1.82,2.93,3.07,.53,.85,1.33,1.58,2.15,2.17,2.5,1.83,4.43,4.26,6.72,6.31,1.22,1.1,2.31,2.36,3.44,3.56,1.08,1.15,2.13,2.32,3.21,3.47,.59,.64,1.11,1.37,1.8,1.87,1.74,1.24,2.65,3.11,3.77,4.8,2.09,3.16,4.04,6.4,6.11,9.57,1.6,2.44,3.47,4.72,4.88,7.27,1.19,2.15,2.7,4.07,3.92,6.19,.55,.96,1.21,1.85,1.8,2.79,.21,.33,.39,.69,.53,1.06,.25,.69-.15,1.29-.87,1.36Zm144.68-1.23c.26-.65,.61-1.28,.99-1.87,1.68-2.66,3.38-5.32,5.08-7.97,.43-.66,.92-1.29,1.34-1.95,.51-.79,.99-1.6,1.48-2.41,.2-.34,.34-.73,.6-1.01,1.5-1.64,2.54-3.59,3.71-5.46,1.63-2.6,3.28-5.18,4.98-7.73,.82-1.23,1.63-2.49,2.91-3.38,.69-.48,1.13-1.31,1.72-1.94,.97-1.03,1.97-2.04,2.96-3.05,.33-.34,.77-.6,1.01-1,1.07-1.81,2.83-2.93,4.27-4.38,.77-.78,1.5-1.62,2.27-2.4,.38-.39,.79-.78,1.23-1.09,1.43-1.01,2.61-2.28,3.8-3.54,1.13-1.2,2.3-2.37,3.49-3.51,.91-.87,2-1.52,2.82-2.52,.41-.51,1.14-.82,1.79-1.08,.65-.26,1.3,.41,1.08,1.07-.22,.67-.46,1.34-.75,1.99-.91,2.09-1.84,4.17-2.76,6.25-.06,.14-.11,.3-.15,.45-.81,3.75-3.28,6.57-5.31,9.66-1.34,2.04-2.49,4.22-3.57,6.41-1.08,2.19-1.96,4.47-2.94,6.7-.28,.65-.58,1.29-.9,1.92-.32,.64-.73,1.23-.98,1.89-.99,2.63-2.53,4.92-4.41,6.94-2.3,2.48-4.92,4.61-7.61,6.69-3.24,2.5-7.01,3.89-10.66,5.52-1.5,.67-2.92,1.58-4.6,1.83-.46,.07-.92,.19-1.23,.25-.4-.03-.64-.03-.87-.06-.57-.08-1.03-.69-.82-1.21Zm48.64,221.58c-.25,.18-.79,.18-1.1,.03-.56-.27-1.18-.6-1.53-1.08-1.05-1.44-2.55-2.36-3.84-3.51-.88-.79-1.71-1.61-2.46-2.54-.94-1.15-2.14-2.09-3.23-3.12-.23-.22-.54-.35-.74-.59-1.72-2.08-3.89-3.69-5.75-5.62-2.89-3-5.75-6.04-8.6-9.07-.38-.4-.71-.85-1-1.32-1.76-2.8-3.58-5.57-5.22-8.45-1.56-2.75-3.7-5.11-5.11-7.95-.03-.07-.07-.14-.12-.2-1.86-2.16-2.95-4.82-4.66-7.08-1.14-1.5-2.09-3.15-3.11-4.75-.21-.33-.4-.68-.55-1.05-.29-.73,.16-1.43,.97-1.54,.16-.02,.31-.03,.57-.05,1.25,.16,2.51,.58,3.73,1.15,3.21,1.5,6.47,2.9,9.64,4.49,1.39,.7,2.61,1.74,3.9,2.64,.51,.36,.96,.81,1.47,1.16,1.24,.84,2.43,1.72,3.35,2.95,.47,.63,1.11,1.13,1.67,1.68,1.92,1.92,3.44,4.1,4.57,6.57,.65,1.43,1.36,2.83,1.99,4.27,.53,1.23,.97,2.49,1.47,3.74,1.59,3.97,3.63,7.69,6.08,11.19,.9,1.29,1.73,2.64,2.59,3.96,.13,.2,.27,.4,.35,.62,.93,2.33,1.86,4.66,2.79,6.99,.2,.51,.46,1,.66,1.51,.53,1.31,1.08,2.62,1.53,3.96,.1,.29-.07,.85-.31,1.02Z"/></g></svg>