<?xml version="1.0" encoding="UTF-8"?><svg id="Layer_2" xmlns="http://www.w3.org/2000/svg" viewBox="0 0 1168.49 1159.51"><g id="Layer_1-2"><path d="M788.54,777.25c-1.35,1.8-.97,3.61,.03,5.37,.47,.82,1.02,1.67,1.74,2.27,2.43,2.04,3.95,4.57,4.34,7.77,1.47,.83,2.85,1.61,4.41,2.5-.26,3.11,.78,5.84,2.91,8.14,.2,3.18,2.67,4.97,4.63,7.41-.33,.9-.7,1.9-1.16,3.14,1.03,.82,2.11,1.69,3.3,2.64,0,.56,.08,1.2-.01,1.81-.43,2.98,.03,5.73,1.89,8.16,.1,.13,.15,.28,.23,.42q4.11,7.14,2.92,15.28c-.14,.93-.35,1.91-.8,2.73-.72,1.32-1.19,2.57-.5,4.05,.18,.39,.14,.96,.03,1.41-1.64,6.64-2.48,13.52-5.75,19.67-.97,1.83-2.02,3.63-3.18,5.34-1.29,1.88-2.31,3.79-2.48,6.13-.08,1.1-.41,2.2-.72,3.27-.59,1.99-1.2,3.87-.26,6.01,.39,.89,.08,2.22-.21,3.27-1.33,4.79-.22,8.83,3.44,12.19,5.99,.32,7.09-.08,10.94-3.99,1.69,.43,3.42,.72,5.03,1.31,1.48,.54,2.86,1.38,4.24,2.17,.39,.22,.81,.65,.92,1.07,.8,3.03,4.16,4.45,4.72,7.64,.25,1.41,.69,2.8,1.19,4.14,.41,1.1,.43,2.11,.15,3.26-.44,1.84-.63,3.73-1.04,6.29-1.47,1.82-3.32,4.22-5.9,5.91-3.19,2.1-5.31,5.05-6.8,8.48-.71,1.64-1.73,2.82-3.12,4.02-3.41,2.93-6.18,6.44-6.87,11.04,1.03,1.36,1.98,2.58,2.91,3.82,3.43,4.56,6.45,9.36,11.1,13.02,4.99,3.94,9.35,8.7,13.96,13.12,.57,.55,1.13,1.18,1.47,1.87,.88,1.8,2.25,3.05,4.21,3.84-.21,2.91,.62,5.43,1.75,7.94,1.44,3.2,2.63,6.52,3.9,9.8,2.01,5.21,5.74,8.3,11.25,9.25,.78,.13,1.63,.23,2.29,.6,3.47,1.95,6.74,4.33,10.35,5.92,4.59,2.03,8.24,5.48,12.68,7.68,.71,.35,1.52,.75,1.94,1.36,1.45,2.12,3.58,3.03,5.88,3.82,2.94,1.01,5.4,2.78,7.31,5.24,1.29,1.66,2.74,3.09,4.52,4.23,2.99,1.92,5.56,4.35,7.6,7.24,2.85,4.04,5.55,8.2,8.2,12.38,1.37,2.15,2.61,4.4,3.71,6.7,1.1,2.3,2.18,4.65,2.84,7.1,.97,3.54,1.75,7.15,2.24,10.78,.38,2.83,.36,5.74,.23,8.6-.2,4.3-.23,8.68-1.09,12.87-2.03,9.91-7.28,17.51-16.65,22.11-8.75,4.29-17.77,6.09-27.42,4.42-3.82-.66-7.47-1.84-10.71-3.98-5.47-3.61-10.9-7.27-16.29-11.01-3.92-2.72-6.46-6.6-8.43-10.87-3.43-7.45-5.68-15.27-6.96-23.36-1.33-8.38-2.14-16.8-1.65-25.31,.19-3.36,.02-6.71-1.13-9.95-1.05-2.95-2.68-5.44-5.21-7.3-2.69-1.97-4.64-2.03-7.5-.24-.95,.59-1.8,1.38-2.8,1.85-3.14,1.48-4.57,4.16-4.45,7.35,.26,6.5-1.54,12.29-5.04,17.67-.51,.79-.7,1.78-1.13,2.63-.95,1.83-1.75,3.79-2.98,5.42-6.07,8.04-12.22,16.02-18.42,23.96-1.77,2.26-3.67,4.45-5.71,6.47-2.73,2.7-5.6,5.24-7.36,8.76-.35,.69-.92,1.35-1.53,1.83-3.78,2.94-7.39,6.16-11.45,8.65-5.94,3.64-12.58,.45-13.91-6.35-.85-4.36-.43-8.56,1.77-12.54,4.67-8.43,9.87-16.43,16.98-23.08,3.86-3.61,7.34-7.59,10.25-12.02,1.07-1.64,2.4-2.97,4.04-4.03,2.32-1.5,4.09-3.5,5.58-5.84,2.49-3.9,5.2-7.66,7.69-11.57,1.01-1.59,1.67-3.41,2.54-5.22-.64-.9-1.12-1.71-1.73-2.42-5.91-6.95-12.24-13.51-18.84-19.8-3.62-3.45-7.83-5.96-12.35-8-2.61,1.44-3.75,3.66-4.38,6.2-.38,1.55-.58,3.15-1.74,4.39-.11,.11-.27,.28-.25,.39,.74,4.71-2.7,7.9-4.37,11.71-1.94,4.43-4.82,8.27-8.59,11.39-5.42,4.49-10.78,9.04-16.23,13.48-2.94,2.4-6.43,3.37-10.18,3.79-9.93,1.11-18.68-8.68-16.02-19.22,.31-1.23,.8-2.42,1.29-3.89-1.49-1.64-1.8-3.78-1.56-5.99-2.01-1.35-4.11-1.34-6.16-1.33-1.99,0-3.78,.67-4.96,2.43-1.55,2.32-3.8,3.81-6.03,5.38-2.74,1.93-5.35,4.06-7.94,6.19-4.01,3.3-8.37,5.79-13.55,6.81-4.54,.89-8.15,3.45-11.36,6.75-4.45,4.58-8.97,9.12-13.63,13.49-6.09,5.7-13.52,9.02-21.45,11.24-6.56,1.84-12.98,1.08-19.2-1.64-4.89-2.14-9.22-5.11-13.05-8.8-3.52-3.39-6.01-7.42-7.54-12.07-2.01-6.11-3.29-12.33-3.36-18.8-.04-3.51-.38-7.02-.52-10.54-.12-2.96-1.01-5.66-2.65-8.09-1.8-2.66-3.82-3.19-6.56-1.59-1.65,.96-3.16,2.17-4.66,3.35-6.28,4.95-12.53,9.94-18.79,14.91-2.53,2.01-5.29,3.57-8.5,4.24-4.92,1.04-8.32-1.23-8.54-6.29-.18-3.96,.13-7.99,.65-11.93,.98-7.32,.59-8.51-5.74-12.63-3.88-2.53-7.81-4.99-11.71-7.5-2.44-1.57-4.56-3.46-6.32-5.81-2.82-3.78-6.76-6.33-10.5-9.03-1.07-.77-2.68-1.04-4.06-1.08-3.13-.09-6.04,.91-8.43,2.92-2.53,2.12-5.25,4.01-5.88,7.8-.28,1.67-2.08,3.09-3.2,4.62,.74,5.53,1.5,11.05,2.21,16.58,.8,6.21-.45,12.11-3.09,17.71-1.98,4.19-4.09,8.32-6.27,12.41-4.3,8.06-10.04,14.78-18.13,19.32-1.81,1.02-3.48,2.27-5.28,3.31-5.64,3.27-11.64,5.15-18.25,4.95-3.91-.12-7.61-.99-11.11-2.64-3.76-1.77-7.48-3.62-11.15-5.55-2.95-1.55-6.03-2.04-9.29-1.59-3.77,.51-6.56,2.27-7.9,6.04-1.4,3.92-2.84,7.83-3.21,12.01-.35,3.88-1.47,7.52-3.09,11.02-2.62,5.68-5.76,11.05-9.73,15.91-.3,.37-.56,.78-.9,1.12-4.89,4.83-9.79,9.64-14.69,14.46-1.37,1.35-2.73,2.69-4.1,4.04-5.95,5.87-13,9.81-21.1,11.75-6.82,1.64-12.47-2.01-14.1-8.81-.46-1.92-.5-3.82,.22-5.66,.93-2.38,1.81-4.79,2.97-7.05,2.92-5.72,6.65-10.89,10.88-15.74,7.89-9.03,15.65-18.17,23.48-27.25,.94-1.09,1.84-2.24,2.94-3.14,3.13-2.55,4.85-5.92,5.82-9.7,.83-3.25,1.45-6.55,2.04-9.85,1.6-8.9,4.45-17.29,9.39-24.95,3.65-5.66,6.22-11.88,8.81-18.08,1.35-3.24,2.67-6.51,4.25-9.65,2.62-5.19,6.21-9.65,10.66-13.43,2.19-1.86,4.26-3.86,6.24-5.94,1.36-1.43,2.89-2.52,4.69-3.24,4.77-1.91,8.17-5.42,11.44-9.39-1.56-2.64-1.9-5.34-1.33-8.32,.47-2.4-.31-4.79-1.6-6.88-4.89-7.89-9.18-16.1-13.41-24.35-1.08-2.11-2.65-3.99-4.15-5.86-3.26-4.05-5.64-8.51-6.92-13.56-.35-1.38-.77-2.79-1.43-4.05-1.64-3.18-4.3-4.09-7.64-2.83-2.8,1.05-4.86,3-6.71,5.26-3.24,3.96-6.49,7.91-9.76,11.85-7.3,8.79-15.56,16.51-25.06,22.89-7.8,5.24-16.23,8.87-25.49,10.56-7.48,1.36-14.64,.43-21.46-2.95-6.26-3.11-11.48-7.5-15.77-13.02-1.22-1.57-2.2-3.15-1.58-5.26,.45-1.52-.18-2.84-.95-4.07-1.18-1.9-2.36-3.81-3.69-5.61-6.18-8.34-6.77-17.33-3.22-26.82,.45-1.2,.99-2.36,1.57-3.73-.48-1.17-1-2.48-1.57-3.87,4.37-6.6,10.11-11.57,16.98-15.25,5.94-3.18,12.26-5.41,18.78-7.11,.93-.24,1.91-.34,2.78-.71,4.2-1.83,8.66-2.05,13.13-2.28,4.31-.22,8.6-.63,12.91-.84,1.75-.08,3.51,.19,5.26,.23,1.26,.03,2.53,.06,3.77-.1,4.19-.54,8.31-.51,12.2,1.39,1.38,.67,2.75,.66,4.2,.37,2.5-.51,5.01-1.01,7.53-1.44,5.07-.86,8.78-3.69,11.46-7.94,2.32-3.68,3.75-7.78,4.84-11.95,.87-3.31,.13-6.37-2.4-8.82-3.03-2.94-5.23-6.42-7.12-10.16-1.92-3.8-1.67-7.32,.76-10.82,3.48-5.02,7.53-9.52,11.92-13.75,1.38-1.33,2.76-2.69,3.89-4.22,.94-1.26,1.64-2.74,2.21-4.22,.63-1.64,.03-3.32-1.46-4.15-1.09-.6-2.34-1.05-3.58-1.25-2.36-.39-4.76-.58-7.14-.81-1.27-.13-2.6,.01-3.82-.3-4.9-1.26-9.5-.81-13.75,2.12-3.3-1.52-5.43-4.01-7.14-6.89,.09-.6,.05-1.12,.26-1.52,2.1-3.97,2.76-8.07,1.82-12.53-.42-2-.11-4.15-.24-6.22-.1-1.58-.19-3.21-.64-4.72-.76-2.58-2.89-3.45-5.27-2.28-1.14,.56-2.25,1.25-3.21,2.07-2.42,2.08-4.73,4.3-7.13,6.4-3.37,2.94-6.73,5.9-10.21,8.7-1.48,1.19-3.22,2.07-4.92,2.95-4.06,2.1-8.07,1.73-11.82-.75-1.72-1.14-3.33-2.5-4.81-3.94-2.73-2.65-5.89-3.23-9.27-1.88-3.25,1.3-6.4,2.9-9.5,4.54-2.15,1.14-3.61,3.02-4.97,5.07-2.29,3.46-3.74,6.97-2.33,11.14,.72,9.9,1.08,19.79-.63,29.65-.4,2.34-.31,4.78-.36,7.18-.09,4.09-.6,7.98-3.94,10.91-.56,.49-.85,1.33-1.16,2.06-.25,.58-.38,1.22-.49,1.85-2.11,11.96-8.81,21.47-16.5,30.36-4.57,5.28-10.3,9.03-16.99,11.26-7.57,2.52-14.98,2.06-21.76-1.98-10.64-6.34-20.51-13.67-26.54-25-.3-.56-.59-1.18-1.04-1.6-3.04-2.87-3.69-6.53-3.87-10.49-.36-7.86,1.4-15.23,4.79-22.26,4.84-10.03,11.34-18.9,19.1-26.85,2.23-2.29,4.6-4.44,6.96-6.6,5.19-4.75,10.46-9.42,15.59-14.23,1.61-1.51,3.07-3.27,4.27-5.13,1.31-2.03,.66-4.15-1.49-5.25-1.55-.79-3.23-1.43-4.92-1.8-3.69-.82-6.9-2.48-9.69-4.98-4.49-4.02-9.5-6.97-15.52-8.1-1.53-.29-2.98-1.11-4.4-1.83-2.43-1.22-4.77-2.6-7.2-3.81-1.28-.64-2.63-1.19-4.01-1.54-3.38-.86-6.37-.02-8.68,2.64-1.36,1.56-2.57,3.27-3.74,4.98-3.9,5.69-8.29,10.96-13.24,15.77-5.55,5.4-11.72,9.91-18.77,13.14-8.73,4-17.16,8.54-25.5,13.28-7.69,4.37-15.75,7.72-24.59,9.08-6.34,.98-11.74,4.05-16.51,8.25-8.88,7.82-17.74,15.67-26.6,23.51-1.68,1.48-3.34,2.98-5.04,4.43-7.27,6.21-15.6,10.39-24.61,13.56-9.24,3.25-19.49-4.27-20.71-12.57-.74-5-.43-9.87,1.81-14.52,3.42-7.09,7.57-13.71,12.58-19.78,6.22-7.55,13.21-14.33,20.73-20.59,8.76-7.3,18.77-12.05,29.66-15.16,2.14-.61,4.32-1.24,6.32-2.2,3.12-1.51,4.28-3.66,3.55-7.05-.56-2.62-1.63-5.16-2.67-7.65-1.42-3.4-2.76-6.78-3.4-10.45-.87-4.99-.52-9.88,.74-14.73,1.87-7.25,5.2-13.72,10.39-19.18,1.1-1.16,2.18-2.34,3.2-3.58,8.97-10.95,20.75-17.87,33.59-23.15,3.07-1.26,6.44-1.8,9.7-2.55,3.86-.9,7.61-.3,11.29,1.07,1.19,.45,2.41,.85,3.66,1.11,1.02,.21,1.65,.76,2.3,1.53,1.42,1.7,2.32,1.98,4.02,1.07,2.52-1.34,4.94-2.87,7.69-4.49,.31-2.48,.63-5.16,.98-7.84,.43-3.22-.5-6-2.68-8.38-.86-.94-1.78-1.84-2.58-2.84-3.52-4.34-7.27-8.54-10.45-13.12-3.52-5.07-7.78-7.2-13.93-5.7-3.89,.95-7.93,1.17-11.91,.47-6.38-1.12-10.13-6.84-8.67-13.13,.32-1.39,.77-2.8,1.46-4.04,1.63-2.93,3.32-5.84,5.19-8.61,2.59-3.84,5.39-7.54,8.06-11.34,.92-1.3,1.84-2.64,2.51-4.08,1.48-3.2,.33-5.74-3.13-6.6-2.31-.57-4.74-.66-7.12-.95-3.01-.37-6.08-.46-9.01-1.14-15.71-3.65-25.88-13.21-30.16-28.85-.55-2-.79-4.08-1.33-6.09-1.21-4.51-.62-8.86,.87-13.19,3.86-11.23,9.69-21.18,18.56-29.23,2.13-1.93,4.15-3.99,6.2-6,2.91-2.85,5.03-6.15,6.26-10.07,.81-2.59,1.76-5.16,2.95-7.59,1.4-2.86,3.13-5.56,4.74-8.31,.32-.55,.75-1.03,1.13-1.55,3.32-4.43,2.8-8.07-2.62-10.12-5.34-2.03-8.98-5.92-11.5-11-3.53-7.12-3.48-14.15,.35-21.12,2.86-5.2,6.31-10.02,10.17-14.51,2.81-3.27,5.76-6.45,8.88-9.41,5.68-5.4,11.46-10.73,19.36-12.77,1.74-4.58,.8-8.5-2.51-11.56-2.56-2.36-5.53-4.34-8.54-6.12-3.12-1.85-4.54-1.41-7.25,1.05-4.62,4.2-8.57,9.04-12.81,13.6-1.31,1.41-2.72,2.63-4.33,3.72-3.43,2.32-6.69,4.92-9.99,7.43-.5,.38-1.08,.86-1.26,1.41-.89,2.68-3.26,3.83-5.28,5.36-2.68,2.02-5.4,3.99-8.02,6.09-4.58,3.68-9.79,6.03-15.5,7.22-5.8,1.2-11.13-.02-15.73-3.85-6.2-5.17-7.82-14.37-3.58-21.28,2.85-4.64,6.09-9.05,10.13-12.72,10.77-9.79,21.73-19.36,33.27-28.25,4.19-3.22,8.5-6.24,13.15-8.77,3.95-2.15,7.49-4.89,10.82-7.91,.57-.52,1.05-1.15,1.62-1.79-1.25-1.66-2.88-2.19-4.63-2.45-4.11-.61-8.22-1.2-12.34-1.76-4.91-.67-9.83-1.28-14.74-1.94-3.22-.43-6.16-1.54-8.86-3.4-2.1-1.45-4.33-2.7-6.53-4-1.97-1.16-3.61-2.53-4.52-4.77-.52-1.29-1.46-2.45-2.39-3.52-6.05-6.97-10.38-14.95-13.67-23.51-.79-2.05-1.34-4.35-1.31-6.52,.15-9.53,1.67-18.86,6.32-27.3,5.69-10.34,14.28-17.08,26.09-19.18,4.08-.73,8.23-1.2,12.37-1.5,7.79-.58,15.26,.91,22.43,4,.57,.25,1.21,.81,1.7,.71,2.92-.63,4.85,1.18,6.91,2.65,4.43,3.17,9.04,6.03,14.04,8.23,1.01,.45,2.22,.89,2.83,1.72,1.55,2.09,3.15,3.96,5.74,4.81,.49,.16,.79,.94,1.16,1.45,.65,.9,1.19,1.9,1.96,2.69,1.83,1.89,3.38,3.81,3.09,6.7-.06,.63,.6,1.39,1.04,2,2.84,3.97,3.45,5.55,3.79,10.13,.19,.18,.41,.39,.63,.6,3.03,2.78,6.14,5.5,9.07,8.38,1.42,1.4,1.42,2.23,1.29,5.91,1.18,1.74,3.32,2.99,3.5,5.46,2.45,3.12,4.7,6.43,8.91,7.55,6.72,1.77,6.7,1.82,13.36,6.05,.69,.79-.81,1.9,.36,2.61,1.59,.98,2.26,2.55,3.01,4.18,.72,1.57,1.65,3.17,2.87,4.35,3.01,2.91,5.51,6.22,8,9.54,2.32,3.08,4.83,5.98,8.48,7.6,.15,.06,.31,.13,.41,.24,2.39,2.68,5.19,4.66,8.81,5.32,.2,.04,.47,.46,.47,.69-.02,1.37,1.08,1.13,1.62,.88,4.11-1.9,7.98-4.21,10.11-8.42,.95-1.88,2.28-3.09,4.14-3.69,2.24-.72,3.84-2.16,5.36-3.86,1.7-1.91,3.65-3.6,5.33-5.52,2.36-2.7,5.44-3.57,8.67-2.91,2.42,.49,4.68,.41,7.15-.11,.94,1.19,1.85,2.29,2.69,3.43,.69,.94,1.5,1.71,2.7,1.79,2.29,.15,3.29,1.77,4.13,3.54,1.38,2.89,1.93,5.65-.64,8.39-2.03,2.16-2.84,4.96-2.74,7.97,.07,1.97,.71,2.89,2.6,3.55,1.51,.53,3.06,.99,4.68,.41,3.65-1.33,7.37-1.85,11.29-1.69,2.33,.09,4.69-.7,7.42-1.15,2.78-2.34,6.47-3.86,10.15-5.4,2.05-.86,4.22-1.41,6-2.9,.66-.55,1.76-.68,2.68-.8,2.56-.33,4.98-1.02,7.33-2.12,1.28-.6,2.72-.9,4.12-1.19,2.65-.55,5.32-1.03,7.99-1.49,2.57-.45,5.07-.14,7.57,.58,3.67,1.06,7.17,2.69,11.03,3.16,2.41,.29,3.77,2.22,5.28,4.02,1.28,0,2.56-.11,3.81,.04,.92,.1,1.95,.32,2.66,.86,1.2,.92,2.46,1.39,3.94,1.56,.59,.07,1.4,.36,1.66,.81,1.47,2.47,3.71,2.03,5.97,1.48,.65,1.34,1.2,2.47,1.79,3.69,6.25,2.02,11.12,6.34,16.25,10.24,1.18-.71,.92-1.78,.42-2.46-4.31-5.93-7.38-12.77-13.3-17.75,.43-2.82-.92-5.15-2.42-7.46-1.22-1.88-2.21-3.9-3.49-5.74-1.01-1.45-.64-2.69,.22-4.11-.44-.78-.89-1.62-1.38-2.43-.86-1.42-1.35-2.86-.7-4.54,.31-.79,.12-1.58-.67-2.08-.87-.56-1.59-1.41-1.35-2.36,.58-2.27-.7-3.61-2.04-5.02-.43-.46-.8-.98-1.33-1.65,.31-1.47,.71-3,.93-4.55,.36-2.52,.6-5.06,.92-7.59,.26-2.05,.32-4.16,.9-6.12,1.49-5.03,3.19-10,4.87-14.98,.3-.89,.82-1.72,1.32-2.53,1.5-2.45,3.11-4.83,4.54-7.32,.53-.92,.99-2.08,.93-3.1-.18-3.6,.71-6.97,1.77-10.34,.8-2.55,2.24-5.08,.37-7.76,.31-1.55,.61-3.09,.96-4.85-.98-.66-2.03-1.36-3.2-2.14-.73,.19-1.48,.4-2.25,.56-3.15,.67-6.16,1.49-8.39,4.18-1.05,1.27-2.29,1.13-3.87,.19-.55-.33-1-.99-1.56-1.07-4.19-.62-6.5-3.83-9.13-6.56-2.57-2.67-2.49-6.08-2.39-9.46,0-.3,.14-.66,.35-.87,1.72-1.77,2.35-4.11,3.48-6.19,1.58-2.91,3.7-5.57,5.87-8.1,3.32-3.88,6.95-7.5,10.3-11.36,1.55-1.78,2.9-3.77,4.09-5.82,.83-1.43,.73-3.15-.03-4.64-2.91-5.71-5.91-11.4-11.66-14.87-1.69-1.02-3.1-2.26-4.02-4-1.26-2.37-3.24-3.96-5.64-4.99-2.09-.9-3.79-2.23-5.46-3.78-1.73-1.6-3.88-2.78-5.93-4.01-1.42-.85-2.32-1.96-3.18-3.4-1.54-2.6-2.56-5.19-3.15-8.21-.53-2.7-2.31-5.23-3.83-7.64-1.43-2.26-3.76-3.39-6.41-3.8-3.19-.49-6.14-1.68-9.14-3.19-.19-1.21-.39-2.44-.6-3.74-.38-.25-.75-.58-1.17-.76-1.62-.67-3.3-1.22-4.89-1.97-.98-.46-2.16-.99-2.67-1.84-1.41-2.37-3.58-3.02-6.13-3.15-.53-1.04-1.03-2-1.55-3.02-1.59-.98-3.41-.5-5.12-.63-1.33-.11-2.54-.29-3.34-1.5-.09-.13-.2-.25-.29-.38-.82-1.33-2.89-.26-3.6-1.95-.55-1.32-1.32-2.55-2.09-3.77-.42-.66-.93-1.34-1.57-1.77-2.58-1.75-4.31-4.25-6.08-6.72-2.52-3.5-5.05-6.98-7.49-10.34,.09-.72,.01-1.27,.23-1.65,1.25-2.17,.71-4.14-.1-6.38-1.51-4.19-2.58-8.55-3.81-12.84-.18-.61-.24-1.26-.34-1.89-.5-3.14-2.05-6.12-1.56-9.4,1.09-7.25,1.63-14.62,4.76-21.44,4.41-9.58,11.55-15.92,21.71-18.82,4.16-1.19,8.38-2.08,12.7-2.41,6.01-.45,11.8,.37,17.11,3.48,.69,.4,1.39,.78,2.09,1.18,2.22,1.26,4.52,1.66,6.83,.32,1.9-1.1,3.62-.74,5.44,.19,3.18,1.63,5.86,3.85,8.22,6.51,6.39,7.18,9.67,15.74,11.03,25.1,1.31,9.01,2.43,18.06,3.55,27.1,.19,1.57-.08,3.18-.06,4.78,.01,1.69,.52,3.13,2.61,3.92,.6-.5,1.43-.99,1.97-1.69,.87-1.14,1.67-2.36,2.28-3.65,5.9-12.53,13.82-23.75,22.37-34.54,7.15-9.03,14.49-17.91,22.67-26.04,3.16-3.14,6.7-5.92,10.21-8.7,2.41-1.91,5.24-2.99,8.31-3.48,8.77-1.4,15.88,4.27,16.42,13.17,.42,6.94-1.15,13.39-5.11,19.1-4.37,6.29-8.54,12.74-14.34,17.94-2.72,2.44-5.06,5.32-7.5,8.05-.51,.57-.8,1.36-1.08,2.1-.83,2.21-2.32,3.83-4.41,4.84-3.4,1.64-6.15,3.98-8.17,7.18-.26,.4-.5,.86-.87,1.14-4.08,3.17-5.51,7.62-5.97,12.95,1.21,2.31,2.93,4.8,5.04,7,3.32,3.47,7.33,5.59,12.2,5.95,2.43,.18,4.43-.57,5.92-2.47,.88-1.13,1.8-2.28,2.4-3.57,5.89-12.64,16.07-21.3,27.01-29.26,3.51-2.55,7.4-4.41,11.6-5.61,9.41-2.69,18.14,.9,22.77,9.48,1.21,2.25,2.22,4.61,3.36,6.9,.71,1.43,1.41,2.9,3.59,3.4,.56-.3,1.42-.67,2.18-1.18,2.12-1.44,4.19-2.94,6.28-4.4,4.35-3.04,8.96-5.53,14.04-7.15,6.43-2.05,11.6-5.74,15.73-11.2,2.38-3.14,5.63-5.63,8.57-8.33,.68-.62,1.63-1.09,2.53-1.32,3.78-.96,7.04-2.98,10.42-4.8,5.11-2.75,10.46-4.72,16.28-5.38,8.97-1.02,17.13,1.04,24.49,6.25,.65,.46,1.28,.96,1.9,1.46,6.13,4.86,10.18,10.75,10.92,18.91,.66,7.36,.77,14.67,.24,22.02-.14,1.91-.44,3.83-.35,5.74,.08,1.73,.33,3.54,.98,5.13,1.04,2.55,3.75,3.92,6.27,2.27,2.66-1.74,5.5-3.36,7.76-5.55,6.14-5.94,13.15-10.68,20.24-15.32,1.68-1.09,3.8-1.72,5.8-2.04,2.98-.49,5.34,1.4,5.83,4.38,.26,1.56,.3,3.19,.19,4.78-.25,3.34-.53,6.7-1.05,10.01-.63,4.05,.42,7.26,3.92,9.54,2.68,1.74,5.26,3.66,8.06,5.16,3.6,1.92,6.73,4.33,9.18,7.55,2.46,3.25,5.67,5.59,8.95,7.88,3.23,2.26,6.5,2.26,9.97,.67,2.81-1.29,5.26-3.05,7.22-5.43,1.11-1.36,2.09-2.83,3.08-4.27,1.69-2.45,2.46-5.09,2.06-8.14-.37-2.83-.49-5.72,1.01-8.41-2.6-4.94-1.99-9.81-.31-14.89,3.04-9.2,7.15-17.77,13.06-25.47,3.54-4.61,7.53-8.69,12.58-11.67,2.89-1.71,5.7-3.55,8.64-5.17,8.82-4.88,17.93-5.39,27.23-1.52,3.24,1.35,6.39,2.93,9.55,4.46,2.18,1.06,4.43,1.81,6.88,1.87,3.3,.08,5.94-1.12,7.7-3.96,1.86-3,3.45-6.1,4.07-9.65,1.73-9.94,6.12-18.81,11.5-27.2,1.71-2.66,3.95-5.02,6.14-7.33,3.84-4.06,8.01-7.83,11.73-11.99,5.44-6.09,12.22-10.25,19.25-14.06,3.72-2.02,7.82-2.79,12.07-2.18,4.58,.66,7.04,3.36,7.39,8.01,.29,3.76-.23,7.38-2.36,10.57-3.29,4.92-6.67,9.76-10.04,14.63-.54,.79-1.14,1.56-1.82,2.23-5.05,4.89-9.48,10.34-14.1,15.62-4.64,5.29-9.3,10.55-13.85,15.93-3.59,4.24-5.48,9.34-6.78,14.67-.3,1.24-.59,2.5-.74,3.76-.98,8.11-4.11,15.36-8.43,22.22-4.44,7.04-8.2,14.45-11.47,22.11-.94,2.2-1.99,4.36-3.13,6.47-1.84,3.4-4.17,6.42-7.09,8.99-.94,.83-1.97,1.73-2.52,2.82-1.36,2.68-3.52,4.48-5.85,6.22-4.86,3.64-9.7,7.31-14.45,11.1-1.61,1.28-3.1,2.8-4.32,4.45-3.34,4.56-3.66,9.42-.84,14.38,1.26,2.22,2.72,4.34,3.87,6.62,2.31,4.56,4.56,9.15,6.65,13.81,1.91,4.25,3.96,8.39,7.07,11.91,1.96,2.22,3.1,4.82,3.7,7.68,.33,1.56,.53,3.16,.98,4.69,.48,1.68,.97,3.41,1.82,4.91,2.02,3.58,5.42,4.82,9.41,3.77,3.07-.81,5.46-2.62,7.47-4.96,2.4-2.79,4.68-5.68,7.07-8.47,3.53-4.13,7.03-8.3,10.71-12.3,6.75-7.32,14.36-13.66,22.49-19.38,7.32-5.15,15.38-8.44,24.35-9.31,7.3-.7,14.02,.89,19.89,5.35,8.03,6.1,14.18,13.82,18.7,22.8,3.36,6.68,3.23,13.57,.39,20.42-1.92,4.66-4.82,8.65-8.48,12.08-6.72,6.3-14.1,11.48-23.25,13.77-4.48,1.12-8.8,2.86-13.28,4.01-3.08,.79-6.31,1-9.46,1.52-1.41,.23-2.86,.45-4.2,.93-2.92,1.05-5.88,1.32-8.95,1.14-2.86-.17-5.75-.44-8.55,.6-.43,.16-.95,.17-1.42,.12-4.45-.42-8.93-.67-13.33-1.36-5.64-.88-10.51,.53-14.6,4.34-2.09,1.94-4.02,4.15-5.59,6.52-3.27,4.97-5.37,10.51-7.01,16.22-.04,.15-.09,.31-.13,.46-1.15,5.19,.28,7.22,5.61,7.48,2.35,.11,4.43,.46,6.03,2.3,1.78,2.04,2.46,4.43,2.33,7.1-.18,3.66-1.54,6.81-4.02,9.51-4.76,5.18-9.49,10.39-14.23,15.59-1.18,1.3-2.4,2.58-3.47,3.97-.77,1-1.48,2.11-1.97,3.27-1.08,2.57-.16,4.4,2.5,5.14,1.07,.3,2.21,.35,3.3,.59,1.04,.23,2.05,.56,3.43,.95-.91,1.09-1.56,1.87-2.22,2.67,.42,.28,.67,.59,.92,.59,5.28,.06,10.55,.06,15.83,.11,1.58,.01,3.19-.18,4.76,.35,1.16,3.14,1.22,6.36,1.22,9.53,0,7.51-.17,15.03-.2,22.54,0,2.06,.03,4.17,.44,6.18,.52,2.58,1.52,3.16,4.03,3.11,3.35-.07,6.2-1.27,8.61-3.62,6.05-5.93,12.13-11.83,18.21-17.73,1.15-1.11,2.3-2.22,3.53-3.24,3.45-2.87,7.35-3.71,11.68-2.43,.61,.18,1.2,.41,1.97,.68,1.28-.82,2.61-1.66,3.91-2.48,1.64-.12,2.74,.84,3.87,1.73,3.1,2.44,6.52,2.99,10.39,2.2,6.9-1.41,12.39-4.94,16.73-10.39,1.32-1.66,2.31-3.44,2.38-5.63,.02-.64-.06-1.34,.17-1.9,1.45-3.45,.65-6.89,.05-10.33-.47-2.68-.92-5.32-.43-8.09,.21-1.2-.12-2.53-.35-3.78-.35-1.88-.87-3.73-1.22-5.62-.2-1.09-.45-2.27-.25-3.33,.65-3.47,1.28-6.83-.98-10.05-.45-.64-.17-1.87-.07-2.81,.93-8.79,3.29-17.25,5.95-25.64,.42-1.32,1.25-2.64,2.23-3.63,3.31-3.32,5.81-7.21,8.41-11.05,1.35-1.98,2.69-3.99,4.25-5.8,7.35-8.47,16.59-12.77,27.91-12.32,5.08,.2,9.75,1.72,13.98,4.48,3.49,2.27,7.06,4.3,10.96,5.84,2.16,.85,3.98,2.6,5.87,4.06,5.01,3.86,8.87,8.73,12.12,14.11,1.96,3.24,2.97,6.69,2.52,10.52-.15,1.26-.16,2.56-.05,3.83,.97,10.39-1.6,19.97-6.58,29-5.37,9.74-11.96,18.52-20.34,25.9-5.52,4.86-11.02,9.75-16.52,14.63-1.67,1.49-3.37,2.95-4.96,4.53-.89,.89-1.74,1.91-2.32,3.02-1.39,2.65-.81,5.47,1.58,7.29,1.24,.95,2.72,1.74,4.21,2.19,6.21,1.86,11.84,4.76,16.89,8.82,1.11,.9,2.36,1.66,3.61,2.36,7.39,4.14,14.77,8.3,22.22,12.32,2.23,1.21,4.66,2.09,7.05,2.95,3.42,1.24,6.27,.14,8.59-2.51,.95-1.08,1.8-2.24,2.69-3.37,3.67-4.64,7.28-9.33,11.02-13.92,5.83-7.18,12.86-12.73,21.33-16.67,10.13-4.72,20.04-9.92,29.98-15.04,6.17-3.18,12.59-5.53,19.5-6.29,7.84-.87,14.83-3.83,21.1-8.47,3.2-2.38,6.24-5,9.21-7.67,5.94-5.35,11.82-10.78,17.64-16.25,5.88-5.52,12.47-10,19.69-13.54,2.42-1.18,5.05-1.98,7.64-2.76,3.33-.99,7.14-.11,8.93,3.65,.47,.99,1.18,1.92,1.95,2.7,2.92,2.98,3.88,6.64,3.4,10.59-.61,5.07-1.53,10.11-2.42,15.14-.75,4.2-2.79,7.8-5.62,10.95-1.5,1.66-3.07,3.26-4.62,4.87-2.87,3-5.74,6-8.62,8.99-.22,.23-.42,.49-.66,.7-9.46,8.32-19.71,15.25-32.22,18.16-1.09,.25-2.19,.58-3.29,.59-3.31,.05-6.14,1.6-9.14,2.66-3.59,1.26-6.2,5.97-4.42,10.33,1.32,3.25,2.89,6.41,4.47,9.55,1.52,3.01,2.81,6.08,3.6,9.37,1.44,6.06,1.08,12.06-.62,18.01-3.03,10.6-8.78,19.5-17.13,26.64-7.6,6.5-16.2,11.37-25.59,14.82-5.01,1.84-10.16,2.75-15.52,2.33-1.74-.14-3.5-.02-5.61-.02-1.78-1.21-3.19-3.5-6.01-3.89-2.31-.32-4.54-1.24-7.11-1.98-.95,3.39-4.28,4.45-6.81,6.93-.1,2.4-.19,5.1-.32,7.8-.14,2.84,.72,5.38,2.45,7.59,1.28,1.63,2.59,3.26,4.07,4.71,4.36,4.28,8.19,8.96,11.48,14.11,.52,.81,1.04,1.61,1.61,2.39,2.49,3.38,5.84,4.85,10.01,4.4,2.86-.31,5.71-.7,8.57-1.03,3.76-.44,7.34,.16,10.63,2.1,3.89,2.28,5.93,5.68,6.09,10.21,.14,3.8-.84,7.29-2.9,10.46-1.92,2.95-3.94,5.83-5.93,8.72-2.09,3.03-4.26,6-6.27,9.08-.95,1.46-1.75,3.06-2.35,4.69-.83,2.21-.18,3.81,2.02,4.62,2.08,.76,4.29,1.22,6.48,1.6,4.09,.71,8.23,1.16,12.31,1.91,6.08,1.12,11.46,3.94,16.53,7.35,1.26,.85,2.38,2.2,3.06,3.57,1.44,2.89,3.13,5.58,5.21,8.02,5.01,5.88,7.15,12.77,7.11,20.38-.07,11.69-3.18,22.41-10.59,31.66-1.9,2.38-3.57,4.87-4.74,7.74-.58,1.42-1.76,2.63-2.83,3.79-1.08,1.17-2.4,2.11-3.54,3.23-3.13,3.06-5.87,6.47-6.97,10.74-1.87,7.28-5.2,13.69-10.11,19.36-1.74,2-2.53,4.42-1.82,7.57,5.05,3.16,9.42,7.57,13.64,12.15,2.99,3.25,5.13,6.91,5.54,11.43,.31,3.43-.31,6.69-1.63,9.83-2.69,6.42-6.6,12.03-11.38,17.06-1.98,2.08-3.94,4.19-5.83,6.36-3.62,4.17-7.87,7.45-12.97,9.65-1.6,.69-3.14,1.57-4.59,2.52-2.85,1.87-2.82,1.92-6.71,2.64-2.23,2.52-2.22,5.43-.96,8.4,.62,1.46,1.49,2.83,2.39,4.14,2.73,3.99,6.15,7.35,9.86,10.42,4.26,3.53,9.2,4.19,14.47,3.3,1.64-.28,2.91-1.12,3.95-2.47,1.26-1.62,2.73-3.09,4.1-4.63,1.91-2.14,3.78-4.32,5.72-6.43,.85-.92,1.73-1.9,2.79-2.5,2.41-1.37,4.39-3.17,6.25-5.18,2.95-3.18,6.24-5.95,9.89-8.32,1.98-1.28,4.14-2.32,5.12-4.79,.3-.77,1.32-1.47,2.17-1.76,2.34-.8,4.14-2.36,6.04-3.82,5.38-4.15,11.61-6.05,18.29-6.34,6.4-.28,13.41,5.31,14.85,11.55,.71,3.08,.13,6.01-1.41,8.79-2.89,5.22-6.48,9.92-10.96,13.85-6.85,6.01-13.8,11.9-20.72,17.83-2.06,1.77-4.26,3.39-6.23,5.26-3.27,3.11-6.92,5.65-10.86,7.83-3.49,1.93-6.83,4.19-10.41,5.92-4.16,2.01-8.5,3.64-12.79,5.37-1.63,.66-3.33,1.11-4.98,1.72-2.28,.86-4.24,2.2-5.82,4.4,1.34,3.07,3.24,5.22,6.95,5.5,4.62,.35,9.22,.99,13.82,1.49,10.02,1.08,19.9,3,29.73,5.17,9.04,1.99,16.56,6.64,22.64,13.57,5.83,6.65,10.5,14.08,14.46,21.98,2.05,4.09,2.97,8.48,2.93,12.98-.07,8.56-1.65,16.83-5.28,24.66-2.93,6.31-7.55,11.07-13.48,14.54-5.44,3.18-11.5,4.76-17.61,6.01-1.5,.31-3.23,.16-4.72-.26-2.07-.6-4.09-.75-6.15-.39-2.26,.39-4.44,.14-6.64-.42-3.87-.98-7.77-1.83-11.62-2.85-1.34-.36-2.72-.79-3.52-2.24-.32-.57-1.27-.85-1.98-1.14-1.03-.41-2.1-.75-3.17-1.05-6-1.67-10.8-5.43-15.73-8.97-.52-.37-1.02-.77-1.48-1.22-2.82-2.79-5.61-5.6-8.42-8.4-.68-.67-1.32-1.44-2.13-1.91-3.29-1.89-5.01-4.94-5.78-8.41-.69-3.11-2-5.7-4.29-7.83-1.61-1.5-2.85-3.09-1.76-5.63-3.75-1.48-5.21-4.68-6.66-7.84-.88-1.91-1.83-3.56-3.68-4.84-2.42-1.67-3.46-4.45-4.28-7.21-.32-1.06-.35-2.21-.6-3.3-.55-2.42-1.68-4.56-3.75-5.95-3.18-2.14-6.41-4.21-9.76-6.06-1.5-.83-3.31-1.12-5.01-1.53-2.55-.61-4.82-1.72-6.72-3.51-3.26-3.07-6.5-6.15-9.08-9.86-1.09-1.56-2.43-2.95-3.7-4.38-2.34-2.61-4.99-4.95-6.44-8.29-.42-.98-1.29-1.85-2.13-2.56-2.81-2.35-5.63-4.69-8.57-6.87-2.37-1.76-5.25-2.31-8.12-2.63-.7-.08-1.62,.24-2.18,.69-1.73,1.41-3.32,2.97-4.98,4.46-1.05,.95-2,2.11-3.2,2.8-6.2,3.55-11.48,8.1-15.79,13.78-.19,.24-.49,.4-.98,.79-2-.7-3.98-.29-6.09,.81-2.71,1.42-8.1,.17-10.14-2.24-1.85-2.18-3.92-3.67-6.6-3.8-1.04-1.74-2.25-3.13-2.75-4.75-.49-1.58-.27-3.39-.38-5.44-.03,.06,.03-.33,.26-.5,3.94-3.01,4.37-7.12,3.69-11.76-1.35-1.82-3.22-2.76-5.66-2.71-.93,.02-1.86-.32-2.79-.45-.94-.13-2.01-.53-2.82-.23-3.81,1.39-7.88,.99-11.76,1.84-3.3,.72-6.52,1.63-9.36,3.52-4.87,3.24-10.39,4.89-15.92,6.45-1.65,.47-3.48,.47-5.22,.38-3.72-.19-7.35,.06-10.85,1.43-3.45,1.35-6.88,1.02-10.32-.1-2.88-.94-5.76-1.91-8.68-2.73-2.49-.7-4.85-1.61-6.85-3.29-1.15-.97-2.46-1.47-3.97-1.38-2.02,.13-3.72-.66-5.38-1.71-3.24-2.07-6.61-3.87-10.33-4.98-1.04-.31-2.04-.91-2.92-1.57-4.36-3.25-8.68-6.54-12.98-9.86-.73-.56-1.29-1.33-1.94-2.01-.42-.1-.86-.15-1.25-.32-.97-.43-2.05-.24-1.62,.12,.38,.32,1.02,.38,1.56,.42,.43,.03,.88-.13,1.32-.21Zm-41.42,226.89c-.88,1.79-1.6,3.56-1.17,5.7,.19,.93-.41,2.02-.63,2.96q-3.78,.14-4.92,1.5c1.16,.25,2.18,.62,3.22,.67,3.11,.15,4.38-1.11,4.22-4.25-.11-2.2-.47-4.39-.72-6.59,.63,1.12,1.37,2.11,3.14,2.25,.06-.86,.12-1.72,.18-2.63-1.29,.15-2.31,.28-3.34,.4Zm256.17-457.37c-3.55-1.24-5.51,1.42-8.15,3.12,.7,1.09,1.26,1.97,1.93,3.01,1.92-.75,3.63-1.43,5.47-2.15,0,1.82,0,3.38,.03,4.97-.2,.19-.4,.37-.59,.56-.07,.07-.11,.18-.16,.27,.23-.05,.61-.04,.65-.15,.09-.25,0-.56-.01-.84,2.1,.41,2.49,.2,2.43-1.39-.03-.73-.21-1.45-.29-1.99,3.37-1.4,6.43-2.64,9.45-3.95,1.05-.45,1.47-1.8,.99-2.88-1.03-2.34-2.68-3.71-5.25-3.22-.27-.76-.47-1.32-.74-2.1-1.61,.78-3.01,1.45-4.07,1.97-.72,1.9-1.27,3.38-1.79,4.84l.1-.07Zm-397.69,346.75c.51-1.06,2.01-1.65,1.54-3.19-1.15-.58-1.77-.13-1.81,1.07-.02,.7,.17,1.41,.27,2.11-1.04,3.81-2.07,7.63-3.11,11.44-.8,2.93-.62,5.69,1.41,8.14,.28,.34,.35,.87,.59,1.52-2.46,4.42-.35,8.51,1.45,12.59,.83,1.88,2.5,2.86,4.6,2.94,1.27,.05,2.56,0,3.82,.13,3.01,.32,4.86-1.26,6.09-3.72,.86-1.74,1.17-3.64,.93-5.6-.18-1.46-.53-2.77-1.81-3.75-1.01-.77-1.77-1.86-2.77-2.64-1.1-.85-2.35-1.51-3.6-2.29v-5.23c-.91-.73-1.64-1.31-2.47-1.98,.74-.97,1.4-1.83,2.19-2.86-1.41-2.79-.86-5.52,.55-8.2,.29-.55,.58-1.2,.56-1.8-.01-.55-.31-1.33-.72-1.55-.44-.24-1.21-.05-1.75,.17-.4,.16-.72,.63-.96,1.04-.76,1.28-1.76,1.69-3.23,1.3-.52-.14-1.19,.22-1.78,.36ZM507.98,147.78c-1.67,.89-3.31,1.83-5.01,2.65-2.22,1.08-3.92,2.64-5.26,4.73-1.28,1.98-2.81,3.81-4.12,5.55-.87,6.15,.66,11.77,2.87,17.34,.87,2.19,1.31,4.62,1.56,6.97,.39,3.68,1.28,7.2,2.45,10.7,.81,2.41,1.52,4.89,1.87,7.4,.21,1.5,.06,3.34-.67,4.62-1.47,2.59-2.55,5.39-4.37,7.82-1.38,1.84-2.81,3.54-4.98,4.29-2.23,.77-3.27,2.42-3.9,4.49-.74,2.44-1.42,4.9-2.24,7.32-1.85,5.5-1.94,10.98,.23,16.39,.69,1.72,.77,3.33,.3,5.11-.47,1.75-.08,3.48,.76,5.1,1.35,2.6,3.28,4.73,5.57,6.49,1.42,1.09,3.16,1.76,4.95,1.21,5.89-1.8,10.87-4.81,12.71-11.16,.84-2.89,1.4-5.9,1.73-8.89,.4-3.67,1.02-7.28,2.33-10.72,1.08-2.83,2.33-5.6,3.47-8.4,1.21-2.96,2.59-5.79,4.5-8.4,1.98-2.71,3.36-5.77,4.24-9.06,1.11-4.13,1.19-8.17-.52-12.18-1-2.35-1.81-4.77-2.76-7.14-.83-2.08-1.68-4.1-1.01-6.47,.23-.81-.23-1.84-.44-2.75-.25-1.08-.78-2.15-.81-3.23-.09-3.21-.2-6.37-1.52-9.38-.22-.51-.14-1.28,.07-1.83,.34-.9-.24-1.45-.44-2.17-.18-.67,.76-1.78,.47-2.26-2.1-3.53-3.16-7.58-5.29-11.08-2.63-.38-5.33-.35-6.77-3.02,.46,0,.92,0,.49,0,.44,.03-.02,0-.47-.03Zm156.42,383.8c-.99,1.4-1.92,2.69-2.82,3.99-.82,1.18-1.7,2.33-2.4,3.58-2.14,3.84-1.89,6.37,.92,9.64,.94,1.09,1.99,2.08,3.03,3.07,1.62,1.54,3.3,3.02,4.93,4.56,4.19,3.97,8.03,8.22,10.87,13.32,.76,1.37,1.88,2.57,2.95,3.74,1.98,2.16,4.46,2.48,7,1.3,1.71-.8,3.37-1.85,4.82-3.06,3.44-2.88,6.51-6.15,9.07-9.85,2.09-3.02,4.04-6.14,5.96-9.27,.48-.78,.79-1.78,.83-2.69,.12-3.16,.54-6.37-1.57-9.2-.54-.73-.63-1.79-.98-2.68-1.92-4.93-3.09-10.05-4.15-15.22-.37-1.8-.59-3.43,.43-5.06,1.16-1.85,1.3-3.92,1.13-6.02-.18-2.23-.4-4.45-.66-6.67-.39-3.35-.57-6.68,.38-9.99,.31-1.07,.41-2.2,.53-3.31,.81-7.49,3.71-14.17,7.91-20.34,1.35-1.98,2.73-3.94,4.11-5.9,4.05-5.74,4.05-11.96,2-18.32-.46-1.44-1.4-3.05-2.61-3.86-1.95-1.32-2.99-3.19-4-5.07-2.35-.52-4.54-.98-6.71-1.49-4.26-1-8.27-.13-12.09,1.72-1.71,.83-3.26,2-4.88,3.03-3.64,2.31-7.24,4.68-10.93,6.91-2.75,1.66-5.75,2.79-8.97,3.19-3.17,.4-6.36,.62-9.51,1.15-7.2,1.21-14.34-.09-21.5-.34-4.64-.16-9.13-1.36-13.48-3.06-1.63-.64-3.35-1.1-5.07-1.4-6.26-1.12-12.4-1.12-18.16,2.17-8.19,4.68-14.77,11.17-20.46,18.56-3.24,4.2-2.4,9,1.82,12.22,1.9,1.45,3.9,2.84,6.04,3.88,5.47,2.65,9.76,6.58,13.41,11.34,1.45,1.9,3.06,3.69,4.71,5.43,2.56,2.71,5.81,3.38,9.24,2.33,2.1-.64,4.11-1.75,5.98-2.93,1.88-1.19,3.55-2.72,5.31-4.1,5.15-4.05,10.28-8.13,15.47-12.12,3.7-2.85,7.81-4.93,12.31-6.27,10.38-3.09,20.74-6.27,31.23-9.45,.65,1.14,.13,2.35-.2,3.55-2.62,9.38-5.52,18.69-7.82,28.15-2.06,8.51-5.84,15.83-12.38,21.68-1.44,1.29-2.72,2.72-3.31,4.61-.14,.44-.08,.94-.11,1.35,.78,1.07,1.51,2.08,2.34,3.22Zm126.65,27.85c1.13-.32,2.03-.63,2.94-.81,1.23-.24,2.49-.57,3.72-.5,6.63,.34,13.04-.87,19.36-2.67,2.75-.78,5.29-2.23,8.25-2.37,.72-.03,1.51-.55,2.11-1.03,2.82-2.31,6.1-4.11,7.86-7.59,.55-1.08,1.69-1.9,2.66-2.71,1.92-1.59,3.33-3.52,3.71-5.97,.35-2.2,1.58-3.74,2.99-5.31,1.49-1.66,2.92-3.4,4.14-5.26,1.7-2.58,2.83-5.51,2.51-8.6-.4-3.84,.85-7.23,2.09-10.69,.8-2.22,1.95-4.33,2.21-6.54-.99-1.5-2.2-1.55-3.54-1.36-.41,.06-.87-.2-1.39-.34-.18-1.12-.35-2.18-.53-3.34-.76-.07-1.41-.26-2-.15-2.69,.48-5.33,.96-7.98-.35-.61-.3-1.54,.01-2.32,.12-3.28,.45-6.97-1.76-7.56-4.95-.63-3.4,.13-6.92-.36-10.37-.08-.55,.35-1.21,.64-1.77,.51-.98,1.1-1.92,1.58-2.75q-1.43-4.99,.76-8.14c-.17-1.32-.35-2.74-.56-4.34,2.2-1.97,3.14-4.61,3.27-7.58,.07-1.51,.49-2.74,1.93-3.59,.56-.33,.87-1.25,1.07-1.96,.26-.91,.25-1.9,.44-2.83,.85-4.17,2-8.33-.1-12.49-.27-.54-.15-1.26-.28-1.89-.48-2.42-4.02-5.17-6.53-5.43-4.03-.42-7.13,2.48-10.95,2.87-1.47,.15-2.85,1.36-4.21,2.17-.53,.32-.89,.91-1.38,1.32-.48,.41-.99,1.02-1.53,1.08-1.71,.2-2.36,1.22-2.94,2.69-.3,.75-1.34,1.33-2.17,1.69-1.01,.44-2.15,.57-3.24,.81-2.05,.46-3.48,1.44-3.67,3.79-.07,.91-.57,1.78-.84,2.58-.96,.15-1.71,.28-2.77,.45-.78,2.34-1.58,4.75-2.38,7.16-1.14,3.47-2.21,6.97-3.44,10.41-.59,1.64-1.65,3.12-2.21,4.77-2.59,7.61-4.28,15.33-3.59,23.5,.65,7.63,2.32,14.82,7.04,21.05,1.57,2.07,2.5,4.44,3.18,6.92,.53,1.92,.56,3.75-.36,5.59-1.72,3.42-3.04,7.09-5.1,10.28-4.21,6.52-3.95,4.94-3.86,14.31,0,.8,0,1.6,.03,2.4,.09,2.82,1.04,5.29,3.29,7.74Zm-274.81,286.42c3.87-1.23,7.79-2.55,11.76-3.71,3.44-1.01,6.43-2.55,8.9-5.29,1.92-2.13,4.35-3.71,7.44-3.94,.91-.07,1.94-.4,2.65-.95,3-2.38,6.02-4.75,8.79-7.38,2.54-2.41,5.01-5.09,5.93-8.55,.67-2.51,1.68-4.8,2.75-7.11,.67-1.44,1.48-2.92,1.69-4.46,.71-5.03,1.57-10.09,1.6-15.15,.02-2.88-.12-5.67,.72-8.45,.06-.19-.28-.49-.58-.97-2.69,1.14-5.43,1.08-8.13-.33-.66-.35-1.57-.44-2.33-.35-4.58,.55-9.17,.85-13.02,4.09-2.68,2.25-5.9,3.79-9.4,4.57-1.86,.41-3.7,.9-5.98,1.45-2.06-1.15-4.38-2.55-6.78-3.78-3.7-1.88-7.38-3.81-11.2-5.39-4.16-1.72-8.55-2.62-13.1-2.27-7.68,.59-15.18,2.01-22.34,4.95-1.91,.78-3.85,1.69-5.86,2.03-6.98,1.19-12.7,4.91-18.37,8.75-.75,.51-1.34,1.37-1.79,2.18-.53,.97-.92,2.04-1.22,3.11-.53,1.93-1.34,3.54-3.33,4.39-.68,.29-1.31,.91-1.76,1.53-1.41,1.93-2.87,3.85-4.01,5.94-.82,1.5-1.53,3.25-1.64,4.92-.25,3.7-.75,7.26-2.84,10.34,4.34,4.12,9.18,5.62,14.49,4.76,1.72-.28,3.49-.4,5.24-.36,1.69,.05,3.14-.19,4.31-1.52,1.22-1.38,2.87-2,4.65-2.24,3.8-.5,7.26-2.22,11.07-2.83,2.77-.44,5.35-2.13,8.33-1.06,.26,.09,.66,.01,.92-.13,2.77-1.52,5.93-1.12,8.86-1.83,2.69-.66,5.36-.54,8.26,.29,.85,1.55,1.76,3.22,2.76,5.04-1.28,2.47-.97,4.86,.54,7.16,.63,.96,.92,2.01,.33,3.16-.33,.66-.51,1.39-.77,2.12,1.54,1.07,2.83,1.96,4.27,2.97-1.22,2.84-.43,4.91,2.17,6.42,1.29-4.35,1.65-5.45,6.04-2.13Zm-44.6-265.35c-1.32,1.46-2.59,2.88-3.89,4.28-4.21,4.53-7.09,9.79-8.99,15.66-1.18,3.66-1.02,7.04,.38,10.71,5.56,14.6,7.31,29.71,5.22,45.23-.11,.79-.25,1.59-.5,2.33-2.5,7.27-5.21,14.43-10.03,20.58-.68,.87-1.49,1.8-1.74,2.82-.8,3.25-1.41,6.55-2.01,9.85-.4,2.2,.25,4.06,1.91,5.63,1.98,1.86,3.86,3.82,5.76,5.76,2.1,2.13,4.55,2.95,7.41,1.85,2.23-.86,4.49-1.71,6.57-2.86,4.33-2.4,8.56-4.98,12.82-7.5,6.92-4.09,14.35-6.09,22.42-5.66,2.87,.15,5.76,.22,8.62,.03,1.78-.12,3.46-.22,5.18,.34,1.05,.34,2.2,.36,3.3,.58,2.65,.54,5.31,1.06,7.94,1.68,2.01,.48,4.01,1.05,5.98,1.71,1.5,.5,3.06,1.02,4.38,1.86,1.41,.9,2.86,1.3,4.47,1.51,1.42,.18,2.83,.5,4.21,.87,2.39,.64,4.71,.44,7.1-.09,8.67-1.93,15.42-6.7,20.76-13.68,3.74-4.9,3.61-7.44-.97-11.46-1.91-1.68-4.06-3.1-6.14-4.58-3.18-2.27-5.87-4.86-7.08-8.77-.93-3.01-3.19-5.11-5.56-7.06-3.52-2.9-8.71-3.21-12.36-.54-2.84,2.07-5.66,4.2-8.25,6.56-1.75,1.59-3.33,3.47-4.54,5.49-1.02,1.7-2.26,3.06-3.69,4.33-4.4,3.9-9.61,6.24-15.19,7.86-6.9,2.01-13.79,4.01-20.7,5.98-1.53,.44-3.09,.82-4.66,1.06-4.91,.77-9.77,1.58-14.13,4.22-.7,.43-1.93,.49-2.72,.19-3.36-1.29-5.4-5.77-4.21-9.16,.42-1.18,1.08-2.34,1.87-3.32,2.14-2.68,3.44-5.72,4.43-8.96,2.2-7.18,4.47-14.33,6.68-21.51,1.91-6.18,4.83-11.78,9.01-16.77,4-4.78,7.81-9.71,11.64-14.64,1.17-1.51,2.24-3.13,3.11-4.82,1.71-3.33,1.2-6.51-1.16-9.37-.71-.85-1.49-1.7-2.39-2.34-7.64-5.41-12.67-12.94-17.22-21.05,.57-1.43,1.14-2.89,1.69-4.27-1.67-2.15-3.82-1.91-5.83-1.46-4.42,.99-7.79,3.47-9.9,7.43,.35,1.22,.65,2.28,.99,3.45Zm191.97-268.27c.33-.56,.57-.92,.77-1.31,.39-.77,.45-1.54-.21-2.18-.69-.67-1.47-.55-2.12,.06-.78,.73-1.59,.8-2.63,.66-.88-.12-1.92,0-2.73,.37-2.74,1.24-5.47,2.37-8.56,2.37-.77,0-1.58,.27-2.29,.59-3.45,1.57-7.32,2.35-10.03,5.36-.5,.56-1.33,.89-2.07,1.15-4.45,1.61-8.14,4.34-11.46,7.64-.67,.67-1.42,1.31-2.24,1.79-2.69,1.6-4.51,3.98-6.26,6.5-2.4,3.45-3.61,7.45-5.41,11.17-2.3,4.76-3.25,9.65-2.75,14.86,.28,2.91,.11,5.73-1.16,8.43-.68,1.44-1.16,2.97-.39,4.55,.31,.14,.59,.36,.89,.39,7.92,.89,15.61,.64,22.52-4.16,2.34-1.63,5.22-2.54,7.4-4.32,2.65-2.17,5.44-2.39,8.54-1.99,1.84,.24,3.2,1.34,4.6,2.41,3.58,2.75,7.45,5.03,11.87,6.03,6.94,1.57,13.97,1.73,20.9-.02,3.86-.98,7.76-2.08,11.34-3.76,5.9-2.76,12.28-4.3,18.04-7.43,2.67-1.45,5.26-2.95,7.72-4.79v-3.13c2.04-2.08,4.26-4.13,6.22-6.41,2.06-2.4,3.91-4.99,5.76-7.56,.44-.62,.54-1.49,.78-2.24,.86-2.74,1.52-5.56,2.63-8.19,1.01-2.39,.79-4.2-1.06-6.04-1.2-1.18-2.39-2.01-4.11-2.11-1.43-.08-2.84-.5-4.27-.57-5.38-.25-10.51,.63-14.88,4.03-1.38,1.07-2.75,1.52-4.43,1.11-.6-.15-1.23-.2-1.95-.3-.99,1.11-1.92,2.16-2.93,3.29-1.57-.19-3.13-.39-4.73-.59-.76,.89-1.47,1.72-2.07,2.42-2.59,0-4.96-.04-7.34,.01-2.34,.05-4.56,1.69-7,.55-2.38,1.39-4.88,1.03-7.69,.46-1.03-1.73-2.17-3.63-2.95-4.94,0-2.55,.03-4.46,0-6.36-.04-1.88-.16-3.76-.24-5.55-1.44-.81-2.66-1.5-3.99-2.24Zm-330.59,380.63c.07,.74,.2,1.52,.22,2.3,.08,2.91-.48,5.7-1.71,8.35-2.87,1.66-2.6,4.48-2.72,7.2-.05,1.09-.56,2.16-.68,3.26-.43,3.83,.37,7.29,3.21,10.11,.88,.87,1.95,1.43,2.99,.71,1.66-1.15,3.15,.76,4.57,.11,1.56-.72,2.92-1.84,4.38-2.78,.13-.08,.31-.07,.47-.1,2.61-.56,4.56-2.25,6.53-3.87,2.03-1.66,5.19-1.85,6.15-4.94,.18-.58,1.22-1,1.94-1.26,1.04-.37,2.15-.51,3.22-.75,1.91-3.03,3.27-6.35,6.17-8.55,.35-.27,.54-.78,.73-1.22,1.87-4.4,3.73-8.81,5.59-13.22,.49-1.17,.87-2.4,1.43-3.54,2.58-5.2,4.23-10.67,5.11-16.39,1.55-9.99,.37-19.4-5.59-27.91-1.27-1.81-2.06-3.95-3.06-5.95-.53-1.05-.6-2.09-.17-3.23,1.68-4.46,2.95-9.01,6.3-12.76,3.54-3.98,4.57-9.13,4.16-14.34-.16-2.05-.58-4.04-.34-6.14,.26-2.27-1.63-3.44-3.74-2.4-.84,.42-1.55,1.07-2.46,1.71-2.07-1.18-4.17-1.24-6.42-.41-1.16,.43-2.51,.42-3.78,.45-3.41,.08-6.63,.92-9.77,2.16-2.37,.94-4.76,1.86-7.09,2.91-1.74,.78-3.44,1.68-5.11,2.62-6.39,3.61-10.04,9.67-13.81,15.61-.24,.38-.33,.93-.3,1.38,.14,1.8-.87,2.97-2.01,4.16-5.66,5.93-8.63,12.92-8.33,21.22-.59,.34-1.21,.7-1.68,.98,.76,1.56,1.35,2.81,1.98,4.05,1.22,2.37,1.94,5.03,3.89,7.14,2.43-.83,4.76-1.08,7.12-.14,1.26,.5,2.48,.36,3.62-.49,.62-.46,1.36-.76,2.59-1.44,.78,1,1.45,2.12,2.36,2.99,1.43,1.36,1.81,2.83,1.44,4.75-.33,1.7-.62,3.52-.34,5.19,.32,1.91-.08,3.45-1.02,4.99-1.29,2.12-1.84,4.28-1.32,6.84,.56,2.79-.47,5.37-2.17,7.62-.77,1.01-1.64,1.94-2.56,3.01Zm317.74-70.14c-.55,2.42-1.65,3.93-3.65,5.03-1.62,.89-3.19,2.27-4.21,3.81-3.77,5.74-9.69,9.7-12.95,15.83-.21,.39-.78,.56-1.08,.93-2.21,2.74-4.22,5.58-5.4,8.95-.65,1.87-.07,4.26-2.34,5.49-.26,.14-.34,.9-.27,1.33,.43,2.56,.01,5.08-.23,7.62-.29,2.94,.7,5.66,1.73,8.36,.71,1.84,1.86,2.9,3.96,2.72,1.94-.17,3.83-.08,5.49,1.16,.55,.41,1.09,.29,1.74-.02,.65-.31,1.54-.53,2.2-.34,1.79,.52,3.41,.13,5.15-.24,3.26-.7,6.61-1.61,9.87-1.44,3.23,.16,5.55-.95,7.77-2.87,.57-.49,1.31-1.31,1.25-1.89-.23-2.13,1.07-3.27,2.47-4.33,1.34-1.01,2.13-2.31,2.72-3.82,.95-2.47,2.55-4.39,4.88-5.69,1.7-.94,3.13-2.08,4.01-3.95,.7-1.48,2.1-2.36,3.72-2.8,1.23-.33,2.45-.68,3.74-1.04,.78-1.35,1.57-2.72,2.28-3.94,1.27-.37,2.65-.35,3.3-1.04,2.37-2.51,5.16-4.91,4.58-8.98-.09-.6-.03-1.39,.3-1.85,1.77-2.47,1.11-5.11,.86-7.8-.2-2.21-.04-4.46-.04-6.7,0-2.37,0-4.74,0-7.32-1.1-1.14-2.2-2.56-3.56-3.62-1.62-1.26-3.43-2.3-5.24-3.28-.98-.53-2.23-.83-3.19-.05-2.12,1.72-4.39,1.52-6.81,.96-.68-.16-1.74,0-2.2,.44-1.29,1.25-2.87,1.19-4.43,1.46-2.87,.5-5.67,1.37-7.66,3.6-2.31,2.57-5.06,4.33-8.76,5.31Zm323.06,22.52c-6.3-.33-11.93,1.22-17.09,4.35-4.8,2.9-9.89,5.16-15,7.41-6.13,2.7-12.57,3.44-19.14,3.42-5.33-.02-9.69,1.58-12.4,6.48-.77,1.4-1.58,2.78-2.49,4.09-1.08,1.55-1.38,3.2-.97,5,.32,1.4,.6,2.81,1.06,4.16,.77,2.26,2.38,3.75,4.69,4.4,3.12,.88,6.03,2.93,9.55,1.75,.4-.13,.94,.1,1.4,.22,3.86,.99,7.69,2.06,11.57,2.94,1.36,.31,2.86,.38,4.24,.19,4.61-.66,9.01-2.07,13.17-4.17,.8-.4,1.73-1.1,2.02-1.87,1.42-3.82,5.52-5.23,7.48-8.54,.27-.46,1.06-.67,1.66-.87,1.36-.45,2.75-.83,4.13-1.22,2.2-.63,4.36-1.1,6.29,.76,.32,.31,.89,.58,1.3,.52,2.25-.29,3.93,.87,5.72,1.93,.79,.47,1.79,.63,2.72,.82,3.12,.61,6.26,1.18,9.39,1.76,2.47,2.62,6.07,1.32,8.94,2.56,.87,.38,1.82,.63,2.75,.8,3.29,.59,6.6,1.12,9.89,1.68,1.54,.26,2.77-.29,3.94-1.27,4.08-3.43,7.47-7.43,10.06-12.08,.69-1.23,1.16-2.64,1.43-4.03,.51-2.58-.49-4.36-2.91-5.34-1.47-.6-3.01-1.13-4.56-1.4-2.01-.36-3.56-1.36-4.88-2.8-.74-.81-1.32-1.76-1.83-2.44-2.68,1.18-2.67,1.07-4.98,.76-1.36-.18-3.04,.59-4.11,.04-2.56-1.31-5.91,.54-8.01-2.19-.13-.17-.66-.2-.91-.09-2.18,.96-4.02-.86-6.02-.73-2.35,.16-4.4-.68-6.51-1.34-2.13-.66-4.12-1.85-6.27-2.29-2.32-.48-4.11-1.5-5.32-3.35Zm-284.98,366.7c.84-1.73,1.56-3.32,2.39-4.86,.8-1.5,1.06-3.08,.48-4.62-.87-2.3-1.16-4.62-.94-7.05,.05-.62-.03-1.28-.18-1.89-.57-2.42-2.74-4.39-1.98-7.19,.02-.06-.17-.22-.28-.27-2.46-1.03-2.29-3.32-2.27-5.29,.07-6.29-2.52-11.84-4.95-17.31-1.32-2.98,1.01-5.23,.3-7.89-.21-.78,.43-1.79,.7-2.68,.04-.14,.17-.28,.3-.37,2.39-1.6,4.57-3.41,6.1-5.9,.15-.24,.51-.37,.8-.5,3.77-1.69,5.48-4.7,5.5-8.73,0-1.66,.3-3.25,1.47-4.43,1.31-1.32,1.3-2.78,1.07-4.43-.66-4.9-1.23-9.82-1.86-14.72-.61-4.78-1.82-9.41-3.72-13.83-2.31-5.39-7.78-6.9-12.51-3.53-.78,.55-1.51,1.18-2.31,1.71-5.66,3.78-8.37,9.03-8,15.85,.03,.64,.05,1.29-.05,1.91-.18,1.07-.46,2.13-.69,3.2-.13,.59-.42,1.22-.33,1.78,.6,3.85-.78,7.23-2.33,10.59-.8,1.74-1.94,3.4-2.36,5.22-.74,3.21-2.33,5.82-4.25,8.42-1.99,2.69-3.53,5.73-4.16,9.07-.47,2.5-.7,5.05-.93,7.58-.07,.75-.08,1.92,.36,2.23,1.97,1.42,1.32,3.4,1.31,5.16,.49,.59,.85,1.13,1.3,1.56,2.73,2.62,3.74,5.81,3.5,9.55-.13,2.01-.45,4.18,1.57,5.67,.19,.14,.2,.6,.18,.91-.14,2.33,1.63,4.61,.16,6.96,.08,4.22-.43,8.57,2.67,12.13,2.12,6.24,6.94,10.08,12.24,13.79,1.21-.85,2.58-1.48,3.49-2.52,2.27-2.6,4.97-4.43,8.22-5.28Zm-142.54-543.15c-3.01-.18-5.7-.34-8.39-.48-.31-.02-.65,.08-.92,.22-3.02,1.67-6.48,1.32-9.69,2.11-2.64,.65-5.26,1.19-8.03,.97-2.38-.18-4.08,1.6-5.99,2.72-1.26,.74-1.48,2.01-1.62,3.3-.14,1.26-1.02,1.94-1.92,2.61-1.67,1.25-3.27,2.58-4.22,4.5-2.26,4.6-5.91,7.86-10.02,10.75-2.34,1.65-4.57,3.48-6.72,5.37-.99,.87-1.92,1.61-3.26,1.82-1.51,.24-2.58,1.19-3.4,2.44-1.13,1.73-2.27,3.45-3.49,5.31,1.03,2.07,1.54,4.24,.86,6.46-.47,1.52-1.11,2.98-1.72,4.45-.94,2.26-1.62,4.53-.29,6.86,.69,1.22,.55,2.45,.23,3.71-.24,.93-.57,1.84-.7,2.78-.19,1.37,.24,2.51,1.57,3.18,1.85,.94,3.67,1.93,5.53,2.83,1.6,.78,3.13,.97,5.03,.5,3.56-.89,7.17-1.42,10.11-3.87,.23-.19,.58-.3,.89-.33,4.59-.55,8.19-2.7,11.78-5.69,7.24-6.04,14.67-11.82,21.18-18.68,.65-.68,1.37-1.38,2.2-1.79,1.75-.86,2.6-2.27,2.97-4.09,.16-.78,.35-1.54,.55-2.44,3.2-1.37,4.65-4.17,5.84-7.2,.64-1.63,1.19-3.39,2.22-4.76,1.87-2.48,2.43-5.14,2.14-8.12-.05-.47-.15-1.01,.01-1.43,1.5-3.81,.29-7.18-1.53-10.51-.52-.95-.71-2.08-1.19-3.53Zm-336.79,51.25c.89-.14,1.83-.44,2.75-.39,5.41,.29,9.93-1.86,14.21-4.87,1.56-1.1,3.22-2.09,4.96-2.87,3.34-1.49,6.73-2.88,10.16-4.16,2.68-1,5.41-1.97,8.2-2.6,3.57-.81,7.22-1.35,10.85-1.84,7.2-.98,11.37-5.42,13.59-11.93,1.11-3.25,.51-6.25-2.46-8.57-2.12-1.66-7.86-4.2-10.8-4.52-5.07-.55-10.15-1.11-15.21-1.77-1.52-.2-2.79,.06-4.09,.85-2.48,1.49-5.11,2.72-8.03,2.9-1.94,.12-3.26,.96-4.42,2.43-2.08,2.63-4.28,5.16-6.42,7.75-2.97,3.58-7.13,4.17-11.3,4.04-1.85-.06-3.48-2.02-5.67-1.65-2.79-1.96-6.08-1.65-9.21-2.04-1.11-.13-2.46,.13-3.28-.43-2.61-1.77-5.66-1.95-8.53-2.73-2.76-.75-5.59-1.34-8.43-1.69-3.67-.46-7.38-.62-10.18,2.57-4.91,2.21-6.9,6.9-9.37,11.16-.68,1.18-.55,2.47,.3,3.61,1.82,2.44,3.66,4.78,6.77,5.83,1.63,.55,3.23,1.47,4.56,2.57,1.9,1.58,3.73,1.55,5.85,.37,1.82,1.96,3.97,2.52,6.51,1.63,.72-.25,1.61-.35,2.35-.18,3.4,.74,7.06-.44,10.3,1.46,.38,.22,.93,.2,1.41,.22,2.98,.11,5.57,1.25,7.96,2.95,.64,.45,1.36,.79,1.96,1.13,1.06-.34,1.96-.64,2.83-.92,.65,.58,1.24,1.11,1.91,1.7Zm775.18-82.24c-1.59-1.5-2.99-2.75-4.3-4.09-2.8-2.87-6.34-4.19-10.04-3.12-5.29,1.52-11.01,1.82-15.77,5.04-.36,.24-.96,.38-1.36,.26-1.66-.5-2.71,.45-3.84,1.38-1.11,.91-2.16,1.97-3.42,2.6-2.27,1.13-3.77,2.81-4.86,5.06-.46,.95-1.33,1.85-2.23,2.42-2.65,1.67-4.47,4.05-6.19,6.57-1.44,2.11-2.91,4.2-4.38,6.28-1.49,2.12-3.24,3.95-5.65,5.03-2.24,1.01-3.92,2.67-5.49,4.52-.91,1.07-1.97,2.27-3.22,2.76-5.24,2.07-8.18,6.96-12.6,10-1.04,.71-1.92,1.68-2.76,2.63-.51,.58-.98,1.3-1.16,2.03-1.01,4.13-1.13,8.16,1.66,11.79,.87,1.14,1.61,2.38,2.43,3.55,.37,.52,.79,1,1.22,1.47,2.46,2.74,5.44,4.24,9.22,4.37,2.97,.1,5.56,.14,6.97-3.26,.37-.9,2.14-1.24,3.29-1.79,4.16-1.95,7.55-4.69,9.64-8.92,1.07-2.17,2.67-4.02,4.79-5.24,2.84-1.64,4.95-3.96,6.83-6.59,.83-1.15,1.74-2.41,2.92-3.11,1.99-1.19,3.74-2.3,3.92-4.93,.04-.62,.93-1.22,1.48-1.78,1.23-1.24,2.47-2.48,3.74-3.67,1.63-1.52,3.26-3.05,4.96-4.49,4.45-3.77,10.24-5.05,15.16-7.96,.99-.59,2.45-.4,3.68-.57,1.72-2.35,2.77-4.95,3.68-7.71,1.17-3.56,.47-7.28,1.68-10.53Zm-492,493.03c3.08-.4,4.97-2.15,6.57-4.54,.95-1.41,2.41-2.51,3.73-3.65,4.71-4.06,9.76-7.77,12.67-13.54,.63-1.25,1.74-2.25,2.7-3.45-.58-.73-1.17-1.46-1.75-2.2,.67-3.73,.68-4.13-.68-6.33-2.44-3.94-6.32-6.23-10.07-8.66-.38-.24-.91-.29-1.38-.35-5.69-.66-10.43,1.57-14.11,5.57-3.33,3.62-5.99,7.85-9.05,11.72-1.58,2-3.29,3.92-5.13,5.68-2.73,2.61-4.4,6.34-8.19,7.85-.13,.05-.25,.21-.32,.35-1.22,2.39-3.31,3.79-5.56,5.08-1.09,.62-2.11,1.5-2.89,2.48-2,2.54-4.39,4.62-6.97,6.54-1.67,1.24-3.29,2.64-4.07,4.63-2.91,7.38-6.9,14.37-8.45,22.22-.78,3.99-1.49,8.39,3.42,10.79,.26,.13,.43,.47,.59,.74,1.71,2.93,4.57,3.23,7.47,3.06,1.56-.09,3.09-.76,4.63-1.15,1.86-.47,3.78-.76,5.56-1.43,2.15-.81,2.26-3.36,3.66-4.87,.73-.79,1.41-1.73,1.77-2.73,2.69-7.44,6.29-14.29,12.18-19.75,1.17-1.08,2.39-2.15,3.4-3.38,1.63-1.99,3.26-3.82,5.86-4.69,1.08-.36,1.96-1.58,2.71-2.57,.66-.87,1.01-1.98,1.71-3.42ZM658.11,247.89c0,3.44-.12,6.16,.05,8.85,.08,1.21,.44,2.66,1.21,3.51,1.81,2,3.82,3.88,6,5.47,1.22,.89,2.9,1.3,4.44,1.57,1.55,.27,3.18,.02,4.77,.12,1.9,.11,3.34-.53,4.61-1.98,1.96-2.23,5.03-3.39,6.17-6.46,.19-.52,.87-.94,1.42-1.25,2.43-1.4,4.04-3.58,5.68-5.75,2.4-3.19,4.81-6.37,7.16-9.6,1.8-2.48,3.88-4.63,6.37-6.44,1.42-1.03,2.86-2.1,3.99-3.41,3.15-3.66,6.78-6.75,10.67-9.57,2.49-1.8,4.7-3.97,5.9-6.81,2.67-6.31,5.2-12.69,7.61-19.1,.54-1.43,.69-3.16,.49-4.68-.44-3.31-1.27-6.55-3.03-9.17-2.93-1.65-5.75-1.78-8.61-.91-3.19,.97-6.38,1.98-9.51,3.15-.79,.3-1.52,1.16-1.95,1.95-1.31,2.37-2.69,4.75-3.62,7.28-2.2,5.98-5.81,10.94-10.29,15.36-.79,.78-1.54,1.62-2.26,2.47-1.36,1.6-2.88,2.89-4.91,3.67-2.97,1.14-4.97,3.39-6.24,6.29-.38,.87-.78,1.73-1.22,2.69-1.42,.34-2.79,.66-4.28,1.02-1.63,3.16-4.26,5.45-7.11,7.53-.64,.47-1.39,.86-1.9,1.44-3.85,4.4-8.19,8.35-11.6,12.75ZM251.33,651.99c-2.27,4.66-6.46,7.31-9.15,11.26-2.68,3.93-6.98,6.56-8.98,11.08-.29,.66-1.14,1.08-1.74,1.58-.73,.61-1.7,1.05-2.19,1.81-1.78,2.75-4.34,4.64-6.76,6.72-1.19,1.03-2.23,2.28-3.13,3.59-.74,1.08-1.49,2-2.67,2.65-1.11,.62-2.12,1.43-3.1,2.25-2.6,2.18-5.48,3.76-8.72,4.86-2.52,.86-5.1,1.69-7.02,3.88-1.11,1.27-3.16,1.78-4.11,3.12-1.06,1.49-1.24,3.57-2.01,5.3-1.4,3.13-1.68,6.48-2.03,9.8-.09,.88,.29,1.87,.68,2.72,.46,1.01,1.44,1.03,2.46,1,.56-.01,1.17,.38,1.7,.68,3.47,2,7.01,2.94,10.84,.96,.54-.28,1.23-.4,1.85-.4,3.02,0,5.52-1.35,7.99-2.89,1.2-.75,2.48-1.6,3.83-1.86,5.56-1.08,9.33-4.83,12.83-8.73,4.9-5.46,9.38-11.29,14.14-16.89,1.33-1.57,2.87-3.02,4.53-4.24,4.11-3.02,8.34-5.9,12.54-8.8,1.47-1.01,2.64-2.15,3.43-3.85,.57-1.22,1.8-2.16,2.79-3.17,1.88-1.92,3.81-3.79,5.71-5.68,.02-1.93,1.63-2.83,2.83-3.85-.69-1.05-1.53-1.78-1.67-2.62-.67-4.04-3.43-6.81-5.83-9.75-.84-1.03-2.27-2.04-3.54-2.19-2.98-.35-6.02-.25-9.04-.17-.72,.02-1.48,.56-2.12,1-.76,.53-1.4,1.21-2.02,1.76-.77-.31-1.33-.53-2.32-.93Zm673.93-134.35q.09,3.22-3.01,4.03c-.53,1.89-1.12,3.87-3.17,4.95-4.34,2.28-5.26,6.7-6.07,10.83-.75,3.78,1.36,5.78,5.37,6.3,4.11,.53,7.96-.2,11.54-2.27,1.1-.64,2.17-1.35,3.2-2.11,7.28-5.42,15.38-9.06,24.19-11.18,1.09-.26,2.14-.66,3.24-.87,4.35-.86,8.25-2.5,11.13-6.04,.3-.37,.69-.69,1.09-.94,1.96-1.22,3.44-2.8,3.83-5.13,.94-.31,1.69-.59,2.45-.79,1.16-.3,1.97-.98,2.49-2.05,.98-2.02,1.96-4.1,4.03-5.23,2.12-1.17,2.75-3.9,5.19-4.74,.68-.23,1.21-.92,1.8-1.39-1.75-2.21-1.36-4.37-.7-6.54,.63-2.07-.04-3.74-1.51-5.22-1.12-1.13-2.26-2.25-3.25-3.49-1.94-2.43-4.39-3.13-7.27-2.22-3.82,1.21-7.46,2.79-10.52,5.54-1.65,1.48-3.58,2.65-5.39,3.97-3.36,2.44-6.72,4.88-10.08,7.31-.9,.65-1.71,1.55-2.71,1.89-3.18,1.06-5.57,3.08-7.56,5.65-2.27,2.93-5.03,4.28-8.88,2.58-.31,.42-.62,.79-.88,1.19-1.06,1.65-2.31,2.8-4.42,3.3-1.57,.37-2.88,1.83-4.14,2.69Zm-432.88,460.17c2.77,2.81,6.03,4.73,9.83,4.33,3.63-.38,7.74-.28,10.21-4.01,.31-.46,1-.83,1.57-.93,1.41-.24,2.18-1.26,3.04-2.18,1.63-1.75,3.2-3.56,4.87-5.28,.76-.78,1.6-1.68,2.58-2.01,1.51-.51,2.3-1.56,3.14-2.75,1.93-2.73,3.81-5.51,6.01-8.02,2.09-2.39,3.18-5.06,3.67-8.14,1.26-7.95,3.82-15.4,8.68-21.95,.94-1.27,1.8-2.65,2.43-4.09,.7-1.63,1.46-3.16,2.73-4.44,1.48-1.48,1.77-3.35,1.3-5.33-.66-2.78-1.38-5.55-2.01-8.09-2.32-1.85-4.67-1.71-7.08-1.31-2.69,.45-4.58,2.22-6.29,4.07-1.5,1.62-3.16,2.61-5.35,2.78-.25,.02-.47,.37-.88,.71,.12,1.11,.25,2.35,.39,3.74-1.02,.78-2,1.57-3.01,2.31-1.71,1.25-3.2,2.57-3.42,4.92-.08,.88-.58,1.91-1.22,2.53-2.82,2.71-4.42,6.27-6.28,9.52-2.5,4.37-5.98,7.72-9.28,11.3-2.39,2.58-4.87,5.06-5.96,8.54-.23,.75-.67,1.46-1.13,2.1-2.88,4.01-5.97,7.89-7.61,12.64-1.75,1.61-1.75,3.62-1.36,5.75,.2,1.09,.29,2.2,.43,3.28ZM676.51,176.37c-2.07,.6-3.86,1.45-5.71,1.59-3.25,.25-5.76,1.64-7.99,3.87-2.03,2.03-4.03,4.12-6.27,5.9-2.15,1.71-3.14,4.85-6.39,5.26-.35,.04-.62,.69-.92,1.06-1.6,1.99-3.26,3.95-4.78,6-.84,1.15-1.65,2.39-2.13,3.72-1.47,4.05-2.94,8.11-4.1,12.26-1.57,5.61-4.01,10.76-7.25,15.57-1.52,2.25-3.04,4.51-4.53,6.78-1.62,2.47-2.64,5.25-2.32,8.15,.24,2.2,.45,4.35,.02,6.69,.94,.54,1.72,1.08,2.56,1.45,1,.44,2.07,.73,2.97,1.04,5.59-3.49,9.85-8.49,15.7-10.76,.42-1.58,.38-3.33,1.24-4.2,1-1.02,2.77-1.29,4.34-1.93,.57-3,1.52-5.85,3.81-8.05,.22-.21,.33-.55,.5-.82,2.04-3.23,4.08-6.47,6.14-9.69,.34-.53,.74-1.14,1.27-1.41,1.95-1,2.81-2.91,4.13-4.47,2.15-2.54,3.21-5.96,6.31-7.74,.49-.28,.69-1.04,1.04-1.57,1.93-2.93,3.63-6.05,5.86-8.73,3.16-3.8,4.38-8.04,4.32-12.85-.02-1.58-.4-2.79-1.83-3.6-2.08-1.18-4.12-2.41-5.99-3.51ZM187.82,659.01c-.95,2.65-1.61,4.6-2.35,6.52-.7,1.8-.39,3.38,.68,4.96,2.99,4.45,7.02,5.87,12.02,3.94,1.77-.68,3.5-1.59,5.1-2.62,4.84-3.1,9.62-6.29,14.38-9.5,1.19-.8,2.31-1.72,3.34-2.71,2.19-2.1,4.31-4.24,7.27-5.35,.82-.31,1.4-1.24,2.1-1.88,4.11-3.82,8.53-7.22,14.03-8.78,1.86-.53,3.07-1.45,3.94-3.12,1.05-2.01,2.54-3.7,4.56-4.8,5.21-2.83,7.97-7.54,10.07-12.82,1.15-2.9,.71-5.24-2.13-7.5-1.71,1.5-3.62,1.09-5.67,.33-1.68-.62-3.5-.23-5.08,.7-2.61,1.53-5.23,3.05-7.77,4.71-7.68,5.01-15.76,9.03-24.84,10.85-1.36,.27-2.71,.94-3.87,1.72-2.51,1.68-5.06,3.38-7.3,5.39-2.12,1.9-4.88,2.97-6.55,5.46-1.23,1.84-2.99,3.33-4.22,5.18-1.35,2.02-3.64,2.26-5.66,3.17,.6,2.79,1.54,5.56-2.04,6.15Zm550.71-12.67c3.85,1.88,7.42,2.3,11.03,.96,2.83-1.05,5.73-2.11,8.29-3.68,4.76-2.91,9.28-6.21,13.93-9.31,3.3-2.2,4.99-5.27,5.35-9.17,.35-3.86,1.45-7.52,3.05-11.04,1.48-3.26,2.14-6.55,1.74-10.23-.26-2.42-.53-5.26,1.17-7.38,1.75-2.18,2.19-4.55,2-7.17-.13-1.78-.07-3.52,1-5.06,.98-1.41,1.02-3.01,.9-4.61-.31-3.97-.67-7.94-1.05-11.91-.03-.27-.35-.51-.56-.8-2.2-.68-4.74,.31-6.74-1.42-.77,1.85-2.11,2.55-3.7,2.88-2.94,.6-5.22,2.19-7.23,4.38-1.5,1.64-3.33,2.97-4.98,4.47-.33,.3-.53,.76-.85,1.22,.56,.97,1.1,1.92,1.72,2.99-1.62,2.93-1.55,5.99-.98,9.25,.71,4.08,.99,8.24,1.19,12.39,.08,1.69-.34,3.48-.87,5.12-2.74,8.54-7.47,15.82-13.99,22.01-2.3,2.19-4.41,4.62-6.36,7.14-1.94,2.52-3.41,5.35-4.06,8.97Zm-89.27,84.02c-1.43,1.49-2.5,2.66-3.63,3.77-2.28,2.23-4.61,4.42-6.9,6.65-2.39,2.33-4.59,4.88-7.8,6.23-.85,.36-1.55,1.11-2.24,1.77-1.41,1.36-2.83,2.32-5,2.34-1.49,.01-3.01,.91-4.43,1.6-3.09,1.5-6.32,2.24-9.73,2.04-2.07-.12-4.12-.41-6.18-.67-3.82-.48-7.64-.75-11.38,.51-1.66,.56-3.27,1.08-5.1,1.02-.98-.03-2.12,.64-2.93,1.3-.97,.79-1.75,1.85-2.47,2.9-.81,1.18-1.48,2.46-2.18,3.72-.75,1.36-2.47,1.89-2.75,3.77-.19,1.26-1.27,2.39-1.96,3.59,1.63,2.32,3.18,4.52,5,7.11,1.49-1.25,3.09-1.09,4.82-.47,.99,.35,2.22,.25,3.3,.1,1.1-.16,2.1-.53,3.24,0,.48,.22,1.36,.14,1.77-.18,1.51-1.18,3.31-1.03,5.01-1.36,1.87-.36,3.83-.51,5.61-1.15,3.2-1.14,6.5-1.51,9.81-1.91,2.69-.32,5.38-.72,8.08-1,1.31-.14,2.52-.38,3.4-1.46,1.21-1.48,2.94-1.86,4.68-2.13,1.26-.2,2.54-.24,3.81-.35,3.32-.27,6.06-1.45,8.25-4.18,2.27-2.82,5.42-4.93,6.7-8.54,.1-.28,.42-.47,.62-.72,3.79-4.62,6.18-10.02,8.63-15.38,.32-.71,.84-1.8,.55-2.24-1.19-1.83-.04-3.3,.66-5.05-1.49-.84-2.78-1.93-4.26-2.29-1.09-.27-2.41,.45-3.64,.67-.45,.08-.94,.01-1.38,.01Zm165.5-65.49c.54,2.2-.78,3.88-2.51,5.45-1.89,1.72-3.62,3.61-5.45,5.39-1.16,1.13-2.03,2.36-2.58,3.94-.45,1.29-1.28,2.67-2.35,3.47-4.24,3.18-6.69,7.61-9.2,12.09-1.86,3.33-1.79,6.38,.38,9.39,.92,1.28,1.99,2.49,3.12,3.59,1.37,1.34,3.06,2.37,4.29,3.82,2.48,2.94,5.55,2.98,8.65,1.79,2.33-.89,4.78-2.09,6.51-3.81,2.7-2.67,4.99-5.79,7.18-8.92,3.01-4.32,5.7-8.85,9.29-12.75,.64-.7,1.22-1.49,1.7-2.31,2.26-3.85,4.58-7.68,6.68-11.62,2.23-4.21,4.1-8.57,2.86-13.55-.04-.14,.04-.31,.08-.54,.65-.57,1.34-1.19,2.23-1.98-3-1.6-6.05-2.47-9.05-3.38-1.15-.34-2.6-.25-3.75,.13-2.54,.85-4.97,2-7.72,3.15-.24-.12-.8-.39-1.15-.56-2.91,2.28-5.74,4.49-9.19,7.19Zm-107.77,116.65c-1.68,2.58-4.17,3.56-6.8,4.39-1.5,.47-3.33,.96-4.21,2.08-2.64,3.34-6.3,5.4-9.39,8.14-2.95,2.62-5.49,5.68-9.27,7.35-3.2,1.42-4.8,5.07-8.18,6.43-.4,.16-.53,1.06-.72,1.63-.15,.44-.11,.96-.33,1.35-1.88,3.28-2.68,5.4-2.93,7.93-.16,1.59-.05,3.26-.54,4.74-.48,1.44-1.57,2.68-2.53,4.24,1.19,1.13,2.32,2.19,3.24,3.07,2-.19,3.67-.73,5.13-.39,1.61,.37,3.02,1.56,4.03,2.12,2.88-1.02,5.26-1.86,8.17-2.88,1.23-2.4,4.16-3.5,6.83-4.9,3.27-1.71,6.49-3.42,9.06-6.17,.74-.79,1.79-1.31,2.74-1.9,4.06-2.5,8.23-4.84,11.73-8.17,1.39-1.32,2.8-2.66,4.36-3.75,3.12-2.2,4.41-5.33,5.06-8.9,.39-2.15,.09-4.09-1.11-5.95-3.33-5.16-7.63-8.96-14.33-10.43ZM433.98,510.21c-.47-.34-.95-.99-1.48-1.03-2.05-.15-4.09-.08-6.06-.94-.59-.26-1.55,.16-2.27,.45-4.9,1.93-9.72,4-13.83,7.44-2.2,1.84-4.58,3.47-6.84,5.24-1.25,.98-2.63,1.9-3.6,3.13-2.86,3.61-5.97,7.14-5.68,12.26,.04,.74-.28,1.6-.7,2.24-1.19,1.82-1.34,3.9-1.67,5.94-.48,2.99-.94,5.99-1.43,8.98-.34,2.05-.94,3.98-2.08,5.79-.82,1.3-1.3,2.92-1.58,4.46-.56,3.1-.06,6.39-1.83,9.29-.37,.6-.19,1.56-.2,2.36-.02,2.87,0,5.74,0,8.29,1.81,2.72,3.91,4.23,6.92,4.39,.98-.84,1.93-1.66,2.81-2.41,1.77,.31,3.54,.62,4.7-.67,2.44-2.7,5.23-5.18,6.63-8.69,.65-1.63,1.24-3.29,2.03-4.85,1.04-2.08,1.3-4.21,1.08-6.5-.32-3.34-.5-6.68-.72-10.03-.25-3.75,.26-7.29,2.52-10.47,1.01-1.41,1.79-3.03,2.44-4.65,2.58-6.33,6.42-11.68,11.66-16.12,4.01-3.4,7.56-9.06,9.18-13.88Zm162.58-134.24c-3.91,1.87-8.19,1.58-12.48,1.41-1.93-.08-3.81,.23-5.57,1.14-1.45,.75-3,1.16-4.62,.79-1.32-.3-2.41,.08-3.65,.58-4.71,1.91-9.41,3.87-14.71,3.46-2.41-.19-4.81,.43-6.9,1.65-1.98,1.16-4.09,1.74-6.28,2.2-5.05,1.06-9.16,3.61-12.25,7.75-2.77,3.71-5.54,7.42-8.29,11.13-.28,.38-.6,.79-.7,1.24-.88,3.96-3.13,7.28-5.04,10.61,.41,1.41,.97,2.59,1.05,3.81,.08,1.16-.33,2.35-.56,3.79,4.57-.32,8.55-.85,11.57-4.27,1.58-1.79,3.53-3.26,5.05-5.09,5.32-6.44,12.23-10.71,19.58-14.27,4.22-2.05,8.77-2.65,13.53-1.68,2.78,.57,5.7,.54,8.56,.57,3.32,.03,6.65-.16,10.16-.27,3.8-3.57,6.64-8.19,9.64-12.66,2.18-3.24,2.49-7.1,2.67-10.91,.01-.23-.36-.48-.75-.98Zm-141.24-10.6c.5,1.08,1.02,2.59,1.85,3.89,.68,1.05,1.92,1.74,2.6,2.79,2.1,3.26,5.25,4.35,8.85,4.99,2.44,.44,4.39,.02,6.15-1.64,1.52-1.43,3.13-2.63,5.28-3.09,.81-.17,1.57-.99,2.16-1.68,1.04-1.21,1.88-2.58,2.88-3.81,1.11-1.37,2.32-2.54,4.17-3.03,2.23-.59,3.78-2.29,5.32-3.93,2.62-2.79,5.27-5.55,8.99-6.98,1.88-.72,2.88-2.42,3.76-4.17,.48-.97,.94-2.18,1.77-2.7,1.55-.96,2.02-2.29,2.41-3.9,.53-2.16,1.31-4.25,1.94-6.38,.22-.74,.51-1.57,.38-2.29-.38-2.03-.89-4.05-1.47-6.04-.36-1.21-1.38-1.92-2.58-1.6-1.36,.36-2.45-.04-3.68-.43-1.01-.32-2.32-.58-3.21-.21-2.47,1.04-4.88,2.28-7.16,3.7-3.64,2.29-7.03,4.99-10.75,7.15-9.45,5.51-17.53,12.75-25.71,19.88-2.73,2.38-3.43,5.64-3.94,9.49Zm-116.51,141.79c1.62-.41,3.04-.42,4.03-1.08,1.58-1.05,3.28-1.2,5-1.38,2.63-.28,4.98-.78,6.29-3.53,.43-.9,1.71-1.37,2.55-2.11,2.14-1.9,4.75-3.36,6.12-5.99,1.36-2.6,3.37-4.63,5.31-6.75,1.5-1.63,3.08-3.36,3.95-5.34,.83-1.87,2.02-3.19,3.46-4.46,3.99-3.52,7.24-7.65,10.08-12.13,1.04-1.64,1.16-3.14,.42-4.96-1.96-4.78-5.57-8.14-9.47-11.23-.79-.63-2.09-.84-3.15-.86-2.28-.03-4.42,.62-6.27,2.03-.76,.58-1.36,1.43-2.18,1.85-4.48,2.31-7.48,6.13-9.68,10.37-1.85,3.57-5.31,5.99-6.54,9.91-.12,.4-.65,.7-1.04,.97-2.05,1.45-3.05,3.62-4.12,5.78-.99,1.99-1.92,4.1-3.31,5.79-2.14,2.6-3.95,5.23-5.23,8.44-1.09,2.72-2.34,4.89,.33,7.21,.1,.08,.13,.3,.11,.44-.46,2.95,1.84,4.54,3.33,7.03Zm434,495.18c1.78-1.88,3.44-3.07,4.31-4.68,1.32-2.45,3.13-4.39,4.99-6.36,1.8-1.92,2.92-4.11,2.97-6.85,.02-1.22,.35-2.53,.91-3.61,.81-1.59,.68-3.05,.08-4.6-.63-1.63-1.65-3.24-1.78-4.91-.2-2.56-1.29-4.51-2.77-6.44-.86-1.13-1.73-2.36-2.16-3.69-.69-2.13-2.24-2.72-4.12-3.46-3.52-1.39-7.5-1.12-10.64-3.4-3.19,1.97-5.62,4.03-5.49,8.01,.03,1-.71,2.03-.92,2.58,.53,1.87,1.34,3.28,1.21,4.59-.32,3.13,.36,6.02,1.31,8.91,.56,1.72,.51,3.34-.04,5.12-.74,2.42-1.05,4.97-1.52,7.47-.48,2.59-.36,5.07,1.53,6.93-1.49,3.74-1.47,3.76-4.35,5.7-.94,.63-2.07,1.13-2.09,2.4-.02,1.51-.78,2.62-1.37,3.9-.55,1.17-1.44,2.52-.72,4,4.58,.31,4.81,.06,4.03-4.18-.04-.2,.25-.47,.53-.96,.47,.36,1.15,.6,1.32,1.05,.38,1.02,.48,2.14,.77,3.2,.06,.23,.47,.48,.74,.51,.27,.03,.73-.13,.83-.33,.64-1.43,1.21-2.9,1.71-4.1-.44-1.35-1.88-1.76-1.68-2.86,2.24-2.01,4.33-3.88,6.31-5.65,2.2,.62,4.16,1.17,6.13,1.73Zm-210.31-447.17c-1.28,2.81-1.26,5.53-1.27,8.23,0,3.54,1.3,6.55,3.91,8.93,1.3,1.19,2.59,2.31,3.28,4.03,.33,.83,1.17,1.48,1.84,2.13,1.37,1.33,2.82,2.59,4.18,3.93,1.61,1.57,3.26,3.09,5.43,3.83,1.61,.55,2.65,1.63,3.53,3.04,.66,1.05,1.43,2.23,2.46,2.84,4.12,2.42,8.57,3.44,13.32,2.22,3.04-.78,4.42-2.7,4.37-5.95-.03-1.75-.02-3.51-.25-5.23-.41-3.18-.84-6.45-3.71-8.51-2.65-1.91-4.54-4.42-6.45-7-1.22-1.64-2.59-3.42-4.32-4.39-3.27-1.83-5.94-4.23-8.54-6.85-2.74-2.75-6.18-3.99-10.07-3.26-2.64,.5-5.21,1.33-7.73,1.99Zm441.43,195.11c1.99-.15,2.95-.16,3.89-.32,.78-.14,1.55-.45,1.12-1.64-1.17-.31-2.39-.64-3.61-.97-1.86-.51-3.53,0-4.91,1.2-1.65,1.44-2.88,3.51-5.65,2.76-.37-.1-1.04,.64-1.47,1.09-1.21,1.27-2.56,1.29-3.86,.32-1.71-1.29-3.63-1.4-5.47-.85-2.78,.84-5.29,.27-7.17-.74-4.51,1.24-8.43,2.32-12.6,3.46,.36,1.13,.45,2.14,.95,2.86,1.14,1.65,1.58,3.52,1.74,5.4,.38,4.59,3.03,7.66,6.67,9.92,2.79,1.73,5.41,4.06,9.07,3.93,.42-.01,.88,.34,1.27,.61,1.46,.99,3.01,.75,4.61,.45,2.66-.5,5.34-.91,8.01-1.31,2.94-.43,5.5-1.58,7.58-3.72,2.57-2.65,5.4-4.95,8.56-6.87,.38-.23,.62-.71,1.07-1.26-.62-.96-1.26-1.95-1.88-2.91,1.17-1.02,2.19-1.92,3.19-2.79-.79-1.07-2.16-1.43-1.7-2.92,.49-1.58-.85-2.47-1.23-3.81-.64,.45-1.03,.97-1.37,.94-2.19-.22-4.23-.9-6.81-2.85ZM427.43,160.06c-2.8-.17-3.01-.13-2.85,2.03,.11,1.49-.5,2.19-1.45,3.19-1.5,1.56-3.08,2.09-5.11,1.88-1.08-.11-2.18-.02-2.85-.02-3.32,3.64-5.34,7.89-8.94,10.87-1.3,1.08-2.05,2.34-2.3,4.03-.38,2.52-.86,5.05-2.38,7.21-.84,1.19-.65,2.39-.2,3.64,.59,1.64,1.26,3.27,1.68,4.95,1.3,5.24,4.49,9.1,8.78,12.1,1.13,.79,2.61,1.18,3.98,1.53,1.38,.35,2.84,.37,4.25,.64,1.07,.21,1.91-.15,2.58-.88,.96-1.06,2.06-2.09,2.7-3.34,1.15-2.25,2.46-4.69,1.42-7.27-.85-2.11-.77-3.98,.04-6,.88-2.19,.64-4.26-.48-6.43-1.55-3.01-1.08-4.59,1.46-6.64,.61-.5,1.41-.78,1.97-1.32,.71-.68,1.12-1.58,.75-2.6-.25-.69-.59-1.35-.97-2.18,2.1-.66,3.93-1.2,5.73-1.82,1.34-.46,2.66-1.01,3.96-1.58,.16-.07,.15-.54,.28-1.1-1-.52-2.06-1.08-3.08-1.61-.87,.84-1.54,1.5-2.33,2.26-.84-.25-1.73-.64-2.65-.76-1.06-.14-2.15-.03-3.05-.03-2.3-2.07-.04-3.55,.34-4.88-.47-2.17-.86-4.01-1.26-5.86Zm-205.94,255.89c.57-5.38-1.14-10.16-3.05-15.21-2.35-1.48-4.88-3.15-7.5-4.65-.92-.53-2.07-.73-3.14-.92-2.03-.36-4.1-.51-6.12-.92-1.31-.26-2.44-.1-3.71,.35-2.83,1-5.75,1.76-9.39,2.84-2.68,4.09-8.47,5.89-11.86,10.14,.21,2.37,2.05,3.96,1.75,6.28-3.06,2.27-5.8,4.81-6.86,8.8,1.76,.81,3.14,.36,4.17-1.13,1.69-2.45,3.76-2.48,6.28-1.38,4.08,1.78,8.1,1.27,11.99-.74,1.1-.57,2.22-1.12,3.42-1.74,2.29,2.29,4.93,2.35,7.66,1.55,1.28-.37,2.53-.55,3.71,.14,2.44,1.43,4.61,.64,6.56-.89,1.19-.93,2.43-1.42,3.89-1.65,.75-.12,1.45-.56,2.2-.86Zm703,179.44c-.55-.5-1.01-.93-1.49-1.34-.58-.5-1.19-.98-1.63-1.34-5.12,.66-9.92,1.86-14.97,1.21-.88,.76-1.82,1.58-2.53,2.2-1.02-.01-1.6-1.12-2.4-.17-.26,.97,.93,1.86-.21,2.97-1.62,1.59-1.6,3.61-.64,5.64,3.37-1.12,3.35-.98,7.43-.41,3.71,.51,7.45,.36,11.19-.96,1.47,.98,2.17,2.6,3.03,4.11,.88,1.56,2,2.85,3.75,3.52,2.96,1.14,5.9,2.32,9.11,3.58,1.52-1.78,2.99-3.42,4.35-5.16,.46-.59,.97-1.51,.83-2.15-.59-2.73-.14-5.73-2.03-8.16-.67-.86-1.07-1.93-1.65-2.88-.14-.23-.47-.34-.84-.59-.7,.53-1.43,1.08-2.22,1.68-1.45-.58-2.86-1.39-4.37-1.67-1.53-.29-3.16-.06-4.72-.06Zm-648.7-31.46c.27-1.93,.58-3.79,.76-5.66,.06-.58-.06-1.53-.4-1.71-.61-.32-1.77-.52-2.17-.17-1.67,1.48-3.3,1.69-5.25,.64-.49-.27-1.25-.09-1.88-.07-3.17,.12-6.34,.26-9.48,.39-.98-1.21-1.74-2.49-2.81-3.4-1.44-1.22-2.99-2.46-4.71-3.16-3.01-1.24-5.89-.92-8.29,1.68-.91,.98-1.64,1.89-1.67,3.28-.03,1.44-.11,2.88-.28,4.3-.31,2.63,.55,4.69,2.79,6.14,.38,.25,.81,.42,1.22,.62,.85-.58,1.62-1.1,2.46-1.68,1.93,.58,3.57,2.25,5.84,1.54,1.98-.62,3.78-.12,5.35,1.22,.95,.8,2.09,.84,3.18,.52,1.37-.4,2.78-.79,3.99-1.51,1.43-.85,2.86-1.33,4.52-1.25,2.44,.11,4.7-.56,6.83-1.73ZM565.87,247.52c.12,1.37,.33,2.32,.27,3.24-.2,3.35-.07,6.59,1.13,9.84,.55,1.49-.04,3.39-.13,5.11,0,.13-.19,.25-.28,.38q-1.88,.53-1.21,2.25,3.29-2.09,7.1-1.82v-3.08c1.08-.17,1.93-.31,2.77-.44-.07-.56-.05-.89-.15-1.19-.82-2.35-1.07-4.6,.54-6.8,.8-1.1,.59-2.42,.23-3.69-.56-1.99-1.69-4.05-1.49-5.97,.41-3.99-1.48-7.47-1.79-11.26-.07-.81-.8-1.82-1.52-2.27-2.61-1.6-5.62-1.66-8.25-.55-1.76,.75-3.35,2.52-4.38,4.22-1,1.65-.39,3.73,.36,5.54,.61,1.47,1.27,2.92,1.96,4.35,.52,1.08,1.38,1.69,2.64,1.74,.62,.02,1.23,.22,2.22,.4ZM166.12,609.68c-.13,.86-.48,1.76-.25,1.95,2.04,1.66,1.45,3.68,.95,5.71-.19,.77-.49,1.53-.59,2.32-.16,1.22,.97,2.52,2.21,2.67,.32,.04,.64,.04,.96,.04,2.75,.06,4.86-2.19,7.66-2.11,.41,.01,1.09-.8,1.23-1.34,.57-2.21,2.2-3.4,3.94-4.58,1.05-.71,2.15-1.49,1.78-3.27-1.28-.29-2.74-.39-3.97-.98-1.2-.57-2.15-1.64-3.34-2.59-1.69,1.5-2.24,3.89-4.79,4.37-1.68-.64-3.58-1.37-5.78-2.21ZM622.86,159.88c-1.03,1.05-1.87,1.95-2.77,2.79-.31,.29-1.08,.45-1.09,.67-.06,3.02-2.4,4.29-4.36,5.87-.22,.18-.34,.51-.45,.79-.06,.13-.06,.38,.02,.46,.19,.19,.45,.46,.66,.44,.28-.02,.54-.28,.8-.45,1.71-1.17,2.08-1.05,2.33,.8,.04,.31-.03,.64-.04,.96-.05,1.94,2.26,2.5,3.5,1.47,1.56-1.29,3.05-2.67,4.84-4.24-1.13-.09-2.06-.03-2.9-.27-.63-.18-1.15-.75-1.73-1.16,2.22-2.73,4.5-1.12,6.73-.54,2.53-2.71,2.53-5.75,1.8-9.05-2.54-1.72-5.24-2.38-8.2-1.86-.36,.06-.67,.49-1.02,.77,.55,.75,1.02,1.38,1.89,2.55Zm-63.46,826.69c-1.43,1.1-2.33,2.14-3.47,2.6-3.81,1.56-5.79,4.8-7.98,7.95,.88,2.49,1.4,5.06,3.74,6.57,.45,.29,1.32,.44,1.72,.2,.67-.4,.98-1.16,.56-2.07-.35-.78-1.67-1.14-1.05-2.35,1.59-.73,2.64,.84,4.01,.94,.74,.05,1.85,.03,2.19-.42,1.69-2.25,4.06-4.07,4.93-7.04-1.33-.31-2.51-.58-4.12-.94,.74-1.2,1.26-2.06,1.92-3.13-.7-.66-1.47-1.39-2.44-2.32Zm457.54-235.1c1.87,1.56,.35,4.42,2.94,5.66,.2-1.71,.39-3.23,.57-4.73,.84-.09,1.54-.17,3.24-.36-1.7-.71-2.48-1.03-3.5-1.46-.08-.9-.18-1.91-.27-2.9q2.12-.35,1.04-2.2c-2.72,.93-6.06,.47-7.87,3.46q1.31,1.64,3.86,2.52Zm-302.03,222.13c2.57-2.55,3.03-5.44,3.84-8.16,.2-.67-.82-1.58-1.51-1.47-2.47,.4-4.92,2.64-5.18,4.98-.1,.9,0,1.99,.44,2.75,.42,.73,1.39,1.14,2.4,1.9ZM449.76,142.72c-1.54,2.18-2.88,4.07-4.36,6.16,.77,.54,1.45,1.01,2.22,1.54,.7-1.05,1.17-1.87,1.76-2.59,.49-.6,1.06-1.2,1.73-1.56,.81-.43,1.75-.61,2.65-.87,.8-.23,1.84,.4,2.49-.73-1.67-2.35-4.31-1.32-6.49-1.95Zm585.45,587.74c-.76-.03-1.38-.23-1.83-.03-2.93,1.28-6.06,2.26-8.65,4.79,4.93,.39,7.36-.72,10.48-4.75Zm-299.96,291.52c1.72,1.53,3.41,1.72,5.06,1.6,.5-.04,1.01-1.03,1.31-1.68,.06-.14-.8-1.01-1.23-1-1.62,.01-3.21,.39-5.13,1.09Zm305.68-297.27c.49-3.36,.14-4.18-1.68-4.58-.42-.09-1.1-.08-1.33,.18-.47,.54-.71,1.27-1.18,2.18,1.38,.73,2.57,1.36,4.19,2.22ZM436.37,157.27c-1.57-.45-2.85-.77-3.37,.46-.38,.91-.16,2.11-.07,3.18,.02,.28,.56,.52,1.13,1.01,.79-1.59,1.47-2.95,2.31-4.65ZM1011.66,740.79c.38,1.85,1.48,2.44,2.75,2.64,.51,.08,1.22-.24,1.65-.6,.5-.42,.07-1.64-.57-2.04-1.19-.75-2.39-.62-3.83,0ZM437.76,166.05c.48-.15,1.07-.3,1.62-.53,1.26-.53,1.8-1.4,1.25-1.97-.77-.8-1.67-.75-2.52-.22-.5,.31-.91,.79-1.26,1.26-.14,.19-.08,.63,.05,.86,.13,.23,.47,.34,.86,.6ZM165.46,430.27c-.47,.66-.79,1-.99,1.4-.46,.94-.47,1.92,.67,2.25,.63,.18,1.6,.04,2.09-.36,.98-.79,.33-1.65-.35-2.33-.31-.31-.75-.51-1.43-.96ZM443.39,152.81c-.62-.38-.97-.66-1.36-.8-.26-.09-.69-.08-.88,.08-.33,.27-.69,.66-.78,1.05-.36,1.49-.73,3,.48,4.74,.45-1.06,.74-1.88,1.13-2.65,.4-.79,.9-1.54,1.42-2.43ZM176.39,430.87c-.06-1.65-.71-2.34-1.99-2.46-1.06,.6-1.93,1.32-2.23,2.99,1.63-.21,2.93-.37,4.22-.53Zm142.11,224.18c-.79-.28-1.6-.64-2.44-.81-.16-.03-.75,.85-.67,.94,.36,.46,.82,.95,1.35,1.15,.84,.31,1.49-.06,1.76-1.28Zm-164.38-208.59c.29-1.11,.5-1.69,.57-2.29,.08-.74,.14-1.54-.74-1.92-.13-.05-.34-.05-.45,.02-.74,.48-.98,1.2-.68,1.98,.25,.64,.7,1.21,1.3,2.2ZM741.73,1006.92c-.41-.39-.77-.87-1.25-1.11-.14-.07-.74,.45-.9,.8-.17,.37-.14,.89-.05,1.31,.05,.25,.34,.54,.59,.62,.22,.07,.61-.06,.76-.24,.29-.33,.48-.76,.84-1.38Zm-14,25.26c-.54-.49-.95-.87-1.36-1.25-.25,.35-.63,.67-.73,1.06-.22,.86,.25,1.43,.89,1.17,.38-.15,.66-.53,1.2-.98Zm316.28-304.92c.1,.28,.14,.73,.31,.79,.5,.17,1.05,.22,1.58,.21,.11,0,.37-.55,.29-.73-.38-.82-1.08-.86-1.83-.57-.13,.05-.23,.19-.34,.29Zm-256.53-168.72c-.15,.03-.35,.01-.45,.1-.5,.43-.79,.94-.32,1.57,.08,.1,.25,.13,.38,.19,.2-.49,.42-.97,.59-1.46,.03-.1-.13-.27-.21-.41ZM428.5,158.54c.19-.32,.32-.45,.34-.59,.08-.8,.1-1.62-.94-1.81-.22-.04-.72,.32-.7,.38,.16,.58,.4,1.13,.65,1.68,.05,.11,.26,.14,.65,.34Zm618.73,561.33c-.53-.31-.9-.69-1.2-.64-.28,.04-.75,.65-.68,.82,.14,.34,.57,.72,.92,.77,.23,.03,.53-.5,.95-.95Zm-482.44,272.14c.46-.46,.82-.7,.98-1.04,.07-.16-.26-.73-.38-.72-.38,.02-.97,.16-1.05,.39-.1,.3,.22,.74,.45,1.36Zm184.76,5.16c-.25-.52-.37-.98-.49-.98-.41,0-.83,.13-1.22,.29-.07,.03,0,.65,.04,.66,.51,.05,1.02,.03,1.67,.03Zm14.32,11.36c-.32,.24-.54,.41-.77,.58,.33,.23,.64,.61,.98,.64,.27,.03,.59-.37,.88-.58-.38-.22-.76-.44-1.1-.64ZM148.44,452.18c.34-.4,.62-.72,.91-1.05-.33-.24-.65-.64-1-.68-.81-.09-1.49,.57-1.14,.98,.27,.32,.74,.47,1.23,.75Zm592.96,577.57c.26-.08,.52-.16,.78-.24-.16-.22-.35-.64-.47-.62-.33,.05-.63,.29-.95,.45,.21,.13,.43,.27,.64,.4ZM452.86,135c-.07-.29-.15-.59-.22-.88-.27,.07-.54,.14-.81,.21,.13,.38,.26,.75,.39,1.13,.21-.15,.43-.3,.64-.46ZM166.5,420.72c-.17-.24-.29-.6-.52-.69-.22-.09-.55,.09-.83,.15,.18,.24,.3,.59,.54,.69,.21,.09,.53-.09,.81-.15Zm-.3,5.92c.37,.45,.58,.83,.68,.81,.47-.13,.92-.37,1.37-.57-.09-.12-.18-.33-.28-.33-.52,0-1.05,.05-1.77,.09ZM430.51,162.38c.14-.05,.26-.1,.39-.15-.09-.09-.18-.22-.28-.24-.1-.02-.23,.08-.35,.13,.08,.09,.17,.18,.24,.26Zm16.44-2.04c-.2-.12-.38-.27-.59-.35-.06-.02-.27,.14-.28,.24-.01,.1,.15,.32,.21,.31,.22-.03,.44-.13,.66-.2ZM1018.22,733.64c.23-.14,.47-.29,.7-.43-.22-.15-.44-.43-.66-.43-.24,0-.49,.25-.73,.4,.23,.16,.46,.31,.69,.47ZM432.93,164.07c-.09-.11-.2-.32-.26-.31-.23,.06-.44,.19-.66,.29,.21,.11,.42,.25,.64,.31,.06,.02,.18-.19,.28-.29Zm621.52,559.84c-.06-.13-.13-.26-.19-.39-.09,.12-.24,.23-.25,.35-.01,.13,.11,.27,.17,.4,.09-.12,.18-.24,.26-.36ZM179.77,423c.15,.18,.28,.47,.45,.49,.23,.03,.48-.15,.73-.24-.14-.17-.27-.47-.43-.49-.22-.03-.48,.14-.74,.23Zm-36.22,22.23c.25,.11,.49,.25,.74,.32,.07,.02,.27-.18,.28-.29,0-.1-.19-.32-.26-.3-.26,.05-.51,.18-.76,.28ZM754.99,1018.46c.03-.13,.11-.28,.06-.38-.04-.08-.22-.1-.34-.15-.01,.21-.03,.42-.04,.62,.1-.03,.21-.06,.31-.09Zm-21.25,5.05c-.12,.09-.36,.19-.35,.26,.05,.28,.17,.54,.27,.81,.12-.1,.34-.21,.33-.29-.03-.27-.15-.52-.24-.78Zm1.66,10.75c-.3-.12-.56-.25-.84-.31-.06-.01-.18,.22-.27,.34,.2,.15,.38,.41,.59,.42,.16,.01,.34-.28,.52-.44Z"/></g></svg>