<?xml version="1.0" encoding="UTF-8"?><svg id="Layer_2" xmlns="http://www.w3.org/2000/svg" viewBox="0 0 1181.97 1253.79"><g id="Layer_1-2"><path d="M1180.07,862.52c-.1-.45-.29-.9-.54-1.28-.99-1.5-1.71-3.1-2.01-4.88-.07-.43-.36-.86-.64-1.21-.41-.52-.71-1.08-.96-1.69-1.03-2.51-2.66-4.69-3.95-7.06-1.26-2.31-3.18-4.12-4.92-6.04-1.31-1.43-2.96-2.55-4.14-4.13-.11-.14-.28-.26-.44-.35-2.19-1.23-4.31-2.67-6.61-3.64-3.7-1.56-7.57-2.67-11.51-3.53-3.9-.86-7.71-2.06-11.74-2.42-3.07-.27-6.11-.9-9.2-.65-4.28,.34-8.59,.46-12.81,1.32-3.01,.61-6.02,1.38-8.92,2.4-4.05,1.43-8.04,3.05-11.67,5.43-.93,.61-1.95,1.1-2.94,1.63-2.73,1.46-5.48,1.26-8.01-.34-4.07-2.57-6.87-6.27-8.67-10.7-.67-1.64-1.18-3.36-1.57-5.09-.78-3.48-2.23-6.73-3.3-10.12-.19-.62-.46-1.25-.85-1.76-2.33-3.13-4.16-6.62-7.13-9.31-3.11-2.83-6.13-5.76-9.7-8.01-2.13-1.34-4.33-2.58-6.56-3.76-3.82-2.02-7.9-3.37-12.09-4.38-3.75-.9-6.33-3.06-7.65-6.7-.63-1.76-1.12-3.55-1.37-5.42-.32-2.46,.75-4.17,2.64-5.46,1.23-.84,2.59-1.48,3.87-2.24,2.5-1.47,5.03-2.98,6.97-5.13,2.19-2.43,4.01-5.17,5.14-8.29,.29-.79,.61-1.57,1.03-2.3,1.35-2.35,3.25-3.79,6.12-3.68,3.82,.14,7.66-.29,11.47,.47,.72,.14,1.49,.09,2.24,.09,2.06,.01,4.11,0,6.17,0h0c1.12,0,2.24,.01,3.37,0,1.68-.02,3.39,.11,5.04-.14,2.05-.3,4.08-.42,6.14-.43,.74,0,1.51,0,2.23-.18,4.07-1.02,8.23-1.64,12.02-3.66,3.51-1.87,6.66-4.06,9.02-7.35,3.02-4.22,3.33-8.7,1.24-13.26-1.1-2.39-3.02-4.34-5.67-5.12-2.94-.86-5.85-1.74-9.05-1.31-3.98,.54-7.98,.85-11.91,1.7-3.93,.85-7.85,1.69-11.78,2.52-.64,.13-1.29,.27-1.94,.28-1.8,.05-3.51,.5-5.22,.99-.72,.2-1.43,.44-2.16,.6-4.29,.92-8.6,1.75-12.88,2.74-3.94,.9-7.89,1.42-11.94,1.34-2.71-.06-5.43,.08-8.13-.04-6.29-.26-12.51,.53-18.71,1.32-4.72,.61-9.39,1.58-14.04,2.61-2.7,.6-5.37,.6-8.08,.55-1.37-.02-2.52-.58-3.53-1.5-1.12-1.01-2.02-2.19-2.84-3.45-1.22-1.88-2.46-3.75-3.74-5.58-.48-.68-1-1.41-1.68-1.85-1.54-1.01-2.49-2.51-3.63-3.86-1.14-1.35-1.61-2.96-1.24-4.71,.47-2.22,.45-4.48,.28-6.7-.33-4.48-2.33-8.01-6.41-10.19-2.47-1.33-4.89-2.71-7.84-2.75-1.01-.01-2.01-.39-3.03-.56-.73-.13-1.48-.27-2.22-.27-4.11,0-8.23-.08-12.33,.1-3.44,.16-6.88,.61-10.32,.83-4.64,.3-9.34,.66-13.93-.68-.62-.18-1.29-.23-1.93-.33-4.34-.67-8.69-1.23-12.9-2.56-3.72-1.17-6.63-3.24-8.51-6.78-.7-1.3-.7-2.68-1.14-3.98-.89-2.65-.94-5.47-1.78-8.14-.36-1.14-.5-2.35-1.1-3.43-.31-.56-.5-1.21-.64-1.84-.36-1.65-.77-3.27-1.4-4.84-1.05-2.6-1.1-5.16-.68-7.69,.42-1.78,.89-3.55,1.42-5.3,.1-.2,.23-.38,.36-.56,1.67-2.36,2.53-4.94,2.16-7.88,0,0,0,0,0-.01,.02-.06,.03-.11,.05-.17,.15-.53,.15-1.1,.2-1.66,0,0,0-.01,0-.02,0-.02,.01-.04,.02-.07,.36-1.33,.53-2.64,.39-4,.2-1.44,.03-2.83-.35-4.23-.04-.15-.08-.3-.12-.45-.03-.41-.06-.82-.16-1.21,0-.09,0-.18,0-.27,.37-2.94-.49-5.51-2.16-7.88-.16-.23-.35-.46-.44-.71-.22-.67-.43-1.35-.62-2.02-.14-.52-.28-1.05-.41-1.58-.71-3.04-.9-6.1,.36-9.24,.63-1.57,1.04-3.19,1.4-4.84,.14-.63,.33-1.28,.64-1.84,.6-1.08,.74-2.29,1.1-3.43,.84-2.67,.89-5.49,1.78-8.14,.44-1.3,.44-2.68,1.14-3.98,1.89-3.53,4.8-5.6,8.51-6.78,4.21-1.33,8.57-1.89,12.9-2.56,.65-.1,1.31-.15,1.93-.33,4.59-1.34,9.29-.98,13.93-.68,3.43,.22,6.87,.67,10.32,.83,4.1,.19,8.22,.11,12.33,.1,.74,0,1.49-.15,2.22-.27,1.01-.17,2.02-.55,3.03-.56,2.94-.04,5.37-1.42,7.84-2.75,4.08-2.19,6.07-5.71,6.41-10.19,.17-2.23,.19-4.48-.28-6.7-.37-1.75,.09-3.36,1.24-4.71,1.14-1.35,2.09-2.86,3.63-3.86,.68-.44,1.2-1.17,1.68-1.85,1.28-1.84,2.52-3.7,3.74-5.58,.82-1.26,1.72-2.44,2.84-3.45,1.01-.92,2.16-1.47,3.53-1.5,2.71-.04,5.38-.04,8.08,.55,4.65,1.03,9.33,2,14.04,2.61,6.2,.8,12.42,1.58,18.71,1.32,2.71-.11,5.42,.02,8.13-.04,4.04-.08,8,.44,11.94,1.34,4.28,.98,8.59,1.82,12.88,2.74,.73,.16,1.44,.39,2.16,.6,1.71,.48,3.42,.94,5.22,.99,.65,.02,1.3,.15,1.94,.28,3.93,.83,7.86,1.67,11.78,2.52,3.93,.85,7.94,1.16,11.91,1.7,3.2,.43,6.12-.45,9.05-1.31,2.65-.78,4.57-2.73,5.67-5.12,2.09-4.56,1.78-9.04-1.24-13.26-2.36-3.29-5.5-5.48-9.02-7.35-3.79-2.02-7.96-2.64-12.02-3.66-.71-.18-1.48-.18-2.23-.18-2.06-.02-4.09-.13-6.14-.43-1.65-.25-3.36-.11-5.04-.14-1.12-.01-2.24,0-3.37,0h0c-2.06,0-4.11,0-6.17,0-.75,0-1.51-.05-2.24,.09-3.8,.76-7.64,.32-11.47,.47-2.88,.11-4.77-1.34-6.12-3.68-.42-.72-.74-1.51-1.03-2.3-1.14-3.13-2.95-5.87-5.14-8.29-1.94-2.15-4.47-3.66-6.97-5.13-1.29-.76-2.64-1.4-3.87-2.24-1.9-1.29-2.97-3-2.64-5.46,.25-1.87,.73-3.66,1.37-5.42,1.31-3.64,3.9-5.8,7.65-6.7,4.19-1.01,8.27-2.35,12.09-4.38,2.23-1.18,4.43-2.42,6.56-3.76,3.57-2.25,6.59-5.18,9.7-8.01,2.96-2.7,4.8-6.18,7.13-9.31,.38-.51,.65-1.15,.85-1.76,1.07-3.38,2.52-6.63,3.3-10.12,.39-1.73,.9-3.45,1.57-5.09,1.8-4.43,4.59-8.13,8.67-10.7,2.53-1.6,5.27-1.8,8.01-.34,.99,.53,2.01,1.02,2.94,1.63,3.62,2.38,7.62,4,11.67,5.43,2.9,1.02,5.91,1.79,8.92,2.4,4.21,.86,8.53,.97,12.81,1.32,3.09,.25,6.14-.38,9.2-.65,4.03-.36,7.84-1.56,11.74-2.42,3.94-.86,7.81-1.97,11.51-3.53,2.31-.97,4.42-2.41,6.61-3.64,.16-.09,.33-.2,.44-.35,1.18-1.58,2.84-2.7,4.14-4.13,1.74-1.91,3.66-3.72,4.92-6.04,1.29-2.37,2.91-4.55,3.95-7.06,.25-.61,.55-1.17,.96-1.69,.28-.36,.57-.78,.64-1.21,.3-1.79,1.02-3.38,2.01-4.88,.25-.38,.44-.83,.54-1.28,.49-2.19,1.07-4.37,1.37-6.58,.54-4.07,.64-8.17,.28-12.27-.06-.63-.34-1.26-.63-1.84-1.03-2.09-2.12-4.15-3.17-6.23-.33-.67-.58-1.37-.91-2.04-.69-1.43-1.19-3.01-2.15-4.23-2.24-2.89-3.85-6.19-6.06-9.05-1.53-1.98-3.28-4.11-6.18-4.43-.62-.07-1.25-.41-1.79-.75-2.13-1.36-4.48-2.31-6.66-3.56-2.07-1.19-4.25-1.26-6.47-1.14-.87,.05-1.65,.12-2.41-.38-.73-.48-1.58-.75-2.4-.56-1.04,.24-2,.37-2.95-.25-.21-.14-.56-.19-.81-.14-2.29,.48-4.67,.14-6.94,.78-.54,.15-1.11,.29-1.57,.58-2.83,1.79-5.86,3.23-8.68,5.05-4.5,2.9-8.41,6.51-12.55,9.85-2.05,1.66-4.26,3.02-6.56,4.26-.33,.18-.68,.32-1.04,.42-.8,.24-1.47-.19-1.66-1.04-.19-.83-.26-1.7,.02-2.5,1.11-3.18,1.35-6.55,2.18-9.79,.32-1.27,.62-2.54,.93-3.81,.04-.18,.16-.36,.15-.54-.26-3.49,.98-6.81,1.14-10.27,.13-2.77,.27-5.59,.97-8.31,.07-.27,.21-.57,.15-.82-.52-2.49,.68-4.76,.93-7.15,.08-.83,.39-1.64,.08-2.48-.35-.93-.15-1.84,0-2.77,.32-1.92,.66-3.85,.95-5.78,.08-.55,.1-1.13,.03-1.68-.38-2.77-.12-5.52,0-8.29,.15-3.34,.02-6.72-1.36-9.89-.25-.58-.29-1.27-.39-1.91-.24-1.62-.9-3.19-1.94-4.29-1.43-1.51-3.25-2.72-5.06-3.79-.91-.54-2.16-.53-3.03-1.32-.13-.11-.38-.21-.52-.16-1.46,.58-3.21,.04-4.53,1.19-.42,.36-.89,.74-1.41,.9-3.14,.94-4.87,3.26-6.08,6.11-.15,.34-.26,.76-.53,.98-1.61,1.29-2.1,3.28-3.13,4.92-.59,.95-1.12,1.94-1.74,2.86-1.05,1.58-1.8,3.32-2.25,5.11-1.43,5.6-2.77,11.24-2.61,17.09,.06,2.15,.01,4.3,0,6.45,0,2.15-.14,4.28-.38,6.42-.31,2.68-.38,5.39-.71,8.08-.3,2.41-.4,4.84-.69,7.24-.34,2.78-1.65,5.12-3.48,7.2-.8,.91-1.88,1.12-2.98,1.38-1.61,.38-3.13,.56-4.48-.68-1.42-1.3-2.6-2.72-2.4-4.81,.27-2.77-.12-5.6,.72-8.33,.11-.35,.19-.74,.16-1.1-.24-2.51,.18-5.02,.07-7.52-.1-2.23-.41-4.46-.66-6.68-.4-3.71-.64-7.45-1.31-11.11-.45-2.45-.47-5.03-1.59-7.34-.08-.17-.17-.36-.16-.53,.19-3.28-2.24-5.66-2.97-8.63-.21-.85-.88-1.37-1.6-1.86-1.46-.98-2.9-1.97-4.2-3.22-1.09-1.06-2.58-1.75-4.28-1.83-1.48-.08-2.98-.32-4.4-.75-.98-.3-1.74-.26-2.65,.19-2.41,1.18-4.73,.2-7.02-.53-.3-.1-.57-.49-.73-.81-.68-1.33-1.44-2.63-1.58-4.16-.15-1.6-.69-3.07-1.32-4.54-.65-1.52-1.52-3.02-1.43-4.79,.02-.34-.14-.78-.38-1.02-1.4-1.4-1.46-3.42-2.38-5.03-.09-.16-.16-.35-.16-.53,0-3.19-1.01-6.27-1.1-9.45-.02-.65,.02-1.31,.1-1.95,.24-1.97,.12-3.88-.29-5.84-.35-1.72-.43-3.52-.38-5.28,.04-1.19-.12-2.22-.78-3.18-.54-.79-.86-1.64-.75-2.63,.2-1.85-.56-3.47-1.32-5.07-.24-.5-.68-.95-.59-1.53,.27-1.8-.68-3.04-1.84-4.17-.65-.63-1.06-1.27-.94-2.21,.11-.82-.37-1.41-.88-1.98-1.25-1.38-2.33-2.87-3.35-4.44-.95-1.46-2.25-2.72-3.37-4.1-1.27-1.57-2.66-3.05-4.65-3.91-1.7-.74-3.24-1.8-5.09-2.24-.82-.19-1.59-.53-2.46-.41-.57,.08-1.11-.07-1.63-.32-.52-.26-1.07-.33-1.64-.26-1.57,.18-3.12,.53-4.69-.18-.42-.19-1.08,.12-1.62,.23-1.64,.33-3.24,.93-4.95,.91-.57,0-1.15,.12-1.56,.53-1.23,1.2-2.94,1.62-4.23,2.72-.14,.12-.3,.25-.48,.29-2.16,.53-3.74,1.98-5.44,3.29-.82,.63-1.53,1.31-2.22,2.08-1.04,1.17-2.22,2.27-3.48,3.2-1.92,1.42-4.11,.65-4.87-1.65-.38-1.15-.64-2.35-1.38-3.35-.26-2.8-1.34-5.4-1.91-8.11-.25-1.18-.44-2.39-.85-3.51-.52-1.41-.92-2.84-1.19-4.31-.23-1.3-.65-2.51-1.41-3.62-.42-.6-.64-1.34-.95-2.01-1.3-2.85-4.56-4.39-7.64-3.59-.18,.05-.35,.19-.52,.18-2.69-.14-4.2,1.49-5.46,3.55-.19,.31-.42,.66-.72,.82-1.28,.71-2.06,1.85-2.83,3.04-.55,.86-1.31,1.58-1.92,2.41-1.16,1.56-2.9,1.95-4.62,2.42-.18,.05-.4,.1-.55,.03-2.35-.92-5.03-.56-7.29-1.86-2.55-1.47-5.38-1.4-8.16-1.23-1.92,.12-3.73,.02-5.37-1.07-1.44-.96-2.04-3.23-1.14-4.69,1.47-2.38,2.58-4.97,4.28-7.22,.44-.59,.71-1.31,1.03-1.98,.2-.42,.29-.9,.53-1.3,2-3.37,3.25-7.11,5.1-10.56,.22-.41,.44-.85,.5-1.3,.19-1.34,.76-2.48,1.52-3.57,.31-.45,.52-1.01,.62-1.55,.28-1.56,.34-3.16,1.53-4.41,.21-.23,.17-.71,.23-1.07,.42-2.66,.69-5.34,1.74-7.87,.66-1.6,.18-3.37,.54-4.98,.35-1.54,.94-3.02,.95-4.63,0-1.02,.06-2.05,.1-3.07,.02-.75,.15-1.51-.16-2.22-.47-1.07-.71-2.11-.02-3.2,.26-.41-.01-.9-.13-1.35-.61-2.25-1.17-4.5-1.1-6.87,.03-1.12-.23-2.22-.82-3.22-.19-.32-.38-.69-.39-1.04-.06-1.65-.9-2.98-1.62-4.38-.63-1.23-1.42-2.41-1.62-3.86-.07-.52-.42-1.03-.73-1.49-.94-1.38-2.11-2.59-2.68-4.22-.19-.56-.82-1-1.32-1.41-1.23-1-2.52-1.93-3.76-2.92-.81-.65-1.66-1.19-2.72-1.35-.55-.08-1.12-.22-1.6-.49-2.01-1.1-4.15-1.53-6.41-1.83-1.41-.19-2.83-.91-4.04-1.71-1.36-.9-1.75-2.47-1.34-4.01,.37-1.42,.85-2.81,1.47-4.18,1.26-2.79,2.93-5.37,3.8-8.38,.64-2.19,1.64-4.33,2.5-6.49,1.14-2.84,2.28-5.68,2.78-8.73,.12-.73,.28-1.48,.56-2.16,.81-1.94,1.09-3.95,1.05-6.03-.03-1.41,.06-2.79,.74-4.09,.45-.85,.39-1.82,.3-2.75-.33-3.35-.55-6.69-.4-10.06,.09-2.03-.24-4.1-.49-6.13-.25-2.02,.1-4.13-.87-6.06-.15-.3-.02-.73,0-1.11,.09-2.83-.42-5.55-1.49-8.17-.21-.52-.43-1.04-.54-1.59-.53-2.61-1.64-4.91-3.33-6.96-.65-.79-1.12-1.72-1.69-2.57-1.24-1.82-2.71-3.3-4.98-3.81-.81-.18-1.59-.56-2.34-.93-2.43-1.18-4.7-.8-6.88,.63-.55,.36-1.05,.84-1.65,1.05-1.74,.6-2.62,1.98-3.55,3.41-1.09,1.67-1.47,3.65-2.46,5.32-.7,1.17-1.14,2.4-1.28,3.64-.17,1.51-.65,2.91-1,4.35-.09,.36-.17,.74-.35,1.06-.84,1.54-.97,3.21-.95,4.9,.02,1.05-.14,2.04-.44,3.03-.91,2.95-1.65,6.01-1.67,9.05-.03,4.31-.83,8.55-.78,12.85,0,.09,.03,.2,0,.28-1.01,3.18-.4,6.49-.79,9.72-.11,.92-.17,1.87-.12,2.8,.17,3.01-.22,5.98-.7,8.92-.54,3.34-1.77,6.42-3.69,9.26-.6,.89-1.35,1.8-1.38,3-.01,.58-.31,1.07-.67,1.51-.61,.74-1.06,1.53-1.1,2.52-.04,.81-.55,1.37-1.05,1.93-.74,.82-1.04,1.78-.82,2.85,.21,1.06,0,2.04-.45,2.98-.96,1.97-1.21,4.11-1.33,6.25-.13,2.3-.79,4.4-2.11,6.27-.45,.64-.68,1.33-.7,2.09-.05,1.55-.65,2.9-1.44,4.19-1.18,1.92-2.19,3.91-2.66,6.14-.08,.36-.21,.73-.42,1.03-1.27,1.82-1.71,3.92-2.07,6.04-.74,4.41-1.49,8.83-2.23,13.24-.03,.18-.08,.37-.08,.55,.03,2.14,.03,4.27,.13,6.41,.23,5.33,1.14,10.58,2.16,15.8,.43,2.2-.34,4.26-.45,6.39,0,.09-.03,.22-.09,.26-1.64,1.02-2.24,3.32-4.37,3.67-1.56,.26-3.01,1-4.65,.9-.45-.03-.99,.06-1.34,.31-1.28,.91-2.82,.93-4.24,1.32-.71,.19-1.49,.12-2.02,.77-.06,.07-.15,.15-.23,.15-2.36,.13-4.44,1.43-6.79,1.61-1.02,.08-2.05,.08-3.03,.47-.25,.1-.6,.21-.81,.11-1.92-.86-3.64,.5-5.48,.44-.18,0-.41,.02-.54,.13-1.51,1.36-3.58,1.53-5.28,2.47-2.17,1.19-4.13,.33-4.56-2.12-.3-1.74-.48-3.53-.44-5.28,.07-2.51,.32-5.03,.63-7.53,.44-3.52,.87-7.03,.44-10.58-.07-.54-.08-1.17,.12-1.66,.54-1.3,.32-2.53,.03-3.83-.26-1.18-.49-2.38-.29-3.61,.06-.36,.13-.79,0-1.1-.68-1.61-.46-3.32-.6-4.98-.11-1.4-.29-2.76-.58-4.14-.39-1.8-.51-3.67-.78-5.5-.39-2.61-1.25-5.06-1.89-7.59-.18-.72-.45-1.43-.55-2.16-.14-1.07-.49-1.99-1.31-2.7-.67-.58-.96-1.36-1.1-2.21-.14-.84-.56-1.56-.93-2.31-.86-1.79-1.79-3.48-3.53-4.59-.23-.15-.4-.39-.56-.62-2.69-3.87-6.35-6.47-10.63-8.35-1.33-.59-2.56-1.36-4.01-1.78-1.44-.42-2.79,.19-4.17-.08-1.36-.26-2.6-.95-4.09-.7-3.77,.63-7.61,.75-11.35,1.6-1.45,.33-2.95,.47-4.44,.62-.87,.09-1.59,.39-2.3,.9-1.52,1.08-3.09,2.1-4.38,3.47-.13,.14-.22,.36-.38,.41-2.11,.66-3.05,2.65-4.56,3.98-.72,.63-1.31,1.3-1.56,2.26-.11,.43-.4,.85-.71,1.18-2.41,2.62-3.73,5.74-4.35,9.22-.19,1.1-.59,2.16-.96,3.22-.79,2.26-.78,4.58-.59,6.91,.24,2.97,.34,5.96,.75,8.91,.24,1.75,.63,3.47,.74,5.25,.02,.35,.18,.75,.39,1.03,.53,.71,.61,1.52,.73,2.36,.27,1.85,.74,3.63,1.71,5.3,.74,1.28,1.25,2.71,1.77,4.11,.91,2.46,1.8,4.92,3.51,6.97,.24,.28,.48,.61,.57,.96,.55,2.12,2.04,3.77,2.84,5.76,.21,.51,.48,1.07,.89,1.41,1.75,1.49,2.64,3.58,3.91,5.41,1.28,1.84,2.59,3.65,3.9,5.47,.11,.15,.22,.32,.36,.43,3.08,2.35,5.05,5.72,7.77,8.4,.86,.85,1.87,1.54,2.75,2.38,1.62,1.55,3.16,3.19,4.78,4.74,1.55,1.48,2.11,3.5,3.03,5.31,.34,.67,.28,1.5-.03,2.19-.8,1.79-1.4,3.63-1.94,5.53-.37,1.31-1.32,2.45-2.05,3.65-.42,.69-1.15,.96-1.91,1.05-2.5,.32-4.94,1.05-7.49,.97-3.14-.1-5.32,1.55-6.83,4.1-.75,1.27-1.94,2.3-2.19,3.87-.06,.36-.37,.72-.34,1.06,.18,2.36-.49,4.62-.77,6.92-.11,.91,.09,1.85-.41,2.71-.29,.51-.31,1.08-.09,1.63,.85,2.11,.24,4.22,0,6.32-.07,.64-.46,1.33-.32,1.91,.44,1.83-.34,3.49-.53,5.23-.23,2.05-2.05,3.45-4.14,3.38-.69-.02-1.29-.27-1.73-.79-.49-.56-1.02-1.12-1.37-1.77-.87-1.6-2.24-2.73-3.5-3.97-.68-.66-1.41-1.22-2.35-1.47-1.02-.27-1.87-.85-2.7-1.46-2.13-1.57-4.55-2.57-6.93-3.64-.41-.18-.94-.38-1.33-.27-2.38,.66-4.34-.42-6.32-1.4-.5-.25-.96-.54-1.54-.6-1.11-.12-2.22-.3-3.32-.46-.84-.12-1.64-.13-2.49,.13-.97,.3-2,.44-3.01,.62-2.29,.42-4.58,.83-6.87,1.23-.49,.09-.88,.3-1.19,.68-.99,1.23-2.28,1.63-3.75,1.2-.95-.28-1.61,.04-2.3,.6-1.22,1-2.27,2.23-3.91,2.62-.33,.08-.62,.41-.88,.67-2.54,2.59-5.39,4.88-7.17,8.16-.66,1.22-1.55,2.34-2.4,3.45-.88,1.15-1.47,2.39-1.44,3.86,.02,.78-.25,1.45-.62,2.12-1.5,2.72-2.63,5.55-2.49,8.74-.89,1.99-.24,4.26-1.15,6.26-.22,.48-.23,1.1-.21,1.65,.09,2.32,.16,4.65,.35,6.97,.16,1.95,.73,3.86,.45,5.84-.04,.27,.03,.56,.08,.83,.67,3.29,1.63,6.52,2.08,9.86,.18,1.35,.99,2.61,1.45,3.93,1.34,3.81,3.3,7.3,5.48,10.68,.35,.54,.8,1.06,1.3,1.44,.91,.69,1.73,1.41,2.21,2.48,.15,.33,.4,.64,.67,.89,1.5,1.4,2.94,2.88,4.55,4.15,1.65,1.31,2.88,2.9,3.96,4.67,.24,.4,.45,.84,.77,1.17,2.26,2.36,4.54,4.71,6.43,7.39,.11,.15,.25,.29,.4,.39,3.56,2.39,6.59,5.53,10.38,7.57,3.8,2.05,7.14,4.78,10.86,6.93,1.21,.7,2.42,1.44,3.7,1.98,1.58,.66,2.97,1.56,4.25,2.67,.49,.43,.99,.91,1.58,1.15,1.47,.59,2.14,1.74,2.5,3.16,.25,.99,.66,2,.64,3-.04,2.07,.6,4.06,.47,6.13-.05,.8,.39,1.62,.54,2.44,.77,4.34,2.29,8.45,4.04,12.46,.78,1.79,1.81,3.47,2.61,5.26,.42,.93,1.01,1.8,1.83,2.46,3.08,2.46,5.59,5.5,8.48,8.16,3.57,3.28,7.07,6.67,10.86,9.68,2.6,2.07,5.3,4.11,8.37,5.55,.58,.27,1.16,.67,1.54,1.17,1.03,1.35,2.31,2.44,3.57,3.54,.59,.52,1.01,1.09,1.14,1.86,.16,.94,.56,1.78,1.19,2.5,.47,.54,.63,1.17,.44,1.83-.45,1.58-.26,3.14,.04,4.71,.39,2.01-.15,3.95-.84,5.76-.56,1.45-1.8,2.61-3.11,3.51-.86,.59-1.9,.78-2.95,.37-1.5-.58-3.12-.86-4.67-.86-3.15,0-6.35-.31-9.45,.23-1.88,.33-3.7,.29-5.56,.33-.48,.01-1-.08-1.27-.47-1.1-1.58-2.61-3-2.19-5.24,.1-.53,0-1.11-.08-1.67-.41-3.33-.82-6.67-1.27-9.99-.44-3.23-.93-6.45-1.4-9.68-.13-.92-.28-1.85-.36-2.78-.15-1.88-.66-3.66-1.37-5.41-1.11-2.78-2.73-5.28-4.12-7.91-.26-.49-.67-.93-.85-1.45-1.12-3.11-3.12-5.71-4.9-8.42-1.32-2.01-3.03-3.77-4.58-5.63-.3-.36-.74-.63-.92-1.03-1.37-3.05-4.1-4.16-7.03-4.97-.63-.18-1.31-.21-1.75-.77-.76-.95-1.62-1.52-2.91-.94-.28,.13-.75,0-1.07-.15-2.03-.99-3.99-.57-5.94,.24-.26,.11-.5,.28-.77,.33-2.85,.55-5.57,1.53-8.28,2.54-2.49-.19-4.69,1.11-7.1,1.36-1.02,.1-2.03,.34-3.07,.2-1.09-.15-2.02,.26-2.92,.79-.93,.56-1.72,1.54-3.01,.99-1.29,1.12-3.25,.84-4.46,2.1-.56,.58-1.22,.81-1.99,.88-2.69,.25-5.04,1.31-7.15,2.95-.6,.47-1.24,.9-1.98,1-2.03,.28-3.28,1.74-4.54,3.07-.7,.74-1.37,1.49-2.15,2.16-1.78,1.53-3.3,3.31-4.72,5.16-.62,.8-1.13,1.75-1.41,2.71-.35,1.21-.87,2.26-1.7,3.17-1.31,1.43-2.04,3.13-2.35,5.01-.28,1.69-.83,3.25-1.83,4.65-.61,.85-.98,1.8-1.21,2.81-.39,1.67-1.39,3.05-2.17,4.53-.33,.62-1.45,.65-1.61,.02-.45-1.81-2.12-3.09-2.08-5.08,.01-.76-.37-1.43-.66-2.12-.33-.77-.73-1.57-.79-2.38-.14-2.13-.64-4.21-.9-6.32-.15-1.21-.19-2.41-.62-3.57-.16-.42-.28-.95-.17-1.37,.59-2.29-.54-4.21-1.32-6.18-.65-1.65-1.52-3.21-2.28-4.81-.63-1.32-1.67-2.25-2.92-2.94-2.21-1.21-4.39-2.51-6.7-3.5-2.36-1.01-4.93-1.11-7.43-.63-2,.38-4.05,.85-5.54,2.48-.18,.2-.43,.39-.69,.47-3.66,1.21-5.44,4.36-7.5,7.21-.34,.47-.5,1-.52,1.57-.08,2.52-.93,4.95-.69,7.51,.2,2.12-.08,4.24-.44,6.32-.34,1.96,.23,3.92-.18,5.86-.07,.33,.11,.73,.21,1.09,.41,1.38,.39,2.78,.09,4.16-.29,1.3-.29,2.58-.03,3.89,.16,.81,.29,1.7,.14,2.5-.29,1.61-.11,3.14,.22,4.71,.42,2.02,.61,4.06,.32,6.13-.06,.45-.15,1,.03,1.38,1.18,2.52,.75,5.36,1.67,7.92,.06,.17,.15,.4,.09,.54-.86,1.88,.36,3.63,.36,5.46,0,1.78,.74,3.46,1.16,5.18,.72,2.89,1.48,5.77,2.19,8.66,.34,1.37,.68,2.72,1.62,3.83,.49,.58,.76,1.28,.93,2.02,.6,2.55,1.09,5.08,1.05,7.74-.07,4.2-.69,8.32-1.26,12.46-.15,1.1-.35,2.22-.06,3.34,.21,.82,.22,1.67,.04,2.5-.2,.93-.15,1.84-.01,2.78,.09,.63,.08,1.31-.05,1.94-.21,1.04-.22,2.02,.15,3.03,.16,.43,.24,.92,.21,1.37-.14,2.3,.47,4.44,1.26,6.56,.82,2.19,1.1,4.52,1.84,6.74,.68,2.04,1.33,4.09,2.14,6.07,.03,.07,.06,.15,.09,.22-.05,.13-.11,.26-.17,.39-.52,1.18-1.08,2.36-2.02,3.33-.71,.73-1.02,1.69-1.28,2.74-.53,2.16-1.24,4.29-2.95,5.88-.64,.59-1.07,1.26-1.15,2.17-.05,.55-.23,1.1-.43,1.61-1.24,3.21-2.82,6.26-4.47,9.28-.21,.38-.61,.73-1.01,.92-.75,.36-1.55,.79-2.35,.84-1.16,.08-2.18,.47-3.21,.9-.96,.4-1.94,.67-2.98,.71-2.21,.07-3.97,1.27-5.4,2.68-.66,.65-1.29,1.32-1.91,2-.62-.68-1.25-1.35-1.91-2-1.43-1.41-3.19-2.61-5.4-2.68-1.04-.03-2.02-.3-2.98-.71-1.03-.43-2.05-.82-3.21-.9-.8-.05-1.6-.48-2.35-.84-.4-.19-.8-.54-1.01-.92-1.65-3.01-3.23-6.06-4.47-9.28-.2-.52-.38-1.07-.43-1.61-.08-.91-.51-1.57-1.15-2.17-1.71-1.59-2.42-3.73-2.95-5.88-.25-1.04-.57-2-1.28-2.74-.94-.97-1.49-2.14-2.02-3.33-.06-.13-.11-.26-.17-.39,.03-.07,.06-.15,.09-.22,.81-1.98,1.47-4.03,2.14-6.07,.74-2.22,1.02-4.55,1.84-6.74,.79-2.11,1.4-4.26,1.26-6.56-.03-.45,.06-.94,.21-1.37,.37-1.01,.36-1.99,.15-3.03-.12-.63-.14-1.31-.05-1.94,.14-.94,.18-1.85-.01-2.78-.18-.83-.17-1.68,.04-2.5,.29-1.13,.09-2.24-.06-3.34-.57-4.14-1.19-8.26-1.26-12.46-.05-2.66,.45-5.2,1.05-7.74,.17-.74,.44-1.44,.93-2.02,.94-1.12,1.28-2.46,1.62-3.83,.71-2.89,1.47-5.77,2.19-8.66,.43-1.72,1.16-3.4,1.16-5.18,0-1.83,1.22-3.57,.36-5.46-.06-.14,.02-.37,.09-.54,.92-2.56,.49-5.41,1.67-7.92,.18-.38,.09-.92,.03-1.38-.28-2.07-.1-4.11,.32-6.13,.33-1.57,.5-3.11,.22-4.71-.14-.8-.02-1.68,.14-2.5,.26-1.31,.25-2.59-.03-3.89-.3-1.38-.32-2.78,.09-4.16,.11-.36,.28-.75,.21-1.09-.41-1.94,.16-3.89-.18-5.86-.36-2.07-.64-4.2-.44-6.32,.24-2.56-.61-5-.69-7.51-.02-.57-.19-1.11-.52-1.57-2.06-2.86-3.84-6.01-7.5-7.21-.26-.08-.5-.27-.69-.47-1.49-1.62-3.53-2.1-5.54-2.48-2.5-.48-5.08-.38-7.43,.63-2.31,.99-4.49,2.28-6.7,3.5-1.25,.68-2.29,1.62-2.92,2.94-.77,1.6-1.63,3.16-2.28,4.81-.78,1.97-1.91,3.89-1.32,6.18,.11,.42-.02,.94-.17,1.37-.43,1.16-.47,2.36-.62,3.57-.26,2.11-.75,4.18-.9,6.32-.05,.81-.46,1.61-.79,2.38-.29,.69-.68,1.37-.66,2.12,.03,2-1.64,3.28-2.08,5.08-.16,.63-1.28,.6-1.61-.02-.79-1.48-1.79-2.86-2.17-4.53-.23-1.01-.6-1.96-1.21-2.81-1-1.4-1.56-2.96-1.83-4.65-.31-1.88-1.04-3.58-2.35-5.01-.83-.91-1.35-1.96-1.7-3.17-.28-.96-.79-1.92-1.41-2.71-1.43-1.85-2.95-3.63-4.72-5.16-.77-.67-1.45-1.43-2.15-2.16-1.26-1.32-2.51-2.79-4.54-3.07-.74-.1-1.38-.53-1.98-1-2.11-1.64-4.47-2.7-7.15-2.95-.77-.07-1.44-.3-1.99-.88-1.21-1.26-3.17-.99-4.46-2.1-1.29,.56-2.08-.43-3.01-.99-.9-.53-1.83-.94-2.92-.79-1.03,.14-2.04-.09-3.07-.2-2.41-.24-4.61-1.54-7.1-1.36-2.71-1.01-5.43-1.98-8.28-2.54-.27-.05-.51-.23-.77-.33-1.95-.81-3.91-1.23-5.94-.24-.31,.15-.79,.27-1.07,.15-1.29-.58-2.14-.01-2.91,.94-.45,.56-1.12,.6-1.75,.77-2.93,.82-5.66,1.92-7.03,4.97-.18,.4-.63,.67-.92,1.03-1.55,1.86-3.26,3.62-4.58,5.63-1.77,2.71-3.78,5.31-4.9,8.42-.19,.52-.59,.95-.85,1.45-1.39,2.63-3.01,5.13-4.12,7.91-.7,1.75-1.22,3.53-1.37,5.41-.07,.93-.22,1.85-.36,2.78-.46,3.23-.96,6.45-1.4,9.68-.45,3.33-.86,6.66-1.27,9.99-.07,.55-.18,1.13-.08,1.67,.42,2.24-1.08,3.66-2.19,5.24-.27,.39-.79,.48-1.27,.47-1.85-.05-3.68,0-5.56-.33-3.1-.54-6.3-.22-9.45-.23-1.55,0-3.16,.28-4.67,.86-1.05,.4-2.1,.21-2.95-.37-1.31-.9-2.55-2.05-3.11-3.51-.69-1.8-1.23-3.74-.84-5.76,.31-1.57,.5-3.13,.04-4.71-.19-.66-.02-1.29,.44-1.83,.63-.72,1.03-1.56,1.19-2.5,.14-.78,.55-1.35,1.14-1.86,1.26-1.11,2.54-2.19,3.57-3.54,.38-.5,.97-.9,1.54-1.17,3.06-1.45,5.76-3.49,8.37-5.55,3.79-3.01,7.29-6.4,10.86-9.68,2.89-2.65,5.41-5.69,8.48-8.16,.82-.65,1.42-1.53,1.83-2.46,.8-1.79,1.83-3.47,2.61-5.26,1.75-4.01,3.28-8.12,4.04-12.46,.15-.82,.59-1.64,.54-2.44-.13-2.07,.51-4.07,.47-6.13-.02-1,.38-2.01,.64-3,.36-1.42,1.04-2.57,2.5-3.16,.59-.24,1.08-.72,1.58-1.15,1.28-1.11,2.67-2,4.25-2.67,1.29-.54,2.49-1.28,3.7-1.98,3.72-2.15,7.06-4.89,10.86-6.93,3.79-2.04,6.82-5.17,10.38-7.57,.15-.1,.29-.24,.4-.39,1.89-2.69,4.17-5.03,6.43-7.39,.32-.33,.52-.77,.77-1.17,1.07-1.76,2.31-3.36,3.96-4.67,1.61-1.27,3.05-2.75,4.55-4.15,.27-.25,.52-.56,.67-.89,.48-1.07,1.3-1.79,2.21-2.48,.51-.39,.96-.9,1.3-1.44,2.18-3.38,4.14-6.87,5.48-10.68,.46-1.32,1.27-2.58,1.45-3.93,.45-3.35,1.41-6.57,2.08-9.86,.06-.27,.12-.56,.08-.83-.28-1.98,.29-3.9,.45-5.84,.19-2.32,.27-4.64,.35-6.97,.02-.55,.01-1.17-.21-1.65-.91-2-.26-4.27-1.15-6.26,.14-3.19-.99-6.02-2.49-8.74-.37-.67-.63-1.34-.62-2.12,.03-1.47-.56-2.71-1.44-3.86-.85-1.12-1.73-2.23-2.4-3.45-1.78-3.28-4.63-5.57-7.17-8.16-.26-.26-.55-.59-.88-.67-1.64-.4-2.69-1.63-3.91-2.62-.69-.56-1.35-.88-2.3-.6-1.48,.43-2.76,.03-3.75-1.2-.3-.37-.7-.59-1.19-.68-2.29-.4-4.58-.81-6.87-1.23-1.01-.19-2.04-.32-3.01-.62-.84-.26-1.65-.25-2.49-.13-1.11,.16-2.21,.34-3.32,.46-.58,.06-1.04,.35-1.54,.6-1.98,.99-3.94,2.07-6.32,1.4-.39-.11-.92,.09-1.33,.27-2.38,1.07-4.8,2.07-6.93,3.64-.83,.61-1.68,1.19-2.7,1.46-.94,.25-1.67,.8-2.35,1.47-1.26,1.24-2.64,2.37-3.5,3.97-.35,.65-.88,1.2-1.37,1.77-.45,.52-1.04,.77-1.73,.79-2.09,.06-3.91-1.33-4.14-3.38-.19-1.73-.97-3.4-.53-5.23,.14-.58-.25-1.26-.32-1.91-.24-2.11-.85-4.22,0-6.32,.22-.55,.21-1.12-.09-1.63-.5-.87-.3-1.8-.41-2.71-.28-2.3-.94-4.56-.77-6.92,.03-.34-.29-.69-.34-1.06-.24-1.57-1.44-2.6-2.19-3.87-1.51-2.55-3.69-4.2-6.83-4.1-2.55,.08-5-.65-7.49-.97-.75-.1-1.48-.37-1.91-1.05-.73-1.19-1.69-2.34-2.05-3.65-.53-1.89-1.13-3.74-1.94-5.53-.31-.69-.37-1.53-.03-2.19,.92-1.82,1.48-3.84,3.03-5.31,1.62-1.55,3.16-3.19,4.78-4.74,.87-.84,1.89-1.53,2.75-2.38,2.72-2.68,4.69-6.06,7.77-8.4,.14-.11,.25-.28,.36-.43,1.3-1.82,2.62-3.63,3.9-5.47,1.27-1.82,2.15-3.92,3.91-5.41,.41-.34,.68-.9,.89-1.41,.8-1.99,2.29-3.64,2.84-5.76,.09-.35,.33-.67,.57-.96,1.71-2.05,2.61-4.51,3.51-6.97,.52-1.4,1.03-2.83,1.77-4.11,.97-1.66,1.44-3.44,1.71-5.3,.12-.84,.2-1.65,.73-2.36,.21-.29,.37-.68,.39-1.03,.11-1.77,.5-3.5,.74-5.25,.41-2.95,.51-5.94,.75-8.91,.19-2.34,.2-4.66-.59-6.91-.37-1.06-.77-2.12-.96-3.22-.62-3.48-1.93-6.59-4.35-9.22-.31-.33-.59-.76-.71-1.18-.25-.96-.84-1.62-1.56-2.26-1.51-1.33-2.45-3.32-4.56-3.98-.15-.05-.25-.27-.38-.41-1.29-1.37-2.86-2.39-4.38-3.47-.71-.51-1.43-.81-2.3-.9-1.49-.15-2.99-.29-4.44-.62-3.74-.86-7.58-.98-11.35-1.6-1.49-.25-2.73,.44-4.09,.7-1.38,.27-2.73-.35-4.17,.08-1.45,.42-2.67,1.19-4.01,1.78-4.28,1.89-7.94,4.48-10.63,8.35-.16,.23-.33,.48-.56,.62-1.73,1.11-2.66,2.8-3.53,4.59-.37,.76-.79,1.47-.93,2.31-.14,.85-.43,1.63-1.1,2.21-.82,.71-1.18,1.63-1.31,2.7-.1,.73-.37,1.44-.55,2.16-.64,2.53-1.5,4.98-1.89,7.59-.27,1.84-.39,3.7-.78,5.5-.3,1.38-.47,2.74-.58,4.14-.14,1.66,.09,3.37-.6,4.98-.13,.31-.07,.74,0,1.1,.2,1.23-.03,2.44-.29,3.61-.29,1.3-.51,2.53,.03,3.83,.2,.49,.19,1.11,.12,1.66-.44,3.56,0,7.06,.44,10.58,.31,2.5,.56,5.01,.63,7.53,.05,1.76-.13,3.55-.44,5.28-.42,2.45-2.39,3.31-4.56,2.12-1.71-.94-3.77-1.1-5.28-2.47-.12-.11-.36-.14-.54-.13-1.84,.06-3.56-1.3-5.48-.44-.21,.1-.56-.01-.81-.11-.98-.39-2.01-.39-3.03-.47-2.34-.18-4.43-1.47-6.79-1.61-.08,0-.17-.08-.23-.15-.53-.66-1.31-.58-2.02-.77-1.42-.39-2.96-.41-4.24-1.32-.35-.25-.9-.33-1.34-.31-1.63,.11-3.09-.64-4.65-.9-2.13-.35-2.73-2.65-4.37-3.67-.06-.04-.09-.17-.09-.26-.1-2.13-.88-4.18-.45-6.39,1.02-5.22,1.93-10.47,2.16-15.8,.09-2.13,.09-4.27,.13-6.41,0-.18-.05-.37-.08-.55-.74-4.41-1.49-8.83-2.23-13.24-.36-2.13-.8-4.22-2.07-6.04-.21-.3-.34-.67-.42-1.03-.47-2.23-1.47-4.22-2.66-6.14-.79-1.29-1.4-2.64-1.44-4.19-.02-.76-.25-1.45-.7-2.09-1.32-1.88-1.98-3.98-2.11-6.27-.12-2.14-.37-4.28-1.33-6.25-.46-.94-.67-1.92-.45-2.98,.21-1.07-.08-2.03-.82-2.85-.5-.55-1.02-1.12-1.05-1.93-.04-.99-.49-1.78-1.1-2.52-.36-.44-.66-.93-.67-1.51-.03-1.2-.78-2.12-1.38-3-1.91-2.83-3.14-5.92-3.69-9.26-.48-2.95-.87-5.91-.7-8.92,.05-.93,0-1.87-.12-2.8-.38-3.23,.22-6.54-.79-9.72-.03-.08,0-.19,0-.28,.06-4.3-.74-8.54-.78-12.85-.02-3.04-.76-6.1-1.67-9.05-.31-.99-.46-1.98-.44-3.03,.03-1.69-.11-3.36-.95-4.9-.18-.32-.26-.7-.35-1.06-.36-1.44-.84-2.84-1-4.35-.14-1.25-.58-2.47-1.28-3.64-.99-1.66-1.37-3.65-2.46-5.32-.93-1.44-1.81-2.81-3.55-3.41-.6-.21-1.1-.69-1.65-1.05-2.18-1.43-4.45-1.81-6.88-.63-.75,.37-1.53,.75-2.34,.93-2.27,.51-3.75,1.99-4.98,3.81-.58,.85-1.05,1.78-1.7,2.57-1.69,2.06-2.81,4.36-3.33,6.96-.11,.54-.33,1.07-.54,1.59-1.07,2.62-1.58,5.34-1.49,8.17,.01,.37,.14,.81,0,1.11-.97,1.93-.61,4.04-.87,6.06-.26,2.04-.58,4.1-.49,6.13,.15,3.38-.07,6.72-.4,10.06-.09,.93-.14,1.9,.3,2.75,.68,1.3,.77,2.67,.74,4.09-.04,2.08,.25,4.09,1.05,6.03,.28,.68,.44,1.43,.56,2.16,.5,3.05,1.64,5.88,2.78,8.73,.86,2.15,1.87,4.3,2.5,6.49,.87,3.01,2.54,5.59,3.8,8.38,.62,1.37,1.1,2.76,1.47,4.18,.4,1.54,.01,3.11-1.34,4.01-1.21,.8-2.64,1.52-4.04,1.71-2.26,.3-4.4,.73-6.41,1.83-.48,.26-1.05,.4-1.6,.49-1.07,.16-1.91,.7-2.72,1.35-1.24,.99-2.53,1.92-3.76,2.92-.5,.41-1.13,.85-1.32,1.41-.57,1.64-1.74,2.85-2.68,4.22-.31,.46-.66,.97-.73,1.49-.19,1.45-.98,2.62-1.62,3.86-.72,1.41-1.56,2.73-1.62,4.38-.01,.35-.2,.72-.39,1.04-.59,1-.85,2.1-.82,3.22,.07,2.37-.49,4.62-1.1,6.87-.12,.45-.39,.94-.13,1.35,.69,1.1,.45,2.13-.02,3.2-.31,.71-.18,1.47-.16,2.22,.03,1.02,.09,2.05,.1,3.07,.01,1.61,.61,3.09,.95,4.63,.36,1.61-.12,3.38,.54,4.98,1.05,2.53,1.32,5.21,1.74,7.87,.06,.37,.01,.84,.23,1.07,1.19,1.26,1.25,2.86,1.53,4.41,.1,.54,.31,1.1,.62,1.55,.75,1.1,1.33,2.24,1.52,3.57,.06,.45,.29,.89,.5,1.3,1.85,3.45,3.09,7.18,5.1,10.56,.24,.4,.33,.88,.53,1.3,.32,.67,.59,1.39,1.03,1.98,1.7,2.25,2.81,4.84,4.28,7.22,.9,1.46,.31,3.74-1.14,4.69-1.64,1.09-3.45,1.19-5.37,1.07-2.79-.17-5.61-.24-8.16,1.23-2.26,1.3-4.93,.94-7.29,1.86-.16,.06-.38,.01-.55-.03-1.71-.47-3.46-.86-4.62-2.42-.61-.82-1.37-1.55-1.92-2.41-.77-1.19-1.55-2.33-2.83-3.04-.3-.17-.53-.51-.72-.82-1.26-2.06-2.77-3.69-5.46-3.55-.17,0-.34-.14-.52-.18-3.07-.8-6.34,.74-7.64,3.59-.31,.68-.54,1.41-.95,2.01-.76,1.11-1.18,2.32-1.41,3.62-.26,1.47-.67,2.9-1.19,4.31-.41,1.12-.6,2.33-.85,3.51-.57,2.71-1.65,5.32-1.91,8.11-.74,1-1,2.19-1.38,3.35-.77,2.29-2.95,3.07-4.87,1.65-1.26-.93-2.44-2.02-3.48-3.2-.69-.78-1.4-1.45-2.22-2.08-1.7-1.3-3.28-2.76-5.44-3.29-.17-.04-.33-.17-.48-.29-1.29-1.09-3-1.52-4.23-2.72-.41-.4-1-.53-1.56-.53-1.71,.02-3.3-.58-4.95-.91-.54-.11-1.2-.42-1.62-.23-1.57,.7-3.12,.35-4.69,.18-.57-.06-1.12,0-1.64,.26-.51,.25-1.05,.4-1.63,.32-.87-.12-1.64,.22-2.46,.41-1.85,.44-3.39,1.5-5.09,2.24-1.99,.86-3.38,2.34-4.65,3.91-1.12,1.38-2.42,2.64-3.37,4.1-1.02,1.57-2.11,3.06-3.35,4.44-.51,.57-.99,1.16-.88,1.98,.12,.94-.29,1.59-.94,2.21-1.16,1.13-2.11,2.37-1.84,4.17,.09,.58-.35,1.03-.59,1.53-.77,1.6-1.52,3.22-1.32,5.07,.11,.99-.21,1.84-.75,2.63-.66,.96-.82,1.99-.78,3.18,.05,1.76-.03,3.56-.38,5.28-.4,1.96-.53,3.87-.29,5.84,.08,.65,.12,1.3,.1,1.95-.1,3.18-1.1,6.25-1.1,9.45,0,.18-.07,.37-.16,.53-.92,1.61-.98,3.63-2.38,5.03-.24,.24-.4,.68-.38,1.02,.09,1.77-.78,3.27-1.43,4.79-.63,1.48-1.17,2.95-1.32,4.54-.14,1.54-.9,2.84-1.58,4.16-.16,.32-.43,.71-.73,.81-2.29,.74-4.61,1.72-7.02,.53-.91-.44-1.66-.48-2.65-.19-1.41,.43-2.92,.68-4.4,.75-1.7,.09-3.19,.78-4.28,1.83-1.29,1.26-2.73,2.24-4.2,3.22-.73,.49-1.39,1.01-1.6,1.86-.73,2.97-3.15,5.35-2.97,8.63,0,.17-.08,.37-.16,.53-1.12,2.31-1.15,4.89-1.59,7.34-.67,3.66-.9,7.4-1.31,11.11-.24,2.23-.56,4.45-.66,6.68-.11,2.5,.31,5.01,.07,7.52-.03,.36,.05,.75,.16,1.1,.84,2.73,.45,5.56,.72,8.33,.2,2.09-.98,3.51-2.4,4.81-1.35,1.24-2.88,1.06-4.48,.68-1.11-.26-2.18-.48-2.98-1.38-1.83-2.08-3.14-4.42-3.48-7.2-.29-2.41-.39-4.84-.69-7.24-.33-2.69-.41-5.4-.71-8.08-.24-2.14-.38-4.27-.38-6.42,0-2.15-.05-4.3,0-6.45,.15-5.86-1.19-11.49-2.61-17.09-.46-1.79-1.2-3.54-2.25-5.11-.62-.93-1.15-1.92-1.74-2.86-1.03-1.65-1.52-3.63-3.13-4.92-.27-.21-.38-.63-.53-.98-1.21-2.85-2.93-5.17-6.08-6.11-.51-.15-.99-.53-1.41-.9-1.32-1.15-3.07-.61-4.53-1.19-.13-.05-.39,.05-.52,.16-.88,.79-2.12,.78-3.03,1.32-1.81,1.07-3.62,2.28-5.06,3.79-1.04,1.1-1.7,2.67-1.94,4.29-.1,.64-.14,1.32-.39,1.91-1.38,3.18-1.51,6.55-1.36,9.89,.13,2.77,.39,5.52,0,8.29-.08,.55-.06,1.13,.03,1.68,.29,1.93,.62,3.85,.95,5.78,.16,.92,.35,1.84,0,2.77-.31,.83,0,1.65,.08,2.48,.24,2.39,1.45,4.65,.93,7.15-.05,.25,.08,.55,.15,.82,.7,2.73,.84,5.54,.97,8.31,.16,3.46,1.4,6.78,1.14,10.27-.01,.17,.11,.36,.15,.54,.31,1.27,.61,2.54,.93,3.81,.83,3.24,1.07,6.61,2.18,9.79,.28,.8,.2,1.66,.02,2.5-.19,.85-.86,1.28-1.66,1.04-.36-.11-.71-.25-1.04-.42-2.31-1.24-4.51-2.6-6.56-4.26-4.13-3.34-8.05-6.95-12.55-9.85-2.83-1.82-5.85-3.26-8.68-5.05-.46-.29-1.03-.43-1.57-.58-2.27-.64-4.65-.29-6.94-.78-.25-.05-.6,0-.81,.14-.95,.63-1.91,.49-2.95,.25-.83-.19-1.68,.08-2.4,.56-.76,.5-1.54,.42-2.41,.38-2.22-.12-4.4-.05-6.47,1.14-2.18,1.25-4.52,2.2-6.66,3.56-.54,.34-1.17,.69-1.79,.75-2.91,.32-4.65,2.45-6.18,4.43-2.21,2.86-3.82,6.16-6.06,9.05-.95,1.23-1.46,2.81-2.15,4.23-.32,.67-.57,1.38-.91,2.04-1.05,2.08-2.13,4.14-3.17,6.23-.29,.58-.57,1.21-.63,1.84-.36,4.1-.26,8.2,.28,12.27,.29,2.22,.88,4.39,1.37,6.58,.1,.45,.29,.9,.54,1.28,.99,1.5,1.71,3.1,2.01,4.88,.07,.43,.36,.86,.64,1.21,.41,.52,.71,1.08,.96,1.69,1.03,2.51,2.66,4.69,3.95,7.06,1.26,2.31,3.18,4.12,4.92,6.04,1.31,1.43,2.96,2.55,4.14,4.13,.11,.14,.28,.26,.44,.35,2.2,1.23,4.31,2.67,6.61,3.64,3.7,1.56,7.57,2.67,11.51,3.53,3.9,.86,7.71,2.06,11.74,2.42,3.07,.27,6.11,.9,9.2,.65,4.28-.34,8.59-.46,12.81-1.32,3.01-.61,6.02-1.38,8.92-2.4,4.05-1.43,8.04-3.05,11.67-5.43,.93-.61,1.95-1.1,2.94-1.63,2.73-1.46,5.48-1.26,8.01,.34,4.07,2.57,6.87,6.27,8.67,10.7,.67,1.64,1.18,3.36,1.57,5.09,.78,3.48,2.23,6.73,3.3,10.12,.19,.62,.46,1.25,.85,1.76,2.33,3.13,4.16,6.62,7.13,9.31,3.11,2.83,6.13,5.76,9.7,8.01,2.13,1.34,4.33,2.58,6.56,3.76,3.82,2.02,7.9,3.37,12.09,4.38,3.75,.9,6.33,3.06,7.65,6.7,.63,1.76,1.12,3.55,1.37,5.42,.32,2.46-.75,4.17-2.64,5.46-1.23,.84-2.59,1.48-3.87,2.24-2.5,1.47-5.03,2.98-6.97,5.13-2.19,2.43-4.01,5.17-5.14,8.29-.29,.79-.61,1.57-1.03,2.3-1.35,2.35-3.25,3.79-6.12,3.68-3.82-.14-7.66,.29-11.47-.47-.72-.14-1.49-.09-2.24-.09-2.06-.01-4.11,0-6.17,0h0c-1.12,0-2.24-.01-3.37,0-1.68,.02-3.39-.11-5.04,.14-2.05,.3-4.08,.42-6.14,.43-.74,0-1.51,0-2.23,.18-4.07,1.02-8.23,1.64-12.02,3.66-3.51,1.87-6.66,4.06-9.01,7.35-3.02,4.22-3.33,8.7-1.24,13.26,1.1,2.39,3.02,4.34,5.67,5.12,2.94,.86,5.85,1.74,9.05,1.31,3.98-.54,7.98-.85,11.91-1.7,3.93-.85,7.85-1.69,11.78-2.52,.64-.13,1.29-.27,1.94-.28,1.8-.05,3.51-.5,5.22-.99,.72-.2,1.43-.44,2.16-.6,4.29-.92,8.6-1.75,12.88-2.74,3.94-.9,7.89-1.43,11.94-1.34,2.71,.06,5.43-.08,8.13,.04,6.29,.26,12.51-.53,18.71-1.32,4.72-.61,9.39-1.58,14.04-2.61,2.7-.6,5.37-.6,8.08-.55,1.37,.02,2.52,.58,3.53,1.5,1.12,1.01,2.02,2.19,2.84,3.45,1.22,1.88,2.46,3.75,3.74,5.58,.48,.68,1,1.41,1.68,1.85,1.54,1.01,2.49,2.51,3.63,3.86,1.14,1.35,1.61,2.96,1.24,4.71-.47,2.22-.45,4.48-.28,6.7,.33,4.48,2.33,8.01,6.41,10.19,2.47,1.33,4.89,2.71,7.84,2.75,1.01,.01,2.01,.39,3.03,.56,.74,.13,1.48,.27,2.22,.27,4.11,0,8.23,.08,12.33-.1,3.44-.16,6.88-.61,10.32-.83,4.64-.3,9.34-.66,13.93,.68,.62,.18,1.29,.23,1.93,.33,4.34,.67,8.69,1.23,12.9,2.56,3.72,1.17,6.63,3.24,8.51,6.78,.7,1.3,.7,2.68,1.14,3.98,.89,2.65,.94,5.47,1.78,8.14,.36,1.14,.5,2.35,1.1,3.43,.31,.56,.5,1.21,.64,1.84,.36,1.65,.77,3.27,1.4,4.84,1.05,2.6,1.1,5.16,.68,7.69-.42,1.78-.89,3.55-1.42,5.3-.1,.2-.23,.38-.36,.56-1.67,2.36-2.53,4.94-2.16,7.88,0,0,0,0,0,.01-.02,.06-.03,.11-.05,.17-.15,.53-.15,1.1-.2,1.66,0,0,0,.01,0,.02,0,.02-.01,.04-.02,.07-.36,1.33-.53,2.64-.39,4-.2,1.44-.03,2.83,.35,4.23,.04,.15,.08,.3,.12,.45,.03,.41,.06,.82,.16,1.2,0,.09,0,.18,0,.27-.37,2.94,.49,5.51,2.16,7.88,.16,.23,.35,.46,.44,.71,.22,.67,.43,1.35,.62,2.02,.14,.52,.28,1.05,.41,1.58,.71,3.04,.9,6.1-.36,9.24-.63,1.57-1.04,3.19-1.4,4.84-.14,.63-.33,1.28-.64,1.84-.6,1.08-.74,2.29-1.1,3.43-.84,2.67-.89,5.49-1.78,8.14-.44,1.3-.44,2.68-1.14,3.98-1.89,3.53-4.8,5.6-8.51,6.78-4.21,1.33-8.57,1.89-12.9,2.56-.65,.1-1.31,.15-1.93,.33-4.59,1.34-9.29,.98-13.93,.68-3.43-.22-6.87-.67-10.32-.83-4.1-.19-8.22-.11-12.33-.1-.74,0-1.49,.15-2.22,.27-1.01,.17-2.02,.55-3.03,.56-2.94,.04-5.37,1.42-7.84,2.75-4.08,2.19-6.07,5.71-6.41,10.19-.17,2.23-.19,4.48,.28,6.7,.37,1.75-.09,3.36-1.24,4.71-1.14,1.35-2.09,2.86-3.63,3.86-.68,.44-1.2,1.17-1.68,1.85-1.28,1.84-2.52,3.7-3.74,5.58-.82,1.26-1.72,2.44-2.84,3.45-1.01,.92-2.16,1.47-3.53,1.49-2.71,.04-5.38,.04-8.08-.55-4.65-1.03-9.33-2-14.04-2.61-6.2-.8-12.42-1.58-18.71-1.32-2.71,.11-5.42-.02-8.13,.04-4.04,.08-8-.44-11.94-1.34-4.28-.98-8.59-1.82-12.88-2.74-.73-.16-1.44-.39-2.16-.6-1.71-.48-3.42-.94-5.22-.99-.65-.02-1.3-.15-1.94-.28-3.93-.83-7.86-1.67-11.78-2.52-3.93-.85-7.94-1.16-11.91-1.7-3.2-.43-6.12,.45-9.05,1.31-2.65,.78-4.57,2.73-5.67,5.12-2.09,4.56-1.78,9.04,1.24,13.26,2.36,3.29,5.5,5.48,9.01,7.35,3.79,2.02,7.96,2.64,12.02,3.66,.71,.18,1.48,.18,2.23,.18,2.06,.02,4.09,.13,6.14,.43,1.65,.25,3.36,.11,5.04,.14,1.12,.01,2.24,0,3.37,0h0c2.06,0,4.11,0,6.17,0,.75,0,1.51,.05,2.24-.09,3.8-.76,7.64-.32,11.47-.47,2.88-.11,4.77,1.34,6.12,3.68,.42,.72,.74,1.51,1.03,2.3,1.14,3.13,2.95,5.87,5.14,8.29,1.94,2.15,4.47,3.66,6.97,5.13,1.29,.76,2.64,1.4,3.87,2.24,1.9,1.29,2.97,3,2.64,5.46-.25,1.87-.73,3.66-1.37,5.42-1.31,3.64-3.9,5.8-7.65,6.7-4.19,1.01-8.27,2.35-12.09,4.38-2.23,1.18-4.43,2.42-6.56,3.76-3.57,2.25-6.59,5.18-9.7,8.01-2.96,2.7-4.8,6.18-7.13,9.31-.38,.51-.65,1.15-.85,1.76-1.07,3.38-2.52,6.63-3.3,10.12-.39,1.73-.9,3.45-1.57,5.09-1.8,4.43-4.59,8.13-8.67,10.7-2.53,1.6-5.27,1.8-8.01,.34-.99-.53-2.01-1.02-2.94-1.63-3.62-2.38-7.62-4-11.67-5.43-2.9-1.02-5.91-1.79-8.92-2.4-4.21-.86-8.53-.97-12.81-1.32-3.09-.25-6.13,.38-9.2,.65-4.03,.36-7.84,1.56-11.74,2.42-3.94,.86-7.81,1.97-11.51,3.53-2.31,.97-4.42,2.41-6.61,3.64-.16,.09-.33,.2-.44,.35-1.18,1.58-2.84,2.7-4.14,4.13-1.74,1.91-3.65,3.72-4.92,6.04-1.29,2.37-2.91,4.55-3.95,7.06-.25,.61-.55,1.17-.96,1.69-.28,.36-.57,.78-.64,1.21-.3,1.79-1.02,3.38-2.01,4.88-.25,.38-.44,.83-.54,1.28-.49,2.19-1.07,4.37-1.37,6.58-.54,4.07-.64,8.17-.28,12.27,.06,.63,.34,1.26,.63,1.84,1.03,2.09,2.12,4.15,3.17,6.23,.33,.67,.58,1.37,.91,2.04,.69,1.43,1.2,3.01,2.15,4.23,2.24,2.89,3.85,6.19,6.06,9.05,1.53,1.98,3.28,4.11,6.18,4.43,.62,.07,1.25,.41,1.79,.75,2.13,1.36,4.48,2.31,6.66,3.56,2.07,1.19,4.25,1.26,6.47,1.14,.87-.05,1.65-.12,2.41,.38,.73,.48,1.58,.75,2.4,.56,1.04-.24,2-.37,2.95,.25,.21,.14,.56,.19,.81,.14,2.29-.48,4.67-.14,6.94-.78,.54-.15,1.11-.29,1.57-.58,2.83-1.79,5.86-3.23,8.68-5.05,4.5-2.9,8.41-6.51,12.55-9.85,2.05-1.66,4.26-3.02,6.56-4.26,.33-.18,.68-.32,1.04-.42,.8-.24,1.47,.19,1.66,1.04,.19,.83,.26,1.7-.02,2.5-1.11,3.18-1.35,6.55-2.18,9.79-.32,1.27-.62,2.54-.93,3.81-.04,.18-.16,.36-.15,.54,.26,3.49-.98,6.81-1.14,10.27-.13,2.77-.27,5.59-.97,8.31-.07,.27-.21,.57-.15,.82,.52,2.49-.68,4.76-.93,7.15-.08,.83-.39,1.64-.08,2.48,.35,.93,.15,1.84,0,2.77-.32,1.92-.66,3.85-.95,5.78-.08,.55-.1,1.13-.03,1.68,.38,2.77,.12,5.52,0,8.29-.15,3.34-.02,6.72,1.36,9.89,.25,.58,.29,1.27,.39,1.91,.24,1.62,.9,3.19,1.94,4.29,1.43,1.51,3.25,2.72,5.06,3.79,.91,.54,2.16,.53,3.03,1.32,.13,.11,.38,.21,.52,.16,1.46-.58,3.21-.04,4.53-1.19,.42-.36,.89-.74,1.41-.9,3.14-.94,4.87-3.26,6.08-6.11,.15-.34,.26-.76,.53-.98,1.61-1.29,2.1-3.28,3.13-4.92,.59-.95,1.12-1.94,1.74-2.86,1.05-1.58,1.8-3.33,2.25-5.11,1.43-5.6,2.77-11.24,2.62-17.09-.06-2.15-.01-4.3,0-6.45,0-2.15,.14-4.28,.38-6.42,.31-2.68,.38-5.39,.71-8.08,.3-2.41,.4-4.84,.69-7.24,.34-2.78,1.65-5.12,3.48-7.2,.8-.91,1.88-1.12,2.98-1.38,1.61-.38,3.13-.56,4.48,.68,1.42,1.3,2.6,2.72,2.4,4.81-.27,2.77,.12,5.61-.72,8.33-.11,.35-.19,.74-.16,1.1,.24,2.51-.18,5.02-.07,7.52,.1,2.23,.41,4.46,.66,6.68,.4,3.71,.64,7.45,1.31,11.11,.45,2.45,.47,5.03,1.59,7.34,.08,.17,.17,.36,.16,.53-.19,3.28,2.24,5.66,2.97,8.63,.21,.85,.88,1.37,1.6,1.86,1.46,.98,2.9,1.97,4.2,3.22,1.09,1.06,2.58,1.75,4.28,1.83,1.48,.08,2.98,.32,4.4,.75,.98,.3,1.74,.26,2.65-.19,2.41-1.18,4.73-.2,7.02,.53,.3,.1,.57,.49,.73,.81,.68,1.33,1.44,2.63,1.58,4.16,.15,1.6,.69,3.07,1.32,4.54,.65,1.52,1.52,3.02,1.43,4.79-.02,.34,.14,.78,.38,1.02,1.4,1.4,1.46,3.42,2.38,5.03,.09,.16,.16,.35,.16,.53,0,3.19,1.01,6.27,1.1,9.45,.02,.65-.02,1.31-.1,1.95-.24,1.97-.12,3.88,.29,5.84,.35,1.72,.43,3.52,.38,5.28-.04,1.19,.12,2.22,.78,3.18,.55,.79,.86,1.64,.75,2.63-.2,1.85,.56,3.47,1.32,5.07,.24,.5,.68,.96,.59,1.54-.27,1.8,.68,3.04,1.84,4.17,.65,.63,1.06,1.27,.94,2.21-.11,.82,.37,1.41,.88,1.98,1.25,1.38,2.33,2.87,3.35,4.44,.95,1.46,2.25,2.72,3.37,4.1,1.27,1.57,2.66,3.05,4.65,3.91,1.7,.74,3.24,1.8,5.09,2.24,.82,.19,1.59,.53,2.46,.41,.57-.08,1.11,.07,1.63,.32,.52,.26,1.07,.33,1.64,.26,1.57-.18,3.12-.53,4.69,.18,.42,.19,1.08-.12,1.62-.23,1.64-.33,3.24-.93,4.95-.91,.57,0,1.15-.12,1.56-.53,1.23-1.2,2.94-1.62,4.23-2.72,.14-.12,.3-.25,.48-.29,2.16-.53,3.74-1.98,5.44-3.29,.82-.63,1.53-1.31,2.22-2.08,1.04-1.17,2.22-2.27,3.48-3.2,1.92-1.42,4.11-.65,4.87,1.65,.38,1.15,.64,2.35,1.38,3.35,.26,2.8,1.34,5.4,1.91,8.11,.25,1.18,.44,2.39,.85,3.51,.52,1.41,.92,2.84,1.19,4.31,.23,1.3,.65,2.51,1.41,3.62,.42,.6,.64,1.34,.95,2.01,1.3,2.85,4.56,4.39,7.64,3.59,.18-.05,.35-.19,.52-.18,2.69,.14,4.2-1.49,5.46-3.55,.19-.31,.42-.66,.72-.82,1.28-.71,2.06-1.85,2.83-3.04,.55-.86,1.31-1.58,1.92-2.41,1.16-1.56,2.9-1.95,4.62-2.42,.18-.05,.4-.1,.55-.03,2.35,.92,5.03,.56,7.29,1.86,2.55,1.47,5.38,1.4,8.16,1.23,1.92-.12,3.73-.02,5.37,1.07,1.44,.96,2.04,3.23,1.14,4.69-1.47,2.38-2.58,4.97-4.28,7.22-.44,.59-.71,1.31-1.03,1.98-.2,.42-.29,.9-.53,1.3-2,3.37-3.25,7.11-5.1,10.56-.22,.41-.44,.85-.5,1.3-.19,1.34-.76,2.48-1.52,3.57-.31,.45-.52,1.01-.62,1.55-.28,1.56-.34,3.16-1.53,4.41-.21,.23-.17,.71-.23,1.07-.42,2.66-.69,5.34-1.74,7.87-.66,1.6-.18,3.37-.54,4.98-.35,1.54-.94,3.02-.95,4.63,0,1.02-.06,2.05-.1,3.07-.02,.75-.15,1.51,.16,2.22,.47,1.07,.71,2.11,.02,3.2-.26,.41,.01,.9,.13,1.35,.61,2.25,1.17,4.5,1.1,6.87-.03,1.12,.23,2.22,.82,3.22,.19,.32,.38,.69,.39,1.04,.06,1.65,.9,2.98,1.62,4.38,.63,1.23,1.42,2.41,1.62,3.86,.07,.52,.42,1.03,.73,1.49,.94,1.38,2.11,2.59,2.68,4.22,.19,.56,.82,1,1.32,1.41,1.23,1,2.52,1.93,3.76,2.93,.81,.65,1.66,1.19,2.72,1.35,.55,.08,1.12,.22,1.6,.49,2.01,1.1,4.15,1.53,6.41,1.83,1.41,.19,2.83,.91,4.04,1.71,1.36,.9,1.75,2.47,1.34,4.01-.37,1.42-.85,2.81-1.47,4.18-1.26,2.79-2.93,5.37-3.8,8.38-.64,2.19-1.64,4.33-2.5,6.49-1.14,2.84-2.28,5.68-2.78,8.73-.12,.73-.28,1.48-.56,2.16-.81,1.94-1.09,3.95-1.05,6.03,.03,1.41-.06,2.79-.74,4.09-.45,.85-.39,1.82-.3,2.75,.33,3.35,.55,6.69,.4,10.06-.09,2.03,.24,4.1,.49,6.13,.25,2.02-.1,4.13,.87,6.06,.15,.3,.02,.73,0,1.11-.09,2.83,.42,5.55,1.49,8.17,.21,.52,.43,1.04,.54,1.59,.53,2.61,1.64,4.91,3.33,6.96,.65,.79,1.12,1.72,1.7,2.57,1.24,1.82,2.71,3.3,4.98,3.81,.81,.18,1.59,.56,2.34,.93,2.43,1.18,4.7,.8,6.88-.63,.55-.36,1.05-.84,1.65-1.05,1.74-.6,2.62-1.98,3.55-3.41,1.09-1.67,1.47-3.65,2.46-5.32,.7-1.17,1.14-2.4,1.28-3.64,.17-1.51,.65-2.91,1-4.35,.09-.36,.17-.74,.35-1.06,.84-1.54,.97-3.21,.95-4.9-.02-1.05,.14-2.04,.44-3.03,.91-2.95,1.65-6.01,1.67-9.05,.03-4.31,.83-8.55,.78-12.85,0-.09-.03-.2,0-.28,1.01-3.18,.4-6.49,.79-9.72,.11-.92,.17-1.87,.12-2.8-.17-3.01,.22-5.98,.7-8.92,.54-3.34,1.77-6.42,3.69-9.26,.6-.88,1.35-1.8,1.38-3,.01-.58,.31-1.07,.67-1.51,.61-.74,1.06-1.53,1.1-2.52,.04-.81,.55-1.37,1.05-1.93,.74-.82,1.04-1.78,.82-2.85-.21-1.06,0-2.04,.45-2.99,.96-1.97,1.21-4.11,1.33-6.25,.13-2.3,.79-4.4,2.11-6.27,.45-.64,.68-1.33,.7-2.09,.05-1.55,.65-2.9,1.44-4.19,1.18-1.92,2.19-3.91,2.66-6.14,.08-.36,.21-.73,.42-1.03,1.27-1.82,1.71-3.92,2.07-6.04,.74-4.41,1.49-8.83,2.23-13.24,.03-.18,.08-.37,.08-.55-.03-2.14-.03-4.27-.13-6.41-.23-5.33-1.14-10.58-2.16-15.8-.43-2.2,.34-4.26,.45-6.39,0-.09,.03-.22,.09-.26,1.64-1.02,2.24-3.32,4.37-3.67,1.56-.26,3.01-1,4.65-.9,.45,.03,.99-.06,1.34-.31,1.28-.91,2.82-.93,4.24-1.32,.71-.19,1.49-.12,2.02-.77,.06-.07,.15-.15,.23-.15,2.36-.13,4.44-1.43,6.79-1.61,1.02-.08,2.05-.08,3.03-.47,.25-.1,.6-.21,.81-.11,1.92,.86,3.64-.5,5.48-.44,.18,0,.41-.02,.54-.13,1.51-1.36,3.58-1.53,5.28-2.47,2.17-1.19,4.13-.33,4.56,2.12,.3,1.74,.48,3.53,.44,5.28-.07,2.51-.32,5.03-.63,7.53-.44,3.52-.87,7.03-.44,10.58,.07,.54,.08,1.17-.12,1.66-.54,1.3-.32,2.53-.03,3.83,.26,1.18,.49,2.38,.29,3.61-.06,.36-.13,.79,0,1.1,.68,1.61,.46,3.32,.6,4.98,.11,1.4,.29,2.76,.58,4.14,.39,1.8,.51,3.67,.78,5.5,.39,2.61,1.25,5.06,1.89,7.59,.18,.72,.45,1.43,.55,2.16,.14,1.07,.49,1.99,1.31,2.7,.67,.58,.96,1.36,1.1,2.21,.14,.84,.56,1.56,.93,2.31,.86,1.79,1.79,3.48,3.53,4.59,.23,.15,.4,.39,.56,.62,2.69,3.87,6.35,6.47,10.63,8.35,1.33,.59,2.56,1.36,4.01,1.78,1.44,.42,2.79-.19,4.17,.08,1.36,.26,2.6,.95,4.09,.7,3.77-.63,7.61-.75,11.35-1.6,1.45-.33,2.95-.47,4.44-.62,.87-.09,1.59-.39,2.3-.9,1.52-1.08,3.09-2.1,4.38-3.47,.13-.14,.22-.36,.38-.41,2.11-.66,3.05-2.65,4.56-3.98,.72-.63,1.31-1.3,1.56-2.26,.11-.43,.4-.85,.71-1.19,2.41-2.62,3.73-5.74,4.35-9.22,.19-1.1,.59-2.16,.96-3.22,.79-2.26,.78-4.58,.59-6.92-.24-2.97-.34-5.96-.75-8.91-.24-1.75-.63-3.47-.74-5.25-.02-.35-.18-.75-.39-1.03-.53-.71-.61-1.52-.73-2.36-.27-1.85-.74-3.63-1.71-5.3-.74-1.28-1.25-2.71-1.77-4.11-.91-2.46-1.8-4.92-3.51-6.97-.24-.28-.48-.61-.57-.96-.55-2.12-2.04-3.77-2.84-5.76-.21-.51-.48-1.07-.89-1.41-1.75-1.49-2.64-3.58-3.91-5.41-1.28-1.84-2.59-3.65-3.9-5.47-.11-.15-.22-.32-.36-.43-3.08-2.35-5.05-5.72-7.77-8.4-.86-.85-1.87-1.54-2.75-2.38-1.62-1.55-3.16-3.19-4.78-4.74-1.55-1.48-2.11-3.5-3.03-5.31-.34-.67-.28-1.5,.03-2.19,.8-1.79,1.4-3.63,1.94-5.53,.37-1.31,1.32-2.45,2.05-3.65,.42-.69,1.15-.96,1.91-1.05,2.5-.32,4.94-1.05,7.49-.97,3.14,.1,5.32-1.55,6.83-4.1,.75-1.27,1.94-2.3,2.19-3.87,.06-.36,.37-.72,.34-1.06-.18-2.36,.49-4.62,.77-6.92,.11-.91-.09-1.85,.41-2.71,.29-.51,.31-1.08,.09-1.63-.85-2.11-.24-4.22,0-6.32,.07-.65,.46-1.33,.32-1.91-.44-1.83,.34-3.49,.53-5.23,.23-2.05,2.05-3.45,4.14-3.38,.69,.02,1.29,.27,1.73,.79,.49,.56,1.02,1.12,1.37,1.77,.87,1.6,2.24,2.73,3.5,3.97,.68,.66,1.41,1.22,2.35,1.47,1.02,.27,1.87,.85,2.7,1.46,2.13,1.57,4.55,2.57,6.93,3.64,.41,.18,.94,.38,1.33,.27,2.38-.66,4.34,.42,6.32,1.4,.5,.25,.96,.54,1.54,.6,1.11,.12,2.22,.3,3.32,.46,.84,.12,1.64,.13,2.49-.13,.97-.3,2-.44,3.01-.62,2.29-.42,4.58-.83,6.87-1.23,.49-.09,.88-.3,1.19-.68,.99-1.23,2.28-1.63,3.75-1.2,.95,.28,1.61-.04,2.3-.6,1.22-1,2.27-2.22,3.91-2.62,.33-.08,.62-.41,.88-.67,2.54-2.59,5.39-4.88,7.17-8.16,.66-1.22,1.55-2.34,2.4-3.45,.88-1.15,1.47-2.39,1.44-3.86-.02-.78,.25-1.45,.62-2.12,1.5-2.72,2.63-5.55,2.49-8.74,.89-1.99,.24-4.26,1.15-6.26,.22-.48,.23-1.1,.21-1.65-.09-2.32-.16-4.65-.35-6.97-.16-1.95-.73-3.86-.45-5.84,.04-.27-.03-.56-.08-.83-.67-3.29-1.63-6.52-2.08-9.86-.18-1.35-.99-2.61-1.45-3.93-1.34-3.81-3.3-7.3-5.48-10.68-.35-.54-.8-1.06-1.3-1.44-.91-.69-1.73-1.41-2.21-2.48-.15-.33-.4-.64-.67-.89-1.5-1.4-2.94-2.88-4.55-4.15-1.65-1.31-2.88-2.9-3.96-4.67-.24-.4-.45-.84-.77-1.17-2.26-2.36-4.54-4.71-6.43-7.39-.11-.15-.25-.29-.4-.39-3.56-2.39-6.59-5.53-10.38-7.57-3.8-2.05-7.14-4.78-10.86-6.93-1.21-.7-2.42-1.44-3.7-1.98-1.58-.66-2.97-1.56-4.25-2.66-.49-.43-.99-.91-1.58-1.15-1.47-.59-2.14-1.74-2.5-3.16-.25-.99-.66-2-.64-3,.04-2.07-.6-4.06-.47-6.13,.05-.8-.39-1.62-.54-2.44-.77-4.34-2.29-8.45-4.04-12.46-.78-1.79-1.81-3.47-2.61-5.26-.42-.93-1.01-1.8-1.83-2.46-3.08-2.46-5.59-5.5-8.48-8.16-3.57-3.28-7.07-6.67-10.86-9.68-2.61-2.07-5.3-4.11-8.37-5.55-.58-.27-1.16-.67-1.54-1.17-1.03-1.35-2.31-2.44-3.57-3.54-.59-.52-1.01-1.09-1.14-1.86-.16-.94-.56-1.78-1.19-2.5-.47-.54-.63-1.17-.44-1.83,.45-1.58,.26-3.14-.04-4.71-.39-2.01,.15-3.95,.84-5.76,.56-1.45,1.8-2.61,3.11-3.51,.86-.59,1.9-.78,2.95-.37,1.5,.58,3.12,.86,4.67,.86,3.15,0,6.35,.31,9.45-.23,1.88-.33,3.7-.29,5.56-.33,.48-.01,1,.08,1.27,.47,1.1,1.58,2.61,3,2.19,5.24-.1,.53,0,1.11,.08,1.67,.41,3.33,.82,6.67,1.27,9.99,.44,3.23,.93,6.45,1.4,9.68,.13,.92,.28,1.85,.36,2.78,.15,1.88,.66,3.66,1.37,5.41,1.11,2.78,2.73,5.28,4.12,7.91,.26,.49,.67,.93,.85,1.45,1.12,3.11,3.12,5.71,4.9,8.42,1.32,2.01,3.03,3.77,4.58,5.63,.3,.36,.74,.63,.92,1.03,1.37,3.05,4.1,4.16,7.03,4.97,.63,.18,1.31,.21,1.75,.77,.76,.95,1.62,1.52,2.91,.94,.28-.13,.75,0,1.07,.15,2.03,.99,3.99,.57,5.94-.24,.26-.11,.5-.28,.77-.33,2.85-.55,5.57-1.53,8.28-2.54,2.49,.19,4.69-1.11,7.1-1.36,1.02-.1,2.03-.34,3.07-.2,1.09,.15,2.02-.26,2.92-.79,.93-.56,1.72-1.54,3.01-.99,1.29-1.12,3.25-.84,4.46-2.1,.56-.58,1.22-.81,1.99-.88,2.69-.24,5.04-1.31,7.15-2.95,.6-.47,1.24-.9,1.98-1,2.03-.28,3.28-1.74,4.54-3.07,.7-.74,1.37-1.49,2.15-2.16,1.78-1.53,3.3-3.31,4.72-5.16,.62-.8,1.13-1.75,1.41-2.71,.35-1.21,.87-2.26,1.7-3.17,1.31-1.43,2.04-3.13,2.35-5.01,.28-1.69,.83-3.25,1.83-4.65,.61-.85,.98-1.8,1.21-2.81,.39-1.67,1.39-3.05,2.17-4.53,.33-.62,1.45-.65,1.61-.02,.45,1.81,2.12,3.09,2.08,5.08-.01,.76,.37,1.43,.66,2.12,.33,.77,.73,1.57,.79,2.38,.14,2.13,.64,4.21,.9,6.32,.15,1.21,.19,2.41,.62,3.57,.16,.42,.28,.95,.17,1.37-.59,2.29,.54,4.21,1.32,6.18,.65,1.65,1.52,3.21,2.28,4.81,.63,1.32,1.67,2.25,2.92,2.94,2.21,1.21,4.39,2.51,6.7,3.5,2.36,1.01,4.93,1.11,7.43,.63,2-.38,4.05-.85,5.54-2.48,.18-.2,.43-.39,.69-.47,3.66-1.21,5.44-4.36,7.5-7.21,.34-.47,.5-1,.52-1.57,.08-2.52,.93-4.95,.69-7.51-.2-2.12,.08-4.24,.44-6.32,.34-1.96-.23-3.92,.18-5.86,.07-.33-.11-.73-.21-1.09-.41-1.38-.39-2.78-.09-4.16,.29-1.3,.29-2.58,.03-3.89-.16-.81-.29-1.7-.14-2.5,.29-1.61,.11-3.14-.22-4.71-.42-2.02-.61-4.06-.32-6.13,.06-.45,.15-1-.03-1.38-1.18-2.52-.75-5.36-1.67-7.92-.06-.17-.15-.4-.09-.54,.86-1.88-.36-3.63-.36-5.46,0-1.78-.74-3.46-1.16-5.18-.72-2.89-1.48-5.77-2.19-8.66-.34-1.37-.68-2.72-1.62-3.83-.49-.58-.76-1.28-.93-2.02-.6-2.55-1.09-5.08-1.05-7.74,.07-4.2,.69-8.32,1.26-12.46,.15-1.1,.35-2.22,.06-3.34-.21-.82-.22-1.67-.04-2.5,.2-.93,.15-1.84,.01-2.78-.09-.63-.08-1.31,.05-1.94,.21-1.04,.22-2.02-.15-3.03-.16-.43-.24-.92-.21-1.37,.14-2.3-.47-4.44-1.26-6.56-.82-2.19-1.1-4.52-1.84-6.74-.68-2.04-1.33-4.09-2.14-6.07-.03-.07-.06-.15-.09-.22,.05-.13,.11-.26,.17-.39,.52-1.18,1.08-2.36,2.02-3.33,.71-.73,1.02-1.69,1.28-2.74,.53-2.16,1.24-4.29,2.95-5.88,.64-.59,1.07-1.26,1.15-2.17,.05-.55,.23-1.1,.43-1.61,1.24-3.21,2.82-6.26,4.47-9.28,.21-.38,.61-.73,1.01-.92,.75-.36,1.55-.79,2.35-.84,1.16-.08,2.18-.47,3.21-.9,.96-.4,1.94-.67,2.98-.71,2.21-.07,3.97-1.27,5.4-2.68,.66-.65,1.29-1.32,1.91-2,.62,.68,1.25,1.35,1.91,2,1.43,1.41,3.19,2.61,5.4,2.68,1.04,.03,2.02,.3,2.98,.71,1.03,.43,2.05,.83,3.21,.9,.8,.05,1.6,.48,2.35,.84,.4,.19,.8,.54,1.01,.92,1.65,3.01,3.23,6.06,4.47,9.28,.2,.52,.38,1.07,.43,1.61,.08,.91,.51,1.57,1.15,2.17,1.71,1.59,2.42,3.73,2.95,5.88,.25,1.04,.57,2,1.28,2.74,.94,.97,1.49,2.14,2.02,3.33,.06,.13,.11,.26,.17,.39-.03,.07-.06,.15-.09,.22-.81,1.98-1.47,4.03-2.14,6.07-.74,2.22-1.02,4.55-1.84,6.74-.79,2.11-1.4,4.26-1.26,6.56,.03,.45-.06,.94-.21,1.37-.37,1.01-.36,1.99-.15,3.03,.12,.63,.14,1.31,.05,1.94-.14,.94-.18,1.85,.01,2.78,.18,.83,.17,1.68-.04,2.5-.29,1.13-.09,2.24,.06,3.34,.57,4.14,1.19,8.26,1.26,12.46,.05,2.66-.45,5.2-1.05,7.74-.17,.74-.44,1.44-.93,2.02-.94,1.12-1.28,2.46-1.62,3.83-.71,2.89-1.47,5.77-2.19,8.66-.43,1.72-1.16,3.4-1.16,5.18,0,1.83-1.22,3.57-.36,5.46,.06,.14-.02,.37-.09,.54-.92,2.56-.49,5.41-1.67,7.93-.18,.38-.09,.92-.03,1.38,.28,2.07,.1,4.11-.32,6.13-.33,1.57-.5,3.11-.22,4.71,.14,.8,.02,1.68-.14,2.5-.26,1.31-.25,2.59,.03,3.89,.3,1.38,.32,2.78-.09,4.16-.11,.36-.28,.75-.21,1.09,.41,1.94-.16,3.89,.18,5.86,.36,2.07,.64,4.2,.44,6.32-.24,2.56,.61,5,.69,7.51,.02,.57,.19,1.11,.52,1.57,2.06,2.86,3.84,6.01,7.5,7.21,.26,.08,.5,.27,.69,.47,1.49,1.62,3.53,2.1,5.54,2.48,2.5,.48,5.08,.38,7.43-.63,2.31-.99,4.49-2.28,6.7-3.5,1.25-.68,2.29-1.62,2.92-2.94,.77-1.6,1.63-3.16,2.28-4.81,.78-1.97,1.91-3.89,1.32-6.18-.11-.42,.02-.94,.17-1.37,.43-1.16,.47-2.36,.62-3.57,.26-2.11,.75-4.18,.9-6.32,.05-.81,.46-1.61,.79-2.38,.29-.69,.68-1.37,.66-2.12-.03-2,1.64-3.28,2.08-5.08,.16-.63,1.28-.6,1.61,.02,.79,1.48,1.79,2.86,2.17,4.53,.23,1.01,.6,1.96,1.21,2.81,1,1.4,1.56,2.96,1.83,4.65,.31,1.88,1.04,3.58,2.35,5.01,.83,.91,1.35,1.96,1.7,3.17,.28,.96,.79,1.92,1.41,2.71,1.43,1.85,2.95,3.63,4.72,5.16,.77,.67,1.45,1.43,2.15,2.16,1.26,1.32,2.51,2.79,4.54,3.07,.74,.1,1.38,.53,1.98,1,2.11,1.64,4.47,2.7,7.15,2.95,.77,.07,1.44,.3,1.99,.88,1.21,1.26,3.17,.99,4.46,2.1,1.29-.56,2.08,.43,3.01,.99,.9,.53,1.83,.94,2.92,.79,1.03-.14,2.04,.09,3.07,.2,2.41,.24,4.61,1.54,7.1,1.36,2.71,1.01,5.43,1.98,8.28,2.54,.27,.05,.51,.23,.77,.33,1.95,.81,3.91,1.23,5.94,.24,.31-.15,.79-.27,1.07-.15,1.29,.58,2.14,.01,2.91-.94,.45-.56,1.12-.6,1.75-.77,2.93-.82,5.66-1.92,7.03-4.97,.18-.4,.63-.67,.92-1.03,1.55-1.86,3.26-3.62,4.58-5.63,1.77-2.71,3.78-5.31,4.9-8.42,.19-.52,.59-.95,.85-1.45,1.39-2.63,3.01-5.13,4.12-7.91,.7-1.75,1.22-3.53,1.37-5.41,.07-.93,.22-1.85,.36-2.78,.46-3.23,.96-6.45,1.4-9.68,.45-3.33,.86-6.66,1.27-9.99,.07-.55,.18-1.13,.08-1.67-.42-2.24,1.08-3.66,2.19-5.24,.27-.39,.79-.48,1.27-.47,1.85,.05,3.68,0,5.56,.33,3.1,.54,6.3,.22,9.45,.23,1.55,0,3.16-.28,4.67-.86,1.05-.4,2.1-.21,2.95,.37,1.31,.9,2.55,2.05,3.11,3.51,.69,1.8,1.23,3.74,.84,5.76-.31,1.57-.5,3.13-.04,4.71,.19,.66,.02,1.29-.44,1.83-.63,.72-1.03,1.56-1.19,2.5-.14,.78-.55,1.35-1.14,1.86-1.26,1.11-2.54,2.19-3.57,3.54-.38,.5-.97,.9-1.54,1.17-3.06,1.45-5.76,3.49-8.37,5.55-3.79,3.01-7.29,6.4-10.86,9.68-2.89,2.65-5.41,5.69-8.48,8.16-.82,.65-1.42,1.53-1.83,2.46-.8,1.79-1.83,3.47-2.61,5.26-1.75,4.01-3.28,8.12-4.04,12.46-.15,.82-.59,1.64-.54,2.44,.13,2.07-.51,4.07-.47,6.13,.02,1-.38,2.01-.64,3-.36,1.42-1.04,2.57-2.5,3.16-.59,.24-1.08,.72-1.58,1.15-1.28,1.11-2.67,2-4.25,2.66-1.29,.54-2.49,1.28-3.7,1.98-3.72,2.15-7.06,4.89-10.86,6.93-3.79,2.04-6.82,5.17-10.38,7.57-.15,.1-.29,.24-.4,.39-1.89,2.69-4.17,5.03-6.43,7.39-.32,.33-.52,.77-.77,1.17-1.07,1.76-2.31,3.36-3.96,4.67-1.61,1.27-3.05,2.75-4.55,4.15-.27,.25-.52,.56-.67,.89-.48,1.07-1.3,1.79-2.21,2.48-.51,.39-.96,.9-1.3,1.44-2.18,3.38-4.14,6.87-5.48,10.68-.46,1.32-1.27,2.58-1.45,3.93-.45,3.35-1.41,6.57-2.08,9.86-.06,.27-.12,.56-.08,.83,.28,1.98-.29,3.9-.45,5.84-.19,2.32-.27,4.64-.35,6.97-.02,.55-.01,1.17,.21,1.65,.91,2,.26,4.27,1.15,6.26-.14,3.19,.99,6.02,2.49,8.74,.37,.67,.63,1.34,.62,2.12-.03,1.47,.56,2.71,1.44,3.86,.85,1.12,1.73,2.23,2.4,3.45,1.78,3.28,4.63,5.57,7.17,8.16,.26,.26,.55,.59,.88,.67,1.64,.4,2.69,1.63,3.91,2.62,.69,.56,1.35,.88,2.3,.6,1.48-.43,2.76-.03,3.75,1.2,.3,.37,.7,.59,1.19,.68,2.29,.4,4.58,.81,6.87,1.23,1.01,.19,2.04,.32,3.01,.62,.84,.26,1.65,.25,2.49,.13,1.11-.16,2.21-.34,3.32-.46,.58-.06,1.04-.35,1.54-.6,1.98-.99,3.94-2.07,6.32-1.4,.39,.11,.92-.09,1.33-.27,2.38-1.07,4.8-2.07,6.93-3.64,.83-.61,1.68-1.19,2.7-1.46,.94-.25,1.67-.8,2.35-1.47,1.26-1.24,2.64-2.37,3.5-3.97,.35-.65,.88-1.2,1.37-1.77,.45-.52,1.04-.77,1.73-.79,2.09-.06,3.91,1.33,4.14,3.38,.19,1.73,.97,3.4,.53,5.23-.14,.58,.25,1.26,.32,1.91,.24,2.11,.85,4.22,0,6.32-.22,.55-.21,1.12,.09,1.63,.5,.87,.3,1.8,.41,2.71,.28,2.3,.94,4.56,.77,6.92-.03,.34,.29,.69,.34,1.06,.24,1.57,1.44,2.6,2.19,3.87,1.51,2.55,3.69,4.2,6.83,4.1,2.55-.08,5,.65,7.49,.97,.75,.1,1.48,.37,1.91,1.05,.73,1.19,1.69,2.34,2.05,3.65,.53,1.89,1.13,3.74,1.94,5.53,.31,.69,.37,1.53,.03,2.19-.92,1.82-1.48,3.84-3.03,5.31-1.62,1.55-3.16,3.19-4.78,4.74-.87,.84-1.89,1.53-2.75,2.38-2.72,2.68-4.69,6.06-7.77,8.4-.14,.11-.25,.28-.36,.43-1.3,1.82-2.62,3.63-3.9,5.47-1.27,1.82-2.15,3.92-3.91,5.41-.41,.34-.68,.9-.89,1.41-.8,1.99-2.29,3.64-2.84,5.76-.09,.35-.33,.67-.57,.96-1.71,2.05-2.61,4.51-3.51,6.97-.52,1.4-1.03,2.83-1.77,4.11-.97,1.66-1.44,3.44-1.71,5.3-.12,.84-.2,1.65-.73,2.36-.21,.29-.37,.68-.39,1.03-.11,1.77-.5,3.5-.74,5.25-.41,2.95-.51,5.94-.75,8.91-.19,2.34-.2,4.66,.59,6.92,.37,1.06,.77,2.12,.96,3.22,.62,3.48,1.93,6.59,4.35,9.22,.31,.33,.59,.76,.71,1.19,.25,.96,.84,1.62,1.56,2.26,1.51,1.33,2.45,3.32,4.56,3.98,.15,.05,.25,.27,.38,.41,1.29,1.37,2.86,2.39,4.38,3.47,.71,.51,1.43,.81,2.3,.9,1.49,.15,2.99,.29,4.44,.62,3.74,.86,7.58,.98,11.35,1.6,1.49,.25,2.73-.44,4.09-.7,1.38-.27,2.73,.35,4.17-.08,1.45-.42,2.67-1.19,4.01-1.78,4.28-1.89,7.94-4.48,10.63-8.35,.16-.23,.33-.48,.56-.62,1.73-1.11,2.66-2.8,3.53-4.59,.37-.76,.79-1.47,.93-2.31,.14-.85,.43-1.63,1.1-2.21,.82-.71,1.18-1.63,1.31-2.7,.1-.73,.37-1.44,.55-2.16,.64-2.53,1.5-4.98,1.89-7.59,.27-1.84,.39-3.7,.78-5.5,.3-1.38,.47-2.74,.58-4.14,.14-1.66-.09-3.37,.6-4.98,.13-.31,.07-.74,0-1.1-.2-1.23,.03-2.44,.29-3.61,.29-1.3,.51-2.53-.03-3.83-.2-.49-.19-1.11-.12-1.66,.44-3.56,0-7.06-.44-10.58-.31-2.5-.56-5.01-.63-7.53-.05-1.76,.13-3.55,.44-5.28,.42-2.45,2.39-3.31,4.56-2.12,1.71,.94,3.77,1.1,5.28,2.47,.12,.11,.36,.14,.54,.13,1.84-.06,3.56,1.3,5.48,.44,.21-.1,.56,.01,.81,.11,.98,.39,2.01,.39,3.03,.47,2.34,.18,4.43,1.47,6.79,1.61,.08,0,.17,.08,.23,.15,.53,.66,1.31,.58,2.02,.77,1.42,.39,2.96,.41,4.24,1.32,.35,.25,.9,.33,1.34,.31,1.63-.1,3.09,.64,4.65,.9,2.13,.35,2.73,2.65,4.37,3.67,.06,.04,.09,.17,.09,.26,.1,2.13,.88,4.18,.45,6.39-1.02,5.22-1.93,10.47-2.16,15.8-.09,2.13-.09,4.27-.13,6.41,0,.18,.05,.37,.08,.55,.74,4.41,1.49,8.83,2.23,13.24,.36,2.13,.8,4.22,2.07,6.04,.21,.3,.34,.67,.42,1.03,.47,2.23,1.47,4.22,2.66,6.14,.79,1.29,1.4,2.64,1.44,4.19,.02,.76,.25,1.45,.7,2.09,1.32,1.88,1.98,3.98,2.11,6.27,.12,2.14,.37,4.28,1.33,6.25,.46,.94,.67,1.92,.45,2.99-.21,1.07,.08,2.03,.82,2.85,.5,.55,1.02,1.12,1.05,1.93,.04,.99,.49,1.78,1.1,2.52,.36,.44,.66,.93,.67,1.51,.03,1.2,.78,2.12,1.38,3,1.91,2.83,3.14,5.92,3.69,9.26,.48,2.95,.87,5.91,.7,8.92-.05,.93,0,1.87,.12,2.8,.38,3.23-.22,6.54,.79,9.72,.03,.08,0,.19,0,.28-.06,4.3,.74,8.54,.78,12.85,.02,3.04,.76,6.1,1.67,9.05,.31,.99,.46,1.98,.44,3.03-.03,1.69,.11,3.36,.95,4.9,.18,.32,.26,.7,.35,1.06,.36,1.44,.84,2.84,1,4.35,.14,1.25,.58,2.47,1.28,3.64,.99,1.66,1.37,3.64,2.46,5.32,.93,1.44,1.81,2.81,3.55,3.41,.6,.21,1.1,.69,1.65,1.05,2.18,1.43,4.45,1.81,6.88,.63,.75-.37,1.53-.75,2.34-.93,2.27-.51,3.75-1.99,4.98-3.81,.58-.85,1.05-1.78,1.7-2.57,1.69-2.06,2.81-4.36,3.33-6.96,.11-.54,.33-1.07,.54-1.59,1.07-2.62,1.58-5.34,1.49-8.17-.01-.37-.14-.81,0-1.11,.97-1.93,.61-4.04,.87-6.06,.26-2.04,.58-4.1,.49-6.13-.15-3.38,.07-6.72,.4-10.06,.09-.93,.14-1.9-.3-2.75-.68-1.3-.77-2.67-.74-4.09,.04-2.08-.25-4.09-1.05-6.03-.28-.68-.44-1.43-.56-2.16-.5-3.05-1.64-5.88-2.78-8.73-.86-2.15-1.87-4.29-2.5-6.49-.87-3.01-2.54-5.59-3.8-8.38-.62-1.37-1.1-2.76-1.47-4.18-.4-1.54-.01-3.11,1.34-4.01,1.21-.8,2.64-1.52,4.04-1.71,2.26-.3,4.4-.73,6.41-1.83,.48-.26,1.05-.4,1.6-.49,1.07-.16,1.91-.7,2.72-1.35,1.24-.99,2.53-1.92,3.76-2.93,.5-.41,1.13-.85,1.32-1.41,.57-1.64,1.74-2.85,2.68-4.22,.31-.46,.66-.97,.73-1.49,.19-1.45,.98-2.62,1.62-3.86,.72-1.41,1.56-2.73,1.62-4.38,.01-.35,.2-.72,.39-1.04,.59-1,.85-2.1,.82-3.22-.07-2.37,.49-4.62,1.1-6.87,.12-.45,.39-.94,.13-1.35-.69-1.1-.45-2.13,.02-3.2,.31-.71,.18-1.47,.16-2.22-.03-1.02-.09-2.05-.1-3.07-.01-1.61-.61-3.09-.95-4.63-.36-1.61,.12-3.38-.54-4.98-1.05-2.53-1.32-5.21-1.74-7.87-.06-.37-.01-.84-.23-1.07-1.19-1.26-1.25-2.86-1.53-4.41-.1-.54-.31-1.1-.62-1.55-.75-1.1-1.33-2.24-1.52-3.57-.06-.45-.29-.89-.5-1.3-1.85-3.45-3.09-7.18-5.1-10.56-.24-.4-.33-.87-.53-1.3-.32-.67-.59-1.39-1.03-1.98-1.7-2.25-2.81-4.84-4.28-7.22-.9-1.46-.31-3.74,1.14-4.69,1.64-1.09,3.45-1.19,5.37-1.07,2.79,.17,5.61,.24,8.16-1.23,2.26-1.3,4.93-.94,7.29-1.86,.16-.06,.38-.01,.55,.03,1.71,.47,3.46,.86,4.62,2.42,.61,.82,1.37,1.55,1.92,2.41,.77,1.19,1.55,2.33,2.83,3.04,.3,.17,.53,.51,.72,.82,1.26,2.06,2.77,3.69,5.46,3.55,.17,0,.34,.14,.52,.18,3.07,.8,6.34-.74,7.64-3.59,.31-.68,.54-1.41,.95-2.01,.76-1.11,1.18-2.32,1.41-3.62,.26-1.47,.67-2.9,1.19-4.31,.41-1.12,.6-2.33,.85-3.51,.57-2.71,1.65-5.32,1.91-8.11,.74-1,1-2.19,1.38-3.35,.77-2.29,2.95-3.07,4.87-1.65,1.26,.93,2.44,2.02,3.48,3.2,.69,.78,1.4,1.45,2.22,2.08,1.7,1.3,3.28,2.76,5.44,3.29,.17,.04,.33,.17,.48,.29,1.29,1.09,3,1.52,4.23,2.72,.41,.4,1,.53,1.56,.53,1.71-.02,3.3,.58,4.95,.91,.54,.11,1.2,.42,1.62,.23,1.57-.7,3.12-.35,4.69-.18,.57,.06,1.12,0,1.64-.26,.51-.25,1.05-.4,1.63-.32,.87,.12,1.64-.22,2.46-.41,1.85-.44,3.39-1.5,5.09-2.24,1.99-.86,3.38-2.34,4.65-3.91,1.12-1.38,2.42-2.64,3.37-4.1,1.02-1.57,2.11-3.06,3.35-4.44,.51-.57,.99-1.16,.88-1.98-.12-.94,.29-1.58,.94-2.21,1.16-1.13,2.11-2.37,1.84-4.17-.09-.58,.35-1.03,.59-1.54,.77-1.6,1.52-3.22,1.32-5.07-.11-.99,.21-1.84,.75-2.63,.66-.96,.82-1.99,.78-3.18-.05-1.76,.03-3.56,.38-5.28,.4-1.96,.53-3.87,.29-5.84-.08-.65-.12-1.3-.1-1.95,.1-3.18,1.1-6.25,1.1-9.45,0-.18,.07-.37,.16-.53,.92-1.61,.98-3.63,2.38-5.03,.24-.24,.4-.68,.38-1.02-.09-1.77,.78-3.27,1.43-4.79,.63-1.48,1.17-2.95,1.32-4.54,.14-1.54,.9-2.84,1.58-4.16,.16-.32,.43-.71,.73-.81,2.29-.74,4.61-1.72,7.02-.53,.91,.44,1.66,.48,2.65,.19,1.41-.43,2.92-.68,4.4-.75,1.7-.09,3.19-.78,4.28-1.83,1.29-1.26,2.73-2.24,4.2-3.22,.73-.49,1.39-1.01,1.6-1.86,.73-2.97,3.15-5.35,2.97-8.63-.01-.17,.08-.37,.16-.53,1.12-2.31,1.15-4.89,1.59-7.34,.67-3.66,.9-7.4,1.31-11.1,.24-2.23,.56-4.45,.66-6.68,.11-2.5-.31-5.01-.07-7.52,.03-.36-.05-.75-.16-1.1-.84-2.73-.45-5.56-.72-8.33-.2-2.09,.98-3.51,2.4-4.81,1.35-1.24,2.88-1.06,4.48-.68,1.11,.26,2.18,.48,2.98,1.38,1.83,2.08,3.14,4.42,3.48,7.2,.29,2.41,.39,4.84,.69,7.24,.33,2.69,.41,5.4,.71,8.08,.24,2.14,.38,4.27,.38,6.42,0,2.15,.05,4.3,0,6.45-.15,5.86,1.19,11.49,2.62,17.09,.46,1.79,1.2,3.54,2.25,5.11,.62,.93,1.15,1.92,1.74,2.86,1.03,1.65,1.52,3.63,3.13,4.92,.27,.21,.38,.63,.53,.98,1.21,2.85,2.93,5.17,6.08,6.11,.51,.15,.99,.53,1.41,.9,1.32,1.15,3.07,.61,4.53,1.19,.13,.05,.39-.05,.52-.16,.88-.79,2.12-.78,3.03-1.32,1.81-1.07,3.62-2.28,5.06-3.79,1.04-1.1,1.7-2.67,1.94-4.29,.1-.64,.14-1.33,.39-1.91,1.38-3.18,1.51-6.55,1.36-9.89-.13-2.77-.39-5.52,0-8.29,.08-.55,.06-1.13-.03-1.68-.29-1.93-.62-3.85-.95-5.78-.16-.92-.35-1.84,0-2.77,.31-.83,0-1.65-.08-2.48-.24-2.39-1.45-4.65-.93-7.15,.05-.25-.08-.55-.15-.82-.7-2.73-.84-5.54-.97-8.31-.16-3.46-1.4-6.78-1.14-10.27,.01-.17-.11-.36-.15-.54-.31-1.27-.61-2.54-.93-3.81-.83-3.24-1.07-6.61-2.18-9.79-.28-.8-.2-1.66-.02-2.5,.19-.85,.86-1.28,1.66-1.04,.36,.11,.71,.25,1.04,.42,2.31,1.24,4.51,2.6,6.56,4.26,4.13,3.34,8.05,6.95,12.55,9.85,2.83,1.82,5.85,3.26,8.68,5.05,.46,.29,1.03,.43,1.57,.58,2.27,.64,4.65,.29,6.94,.78,.25,.05,.6,0,.81-.14,.95-.63,1.91-.49,2.95-.25,.83,.19,1.68-.08,2.4-.56,.76-.5,1.54-.42,2.41-.38,2.22,.12,4.4,.05,6.47-1.14,2.18-1.25,4.52-2.2,6.66-3.56,.54-.34,1.17-.69,1.79-.75,2.91-.32,4.65-2.45,6.18-4.43,2.21-2.86,3.82-6.16,6.06-9.05,.95-1.23,1.46-2.81,2.15-4.23,.32-.67,.57-1.38,.91-2.04,1.05-2.08,2.13-4.14,3.17-6.23,.29-.58,.57-1.21,.63-1.84,.36-4.1,.26-8.2-.28-12.27-.29-2.22-.88-4.39-1.37-6.58Zm-441.33-297.96c1.2-.77,2.51-1.17,3.96-1.23,3.48-.14,6.89,.39,10.3,.91,1.2,.18,2.35,.58,3.43,1.19,.6,.34,1.09,.7,1.5,1.09-.81-.04-1.63-.06-2.45-.02-2.14,.09-4.32-.09-6.4,.51-2.15,.63-4.28-.31-6.4,.14-.18,.04-.38,.03-.55,.09-1.51,.47-2.96,.1-4.4-.34-.2-.06-.4-.13-.6-.19,.24-.86,.79-1.62,1.61-2.15Zm-61.72,2.26c2.09,.15,4.09-.3,6.1-.7,3.68-.73,7.41-.8,11.13-1.12,2.56-.12,5.01,.45,7.47,1.01,2.06,.47,3.47,1.61,4.48,3.22-.43-.04-.87-.08-1.31-.17-.85-.16-1.64,0-2.48,.18-2.4,.54-4.59,1.63-6.62,2.88-.62,.38-1.26,.73-1.9,1.07-1.19-1.32-2.42-2.63-4.12-3.25-2.27-.82-4.63-1.39-6.97-2-.61-.16-1.31-.12-1.95-.02-1.21,.2-2.41,.25-3.62,.04-.71-.12-1.36-.05-1.99,.13,.18-1,.59-1.38,1.79-1.29Zm-196.73-.8c2.46-.56,4.91-1.13,7.47-1.01,3.71,.32,7.45,.39,11.13,1.12,2.01,.4,4.01,.84,6.1,.7,1.19-.08,1.61,.3,1.79,1.29-.63-.19-1.29-.26-1.99-.13-1.21,.21-2.41,.16-3.62-.04-.64-.1-1.34-.14-1.95,.02-2.34,.6-4.7,1.17-6.97,2-1.71,.62-2.95,1.94-4.14,3.27-.66-.35-1.31-.7-1.94-1.09-2.03-1.25-4.22-2.35-6.62-2.88-.84-.19-1.63-.34-2.48-.18-.41,.08-.82,.13-1.23,.16,1.01-1.61,2.42-2.74,4.48-3.21Zm-51.28-1.77c3.41-.52,6.82-1.05,10.3-.91,1.45,.06,2.76,.45,3.96,1.23,.82,.53,1.37,1.28,1.61,2.13-.22,.07-.44,.15-.67,.22-1.44,.44-2.89,.81-4.4,.34-.18-.05-.37-.05-.55-.09-2.12-.45-4.25,.48-6.4-.14-2.07-.6-4.25-.42-6.4-.51-.79-.03-1.59-.02-2.37,.02,.41-.39,.9-.75,1.5-1.09,1.07-.61,2.22-1.01,3.43-1.19Zm14.22,124.99c-1.2,.77-2.51,1.17-3.96,1.23-3.48,.14-6.89-.39-10.3-.91-1.2-.18-2.35-.58-3.43-1.19-.6-.34-1.09-.7-1.5-1.09,.81,.04,1.63,.06,2.45,.02,2.14-.09,4.32,.09,6.4-.51,2.15-.63,4.28,.31,6.4-.14,.18-.04,.38-.03,.55-.09,1.51-.47,2.96-.1,4.4,.34,.2,.06,.4,.13,.6,.19-.24,.86-.79,1.62-1.62,2.15Zm61.72-2.26c-2.09-.15-4.09,.3-6.1,.7-3.68,.73-7.41,.8-11.13,1.12-2.56,.12-5.01-.45-7.47-1.01-2.06-.47-3.47-1.61-4.48-3.22,.43,.04,.87,.08,1.31,.17,.85,.16,1.64,0,2.48-.18,2.4-.54,4.59-1.63,6.62-2.88,.62-.38,1.26-.73,1.9-1.07,1.19,1.32,2.42,2.63,4.12,3.25,2.27,.82,4.63,1.39,6.97,2,.61,.16,1.31,.12,1.95,.02,1.21-.2,2.41-.25,3.62-.04,.71,.12,1.36,.05,1.99-.13-.18,.99-.59,1.38-1.79,1.29Zm196.73,.8c-2.46,.56-4.91,1.13-7.47,1.01-3.71-.32-7.45-.39-11.13-1.12-2.01-.4-4.01-.84-6.1-.7-1.19,.08-1.61-.3-1.79-1.29,.63,.19,1.29,.26,1.99,.13,1.21-.21,2.41-.16,3.62,.04,.64,.1,1.34,.14,1.95-.02,2.34-.6,4.7-1.17,6.97-2,1.71-.62,2.95-1.94,4.14-3.27,.66,.35,1.31,.7,1.94,1.09,2.03,1.25,4.22,2.35,6.62,2.88,.84,.19,1.63,.34,2.48,.18,.41-.08,.82-.13,1.23-.16-1.01,1.61-2.42,2.74-4.48,3.21Zm51.28,1.77c-3.41,.52-6.82,1.05-10.3,.91-1.45-.06-2.76-.45-3.96-1.23-.82-.53-1.37-1.28-1.61-2.13,.22-.07,.44-.15,.67-.22,1.44-.44,2.89-.81,4.4-.34,.18,.05,.37,.05,.55,.09,2.12,.45,4.25-.48,6.4,.14,2.07,.6,4.25,.43,6.4,.51,.79,.03,1.59,.02,2.37-.02-.41,.39-.9,.75-1.5,1.09-1.07,.61-2.22,1.01-3.43,1.19Z"/></g></svg>