<?xml version="1.0" encoding="UTF-8"?><svg id="Layer_2" xmlns="http://www.w3.org/2000/svg" viewBox="0 0 1318.82 1577.1" fill="#686928">
    <g id="Layer_1-2">
        <path d="M183.89,1271.09c2.58,6.01,3.04,11.1,2.94,16.36-.06,3.49-1.05,6.44-2.68,9.35-3.6,6.42-8.45,10.8-15.51,11.79-4.93,.69-9.56-.58-14-2.73-2.76-1.34-4.07-4.19-5.48-6.86-.96-1.82-1.78-3.71-2.73-5.72-2.09,.12-3.85-.01-5.51,.36-4.79,1.05-9.08-.61-13.3-2.65-2.95-1.43-4.77-4.17-5.95-7.3-1.21-3.23-3.28-4.03-6.25-3.7-4.8,.53-9.6,.37-14.32-.8-2.58-.64-4.68,.06-6.54,2.12-8.45,9.36-18.98,10.9-30.28,9.31-1.48-.21-2.98-.79-4.34-1.5-6.24-3.29-8.54-9.48-5.36-17.32,.95-2.35,2.59-4.37,3.87-6.58,.87-1.51,.32-3.57-1.18-4.14-1.43-.55-2.93-.99-4.43-1.18-1.38-.18-2.53,.57-3.3,1.88-.12,.2-.19,.43-.29,.64-4.73,10.79-12.73,17.09-23.23,19.93-2.33,.63-4.68,1.22-7.05,1.66-8.06,1.49-14.39-3.93-17.21-9.13-2.18-4.02-2.55-8.35,.13-12.72,2.6-4.24,5.56-7.85,9.8-10.18,1.35-.74,2.73-1.65,3.74-2.84,2.17-2.56,4.96-3.74,7.82-4.94,4.59-1.93,5.05-3.13,3.39-7.92-3.85-11.11-3.52-11.13-3.95-22.8-.32-8.47,2.98-15.07,7.23-21.49,.64-.96,1.46-1.77,2.12-2.72,1.53-2.19,2.29-4.63,1.48-7.35-.7-2.35-.66-4.6-.13-6.99,.79-3.49,2.57-5.94,5.55-7.45,5.05-2.56,10.24-4.18,15.86-2.71,3.9,1.02,7.79,.89,11.71,.13,12.23-2.38,24.46-4.73,36.7-7.05,5.58-1.06,11.19-1.99,16.77-3.08,4.07-.79,8.17-1.52,12.16-2.68,5.96-1.73,12.01-2.35,18.13-2.63,4.14-.19,8.28-.35,12.4-.75,2.59-.25,5.14-.92,7.71-1.42,1.29-.25,2.57-.57,3.86-.76,9.29-1.35,18.6-2.59,27.88-4.03,5.61-.87,11.19-2,16.77-3.09,.56-.11,1.05-.72,1.56-1.09-1.96-3.58-3.31-4.59-6.54-4.41-1.72,.1-3.43,.64-5.12,1.06-16.39,4.02-32.77,8.13-49.65,9.05-3.7,.2-7.38,1.04-11.07,1.11-5.01,.1-10.02-.28-15.03-.41-15.71-.41-31.43-.41-47.11-1.34-7.8-.46-15.68-1.21-23.33-3.45-6.74-1.97-13.57-3.58-20.34-5.39-6.62-1.78-12.95-4.23-18.2-9.26-1.14-1.09-2.53-1.86-3.83-2.74-6.14-4.19-7.09-11.64-5.76-17.52,.33-1.46,1.42-3.09,2.59-3.9,5.33-3.67,10.62-7.53,17.12-8.49,1.94-.29,3.87-.8,5.76-1.36,11.16-3.31,22.48-5.59,34-6.97,4.98-.6,9.88-1.53,14.93-1.45,3.24,.05,6.49-1.01,9.75-1.13,6.76-.24,13.53-.25,20.3-.24,7.86,.02,15.72,.18,23.58,.27,.87,.01,1.75,0,2.62-.05,1.09-.07,2.46-.18,2.54-1.57,.06-1.01-.54-2.29-1.21-3.06-1.49-1.72-3.14-3.3-4.86-4.76-4.81-4.08-9.68-8.07-14.53-12.1-.17-.14-.36-.28-.5-.46-6.64-8.02-15.37-13.24-22.81-20.16-2.64-2.45-4.95-5.32-7.38-8.02-1.82-2.03-3.59-4.1-5.59-6.39-1.52,.48-3.02,.74-4.32,1.42-2.95,1.55-5.82,3.27-8.69,5-11.51,6.93-23.3,6.98-35.37,1.9-5.91-2.49-7.77-10.66-6.63-14.78,.46-1.65,1.83-3.21,3.15-4.3,1.35-1.11,3.14-1.6,4.74-2.35,1.8-.85,3.79-1.4,5.37-2.6,6.09-4.6,12.99-5.18,20.04-5.26,1.96-.02,3.93,.12,5.87-.12,2.1-.26,2.98-1.88,2.4-4.09-1.08-4.08-2.23-8.14-3.38-12.2-1.05-3.69-1.42-7.4-.79-11.25,.27-1.62,.47-3.36,.25-4.96-.8-5.65,.57-10.83,2.47-15.95,.08-.22,.13-.45,.2-.68,2.44-7.57,1.72-8.52-5.88-7.92-11.58,.92-22.65-1.22-33-7.02-2.7-1.51-5.16-3.55-7.65-5.45-1.93-1.47-2.66-3.59-2.59-6.18,.16-5.74,2.84-10.41,5.47-15.01,1.42-2.48,4.08-3.51,6.79-3.82,11.06-1.26,21.8-.54,31.58,6.11,2.59,1.76,5.19,3.53,7.9,5.07,4.08,2.32,6.3,2.03,8.2-2.15,3.62-7.97,9.73-13.94,13.89-21.45,1.46-2.64,3.66-4.56,6.3-6.04,4.44-2.5,8.66-5.45,12.99-8.17,.93-.58,1.89-1.24,2.92-1.46,5.56-1.19,11.14-2.3,16.73-3.33,1.27-.23,2.62-.14,3.91-.01,7.61,.72,15.21,1.44,22.81,2.29,1.7,.19,3.35,.9,5.01,1.4,3.15,.93,6.26,2.16,9.46,2.74,2.39,.43,4.66,.88,6.89,2.01,3.14,1.6,3.95,1.22,6.12-1.6,2.38-3.08,4.85-6.07,7.19-9.18,2.27-3.03,5.33-4.76,8.31-6.77,6.8-4.59,13.51-2.95,20.06,.11,3.26,1.52,4.43,5.29,4.41,8.95-.05,9.36-3.09,17.17-10.89,22.06-2.26,1.42-4.71,2.5-7.02,3.84-2.93,1.69-3.38,3.42-1.68,6.29,.71,1.19,1.51,2.35,2.43,3.35,3.55,3.81,8.22,4.1,11.66,.17,3.29-3.76,6.46-7.79,8.96-12.19,3-5.25,7.03-8.05,12.43-9.47,7.03-1.85,13.39-.91,19.32,3.63,2.49,1.91,5.03,3.79,7.7,5.38,4.92,2.92,7.85,2.37,11.72-1.95,2.28-2.55,4.51-5.15,6.69-7.81,6.07-7.4,13.25-13.01,21.93-16.18,4.05-1.48,7-4.78,10.43-7.27,.84-.61,1.36-1.72,2.2-2.82-1.15-1.67-2.16-3.18-3.22-4.65-4.48-6.26-5.48-12.78-1.28-19.7,.48-.79,.96-1.58,1.38-2.28,3.2-2.17,6.77-2.04,10.22-2.5,1.51-.2,3.06-.15,4.56-.42,1.92-.33,3.11-1.65,3.42-3.77,.37-2.58,.78-5.16,.97-7.76,.38-5.35,3-8.85,7.55-10.42,3.1-1.07,6.35-1.94,9.58-2.14,5.87-.37,10.58,2.97,14.39,7.33,2.81,3.22,4.99,7.17,7.06,11.05,1.33,2.49,2.56,4.87,4.6,6.8,2.3,2.17,4.49,4.54,6.4,7.1,2.74,3.67,6.35,5.74,10.25,7.34,4.31,1.77,8.39,3.93,12.21,6.77,1.59,1.18,3.49,1.94,5.32,2.65,4,1.54,7.25,4.16,10.28,7.37,4.72,5,7.85,11.33,12.15,16.67,2.58,3.2,4.77,6.77,7.26,10.07,1.42,1.88,2.45,3.86,2.86,6.29,.78,4.67,1.9,9.28,2.48,13.98,1.05,8.36,.05,16.55-2.32,24.57-.87,2.92-1.56,5.91-2.27,8.88-.74,3.09,.27,5.59,2.38,7.65,2.92,2.85,5.84,5.72,8.81,8.5,3.48,3.25,6.94,6.52,10.56,9.58,3.1,2.62,6.35,5.03,9.63,7.38,3.85,2.76,7.35,5.89,10.51,9.56,2.07,2.4,4.58,4.35,6.91,6.48,.83,.76,1.77,1.41,2.56,2.22,7.61,7.9,16.47,14.02,24.93,20.72,1.58,1.25,3.08,2.69,4.8,3.65,6.29,3.53,11.46,8.62,16.66,13.69,2.43,2.37,5,4.59,7.57,6.79,.47,.4,1.22,.4,2.2,.68,2.81-2.62,4.68-6,5.45-10,.79-4.1,2.64-7.45,5.16-10.52,2.17-2.65,4.37-5.3,6.27-8.18,1.98-3.01,4.72-4.93,7.48-6.81,3.77-2.57,5.5-6.17,4.66-10.84-.7-3.89-.3-7.53,.83-11.2,1.57-5.14,1.42-10.19-.38-15.29-1.01-2.86-1.47-5.94-2.34-8.86-.67-2.25-1.27-4.63-2.43-6.57-5.57-9.25-8.78-19.54-11.75-29.98-1.09-3.84-2.61-7.52-3.81-11.33-.99-3.13-2.26-6.28-2.57-9.51-.66-6.9-3-13.35-4.11-20.11-.56-3.4-2.1-5.13-5.53-5.82-7.27-1.46-14.4-3.76-21.62-5.52-4.2-1.03-7.82-3.07-10.67-6.5-2.84-3.42-6.3-4.61-10.45-4.95-13.81-1.12-27.21-4.01-39.37-11.79-2.31-1.48-4.43-2.96-5.45-5.84-2.45-6.89,2.62-15.63,8.3-16.75,8.62-1.7,17.13-3.58,25.94-1.51,2.07,.48,4.38,.21,6.52-.17,6.87-1.23,13.58-3.34,20.52-4.22,2.8-.36,4.93-2.06,5.46-5.3,.73-4.45,3.26-7.69,5.94-10.83,3.72-4.34,7.27-8.75,9.81-14.09,1.87-3.93,1.93-7.29,.06-11.41-2-4.41-4.9-7.82-7.92-11.2-3.25-3.64-5.99-7.47-6.99-12.58-.61-3.13-2.44-4.46-5.53-4.96-6.44-1.04-12.83-2.59-19.16-4.27-2.67-.71-5.2-.47-7.77-.07-8.1,1.26-16.12,.38-24.12-.97-5.56-.94-9.03-4.5-10.48-10.3-1.4-5.61,.52-10.66,5.35-13.13,10.1-5.15,20.44-9.63,31.78-10.36,1.53-.1,3.05-.32,4.58-.35,5.64-.08,10.56-1.45,14.53-6.5,2.7-3.44,6.84-5.01,10.95-6.05,5.1-1.29,10.21-2.5,15.29-3.86,3.16-.85,6.27-1.91,9.38-2.86,2.1-6.39,3.55-12.58,4.6-18.86,.97-5.85,2.22-11.55,4.37-17.07,1.95-5.01,3.51-10.24,4.84-15.49,1.94-7.63,5.04-14.66,8.72-21.41,1.8-3.3,3.46-6.58,3.98-10.44,.16-1.16,.48-2.33,.89-3.42,2.56-6.85,2.75-13.74,1.08-20.93-.72-3.11-.56-6.64-.08-9.86,.53-3.53-.4-6.02-2.77-8.17-.5-.46-.88-1.12-1.44-1.45-6.54-3.82-10.61-10.34-15.26-16.25-2.32-2.95-4.02-6.19-4.57-10.08-.46-3.2-2.1-5.71-4.16-7.9-1.01-1.07-2.4-1.36-3.64-.55-1.48,.97-2.88,2.14-4.2,3.35-4.16,3.81-8.16,7.84-12.44,11.49-2.73,2.33-5.87,4.07-8.76,6.19-11.41,8.36-22.2,17.61-32.88,27.01-2.03,1.79-3.96,3.77-5.66,5.92-2.91,3.65-6.43,6.46-10.18,8.87-3.98,2.55-7.58,5.54-11.03,8.85-5.07,4.87-10.19,9.71-15.54,14.21-4.75,4-5.55,8.9-3.46,14.49,1.91,5.1,2.85,10.41,3.9,15.74,.95,4.77,.8,9.4-.2,14.11-.78,3.69-1.38,7.43-2,11.16-.48,2.87-1.59,5.34-3.23,7.66-4.66,6.58-9.15,13.3-13.79,19.9-4.68,6.66-9.83,12.5-17.56,15.29-4.7,1.7-8.97,4.79-13.45,7.24-1.37,.75-2.72,1.57-4.16,2.11-2.99,1.11-5.4,2.99-7.41,5.61-.97,1.27-2.21,2.3-3.33,3.43-4,4.03-7.78,8.09-10.08,13.77-2.21,5.47-6.07,9.73-10.8,13.07-4.99,3.53-10.19,3.87-15.69,2.19-1.47-.45-2.86-1.17-4.29-1.78-3.82-1.64-5.86-4.66-6.28-9.14-.29-3.06-.83-6.09-1.43-9.1-.46-2.35-1.91-3.57-4.2-3.72-2.83-.19-5.64-.59-8.47-.82-2.21-.18-4.24-.43-5.83-2.57-1.82-2.45-3.43-4.85-3.58-8.17-.23-5.2,.63-9.93,4.27-13.68,1.25-1.29,2.71-2.51,2.34-5.21-4.35-3.74-8.79-7.77-14.6-9.77-6.8-2.34-12.14-7.39-17.29-12.53-2.89-2.89-5.47-6.14-8.26-9.15-1.23-1.32-2.63-2.44-3.96-3.65-1.7-1.55-3.64-1.72-5.52-.69-2.53,1.37-4.95,3-7.41,4.53-2.46,1.53-4.75,3.56-7.38,4.53-8.77,3.22-17.18,2.63-24.6-4.11-.99-.9-1.99-1.97-2.56-3.2-2.23-4.75-6.16-8-8.95-12.23-.25-.38-.57-.72-.86-1.08-3.84-4.73-7.98-3.09-10.9-.19-5.27,5.23-4.76,8.12,1.77,11.15,3.41,1.58,6.7,3.12,9.27,6.4,4.57,5.82,6.02,12.47,5.64,19.83-.2,3.95-2.03,6.58-5.49,8.02-6.92,2.88-13.54,3.03-20.07-1.42-4.87-3.33-9.4-6.85-12.16-12.59-1-2.08-2.58-3.82-4.9-4.96-3.16,.91-6.45,2.1-9.84,2.79-3.46,.7-6.75,1.73-10,3.24-1.94,.9-4.26,.93-6.42,1.16-5.86,.62-11.76,.97-17.6,1.74-4.84,.64-9.57,.38-14.33-.66-6.4-1.39-12.79-2.51-18.05-7.4-1.93-1.8-4.57-2.71-6.88-4.03-3.55-2.02-6.63-4.55-8.4-8.65-.55-1.28-1.23-2.57-2.1-3.6-4.16-4.91-7.76-10.29-10.85-16.02-1.63-3.03-4.47-3.44-6.74-2.27-2.36,1.21-4.64,2.66-6.8,4.27-10.36,7.74-21.94,8.63-33.92,7.31-3.76-.41-6.62-2.38-8.16-6.2-1.31-3.24-2.62-6.51-3.61-9.89-1.2-4.1,.06-7.47,3.35-9.89,9.83-7.21,20.75-10.98,32.5-11.85,2.57-.19,5.19,.44,7.79,.75,2.16,.26,4.34,.86,6.29-.87,1-2.38,.5-4.57-.59-6.77-2.43-4.9-3.93-9.92-2.9-15.7,.44-2.47-.06-5.22-.48-7.78-.48-2.9-.18-5.67,.46-8.45,1.07-4.6,2.18-9.18,3.24-13.78,.15-.65,.09-1.37,.11-1.9-1.14-2.22-2.97-1.97-4.69-1.99-3.49-.04-7,.13-10.46-.21-2.58-.25-5.26-.78-7.63-1.88-5.21-2.41-10.26-5.24-15.37-7.92-1.93-1.01-2.89-2.68-3.12-5.04-.72-7.3,2.25-12.51,8.61-14.7,2.5-.86,5.01-1.68,7.55-2.36,8.04-2.13,15.62-.28,22.88,3.5,3.74,1.95,7.32,4.23,10.97,6.37,3.67,2.15,4.92,2.22,7.35-1.15,5.88-8.15,13.39-14.32,20.87-20.41,4.38-3.56,8.6-7.23,12.54-11.32,.78-.81,1.63-1.65,2.6-2.14,3.23-1.64,5.76-4.18,8.19-6.94,1.19-1.35,2.81-2.25,4.07-3.56,1.88-1.95,3.69-3.99,5.37-6.14,.92-1.18,.12-3.01-1.28-3.25-.86-.14-1.73-.23-2.6-.22-12.88,.18-25.76,.7-38.63,.5-12.22-.19-24.33-2.04-36.48-3.57-12.02-1.51-23.4-5.72-35.2-8.07-5.66-1.13-10.64-4.21-15.44-7.57-1.96-1.37-3.18-3.38-3.47-5.8-.76-6.29,.6-11.88,5.54-15.78,7.1-5.6,14.59-10.11,23.25-12.68,9.07-2.68,18.27-4.69,27.44-6.7,6.36-1.39,13.02-1.18,19.55-1.65,.64-.05,1.31,.19,1.95,.16,5.84-.29,11.5-2.03,17.53-1.2,5.8,.8,11.77,.33,17.66,.19,8.27-.2,16.53-.97,24.79-.83,6.75,.11,13.59,.62,20.21,1.99,12.41,2.57,24.72,5.78,37.02,8.94,4.48,1.15,8.64,1.46,12.24-2.19,.53-.54,.91-1.72,.76-2.46-.15-.74-.95-1.59-1.65-1.86-1.21-.47-2.55-.57-3.84-.76-1.29-.2-2.68-.05-3.86-.53-4.37-1.76-8.95-2.06-13.49-2.53-6.07-.63-12.17-.95-18.24-1.52-3.03-.29-6.06-.78-9.07-1.32-3.01-.53-5.98-1.61-8.99-1.77-7.61-.39-15.09-2.57-22.78-1.98-1.49,.11-3.04-.32-4.54-.62-7.72-1.53-15.42-3.16-23.15-4.63-3.65-.7-7.35-1.09-11.02-1.67-2.16-.34-4.37-.52-6.45-1.2-9.88-3.2-20.19-3.87-30.25-6.04-3.12-.67-6.53-.08-9.76,.31-4.62,.56-9.01,.4-13.51-1.33-4.74-1.82-6.98-5.31-7.84-10.31-.16-.92-.38-1.95-.17-2.82,1.38-5.78-1.35-9.67-4.34-14.09-3.54-5.22-6.96-11.02-5.99-18.24,.06-.46,.02-.95-.03-1.42-.87-7.99,.31-15.56,3.76-22.71,2.09-4.34,1.83-6.69-3.41-8.43-3.66-1.22-6.83-2.99-9.49-5.96-.74-.83-1.73-1.51-2.72-1.95-3.85-1.7-6.31-4.97-8.55-8.55-3.33-5.34-3.01-11.37,.83-16.35,3.95-5.12,8.91-7.57,15.05-6.64,6.05,.92,12.25,1.68,17.46,5.46,5.63,4.08,10.99,8.57,13.41,15.98,.69,2.13,2.22,2.73,4.24,2.27,1.07-.24,2.13-.55,3.15-.96,1.95-.78,2.5-2.53,1.38-4.57-.78-1.43-1.78-2.7-2.59-4.11-5.16-8.9-1.48-18.67,7.99-20.82,11.13-2.53,21.37-.38,29.96,8.07,2.89,2.84,5.7,3.76,9.48,2.84,4.26-1.04,8.64-1.42,13.01-.53,2.52,.51,4.26-.61,5.37-2.97,4.29-9.16,11.62-11.42,20.31-10.64,.87,.08,1.74,.23,2.61,.22,1.41-.01,2.51-.71,3.21-2.06,.32-.62,.7-1.23,.9-1.9,2.51-8.31,8.66-11.07,15.8-11.41,7.02-.34,13.19,1.92,17.79,8.5,5.27,7.53,5.8,15.56,3.52,24.23-.35,1.34-.67,2.69-.96,3.83,1.49,2.18,3.34,1.68,4.99,1.54,4.21-.37,8.36,.1,12.27,1.68,2.81,1.13,5.52,2.79,7.99,4.66,2.81,2.12,4.26,5.34,4.6,9.08,.13,1.42,.14,2.85,.3,4.26,.28,2.45,1.14,4.6,3.13,5.99,9.88,6.93,17.42,16.62,24.78,26.24,6.94,9.07,13.36,18.75,17.83,29.71,2.06,5.04,5.04,5.91,9.28,2.53,2.88-2.3,5.91-3.95,9.4-4.75,1.27-.29,2.54-.8,3.68-1.48,8.85-5.29,18.67-5.95,28.39-7.08,3.91-.45,7.84-.66,11.73-1.21,1.4-.2,2.73-1.06,4.74-1.89-1.47-1.4-2.26-2.56-3.32-3.1-2.96-1.51-6.11-2.6-9.04-4.16-8.22-4.38-16.37-8.92-24.53-13.42-.58-.32-1.07-.82-1.6-1.25-8.53-6.98-17.11-13.9-25.58-20.97-3.46-2.88-6.66-6.13-10.06-9.1-1.77-1.55-3-3.32-3.58-5.76-1.33-5.57-3.7-10.6-6.91-15.19-.92-1.31-2.11-2.72-2.33-4.23-.68-4.61-2.92-8.38-4.9-12.32-1.51-3.01-1.92-6.16-1.66-9.62,.51-6.62,.58-13.28,.94-19.91,.39-7.24,1.55-14.29,6.68-19.53,4.95-5.05,6.58-12.19,10.17-18.08,.72-1.18-.02-3-1.27-3.57-1-.46-2.05-.85-3.11-1.06-2.36-.46-4.72-.9-7.1-1.13-9.19-.89-15.58-7.04-21.48-13.81-2.61-2.99-2.67-7.01-.72-10.64,1.54-2.86,3.35-5.56,5.16-8.23,1.95-2.89,4.72-4.32,7.97-4.06,4.35,.34,8.68,.98,13,1.57,1.07,.15,2.1,.67,3.16,.92,1.49,.36,2.93-.32,3.13-1.79,.72-5.4,4.39-7.24,8.36-8.9,1.42-.59,2.83-1.26,4.22-1.93,5.69-2.71,11.08-2.05,16.08,1.88,2.12,1.66,4.23,3.41,6.06,5.43,2.79,3.06,5.72,5.86,9.22,7.91,3.91,2.29,6.13,5.96,7.2,10.54,.16,.69,.13,1.42,.29,2.11,.92,3.94,1.79,4.85,5.28,5.06,4.13,.24,8.15-.55,12.29-1.44,.15-3.81-1.09-6.56-2.72-9.04-4.09-6.23-7.26-12.88-9.03-20.35-.47-1.98-1.64-3.89-2.85-5.51-3.17-4.23-6.55-8.26-9.82-12.4-2.72-3.45-4.85-7.29-6.53-11.46-1.14-2.82-2.43-5.58-3.8-8.27-.84-1.65-2.62-2.33-3.95-1.34-4.74,3.54-10.3,5.19-15.3,8.07-3.41,1.96-6.94,2.71-10.67,3-10.29,.81-20.52,.26-30.68-1.68-6.79-1.3-9.29-4.41-10.25-10.98-.48-3.28-1.15-6.55-1.36-9.85-.32-4.96,1.21-8.86,6.06-10.44,.93-.3,1.73-1.12,2.55-1.69-.83-2.77-2.99-3.18-4.58-4.28-2.59-1.8-4-4.25-4.31-7.56-.4-4.31,.01-8.55,1.16-12.66,1.08-3.87,3.48-6.61,7.06-7.79,3.12-1.03,6.32-1.93,9.54-2.43,4.32-.67,8.69-.94,13.04-1.32,2.87-.25,5.62-.88,8.16-2.38,4.15-2.47,8.61-3.1,13.28-2.85,6.53,.35,13.08,.18,19.5,2.07,1.52,.45,3.6,.07,5.02-.75,3.64-2.12,7.09-4.59,11.03-6.13,1.31-.51,2.3-2.02,3.76-3.38-.87-1.31-1.43-2.58-2.33-3.39-1.16-1.05-2.62-1.69-3.91-2.58-7.71-5.31-12.77-12.73-15.08-22.37-.68-2.81-.24-5.25,1.66-7.2,7.05-7.19,15.02-11.84,24.88-8.06,7.64,2.93,14.79,7.01,19.97,14.27,3.03,4.25,4.9,8.82,5.26,14.26,.55,8.26,1.24,8.69,8.94,6.97,1.03-.23,2.01-.71,3.13-1.11,.15-1.37,.39-2.53,.39-3.68-.03-8.26,6.59-16.26,14.19-18.15,5.2-1.29,10.27-2.1,15.54-1.09,1.24,.24,2.53,.25,3.49,.34,2-1.93,1.74-4.2,2.04-6.27,1.13-7.88,5.21-12.34,12.33-14.73,10.3-3.45,18.7-1.32,26.31,6.97,4.12,4.48,7.15,9.5,9.52,15.15,.44,1.04,.73,2.15,1.04,3.09,2.18,.52,2.96-1.25,4.08-2.21,1.53-1.33,2.85-2.95,4.36-4.31,3.16-2.84,6.64-4.13,10.91-3.52,6.55,.93,13.08,1.72,18.44,6.46,8.75,7.73,13.07,18.65,8.6,30.19-.85,2.19-1.86,4.3-2.69,6.49-1.83,4.81-1.47,5.84,2.88,8.47,.95,.58,1.96,1.06,2.93,1.6,11.27,6.28,22.6,12.41,33.77,18.9,5,2.9,9.66,6.49,14.47,9.77,1.11,.76,2.16,1.64,3.33,2.26,9.05,4.8,17.64,10.39,25.84,16.76,9.95,7.73,20.12,15.12,30.05,22.87,5.13,4.01,10.47,7.8,14.74,12.98,.42,.51,1.03,.95,1.63,1.13,.57,.17,1.37,.19,1.83-.13,.45-.31,.98-1.29,.84-1.7-2.24-6.31-1.66-13.11-2.99-19.53-.63-3.02,.09-5.14,1.76-7.1,1.01-1.18,2.38-2.01,3.62-3.01,1.81,.5,3.51,.89,5.17,1.43,2.53,.82,4.91,1.11,7.65,.34,4.27-1.2,8.68-.55,12.89,1.07,4.77,1.84,9.25,4.26,13.08,7.92,2.21,2.12,4.72,3.23,7.65,3.67,2.43,.36,4.45-.09,5.71-2.35,1.65-2.97,4.18-3.73,7.05-4.41,2.95-.7,5.9-1.77,8.62-3.18,5.14-2.67,10.52-3.15,16-2.55,2.09,.23,4.28,1.15,6.08,2.37,4.44,2.99,8.82,6.14,12.37,10.46,0,3.16,.04,6.23-.02,9.3-.02,.93-.52,1.89-.4,2.78,.11,.84,.57,1.9,1.19,2.32,.59,.4,1.66,.35,2.38,.07,.78-.3,1.43-1.06,2.08-1.69,7.19-6.96,14.98-13.04,23.07-18.7,5.14-3.59,10.07-7.54,15.28-11.47,1.1,.28,2.33,.58,3.88,.97,.18-3.45,2.27-5.52,4.69-7.24,3.29-2.33,6.53-4.76,9.97-6.81,6.51-3.88,12.97-7.79,19.26-12.12,7.92-5.44,16.26-10.19,24.54-14.98,6.36-3.68,12.9-6.96,19.37-10.41,5.07-2.7,6.47-6.4,4.54-12.18-.37-1.11-.82-2.2-1.3-3.26-3.64-7.98-2.54-15.36,1.5-22.95,3.37-6.33,8.81-9.73,13.81-13.88,.33-.28,.79-.46,1.21-.51,8.29-.88,16.65-2.25,23.16,5.67,1.43,1.74,3.25,3.09,5.28,4.98,.88-1.33,1.92-2.29,2.25-3.48,2.41-8.64,8.15-14.42,14.19-19.99,5.16-4.77,11.15-4.92,17.35-3.71,2.14,.42,4.21,1.25,6.31,1.9,5.38,1.67,8.36,5.73,9.59,11.5,.58,2.73,.47,5.66,2.13,8.51,1.88-.19,3.81-.24,5.69-.59,5.81-1.09,11.36,.31,16.71,2.39,5.68,2.22,9.37,6.76,10.82,13.25,.51,2.3,.93,4.62,1.43,7.11,3.26,2.14,6.5,3.75,10.59,1.28,.44-3.27,.78-6.55,1.35-9.79,.36-2.06,.67-4.34,1.68-6.03,3.08-5.17,6.34-10.24,11.57-13.27,3.08-1.78,5.98-3.99,9.16-5.52,8.88-4.24,21.96-.47,27.93,7.76,1.47,2.03,1.85,4.2,1.32,6.68-1.7,7.93-5.46,14.42-11.39,19.38-2.25,1.88-4.7,3.49-6.9,5.43-1.09,.96-1.84,2.39-3.04,4,2.12,1.66,3.74,3.22,5.59,4.31,6.4,3.76,12.86,6.41,20.54,4.42,5.02-1.3,10.39-1.35,15.62-.78,2.59,.28,5.46,.22,7.68,1.44,7.29,4.01,15.17,4.06,22.95,5,3.23,.39,6.44,1.18,9.6,2.07,4.91,1.39,7.93,5.11,8.85,10.38,.64,3.69,.55,7.54,.62,11.32,.03,2-.97,3.6-2.46,4.81-2.25,1.83-4.5,3.67-6.68,5.44,.21,2.48,2.09,2.4,3.31,3.14,4.53,2.74,6.28,6.2,5.46,11.67-.56,3.74-1.42,7.44-2.29,11.12-1.02,4.32-3.66,7.15-7.68,7.77-7.55,1.15-15.15,2.02-22.75,2.81-2.37,.24-4.8-.13-7.2-.29-5.71-.38-11.15-1.39-16.25-4.73-4.25-2.79-9.03-4.61-13.83-6.98-2.92,.92-3.83,4.04-4.75,6.87-1.48,4.54-3.46,8.87-6.39,12.32-3.99,4.7-6.74,10.45-11.21,14.72-1.39,1.32-2.55,3.45-2.92,5.41-1.12,5.99-4.17,10.9-6.85,16.05-1.5,2.88-3.01,5.76-4.31,8.75-1.22,2.8-.34,4.58,2.54,5.06,2.58,.43,5.22,.65,7.83,.61,4.15-.06,5.21-1.18,6.29-5.61,.44-1.82,.91-3.68,1.69-5.33,1.52-3.22,3.73-5.82,6.81-7.41,2.81-1.45,4.93-3.77,7.11-6.15,2.6-2.84,5.43-5.58,8.57-7.64,4.06-2.67,8.67-3.23,13.26-1.44,3.08,1.2,6.1,2.6,9.09,4.03,2.28,1.09,4,2.83,4.79,5.52,.32,1.11,.8,2.17,1.33,3.61,1.32-.17,2.56-.34,3.8-.5,4.76-.62,9.52-1.34,14.29-1.83,3.29-.34,6,1.24,8.03,3.96,1.92,2.57,3.78,5.24,5.37,8.06,2.64,4.68,2.1,8.19-1.38,12.17-6.85,7.84-14.99,12.88-25,14.11-2.34,.29-4.83,.34-6.94,2.77,.22,.91,.39,2.03,.77,3.06,.57,1.53,1.42,2.95,1.91,4.5,1.08,3.44,2.76,6.41,5.06,9.04,6.51,7.43,9.37,16.36,9.31,26.58-.04,6.17,.17,12.34,.42,18.51,.15,3.74-.93,7.05-2.74,10.07-1.45,2.43-2.4,4.99-3.13,7.77-.59,2.23-1.65,4.38-2.78,6.37-2.85,5.03-6.13,9.76-7.08,15.85-.22,1.41-1.56,2.78-2.65,3.83-7.69,7.37-15.5,14.59-23.83,21.11-3.71,2.91-7.44,5.79-11.05,8.85-4.19,3.55-9.16,5.49-13.78,8.17-2.87,1.67-5.7,3.45-8.63,4.97-3.74,1.94-7.54,3.74-11.37,5.45-2,.89-4.17,1.4-5.21,4.31,.62,.51,1.19,1.29,1.91,1.5,1.88,.57,3.82,1.02,5.75,1.28,7.15,.98,14.31,1.87,21.47,2.79,1.3,.17,2.62,.27,3.9,.53,2.48,.5,20.24,8.27,22.41,9.72,.93,.62,1.83,1.32,2.81,1.81,3.31,1.65,5.52,.97,7.02-2.54,3.99-9.3,9.47-17.58,14.8-25.94,2.47-3.87,5.4-7.43,8.36-10.9,5.79-6.77,11.35-13.84,18.47-19.07,2.94-2.16,4.28-4.95,4.39-8.91,.22-8.52,5.09-13.25,12.03-15.88,4.56-1.73,9.23-2.86,14.13-2.55,.99,.06,2-.48,3.29-.82-1.83-5.3-2.26-10.42-1.9-15.69,.81-11.85,10.02-21.31,20.93-21.11,2.59,.05,5.24,.46,7.75,1.17,4.45,1.26,7.84,4.08,9.58,8.9,.32,.88,.7,1.74,1.03,2.62,.87,2.36,2.54,3.27,4.72,2.75,3.28-.79,6.48-.61,9.72,.26,5.07,1.36,9.43,3.65,11.78,9.16,.53,1.24,1.55,2.24,2.11,3.04,7.52,.67,14.66,1.31,22.05,1.97,1.68-1.49,3.55-3.12,5.38-4.8,8.36-7.67,18.08-9.04,28.38-6.92,6.53,1.34,9.9,5.77,10.52,12.68,.24,2.71-.36,5.18-1.64,7.48-1.23,2.22-2.5,4.41-3.77,6.66,1.34,2.91,3.62,3.57,6.05,3.32,.86-.09,1.95-1.17,2.37-2.1,3.2-7.14,8.95-11.65,14.64-15.89,5.29-3.94,11.77-4.88,18.1-5.6,6.53-.74,11.31,2.71,15.27,7.89,2.86,3.75,3.37,10.47,.56,14.62-2.49,3.68-4.79,7.34-8.75,9.33-.98,.49-1.92,1.2-2.68,2.03-3.17,3.47-7,5.6-11.29,6.88-.62,.18-1.23,.52-1.76,.91-1.2,.87-1.85,2.15-1.33,3.66,.92,2.66,1.89,5.32,3.07,7.86,1.83,3.93,2.5,8.06,2.35,12.41-.13,3.8-.17,7.6-.34,11.39-.05,1.17-.11,2.54-.67,3.44-2.67,4.3-3.93,9.58-7.58,13.18-2.7,2.66-3.38,5.69-2.67,9.61,1.44,7.97-1.24,12.4-8.37,15.18-4.43,1.73-8.83,2.18-13.51,1.33-3.18-.58-6.55-.7-9.75-.27-7.36,.99-14.69,2.37-22,3.72-5.37,1-10.69,2.24-16.05,3.32-10.93,2.19-22.03,3.32-32.87,6.16-2.09,.55-4.34,.36-6.5,.61-2.37,.27-4.72,.67-7.09,.99-1.5,.2-3,.43-4.5,.55-6.07,.47-12.19,.21-18.12,2.46-2.41,.91-5.2,.57-7.78,1.01-8.41,1.45-16.79,2.95-25.31,3.68-5.14,.44-10.18,2.28-15.67,3.59,.46,1.09,.61,2.1,1.15,2.61,2.53,2.37,5.42,2.57,8.61,1.76,7.44-1.9,14.91-3.66,22.39-5.36,12.2-2.78,24.56-4.44,37-5.16,4.34-.25,8.72,.58,13.08,.62,8.94,.09,17.88-.07,26.81-.04,4.36,.01,8.72,.21,13.08,.35,3.71,.12,7.41,.26,11.12,.4,1.09,.04,2.19,0,3.27,.13,15.89,1.79,31.51,5.04,46.79,10.18,7.46,2.51,13.68,7.31,19.76,12.31,3.32,2.73,4.64,7,4.75,11.34,.13,5.19-2.33,8.98-6.73,11.23-6.33,3.24-12.74,6.22-19.73,7.37-1.08,.18-2.21,.22-3.23,.59-12.12,4.37-24.85,5.16-37.29,7.63-.86,.17-1.73,.28-2.6,.33-8.48,.53-16.97,1.36-25.46,1.49-8.51,.12-17.02-.54-25.54-.71-3.91-.08-7.84,.13-11.75,.36-1.95,.12-2.76,1.97-1.56,3.47,1.71,2.15,3.5,4.24,5.43,6.16,1.92,1.91,3.89,3.85,6.1,5.28,7.73,5,13.41,12.72,20.96,18.1,7.24,5.16,14.08,11.26,19.59,18.79,.68,.93,1.36,1.88,2.16,2.67,1.61,1.59,3.4,1.98,5.41,.77,3.06-1.84,6.19-3.51,9.21-5.42,5-3.17,10.43-4.77,16.07-5.8,4.24-.78,8.23,.72,12.3,1.48,1.92,.36,3.78,1.14,5.65,1.79,4.6,1.59,8.04,6.33,8.39,11.54,.29,4.28-1.3,7.34-4.84,9.23-4.3,2.29-8.58,4.64-12.94,6.79-4.47,2.2-9.32,2.3-14.1,2.57-1.96,.11-3.94-.16-5.89-.05-1.26,.07-2.49,.52-4.13,.89,.24,1.37,.38,2.46,.63,3.53,1.26,5.28,2.67,10.52,3.77,15.84,.37,1.79,.3,3.85-.12,5.63-.79,3.31-.96,6.61-.35,9.88,.6,3.21,.09,6.11-1.07,9.01-.69,1.74-1.36,3.5-1.96,5.29-2.03,6.04-1,7.51,4.68,6.76,1.08-.14,2.16-.48,3.24-.51,13.24-.36,25.53,3.15,36.66,11.03,5.15,3.64,6.18,6.95,4.15,13.35-.92,2.9-2.12,5.74-3.49,8.43-1.56,3.07-4.18,4.83-7.37,5.35-9.03,1.48-17.9,.53-26.48-2.73-2.63-1-4.97-2.93-7.43-4.45-2.46-1.53-4.84-3.23-7.38-4.58-2.65-1.4-4.53-.8-6.37,1.55-.14,.18-.3,.36-.39,.57-3.34,7.56-9.01,13.37-12.99,20.45-1.87,3.33-4.28,5.84-7.52,7.67-4.44,2.52-8.66,5.5-13.01,8.22-.93,.58-1.94,1.09-2.98,1.34-4.05,.99-8.11,1.92-12.19,2.77-4.11,.85-8.2,.83-12.38,.18-5.18-.81-10.43-1.09-15.65-1.57-1.3-.12-2.72,.18-3.91-.26-6.59-2.44-13.52-3.51-20.13-5.8-4.45-1.54-4.67-1.79-7.36,2.77-3.24,5.5-7.28,9.97-12.46,13.37-6.49,4.27-13.06,4.54-20.1,1.91-3.6-1.34-5.61-4.02-5.96-7.69-.75-7.85,.76-15.11,6.34-20.78,2.58-2.62,5.38-4.81,8.79-6.02,2.07-.74,4.16-1.58,5.28-4.44-.22-2.34-1.32-4.54-3.08-6.44-3.95-4.28-8.16-4.57-12-.17-3.29,3.76-6.26,7.88-9.05,12.09-3.6,5.44-7.82,9.12-14.32,9.92-7.87,.98-14.68-.9-20.87-6.15-1.87-1.58-4.03-2.78-6.12-4.04-2.56-1.55-5.1-1.22-7.38,.65-1.55,1.27-2.99,2.73-4.35,4.25-4.53,5.1-8.56,10.71-14.12,14.68-3.66,2.61-7.24,5.32-11.44,6.8-5.35,1.88-9.05,6.28-13.25,9.58,0,2.9,1.86,4.11,3.12,5.62,2.48,2.98,3.45,6.57,3.85,10.39,.36,3.44-.52,6.57-2.35,9.42-1.18,1.83-2.59,3.18-4.72,3.45-3.47,.44-6.93,.87-10.39,1.36-3.75,.54-4.27,1.04-5.09,5.22-.45,2.32-.88,4.67-.98,7.03-.23,5.2-2.87,8.36-7.07,10.08-2.44,1-5.02,1.74-7.6,2.14-5.76,.89-10.79-1.17-15.04-5.38-3.74-3.71-6.92-7.94-8.82-13.11-.91-2.49-2.16-4.5-4.07-6.28-2.97-2.78-5.69-5.89-8.35-9.04-1.82-2.16-3.96-3.63-6.37-4.86-7.68-3.93-15.33-7.95-22.97-11.98-4.87-2.57-8.06-7.17-11.46-11.47-2.27-2.87-4.3-5.97-6.43-8.97-.8-1.13-1.77-2.18-2.29-3.44-1.46-3.55-3.66-6.46-6.18-9.12-1.97-2.08-3-4.55-3.37-7.51-.35-2.81-.55-5.78-1.56-8.34-2.93-7.47-1.94-14.86-.31-22.31,.5-2.3,1.19-4.56,1.82-6.83,.37-1.37,.87-2.7,1.17-4.08,1.32-6.21,.65-11.49-4.56-15.76-6.25-5.13-12.02-10.96-18.03-16.44-1.34-1.22-2.71-2.45-4.23-3.36-3.85-2.31-7.24-5.2-10.55-8.33-6.9-6.53-13.78-13.15-21.08-19.14-8.67-7.11-17.08-14.67-26.7-20.37-2.82-1.67-5.12-4.41-7.63-6.7-3.51-3.21-6.94-6.51-10.48-9.67-2.44-2.17-4.1-1.95-6.04,.88-1.16,1.69-2.58,3.58-2.82,5.53-.98,7.85-5.82,13-10.17,18.58-2.83,3.63-5.76,7.09-9.49,9.65-2.88,1.97-3.73,4.84-3.68,8.51,.08,6.39-.38,12.78-.45,19.17-.1,9.12,.88,18.08,5.31,26.06,5.01,9.04,8.22,18.83,11.11,28.81,.98,3.39,2.11,6.72,3.12,10.1,1.07,3.6,2.23,7.18,3.05,10.84,1.54,6.9,2.88,13.85,4.27,20.79,.53,2.62,2.04,4.13,4.36,4.74,1.48,.39,3.01,.62,4.5,.97,5.76,1.34,11.55,2.58,17.27,4.11,4.29,1.15,8.05,3.61,11.37,6.76,2.85,2.7,5.85,4.39,9.87,4.66,5.64,.37,11.23,1.7,16.82,2.75,8.48,1.58,16.28,5.27,23.8,9.65,1.67,.97,3.15,2.58,4.31,4.24,.87,1.24,1.46,3.01,1.53,4.58,.27,6.16-4.51,12.61-10.24,13.91-7.11,1.61-14.33,1.73-21.53,1.13-5.49-.45-10.71-.08-16.11,1.52-4.76,1.41-9.57,3.21-14.66,3.27-1.05,.01-2.08,.54-2.85,.76-.5,.64-.92,.95-1.04,1.37-2.01,6.64-5.04,12.51-10.16,17-3.49,3.05-5.32,7.42-7.24,11.69-1.13,2.52-1.1,4.97-.14,7.55,1.41,3.8,3.58,7.03,6.08,10.03,1.02,1.23,2.1,2.41,3.22,3.55,3.75,3.82,6.65,8.16,7.49,13.85,.45,3.06,2.3,4.45,5.02,4.61,6.11,.35,12.09,1.46,18.02,3.1,2.29,.63,4.75,.64,7.13,.68,6.11,.1,12.22,.12,18.33,.04,4.24-.05,8.25,1.14,12.13,2.7,4.31,1.72,7.84,9.31,6.84,14.17-.23,1.12-.8,2.24-1.46,3.14-.81,1.1-1.77,2.18-2.87,2.89-7.94,5.11-16.2,9.33-25.46,10.77-3.88,.6-7.73,1.43-11.6,2.08-1.94,.33-3.89,.64-5.84,.7-2.75,.08-5.14,.93-7.13,3.01-4.89,5.12-10.96,7.6-17.41,9.29-5.72,1.5-11.38,3.26-17.11,4.66-2.95,.72-4.39,2.33-5.03,5.59-1.54,7.87-3.2,15.74-5.22,23.48-1.84,7.07-4.46,13.89-6.29,20.97-2.26,8.77-6.15,16.67-9.91,24.7-2.96,6.32-5.09,13.06-5,20.38,.09,8.07,.23,16.15,0,24.21-.12,4.6,1.64,7.74,5.05,9.98,7.33,4.83,12.09,12.2,16.6,19.78,1.03,1.74,1.45,3.95,2,5.98,.94,3.5,2.42,6.59,5.29,9.24,1.04-.55,2.32-.94,3.26-1.77,3.38-3,6.72-6.06,9.94-9.26,3.4-3.37,6.9-6.54,10.87-9.11,9.78-6.32,18.74-13.87,27.62-21.58,6.48-5.63,13.04-11.12,18.96-17.49,2.28-2.46,5.36-4.04,8.03-6.08,3.03-2.32,6.15-4.52,8.98-7.1,5.51-5.02,10.75-10.39,16.29-15.36,3.48-3.12,4.43-6.8,3.43-11.38-1.47-6.69-2.65-13.47-4.41-20.08-1.09-4.1-.83-7.96-.03-11.93,.84-4.17,1.79-8.31,2.58-12.49,.45-2.39,1.22-4.57,2.89-6.24,5.37-5.36,8.7-12.43,13.13-18.58,5.03-6.97,10.19-13.36,18.13-16.81,7.27-3.16,14.67-6.57,21.02-11.42,6.48-4.95,12.91-10.66,16.48-18.84,2.5-5.74,5.96-10.47,10.67-14.14,8.14-6.34,14.05-5.29,23.37-.57,2.28,1.15,3.47,3.56,3.87,6.29,.48,3.28,.85,6.58,1.41,9.84,.57,3.35,1.66,4.42,4.79,4.81,4.12,.52,8.24,.95,12.14,1.4,7.34,8.09,7.7,14.9,1.41,23.32-.95,1.27-1.84,2.59-2.94,4.16,.89,1.2,1.52,2.45,2.47,3.28,3.92,3.43,8.08,6.39,12.87,8.35,6.84,2.8,12.49,7.69,17.7,13.14,2.04,2.14,3.77,4.62,5.75,6.83,1.52,1.69,3.19,3.22,4.83,4.79,2.05,1.96,4.45,1.99,6.77,.98,1.8-.78,3.46-2.01,5.12-3.13,1.85-1.25,3.66-2.58,5.46-3.92,6.28-4.71,13.18-4.76,20.12-2.66,4.26,1.29,7.63,4.26,10.19,8.38,2.56,4.12,5.52,7.95,8.32,11.88,.4,.56,.88,1.06,1.39,1.49,2.4,2.01,4.59,4.53,8.16,2.79,3.85-1.88,6.5-4.83,7.35-9.34,.16-.87-.62-2.38-1.38-2.95-1.6-1.2-3.41-2.12-5.23-2.89-8.92-3.8-13.17-11.47-14.38-21.23-.82-6.59,1.83-10.99,7.62-13.05,9.51-3.38,17.19,.3,24.1,6.77,2.93,2.74,5.23,6.34,7.59,9.72,2.36,3.38,3.17,4.02,6.46,2.46,2.86-1.35,5.73-2.08,8.84-2.23,1.68-.08,3.42-.78,4.98-1.56,3.24-1.62,6.61-2.24,10.13-2.55,6.53-.57,13.03-1.46,19.55-2.1,1.93-.19,3.92-.17,5.85,.09,2.81,.39,5.57,1.16,8.37,1.65,4.78,.83,9.26,2.25,13.29,5.46,2.79,2.22,6.01,3.87,9.19,5.43,3.34,1.63,5.75,4.15,7.73,7.41,1.67,2.77,3.59,5.36,5.38,8.04,1.66,2.49,3.34,4.96,4.93,7.5,.98,1.57,1.75,3.29,2.73,4.86,2.21,3.56,4.09,4.11,7.81,2.19,1.77-.92,3.54-1.92,5.1-3.19,10.09-8.19,21.64-9.51,33.66-8.48,4.42,.38,7.94,2.45,9.72,7.21,1.07,2.85,2.52,5.56,3.27,8.5,1.43,5.67,.45,8.27-4.02,11.51-7.76,5.63-16.32,9.04-25.54,10.45-5.2,.79-10.39,1.4-15.65,.25-1.36-.3-2.87,.24-4.72,.44,.26,2.09,.3,3.72,.7,5.24,.67,2.5,1.6,4.92,2.37,7.39,.35,1.12,.86,2.29,.83,3.42-.25,12.24,1.6,24.74-3.66,36.4-.27,.6-.19,1.38-.27,2.03,1.34,2.25,3.4,1.91,5.34,1.96,3.93,.09,7.87-.05,11.77,.35,2.33,.24,4.69,1.08,6.87,2.08,4.22,1.94,8.29,4.23,12.47,6.27,4.55,2.23,6.01,4.74,5.27,10.04-.83,5.86-3.36,10.24-9.16,11.5-.85,.18-1.69,.49-2.52,.79-10.61,3.8-20.69,2.01-30.42-3.44-3.11-1.74-6.18-3.54-9.28-5.29-1.97-1.11-3.78-.9-5.38,.86-.77,.84-1.64,1.6-2.31,2.53-5.2,7.19-12.11,12.27-18.57,17.91-9.69,8.45-19.5,16.73-29.17,25.2-1.99,1.74-4.14,3.54-4.77,7.02,.96,.45,1.87,1.23,2.8,1.27,3.49,.16,6.99,.18,10.48,.07,17.04-.52,34.06-.06,51.07,1.08,3.91,.26,7.78,1.19,11.67,1.77,3.89,.58,7.82,.94,11.67,1.73,5.14,1.04,10.23,2.37,15.32,3.64,3.4,.85,6.76,1.92,10.18,2.67,6.08,1.35,11.48,4.38,16.83,7.62,1.88,1.14,2.9,2.8,3.54,4.88,1.78,5.76-.16,13-4.75,16.62-7.63,6.02-15.7,10.94-25.02,13.52-13.78,3.81-27.59,7.52-41.8,8.18-8.91,.41-17.79,1.41-26.79,1.1-9.77-.34-19.63-.88-29.42,.91-2.95,.54-6.12,.13-9.13-.28-9.96-1.35-20.05-1.54-29.91-3.87-9.38-2.21-18.81-4.19-28.23-6.23-1.91-.41-3.85-.83-5.79-.93-2.59-.13-4.52,1.31-6.34,3.94,1.1,.66,1.9,1.46,2.8,1.63,13.96,2.69,28.06,4.42,42.09,6.66,1.51,.24,3.09,.24,4.53,.74,8.29,2.85,16.84,2.65,25.32,2.34,3.57-.13,6.94,.22,10.3,1.22,5.67,1.68,11.25,3.73,16.98,5.09,4.45,1.06,9.07,1.21,13.59,1.93,4.09,.65,8.15,1.53,12.23,2.28,6.02,1.1,12.05,2.16,18.07,3.26,3.23,.59,6.48,1.07,9.66,1.89,2.84,.74,5.59,.9,8.42,.13,5.48-1.5,10.84-.61,16.13,1.07,5.5,1.74,9.26,6.94,7.84,12.9-1.31,5.52,.58,9,3.33,12.92,2.49,3.54,4.54,7.47,6.6,11.34,.62,1.16,.73,2.71,.83,4.1,.14,2.13-.01,4.28,.09,6.41,.36,7.45,.01,14.72-4.16,21.12-.25,.38-.41,.84-.58,1.28-1.64,4.24-.97,6.22,3.16,7.41,3.71,1.07,6.85,2.81,9.63,5.71,1.54,1.61,3.61,2.66,5.5,3.84,2.72,1.7,4.6,4.25,6.52,6.89,3.6,4.94,3.03,13.39-1.86,18.05-3.91,3.73-8.21,6.33-13.66,5.51-7.19-1.08-14.31-2.55-20.21-7.55-4.44-3.76-9.01-7.42-11.43-13.35-1.47-3.62-2.79-4.02-6.29-2.88-.63,.2-1.25,.44-1.84,.73-1.57,.77-2.13,2.51-1.25,4.12,1.22,2.24,2.63,4.35,3.81,6.61,3.77,7.21,.8,15.7-6.83,18.17-6.43,2.08-12.97,2.28-19.35,0-4.96-1.77-9.88-3.84-13.35-8.54-1.6-2.17-3.78-2.88-6.43-2.57-4.98,.57-9.99,1.04-14.99,1.17-2.73,.07-4.52,1.04-5.81,3.64-4.17,8.41-11.12,10.73-19.31,10.13-1.08-.08-2.14-.51-3.22-.54-1.66-.05-2.95,.76-3.62,2.5-.17,.44-.33,.88-.45,1.34-1.81,7.15-6.64,10.38-12.94,11.23-3.2,.43-6.55,.38-9.75-.11-4.23-.65-7.64-3.14-10.43-6.78-5.82-7.58-7.1-16.02-4.6-25.34,.36-1.32,.62-2.67,1.03-4.45-1.61-.26-2.83-.64-4.04-.63-4.63,.03-9.12-.71-13.52-2.29-7.37-2.63-12.03-7.66-12.09-16.5-.03-3.75-1.62-6.09-4.28-8.23-12.41-9.98-22.4-22.41-31.03-36.27-3.8-6.1-7.58-12.21-10.31-18.95-2.01-4.96-6.33-5.04-9.14-2.38-3.32,3.14-7.07,4.53-11.08,5.73-1.47,.44-2.96,.98-4.26,1.81-4.66,2.96-9.8,3.93-15.02,4.59-6.5,.82-13.01,1.54-19.5,2.4-2.33,.31-4.75,.39-6.74,1.39-.72,1.72-.07,2.62,.92,3.28,.74,.49,1.55,.89,2.36,1.23,6.12,2.58,11.95,5.69,17.5,9.57,3.26,2.28,7.06,3.63,10.58,5.5,7.31,3.88,13.44,9.66,19.94,14.83,5.8,4.62,11.29,9.69,16.9,14.57,1.87,1.63,3.82,3.19,5.54,5,1.06,1.12,2.21,2.54,2.54,4.03,1.33,5.9,4.36,10.82,7.24,15.83,1.16,2.01,2.15,3.97,2.74,6.35,.72,2.92,2.06,5.72,3.49,8.34,1.73,3.19,2.56,6.46,2.41,10.16-.27,6.63-.51,13.27-.53,19.9-.04,8.43-2.32,16.07-7.5,22.2-4.56,5.4-6.63,12.08-9.8,17.87,1.23,3.27,3.72,2.9,5.73,3.44,3.59,.95,7.24,1.66,10.82,2.64,6.87,1.88,11.87,6.91,16.62,12.19,2.76,3.06,3,7.41,.76,11.12-1.67,2.77-3.49,5.49-5.53,7.95-2.83,3.41-6.61,4.59-10.73,4.01-3.89-.54-7.74-1.43-11.63-2.09-1.25-.21-2.53-.17-3.79-.25-.45,.85-.95,1.41-1.06,2.04-.66,3.91-2.89,6.22-6.17,7.65-2.23,.97-4.43,2.04-6.59,3.18-5.5,2.9-10.67,1.84-15.47-1.73-2.51-1.87-4.68-4.25-7.04-6.36-2.86-2.55-5.61-5.29-8.67-7.53-4.4-3.21-7.66-7.04-7.79-13.13-.04-1.89-.73-3.48-2.36-3.8-4.94-.98-9.86-.9-14.69,.91-.53,3.88,1.35,6.4,2.6,9.03,2.1,4.4,4.57,8.59,6.7,12.97,.8,1.65,1.15,3.57,1.63,5.39,.92,3.49,2.74,6.21,4.96,8.99,5.27,6.58,11.09,12.78,14.8,20.68,1.48,3.16,2.55,6.54,3.95,9.75,.98,2.24,2.46,2.76,4.24,1.23,5.07-4.37,11.47-5.74,17-9.07,1.66-.99,3.74-1.23,5.67-1.59,10.02-1.87,20-.91,29.97,.65,1.29,.2,2.57,.54,3.87,.72,5.08,.71,8.49,3.57,9.72,9.08,.77,3.45,1.49,6.94,1.96,10.45,.69,5.06-1.28,8.75-5.45,11.07-1.13,.62-2.27,1.2-3.17,1.68-.49,2.03,.71,2.46,1.53,3.12,1.41,1.12,2.91,2.11,4.27,3.29,2.17,1.87,3.25,4.34,3.39,7.39,.18,3.87-.34,7.61-1.54,11.2-1.42,4.25-3.97,7.41-8.23,8.38-3.62,.83-7.26,1.57-10.92,2.15-4.32,.68-8.69,1.01-13,1.74-1.9,.32-3.89,.94-5.53,1.99-4.36,2.81-9.13,3.18-13.92,2.96-6.09-.29-12.24-.07-18.23-1.81-1.89-.55-3.9-.53-5.74,.6-3.8,2.33-7.63,4.61-11.4,6.99-.72,.45-1.26,1.25-2.19,2.21,.68,1.2,1.13,2.55,1.99,3.38,1.79,1.73,3.78,3.21,5.73,4.75,5.45,4.3,9.27,9.99,11.86,16.67,2.13,5.51,1.4,8.86-2.74,12.6-4.47,4.05-9.74,6.31-15.4,7.44-3.32,.66-6.62-.17-9.57-1.74-4.5-2.4-9.24-4.66-13.1-8.03-5.64-4.93-10.44-10.83-10.55-19.59-.11-8.98-2.01-9.36-9.16-7.54-.83,.21-1.66,.42-2.78,.7-.16,1.44-.37,2.8-.46,4.17-.69,10.32-6.56,15.68-14.4,17.9-5.27,1.49-10.68,2.54-16.16,.69-.97-.33-2.12-.05-2.79-.05-2.16,1.91-1.94,4.19-2.12,6.26-.68,7.85-4.76,12.47-11.51,14.67-3.8,1.24-7.66,1.9-11.64,1.63-4.03-.27-7.58-1.66-10.83-4.41-6.36-5.37-11.53-11.54-13.53-20.32-.28-1.24-1.33-2.28-1.96-3.33-2.86,.82-4.24,3.12-5.8,5.02-3.75,4.58-8.41,6.29-13.94,6.67-6.65,.45-12.47-1.71-18.01-5.27-.93-.6-1.82-1.37-2.53-2.25-7.33-9.12-9.83-19.32-5.83-30.99,1.06-3.08,1.94-6.23,2.91-9.34-2.05-2.81-4.7-4.01-7.16-5.4-7.72-4.37-15.5-8.62-23.26-12.91-9.34-5.17-18.17-11.27-26.94-17.49-.91-.65-1.84-1.3-2.83-1.78-10.45-5.03-19.61-12.34-28.94-19.32-10.43-7.8-20.76-15.75-31.08-23.72-2.48-1.92-4.7-4.25-7.15-6.22-1.13-.9-2.55-1.38-4.67-2.48,.42,2.76,.68,4.54,.97,6.32,.27,1.61,.7,3.21,.84,4.83,.32,3.85-.97,6.97-3.93,9.18-2.88,2.15-5.63,4.58-8.72,6.31-7.2,4.04-14.6,4.54-21.94,.27-1.92-1.12-3.68-2.56-5.61-3.67-4.24-2.44-7.02-6.3-9.21-10.78-.92-1.89-1.65-3.91-2.74-5.67-.66-1.07-1.84-1.75-2.85-2.66-2.8,4.44-5.54,8.43-7.92,12.67-1.31,2.35-3.06,3.97-5.09,5.37-1.28,.89-2.66,1.63-3.91,2.58-4.87,3.71-10.25,4.92-16.12,4.33-2.2-.22-4.22-.7-6.28-1.63-4.72-2.13-8.57-5.58-12.47-9-2.07-1.82-2.74-4.17-2.47-6.96,.27-2.83,.57-5.66,.71-8.5,.08-1.58-1.55-2.44-2.8-1.57-.73,.51-1.46,1.06-2.1,1.69-7.6,7.56-16.09,13.8-24.66,19.96-2.9,2.09-5.58,4.55-8.35,6.84-9.4,7.78-19.56,14.26-29.91,20.4-4.59,2.72-9.13,5.54-13.31,9-6.65,5.49-14.53,8.66-21.57,13.4-7.25,4.89-14.88,8.83-22.66,12.56-5.33,2.56-5.71,4.03-3.46,9.92,.42,1.1,.81,2.22,1.35,3.24,2.5,4.76,3.05,9.85,2.16,15.14-.35,2.06-.78,4.19-1.63,6.05-1.35,2.97-3.05,5.75-4.66,8.57-.45,.79-1.03,1.58-1.72,2.12-8.89,7.08-18.57,9.23-28.99,4.8-2.32-.99-4.15-3.34-6.23-5.03-1.7-1.38-2.57-3.98-5.49-4.15-.52,1.35-1.21,2.79-1.64,4.31-2.72,9.68-9.1,15.95-16.58,21.22-2.27,1.6-4.75,2.24-7.46,2.22-4.83-.05-9.57-.42-14.11-2.52-5.04-2.33-8.13-6.21-8.99-12.14-.37-2.55-.8-5.08-1.27-7.97-1.74,0-3.3-.37-4.64,.06-6.95,2.24-13.41,.38-19.73-2.56-5.91-2.75-9.19-7.76-9.96-14.69-.18-1.62-.21-3.25-.3-4.72-2.79-2.68-5.94-2.3-8.95-2.34-1.46-.02-2.41,1.13-2.7,2.64-.32,1.61-.57,3.27-.6,4.92-.18,9.51-5.38,15.8-11.77,21.11-2.92,2.43-6.35,4.18-9.63,6.05-5.67,3.23-11.47,4.18-17.62,1.24-3.62-1.73-7.14-3.43-10.13-6.38-3.16-3.13-3.92-6.65-2.44-10.91,2.94-8.48,7.81-15.31,15.02-19.92,2.15-1.37,3.58-3.3,5.73-5.06-.96-1.27-1.46-2.42-2.29-2.94-3.76-2.39-7.67-4.51-11.4-6.94-2.26-1.47-4.54-1.66-6.92-.95-5.55,1.65-11.23,1.7-16.9,1.91-5.29,.19-10.44-.27-15.18-3.34-3.27-2.12-7.11-2.15-10.78-2.66-3.9-.54-7.83-.8-11.73-1.37-2.15-.31-4.25-1-6.37-1.54-5.32-1.36-8.09-5.26-9.12-10.87-.26-1.4-.59-2.79-.73-4.2-.53-5.51,.17-10.4,5.3-13.37,1.46-.84,2.55-2.42,4.19-4.03-1.38-1.03-2.35-1.86-3.4-2.54-5.38-3.49-6.61-6.27-5.52-12.97,.45-2.8,1.04-5.58,1.67-8.34,1.1-4.81,3.77-7.95,8.34-8.96,1.93-.43,3.84-1,5.78-1.28,8.02-1.13,16.08-2.12,24.16-1.38,3.65,.33,7.4,1.16,10.79,2.64,5.65,2.47,11.05,5.6,16.52,8.55,2.6,1.4,3.99,1.14,5.38-1.58,.74-1.44,1.38-2.98,1.83-4.55,1.39-4.85,3.89-9.04,6.7-12.96,3.47-4.85,7.27-9.42,10.95-14.09,1.73-2.18,3-4.45,3.43-7.46,.78-5.49,3.83-9.99,6.27-14.73,1.39-2.69,2.69-5.44,4.17-8.06,1.53-2.71-.09-5.12-2.22-5.31-3.26-.29-6.54-.39-9.81-.37-2.28,.01-3.8,1.56-3.99,3.92-.57,6.89-4.49,10.97-9.44,14.48-2.35,1.66-4.29,3.99-6.47,5.94-2.86,2.56-5.62,5.33-8.72,7.5-4.26,2.98-8.92,3.62-13.71,1.18-2.37-1.21-4.76-2.36-7.2-3.39-3.02-1.28-5.33-3.1-5.93-6.89-.17-1.07-1.02-2.02-1.69-3.28-1.37,.2-2.63,.35-3.87,.58-3.87,.71-7.72,1.68-11.62,2.11-5.16,.57-9.45-1.24-12.19-6.41-.76-1.43-1.86-2.64-2.73-4-3.29-5.16-2.64-10.19,1.52-14.58,7.17-7.55,15.66-11.85,25.57-13.01,2.1-.24,4.48,.1,5.84-2.33,.05-.49,.28-1.05,.12-1.38-3.29-6.66-6.14-13.63-10.92-19.3-4.7-5.57-6.18-12.51-6.62-19.66-.45-7.34-.22-14.72-.38-22.08-.07-2.95,.5-5.61,1.97-8.11,1.89-3.22,3.28-6.64,4-10.45,.34-1.77,1.36-3.49,2.36-5,3.22-4.86,5.82-10.04,7.36-15.79,.58-2.15,1.69-3.55,3.34-4.96,6.84-5.84,13.35-12.15,20.21-17.96,5.84-4.95,11.94-9.56,18.05-14.12,1.95-1.46,4.28-2.37,6.5-3.35,3.85-1.7,7.42-3.84,10.91-6.35,3.05-2.2,6.62-3.56,9.99-5.21,2.18-1.07,4.45-1.92,6.62-3.02,.68-.35,1.14-1.22,2.02-2.21-1.11-.66-1.77-1.29-2.51-1.46-1.92-.44-3.87-.92-5.81-.96-8.78-.17-17.35-2.03-25.96-3.66-.65-.12-1.37-.07-1.93-.37-7.19-3.84-15.45-5.03-22.01-10.49-.98-.82-2.31-1.35-3.54-1.58-2.31-.42-3.94,.44-4.79,2.75-3.85,10.48-10.4,19.17-16.05,28.43-2.75,4.51-6.55,8.25-9.87,12.35-4.92,6.07-10.11,11.81-16.48,16.13-2.62,1.77-4.01,4.34-3.92,7.72,.25,9.8-5.28,14.48-12.9,17.29-3.77,1.39-7.67,1.72-11.63,1.61-1.69-.05-3.39,.12-6.26,.25Zm-35.28-645.55c-.26,1.24-.52,2.48-.77,3.73-1.43-1.02-2.89-2-4.28-3.09-1-.78-1.91-1.01-2.86,.01-1.46,1.76-1.38,3.46,.11,5.1-1.39,.06-2.78,.11-4.18,.17-.65-.44-1.36-1.4-1.8,.17-.1,.35,.04,1.08,.24,1.16,1.16,.49,1.35-.44,1.55-1.33,1.39-.05,2.78-.11,4.17-.16,.59-.73,1.17-1.46,1.76-2.18,.95,1.5,1.78,3.11,2.89,4.45,1.13,1.37,2.46,.71,3.53-1.57,.56-.25,1.13-.5,1.69-.75-.36-.54-.71-1.1-1.1-1.62-.13-.17-.36-.24-.55-.36-.15-1.24-.3-2.48-.5-3.69-.18,.08-.37,.14-.55,.23-.14,.07-.28,.18-.41,.27,.36-.18,.72-.36,1.08-.54Zm-9.41,319.73c.33,.51,.64,1.03,1,1.52,.1,.14,.34,.17,.51,.25,.04-.37,.2-1,.09-1.07-.49-.3-1.06-.43-1.58-.68,.02-1.66,.04-3.32,.06-4.98,1.59,.69,3.17,1.38,4.76,2.07,.33,2.2,.09,4.57,1.43,7.03,1.79-1.56,3.25-2.83,4.71-4.11-.26-.99-.52-1.98-.78-2.97-.16,.07-.33,.15-.49,.22,.42,.93,.84,1.85,1.26,2.78-1.96-.92-3.63-2.24-4.62-4.56-.72,.82-1.16,1.33-1.6,1.84-.97-2.2-2.85-2.19-4.69-2.24-.02,1.63-.04,3.27-.05,4.9Zm-2.49-6.18c0,.21,0,.43,0,.64l.06-.69c.23-.45,.46-.9,.69-1.35-.18-.05-.36-.1-.54-.15-.08,.52-.15,1.03-.21,1.55Zm1050.34-273.44c1.29,.44,2.53,.47,3.66-.49h3.25c1.09,1.3,2.82,2.64,2.7,5.4-.03,.76,1.42,1.6,2.19,2.41l.02-.04c.59,1.33,1.44,1.18,2.39,.5,.12,.39,.21,.79,.37,1.16,.03,.06,.29,.01,.45,.01-.35-.31-.71-.62-1.06-.94,1.08-3.92,1.72-6.47,1.01-7.15-1.94-1.85-1.13-3.75-.74-5.83,.41-2.24,.6-4.54,.74-6.82,.04-.61-.31-1.42-.73-1.85-1.22-1.25-2.76-1.53-4.22-.68-1.57,.91-1.98,2.37-.99,4.16,.19,.34,.07,.89,.1,1.33-1.71,.88-3.43,1.75-5.33,2.72,0,2.04,0,3.9-.03,5.72-1.25,.13-2.5,.26-3.75,.39-.36,.24-.74,.47-1.08,.74-.16,.13-.25,.35-.37,.53,.35,0,.85,.14,1-.05,.25-.31,.26-.84,.42-1.23Zm-1005.97-11.52c-.08-.45-.06-.96-.28-1.32-.1-.17-.64-.02-.97-.02,.04,.21,.01,.52,.13,.61,.34,.26,.73,.44,1.07,.71-.08,.85-.17,1.71-.25,2.56-1.26-1.09-2.51-2.18-4.04-3.51-.98,1.6-1.99,3.25-3.04,4.96q2.64,1.24,6.69,.46c.08-.69,.16-1.39,.22-2.12l.46-2.34Zm973.98,265.9c-.53,0-1.06,0-1.59,.01-.43-.41-.86-.82-1.29-1.23-.22,.9-.44,1.8-.72,2.97,.98-.87,1.58-1.41,2.19-1.95,.22,.38,.44,.76,.66,1.15,.2-.38,.4-.77,.6-1.15,.36-.15,.76-.24,1.05-.48,.13-.1,.03-.53,.03-.81-.15,.12-.34,.2-.43,.36-.19,.36-.33,.75-.49,1.13ZM138.1,663c.4-.12,.79-.23,1.19-.35-.36,.15-.71,.29-1.07,.44-.96,1.72-.72,2.93,2.05,3.9-.99-1.81-1.6-2.91-2.17-3.99Zm20.61-8.48c-.12,.89-.37,1.8-.29,2.67,.04,.41,.72,.75,1.1,1.11,.06-.41,.28-.89,.16-1.22-.3-.84-.75-1.61-1.16-2.38-.28-.25-.55-.51-.85-.73-.05-.04-.23,.14-.36,.21,.47,.11,.93,.22,1.4,.33Zm1011.93,291.06c-.34,.25-.79,.42-.99,.77-.15,.26,0,.74,.03,1.12,.3-.24,.76-.41,.87-.73,.13-.38-.03-.88-.06-1.33,.55,.24,1.13,.7,1.65,.64,.33-.04,.59-.86,.88-1.33-.49-.25-1.11-.82-1.44-.66-.43,.2-.63,.98-.92,1.52Zm-11.64-45.59c.16,1.24,.64,2.23,1.94,2.05,.28-.04,.76-1.21,.6-1.54-.68-1.39-1.74-.76-2.71-.32-.1-.42-.16-.86-.31-1.26-.05-.14-.33-.17-.51-.25-.06,.33-.25,.9-.15,.96,.33,.22,.75,.26,1.14,.37Zm-23.92-241.18c-.28,.34-.58,.66-.84,1.02q-1.11,1.54,1.08,2.12c-.67,.87-1.34,1.73-2.03,2.62,.98,1.16,1.9,2.28,2.85,3.36,.04,.05,.33-.15,.56-.26,.18-1.29,.37-2.62,.58-4.16-.72-.47-1.43-.92-2.14-1.38-.07-1.17-.15-2.35-.22-3.52,1.5,.11,3,.22,4.5,.33,.47,.74,.85,2.01,1.42,2.11,.92,.17,2.14-.15,2.89-.76,2.15-1.76,2.18-4.21,1.5-7.32-2.36,1.49-2.98,3.69-3.81,5.79-.47,1.18-1.4,.6-2.19,.38-1.06-3.99-1.14-4.01-3.83-.97-.15,.17-.23,.4-.33,.62Zm50.39,255.26c-.23,.86-.7,1.75-.62,2.58,.07,.75,.59,1.72,1.17,2.07,.91,.55,1.48-.32,1.82-1.22,1.29,2.38,3.15,1.55,5.1,.89,.6,1.56,1.18,3.04,1.7,4.4,1.92-.56,3.75-1.03,5.54-1.62,1.51-.5,2.64-2.21,2.36-3.75-.41-2.2-1.02-4.36-1.63-6.95-2.23,1.05-4.15,2.06-6.14,2.85-2,.8-4.16-1.82-6.21,.28-.19,1.33-.4,2.72-.61,4.09-.89-1.14-1.77-2.29-2.67-3.42-.7-.73-1.3-1.79-2.12-2.07-.57-.19-1.47,.68-.74,1.87h3.06ZM138.82,676.89c-.41,0-.82,0-1.23,0,.1,.34,.2,.68,.3,1.02,.36-.22,.71-.43,1.07-.65-1.88,2.05-.61,4.28-.27,6.44,.05,.32,.51,.57,.94,1,1.35-.62,2.81-1.3,4.22-1.96-.39-1.36-.63-2.23-.88-3.1v.21c-.6-1.77-1.15-3.61-3.48-2.99,.09-.75,.17-1.5,.26-2.25-.31-.02-.62-.04-.93-.06v2.31Zm1028.66,242.38c.05,.54,.1,1.09,.03,.32,.14,.68,.02,.09-.1-.5,1.13,.64,1.83,2.31,3.69,2.09q-1.64-2.91-3.62-1.91Zm-989.68-.84c1.09-.14,2.19-.29,3.28-.43,1.06-.22,2.12-.48,3.2-.67,1.31-.22,1.86-1,1.57-2.82-.81-.33-1.75-.91-2.75-1.09-1.19-.21-1.72-2.53-3.65-.95-.14,1.98,.88,3.8,1.67,5.62-.46-.4-.87-.91-1.38-1.19-1.55-.87-1.64-.78-1.76,1.7-1.1,.69-2.23,1.33-3.28,2.11-.16,.12,.03,.81,.08,1.41,1.38-.26,2.74-.51,4.57-.85-.72-1.32-1.13-2.09-1.54-2.85Zm-19.95-22.76c.38-1.2,.34-2.22-1.01-2.61-.15-.04-.51,.15-.54,.29-.29,1.58,.79,1.8,1.8,2.09,0,1.22-.02,2.45-.03,3.67-.64-.06-1.29-.22-1.91-.12-.32,.05-.79,.53-.82,.86-.04,.39,.26,1.09,.54,1.17,.51,.15,1.37,.16,1.6-.17,.33-.47,.23-1.3,.31-1.97,.63-.85,1.35-1.64,1.84-2.58,.12-.23-.53-.93-.82-1.41-.32,.26-.63,.52-.95,.79Zm1009.44-235.9c-.14-1.26-.28-2.52-.54-4.95-1.25,1.92-1.88,2.88-2.91,4.46,1.68,.22,2.62,.34,3.61,.41,.2-.03,.41-.05,.61-.1,.15-.04,.29-.12,.43-.18-.4,.12-.8,.24-1.21,.36Zm-5.11,25.69c-.4-.04-.8-.08-1.2-.12,.38,.04,.77,.07,1.15,.11,1.41-.32,2.82-.64,4.5-1.01-.2-1.04-.1-2.21-.59-2.74-.98-1.05-2.15-.31-2.78,.65-.57,.88-.71,2.09-1.09,3.12Zm-31.82,238.33c.45-1.35,2.39-2.27,.76-4.57-1.23,.98-2.44,1.93-4.46,3.53,1.88,.53,2.81,.79,3.78,1.03,.78-.08,1.55-.16,2.33-.23-.04-.21-.08-.42-.12-.63-.76,.29-1.52,.58-2.28,.88ZM115.09,650.63c-.51,.3-1.02,.59-1.53,.89,.52,.63,1.03,1.25,1.55,1.88-.92,3.62-1.76,7.23,1.73,9.81,1.09-.09,1.56-2.17,2.84-.65-.4,1.53-.95,3.07-1.16,4.66-.12,.92-.54,2.4,1.15,2.54,1.02-1.77,1.91-3.61,3.07-5.21,.77-1.07,1.88-1.94,3.39-1.63,2.86,1.93,5.53,2.37,7.97-.87,.49-.66,1.57-.76,2.28-1.27,.85-.61,1.04-1.59,.29-2.35-.3-.31-1.46-.28-1.6,0-1.3,2.41-1.93-.21-3.09-.43-.75,.57-1.66,1.18-2.49,1.91-1.18,1.04-2.3,2.15-3.45,3.24,2.08-3.66-.85-6.54-1.43-9.77-.11-.63-1.72-1.14-2.7-1.35-.99-.21-2.06,.02-3.09,.06,.45-1.42,.89-2.85,1.42-4.53-2.38,.5-4.78-.08-5.15,3.09Zm1053.34,247.14c-.74-.41-1.47-.82-2.14-1.19-1.04,1.16-2.23,2.02-.76,3.88,.96-.97,1.88-1.9,2.8-2.84,.86,.9,1.72,1.8,2.7,2.83,1.44-1.85,.77-3.78,.71-5.59-.04-1.04-.64-1.97-1.63-1.65-.67,.21-1.38,1.06-1.63,1.8-.28,.83-.05,1.85-.05,2.76Zm6.55-264.69c-.47-1.97,.46-4.28-1.35-6.2-.74,.23-1.87,.2-2.26,.77-.88,1.27-1.85,2.81-1.94,4.3-.12,2.04,1.11,3.46,3.43,3.44,.67-.79,1.41-1.65,2.14-2.52l-.02,.2Zm5.16,269.69c-.31-1.28-1.55-2.32-.82-3.86,1.02,.08,2.01,.16,3.48,.27-.72-3.21-1.46-5.73-4.7-6.1-1.3,3.18-1.33,4.84-1.02,6.59,.37,2.12,1.81,2.41,3.22,2.93-.27,1.16-2.24,1.76-.79,3.69,.85-.48,1.7-1.04,2.62-1.46,1.01-.46,2.07-.78,4.43-1.64-3.12-.21-4.77-.32-6.43-.43Zm-3.49-219.78l.41-.02c.62,.2,1.5,.19,1.81,.65,.99,1.44,1.93,1.91,3.51,.95,.81-.49,1.93-.37,3.18-.57-2.08-2.83,.95-5.74-1.33-8.36-1.84-2.11-2.88-5.06-4.6-8.25-.8,2.13-1.34,3.58-1.98,5.29,1.51,1.17,2.86,2.21,4.34,3.36-.76,.49-1.52,.85-2.12,1.41-1.39,1.3,1,1.63,.73,2.46-1.29,1.18-2.43,2.22-3.57,3.27,.23-2.94-1.64-4.06-3.67-5.07-1.62-.8-3.09-.29-3.63,1.46-.34,1.09-.51,2.28-.52,3.43,0,.58,.42,1.38,.88,1.68,.42,.27,1.55,.21,1.66-.06,1.15-2.81,3.39-1.22,5.11-1.61l-.12,1.11c-.03-.38-.05-.77-.08-1.15ZM134.96,895.45c-.92,1.53-1.85,3.06-2.93,4.85,.38,1.08,.83,2.33,1.28,3.61q7.11-3.93,8.8-7.19c.82,.74,1.63,1.47,2.45,2.21l-.18-.02c6.44-2.63,6.7-2.87,7.1-6.98-.93,.45-1.67,.81-2.41,1.17-.16-.82-.08-1.88-1.3-1.71-1.1,.15-2.6-.37-2.62,1.72-1.44-.17-2.87-.33-4.64-.53-.3,1.18-.46,2.28-.85,3.27-.79,1.97-1.91,2.15-3.93,.71-.35-.25-.63-.6-.95-.9-.09-.42-.13-.87-.29-1.26-.13-.31-.42-.55-.63-.82-.31,.52-.62,1.05-.92,1.57,.29,.2,.56,.53,.87,.56,.38,.04,.78-.17,1.17-.27Zm3.51,15.96c.37-.11,.78-.16,1.09-.37,.08-.06-.11-.61-.18-.94-.16,.08-.43,.13-.47,.26-.13,.39-.18,.82-.26,1.23-1.05,.28-2.15,.93-3.13,.75-1.64-.31-3.24-1.72-4.79-1.61-1.96,.14-3.85,.48-5.63-.52-2.81-1.57-5.43-1.23-7.98,.5-.01-.4-.02-.8-.03-1.21,.02,.37,.04,.75,.06,1.12,2.56,2.65,1.74,5.73,.96,8.8l.09-.06c-1.2-.13-2.41-.27-4.03-.45,.06,2.16-.87,3.96,.92,5.42-.54,2,.8,2.92,1.95,3.9,.25,.21,.74,.09,1.47,.15-.32-1.74-.62-3.38-.98-5.33-1.18,.68-1.9,1.09-2.62,1.5,.42-1.88,1.4-2.97,3.23-2.19,1.33,.57,2.54,1.46,4.02,2.33,1.23-1.3,2.3-2.38,3.31-3.53,.86-.98,1.65-2.03,2.46-3.05l-.16,.27c1.7-2.19,3.69-3.83,6.4-4.27,1.73-.28,3.28-1.05,4.31-2.71ZM687.63,269.47c2.79,1.89,5.45,1.83,8.05,1.83,4.34,0,8.73-.66,13.01-.17,8.68,.99,17.29,2.62,25.95,3.85,4.35,.62,8.61,1.41,12.61,3.52,1.16,.61,2.48,.94,3.76,1.22,10.05,2.2,20.08,4.53,30.17,6.46,4.56,.87,8.89,2.33,13.21,3.99,4.94,1.89,9.95,3.58,14.94,5.29,6.6,2.26,13.6,3.35,19.15,8.51,1.25,1.16,3.19,1.43,4.8,2.16,3.04,1.38,5.86,2.9,7.67,6.28,1.15,2.16,2.89,4.15,5.88,4.74,.8-1.18,1.84-2.38,2.5-3.79,1.37-2.96,2.45-6.08,3.81-9.04,.77-1.67,1.63-3.42,2.85-4.67,2.54-2.6,5.29-4.96,8.05-7.28,7.19-6.05,15.27-9.01,24.44-8.08,.61,.06,1.25-.26,2.18-.48,.51-1.12,1.22-2.32,1.62-3.63,1.24-4.05,2.28-8.17,3.55-12.21,1.34-4.25,2.35-8.74,4.4-12.57,4.39-8.19,9.35-16.01,14.05-24.01,.33-.56,.37-1.32,.54-1.96-.39-.68-.69-1.33-1.09-1.88q-4.53-6.15-11.99-5.12c-.87,.12-1.74,.17-2.6,.33-4.08,.75-8.28,1.1-12.2,2.43-3.61,1.23-7.19,1.79-10.9,2.05-8.93,.63-17.84,1.39-26.77,1.99-6.08,.41-12.17,.69-18.25,.95-4.32,.18-8.64,.22-12.96,.34-2.61,.08-5.23,.29-7.84,.28-5.24,0-10.53,.36-15.69-.31-6.64-.87-12.98,.03-19.47,1.36-8.64,1.77-16.21,7.03-24.9,8.45-4.05,3.08-8.65,2.65-13.24,2.62-5.67-.04-11.33,.1-16.75,2.52-2.18,.97-4.67,1.66-7,1.6-4.65-.1-9.09,1.05-13.59,1.84-2.59,.45-5.2,.74-7.78,1.24-1.23,.24-2.42,.79-3.52,1.16-.22,6.19-.43,12.04-.65,18.21Zm.66,1039.51c-.09,1.41-.31,2.16-.15,2.79,1.05,4.16,1.87,8.26,.43,12.58-.54,1.61,.73,3.24,2.59,3.31,5.26,.2,10.4,1.04,15.43,2.72,.8,.27,1.74,.18,2.61,.1,4.44-.42,8.8,.36,12.88,2.01,5.68,2.3,11.42,2.81,17.38,2.38,3.25-.23,6.42,.24,9.62,1.46,8.85,3.37,17.76,6.57,26.78,9.34,3.93,1.21,8.23,1.96,12.27,1.61,12.43-1.07,24.83-.89,37.24-.11,4.79,.3,9.57,.77,14.36,1.2,6.94,.62,13.88,1.31,20.82,1.92,7.61,.67,15.22,1.27,22.83,1.91,8.22,3.57,17.18,2.46,25.56,5.17,1.85-2.11,3.55-3.93,5.13-5.87,1.98-2.44,2.06-3.54,.37-6.32-1.93-3.17-4.1-6.16-5.99-9.35-4.6-7.76-9.04-15.59-11.29-24.67-1.19-4.8-2.83-9.47-4.41-14.15-1.11-3.26-1.66-3.7-4.86-3.37-3.54,.36-6.92-.17-10.36-1.05-6.84-1.75-12.17-6.21-17.42-10.91-3.8-3.4-6.58-7.49-8.11-12.66-.72-2.46-1.88-4.79-3.02-7.06-.78-1.54-2.75-1.86-4-.77-.84,.73-1.51,1.69-2.27,2.52-1.84,2.02-3.4,4.56-5.58,5.95-5.43,3.46-11.09,6.51-16.77,9.5-3.92,2.06-7.96,3.87-12.36,4.5-1.05,.15-2.03,.83-3.05,1.26-11.44,4.78-23.25,7.86-35.37,9.86-7.32,1.21-14.66,2.75-21.71,5.12-4.63,1.55-9.28,2.56-13.99,3.47-4.3,.83-8.61,1.61-12.93,2.25-5.4,.79-10.81,1.6-16.24,2.04-4.33,.35-8.71,.09-13.06,.24-1.03,.04-2.05,.65-3.36,1.1Zm-57.61-.19c-1.99-2.08-3.67-2.17-5.44-2.08-9.82,.5-19.56-.12-29.24-2.12-5.14-1.06-10.35-1.71-15.5-2.66-2.35-.43-4.77-.84-6.95-1.8-6.74-2.96-13.94-3.82-20.96-5.34-4.46-.97-9.06-1.22-13.46-2.72-1.65-.56-3.43-.64-5.12-1.1-2.74-.74-5.48-1.5-8.16-2.45-5.8-2.05-11.48-4.62-17.37-6.25-6.19-1.71-12.09-3.79-17.22-8.1-1.35-1.14-2.99-2.01-4.62-2.61-4.24-1.56-7.99-3.76-10.49-8.01-.57-.97-1.48-1.74-2.32-2.49-1.66-1.49-3.33-1.16-4.24,.95-1.12,2.57-2,5.26-3.15,7.81-1.16,2.54-2.14,5.36-3.87,7.38-8.46,9.92-18.34,16.78-31.48,15.91-1.25-.08-2.51,.18-3.87,.29-1.94,6.55-3.68,12.9-5.71,19.14-1.38,4.23-2.92,8.44-4.8,12.42-2.89,6.13-6.4,11.87-10.56,17.12-1.4,1.76-3.02,3.5-2.89,6.58,1.15,1.6,2.46,3.49,3.84,5.31,1.68,2.23,3.69,3.16,6.37,2.09,1.41-.57,2.95-1.02,4.44-1.06,5.29-.12,10.38-1.47,15.42-2.94,4.66-1.36,9.36-2.19,14.18-2.1,6.98,.13,13.94-.09,20.9-.92,7.8-.94,15.64-1.43,23.46-2.23,11.54-1.19,23.09-1.12,34.64-.5,6.59,.35,13.09,.05,19.42-2.17,6.61-2.32,13.29-4.45,19.82-7.05,5.21-2.08,10.49-3.12,15.99-2.95,4.83,.15,9.5-.36,14.14-2.15,4.1-1.58,8.42-2.49,12.87-2.19,1.29,.09,2.63-.05,3.91-.29,4.72-.87,9.43-1.8,14.13-2.79,.8-.17,1.53-.7,2.68-1.25-1.56-5.75-.94-11.26,1.24-16.69ZM428.39,283.52c3.54,0,6.61-.28,9.61,.06,7.67,.87,13.97,5.07,19.9,10.11,4.22,3.59,7.49,7.9,9.41,13.38,.85,2.44,1.74,4.87,2.7,7.27,.85,2.1,2.59,2.62,4.26,1.22,1.02-.86,1.96-1.89,2.78-2.98,2.53-3.36,5.36-6.05,9.42-7.25,2.22-.66,4.21-2.43,6.18-3.9,4.91-3.68,10.39-5.83,16.1-7.47,2.94-.84,5.85-1.81,8.74-2.85,4.34-1.57,8.55-4.1,12.99-4.71,8.67-1.2,16.78-5.45,25.67-5.16,.85,.03,1.71-.36,2.55-.61,6.06-1.86,12.47-2.26,18.26-5.28,.95-.5,2.1-.62,3.17-.79,7.32-1.19,14.67-2.22,21.97-3.57,5.83-1.08,11.64-1.82,17.57-1.36,2.39,.19,4.81,.08,7.2-.13,3.04-.27,4.31-2.11,3.42-5.35-.88-3.25-1.39-6.39-.72-9.79,.7-3.6,.12-4.21-2.91-4.67-4.09-.62-8.16-1.41-12.24-2.14-1.07-.19-2.14-.66-3.19-.6-5.08,.26-9.99-.67-14.88-2.09-1.66-.48-3.46-.37-5.2-.57-6.05-.67-12.1-1.35-18.15-2.06-.42-.05-.82-.33-1.23-.48-6.19-2.3-12.34-4.74-18.58-6.85-5.18-1.75-10.46-3.19-15.73-4.6-1.45-.39-3.06-.42-4.56-.24-7.6,.9-15.24,1.14-22.86,1.01-10.24-.18-20.47-.84-30.7-1.3-.44-.02-.87-.07-1.3-.16-8.62-1.66-17.31-2.24-26.06-2.41-5.22-.1-10.53-.25-15.63-1.32-6.42-1.34-12.73-3.12-19.26-3.99-7.4-.98-7.38-1.26-12.08,4.81-.55,.71-.92,1.59-1.29,2.25,.16,.67,.17,1.19,.4,1.56,.97,1.58,1.94,3.17,3.01,4.66,7.87,10.97,13.86,22.97,17.09,36.53,.92,3.85,2.14,7.67,4.15,11.84Zm358.45,209.92c4.52,4.63,17.24,11.76,23.24,13.16,.21,.05,.44,.04,.65,.1,5.05,1.45,10.18,2.67,15.15,4.41,9.96,3.49,19.95,6.96,29.72,11.05,6.03,2.53,12.26,4.64,17.59,9.2,3.13,2.68,7.39,3.97,11.3,5.35,4.34,1.53,8.84,2.58,13.32,3.6,6.19,1.42,12.39,2.81,18.64,3.81,2.52,.4,5.43,.39,7.72-.61,3.79-1.67,7.46-3.95,10.76-6.59,7.56-6.05,14.9-12.41,22.25-18.76,3.97-3.42,8.19-6.16,13.03-7.96,3.03-1.13,6.17-2.59,8.17-5.64,.44-.66,.71-1.89,.44-2.55-.27-.67-1.3-1.31-2.03-1.35-1.51-.1-3.04,.23-4.56,.32-4.78,.29-9.56,.72-14.34,.78-5.02,.07-10.05-.02-15.06-.41-4.09-.32-7.19,1.54-10.02,4.31-.97,.95-1.81,2.06-2.67,3.13-5.43,6.8-12.52,9.21-20.5,9.05-2.36-.05-4.87-.25-7.05-1.13-9.16-3.72-17.17-9.25-22.71-18.33-.36-.59-.81-1.13-1.13-1.75-1.07-2.05-2.82-2.92-4.83-3.24-1.29-.2-2.61-.24-3.91-.28-8.94-.28-17.88-.41-26.81-.84-8.05-.38-16.08-1.09-24.12-1.62-1.74-.11-3.49-.19-5.23-.08-8.27,.51-16.54,1.07-24.8,1.69-.7,.05-1.37,.72-2.18,1.17Zm-448.05,7.19c.72,1.33,1.06,2.19,1.58,2.9,1.97,2.72,4.77,4.07,7.63,5.29,3.65,1.56,7.24,3.03,10.4,5.81,7.12,6.24,14.62,11.96,21.76,18.18,3.97,3.46,8.4,5.91,12.85,8.39,2.21,1.23,4.51,1.73,6.96,1.44,7.38-.88,14.75-1.73,21.9-4.06,2.92-.95,5.88-1.84,8.88-2.39,5.94-1.09,11.21-3.7,16.12-7.41,1.95-1.47,4.08-2.74,6.26-3.78,11.59-5.55,23.75-9.42,35.71-13.86,3.71-1.38,7.37-3.33,11.19-3.88,7.93-1.14,15.11-4.31,22.12-8.14,2.72-1.49,5.3-3.27,7.88-5.02,.6-.41,.96-1.24,1.95-2.58-2.28-.28-3.72-.5-5.16-.62-2.17-.18-4.39-.04-6.52-.46-6.26-1.25-12.61-1.92-18.87-1.18-7.16,.85-14.33,1.08-21.5,1.45-3.92,.2-7.84,.22-11.75,.44-7.41,.42-14.81,.92-22.21,1.41-2.55,.17-4.59,1.28-5.94,3.78-4.02,7.43-10.18,12.27-16.97,16.29-6.61,3.91-13.59,4.44-20.95,3.02-6.48-1.25-11.4-4.82-14.88-10.59-2.5-4.15-6.02-5.29-10.09-5.27-6.54,.04-13.09,.17-19.62,.56-3.94,.23-7.84,.35-11.73-.48-2.13-.45-4.25-.77-7.04,.77Zm449.02,584.23c1.34,.55,2.26,1.14,3.22,1.27,2.81,.39,5.7,.32,8.46,.92,12.14,2.64,24.42,1.63,36.54,.74,11.3-.82,22.57-2,33.91-2.1,1.09,0,2.19-.07,3.26-.24,2.95-.47,5.4-1.76,6.78-4.88,.56-1.27,1.3-2.47,2.06-3.62,4.37-6.6,10.65-10.6,17.23-13.72,9.16-4.35,24.65-3.82,32.59,8.37,.25,.39,.53,.75,.82,1.11,2.25,2.85,5.05,4.48,8.54,4.53,2.18,.03,4.37,.04,6.55,.03,9.59-.05,19.19-1.23,28.78,.23,.77,.12,1.6-.25,2.97-.48-.8-1.68-1.08-3.31-1.96-3.92-2.74-1.91-5.6-3.73-8.61-5.02-3.3-1.41-6.32-3.12-9.04-5.6-2.68-2.44-5.48-4.72-8.28-6.99-7.68-6.22-14.83-13.15-23.37-18.21-4.16-2.46-7.98-3.44-12.42-2.6-1.94,.36-3.88,.73-5.79,1.22-7.64,1.96-15.29,3.88-22.89,6.02-2.93,.83-5.82,1.99-8.56,3.4-6.3,3.24-12.11,7.57-18.78,10.01-4.75,1.74-9.4,3.84-14.16,5.55-10.35,3.73-20.49,8.26-31.19,10.7-6.26,1.43-12.05,4.16-17.96,6.59-3.16,1.3-6.36,2.91-8.73,6.69Zm-256.85-1.35c-3.11-3.2-6.03-4.66-9.01-6.02-1.6-.73-3.39-1.14-4.82-2.15-3.19-2.27-6.72-3.31-10.35-4.23-3.82-.97-7.68-1.86-11.4-3.2-10.35-3.72-20.69-7.49-30.93-11.56-6.53-2.6-13.02-5.32-18.91-9.58-5.12-3.7-10.8-6.16-16.97-7.14-1.72-.27-3.38-.91-5.08-1.31-7.67-1.78-15.35-3.55-23.03-5.28-2.18-.49-4.43-.59-6.39,.66-4.5,2.88-9.1,5.65-13.32,8.97-6.18,4.86-12.05,10.19-18.06,15.29-4.65,3.94-9.28,7.76-15.15,9.59-3.48,1.09-6.65,3.35-8.88,6.66,1.43,2.76,3.52,2.05,5.37,1.98,4.35-.18,8.69-.66,13.03-.63,6.11,.04,12.22,.31,18.32,.69,4.03,.25,7.24-1.33,9.92-4.42,1.05-1.21,1.94-2.57,2.9-3.86,2.11-2.85,4.83-4.99,7.89-6.19,9.05-3.55,18.01-3.08,26.62,1.81,6.69,3.8,12.39,8.85,16.28,16.04,1.58,2.93,3.99,4.24,7.02,4.46,6.09,.45,12.18,1.11,18.27,1.33,9.59,.34,19.22-.14,28.76,.71,11.62,1.03,23.07-1,34.6-1.18,.79-.01,1.57-.66,3.32-1.43Zm335.52,161.03c.95,3.94,3.54,5.12,6.31,5.95,5.53,1.66,10.49,4.45,15.01,8.27,1.67,1.41,3.25,3.22,5.6,3.01,1.73-1.29,1.77-3.21,2.07-5.09,.37-2.31,.61-4.78,1.55-6.83,5.08-10.97,9.45-22.37,16.22-32.35,3.09-4.55,5.87-9.34,8.8-14.02,.61-.98,1.3-1.91,1.81-2.95,1.11-2.28,.33-4.3-1.87-5-.62-.2-1.31-.16-1.92-.39-9.25-3.5-19.29-3.69-28.37-7.93-.4-.19-.83-.32-1.25-.39-2.27-.37-4.46,1.14-4.82,3.64-.34,2.32-.33,4.71-.44,7.06-.21,4.5-.57,8.98-2.1,13.22-2.38,6.6-4.89,13.14-7.17,19.78-1.01,2.95-2.46,5.49-4.41,7.79-1.75,2.06-3.4,4.21-5.02,6.23Zm25.69-928.11c-2.93,1.84-5.32,3.03-7.39,4.7-4.1,3.32-8.59,5.58-13.46,7.12-1.23,.39-2.45,.99-3.5,1.77-1.67,1.24-1.94,3.21-.75,4.95,1.17,1.71,2.31,3.53,3.78,4.89,2.63,2.43,4.12,5.37,4.82,9.01,.35,1.82,1.41,3.46,2.01,5.24,3.35,10,7.82,19.69,7.09,30.83-.14,2.12,.37,4.24,2.12,6.26,1.25-.19,2.73-.3,4.14-.67,2.97-.77,5.89-1.76,8.86-2.5,6.38-1.6,12.79-3.09,19.18-4.66,1.91-.47,3.92-.78,5.08-3.22-.53-2.66-2.21-4.91-3.65-7.22-1.71-2.74-4.06-5.06-5.52-7.94-3.78-7.47-8.87-14.09-11.86-22.07-2.87-7.65-7.46-14.51-8.95-22.82-.19-1.04-1.03-1.95-2-3.69Zm-466.36,944.81c2.33-1.45,4.42-2.33,6.05-3.82,4.27-3.92,9.19-6.26,14.47-7.99,7.12-2.33,7.24-4.41,2.27-9.98-3.09-3.45-5.35-7.33-6.68-12.01-1.34-4.73-3.15-9.32-4.94-13.89-2.35-5.99-3.34-12.22-3.51-18.69-.06-2.09-.43-4.21-.91-6.25-.39-1.66-2.01-2.64-3.58-2.35-1.06,.19-2.06,.74-3.1,1.02-4.65,1.26-9.3,2.54-13.97,3.71-4.25,1.06-8.54,1.9-12.77,3-1.86,.48-3.95,.8-4.93,3.69,.67,1.34,1.34,3.08,2.33,4.58,1.9,2.89,4.24,5.46,5.94,8.47,4.89,8.66,10.35,16.97,14.1,26.35,2.86,7.15,6.82,13.82,7.87,21.75,.08,.61,.64,1.15,1.38,2.4Zm.72-944.15c-.55,1.01-1.36,2.1-1.78,3.35-.6,1.76-.69,3.74-1.39,5.43-7.02,16.85-14.82,33.22-25.75,47.58-.69,.91-1.33,1.87-1.95,2.85-1.69,2.69-1.24,4.29,1.57,5.37,1.22,.47,2.51,.75,3.79,1.04,6.39,1.44,12.8,2.8,19.17,4.31,2.76,.65,5.44,1.66,8.19,2.39,3.27,.86,4.85-.4,5.3-4.19,.19-1.64,.04-3.33,.29-4.96,.71-4.65,1.14-9.41,2.43-13.88,1.69-5.85,4.48-11.32,6.08-17.19,1.3-4.76,3.54-8.46,6.72-11.88,4.92-5.29,4.32-7.89-2.39-10.11-5.06-1.68-9.76-3.94-14.01-7.39-1.69-1.38-3.52-2.85-6.27-2.72ZM150.07,679.4c-1.21,.72-2.34,1.39-3.73,2.21,.44,1.26,.86,2.45,1.33,3.77q2.3-2,2.4-5.98Zm-4.53-20.08q4.45,.34,7.19-4.09c-3.52-1.83-3.61,2.84-7.19,4.09Zm1055.11,266.34c4.09,2.03,4.15,2.02,6.66-1.01-2.54,.38-4.6,.69-6.66,1.01ZM185.42,662.85c.67-1.51,1.26-2.28,1.31-3.09,.07-1.25-1.12-2.08-2.26-1.61-.47,.19-1.13,1.13-1.02,1.42,.36,.97,1.04,1.8,1.97,3.28Zm-60.47-32.06c1.4,.62,2.13,1.12,2.88,1.18,.36,.03,1.05-.78,1.09-1.26,.09-1-.45-1.96-1.48-1.75-.69,.14-1.28,.9-2.49,1.83Zm1011.99,288.53c1-.91,1.79-1.53,2.44-2.29,.21-.25,.23-1.12,.05-1.26-.44-.35-1.22-.76-1.58-.55-.68,.38-1.33,1.09-1.67,1.84-.17,.38,.35,1.13,.76,2.26ZM428.85,47.42c.82,.95,1.24,1.76,1.87,2.07,.98,.48,1.96-.58,1.78-2.01-.1-.76-.73-1.43-1.12-2.14-.73,.6-1.46,1.2-2.53,2.08Zm-.59,1481.36c.9,1.33,1.35,2.39,2.11,3.02,.64,.53,1.95-.98,1.73-2.24-.12-.72-.8-1.68-1.39-1.86-.56-.17-1.34,.55-2.44,1.08Zm755.49-585.31c-.47-.84-.72-1.92-1.24-2.12-1.6-.6-2.71,.21-3.21,1.99,1.31,1.75,2.66,.53,4.45,.13Zm-295.64,589.47c.84-1.4,1.5-2.2,1.81-3.13,.16-.47-.17-1.4-.56-1.74-.4-.35-1.41-.54-1.68-.26-.5,.52-.93,1.45-.9,2.18,.04,.79,.65,1.54,1.32,2.95Zm-.17-1483.23c.38-.44,1.39-1.15,1.3-1.61-.19-.97-.95-1.82-1.47-2.71-.55,.55-1.42,1-1.58,1.66-.27,1.1,.03,2.25,1.75,2.67Zm256.51,872.25c-1.18-.64-2.07-1.53-2.9-1.48-1.24,.08-1.61,1.36-1.32,2.63,.18,.77,.55,1.49,1.02,2.73,1.22-1.48,2.05-2.49,3.2-3.89Zm4.42,6.68c-.34-3.04-.34-3.1-2.86-3.07-.47,0-.94,.69-1.58,1.2,1.66,.7,3.04,1.28,4.44,1.87Zm54.85-273.8c.96-.27,1.58-.37,2.14-.62,.44-.2,.81-.58,1.21-.88-.41-.5-.76-1.33-1.23-1.42-1.6-.31-2.35,.59-2.12,2.92Zm-1089.05,18.5c3.56,2.62,4.55,2.28,4.94-.76-1.28,.2-2.5,.38-4.94,.76Zm2.81,232.21c1.08,.51,2.33-.11,2.45-1.31,.04-.38-.19-.98-.47-1.19-.8-.58-2.19,.2-2.44,1.38-.07,.32,.29,.74,.46,1.11Zm1044.69-232.22c-2.07,1.94-1.36,3.63-1.32,5.65q2.39-1.74,1.32-5.65Zm-8.75-22.43c0-.42,0-.83,0-1.25-.75-.33-1.49-.73-2.27-.98-.92-.3-1.73,.03-1.78,1.13-.02,.41,.71,1.15,1.17,1.22,.94,.14,1.92-.06,2.88-.13Zm25.92,267.67c.6-.46,1.34-.73,1.41-1.14,.21-1.15-.57-1.72-1.49-1.49-.68,.17-1.25,.83-1.87,1.27,.61,.43,1.22,.86,1.95,1.37ZM164.07,650.43c.77-.41,1.36-.6,1.81-1,.4-.36,.64-.93,1.47-2.22-2.16,.63-3.58,.64-3.28,3.21Zm-15.31,263.63c-.2,0-.41-.02-.61-.03-.15,.42-.33,.83-.43,1.26-.12,.53-.93,1.21,.14,1.52,.22,.06,.77-.47,.85-.82,.14-.61,.04-1.29,.04-1.94Zm1007,11.84c-.58,.42-1.04,.6-1.25,.95-.28,.46-.35,1.06-.52,1.6,.55-.17,1.3-.16,1.59-.55,.29-.4,.13-1.2,.18-2.01Zm-981.62-8.58c.67-.74,1.49-1.48,.3-2.63-.11,1.01-.21,1.82-.3,2.63Zm1026.5-15.63c-.25,.3-.68,.6-.65,.81,.05,.31,.44,.55,.68,.81,.23-.26,.68-.56,.65-.77-.05-.32-.43-.57-.68-.86Zm-.53-254.33c-.22-.29-.44-.58-.67-.86-.17,.31-.38,.61-.49,.94-.04,.12,.27,.49,.3,.47,.3-.15,.57-.36,.85-.55Zm-18.87-17.48c-.35-.14-.69-.28-1.04-.41-.19,.79-.41,1.58-.51,2.39-.01,.09,.66,.28,1.02,.43,.18-.8,.36-1.6,.53-2.4Zm-.13,14.42c.12-.34,.27-.66,.34-1.01,.01-.05-.39-.31-.45-.26-.29,.22-.52,.52-.77,.8,.29,.16,.58,.32,.88,.48Zm-19.27,251.85c.17-.38,.34-.76,.5-1.14-.24-.09-.49-.18-.73-.28-.1,.41-.2,.82-.27,1.24,0,.03,.32,.11,.49,.17ZM135.93,639.39c-.26,.27-.51,.55-.77,.82,.16,.14,.34,.43,.46,.4,.37-.09,.72-.3,1.08-.46-.26-.25-.51-.51-.77-.76Zm1.61-3c-.02-.21-.04-.41-.06-.62-.28,.11-.56,.22-.84,.32,.12,.17,.21,.43,.36,.48,.15,.05,.36-.11,.54-.18Zm1043.81,299.27c-.32,.25-.76,.43-.92,.76-.09,.2,.24,.64,.39,.97,.32-.26,.74-.45,.91-.79,.09-.18-.24-.62-.38-.94Zm-28.41-276.29c-.18,.29-.38,.56-.51,.88-.03,.06,.28,.41,.36,.38,.29-.11,.55-.32,.82-.49-.22-.26-.45-.51-.67-.77Zm-1000.18,19.24c.21-.27,.45-.53,.61-.83,.04-.07-.25-.46-.3-.44-.31,.13-.6,.33-.9,.51,.19,.25,.38,.51,.58,.76Zm11.54-12.95c-.07-.18-.14-.36-.21-.54-.27,.17-.54,.32-.79,.52-.02,.02,.16,.33,.24,.5,.25-.16,.5-.32,.75-.48Zm993.71,228.96c-.33,.04-.67,.05-1,.13-.06,.01-.05,.31-.08,.47,.34-.03,.69-.03,1.03-.1,.04,0,.04-.33,.05-.5Zm34.19-263.34c-.16,.38-.34,.76-.46,1.15-.01,.04,.31,.2,.47,.31,.13-.37,.3-.73,.38-1.11,.02-.08-.25-.23-.39-.35Zm-996.32,19.91c-.37-.09-.74-.22-1.11-.24-.13,0-.27,.25-.4,.39,.24,.21,.53,.62,.72,.57,.3-.08,.54-.47,.8-.73Zm-28.18,2.48v-.53c-.25,.1-.5,.2-.74,.29,.09,.14,.17,.37,.29,.4,.14,.04,.31-.11,.45-.17Zm-52.43,262.23c.31-.24,.62-.47,.92-.71-.29-.17-.66-.55-.86-.46-.27,.12-.4,.59-.59,.91,.17,.09,.35,.17,.52,.26Zm28.96,5.66c.21-.31,.6-.63,.58-.92-.02-.27-.47-.51-.73-.76-.29,.4-.57,.8-.86,1.2,.34,.16,.67,.32,1.01,.48Zm39.43-254.13c.21-.42,.32-.63,.42-.85-.14,0-.39-.02-.4,.02-.05,.18-.02,.38-.02,.83Zm-11.25-15.93l-.09,.54,.47-.2-.38-.35Zm-1.32,26.89c.16,.06,.32,.13,.48,.19-.04-.25-.06-.5-.13-.74,0-.03-.3,.04-.46,.07,.04,.16,.07,.32,.11,.48Zm-4.31,239.72c.34,.12,.57,.2,.8,.29-.05-.18-.09-.37-.14-.55-.17,.07-.35,.14-.66,.27Zm.12,24.24c.18-.02,.35-.04,.53-.06-.05-.32-.07-.64-.16-.94-.02-.05-.31,0-.48,0,.03,.34,.07,.67,.1,1.01Zm993.7-28.69c-.14,.33-.32,.65-.39,1-.02,.12,.31,.45,.34,.43,.26-.17,.49-.4,.74-.61-.23-.27-.45-.55-.68-.83ZM153.07,681.29c-.16,.02-.32,.03-.48,.05,.08,.26,.16,.51,.23,.77,.13-.11,.33-.19,.37-.32,.04-.14-.08-.33-.12-.5Zm1030.29-21.11l.25,.38,.2-.44-.45,.05ZM136.13,946.03c-.21-.29-.41-.57-.62-.86-.13,.11-.38,.31-.37,.33,.17,.3,.37,.58,.59,.84,.02,.02,.27-.2,.41-.31Zm1050.93-284.19l.24-.52-.38-.07,.13,.59Zm-35.25-25.9l.23-.48c-.21-.09-.41-.19-.62-.28,0,.19-.04,.39,.03,.55,.05,.11,.24,.15,.36,.22Zm-991.5,45.58l-.25,.4,.39,.06-.15-.47Zm3.11,243.18l-.04,.49,.47-.2-.43-.29Zm-14.2-2.32l.04-.56-.54,.24,.5,.32Zm16.44-22.43l-.34-.04,.14,.43,.2-.39Zm1027.87,45.61l.2,.46,.22-.45h-.43Zm-40.63-266.44c-.06,.18-.11,.37-.17,.55,.16,.04,.39,.18,.45,.11,.11-.11,.16-.35,.14-.52,0-.07-.27-.1-.42-.15ZM184,908.17c.14-.05,.29-.1,.43-.15-.18-.1-.36-.19-.54-.29,.04,.15,.07,.29,.11,.44Zm6.59-248.93l-.2-.46-.21,.46h.41ZM828.75,309.26c.18-.02,.42,.02,.51-.08,.11-.14,.09-.4,.13-.61-.27,.04-.53,.09-.8,.13,.05,.19,.11,.37,.16,.56Zm325.63,354.67c.03,.14,.05,.4,.1,.41,.14,.02,.3-.06,.45-.1-.03-.14-.05-.4-.1-.41-.14-.02-.3,.06-.45,.1Zm-10.53,252.98l-.31,.53,.49,.08-.18-.61Zm10.27-261.09c-.07,.2-.14,.4-.21,.6,.16,.06,.42,.22,.48,.16,.13-.14,.15-.38,.22-.58-.16-.06-.33-.12-.49-.19Zm48.83,251.6c.05-.17,.11-.35,.16-.52-.23-.02-.46-.03-.69-.05,.04,.18,.03,.39,.12,.52,.06,.08,.27,.03,.41,.04ZM115.78,667.66l-.35-.04,.14,.42,.21-.38Zm1037.48,237.63c.11-.06,.26-.13,.4-.21-.11-.12-.21-.32-.34-.34-.13-.02-.28,.13-.42,.21,.12,.11,.23,.22,.36,.34Zm-1041.72,13.3l.24,.56,.23-.55h-.48Zm1093.5,2.21l-.35-.27-.06,.43,.41-.16Z" />
    </g>
</svg>
