<?xml version="1.0" encoding="utf-8"?>
<!-- Generator: Adobe Illustrator 27.0.1, SVG Export Plug-In . SVG Version: 6.00 Build 0)  -->
<svg version="1.1" id="Layer_2_00000101069922767001816750000016405167728114670722_"
	 xmlns="http://www.w3.org/2000/svg" xmlns:xlink="http://www.w3.org/1999/xlink" x="0px" y="0px" viewBox="0 0 949.1 167.3"
	 style="enable-background:new 0 0 949.1 167.3;" xml:space="preserve">
<style type="text/css">
	.st0{enable-background:new    ;}
	.st1{fill:#3347FF;}
</style>
<g id="Layer_1-2">
	<g class="st0">
		<path class="st1" d="M9.2,27.8c2-2,4.3-3,7.1-3c2.7,0,5.1-1,7.1-2.9c2-1.9,3-4.2,3-6.9c0-2.7,1-5.1,2.9-7.1c1.9-2,4.2-3,6.9-3
			c2.9,0,5.3,1,7.2,3c1.9,2,2.9,4.3,2.9,7.1c0-2.7,1-5.1,3-7.1c2-2,4.3-3,7.1-3c2.7,0,5.1,1,7.1,3c2,2,3,4.3,3,7.1
			c0-2.7,1-5.1,2.9-7.1c1.9-2,4.2-3,6.9-3c2.9,0,5.3,1,7.2,3c1.9,2,2.9,4.3,2.9,7.1c0,2.7,1,5,3,6.9c2,1.9,4.3,2.9,7.1,2.9
			c2.7,0,5.1,1,7.1,3c2,2,3,4.3,3,7.1c0,2.7-1,5.1-3,7.1c-2,2-4.3,3-7.1,3c2.7,0,5.1,1,7.1,3c2,2,3,4.3,3,7.1c0,2.6-1,4.8-3,6.7
			c-2,1.9-4.3,2.9-7.1,2.9c2.7,0,5.1,1,7.1,3c2,2,3,4.3,3,7.1c0,2.7-1,5.1-3,7.1c-2,2-4.3,3-7.1,3c2.7,0,5.1,1,7.1,3
			c2,2,3,4.3,3,7.1c0,2.7-1,5.1-3,7.1c-2,2-4.3,3-7.1,3c-2.7,0-5.1,1-7.1,2.9c-2,1.9-3,4.2-3,6.9c0,2.7-1,5.1-2.9,7.1
			c-1.9,2-4.3,3-7.2,3c-2.7,0-5-1-6.9-3c-1.9-2-2.9-4.3-2.9-7.1c0,2.7-1,5.1-3,7.1c-2,2-4.3,3-7.1,3c-2.7,0-5.1-1-7.1-3
			c-2-2-3-4.3-3-7.1c0-2.7-1-5-2.9-6.9s-4.3-2.9-7.2-2.9c2.9,0,5.3-1,7.2-3c1.9-2,2.9-4.3,2.9-7.1c0,2.7,1,5.1,3,7.1
			c2,2,4.3,3,7.1,3c2.7,0,5.1-1,7.1-3c2-2,3-4.3,3-7.1c0,2.7,1,5.1,2.9,7.1c1.9,2,4.2,3,6.9,3c2.9,0,5.3-1,7.2-3
			c1.9-2,2.9-4.3,2.9-7.1c0-2.7-1-5.1-2.9-7.1c-1.9-2-4.3-3-7.2-3c2.9,0,5.3-1,7.2-3c1.9-2,2.9-4.3,2.9-7.1c0-2.7-1-5.1-2.9-7.1
			c-1.9-2-4.3-3-7.2-3c2.9,0,5.3-0.9,7.2-2.7c1.9-1.8,2.9-4.1,2.9-6.8c0-2.7-1-5.1-2.9-7.1c-1.9-2-4.3-3-7.2-3c2.9,0,5.3-1,7.2-3
			c1.9-2,2.9-4.3,2.9-7.1c0-2.7-1-5.1-2.9-7.1c-1.9-2-4.3-3-7.2-3c-2.7,0-5,1-6.9,3c-1.9,2-2.9,4.3-2.9,7.1c0-2.7-1-5.1-3-7.1
			c-2-2-4.3-3-7.1-3c-2.7,0-5.1,1-7.1,3c-2,2-3,4.3-3,7.1c0-2.7-1-5.1-2.9-7.1c-1.9-2-4.3-3-7.2-3c-2.7,0-5,1-6.9,3
			c-1.9,2-2.9,4.3-2.9,7.1c0,2.7,1,5.1,2.9,7.1c1.9,2,4.2,3,6.9,3c-2.7,0-5,1-6.9,3c-1.9,2-2.9,4.3-2.9,7.1c0,2.7,1,5,2.9,6.8
			c1.9,1.8,4.2,2.7,6.9,2.7c-2.7,0-5,1-6.9,3c-1.9,2-2.9,4.3-2.9,7.1c0,2.7,1,5.1,2.9,7.1c1.9,2,4.2,3,6.9,3c-2.7,0-5,1-6.9,3
			c-1.9,2-2.9,4.3-2.9,7.1c0,2.7,1,5.1,2.9,7.1c1.9,2,4.2,3,6.9,3c-2.7,0-5,1-6.9,2.9c-1.9,1.9-2.9,4.2-2.9,6.9c0,2.7,1,5.1,2.9,7.1
			c1.9,2,4.2,3,6.9,3c-2.7,0-5,1-6.9,3c-1.9,2-2.9,4.3-2.9,7.1c0,2.7,1,5.1,2.9,7.1c1.9,2,4.2,3,6.9,3c-2.7,0-5,1-6.9,2.9
			c-1.9,1.9-2.9,4.2-2.9,6.9c0,2.7-1,5.1-3,7.1c-2,2-4.3,3-7.1,3c-2.7,0-5.1-1-7.1-3c-2-2-3-4.3-3-7.1c0-2.7,1-5,3-6.9
			c2-1.9,4.3-2.9,7.1-2.9c-2.7,0-5.1-1-7.1-3c-2-2-3-4.3-3-7.1c0-2.7,1-5.1,3-7.1c2-2,4.3-3,7.1-3c-2.7,0-5.1-1-7.1-3
			c-2-2-3-4.3-3-7.1c0-2.7,1-5,3-6.9c2-1.9,4.3-2.9,7.1-2.9c-2.7-0.2-5.1-1.2-7.1-3.1c-2-1.9-3-4.2-3-6.9c0-2.7,1-5.1,3-7.1
			c2-2,4.3-3,7.1-3c-2.7,0-5.1-1-7.1-3c-2-2-3-4.3-3-7.1c0-2.7,1-5.1,3.1-7.1c2.1-2,4.4-3,6.9-3c-2.7,0-5.1-1-7.1-2.9
			c-2-1.9-3-4.1-3-6.7c0-2.7,1-5.1,3-7.1c2-2,4.3-3,7.1-3c-2.7,0-5.1-1-7.1-3c-2-2-3-4.3-3-7.1C6.3,32.1,7.3,29.8,9.2,27.8z"/>
		<path class="st1" d="M123,121.5c-2,2-4.3,3-7.1,3c-2.7,0-5-1-6.9-3c-1.9-2-2.9-4.3-2.9-7.1c0-2.7,1-5,2.9-6.9
			c1.9-1.9,4.2-2.9,6.9-2.9c-2.7,0-5-1-6.9-3c-1.9-2-2.9-4.3-2.9-7.1c0-2.7,1-5.1,2.9-7.1c1.9-2,4.2-3,6.9-3c-2.7,0-5-1-6.9-2.9
			c-1.9-1.9-2.9-4.2-2.9-6.9c0-2.7,1-5.1,2.9-7.1c1.9-2,4.2-3,6.9-3c-2.7,0-5-1-6.9-3c-1.9-2-2.9-4.3-2.9-7.1c0-2.7,1-5,2.9-6.9
			c1.9-1.9,4.2-2.9,6.9-2.9c-2.7,0-5-1-6.9-3c-1.9-2-2.9-4.3-2.9-7.1c0-2.7,1-5.1,2.9-7.1c1.9-2,4.2-3,6.9-3c2.7,0,5.1-1,7.1-2.9
			c2-1.9,3-4.2,3-6.9c0-2.7,1-5.1,3-7.1c2-2,4.3-3,7.1-3c2.7,0,5,1,6.9,3c1.9,2,2.9,4.3,2.9,7.1c0-2.7,1-5.1,3-7.1c2-2,4.3-3,7.1-3
			c2.7,0,5.1,1,7.1,3c2,2,3,4.3,3,7.1c0-2.7,1-5.1,2.9-7.1c1.9-2,4.2-3,6.9-3c2.7,0,5.1,1,7.1,3c2,2,3,4.3,3,7.1c0,2.7-1,5-3,6.9
			c-2,1.9-4.3,2.9-7.1,2.9c-2.7,0-5,1-6.9,3c-1.9,2-2.9,4.3-2.9,7.1c0-2.7-1-5.1-3-7.1c-2-2-4.3-3-7.1-3c-2.7,0-5.1,1-7.1,3
			c-2,2-3,4.3-3,7.1c0-2.7-1-5.1-2.9-7.1c-1.9-2-4.2-3-6.9-3c-2.7,0-5.1,1-7.1,3c-2,2-3,4.3-3,7.1c0,2.7,1,5.1,3,7.1
			c2,2,4.3,3,7.1,3c-2.7,0-5.1,1-7.1,2.9c-2,1.9-3,4.2-3,6.9c0,2.7,1,5.1,3,7.1c2,2,4.3,3,7.1,3c-2.7,0-5.1,1-7.1,3
			c-2,2-3,4.3-3,7.1c0,2.7,1,5,3,6.9c2,1.9,4.3,2.9,7.1,2.9c-2.7,0-5.1,1-7.1,3c-2,2-3,4.3-3,7.1c0,2.7,1,5.1,3,7.1c2,2,4.3,3,7.1,3
			c-2.7,0-5.1,1-7.1,2.9c-2,1.9-3,4.2-3,6.9C126,117.1,125,119.5,123,121.5z"/>
		<path class="st1" d="M222.7,121.5c-2,2-4.3,3-7.1,3c-2.7,0-5-1-6.9-3c-1.9-2-2.9-4.3-2.9-7.1c0-2.7-1-5-3-6.9
			c-2-1.9-4.3-2.9-7.1-2.9c-2.7,0-5.1-1-7.1-3c-2-2-3-4.3-3-7.1c0-2.7,1-5.1,3-7.1c2-2,4.3-3,7.1-3c-2.7,0-5.1-1-7.1-2.9
			c-2-1.9-3-4.2-3-6.9c0-2.7,1-5.1,3-7.1c2-2,4.3-3,7.1-3c-2.7,0-5.1-1-7.1-3c-2-2-3-4.3-3-7.1c0-2.7,1-5,3-6.9
			c2-1.9,4.3-2.9,7.1-2.9c-2.7,0-5.1-1-7.1-3c-2-2-3-4.3-3-7.1c0-2.7,1-5.1,3-7.1c2-2,4.3-3,7.1-3c2.7,0,5.1-1,7.1-2.9
			c2-1.9,3-4.2,3-6.9c0-2.7,1-5.1,2.9-7.1c1.9-2,4.2-3,6.9-3c2.7,0,5.1,1,7.1,3c2,2,3,4.3,3,7.1c0-2.7,1-5.1,3-7.1c2-2,4.3-3,7.1-3
			c2.7,0,5,1,6.9,3c1.9,2,2.9,4.3,2.9,7.1c0-2.7,1-5.1,3-7.1c2-2,4.3-3,7.1-3c2.7,0,5.1,1,7.1,3c2,2,3,4.3,3,7.1c0,2.7,1,5,2.9,6.9
			c1.9,1.9,4.2,2.9,6.9,2.9c2.7,0,5.1,1,7.1,3c2,2,3,4.3,3,7.1c0,2.7-1,5.1-3,7.1c-2,2-4.3,3-7.1,3c2.7,0,5.1,1,7.1,2.9
			c2,1.9,3,4.2,3,6.9c0,2.7-1,5.1-3,7.1c-2,2-4.3,3-7.1,3c2.7,0,5.1,1,7.1,3c2,2,3,4.3,3,7.1c0,2.7-1,5-3,6.9
			c-2,1.9-4.3,2.9-7.1,2.9c2.7,0,5.1,1,7.1,3c2,2,3,4.3,3,7.1c0,2.7-1,5.1-3,7.1c-2,2-4.3,3-7.1,3c-2.7,0-5,1-6.9,2.9
			c-1.9,1.9-2.9,4.2-2.9,6.9c0,2.7-1,5.1-3,7.1c-2,2-4.3,3-7.1,3c-2.7,0-5.1-1-7.1-3c-2-2-3-4.3-3-7.1c0,2.7-1,5.1-2.9,7.1
			c-1.9,2-4.2,3-6.9,3c-2.7,0-5.1-1-7.1-3c-2-2-3-4.3-3-7.1C225.7,117.1,224.7,119.5,222.7,121.5z M208.7,101.6c1.9,2,4.2,3,6.9,3
			c2.7,0,5.1-1,7.1-3c2-2,3-4.3,3-7.1c0,2.7,1,5.1,3,7.1c2,2,4.3,3,7.1,3c2.7,0,5-1,6.9-3c1.9-2,2.9-4.3,2.9-7.1c0,2.7,1,5.1,3,7.1
			c2,2,4.3,3,7.1,3c2.7,0,5.1-1,7.1-3c2-2,3-4.3,3-7.1c0-2.7-1-5.1-3-7.1c-2-2-4.3-3-7.1-3c2.7,0,5.1-1,7.1-2.9c2-1.9,3-4.2,3-6.9
			c0-2.7-1-5.1-3-7.1c-2-2-4.3-3-7.1-3c2.7,0,5.1-1,7.1-3c2-2,3-4.3,3-7.1c0-2.7-1-5-3-6.9c-2-1.9-4.3-2.9-7.1-2.9
			c2.7,0,5.1-1,7.1-3c2-2,3-4.3,3-7.1c0-2.7-1-5.1-3-7.1c-2-2-4.3-3-7.1-3c-2.7,0-5.1,1-7.1,3c-2,2-3,4.3-3,7.1c0-2.7-1-5.1-2.9-7.1
			c-1.9-2-4.2-3-6.9-3c-2.7,0-5.1,1-7.1,3c-2,2-3,4.3-3,7.1c0-2.7-1-5.1-3-7.1c-2-2-4.3-3-7.1-3c-2.7,0-5,1-6.9,3
			c-1.9,2-2.9,4.3-2.9,7.1c0,2.7,1,5.1,2.9,7.1c1.9,2,4.2,3,6.9,3c-2.7,0-5,1-6.9,2.9c-1.9,1.9-2.9,4.2-2.9,6.9c0,2.7,1,5.1,2.9,7.1
			c1.9,2,4.2,3,6.9,3c-2.7,0-5,1-6.9,3c-1.9,2-2.9,4.3-2.9,7.1c0,2.7,1,5,2.9,6.9c1.9,1.9,4.2,2.9,6.9,2.9c-2.7,0-5,1-6.9,3
			c-1.9,2-2.9,4.3-2.9,7.1C205.9,97.3,206.8,99.6,208.7,101.6z"/>
		<path class="st1" d="M382.2,61.6c-2,2.1-4.3,3.1-7.1,3.1c2.7,0,5.1,1,7.1,3c2,2,3,4.3,3,7.1c0,2.6-1,4.8-3,6.8c-2,2-4.3,3-7.1,3
			c2.7,0,5.1,1,7.1,3c2,2,3,4.3,3,6.8c0,2.9-1,5.3-3,7.2c-2,1.9-4.3,2.9-7.1,2.9c2.7,0,5.1,1,7.1,3c2,2,3,4.4,3,7.3
			c0,2.6-1,4.8-3,6.8c-2,2-4.3,3-7.1,3c2.7,0,5.1,1,7.1,3c2,2,3,4.3,3,6.8c0,2.7-1,5.1-3,7.1c-2,2-4.3,3-7.1,3c-2.7,0-5.1,1-7.1,2.9
			c-2,1.9-3,4.1-3,6.7c0,2.9-1,5.3-2.9,7.3c-1.9,2-4.2,3-6.9,3c-2.9,0-5.2-1-7.1-3c-1.8-2-2.7-4.4-2.7-7.3c0,2.9-1,5.3-3,7.3
			c-2,2-4.4,3-7.3,3c-2.7,0-5.1-1-7.1-3c-2-2-3-4.4-3-7.3c0,2.9-0.9,5.3-2.7,7.3c-1.8,2-4.2,3-7.1,3c-2.7,0-5.1-1-7.2-3
			c-2.1-2-3.1-4.4-3.1-7.3c0-2.6-1-4.8-2.9-6.7c-1.9-1.9-4.1-2.9-6.7-2.9c-2.7,0-5.1-1-7.1-3c-2-2-3-4.3-3-7.1c0-2.7,1-5,3-6.9
			c2-1.9,4.3-2.9,7.1-2.9c2.5,0,4.8,1,6.7,2.9c1.9,1.9,2.9,4.2,2.9,6.9c0,2.7,1,5.1,3.1,7.1c2.1,2,4.5,3,7.2,3c2.9,0,5.2-1,7.1-3
			c1.8-2,2.7-4.3,2.7-7.1c0,2.7,1,5.1,3,7.1c2,2,4.3,3,7.1,3c2.9,0,5.3-1,7.3-3c2-2,3-4.3,3-7.1c0,2.7,0.9,5.1,2.7,7.1
			c1.8,2,4.2,3,7.1,3c2.7,0,5-1,6.9-3c1.9-2,2.9-4.3,2.9-7.1c0-2.7-1-5-2.9-6.9c-1.9-1.9-4.2-2.9-6.9-2.9c2.7,0,5-1,6.9-2.9
			c1.9-1.9,2.9-4.2,2.9-6.9c0-3-1-5.5-2.9-7.4c-1.9-1.9-4.2-2.9-6.9-2.9c2.9,0,5.2-1,7.1-2.9c1.8-1.9,2.7-4.3,2.7-7.2
			c0-2.7-1-5-2.9-6.9c-1.9-1.9-4.2-2.9-6.9-2.9c2.7,0,5-1,6.9-2.9c1.9-1.9,2.9-4.2,2.9-6.9c0-2.7-1-5.1-2.9-7.1c-1.9-2-4.2-3-6.9-3
			c2.7,0,5-1,6.9-3.1c1.9-2.1,2.9-4.5,2.9-7.2c0-2.4-1-4.6-2.9-6.6c-1.9-2-4.2-3-6.9-3c2.7,0,5-1,6.9-2.9c1.9-1.9,2.9-4.2,2.9-6.9
			c0-3-0.9-5.5-2.7-7.3c-1.8-1.8-4.2-2.7-7.1-2.7s-5.2,0.9-7.1,2.7c-1.8,1.8-2.7,4.3-2.7,7.3c0-2.9-1-5.3-3-7.2
			c-2-1.9-4.4-2.9-7.3-2.9c-2.9,0-5.3,1-7.2,2.9c-1.9,1.9-2.9,4.3-2.9,7.2c0-3-0.9-5.5-2.7-7.3c-1.8-1.8-4.2-2.7-7.1-2.7
			s-5.3,1-7.3,2.9c-2,1.9-3,4.3-3,7.2c0,2.6,1,4.8,3.1,6.8c2.1,2,4.5,3,7.2,3c-2.7,0-5.1,1-7.2,3c-2.1,2-3.1,4.2-3.1,6.6
			c0,2.7,1,5.1,3.1,7.2c2.1,2.1,4.5,3.1,7.2,3.1c-2.7,0-5.1,1-7.2,3c-2.1,2-3.1,4.3-3.1,7.1c0,2.6,1,4.8,3.1,6.8c2.1,2,4.5,3,7.2,3
			c-2.7,0-5.1,1-7.2,3c-2.1,2-3.1,4.3-3.1,6.8c0,2.9,1,5.3,3,7.2c2,1.9,4.4,2.9,7.3,2.9s5.2-0.9,7.1-2.7c1.8-1.8,2.7-4.3,2.7-7.3
			c0,2.9,1,5.3,2.9,7.2c1.9,1.9,4.3,2.9,7.2,2.9c2.9,0,5.3-1,7.3-2.9c2-1.9,3-4.3,3-7.2c0,3,0.9,5.5,2.7,7.3
			c1.8,1.8,4.2,2.7,7.1,2.7c-2.9,0-5.2,1-7.1,2.9c-1.8,1.9-2.7,4.4-2.7,7.4c0,2.7-1,5-3,6.9c-2,1.9-4.4,2.9-7.3,2.9
			c-2.7,0-5.1-1-7.1-2.9c-2-1.9-3-4.2-3-6.9c0,2.7-0.9,5-2.7,6.9c-1.8,1.9-4.2,2.9-7.1,2.9c-2.7,0-5.1-1-7.2-3
			c-2.1-2-3.1-4.3-3.1-6.8c0-3-0.9-5.5-2.7-7.4c-1.8-1.9-4.1-2.9-6.8-2.9c-2.9,0-5.3-1-7.2-2.9c-1.9-1.9-2.9-4.3-2.9-7.2
			c0-2.7,1-5,3-6.9c2-1.9,4.3-2.9,7.1-2.9c-2.7,0-5.1-1-7.1-2.9c-2-1.9-3-4.2-3-6.9c0-2.7,1-5.1,3-7.1c2-2,4.3-3,7.1-3
			c-2.7,0-5.1-1-7.1-3.1c-2-2.1-3-4.5-3-7.2c0-2.4,1-4.6,3-6.6c2-2,4.3-3,7.1-3c-2.7,0-5.1-1-7.1-2.9c-2-1.9-3-4.2-3-6.9
			c0-2.9,1-5.3,2.9-7.2c1.9-1.9,4.3-2.9,7.2-2.9c2.7,0,5-1,6.8-2.9c1.8-1.9,2.7-4.4,2.7-7.4c0-2.5,1-4.8,3.1-6.8c2.1-2,4.5-3,7.2-3
			c2.9,0,5.2,1,7.1,2.9c1.8,1.9,2.7,4.2,2.7,6.9c0-2.7,1-5,3-6.9c2-1.9,4.3-2.9,7.1-2.9c2.9,0,5.3,1,7.3,2.9c2,1.9,3,4.2,3,6.9
			c0-2.7,0.9-5,2.7-6.9c1.8-1.9,4.2-2.9,7.1-2.9c2.7,0,5,1,6.9,2.9c1.9,1.9,2.9,4.2,2.9,6.9c0,2.9,1,5.3,3,7.3c2,2,4.3,3,7.1,3
			c2.7,0,5.1,1,7.1,2.9c2,1.9,3,4.3,3,7.2c0,2.6-1,4.8-3,6.8c-2,2-4.3,3-7.1,3c2.5,0,4.9,1,6.9,3c2.1,2,3.1,4.2,3.1,6.6
			C385.2,57.1,384.2,59.5,382.2,61.6z"/>
		<path class="st1" d="M402,121.5c-2,2-4.3,3-7.1,3c-2.7,0-5-1-6.9-3c-1.9-2-2.9-4.3-2.9-7.1c0-2.7,1-5,2.9-6.9
			c1.9-1.9,4.2-2.9,6.9-2.9c-2.7,0-5-1-6.9-3c-1.9-2-2.9-4.3-2.9-7.1c0-2.7,1-5.1,2.9-7.1c1.9-2,4.2-3,6.9-3c-2.7,0-5-1-6.9-2.9
			c-1.9-1.9-2.9-4.2-2.9-6.9c0-2.7,1-5.1,2.9-7.1c1.9-2,4.2-3,6.9-3c-2.7,0-5-1-6.9-3c-1.9-2-2.9-4.3-2.9-7.1c0-2.7,1-5,2.9-6.9
			c1.9-1.9,4.2-2.9,6.9-2.9c-2.7,0-5-1-6.9-3c-1.9-2-2.9-4.3-2.9-7.1c0-2.7,1-5.1,2.9-7.1c1.9-2,4.2-3,6.9-3c2.7,0,5.1-1,7.1-2.9
			c2-1.9,3-4.2,3-6.9c0-2.7,1-5.1,3-7.1c2-2,4.3-3,7.1-3c2.7,0,5,1,6.9,3c1.9,2,2.9,4.3,2.9,7.1c0-2.7,1-5.1,3-7.1c2-2,4.3-3,7.1-3
			c2.7,0,5.1,1,7.1,3c2,2,3,4.3,3,7.1c0-2.7,1-5.1,2.9-7.1c1.9-2,4.2-3,6.9-3c2.7,0,5.1,1,7.1,3c2,2,3,4.3,3,7.1c0,2.7-1,5-3,6.9
			c-2,1.9-4.3,2.9-7.1,2.9c-2.7,0-5,1-6.9,3c-1.9,2-2.9,4.3-2.9,7.1c0-2.7-1-5.1-3-7.1c-2-2-4.3-3-7.1-3c-2.7,0-5.1,1-7.1,3
			c-2,2-3,4.3-3,7.1c0-2.7-1-5.1-2.9-7.1c-1.9-2-4.2-3-6.9-3c-2.7,0-5.1,1-7.1,3c-2,2-3,4.3-3,7.1c0,2.7,1,5.1,3,7.1
			c2,2,4.3,3,7.1,3c-2.7,0-5.1,1-7.1,2.9c-2,1.9-3,4.2-3,6.9c0,2.7,1,5.1,3,7.1c2,2,4.3,3,7.1,3c-2.7,0-5.1,1-7.1,3
			c-2,2-3,4.3-3,7.1c0,2.7,1,5,3,6.9c2,1.9,4.3,2.9,7.1,2.9c-2.7,0-5.1,1-7.1,3c-2,2-3,4.3-3,7.1c0,2.7,1,5.1,3,7.1c2,2,4.3,3,7.1,3
			c-2.7,0-5.1,1-7.1,2.9c-2,1.9-3,4.2-3,6.9C405,117.1,404,119.5,402,121.5z"/>
		<path class="st1" d="M547.5,121.6c-1.9-1.9-2.9-4.2-2.9-6.9c0-2.9-1-5.3-2.9-7.2c-1.9-1.9-4.4-2.9-7.4-2.9c2.9,0,5.3-1,7.3-2.9
			c2-1.9,3-4.2,3-6.9c0-2.9-1-5.3-2.9-7.3c-1.9-2-4.4-3-7.4-3c3,0,5.5-0.9,7.4-2.8c1.9-1.8,2.9-4.3,2.9-7.3c0-2.7-1-5-3-6.9
			c-2-1.9-4.4-2.9-7.3-2.9c2.9,0,5.3-1,7.3-2.9c2-1.9,3-4.2,3-6.9c0-2.9-1-5.3-2.9-7.2c-1.9-1.9-4.4-2.9-7.4-2.9
			c2.9,0,5.3-1,7.3-2.9c2-1.9,3-4.2,3-6.9c0-2.9-1-5.3-2.9-7.3c-1.9-2-4.4-3-7.4-3c-2.7,0-5,1-6.9,3c-1.9,2-2.9,4.4-2.9,7.3
			c0-2.9-1-5.3-2.9-7.3c-1.9-2-4.2-3-6.9-3c-2.7,0-5.1,1-7.1,3c-2,2-3,4.4-3,7.3c0-2.9-1-5.3-2.9-7.3c-1.9-2-4.2-3-6.9-3
			c-2.9,0-5.3,1-7.3,3c-2,2-3,4.4-3,7.3c0,2.7-0.9,5-2.8,6.9c-1.8,1.9-4.2,2.9-7.1,2.9c-2.7,0-5.1-1-7.1-2.9c-2-1.9-3-4.2-3-6.9
			c0-2.9,1-5.3,3-7.3c2-2,4.3-3,7.1-3c2.9,0,5.2-0.9,7.1-2.7c1.8-1.8,2.8-4.2,2.8-7.1c0-2.7,1-5.1,3-7.1c2-2,4.4-3,7.3-3
			c2.7,0,5,1,6.9,3c1.9,2,2.9,4.3,2.9,7.1c0-2.7,1-5.1,3-7.1c2-2,4.3-3,7.1-3c2.7,0,5,1,6.9,3c1.9,2,2.9,4.3,2.9,7.1
			c0-2.7,1-5.1,2.9-7.1c1.9-2,4.2-3,6.9-3c3,0,5.5,1,7.4,2.9c1.9,1.9,2.9,4.3,2.9,7.2c0,2.9,1,5.2,2.9,7.1c1.9,1.8,4.2,2.7,6.9,2.7
			c2.7,0,5.1,1,7.1,3c2,2,3,4.4,3,7.3c0,2.7-1,5-3,6.9c-2,1.9-4.3,2.9-7.1,2.9c2.7,0,5.1,1,7.1,3c2,2,3,4.3,3,7.1c0,2.7-1,5-3,6.9
			c-2,1.9-4.3,2.9-7.1,2.9c2.7,0,5.1,1,7.1,2.9c2,1.9,3,4.2,3,6.9c0,2.9-1,5.3-2.9,7.2c-1.9,1.9-4.3,2.9-7.2,2.9c2.7,0,5.1,1,7.1,3
			c2,2,3,4.4,3,7.3c0,2.7-1,5-3,6.9c-2,1.9-4.3,2.9-7.1,2.9c2.7,0,5.1,1,7.1,3c2,2,3,4.3,3,7.1c0,2.7-1,5-3,6.9
			c-2,1.9-4.3,2.9-7.1,2.9C551.7,124.5,549.4,123.5,547.5,121.6z M487.6,121.6c-2-1.9-3-4.2-3-6.9c0-2.9-0.9-5.3-2.8-7.2
			c-1.8-1.9-4.2-2.9-7.1-2.9c-2.7,0-5.1-1-7.1-2.9c-2-1.9-3-4.2-3-6.9c0-2.9,1-5.3,3-7.3c2-2,4.3-3,7.1-3c-2.9,0-5.3-1-7.2-2.9
			c-1.9-1.9-2.9-4.3-2.9-7.2c0-2.7,1-5,3-6.9c2-1.9,4.3-2.9,7.1-2.9c2.9,0,5.2-1,7.1-2.9c1.8-1.9,2.8-4.2,2.8-6.9c0-2.7,1-5.1,3-7.1
			c2-2,4.4-3,7.3-3c2.7,0,5,1,6.9,3c1.9,2,2.9,4.3,2.9,7.1c0-2.7,1-5.1,3-7.1c2-2,4.3-3,7.1-3c2.7,0,5,1,6.9,3
			c1.9,2,2.9,4.3,2.9,7.1c0,2.6,1,4.8,3,6.8c2,2,4.3,3,6.8,3c-2.6,0-4.8,1-6.8,2.9c-2,1.9-3,4.2-3,6.9c0-2.7-1-5-2.9-6.9
			c-1.9-1.9-4.2-2.9-6.9-2.9c-2.7,0-5.1,1-7.1,2.9c-2,1.9-3,4.2-3,6.9c0-2.7-1-5-2.9-6.9c-1.9-1.9-4.2-2.9-6.9-2.9
			c-2.9,0-5.3,1-7.3,2.9c-2,1.9-3,4.2-3,6.9c0,2.9,1,5.3,3,7.2c2,1.9,4.4,2.9,7.3,2.9c-2.9,0-5.3,1-7.3,3c-2,2-3,4.4-3,7.3
			c0,2.7,1,5,3,6.9c2,1.9,4.4,2.9,7.3,2.9c2.7,0,5-1,6.9-3c1.9-2,2.9-4.3,2.9-6.8c0,2.7,1,5,3,6.9c2,1.9,4.3,2.9,7.1,2.9
			c2.7,0,5-1,6.9-3c1.9-2,2.9-4.3,2.9-6.8c0,2.6,1,4.8,3,6.8c2,2,4.3,3,6.8,3c-2.7,0-5,1-6.9,3c-1.9,2-2.9,4.3-2.9,7.1
			c0,2.6-1,4.8-2.9,6.8c-1.9,2-4.2,3-6.9,3c-2.7,0-5.1-1-7.1-2.9c-2-1.9-3-4.2-3-6.9c0,2.6-1,4.8-2.9,6.8c-1.9,2-4.2,3-6.9,3
			C492,124.5,489.6,123.5,487.6,121.6z"/>
		<path class="st1" d="M587.3,21.9c2,1.9,4.3,2.9,7.1,2.9c-2.7,0-5.1,1-7.1,3c-2,2-3,4.3-3,7.1c0,2.7,1,5.1,3,7.1c2,2,4.3,3,7.1,3
			c-2.7,0-5.1,1-7.1,2.9c-2,1.9-3,4.2-3,6.9c0,2.7,1,5.1,3,7.1c2,2,4.3,3,7.1,3c-2.7,0-5.1,1-7.1,3c-2,2-3,4.3-3,7.1
			c0,2.7,1,5,3,6.9c2,1.9,4.3,2.9,7.1,2.9c-2.7,0-5.1,1-7.1,3c-2,2-3,4.3-3,7.1c0,2.7,1,5.1,3,7.1c2,2,4.3,3,7.1,3
			c-2.7,0-5.1,1-7.1,2.9c-2,1.9-3,4.2-3,6.9c0,2.7-1,5.1-3,7.1c-2,2-4.3,3-7.1,3c-2.7,0-5-1-6.9-3c-1.9-2-2.9-4.3-2.9-7.1
			c0-2.7,1-5,2.9-6.9s4.2-2.9,6.9-2.9c-2.7,0-5-1-6.9-3c-1.9-2-2.9-4.3-2.9-7.1c0-2.7,1-5.1,2.9-7.1c1.9-2,4.2-3,6.9-3
			c-2.7,0-5-1-6.9-2.9s-2.9-4.2-2.9-6.9c0-2.7,1-5.1,2.9-7.1c1.9-2,4.2-3,6.9-3c-2.7,0-5-1-6.9-3c-1.9-2-2.9-4.3-2.9-7.1
			c0-2.7,1-5,2.9-6.9c1.9-1.9,4.2-2.9,6.9-2.9c-2.7,0-5-1-6.9-3c-1.9-2-2.9-4.3-2.9-7.1c0-2.7,1-5.1,2.9-7.1c1.9-2,4.2-3,6.9-3
			c-2.7,0-5-1-6.9-2.9c-1.9-1.9-2.9-4.2-2.9-6.9c0-2.7,1-5.1,2.9-7.1c1.9-2,4.2-3,6.9-3c2.7,0,5.1,1,7.1,3c2,2,3,4.3,3,7.1
			C584.3,17.7,585.3,20,587.3,21.9z M627.1,107.5c1.9-1.9,4.2-2.9,6.9-2.9c-2.7,0-5-1-6.9-3c-1.9-2-2.9-4.3-2.9-7.1
			c0-2.7,1-5.1,2.9-7.1c1.9-2,4.2-3,6.9-3c-2.7,0-5-1-6.9-2.9c-1.9-1.9-2.9-4.2-2.9-6.9c0-2.7,1-5.1,2.9-7.1c1.9-2,4.2-3,6.9-3
			c-2.7,0-5-1-6.9-3c-1.9-2-2.9-4.3-2.9-7.1c0-2.7,1-5,2.9-6.9c1.9-1.9,4.2-2.9,6.9-2.9c-2.7,0-5-1-6.9-3c-1.9-2-2.9-4.3-2.9-7.1
			c0-2.7-1-5.1-3-7.1c-2-2-4.3-3-7.1-3c-2.7,0-5.1,1-7.1,3c-2,2-3,4.3-3,7.1c0-2.7-1-5.1-2.9-7.1c-1.9-2-4.2-3-6.9-3
			c2.7,0,5-1,6.9-2.9c1.9-1.9,2.9-4.2,2.9-6.9c0-2.7,1-5.1,3-7.1c2-2,4.3-3,7.1-3c2.7,0,5.1,1,7.1,3c2,2,3,4.3,3,7.1
			c0,2.7,1,5,2.9,6.9c1.9,1.9,4.2,2.9,6.9,2.9c2.7,0,5.1-1,7.1-2.9c2-1.9,3-4.2,3-6.9c0-2.7,1-5.1,3-7.1c2-2,4.3-3,7.1-3
			c2.7,0,5,1,6.9,3c1.9,2,2.9,4.3,2.9,7.1c0-2.7,1-5.1,3-7.1c2-2,4.3-3,7.1-3c2.7,0,5.1,1,7.1,3c2,2,3,4.3,3,7.1c0,2.7,1,5,2.9,6.9
			c1.9,1.9,4.2,2.9,6.9,2.9c2.7,0,5.1,1,7.1,3c2,2,3,4.3,3,7.1c0,2.7-1,5.1-3,7.1c-2,2-4.3,3-7.1,3c2.7,0,5.1,1,7.1,2.9
			c2,1.9,3,4.2,3,6.9c0,2.7-1,5.1-3,7.1c-2,2-4.3,3-7.1,3c2.7,0,5.1,1,7.1,3c2,2,3,4.3,3,7.1c0,2.7-1,5-3,6.9
			c-2,1.9-4.3,2.9-7.1,2.9c2.7,0,5.1,1,7.1,3c2,2,3,4.3,3,7.1c0,2.7-1,5.1-3,7.1c-2,2-4.3,3-7.1,3c2.7,0,5.1,1,7.1,2.9
			c2,1.9,3,4.2,3,6.9c0,2.7-1,5.1-3,7.1c-2,2-4.3,3-7.1,3c-2.7,0-5-1-6.9-3c-1.9-2-2.9-4.3-2.9-7.1c0-2.7-1-5-3-6.9
			c-2-1.9-4.3-2.9-7.1-2.9c2.7,0,5.1-1,7.1-3c2-2,3-4.3,3-7.1c0-2.7-1-5.1-3-7.1c-2-2-4.3-3-7.1-3c2.7,0,5.1-1,7.1-2.9
			c2-1.9,3-4.2,3-6.9c0-2.7-1-5.1-3-7.1c-2-2-4.3-3-7.1-3c2.7,0,5.1-1,7.1-3c2-2,3-4.3,3-7.1c0-2.7-1-5-3-6.9
			c-2-1.9-4.3-2.9-7.1-2.9c2.7,0,5.1-1,7.1-3c2-2,3-4.3,3-7.1c0-2.7-1-5.1-3-7.1c-2-2-4.3-3-7.1-3c-2.7,0-5.1,1-7.1,3
			c-2,2-3,4.3-3,7.1c0-2.7-1-5.1-2.9-7.1c-1.9-2-4.2-3-6.9-3c-2.7,0-5.1,1-7.1,3c-2,2-3,4.3-3,7.1c0,2.7,1,5.1,3,7.1
			c2,2,4.3,3,7.1,3c-2.7,0-5.1,1-7.1,2.9c-2,1.9-3,4.2-3,6.9c0,2.7,1,5.1,3,7.1c2,2,4.3,3,7.1,3c-2.7,0-5.1,1-7.1,3
			c-2,2-3,4.3-3,7.1c0,2.7,1,5,3,6.9c2,1.9,4.3,2.9,7.1,2.9c-2.7,0-5.1,1-7.1,3c-2,2-3,4.3-3,7.1c0,2.7,1,5.1,3,7.1c2,2,4.3,3,7.1,3
			c-2.7,0-5.1,1-7.1,2.9c-2,1.9-3,4.2-3,6.9c0,2.7-1,5.1-3,7.1c-2,2-4.3,3-7.1,3c-2.7,0-5-1-6.9-3c-1.9-2-2.9-4.3-2.9-7.1
			C624.2,111.7,625.2,109.4,627.1,107.5z"/>
		<path class="st1" d="M726.6,21.9c2,1.9,4.3,2.9,7.1,2.9c-2.7,0-5.1,1-7.1,3c-2,2-3,4.3-3,7.1c0,2.7,1,5.1,3,7.1c2,2,4.3,3,7.1,3
			c-2.7,0-5.1,1-7.1,2.9c-2,1.9-3,4.2-3,6.9c0,2.7,1,5.1,3,7.1c2,2,4.3,3,7.1,3c-2.7,0-5.1,1-7.1,3c-2,2-3,4.3-3,7.1
			c0,2.7,1,5,3,6.9c2,1.9,4.3,2.9,7.1,2.9c-2.7,0-5.1,1-7.1,3c-2,2-3,4.3-3,7.1c0,2.7,1,5.1,3,7.1c2,2,4.3,3,7.1,3
			c-2.7,0-5.1,1-7.1,2.9c-2,1.9-3,4.2-3,6.9c0,2.7-1,5.1-3,7.1c-2,2-4.3,3-7.1,3c-2.7,0-5-1-6.9-3c-1.9-2-2.9-4.3-2.9-7.1
			c0-2.7,1-5,2.9-6.9c1.9-1.9,4.2-2.9,6.9-2.9c-2.7,0-5-1-6.9-3c-1.9-2-2.9-4.3-2.9-7.1c0-2.7,1-5.1,2.9-7.1c1.9-2,4.2-3,6.9-3
			c-2.7,0-5-1-6.9-2.9c-1.9-1.9-2.9-4.2-2.9-6.9c0-2.7,1-5.1,2.9-7.1c1.9-2,4.2-3,6.9-3c-2.7,0-5-1-6.9-3c-1.9-2-2.9-4.3-2.9-7.1
			c0-2.7,1-5,2.9-6.9c1.9-1.9,4.2-2.9,6.9-2.9c-2.7,0-5-1-6.9-3c-1.9-2-2.9-4.3-2.9-7.1c0-2.7,1-5.1,2.9-7.1c1.9-2,4.2-3,6.9-3
			c-2.7,0-5-1-6.9-2.9c-1.9-1.9-2.9-4.2-2.9-6.9c0-2.7,1-5.1,2.9-7.1c1.9-2,4.2-3,6.9-3c2.7,0,5.1,1,7.1,3c2,2,3,4.3,3,7.1
			C723.6,17.7,724.6,20,726.6,21.9z M766.4,107.5c1.9-1.9,4.2-2.9,6.9-2.9c-2.7,0-5-1-6.9-3c-1.9-2-2.9-4.3-2.9-7.1
			c0-2.7,1-5.1,2.9-7.1c1.9-2,4.2-3,6.9-3c-2.7,0-5-1-6.9-2.9c-1.9-1.9-2.9-4.2-2.9-6.9c0-2.7,1-5.1,2.9-7.1c1.9-2,4.2-3,6.9-3
			c-2.7,0-5-1-6.9-3c-1.9-2-2.9-4.3-2.9-7.1c0-2.7,1-5,2.9-6.9c1.9-1.9,4.2-2.9,6.9-2.9c-2.7,0-5-1-6.9-3c-1.9-2-2.9-4.3-2.9-7.1
			c0-2.7-1-5.1-3-7.1c-2-2-4.3-3-7.1-3c-2.7,0-5.1,1-7.1,3c-2,2-3,4.3-3,7.1c0-2.7-1-5.1-2.9-7.1c-1.9-2-4.2-3-6.9-3
			c2.7,0,5-1,6.9-2.9c1.9-1.9,2.9-4.2,2.9-6.9c0-2.7,1-5.1,3-7.1c2-2,4.3-3,7.1-3c2.7,0,5.1,1,7.1,3c2,2,3,4.3,3,7.1
			c0,2.7,1,5,2.9,6.9c1.9,1.9,4.2,2.9,6.9,2.9c2.7,0,5.1-1,7.1-2.9c2-1.9,3-4.2,3-6.9c0-2.7,1-5.1,3-7.1c2-2,4.3-3,7.1-3
			c2.7,0,5,1,6.9,3c1.9,2,2.9,4.3,2.9,7.1c0-2.7,1-5.1,3-7.1c2-2,4.3-3,7.1-3c2.7,0,5.1,1,7.1,3c2,2,3,4.3,3,7.1c0,2.7,1,5,2.9,6.9
			c1.9,1.9,4.2,2.9,6.9,2.9c2.7,0,5.1,1,7.1,3c2,2,3,4.3,3,7.1c0,2.7-1,5.1-3,7.1c-2,2-4.3,3-7.1,3c2.7,0,5.1,1,7.1,2.9
			c2,1.9,3,4.2,3,6.9c0,2.7-1,5.1-3,7.1c-2,2-4.3,3-7.1,3c2.7,0,5.1,1,7.1,3c2,2,3,4.3,3,7.1c0,2.7-1,5-3,6.9
			c-2,1.9-4.3,2.9-7.1,2.9c2.7,0,5.1,1,7.1,3c2,2,3,4.3,3,7.1c0,2.7-1,5.1-3,7.1c-2,2-4.3,3-7.1,3c2.7,0,5.1,1,7.1,2.9
			c2,1.9,3,4.2,3,6.9c0,2.7-1,5.1-3,7.1c-2,2-4.3,3-7.1,3c-2.7,0-5-1-6.9-3c-1.9-2-2.9-4.3-2.9-7.1c0-2.7-1-5-3-6.9
			c-2-1.9-4.3-2.9-7.1-2.9c2.7,0,5.1-1,7.1-3c2-2,3-4.3,3-7.1c0-2.7-1-5.1-3-7.1c-2-2-4.3-3-7.1-3c2.7,0,5.1-1,7.1-2.9
			c2-1.9,3-4.2,3-6.9c0-2.7-1-5.1-3-7.1c-2-2-4.3-3-7.1-3c2.7,0,5.1-1,7.1-3c2-2,3-4.3,3-7.1c0-2.7-1-5-3-6.9
			c-2-1.9-4.3-2.9-7.1-2.9c2.7,0,5.1-1,7.1-3c2-2,3-4.3,3-7.1c0-2.7-1-5.1-3-7.1c-2-2-4.3-3-7.1-3c-2.7,0-5.1,1-7.1,3
			c-2,2-3,4.3-3,7.1c0-2.7-1-5.1-2.9-7.1c-1.9-2-4.2-3-6.9-3c-2.7,0-5.1,1-7.1,3c-2,2-3,4.3-3,7.1c0,2.7,1,5.1,3,7.1
			c2,2,4.3,3,7.1,3c-2.7,0-5.1,1-7.1,2.9c-2,1.9-3,4.2-3,6.9c0,2.7,1,5.1,3,7.1c2,2,4.3,3,7.1,3c-2.7,0-5.1,1-7.1,3
			c-2,2-3,4.3-3,7.1c0,2.7,1,5,3,6.9c2,1.9,4.3,2.9,7.1,2.9c-2.7,0-5.1,1-7.1,3c-2,2-3,4.3-3,7.1c0,2.7,1,5.1,3,7.1c2,2,4.3,3,7.1,3
			c-2.7,0-5.1,1-7.1,2.9c-2,1.9-3,4.2-3,6.9c0,2.7-1,5.1-3,7.1c-2,2-4.3,3-7.1,3c-2.7,0-5-1-6.9-3c-1.9-2-2.9-4.3-2.9-7.1
			C763.6,111.7,764.5,109.4,766.4,107.5z"/>
		<path class="st1" d="M846.1,87.5c2-2,4.3-3,7.1-3c-2.7,0-5.1-1-7.1-2.9c-2-1.9-3-4.2-3-6.9c0-2.7,1-5.1,3-7.1c2-2,4.3-3,7.1-3
			c-2.7,0-5.1-1-7.1-3c-2-2-3-4.3-3-7.1c0-2.7,1-5,3-6.9c2-1.9,4.3-2.9,7.1-2.9c-2.7,0-5.1-1-7.1-3c-2-2-3-4.3-3-7.1
			c0-2.7,1-5.1,3-7.1c2-2,4.3-3,7.1-3c2.7,0,5-1,6.9-2.9C862,20,863,17.7,863,15c0-2.7,1-5.1,3-7.1c2-2,4.3-3,7.1-3
			c2.7,0,5.1,1,7.1,3c2,2,3,4.3,3,7.1c0-2.7,1-5.1,2.9-7.1c1.9-2,4.2-3,6.9-3c2.7,0,5.1,1,7.1,3c2,2,3,4.3,3,7.1c0-2.7,1-5.1,3-7.1
			c2-2,4.3-3,7.1-3c2.7,0,5,1,6.9,3c1.9,2,2.9,4.3,2.9,7.1c0,2.7,1,5,3,6.9c2,1.9,4.3,2.9,7.1,2.9c2.7,0,5.1,1,7.1,3
			c2,2,3,4.3,3,7.1c0,2.7-1,5.1-3,7.1c-2,2-4.3,3-7.1,3c-2.7,0-5.1,1-7.1,2.9c-2,1.9-3,4.2-3,6.9c0,2.7-1,5.1-2.9,7.1
			c-1.9,2-4.2,3-6.9,3c-2.7,0-5.1,1-7.1,3c-2,2-3,4.3-3,7.1c0-2.7-1-5.1-3-7.1c-2-2-4.3-3-7.1-3c-2.7,0-5,1-6.9,3
			c-1.9,2-2.9,4.3-2.9,7.1c0-2.7-1-5.1-3-7.1c-2-2-4.3-3-7.1-3c2.7,0,5.1-1,7.1-3c2-2,3-4.3,3-7.1c0-2.7,1-5,2.9-6.9
			c1.9-1.9,4.2-2.9,6.9-2.9c2.7,0,5.1,1,7.1,2.9c2,1.9,3,4.2,3,6.9c0-2.7,1-5,3-6.9c2-1.9,4.3-2.9,7.1-2.9c2.7,0,5-1,6.9-3
			c1.9-2,2.9-4.3,2.9-7.1c0-2.7-1-5.1-2.9-7.1c-1.9-2-4.2-3-6.9-3c-2.7,0-5.1,1-7.1,3c-2,2-3,4.3-3,7.1c0-2.7-1-5.1-3-7.1
			c-2-2-4.3-3-7.1-3c-2.7,0-5,1-6.9,3c-1.9,2-2.9,4.3-2.9,7.1c0-2.7-1-5.1-3-7.1c-2-2-4.3-3-7.1-3c-2.7,0-5.1,1-7.1,3
			c-2,2-3,4.3-3,7.1c0,2.7,1,5.1,3,7.1c2,2,4.3,3,7.1,3c-2.7,0-5.1,1-7.1,2.9c-2,1.9-3,4.2-3,6.9c0,2.7,1,5.1,3,7.1c2,2,4.3,3,7.1,3
			c-2.7,0-5.1,1-7.1,3c-2,2-3,4.3-3,7.1c0,2.7,1,5,3,6.9c2,1.9,4.3,2.9,7.1,2.9c-2.7,0-5.1,1-7.1,3c-2,2-3,4.3-3,7.1
			c0,2.7,1,5.1,3,7.1c2,2,4.3,3,7.1,3c2.7,0,5.1-1,7.1-3c2-2,3-4.3,3-7.1c0,2.7,1,5.1,2.9,7.1c1.9,2,4.2,3,6.9,3c2.7,0,5.1-1,7.1-3
			c2-2,3-4.3,3-7.1c0,2.7,1,5.1,3,7.1c2,2,4.3,3,7.1,3c2.7,0,5-1,6.9-3c1.9-2,2.9-4.3,2.9-7.1c0-2.7,1-5.1,3-7.1c2-2,4.3-3,7.1-3
			c2.7,0,5.1,1,7.1,3c2,2,3,4.3,3,7.1c0,2.7-1,5.1-3,7.1c-2,2-4.3,3-7.1,3c-2.7,0-5.1,1-7.1,2.9c-2,1.9-3,4.2-3,6.9
			c0,2.7-1,5.1-2.9,7.1c-1.9,2-4.2,3-6.9,3c-2.7,0-5.1-1-7.1-3c-2-2-3-4.3-3-7.1c0,2.7-1,5.1-3,7.1c-2,2-4.3,3-7.1,3
			c-2.7,0-5-1-6.9-3c-1.9-2-2.9-4.3-2.9-7.1c0,2.7-1,5.1-3,7.1c-2,2-4.3,3-7.1,3c-2.7,0-5.1-1-7.1-3c-2-2-3-4.3-3-7.1
			c0-2.7-1-5-2.9-6.9s-4.2-2.9-6.9-2.9c-2.7,0-5.1-1-7.1-3c-2-2-3-4.3-3-7.1C843.2,91.9,844.2,89.5,846.1,87.5z"/>
	</g>
</g>
</svg>
