<?xml version="1.0" encoding="UTF-8"?><svg id="Layer_2" xmlns="http://www.w3.org/2000/svg" viewBox="0 0 832.34 53.19"><defs><style>.cls-1{fill:#686932;}</style></defs><g id="Layer_1-2"><g><path class="cls-1" d="M20.9,40.23c-2-.27-3.94-.38-5.89-.38-4.32,0-8.48,.32-12.85,.7l-.59,.05c-.86,0-1.57-.54-1.57-1.4,0-.7,.49-1.35,1.3-1.4l.59-.05c4.32-.38,8.53-.7,12.85-.7,1.94,0,3.94,.11,5.94,.38,2,.27,3.94,.38,5.83,.38,5.62,0,8.8-2.32,9.5-7.72,.11-.81,.54-1.19,1.35-1.19s1.4,.59,1.4,1.4c0,6.64-5.51,10.31-12.2,10.31-1.84,0-3.73-.11-5.67-.38Zm12.69-30.51c-1.73-3.94-4.54-4.97-9.23-4.97-1.67,0-3.4,.16-5.18,.43-1.78,.32-3.62,.54-5.51,.65,.05,.22,.11,.43,.11,.65v.76c0,1.24,0,2.43-.05,3.56s-.11,2.32-.11,3.46c0,1.67,.11,3.29,.54,4.86h14.04c.16,0,.22,0,.27,.05v-6.75c0-.81,.59-1.4,1.4-1.4s1.4,.59,1.4,1.4V28.67c0,.81-.59,1.4-1.4,1.4s-1.4-.59-1.4-1.4v-6.7H13.12c-2.11,0-2.32-5.35-2.32-7.72,0-1.03,.05-2.11,.11-3.13,.05-1.03,.05-2,.05-3.02v-1.08c-.05-.32-.05-.7-.05-1.08v-.05c-2.65-.16-7.56-1.03-7.56-3.13,0-.81,.59-1.46,1.4-1.46,.32,0,.54,.05,.7,.22,2.11,1.24,4.21,1.57,6.43,1.57,2.05,0,4.16-.22,6.32-.59,2.11-.38,4.21-.54,6.32-.54,5.02,0,9.29,1.3,11.66,6.7,.05,.27,.11,.49,.11,.54,0,.81-.59,1.4-1.4,1.4-.65,0-1.08-.27-1.3-.86Z"/><path class="cls-1" d="M64.69,37.69c0,.81-.59,1.51-1.3,1.51l-21.33,.59c-.7,0-1.51-.38-1.51-1.19s.81-1.24,1.51-1.3l5.13-.22-.16-.32c-.05-.22-.11-.38-.11-.54q0-.05,.05-.11v-.05c1.08-3.67,2.86-6.26,4.32-8.37l.11-.16-.11-.11c-3.02-4.1-4.75-7.07-8.91-7.07h-.54c-.22,0-.43,0-.65,.05-.81,0-1.62-.7-1.84-1.57,.05-1.51,1.08-2,2.97-2,5.35,0,8.26,3.51,10.96,7.61l.27,.27,.27-.32c1.67-2.11,2.97-3.83,4-5.94,1.35-2,3.24-.59,5.51-1.57,.38,0,1.4,.11,1.4,.97l.05,.05c.05,.05,.05,.22,.05,.38,0,.65-.65,1.19-1.13,1.24h-1.73c-.22,0-.49,.05-.76,.11-.27,.05-.54,.11-.81,.11h-.16l-.05,.16c-.7,1.19-1.4,2.27-2.16,3.24-.81,1.03-1.57,2.05-2.38,3.08l-.49,.65,.16,.16c.49,.59,.97,1.08,1.46,1.46,.49,.38,.7,.86,.7,1.57,0,1.03-.86,1.51-1.67,1.51s-1.67-.76-2.48-1.62l-.22-.27-.22,.27c-1.73,2.54-2.75,4.54-3.4,6.7l-.11,.38h13.77c1.03-.59,1.51-.16,1.51,.65Z"/><path class="cls-1" d="M71.33,39.31c-.11-.11-.16-.22-.22-.32h-.32c-.16,0-.38-.05-.65-.16-1.94-1.08-2.32-2.75-2.32-4.27,0-.38,0-.7,.05-1.03v-2.97c0-2.11,.05-4.21,.11-6.26,.05-2.05,.11-4.1,.11-6.21,0-3.94-.16-7.88-.97-11.77-.05-.38-.11-.59-.11-.86,0-1.67,1.46-2.86,1.67-4.21,0-.81,.59-1.24,1.4-1.24s1.3,.59,1.3,1.4c0,1.73-1.67,3.19-1.67,4.1,0,.16,0,.22,.05,.27,.81,3.89,1.03,7.67,1.03,11.56v1.4c2.11-1.13,4.64-2.32,7.51-2.32,1.62,0,6.59,1.03,6.59,2.92v3.94c0,4.37,0,8.48,.86,12.58v.05c1.62,.43,4.7,2.92,4.7,4.1,0,.7-.76,1.4-1.4,1.4-.32,0-.65-.16-.92-.43l-.11-.16c-1.46-1.46-2.38-2.38-3.73-2.38-.76,0-1.62,.32-2.59,.92l-.27,.16c-1.4,.86-3.46,2.11-5.62,2.11-1.46,0-3.02-.59-4.48-2.32Zm10.85-19.12c-1.24-.7-2.59-1.03-3.94-1.03-1.89,0-4.16,.76-6.75,2.27-.27,.16-.49,.22-.76,.22-.11,1.3-.16,2.65-.16,4v4.05c0,.38,0,.81,.05,1.19v1.24c0,.43,0,.86-.05,1.35-.05,.49-.05,.86-.05,1.19,0,.92,.16,1.4,.97,1.84,.27,.16,.49,.38,.59,.65,.11-.05,.27-.05,.43-.05,.81,0,2.32,1.84,3.4,1.84s2.38-.65,4.05-1.67l.32-.16c.86-.59,1.73-.97,2.59-1.19-.7-4.32-.7-8.53-.7-12.64v-3.08Z"/><path class="cls-1" d="M92.34,37.8c0-.65,.43-1.4,1.35-1.4,.81,0,1.62,1.35,2.16,1.35,.27,0,.65-.16,1.24-.49,.59-.32,1.13-.54,1.62-.7,0-1.67-.11-3.4-.32-5.24-.27-1.84-.38-3.67-.38-5.51,0-2.27,.54-8.42,2.65-8.42,.81,0,1.46,.54,1.46,1.35,0,.27-.05,.43-.16,.59-1.03,2.11-1.3,4.21-1.3,6.53,0,1.73,.11,3.46,.38,5.18,.22,1.73,.32,3.51,.32,5.35,.7,.11,1.46,.27,2.16,.49,.7,.27,1.35,.49,2,.7l.43,.22c.59,.16,.86,.76,.86,1.35,0,.81-.76,1.3-1.35,1.3-.11,0-.27-.05-.49-.11l-.54-.22c-1.51-.59-2.75-1.03-4-1.03-1.35,0-3.56,1.35-4.54,1.35-1.57,0-3.56-1.4-3.56-2.65Zm6.91-28.08c-.16-.38-.32-.76-.49-1.08-.22-.32-.32-.65-.32-.97,0-.7,.59-1.35,1.4-1.35,1.73,0,1.89,3.51,3.13,4.05,.54,.27,.81,.7,.81,1.3,0,.92-.86,1.35-1.35,1.35-1.78,0-2.75-2.21-3.19-3.29Z"/><path class="cls-1" d="M110.59,31.91c0-2.11,.05-4.21,.22-6.32,.11-2.11,.16-4.16,.16-6.26,0-2.7,0-5.35-.05-7.99-.05-2.65-.11-5.29-.11-7.94,0-.7,.54-1.24,1.24-1.24s1.24,.54,1.24,1.24c0,4.97,.05,9.88,.16,14.8,2.11-.38,3.89-.59,5.56-.59,7.18,0,10.48,3.62,10.48,10.69s-2.81,11.88-9.29,11.88c-6.97,0-9.61-3.94-9.61-8.26Zm2.7-5.67c-.11,1.84-.16,3.67-.16,5.51,0,3.73,2.16,5.94,6.97,5.94,4.37,0,6.91-2.7,6.91-9.23,0-6.1-2.54-8.37-7.99-8.37-1.46,0-3.19,.22-5.29,.59h-.27c-.05,1.89-.11,3.73-.16,5.56Z"/><path class="cls-1" d="M132.19,37.8c0-.65,.43-1.4,1.35-1.4,.81,0,1.62,1.35,2.16,1.35,.27,0,.65-.16,1.24-.49,.59-.32,1.13-.54,1.62-.7,0-1.67-.11-3.4-.32-5.24-.27-1.84-.38-3.67-.38-5.51,0-2.27,.54-8.42,2.65-8.42,.81,0,1.46,.54,1.46,1.35,0,.27-.05,.43-.16,.59-1.03,2.11-1.3,4.21-1.3,6.53,0,1.73,.11,3.46,.38,5.18,.22,1.73,.32,3.51,.32,5.35,.7,.11,1.46,.27,2.16,.49,.7,.27,1.35,.49,2,.7l.43,.22c.59,.16,.86,.76,.86,1.35,0,.81-.76,1.3-1.35,1.3-.11,0-.27-.05-.49-.11l-.54-.22c-1.51-.59-2.75-1.03-4-1.03-1.35,0-3.56,1.35-4.54,1.35-1.57,0-3.56-1.4-3.56-2.65Zm6.91-28.08c-.16-.38-.32-.76-.49-1.08-.22-.32-.32-.65-.32-.97,0-.7,.59-1.35,1.4-1.35,1.73,0,1.89,3.51,3.13,4.05,.54,.27,.81,.7,.81,1.3,0,.92-.86,1.35-1.35,1.35-1.78,0-2.75-2.21-3.19-3.29Z"/><path class="cls-1" d="M167.61,37.1c0,1.73-2.92,2.11-4.43,2.75-.54,0-3.83,1.73-5.62,1.73-3.56,0-3.94-3.56-3.94-7.29v-3.24c0-3.24,.76-8.64,1.24-12.64-2.21,.27-3.29,.43-4.97,1.24-.16,0-.27,.05-.43,.22-.16,.16-.32,.22-.38,.22-1.08,0-1.62-1.08-1.62-1.89,0-1.84,4.86-2.65,6.37-2.81h.05c.16-.05,.32-.05,.49-.05h.81c.59-2.86,.49-4.75,.49-6.86v-.05c-.05-.16-.11-.27-.11-.32,0-.49,.59-.7,1.4-.7s1.73,.38,1.73,1.08c0,1.73-.05,3.46-.27,5.24v.32c0,.38-.05,.7-.11,1.3h5.24c.76,0,1.35,.43,1.73,1.3,0,.81-.92,1.67-1.73,1.67l-5.29-.05c-.54,0-.97,3.02-1.24,5.18-.38,2.81-.59,6.05-.59,7.61v3.24c0,2.65-.11,4.1,1.24,4.1,.7,0,1.67-.16,2.92-.54l.05-.11c.38-.38,.92-.65,1.51-.86,.32-.16,.65-.27,1.03-.32,.81-.27,1.94-1.35,2.65-1.35s1.19,.38,1.46,1.13h.05v.05c.16,.11,.27,.32,.27,.7Z"/><path class="cls-1" d="M169.77,37.8c0-.65,.43-1.4,1.35-1.4,.81,0,1.62,1.35,2.16,1.35,.27,0,.65-.16,1.24-.49,.59-.32,1.13-.54,1.62-.7,0-1.67-.11-3.4-.32-5.24-.27-1.84-.38-3.67-.38-5.51,0-2.27,.54-8.42,2.65-8.42,.81,0,1.46,.54,1.46,1.35,0,.27-.05,.43-.16,.59-1.03,2.11-1.3,4.21-1.3,6.53,0,1.73,.11,3.46,.38,5.18,.22,1.73,.32,3.51,.32,5.35,.7,.11,1.46,.27,2.16,.49,.7,.27,1.35,.49,2,.7l.43,.22c.59,.16,.86,.76,.86,1.35,0,.81-.76,1.3-1.35,1.3-.11,0-.27-.05-.49-.11l-.54-.22c-1.51-.59-2.75-1.03-4-1.03-1.35,0-3.56,1.35-4.54,1.35-1.57,0-3.56-1.4-3.56-2.65Zm6.91-28.08c-.16-.38-.32-.76-.49-1.08-.22-.32-.32-.65-.32-.97,0-.7,.59-1.35,1.4-1.35,1.73,0,1.89,3.51,3.13,4.05,.54,.27,.81,.7,.81,1.3,0,.92-.86,1.35-1.35,1.35-1.78,0-2.75-2.21-3.19-3.29Z"/><path class="cls-1" d="M188.3,36.18c-1.46-2.38-2.65-4.91-2.65-7.72,0-1.89,.54-3.89,1.84-6.1,2.43-4.1,5.72-5.67,9.83-5.67,4.86,.76,8.1,4,9.72,9.72v2.43q-.86,.81-.86,1.62c0,5.67-2.43,8.91-7.29,9.77h-2.43c-2.65,0-5.89-1.13-8.15-4.05Zm.43-7.78c0,3.83,3.24,9.02,6.91,9.02,.7,0,1.51-.16,2.43-.43,4.59,0,5.67-2.86,5.67-6.53v-3.29c-.81-4.81-3.19-7.29-6.43-7.29h-.86c-3.83,0-7.72,3.89-7.72,8.53Z"/><path class="cls-1" d="M237.17,39.1c0,.16-.05,.32-.11,.38v.11c-.16,.65-.7,.97-1.19,.97-.16,0-.22,0-.27-.05-1.51-.49-3.19-.7-4.97-.7-1.35,0-2.75,.05-4.27,.43-1.03,.27-2.21,.49-3.67,.49-2.27,0-4.16-.7-5.72-2.05l-.11-.11c-.05-.05-.05-.11-.11-.16l-.22-.27-.22,.22c-1.35,1.46-3.35,2.16-5.99,2.16h-.16c-.59,0-1.19-.65-1.19-1.35,0-.49,.59-1.35,1.19-1.35,2,0,3.46-.43,4.48-1.35v-.05c.76-.92,1.13-2.11,1.13-3.56,0-.59-.05-1.08-.11-1.67v-3.19c.11-.7,.16-1.3,.16-1.89,0-.97-.22-1.89-.65-2.75v-.05c-.16-.27-.22-.49-.22-.76v-.16l.05-.38-.38,.05c-.59,.22-1.13,.32-1.51,.32h-.05c-.38,.05-.65,.11-.81,.11-.92,0-1.67-.38-2.38-1.13v-.05c-.32-.27-.49-.54-.49-.81,0-.81,.65-1.35,1.46-1.35,.38,0,.7,.11,.92,.38,.16,.27,.49,.38,.97,.38s.97-.11,1.35-.32c.38-.22,.81-.32,1.4-.32,.65,0,1.3,.11,1.94,.32h.22c3.67-1.78,6.53-2.7,8.64-2.7,4.91,0,6.59,4.16,6.59,12.2v7.94l-.11,.27,.32,.05c1.08,.16,2.11,.32,3.24,.7,.43,.22,.81,.59,.81,1.08Zm-6.8-2.21v-.16q-.05,0-.05-.05v-7.61c0-3.4-.32-5.83-.97-7.29-.65-1.46-1.67-2.21-3.08-2.21-1.78,0-4.32,.7-7.51,2.16v.05c-.22,.05-.49,.16-.76,.22l-.16,.05-.22,.11,.11,.22c.59,1.24,.76,2.43,.76,3.56,0,.81-.05,1.57-.16,2.21v2.59c.05,.38,.11,.7,.11,1.03v.97c0,1.24-.16,2.38-.54,3.29l-.11,.32,.27,.05c.27,.05,.49,.22,.59,.43l.05,.05c1.03,.86,2.32,1.3,3.89,1.3,1.84,0,5.18-.81,7.51-.97h.32l-.05-.32Z"/><path class="cls-1" d="M253.96,33.7c0,3.78-2.54,7.07-5.56,7.07h-1.4c-4.37,0-7.02-2-7.94-6.05,0-.81,.38-1.24,1.3-1.73,.81,0,1.73,.38,1.73,1.3,.43,2.65,2,4,4.64,4,1.84,0,4-.92,4.64-4,0-3.13-1.46-4.1-4.32-5.4h-1.03c-2.81-1.13-5.62-2.54-5.99-6.97l-.05-.05c-.11-.11-.16-.22-.16-.32,0-.59,.16-.86,.54-.86l.05-.05c2.65-2.43,2.65-4.27,6.8-4.27s5.45,2.11,6.26,5.13c0,.92,0,1.35,.43,1.94,0,.92-.16,2.38-1.51,2.38-.43,0-1.03-.27-1.03-.97v-.05c-.49-1.03-.97-1.94-.97-2.32v-.05c-.97-3.02-.16-3.56-3.51-3.56-1.35,0-1.94,.65-2.81,1.57l-.54,.59c0,.22-.11,.43-.27,.65-.22,.22-.43,.43-.65,.7l-.05,.11c.49,2.38,2.43,3.19,4.32,3.89h1.03c3.4,1.4,6.05,2.97,6.05,7.34Z"/><path class="cls-1" d="M254.07,47.03c0-.7,.54-1.4,1.35-1.46,3.24-.32,4-2.75,5.89-6.37-.59-1.73-.54-3.13-.54-5.02,0-1.67,.22-3.4,1.67-3.4,1.24,0,1.4,1.13,1.4,2.16v1.51c-.05,.49-.05,1.03-.05,1.51,0,.59,.11,1.13,.27,1.67,.16,.59,.27,1.08,.27,1.51,0,3.08-4.1,9.4-8.8,9.4-.86,0-1.46-.7-1.46-1.51Z"/><path class="cls-1" d="M281.71,41.09c0-1.24,1.89-1.94,3.19-2.38-.11-.49-.16-.92-.16-1.35,0-1.3,.43-2.43,.81-3.46,.65-1.84,1.35-3.62,2.11-5.4,.7-1.78,1.46-3.51,2.16-5.24l2.11-5.13c1.46-3.62,2.92-6.91,3.62-10.58-1.03-.38-1.35-.49-1.78-.49-.16,0-.27,0-.43,.05-.16,.05-.27,.11-.43,.11-.81,0-1.62-.54-1.62-1.57,0-1.24,1.24-1.73,2.48-1.73,1.13,0,4.37,.97,4.81,1.57,.16,.32,.27,.7,.27,1.13-.7,4.54-2.43,8.64-4.1,12.69l-2.11,5.08c-1.46,3.51-2.86,7.07-4.16,10.58-.38,.86-.65,1.62-.65,2.43,1.57-.81,2.81-1.84,3.62-3.62,.27-.59,.7-.92,1.4-.92,.92,0,1.51,.81,1.51,1.51,0,.16-.05,.38-.11,.65-2,4.64-6.1,5.29-10.31,7.4-.22,.11-.43,.16-.65,.16-.81,0-1.57-.65-1.57-1.51Z"/><path class="cls-1" d="M308.98,35.59h.05c-2.11,2.65-3.73,4.86-7.45,4.86-1.78,0-3.83-1.57-3.83-3.46,0-.43,.11-.81,.38-1.08,.27-.27,.38-.7,.38-1.24,0-.27,0-.54-.05-.86-.05-.27-.05-.59-.05-.92,0-.92,.22-1.89,.7-2.92,.43-.97,.81-2,1.19-3.02,.76-2.27,2.92-8.26,5.29-8.26,.86,0,1.57,.76,1.57,1.57,0,.38-.16,.76-.43,1.13-1.46,1.46-2.21,3.29-3.02,5.29h.22c2.54,0,5.02-2.11,6.1-5.51,0-1.19-2.59-1.13-2.59-2.75,0-.92,.76-1.57,1.62-1.57,2.38,0,4.1,2.54,4.1,4.27,0,.38-.05,.76-.16,1.13-1.24,3.78-3.4,6.1-6.59,7.02l-.49,.16c-.27,.05-.59,.16-.92,.22-.38,.11-.76,.16-1.13,.16s-.76-.05-1.19-.16c-.16,.54-.43,1.08-.7,1.57-.27,.54-.43,1.13-.43,1.73,0,.27,0,.59,.05,.86,.05,.27,.05,.59,.05,.86,0,.81-.11,1.62-.54,2.43,.11,.11,.27,.16,.43,.16,2.32,0,3.62-1.73,5.02-3.56v.05c.27-.49,.76-.7,1.35-.7,.86,0,1.57,.65,1.57,1.46,0,.49-.16,.81-.49,1.08Z"/><path class="cls-1" d="M313.68,35.59c0-.59,.05-1.19,.22-1.84,1.35-6.16,6.59-15.23,11.61-15.23,1.46,0,4.21,1.3,4.21,3.19,0,.81-.54,1.57-1.57,1.57-1.13,0-1.84-1.62-2.7-1.62-.59,0-1.3,.43-2.11,1.24-3.19,3.08-5.35,6.97-6.37,11.56-.11,.49-.16,.92-.16,1.19,0,1.3,.7,1.62,1.13,1.62,.92,0,3.56-2.38,4.81-3.94l.86-1.03c.38-.38,.76-.54,1.13-.54,.86,0,1.62,.76,1.62,1.62,0,.38-.16,.76-.43,1.03l-.81,.97c-1.62,2.05-4.37,5.02-7.18,5.02-2.65,0-4.27-2.27-4.27-4.81Z"/><path class="cls-1" d="M333.44,36.4c-.59,1.24-1.51,2-2,2.38l-.49,.38c-1.46,1.13-.32,2.32-2.16,2.32-1.03,0-1.51-.76-1.51-1.67,0-1.67,1.08-2.48,1.78-3.08l.32-.32c.49-.38,1.57-1.35,1.57-2.27-.05-.16-.05-.38-.05-.54v-.54c0-3.46,1.51-6.26,2.97-8.8,.22-.38,.38-.97,.54-1.78,.11-.76,.32-1.57,.59-2.38-.05-.05-.05-.22-.05-.43s.05-.43,.16-.65c.59-1.35,1.03-2.81,1.35-4.32,.27-1.51,.59-3.02,.92-4.54,.16-.81,.65-1.19,1.46-1.19,.86,0,1.57,.7,1.57,1.57,0,1.67-.59,3.83-1.3,6.64,.65,.05,1.24,.22,1.73,.38,.49,.22,.81,.32,.97,.32s.32-.05,.54-.22c.22-.11,.43-.16,.65-.16,.86,0,1.57,.65,1.57,1.51,0,1.35-1.62,2-2.7,2-.7,0-1.4-.16-2.05-.43-.65-.27-1.08-.38-1.24-.38-1.03,0-1.13,3.94-2,5.56-1.3,2.32-2.59,4.64-2.59,7.29v.16c1.84-1.08,2.21-2.65,4.54-2.65,.81,0,1.57,.65,1.57,1.51,0,1.46-1.46,1.4-2.75,2.54-.86,.81-2.11,1.78-3.83,1.78h-.05Z"/><path class="cls-1" d="M345.38,25.11c0-.27,.05-.43,.11-.59,1.13-2.92,2.97-4.37,5.51-4.37h.43c.16,0,.27,0,.43,.05,.49-1.03,1.08-1.51,1.78-1.51,.92,0,1.57,.76,1.57,1.57,0,.27-.11,.59-.27,.86-1.4,2.21-4.64,10.96-5.72,14.58,1.62-.59,2.92-1.62,3.89-3.19,1.13-1.78,2.75-1.84,4-1.84,1.73-5.51,4.43-6.97,5.08-12.47,.05-.92,.59-1.35,1.51-1.35,1.03,0,1.62,.81,1.62,1.73-.7,5.13-5.72,12.47-5.72,15.82,0,.32,0,.59,.05,.76,1.19-.86,3.94-2.65,4.86-2.65,.81,0,1.51,.65,1.51,1.57,0,.59-.22,1.08-.81,1.35-2.43,1.35-5.24,2.97-7.45,5.29-.27,.32-.65,.49-1.08,.49-1.03,0-1.57-.7-1.57-1.51,0-.86,.97-1.73,1.78-2.43-.38-.92-.38-2.11-.38-2.92v-.59c-.38,.05-.65,.16-.81,.43-2.21,3.46-5.67,5.18-10.26,5.18-1.03,0-1.94-.49-1.94-1.62s.81-1.51,2.05-1.51h.38c.65-3.13,2.92-9.02,4.54-12.96-.81,.22-1.46,.86-2.05,2.43-.27,.65-.76,.97-1.46,.97-.92,0-1.57-.76-1.57-1.57Z"/><path class="cls-1" d="M369.73,23.87c0-.38,.11-.7,.27-1.03,1.67-2.65,3.67-3.94,5.99-3.94h.05v-.54c-.05-.16-.05-.32-.05-.49,0-1.46,.16-2.97,1.62-2.97,1.67,0,1.62,2.05,1.62,4,.59-.27,1.24-.59,1.89-1.08,.65-.43,1.4-.65,2.32-.65,3.46,0,4.05,1.67,4.81,4.75,0,1.13-.76,1.94-2.05,1.94-.59,0-1.03-.49-1.4-1.3,0-1.84,.22-2.27-1.24-2.27-.7,.27-1.35,.59-1.94,.97s-1.3,.7-2,.92c-.16,1.13-.54,2.27-1.03,3.4-.49,1.13-.97,2.16-1.35,3.19l-.65,.65c-.43,1.03-.86,2.16-1.35,3.35-.49,1.24-.97,2.38-1.46,3.51l-.92,2.32c-.59,.86-.86,2.05-2.48,2.05-1.08,0-1.67-.38-1.67-1.62,0-.65,.59-1.4,1.3-1.4l.7-2.54c1.24-2.32,2.16-4.64,3.08-6.97l.7-.97c.38-.86,.7-1.73,1.08-2.54,.32-.81,.59-1.62,.81-2.43-.92,0-2.38,.27-3.89,2.48-.22,.38-.92,.7-1.13,.7-.65,0-1.62-.49-1.62-1.51Z"/><path class="cls-1" d="M398.13,35.59h.05c-2.11,2.65-3.73,4.86-7.45,4.86-1.78,0-3.83-1.57-3.83-3.46,0-.43,.11-.81,.38-1.08,.27-.27,.38-.7,.38-1.24,0-.27,0-.54-.05-.86-.05-.27-.05-.59-.05-.92,0-.92,.22-1.89,.7-2.92,.43-.97,.81-2,1.19-3.02,.76-2.27,2.92-8.26,5.29-8.26,.86,0,1.57,.76,1.57,1.57,0,.38-.16,.76-.43,1.13-1.46,1.46-2.21,3.29-3.02,5.29h.22c2.54,0,5.02-2.11,6.1-5.51,0-1.19-2.59-1.13-2.59-2.75,0-.92,.76-1.57,1.62-1.57,2.38,0,4.1,2.54,4.1,4.27,0,.38-.05,.76-.16,1.13-1.24,3.78-3.4,6.1-6.59,7.02l-.49,.16c-.27,.05-.59,.16-.92,.22-.38,.11-.76,.16-1.13,.16s-.76-.05-1.19-.16c-.16,.54-.43,1.08-.7,1.57-.27,.54-.43,1.13-.43,1.73,0,.27,0,.59,.05,.86,.05,.27,.05,.59,.05,.86,0,.81-.11,1.62-.54,2.43,.11,.11,.27,.16,.43,.16,2.32,0,3.62-1.73,5.02-3.56v.05c.27-.49,.76-.7,1.35-.7,.86,0,1.57,.65,1.57,1.46,0,.49-.16,.81-.49,1.08Z"/><path class="cls-1" d="M401.48,34.18c.27-.7,.97-1.51,1.84-1.51,.92,0,1.46,.81,1.46,1.84,0,2.59,1.24,3.35,2.92,3.35,2.32,0,2.97-2.81,2.97-4.37,0-2.16-1.4-4.21-2.05-6.59-.27-.92-.54-1.89-.86-2.86-.38-.92-.54-1.78-.54-2.59,0-3.19,3.13-5.83,6.26-5.83,1.67,0,2.92,.59,3.73,1.84,.38,.59,.49,.54,1.3,.54h.54c.59,0,1.24,.54,1.24,1.35s-.43,2-1.46,2h-.59c-1.03,0-2.21-.32-3.56-1.84-.16-.16-.54-.65-1.24-.65-.86,0-3.02,1.24-3.02,2.59,0,2.81,3.56,8.21,3.56,12.15,0,3.51-2.32,7.51-6.37,7.51-4.27,0-6.1-2.59-6.1-6.91Z"/><path class="cls-1" d="M415.79,47.03c0-.7,.54-1.4,1.35-1.46,3.24-.32,4-2.75,5.89-6.37-.59-1.73-.54-3.13-.54-5.02,0-1.67,.22-3.4,1.67-3.4,1.24,0,1.4,1.13,1.4,2.16v1.51c-.05,.49-.05,1.03-.05,1.51,0,.59,.11,1.13,.27,1.67,.16,.59,.27,1.08,.27,1.51,0,3.08-4.1,9.4-8.8,9.4-.86,0-1.46-.7-1.46-1.51Z"/><path class="cls-1" d="M453.86,39.15c0-1.4,2.43-2,3.78-3.19-.22-.59-.38-1.08-.49-1.57-.27,.05-.54,.11-.81,.16-.27,.05-.43,.16-.54,.32-1.03,1.35-2.54,2-4.43,2-.27,0-.49,0-.59-.05-1.24,2.38-2.65,4.32-3.67,4.32-.92,0-1.51-.65-1.51-1.46,0-.32,.11-.65,.32-.92,1.57-2.11,3.24-4.54,3.73-7.56,.22-1.4,.54-2.75,.97-4.1,.43-1.3,.65-2.59,.7-3.94v-.54c0-.16,0-.38-.05-.54-2.27,0-1.08,2.65-3.13,2.65-.86,0-1.46-.7-1.46-1.51,0-2.11,1.78-4.1,4.59-4.1,.92,0,2.27,0,2.65,1.13,.27,1.08,.43,2.05,.43,2.97,0,1.51-.22,2.92-.7,4.27-.49,1.35-.81,2.75-1.08,4.21-.11,.65-.32,1.4-.59,2.21,.65-.16,1.08-.43,1.51-.92,1.13-1.46,2.7-1.62,3.83-1.62,.65-2.81,3.02-3.73,3.02-5.99,0-.59,.05-1.24,.22-1.84,.16-.59,.22-.97,.22-1.19,0-.43-.7-.65-1.08-.65-1.08,0-.81,3.67-2.54,3.67-.86,0-1.51-.65-1.51-1.46,0-1.51,1.3-5.18,4-5.18,2.97,0,4.1,1.84,4.1,3.56,0,.76-.05,1.4-.22,1.89-.16,.49-.22,.92-.22,1.24,0,3.35-3.24,5.72-3.24,7.99,0,.38,.11,.81,.32,1.24h.43c.7,0,1.3-.22,1.73-.65,5.24-5.4,7.07-10.53,7.07-16.58,0-.81,.65-1.46,1.51-1.46,1.3,0,1.46,1.13,1.46,2.38,0,6.32-2.65,12.26-7.88,17.71-1.46,1.57-3.02,1.67-4.27,1.67q-.05,0-.11-.05h-.11c-1.19,1.35-3.73,2.92-4.91,2.92-.81,0-1.46-.59-1.46-1.46Z"/><path class="cls-1" d="M476.11,36.18c-1.46-2.38-2.65-4.91-2.65-7.72,0-1.89,.54-3.89,1.84-6.1,2.43-4.1,5.72-5.67,9.83-5.67,4.86,.76,8.1,4,9.72,9.72v2.43q-.86,.81-.86,1.62c0,5.67-2.43,8.91-7.29,9.77h-2.43c-2.65,0-5.89-1.13-8.15-4.05Zm.43-7.78c0,3.83,3.24,9.02,6.91,9.02,.7,0,1.51-.16,2.43-.43,4.59,0,5.67-2.86,5.67-6.53v-3.29c-.81-4.81-3.19-7.29-6.43-7.29h-.86c-3.83,0-7.72,3.89-7.72,8.53Z"/><path class="cls-1" d="M495.71,39.69c0-1.73,5.24-2.97,7.56-3.51V20.14c0-2.21,3.29-2.65,5.13-2.65,1.13,0,2.38,.27,3.67,.81,.54,0,1.13,.16,1.73,.43,.59,.32,1.13,.49,1.51,.49,.81,0,1.94-1.73,2.54-1.73,.43,0,1.13,.65,1.13,1.46,0,2.27-2.59,3.35-3.83,3.35-1.46,0-2.81-.7-3.67-1.19-1.13-.38-2.16-.59-3.08-.59-.97,0-1.94,.22-2.92,.59v14.63c.22-.05,.43-.05,.7-.05h.65c1.94,0,6.8,1.08,6.8,3.29,0,.86-.86,1.4-1.67,1.4-.43,0-.81-.11-1.08-.38-1.35-.86-2.7-1.3-4.16-1.3-1.24,0-2.59,.27-4,.81s-3.02,1.03-4.91,1.51c0,.11-.16,.16-.43,.16-.81,0-1.67-.49-1.67-1.51Z"/><path class="cls-1" d="M543.18,38.83c0,1.03-.59,1.35-1.3,1.35-.54,0-1.08-.16-1.62-.43-.54-.27-1.13-.38-1.84-.38-3.67,0-5.94,1.57-8.69,1.57-1.24,0-3.83-.38-4.37-1.57l-.05-.27-.27,.16c-.59,.54-1.51,.81-2.65,.81-.81,0-1.24-.43-1.24-1.3,0-1.62,1.78-.65,2.38-1.67,.16-.16,.22-.43,.27-.76,.05-.27,.11-.76,.16-1.46v-.54c.05-1.35,.11-2.65,.11-4,0-1.24-.05-2.54-.11-3.83-.05-1.24-.11-2.54-.11-3.78v-.05c-.11-2.48-.16-4.91-.16-7.29s-.11-12.69,2.27-12.69h.16c.65,.22,1.03,1.03,1.03,1.51-.81,3.89-.97,7.56-.97,11.18,0,2.54,.11,4.91,.27,7.24v4.48h.22c.97,.11,2,.38,3.02,.76l.16,.05,.11-.16c2.38-5.67,6.37-8.59,11.93-8.75,.7,0,1.35,.59,1.35,1.19,0,.81-.65,1.46-1.35,1.46-4.7,0-7.67,2.65-9.77,7.45l-.11,.16,.16,.11c1.13,.92,2.05,2,2.75,3.24,.7,1.24,1.4,2.48,2.21,3.73,.05,.16,.11,.22,.16,.22,.05,.05,.05,.11,.05,.16l.22,.11c.49-.05,.92-.11,1.35-.11,1.3,0,2.48,.27,3.62,.86,.43,.27,.65,.7,.65,1.24Zm-8.42-1.73c-2.16-3.62-4-6.86-8.05-7.29h-.22v2.59c0,.7,0,1.4-.05,2.11v.54c-.05,.05-.11,.38-.11,.86-.05,.54-.11,.97-.16,1.3l-.05,.32,.27-.05h.16c.05,0,.22,.05,.49,.11,.86,.43,1.78,.7,2.86,.7,1.3,0,2.59-.32,4.1-.7,.22-.05,.38-.11,.43-.11l.49-.11-.16-.27Z"/><path class="cls-1" d="M560.29,33.7c0,3.78-2.54,7.07-5.56,7.07h-1.4c-4.37,0-7.02-2-7.94-6.05,0-.81,.38-1.24,1.3-1.73,.81,0,1.73,.38,1.73,1.3,.43,2.65,2,4,4.64,4,1.84,0,4-.92,4.64-4,0-3.13-1.46-4.1-4.32-5.4h-1.03c-2.81-1.13-5.62-2.54-5.99-6.97l-.05-.05c-.11-.11-.16-.22-.16-.32,0-.59,.16-.86,.54-.86l.05-.05c2.65-2.43,2.65-4.27,6.8-4.27s5.45,2.11,6.26,5.13c0,.92,0,1.35,.43,1.94,0,.92-.16,2.38-1.51,2.38-.43,0-1.03-.27-1.03-.97v-.05c-.49-1.03-.97-1.94-.97-2.32v-.05c-.97-3.02-.16-3.56-3.51-3.56-1.35,0-1.94,.65-2.81,1.57l-.54,.59c0,.22-.11,.43-.27,.65-.22,.22-.43,.43-.65,.7l-.05,.11c.49,2.38,2.43,3.19,4.32,3.89h1.03c3.4,1.4,6.05,2.97,6.05,7.34Z"/><path class="cls-1" d="M567.58,39.31c-.11-.11-.16-.22-.22-.32h-.32c-.16,0-.38-.05-.65-.16-1.94-1.08-2.32-2.75-2.32-4.27,0-.38,0-.7,.05-1.03v-2.97c0-2.11,.05-4.21,.11-6.26,.05-2.05,.11-4.1,.11-6.21,0-3.94-.16-7.88-.97-11.77-.05-.38-.11-.59-.11-.86,0-1.67,1.46-2.86,1.67-4.21,0-.81,.59-1.24,1.4-1.24s1.3,.59,1.3,1.4c0,1.73-1.67,3.19-1.67,4.1,0,.16,0,.22,.05,.27,.81,3.89,1.03,7.67,1.03,11.56v1.4c2.11-1.13,4.64-2.32,7.51-2.32,1.62,0,6.59,1.03,6.59,2.92v3.94c0,4.37,0,8.48,.86,12.58v.05c1.62,.43,4.7,2.92,4.7,4.1,0,.7-.76,1.4-1.4,1.4-.32,0-.65-.16-.92-.43l-.11-.16c-1.46-1.46-2.38-2.38-3.73-2.38-.76,0-1.62,.32-2.59,.92l-.27,.16c-1.4,.86-3.46,2.11-5.62,2.11-1.46,0-3.02-.59-4.48-2.32Zm10.85-19.12c-1.24-.7-2.59-1.03-3.94-1.03-1.89,0-4.16,.76-6.75,2.27-.27,.16-.49,.22-.76,.22-.11,1.3-.16,2.65-.16,4v4.05c0,.38,0,.81,.05,1.19v1.24c0,.43,0,.86-.05,1.35-.05,.49-.05,.86-.05,1.19,0,.92,.16,1.4,.97,1.84,.27,.16,.49,.38,.59,.65,.11-.05,.27-.05,.43-.05,.81,0,2.32,1.84,3.4,1.84s2.38-.65,4.05-1.67l.32-.16c.86-.59,1.73-.97,2.59-1.19-.7-4.32-.7-8.53-.7-12.64v-3.08Z"/><path class="cls-1" d="M591.02,36.18c-1.46-2.38-2.65-4.91-2.65-7.72,0-1.89,.54-3.89,1.84-6.1,2.43-4.1,5.72-5.67,9.83-5.67,4.86,.76,8.1,4,9.72,9.72v2.43q-.86,.81-.86,1.62c0,5.67-2.43,8.91-7.29,9.77h-2.43c-2.65,0-5.89-1.13-8.15-4.05Zm.43-7.78c0,3.83,3.24,9.02,6.91,9.02,.7,0,1.51-.16,2.43-.43,4.59,0,5.67-2.86,5.67-6.53v-3.29c-.81-4.81-3.19-7.29-6.43-7.29h-.86c-3.83,0-7.72,3.89-7.72,8.53Z"/><path class="cls-1" d="M635.41,28.24c0,6.16-4.32,10.04-10.48,10.04-1.78,0-3.24-.22-4.91-.65l-.32-.11v11.93h.27c2.48,.16,6.48,.49,6.48,2.54,0,.81-.65,1.19-1.3,1.19-.05,0-.16-.05-.38-.11-1.94-.7-4.05-1.03-6.26-1.03s-4.32,.32-6.26,1.03h-.38c-.81,0-1.24-.54-1.24-1.13,0-2,4.21-2.32,6.48-2.48h.27V19.82h-.27c-1.35-.16-2.81-.27-4.75-.65h-.81c-.43,0-.92-.49-.92-1.08,0-.11,0-.22,.05-.27v-.11c0-.81,.76-1.13,1.24-1.13l1.13,.32c2,.22,3.89,.43,5.78,.43,1.24,0,2.43-.16,3.56-.43,1.08-.27,2.16-.38,3.24-.38,5.29,0,9.13,4.86,9.61,9.34v.05c.11,.81,.16,1.62,.16,2.32Zm-2.38-.05c0-3.73-1.89-6.75-3.78-7.99h-.05c-1.24-.7-2.48-1.13-4.48-1.13-.7,0-1.51,.11-2.32,.32-.81,.27-1.62,.38-2.43,.43l-.27,.05v15.28h.27c1.46,.49,3.08,.59,4.43,.59,4.16,0,7.4-1.67,8.32-5.08,.22-.76,.32-1.57,.32-2.48Z"/><path class="cls-1" d="M653.82,33.7c0,3.78-2.54,7.07-5.56,7.07h-1.4c-4.37,0-7.02-2-7.94-6.05,0-.81,.38-1.24,1.3-1.73,.81,0,1.73,.38,1.73,1.3,.43,2.65,2,4,4.64,4,1.84,0,4-.92,4.64-4,0-3.13-1.46-4.1-4.32-5.4h-1.03c-2.81-1.13-5.62-2.54-5.99-6.97l-.05-.05c-.11-.11-.16-.22-.16-.32,0-.59,.16-.86,.54-.86l.05-.05c2.65-2.43,2.65-4.27,6.8-4.27s5.45,2.11,6.26,5.13c0,.92,0,1.35,.43,1.94,0,.92-.16,2.38-1.51,2.38-.43,0-1.03-.27-1.03-.97v-.05c-.49-1.03-.97-1.94-.97-2.32v-.05c-.97-3.02-.16-3.56-3.51-3.56-1.35,0-1.94,.65-2.81,1.57l-.54,.59c0,.22-.11,.43-.27,.65-.22,.22-.43,.43-.65,.7l-.05,.11c.49,2.38,2.43,3.19,4.32,3.89h1.03c3.4,1.4,6.05,2.97,6.05,7.34Z"/><path class="cls-1" d="M678.39,33.53c1.4,2.81,6.26,4.75,10.8,4.75,1.03,0,2-.11,2.92-.32,10.31-2.21,17.33-8.26,22.52-18.68,.16-.38,.38-.97,.81-1.57-2-1.51-5.45-4.27-8.15-4.27-.81,0-2.54,.49-2.54,1.57,0,.27,.16,.7,.43,1.3,.49-.38,.76-.38,1.13-.38,.86,0,1.57,.65,1.57,1.57,0,1.08-1.4,2.05-2.97,2.05-2.27,0-3.29-2.7-3.29-4.54,0-2.7,2.97-4.7,5.67-4.7,5.62,0,11.02,7.51,14.53,7.51,.97,0,1.89-.7,2.7-2.16-.22-.49-.49-.92-.86-1.19-.27,.81-.76,1.24-1.51,1.24-1.08,0-1.62-.59-1.62-1.73,0-1.67,1.13-2.92,2.7-2.92,1.94,0,3.62,1.78,4.54,4.16,.05,.22,.11,.38,.11,.54,0,.27-.05,.49-.16,.7-1.57,2.97-3.51,4.43-5.94,4.43-1.35,0-2.54-.54-3.78-1.35-.16,.22-.27,.49-.38,.81-.16,.32-.32,.65-.49,.97-5.45,10.85-13.28,17.39-24.35,19.71-1.08,.22-2.27,.38-3.51,.38-4.97,0-11.02-2-13.18-5.72-1.89-3.24-2.97-5.72-2.97-8.48,0-2.43,1.51-5.99,3.35-8.75,1.94-2.86,5.02-5.45,8.15-5.45,1.57,0,3.02,.59,4.27,1.73,.59,.59,1.08,.86,1.4,.86,1.13,0,3.89-4.27,6.16-5.94,1.78-1.3,2.59-2.97,2.59-5.56v-.59c-.05-.16-.05-.38-.05-.54,0-.81,.59-1.57,1.46-1.57,1.46,0,1.73,1.13,1.73,2.65,0,2.81-.81,5.94-3.83,8.15-3.13,2.38-4.05,6.21-7.67,6.53-1.24,2.97-3.08,5.35-5.02,7.61-1.51,1.84-4.43,4.75-5.89,6.59-.32,.38-.76,.59-1.24,.59h-.11Zm6.1-17.39c-4,0-8.32,7.72-8.32,11.07,0,1.24,.32,2.54,.97,3.94,.59-1.08,2.54-3.02,3.78-4.27,2.65-2.86,5.18-5.62,6.7-9.07-.16-.11-.27-.22-.43-.32-.16-.11-.27-.27-.43-.43-.65-.59-1.4-.92-2.27-.92Z"/><path class="cls-1" d="M742.97,38.88c0-.38,.16-.76,.49-1.08,1.89-2.43,3.19-5.56,4.32-8.32l.92-2.21c.86-1.51,1.24-2.92,1.24-3.78,0-.38-.11-.81-.32-1.19-1.67,.92-2.86,3.51-4.37,3.51-.86,0-1.51-.65-1.51-1.35,0-.38,.11-.65,.38-.86,1.24-2.21,3.08-3.78,5.51-4.7,.22-.11,.43-.16,.59-.16,1.94,0,2.97,3.35,2.97,4.64,0,.65-.11,1.19-.27,1.78,1.13-.54,1.84-3.19,3.13-3.19,1.03,0,1.51,.76,1.51,1.57,0,3.08-3.46,4.97-5.99,4.97l-.65,2.11c-1.4,3.13-4.21,9.72-6.26,9.72-1.03,0-1.67-.86-1.67-1.46Zm12.26,.05c0-.54,.22-1.19,.59-2,.38-.76,.65-1.51,.92-2.21,2.54-4.32,4.75-8.59,5.62-13.72v-.27c0-.43-1.84-.7-1.84-1.84,0-.92,.92-1.57,1.51-1.57,2.92,0,3.51,1.67,3.51,4.32-.22,1.03-.43,1.94-.7,2.75,.59-.38,1.13-.92,1.73-1.67s1.46-1.67,2.59-2.7l.38-.22c.92-.92,2.38-2.05,4.1-2.05,2.05,0,3.89,1.67,3.89,3.24,0,.92-.16,1.57-.43,2.05-.27,.49-.43,.86-.43,1.03s0,.27,.05,.38v.43c0,.49-2.86,5.08-3.46,6.1-1.03,1.78-1.78,3.56-2.43,5.24,1.08,0,2-.81,2.7-3.02,.38-.7,.92-1.03,1.67-1.03,1.03,0,1.62,.65,1.62,1.57,0,.27-.05,.49-.16,.7-1.24,3.35-3.19,5.02-5.83,5.02-2.43,0-3.46-1.13-3.46-2.27,.49-2.59,1.51-4.54,2.59-6.48,.81-1.51,2.32-4.16,2.97-5.94,0-.16,.05-.27,.22-.32,.11-.05,.22-.16,.38-.32,0-.7,.16-1.35,.54-1.84,.32-.49,.49-.92,.49-1.3-.38-.05-.59-.11-.76-.11-.65,0-1.3,.32-2.38,1.4h-.38c-2.38,2.38-3.19,5.45-7.45,5.62-1.13,2.86-2.59,5.45-4.05,8.1-1.08,2-.43,4.32-2.81,4.32-1.24,0-1.51-.59-1.51-1.4Z"/><path class="cls-1" d="M797.14,24.79c0,7.34-6.16,15.98-12.26,15.98-3.29,0-5.18-1.84-5.18-6.43,0-5.24,2.92-11.12,7.45-14.36,1.78-1.3,3.29-2,4.75-2,1.78,0,3.24,.97,4.37,2.97,.59,1.08,.86,2.38,.86,3.83Zm-14.36,9.18c0,1.94,.27,3.51,2.38,3.51,4.54,0,8.91-7.34,8.91-12.47,0-2.32-1.24-3.78-2.32-3.78-.81,0-1.84,.43-3.08,1.35-3.4,2.43-5.89,7.4-5.89,11.39Z"/><path class="cls-1" d="M799.78,23.87c0-.38,.11-.7,.27-1.03,1.67-2.65,3.67-3.94,5.99-3.94h.05v-.54c-.05-.16-.05-.32-.05-.49,0-1.46,.16-2.97,1.62-2.97,1.67,0,1.62,2.05,1.62,4,.59-.27,1.24-.59,1.89-1.08,.65-.43,1.4-.65,2.32-.65,3.46,0,4.05,1.67,4.81,4.75,0,1.13-.76,1.94-2.05,1.94-.59,0-1.03-.49-1.4-1.3,0-1.84,.22-2.27-1.24-2.27-.7,.27-1.35,.59-1.94,.97s-1.3,.7-2,.92c-.16,1.13-.54,2.27-1.03,3.4-.49,1.13-.97,2.16-1.35,3.19l-.65,.65c-.43,1.03-.86,2.16-1.35,3.35-.49,1.24-.97,2.38-1.46,3.51l-.92,2.32c-.59,.86-.86,2.05-2.48,2.05-1.08,0-1.67-.38-1.67-1.62,0-.65,.59-1.4,1.3-1.4l.7-2.54c1.24-2.32,2.16-4.64,3.08-6.97l.7-.97c.38-.86,.7-1.73,1.08-2.54,.32-.81,.59-1.62,.81-2.43-.92,0-2.38,.27-3.89,2.48-.22,.38-.92,.7-1.13,.7-.65,0-1.62-.49-1.62-1.51Z"/><path class="cls-1" d="M828.18,35.59h.05c-2.11,2.65-3.73,4.86-7.45,4.86-1.78,0-3.83-1.57-3.83-3.46,0-.43,.11-.81,.38-1.08,.27-.27,.38-.7,.38-1.24,0-.27,0-.54-.05-.86-.05-.27-.05-.59-.05-.92,0-.92,.22-1.89,.7-2.92,.43-.97,.81-2,1.19-3.02,.76-2.27,2.92-8.26,5.29-8.26,.86,0,1.57,.76,1.57,1.57,0,.38-.16,.76-.43,1.13-1.46,1.46-2.21,3.29-3.02,5.29h.22c2.54,0,5.02-2.11,6.1-5.51,0-1.19-2.59-1.13-2.59-2.75,0-.92,.76-1.57,1.62-1.57,2.38,0,4.1,2.54,4.1,4.27,0,.38-.05,.76-.16,1.13-1.24,3.78-3.4,6.1-6.59,7.02l-.49,.16c-.27,.05-.59,.16-.92,.22-.38,.11-.76,.16-1.13,.16s-.76-.05-1.19-.16c-.16,.54-.43,1.08-.7,1.57-.27,.54-.43,1.13-.43,1.73,0,.27,0,.59,.05,.86,.05,.27,.05,.59,.05,.86,0,.81-.11,1.62-.54,2.43,.11,.11,.27,.16,.43,.16,2.32,0,3.62-1.73,5.02-3.56v.05c.27-.49,.76-.7,1.35-.7,.86,0,1.57,.65,1.57,1.46,0,.49-.16,.81-.49,1.08Z"/></g></g></svg>