<?xml version="1.0" encoding="utf-8"?>
<!-- Generator: Adobe Illustrator 27.0.1, SVG Export Plug-In . SVG Version: 6.00 Build 0)  -->
<svg version="1.1" id="Layer_2_00000101069922767001816750000016405167728114670722_"
	 xmlns="http://www.w3.org/2000/svg" xmlns:xlink="http://www.w3.org/1999/xlink" x="0px" y="0px" viewBox="0 0 904.1 166.9"
	 style="enable-background:new 0 0 904.1 166.9;" xml:space="preserve">
<style type="text/css">
	.st0{fill:#3347FF;}
</style>
<path class="st0" d="M4.7,27.4c2-2,4.3-3,7.1-3c2.7,0,5.1-1,7.1-2.9s3-4.2,3-6.9s1-5.1,2.9-7.1s4.2-3,6.9-3c2.9,0,5.3,1,7.2,3
	s2.9,4.3,2.9,7.1c0-2.7,1-5.1,3-7.1s4.3-3,7.1-3c2.7,0,5.1,1,7.1,3s3,4.3,3,7.1c0-2.7,1-5.1,2.9-7.1s4.2-3,6.9-3c2.9,0,5.3,1,7.2,3
	c1.9,2,2.9,4.3,2.9,7.1c0,2.7,1,5,3,6.9s4.3,2.9,7.1,2.9c2.7,0,5.1,1,7.1,3s3,4.3,3,7.1c0,2.7-1,5.1-3,7.1s-4.3,3-7.1,3
	c2.7,0,5.1,1,7.1,3s3,4.3,3,7.1c0,2.6-1,4.8-3,6.7s-4.3,2.9-7.1,2.9c2.7,0,5.1,1,7.1,3s3,4.3,3,7.1c0,2.7-1,5.1-3,7.1s-4.3,3-7.1,3
	c2.7,0,5.1,1,7.1,3s3,4.3,3,7.1c0,2.7-1,5.1-3,7.1s-4.3,3-7.1,3c-2.7,0-5.1,1-7.1,2.9s-3,4.2-3,6.9c0,2.7-1,5.1-2.9,7.1
	s-4.3,3-7.2,3c-2.7,0-5-1-6.9-3s-2.9-4.3-2.9-7.1c0,2.7-1,5.1-3,7.1s-4.3,3-7.1,3c-2.7,0-5.1-1-7.1-3s-3-4.3-3-7.1
	c0-2.7-1-5-2.9-6.9s-4.3-2.9-7.2-2.9c2.9,0,5.3-1,7.2-3s2.9-4.3,2.9-7.1c0,2.7,1,5.1,3,7.1s4.3,3,7.1,3c2.7,0,5.1-1,7.1-3
	s3-4.3,3-7.1c0,2.7,1,5.1,2.9,7.1s4.2,3,6.9,3c2.9,0,5.3-1,7.2-3c1.9-2,2.9-4.3,2.9-7.1c0-2.7-1-5.1-2.9-7.1s-4.3-3-7.2-3
	c2.9,0,5.3-1,7.2-3c1.9-2,2.9-4.3,2.9-7.1c0-2.7-1-5.1-2.9-7.1s-4.3-3-7.2-3c2.9,0,5.3-0.9,7.2-2.7c1.9-1.8,2.9-4.1,2.9-6.8
	s-1-5.1-2.9-7.1s-4.3-3-7.2-3c2.9,0,5.3-1,7.2-3c1.9-2,2.9-4.3,2.9-7.1c0-2.7-1-5.1-2.9-7.1s-4.3-3-7.2-3c-2.7,0-5,1-6.9,3
	S62,31.8,62,34.6c0-2.7-1-5.1-3-7.1s-4.3-3-7.1-3c-2.7,0-5.1,1-7.1,3s-3,4.3-3,7.1c0-2.7-1-5.1-2.9-7.1s-4.3-3-7.2-3
	c-2.7,0-5,1-6.9,3s-2.9,4.3-2.9,7.1c0,2.7,1,5.1,2.9,7.1s4.2,3,6.9,3c-2.7,0-5,1-6.9,3s-2.9,4.3-2.9,7.1c0,2.7,1,5,2.9,6.8
	s4.2,2.7,6.9,2.7c-2.7,0-5,1-6.9,3s-2.9,4.3-2.9,7.1c0,2.7,1,5.1,2.9,7.1s4.2,3,6.9,3c-2.7,0-5,1-6.9,3s-2.9,4.3-2.9,7.1
	c0,2.7,1,5.1,2.9,7.1s4.2,3,6.9,3c-2.7,0-5,1-6.9,2.9s-2.9,4.2-2.9,6.9c0,2.7,1,5.1,2.9,7.1s4.2,3,6.9,3c-2.7,0-5,1-6.9,3
	s-2.9,4.3-2.9,7.1c0,2.7,1,5.1,2.9,7.1s4.2,3,6.9,3c-2.7,0-5,1-6.9,2.9s-2.9,4.2-2.9,6.9s-1,5.1-3,7.1s-4.3,3-7.1,3
	c-2.7,0-5.1-1-7.1-3s-3-4.3-3-7.1c0-2.7,1-5,3-6.9s4.3-2.9,7.1-2.9c-2.7,0-5.1-1-7.1-3s-3-4.3-3-7.1c0-2.7,1-5.1,3-7.1
	c2-2,4.3-3,7.1-3c-2.7,0-5.1-1-7.1-3s-3-4.3-3-7.1c0-2.7,1-5,3-6.9s4.3-2.9,7.1-2.9c-2.7-0.2-5.1-1.2-7.1-3.1s-3-4.2-3-6.9
	c0-2.7,1-5.1,3-7.1s4.3-3,7.1-3c-2.7,0-5.1-1-7.1-3s-3-4.3-3-7.1c0-2.7,1-5.1,3.1-7.1s4.4-3,6.9-3c-2.7,0-5.1-1-7.1-2.9
	s-3-4.1-3-6.7c0-2.7,1-5.1,3-7.1s4.3-3,7.1-3c-2.7,0-5.1-1-7.1-3s-3-4.3-3-7.1C1.8,31.7,2.8,29.4,4.7,27.4z"/>
<path class="st0" d="M118.5,121.1c-2,2-4.3,3-7.1,3c-2.7,0-5-1-6.9-3s-2.9-4.3-2.9-7.1c0-2.7,1-5,2.9-6.9s4.2-2.9,6.9-2.9
	c-2.7,0-5-1-6.9-3s-2.9-4.3-2.9-7.1c0-2.7,1-5.1,2.9-7.1s4.2-3,6.9-3c-2.7,0-5-1-6.9-2.9s-2.9-4.2-2.9-6.9c0-2.7,1-5.1,2.9-7.1
	s4.2-3,6.9-3c-2.7,0-5-1-6.9-3s-2.9-4.3-2.9-7.1c0-2.7,1-5,2.9-6.9s4.2-2.9,6.9-2.9c-2.7,0-5-1-6.9-3s-2.9-4.3-2.9-7.1
	c0-2.7,1-5.1,2.9-7.1s4.2-3,6.9-3c2.7,0,5.1-1,7.1-2.9s3-4.2,3-6.9s1-5.1,3-7.1s4.3-3,7.1-3c2.7,0,5,1,6.9,3s2.9,4.3,2.9,7.1
	c0-2.7,1-5.1,3-7.1s4.3-3,7.1-3c2.7,0,5.1,1,7.1,3s3,4.3,3,7.1c0-2.7,1-5.1,2.9-7.1s4.2-3,6.9-3s5.1,1,7.1,3s3,4.3,3,7.1
	c0,2.7-1,5-3,6.9s-4.3,2.9-7.1,2.9c-2.7,0-5,1-6.9,3s-2.9,4.3-2.9,7.1c0-2.7-1-5.1-3-7.1s-4.3-3-7.1-3c-2.7,0-5.1,1-7.1,3
	s-3,4.3-3,7.1c0-2.7-1-5.1-2.9-7.1s-4.2-3-6.9-3s-5.1,1-7.1,3s-3,4.3-3,7.1c0,2.7,1,5.1,3,7.1s4.3,3,7.1,3c-2.7,0-5.1,1-7.1,2.9
	s-3,4.2-3,6.9s1,5.1,3,7.1s4.3,3,7.1,3c-2.7,0-5.1,1-7.1,3s-3,4.3-3,7.1c0,2.7,1,5,3,6.9s4.3,2.9,7.1,2.9c-2.7,0-5.1,1-7.1,3
	s-3,4.3-3,7.1c0,2.7,1,5.1,3,7.1s4.3,3,7.1,3c-2.7,0-5.1,1-7.1,2.9s-3,4.2-3,6.9C121.5,116.7,120.5,119.1,118.5,121.1z"/>
<path class="st0" d="M199.2,121.1c-2,2-4.3,3-7.1,3c-2.7,0-5-1-6.9-3s-2.9-4.3-2.9-7.1c0-2.7-1-5-3-6.9s-4.3-2.9-7.1-2.9
	c-2.7,0-5.1-1-7.1-3s-3-4.3-3-7.1c0-2.7,1-5.1,3-7.1s4.3-3,7.1-3c-2.7,0-5.1-1-7.1-2.9s-3-4.2-3-6.9c0-2.7,1-5.1,3-7.1s4.3-3,7.1-3
	c-2.7,0-5.1-1-7.1-3s-3-4.3-3-7.1c0-2.7,1-5,3-6.9s4.3-2.9,7.1-2.9c-2.7,0-5.1-1-7.1-3s-3-4.3-3-7.1c0-2.7,1-5.1,3-7.1s4.3-3,7.1-3
	c2.7,0,5.1-1,7.1-2.9s3-4.2,3-6.9s1-5.1,2.9-7.1s4.2-3,6.9-3s5.1,1,7.1,3s3,4.3,3,7.1c0-2.7,1-5.1,3-7.1s4.3-3,7.1-3
	c2.7,0,5,1,6.9,3s2.9,4.3,2.9,7.1c0-2.7,1-5.1,3-7.1s4.3-3,7.1-3c2.7,0,5.1,1,7.1,3s3,4.3,3,7.1c0,2.7,1,5,2.9,6.9s4.2,2.9,6.9,2.9
	c2.7,0,5.1,1,7.1,3s3,4.3,3,7.1c0,2.7-1,5.1-3,7.1s-4.3,3-7.1,3c2.7,0,5.1,1,7.1,2.9s3,4.2,3,6.9s-1,5.1-3,7.1s-4.3,3-7.1,3
	c2.7,0,5.1,1,7.1,3s3,4.3,3,7.1c0,2.7-1,5-3,6.9s-4.3,2.9-7.1,2.9c2.7,0,5.1,1,7.1,3s3,4.3,3,7.1c0,2.7-1,5.1-3,7.1s-4.3,3-7.1,3
	c-2.7,0-5,1-6.9,2.9s-2.9,4.2-2.9,6.9c0,2.7-1,5.1-3,7.1s-4.3,3-7.1,3c-2.7,0-5.1-1-7.1-3s-3-4.3-3-7.1c0,2.7-1,5.1-2.9,7.1
	s-4.2,3-6.9,3s-5.1-1-7.1-3s-3-4.3-3-7.1C202.2,116.7,201.2,119.1,199.2,121.1z M185.2,101.2c1.9,2,4.2,3,6.9,3s5.1-1,7.1-3
	s3-4.3,3-7.1c0,2.7,1,5.1,3,7.1s4.3,3,7.1,3c2.7,0,5-1,6.9-3s2.9-4.3,2.9-7.1c0,2.7,1,5.1,3,7.1s4.3,3,7.1,3c2.7,0,5.1-1,7.1-3
	s3-4.3,3-7.1c0-2.7-1-5.1-3-7.1s-4.3-3-7.1-3c2.7,0,5.1-1,7.1-2.9s3-4.2,3-6.9c0-2.7-1-5.1-3-7.1s-4.3-3-7.1-3c2.7,0,5.1-1,7.1-3
	s3-4.3,3-7.1c0-2.7-1-5-3-6.9s-4.3-2.9-7.1-2.9c2.7,0,5.1-1,7.1-3s3-4.3,3-7.1c0-2.7-1-5.1-3-7.1s-4.3-3-7.1-3c-2.7,0-5.1,1-7.1,3
	s-3,4.3-3,7.1c0-2.7-1-5.1-2.9-7.1s-4.2-3-6.9-3s-5.1,1-7.1,3s-3,4.3-3,7.1c0-2.7-1-5.1-3-7.1s-4.3-3-7.1-3c-2.7,0-5,1-6.9,3
	s-2.9,4.3-2.9,7.1c0,2.7,1,5.1,2.9,7.1s4.2,3,6.9,3c-2.7,0-5,1-6.9,2.9s-2.9,4.2-2.9,6.9s1,5.1,2.9,7.1s4.2,3,6.9,3
	c-2.7,0-5,1-6.9,3s-2.9,4.3-2.9,7.1c0,2.7,1,5,2.9,6.9s4.2,2.9,6.9,2.9c-2.7,0-5,1-6.9,3s-2.9,4.3-2.9,7.1
	C182.4,96.9,183.3,99.2,185.2,101.2z"/>
<path class="st0" d="M358.7,61.2c-2,2.1-4.3,3.1-7.1,3.1c2.7,0,5.1,1,7.1,3s3,4.3,3,7.1c0,2.6-1,4.8-3,6.8s-4.3,3-7.1,3
	c2.7,0,5.1,1,7.1,3s3,4.3,3,6.8c0,2.9-1,5.3-3,7.2c-2,1.9-4.3,2.9-7.1,2.9c2.7,0,5.1,1,7.1,3s3,4.4,3,7.3c0,2.6-1,4.8-3,6.8
	s-4.3,3-7.1,3c2.7,0,5.1,1,7.1,3c2,2,3,4.3,3,6.8c0,2.7-1,5.1-3,7.1s-4.3,3-7.1,3c-2.7,0-5.1,1-7.1,2.9s-3,4.1-3,6.7
	c0,2.9-1,5.3-2.9,7.3s-4.2,3-6.9,3c-2.9,0-5.2-1-7.1-3c-1.8-2-2.7-4.4-2.7-7.3c0,2.9-1,5.3-3,7.3s-4.4,3-7.3,3c-2.7,0-5.1-1-7.1-3
	s-3-4.4-3-7.3c0,2.9-0.9,5.3-2.7,7.3c-1.8,2-4.2,3-7.1,3c-2.7,0-5.1-1-7.2-3s-3.1-4.4-3.1-7.3c0-2.6-1-4.8-2.9-6.7s-4.1-2.9-6.7-2.9
	c-2.7,0-5.1-1-7.1-3s-3-4.3-3-7.1c0-2.7,1-5,3-6.9c2-1.9,4.3-2.9,7.1-2.9c2.5,0,4.8,1,6.7,2.9c1.9,1.9,2.9,4.2,2.9,6.9
	s1,5.1,3.1,7.1s4.5,3,7.2,3c2.9,0,5.2-1,7.1-3c1.8-2,2.7-4.3,2.7-7.1c0,2.7,1,5.1,3,7.1s4.3,3,7.1,3c2.9,0,5.3-1,7.3-3s3-4.3,3-7.1
	c0,2.7,0.9,5.1,2.7,7.1c1.8,2,4.2,3,7.1,3c2.7,0,5-1,6.9-3s2.9-4.3,2.9-7.1c0-2.7-1-5-2.9-6.9c-1.9-1.9-4.2-2.9-6.9-2.9
	c2.7,0,5-1,6.9-2.9s2.9-4.2,2.9-6.9c0-3-1-5.5-2.9-7.4s-4.2-2.9-6.9-2.9c2.9,0,5.2-1,7.1-2.9c1.8-1.9,2.7-4.3,2.7-7.2
	c0-2.7-1-5-2.9-6.9s-4.2-2.9-6.9-2.9c2.7,0,5-1,6.9-2.9s2.9-4.2,2.9-6.9c0-2.7-1-5.1-2.9-7.1s-4.2-3-6.9-3c2.7,0,5-1,6.9-3.1
	s2.9-4.5,2.9-7.2c0-2.4-1-4.6-2.9-6.6s-4.2-3-6.9-3c2.7,0,5-1,6.9-2.9s2.9-4.2,2.9-6.9c0-3-0.9-5.5-2.7-7.3
	c-1.8-1.8-4.2-2.7-7.1-2.7s-5.2,0.9-7.1,2.7c-1.8,1.8-2.7,4.3-2.7,7.3c0-2.9-1-5.3-3-7.2c-2-1.9-4.4-2.9-7.3-2.9s-5.3,1-7.2,2.9
	c-1.9,1.9-2.9,4.3-2.9,7.2c0-3-0.9-5.5-2.7-7.3c-1.8-1.8-4.2-2.7-7.1-2.7s-5.3,1-7.3,2.9s-3,4.3-3,7.2c0,2.6,1,4.8,3.1,6.8
	s4.5,3,7.2,3c-2.7,0-5.1,1-7.2,3s-3.1,4.2-3.1,6.6c0,2.7,1,5.1,3.1,7.2c2.1,2.1,4.5,3.1,7.2,3.1c-2.7,0-5.1,1-7.2,3
	s-3.1,4.3-3.1,7.1c0,2.6,1,4.8,3.1,6.8s4.5,3,7.2,3c-2.7,0-5.1,1-7.2,3s-3.1,4.3-3.1,6.8c0,2.9,1,5.3,3,7.2c2,1.9,4.4,2.9,7.3,2.9
	s5.2-0.9,7.1-2.7c1.8-1.8,2.7-4.3,2.7-7.3c0,2.9,1,5.3,2.9,7.2c1.9,1.9,4.3,2.9,7.2,2.9c2.9,0,5.3-1,7.3-2.9s3-4.3,3-7.2
	c0,3,0.9,5.5,2.7,7.3c1.8,1.8,4.2,2.7,7.1,2.7c-2.9,0-5.2,1-7.1,2.9c-1.8,1.9-2.7,4.4-2.7,7.4c0,2.7-1,5-3,6.9s-4.4,2.9-7.3,2.9
	c-2.7,0-5.1-1-7.1-2.9s-3-4.2-3-6.9c0,2.7-0.9,5-2.7,6.9c-1.8,1.9-4.2,2.9-7.1,2.9c-2.7,0-5.1-1-7.2-3s-3.1-4.3-3.1-6.8
	c0-3-0.9-5.5-2.7-7.4c-1.8-1.9-4.1-2.9-6.8-2.9c-2.9,0-5.3-1-7.2-2.9c-1.9-1.9-2.9-4.3-2.9-7.2c0-2.7,1-5,3-6.9s4.3-2.9,7.1-2.9
	c-2.7,0-5.1-1-7.1-2.9s-3-4.2-3-6.9c0-2.7,1-5.1,3-7.1s4.3-3,7.1-3c-2.7,0-5.1-1-7.1-3.1s-3-4.5-3-7.2c0-2.4,1-4.6,3-6.6
	s4.3-3,7.1-3c-2.7,0-5.1-1-7.1-2.9s-3-4.2-3-6.9c0-2.9,1-5.3,2.9-7.2c1.9-1.9,4.3-2.9,7.2-2.9c2.7,0,5-1,6.8-2.9s2.7-4.4,2.7-7.4
	c0-2.5,1-4.8,3.1-6.8s4.5-3,7.2-3c2.9,0,5.2,1,7.1,2.9c1.8,1.9,2.7,4.2,2.7,6.9c0-2.7,1-5,3-6.9s4.3-2.9,7.1-2.9
	c2.9,0,5.3,1,7.3,2.9s3,4.2,3,6.9c0-2.7,0.9-5,2.7-6.9c1.8-1.9,4.2-2.9,7.1-2.9c2.7,0,5,1,6.9,2.9s2.9,4.2,2.9,6.9
	c0,2.9,1,5.3,3,7.3s4.3,3,7.1,3c2.7,0,5.1,1,7.1,2.9s3,4.3,3,7.2c0,2.6-1,4.8-3,6.8s-4.3,3-7.1,3c2.5,0,4.9,1,6.9,3
	c2.1,2,3.1,4.2,3.1,6.6C361.7,56.7,360.7,59.1,358.7,61.2z"/>
<path class="st0" d="M378.5,121.1c-2,2-4.3,3-7.1,3c-2.7,0-5-1-6.9-3s-2.9-4.3-2.9-7.1c0-2.7,1-5,2.9-6.9s4.2-2.9,6.9-2.9
	c-2.7,0-5-1-6.9-3s-2.9-4.3-2.9-7.1c0-2.7,1-5.1,2.9-7.1s4.2-3,6.9-3c-2.7,0-5-1-6.9-2.9s-2.9-4.2-2.9-6.9c0-2.7,1-5.1,2.9-7.1
	s4.2-3,6.9-3c-2.7,0-5-1-6.9-3s-2.9-4.3-2.9-7.1c0-2.7,1-5,2.9-6.9s4.2-2.9,6.9-2.9c-2.7,0-5-1-6.9-3s-2.9-4.3-2.9-7.1
	c0-2.7,1-5.1,2.9-7.1s4.2-3,6.9-3c2.7,0,5.1-1,7.1-2.9s3-4.2,3-6.9s1-5.1,3-7.1s4.3-3,7.1-3c2.7,0,5,1,6.9,3s2.9,4.3,2.9,7.1
	c0-2.7,1-5.1,3-7.1s4.3-3,7.1-3c2.7,0,5.1,1,7.1,3s3,4.3,3,7.1c0-2.7,1-5.1,2.9-7.1s4.2-3,6.9-3c2.7,0,5.1,1,7.1,3s3,4.3,3,7.1
	c0,2.7-1,5-3,6.9s-4.3,2.9-7.1,2.9c-2.7,0-5,1-6.9,3s-2.9,4.3-2.9,7.1c0-2.7-1-5.1-3-7.1s-4.3-3-7.1-3c-2.7,0-5.1,1-7.1,3
	s-3,4.3-3,7.1c0-2.7-1-5.1-2.9-7.1s-4.2-3-6.9-3c-2.7,0-5.1,1-7.1,3s-3,4.3-3,7.1c0,2.7,1,5.1,3,7.1s4.3,3,7.1,3
	c-2.7,0-5.1,1-7.1,2.9s-3,4.2-3,6.9s1,5.1,3,7.1s4.3,3,7.1,3c-2.7,0-5.1,1-7.1,3s-3,4.3-3,7.1c0,2.7,1,5,3,6.9s4.3,2.9,7.1,2.9
	c-2.7,0-5.1,1-7.1,3s-3,4.3-3,7.1c0,2.7,1,5.1,3,7.1s4.3,3,7.1,3c-2.7,0-5.1,1-7.1,2.9s-3,4.2-3,6.9
	C381.5,116.7,380.5,119.1,378.5,121.1z"/>
<path class="st0" d="M505,121.2c-1.9-1.9-2.9-4.2-2.9-6.9c0-2.9-1-5.3-2.9-7.2c-1.9-1.9-4.4-2.9-7.4-2.9c2.9,0,5.3-1,7.3-2.9
	s3-4.2,3-6.9c0-2.9-1-5.3-2.9-7.3s-4.4-3-7.4-3c3,0,5.5-0.9,7.4-2.8c1.9-1.8,2.9-4.3,2.9-7.3c0-2.7-1-5-3-6.9s-4.4-2.9-7.3-2.9
	c2.9,0,5.3-1,7.3-2.9s3-4.2,3-6.9c0-2.9-1-5.3-2.9-7.2s-4.4-2.9-7.4-2.9c2.9,0,5.3-1,7.3-2.9s3-4.2,3-6.9c0-2.9-1-5.3-2.9-7.3
	s-4.4-3-7.4-3c-2.7,0-5,1-6.9,3s-2.9,4.4-2.9,7.3c0-2.9-1-5.3-2.9-7.3s-4.2-3-6.9-3s-5.1,1-7.1,3s-3,4.4-3,7.3c0-2.9-1-5.3-2.9-7.3
	s-4.2-3-6.9-3c-2.9,0-5.3,1-7.3,3s-3,4.4-3,7.3c0,2.7-0.9,5-2.8,6.9c-1.8,1.9-4.2,2.9-7.1,2.9c-2.7,0-5.1-1-7.1-2.9s-3-4.2-3-6.9
	c0-2.9,1-5.3,3-7.3s4.3-3,7.1-3c2.9,0,5.2-0.9,7.1-2.7c1.8-1.8,2.8-4.2,2.8-7.1c0-2.7,1-5.1,3-7.1s4.4-3,7.3-3c2.7,0,5,1,6.9,3
	s2.9,4.3,2.9,7.1c0-2.7,1-5.1,3-7.1s4.3-3,7.1-3c2.7,0,5,1,6.9,3s2.9,4.3,2.9,7.1c0-2.7,1-5.1,2.9-7.1s4.2-3,6.9-3
	c3,0,5.5,1,7.4,2.9s2.9,4.3,2.9,7.2s1,5.2,2.9,7.1c1.9,1.8,4.2,2.7,6.9,2.7s5.1,1,7.1,3s3,4.4,3,7.3c0,2.7-1,5-3,6.9
	s-4.3,2.9-7.1,2.9c2.7,0,5.1,1,7.1,3s3,4.3,3,7.1c0,2.7-1,5-3,6.9s-4.3,2.9-7.1,2.9c2.7,0,5.1,1,7.1,2.9s3,4.2,3,6.9
	c0,2.9-1,5.3-2.9,7.2c-1.9,1.9-4.3,2.9-7.2,2.9c2.7,0,5.1,1,7.1,3s3,4.4,3,7.3c0,2.7-1,5-3,6.9s-4.3,2.9-7.1,2.9c2.7,0,5.1,1,7.1,3
	s3,4.3,3,7.1c0,2.7-1,5-3,6.9s-4.3,2.9-7.1,2.9C509.2,124.1,506.9,123.1,505,121.2z M445.1,121.2c-2-1.9-3-4.2-3-6.9
	c0-2.9-0.9-5.3-2.8-7.2c-1.8-1.9-4.2-2.9-7.1-2.9c-2.7,0-5.1-1-7.1-2.9s-3-4.2-3-6.9c0-2.9,1-5.3,3-7.3s4.3-3,7.1-3
	c-2.9,0-5.3-1-7.2-2.9c-1.9-1.9-2.9-4.3-2.9-7.2c0-2.7,1-5,3-6.9s4.3-2.9,7.1-2.9c2.9,0,5.2-1,7.1-2.9c1.8-1.9,2.8-4.2,2.8-6.9
	s1-5.1,3-7.1s4.4-3,7.3-3c2.7,0,5,1,6.9,3s2.9,4.3,2.9,7.1c0-2.7,1-5.1,3-7.1s4.3-3,7.1-3c2.7,0,5,1,6.9,3s2.9,4.3,2.9,7.1
	c0,2.6,1,4.8,3,6.8s4.3,3,6.8,3c-2.6,0-4.8,1-6.8,2.9s-3,4.2-3,6.9c0-2.7-1-5-2.9-6.9s-4.2-2.9-6.9-2.9s-5.1,1-7.1,2.9s-3,4.2-3,6.9
	c0-2.7-1-5-2.9-6.9s-4.2-2.9-6.9-2.9c-2.9,0-5.3,1-7.3,2.9s-3,4.2-3,6.9c0,2.9,1,5.3,3,7.2c2,1.9,4.4,2.9,7.3,2.9
	c-2.9,0-5.3,1-7.3,3s-3,4.4-3,7.3c0,2.7,1,5,3,6.9s4.4,2.9,7.3,2.9c2.7,0,5-1,6.9-3s2.9-4.3,2.9-6.8c0,2.7,1,5,3,6.9
	s4.3,2.9,7.1,2.9c2.7,0,5-1,6.9-3s2.9-4.3,2.9-6.8c0,2.6,1,4.8,3,6.8s4.3,3,6.8,3c-2.7,0-5,1-6.9,3s-2.9,4.3-2.9,7.1
	c0,2.6-1,4.8-2.9,6.8s-4.2,3-6.9,3s-5.1-1-7.1-2.9s-3-4.2-3-6.9c0,2.6-1,4.8-2.9,6.8s-4.2,3-6.9,3
	C449.5,124.1,447.1,123.1,445.1,121.2z"/>
<path class="st0" d="M544.8,21.5c2,1.9,4.3,2.9,7.1,2.9c-2.7,0-5.1,1-7.1,3s-3,4.3-3,7.1c0,2.7,1,5.1,3,7.1s4.3,3,7.1,3
	c-2.7,0-5.1,1-7.1,2.9s-3,4.2-3,6.9s1,5.1,3,7.1s4.3,3,7.1,3c-2.7,0-5.1,1-7.1,3s-3,4.3-3,7.1c0,2.7,1,5,3,6.9s4.3,2.9,7.1,2.9
	c-2.7,0-5.1,1-7.1,3s-3,4.3-3,7.1c0,2.7,1,5.1,3,7.1s4.3,3,7.1,3c-2.7,0-5.1,1-7.1,2.9s-3,4.2-3,6.9c0,2.7-1,5.1-3,7.1s-4.3,3-7.1,3
	c-2.7,0-5-1-6.9-3s-2.9-4.3-2.9-7.1c0-2.7,1-5,2.9-6.9s4.2-2.9,6.9-2.9c-2.7,0-5-1-6.9-3s-2.9-4.3-2.9-7.1c0-2.7,1-5.1,2.9-7.1
	s4.2-3,6.9-3c-2.7,0-5-1-6.9-2.9s-2.9-4.2-2.9-6.9c0-2.7,1-5.1,2.9-7.1s4.2-3,6.9-3c-2.7,0-5-1-6.9-3s-2.9-4.3-2.9-7.1
	c0-2.7,1-5,2.9-6.9s4.2-2.9,6.9-2.9c-2.7,0-5-1-6.9-3s-2.9-4.3-2.9-7.1c0-2.7,1-5.1,2.9-7.1s4.2-3,6.9-3c-2.7,0-5-1-6.9-2.9
	s-2.9-4.2-2.9-6.9s1-5.1,2.9-7.1s4.2-3,6.9-3s5.1,1,7.1,3s3,4.3,3,7.1C541.8,17.3,542.8,19.6,544.8,21.5z M584.6,107.1
	c1.9-1.9,4.2-2.9,6.9-2.9c-2.7,0-5-1-6.9-3s-2.9-4.3-2.9-7.1c0-2.7,1-5.1,2.9-7.1s4.2-3,6.9-3c-2.7,0-5-1-6.9-2.9s-2.9-4.2-2.9-6.9
	c0-2.7,1-5.1,2.9-7.1s4.2-3,6.9-3c-2.7,0-5-1-6.9-3s-2.9-4.3-2.9-7.1c0-2.7,1-5,2.9-6.9s4.2-2.9,6.9-2.9c-2.7,0-5-1-6.9-3
	s-2.9-4.3-2.9-7.1c0-2.7-1-5.1-3-7.1s-4.3-3-7.1-3c-2.7,0-5.1,1-7.1,3s-3,4.3-3,7.1c0-2.7-1-5.1-2.9-7.1s-4.2-3-6.9-3
	c2.7,0,5-1,6.9-2.9s2.9-4.2,2.9-6.9s1-5.1,3-7.1s4.3-3,7.1-3c2.7,0,5.1,1,7.1,3s3,4.3,3,7.1c0,2.7,1,5,2.9,6.9s4.2,2.9,6.9,2.9
	s5.1-1,7.1-2.9s3-4.2,3-6.9s1-5.1,3-7.1s4.3-3,7.1-3c2.7,0,5,1,6.9,3s2.9,4.3,2.9,7.1c0-2.7,1-5.1,3-7.1s4.3-3,7.1-3
	c2.7,0,5.1,1,7.1,3s3,4.3,3,7.1c0,2.7,1,5,2.9,6.9s4.2,2.9,6.9,2.9s5.1,1,7.1,3s3,4.3,3,7.1c0,2.7-1,5.1-3,7.1s-4.3,3-7.1,3
	c2.7,0,5.1,1,7.1,2.9s3,4.2,3,6.9s-1,5.1-3,7.1s-4.3,3-7.1,3c2.7,0,5.1,1,7.1,3s3,4.3,3,7.1c0,2.7-1,5-3,6.9s-4.3,2.9-7.1,2.9
	c2.7,0,5.1,1,7.1,3s3,4.3,3,7.1c0,2.7-1,5.1-3,7.1s-4.3,3-7.1,3c2.7,0,5.1,1,7.1,2.9s3,4.2,3,6.9c0,2.7-1,5.1-3,7.1s-4.3,3-7.1,3
	c-2.7,0-5-1-6.9-3s-2.9-4.3-2.9-7.1c0-2.7-1-5-3-6.9s-4.3-2.9-7.1-2.9c2.7,0,5.1-1,7.1-3s3-4.3,3-7.1c0-2.7-1-5.1-3-7.1
	s-4.3-3-7.1-3c2.7,0,5.1-1,7.1-2.9s3-4.2,3-6.9c0-2.7-1-5.1-3-7.1s-4.3-3-7.1-3c2.7,0,5.1-1,7.1-3s3-4.3,3-7.1c0-2.7-1-5-3-6.9
	s-4.3-2.9-7.1-2.9c2.7,0,5.1-1,7.1-3s3-4.3,3-7.1c0-2.7-1-5.1-3-7.1s-4.3-3-7.1-3c-2.7,0-5.1,1-7.1,3s-3,4.3-3,7.1
	c0-2.7-1-5.1-2.9-7.1s-4.2-3-6.9-3s-5.1,1-7.1,3s-3,4.3-3,7.1c0,2.7,1,5.1,3,7.1s4.3,3,7.1,3c-2.7,0-5.1,1-7.1,2.9s-3,4.2-3,6.9
	s1,5.1,3,7.1s4.3,3,7.1,3c-2.7,0-5.1,1-7.1,3s-3,4.3-3,7.1c0,2.7,1,5,3,6.9s4.3,2.9,7.1,2.9c-2.7,0-5.1,1-7.1,3s-3,4.3-3,7.1
	c0,2.7,1,5.1,3,7.1s4.3,3,7.1,3c-2.7,0-5.1,1-7.1,2.9s-3,4.2-3,6.9c0,2.7-1,5.1-3,7.1s-4.3,3-7.1,3c-2.7,0-5-1-6.9-3
	s-2.9-4.3-2.9-7.1C581.7,111.3,582.7,109,584.6,107.1z"/>
<path class="st0" d="M684.1,21.5c2,1.9,4.3,2.9,7.1,2.9c-2.7,0-5.1,1-7.1,3s-3,4.3-3,7.1c0,2.7,1,5.1,3,7.1s4.3,3,7.1,3
	c-2.7,0-5.1,1-7.1,2.9s-3,4.2-3,6.9s1,5.1,3,7.1s4.3,3,7.1,3c-2.7,0-5.1,1-7.1,3s-3,4.3-3,7.1c0,2.7,1,5,3,6.9s4.3,2.9,7.1,2.9
	c-2.7,0-5.1,1-7.1,3s-3,4.3-3,7.1c0,2.7,1,5.1,3,7.1s4.3,3,7.1,3c-2.7,0-5.1,1-7.1,2.9s-3,4.2-3,6.9c0,2.7-1,5.1-3,7.1s-4.3,3-7.1,3
	c-2.7,0-5-1-6.9-3s-2.9-4.3-2.9-7.1c0-2.7,1-5,2.9-6.9s4.2-2.9,6.9-2.9c-2.7,0-5-1-6.9-3s-2.9-4.3-2.9-7.1c0-2.7,1-5.1,2.9-7.1
	s4.2-3,6.9-3c-2.7,0-5-1-6.9-2.9s-2.9-4.2-2.9-6.9c0-2.7,1-5.1,2.9-7.1s4.2-3,6.9-3c-2.7,0-5-1-6.9-3s-2.9-4.3-2.9-7.1
	c0-2.7,1-5,2.9-6.9s4.2-2.9,6.9-2.9c-2.7,0-5-1-6.9-3s-2.9-4.3-2.9-7.1c0-2.7,1-5.1,2.9-7.1s4.2-3,6.9-3c-2.7,0-5-1-6.9-2.9
	s-2.9-4.2-2.9-6.9s1-5.1,2.9-7.1s4.2-3,6.9-3s5.1,1,7.1,3s3,4.3,3,7.1C681.1,17.3,682.1,19.6,684.1,21.5z M723.9,107.1
	c1.9-1.9,4.2-2.9,6.9-2.9c-2.7,0-5-1-6.9-3s-2.9-4.3-2.9-7.1c0-2.7,1-5.1,2.9-7.1s4.2-3,6.9-3c-2.7,0-5-1-6.9-2.9s-2.9-4.2-2.9-6.9
	c0-2.7,1-5.1,2.9-7.1s4.2-3,6.9-3c-2.7,0-5-1-6.9-3S721,56.8,721,54c0-2.7,1-5,2.9-6.9s4.2-2.9,6.9-2.9c-2.7,0-5-1-6.9-3
	s-2.9-4.3-2.9-7.1c0-2.7-1-5.1-3-7.1s-4.3-3-7.1-3c-2.7,0-5.1,1-7.1,3s-3,4.3-3,7.1c0-2.7-1-5.1-2.9-7.1s-4.2-3-6.9-3
	c2.7,0,5-1,6.9-2.9s2.9-4.2,2.9-6.9s1-5.1,3-7.1s4.3-3,7.1-3c2.7,0,5.1,1,7.1,3s3,4.3,3,7.1c0,2.7,1,5,2.9,6.9s4.2,2.9,6.9,2.9
	s5.1-1,7.1-2.9s3-4.2,3-6.9s1-5.1,3-7.1s4.3-3,7.1-3c2.7,0,5,1,6.9,3s2.9,4.3,2.9,7.1c0-2.7,1-5.1,3-7.1s4.3-3,7.1-3
	c2.7,0,5.1,1,7.1,3s3,4.3,3,7.1c0,2.7,1,5,2.9,6.9s4.2,2.9,6.9,2.9s5.1,1,7.1,3s3,4.3,3,7.1c0,2.7-1,5.1-3,7.1s-4.3,3-7.1,3
	c2.7,0,5.1,1,7.1,2.9s3,4.2,3,6.9s-1,5.1-3,7.1s-4.3,3-7.1,3c2.7,0,5.1,1,7.1,3s3,4.3,3,7.1c0,2.7-1,5-3,6.9s-4.3,2.9-7.1,2.9
	c2.7,0,5.1,1,7.1,3s3,4.3,3,7.1c0,2.7-1,5.1-3,7.1s-4.3,3-7.1,3c2.7,0,5.1,1,7.1,2.9s3,4.2,3,6.9c0,2.7-1,5.1-3,7.1s-4.3,3-7.1,3
	c-2.7,0-5-1-6.9-3s-2.9-4.3-2.9-7.1c0-2.7-1-5-3-6.9s-4.3-2.9-7.1-2.9c2.7,0,5.1-1,7.1-3s3-4.3,3-7.1c0-2.7-1-5.1-3-7.1
	s-4.3-3-7.1-3c2.7,0,5.1-1,7.1-2.9s3-4.2,3-6.9c0-2.7-1-5.1-3-7.1s-4.3-3-7.1-3c2.7,0,5.1-1,7.1-3s3-4.3,3-7.1c0-2.7-1-5-3-6.9
	s-4.3-2.9-7.1-2.9c2.7,0,5.1-1,7.1-3s3-4.3,3-7.1c0-2.7-1-5.1-3-7.1s-4.3-3-7.1-3c-2.7,0-5.1,1-7.1,3s-3,4.3-3,7.1
	c0-2.7-1-5.1-2.9-7.1s-4.2-3-6.9-3s-5.1,1-7.1,3s-3,4.3-3,7.1c0,2.7,1,5.1,3,7.1s4.3,3,7.1,3c-2.7,0-5.1,1-7.1,2.9s-3,4.2-3,6.9
	s1,5.1,3,7.1s4.3,3,7.1,3c-2.7,0-5.1,1-7.1,3s-3,4.3-3,7.1c0,2.7,1,5,3,6.9s4.3,2.9,7.1,2.9c-2.7,0-5.1,1-7.1,3s-3,4.3-3,7.1
	c0,2.7,1,5.1,3,7.1s4.3,3,7.1,3c-2.7,0-5.1,1-7.1,2.9s-3,4.2-3,6.9c0,2.7-1,5.1-3,7.1s-4.3,3-7.1,3c-2.7,0-5-1-6.9-3
	s-2.9-4.3-2.9-7.1C721.1,111.3,722,109,723.9,107.1z"/>
<path class="st0" d="M803.6,87.1c2-2,4.3-3,7.1-3c-2.7,0-5.1-1-7.1-2.9s-3-4.2-3-6.9c0-2.7,1-5.1,3-7.1s4.3-3,7.1-3
	c-2.7,0-5.1-1-7.1-3s-3-4.3-3-7.1c0-2.7,1-5,3-6.9s4.3-2.9,7.1-2.9c-2.7,0-5.1-1-7.1-3s-3-4.3-3-7.1c0-2.7,1-5.1,3-7.1s4.3-3,7.1-3
	c2.7,0,5-1,6.9-2.9c1.9-1.6,2.9-3.9,2.9-6.6s1-5.1,3-7.1s4.3-3,7.1-3c2.7,0,5.1,1,7.1,3s3,4.3,3,7.1c0-2.7,1-5.1,2.9-7.1
	s4.2-3,6.9-3s5.1,1,7.1,3s3,4.3,3,7.1c0-2.7,1-5.1,3-7.1s4.3-3,7.1-3c2.7,0,5,1,6.9,3s2.9,4.3,2.9,7.1c0,2.7,1,5,3,6.9
	s4.3,2.9,7.1,2.9c2.7,0,5.1,1,7.1,3s3,4.3,3,7.1c0,2.7-1,5.1-3,7.1s-4.3,3-7.1,3c-2.7,0-5.1,1-7.1,2.9s-3,4.2-3,6.9s-1,5.1-2.9,7.1
	s-4.2,3-6.9,3s-5.1,1-7.1,3s-3,4.3-3,7.1c0-2.7-1-5.1-3-7.1s-4.3-3-7.1-3c-2.7,0-5,1-6.9,3s-2.9,4.3-2.9,7.1c0-2.7-1-5.1-3-7.1
	s-4.3-3-7.1-3c2.7,0,5.1-1,7.1-3s3-4.3,3-7.1c0-2.7,1-5,2.9-6.9s4.2-2.9,6.9-2.9s5.1,1,7.1,2.9s3,4.2,3,6.9c0-2.7,1-5,3-6.9
	s4.3-2.9,7.1-2.9c2.7,0,5-1,6.9-3s2.9-4.3,2.9-7.1c0-2.7-1-5.1-2.9-7.1s-4.2-3-6.9-3s-5.1,1-7.1,3s-3,4.3-3,7.1c0-2.7-1-5.1-3-7.1
	s-4.3-3-7.1-3c-2.7,0-5,1-6.9,3s-2.9,4.3-2.9,7.1c0-2.7-1-5.1-3-7.1s-4.3-3-7.1-3c-2.7,0-5.1,1-7.1,3s-3,4.3-3,7.1
	c0,2.7,1,5.1,3,7.1s4.3,3,7.1,3c-2.7,0-5.1,1-7.1,2.9s-3,4.2-3,6.9s1,5.1,3,7.1s4.3,3,7.1,3c-2.7,0-5.1,1-7.1,3s-3,4.3-3,7.1
	c0,2.7,1,5,3,6.9s4.3,2.9,7.1,2.9c-2.7,0-5.1,1-7.1,3s-3,4.3-3,7.1c0,2.7,1,5.1,3,7.1s4.3,3,7.1,3c2.7,0,5.1-1,7.1-3s3-4.3,3-7.1
	c0,2.7,1,5.1,2.9,7.1s4.2,3,6.9,3s5.1-1,7.1-3s3-4.3,3-7.1c0,2.7,1,5.1,3,7.1s4.3,3,7.1,3c2.7,0,5-1,6.9-3s2.9-4.3,2.9-7.1
	c0-2.7,1-5.1,3-7.1s4.3-3,7.1-3c2.7,0,5.1,1,7.1,3s3,4.3,3,7.1c0,2.7-1,5.1-3,7.1s-4.3,3-7.1,3c-2.7,0-5.1,1-7.1,2.9s-3,4.2-3,6.9
	c0,2.7-1,5.1-2.9,7.1s-4.2,3-6.9,3s-5.1-1-7.1-3s-3-4.3-3-7.1c0,2.7-1,5.1-3,7.1s-4.3,3-7.1,3c-2.7,0-5-1-6.9-3s-2.9-4.3-2.9-7.1
	c0,2.7-1,5.1-3,7.1s-4.3,3-7.1,3c-2.7,0-5.1-1-7.1-3s-3-4.3-3-7.1c0-2.7-1-5-2.9-6.9s-4.2-2.9-6.9-2.9s-5.1-1-7.1-3s-3-4.3-3-7.1
	C800.7,91.5,801.7,89.1,803.6,87.1z"/>
</svg>
