<?xml version="1.0" encoding="utf-8"?>
<!-- Generator: Adobe Illustrator 27.0.1, SVG Export Plug-In . SVG Version: 6.00 Build 0)  -->
<svg version="1.1" id="Layer_2_00000101069922767001816750000016405167728114670722_"
	 xmlns="http://www.w3.org/2000/svg" xmlns:xlink="http://www.w3.org/1999/xlink" x="0px" y="0px" viewBox="0 0 936.6 159.4"
	 style="enable-background:new 0 0 936.6 159.4;" xml:space="preserve">
<style type="text/css">
	.st0{enable-background:new    ;}
	.st1{fill:#3347FF;}
</style>
<g id="Layer_1-2">
	<g class="st0">
		<path class="st1" d="M3,22.8c2-2,4.3-3,7.1-3c2.7,0,5.1-1,7.1-2.9c2-1.9,3-4.2,3-6.9c0-2.7,1-5.1,2.9-7.1c1.9-2,4.2-3,6.9-3
			c2.9,0,5.3,1,7.2,3c1.9,2,2.9,4.3,2.9,7.1c0-2.7,1-5.1,3-7.1c2-2,4.3-3,7.1-3C52.7,0,55,1,57,3c2,2,3,4.3,3,7.1
			C60,7.3,61,5,62.9,3c1.9-2,4.2-3,6.9-3c2.9,0,5.3,1,7.2,3c1.9,2,2.9,4.3,2.9,7.1c0,2.7,1,5,3,6.9c2,1.9,4.3,2.9,7.1,2.9
			c2.7,0,5.1,1,7.1,3c2,2,3,4.3,3,7.1c0,2.7-1,5.1-3,7.1c-2,2-4.3,3-7.1,3c2.7,0,5.1,1,7.1,3c2,2,3,4.3,3,7.1c0,2.6-1,4.8-3,6.7
			c-2,1.9-4.3,2.9-7.1,2.9c2.7,0,5.1,1,7.1,3c2,2,3,4.3,3,7.1c0,2.7-1,5.1-3,7.1c-2,2-4.3,3-7.1,3c2.7,0,5.1,1,7.1,3
			c2,2,3,4.3,3,7.1c0,2.7-1,5.1-3,7.1c-2,2-4.3,3-7.1,3c-2.7,0-5.1,1-7.1,2.9c-2,1.9-3,4.2-3,6.9c0,2.7-1,5.1-2.9,7.1
			c-1.9,2-4.3,3-7.2,3c-2.7,0-5-1-6.9-3c-1.9-2-2.9-4.3-2.9-7.1c0,2.7-1,5.1-3,7.1c-2,2-4.3,3-7.1,3c-2.7,0-5.1-1-7.1-3
			c-2-2-3-4.3-3-7.1c0-2.7-1-5-2.9-6.9s-4.3-2.9-7.2-2.9c2.9,0,5.3-1,7.2-3c1.9-2,2.9-4.3,2.9-7.1c0,2.7,1,5.1,3,7.1
			c2,2,4.3,3,7.1,3c2.7,0,5.1-1,7.1-3c2-2,3-4.3,3-7.1c0,2.7,1,5.1,2.9,7.1c1.9,2,4.2,3,6.9,3c2.9,0,5.3-1,7.2-3
			c1.9-2,2.9-4.3,2.9-7.1c0-2.7-1-5.1-2.9-7.1c-1.9-2-4.3-3-7.2-3c2.9,0,5.3-1,7.2-3c1.9-2,2.9-4.3,2.9-7.1c0-2.7-1-5.1-2.9-7.1
			c-1.9-2-4.3-3-7.2-3c2.9,0,5.3-0.9,7.2-2.7c1.9-1.8,2.9-4.1,2.9-6.8c0-2.7-1-5.1-2.9-7.1c-1.9-2-4.3-3-7.2-3c2.9,0,5.3-1,7.2-3
			c1.9-2,2.9-4.3,2.9-7.1c0-2.7-1-5.1-2.9-7.1c-1.9-2-4.3-3-7.2-3c-2.7,0-5,1-6.9,3c-1.9,2-2.9,4.3-2.9,7.1c0-2.7-1-5.1-3-7.1
			c-2-2-4.3-3-7.1-3c-2.7,0-5.1,1-7.1,3c-2,2-3,4.3-3,7.1c0-2.7-1-5.1-2.9-7.1c-1.9-2-4.3-3-7.2-3c-2.7,0-5,1-6.9,3
			c-1.9,2-2.9,4.3-2.9,7.1c0,2.7,1,5.1,2.9,7.1c1.9,2,4.2,3,6.9,3c-2.7,0-5,1-6.9,3c-1.9,2-2.9,4.3-2.9,7.1c0,2.7,1,5,2.9,6.8
			c1.9,1.8,4.2,2.7,6.9,2.7c-2.7,0-5,1-6.9,3c-1.9,2-2.9,4.3-2.9,7.1c0,2.7,1,5.1,2.9,7.1c1.9,2,4.2,3,6.9,3c-2.7,0-5,1-6.9,3
			c-1.9,2-2.9,4.3-2.9,7.1c0,2.7,1,5.1,2.9,7.1c1.9,2,4.2,3,6.9,3c-2.7,0-5,1-6.9,2.9c-1.9,1.9-2.9,4.2-2.9,6.9c0,2.7,1,5.1,2.9,7.1
			c1.9,2,4.2,3,6.9,3c-2.7,0-5,1-6.9,3c-1.9,2-2.9,4.3-2.9,7.1c0,2.7,1,5.1,2.9,7.1c1.9,2,4.2,3,6.9,3c-2.7,0-5,1-6.9,2.9
			c-1.9,1.9-2.9,4.2-2.9,6.9c0,2.7-1,5.1-3,7.1c-2,2-4.3,3-7.1,3c-2.7,0-5.1-1-7.1-3c-2-2-3-4.3-3-7.1c0-2.7,1-5,3-6.9
			c2-1.9,4.3-2.9,7.1-2.9c-2.7,0-5.1-1-7.1-3c-2-2-3-4.3-3-7.1c0-2.7,1-5.1,3-7.1c2-2,4.3-3,7.1-3c-2.7,0-5.1-1-7.1-3
			c-2-2-3-4.3-3-7.1c0-2.7,1-5,3-6.9c2-1.9,4.3-2.9,7.1-2.9C7.3,99.5,5,98.5,3,96.6c-2-1.9-3-4.2-3-6.9c0-2.7,1-5.1,3-7.1
			c2-2,4.3-3,7.1-3c-2.7,0-5.1-1-7.1-3c-2-2-3-4.3-3-7.1c0-2.7,1-5.1,3.1-7.1c2.1-2,4.4-3,6.9-3c-2.7,0-5.1-1-7.1-2.9
			c-2-1.9-3-4.1-3-6.7c0-2.7,1-5.1,3-7.1c2-2,4.3-3,7.1-3c-2.7,0-5.1-1-7.1-3c-2-2-3-4.3-3-7.1C0,27.2,1,24.8,3,22.8z"/>
		<path class="st1" d="M116.8,116.5c-2,2-4.3,3-7.1,3c-2.7,0-5-1-6.9-3c-1.9-2-2.9-4.3-2.9-7.1c0-2.7,1-5,2.9-6.9
			c1.9-1.9,4.2-2.9,6.9-2.9c-2.7,0-5-1-6.9-3c-1.9-2-2.9-4.3-2.9-7.1c0-2.7,1-5.1,2.9-7.1c1.9-2,4.2-3,6.9-3c-2.7,0-5-1-6.9-2.9
			c-1.9-1.9-2.9-4.2-2.9-6.9c0-2.7,1-5.1,2.9-7.1c1.9-2,4.2-3,6.9-3c-2.7,0-5-1-6.9-3c-1.9-2-2.9-4.3-2.9-7.1c0-2.7,1-5,2.9-6.9
			c1.9-1.9,4.2-2.9,6.9-2.9c-2.7,0-5-1-6.9-3c-1.9-2-2.9-4.3-2.9-7.1c0-2.7,1-5.1,2.9-7.1c1.9-2,4.2-3,6.9-3c2.7,0,5.1-1,7.1-2.9
			c2-1.9,3-4.2,3-6.9c0-2.7,1-5.1,3-7.1c2-2,4.3-3,7.1-3c2.7,0,5,1,6.9,3c1.9,2,2.9,4.3,2.9,7.1c0-2.7,1-5.1,3-7.1c2-2,4.3-3,7.1-3
			c2.7,0,5.1,1,7.1,3c2,2,3,4.3,3,7.1c0-2.7,1-5.1,2.9-7.1c1.9-2,4.2-3,6.9-3c2.7,0,5.1,1,7.1,3c2,2,3,4.3,3,7.1c0,2.7-1,5-3,6.9
			c-2,1.9-4.3,2.9-7.1,2.9c-2.7,0-5,1-6.9,3c-1.9,2-2.9,4.3-2.9,7.1c0-2.7-1-5.1-3-7.1c-2-2-4.3-3-7.1-3c-2.7,0-5.1,1-7.1,3
			c-2,2-3,4.3-3,7.1c0-2.7-1-5.1-2.9-7.1c-1.9-2-4.2-3-6.9-3c-2.7,0-5.1,1-7.1,3c-2,2-3,4.3-3,7.1c0,2.7,1,5.1,3,7.1
			c2,2,4.3,3,7.1,3c-2.7,0-5.1,1-7.1,2.9c-2,1.9-3,4.2-3,6.9c0,2.7,1,5.1,3,7.1c2,2,4.3,3,7.1,3c-2.7,0-5.1,1-7.1,3
			c-2,2-3,4.3-3,7.1c0,2.7,1,5,3,6.9c2,1.9,4.3,2.9,7.1,2.9c-2.7,0-5.1,1-7.1,3c-2,2-3,4.3-3,7.1c0,2.7,1,5.1,3,7.1c2,2,4.3,3,7.1,3
			c-2.7,0-5.1,1-7.1,2.9c-2,1.9-3,4.2-3,6.9C119.8,112.2,118.8,114.5,116.8,116.5z"/>
		<path class="st1" d="M216.5,116.5c-2,2-4.3,3-7.1,3c-2.7,0-5-1-6.9-3c-1.9-2-2.9-4.3-2.9-7.1c0-2.7-1-5-3-6.9
			c-2-1.9-4.3-2.9-7.1-2.9c-2.7,0-5.1-1-7.1-3c-2-2-3-4.3-3-7.1c0-2.7,1-5.1,3-7.1c2-2,4.3-3,7.1-3c-2.7,0-5.1-1-7.1-2.9
			c-2-1.9-3-4.2-3-6.9c0-2.7,1-5.1,3-7.1c2-2,4.3-3,7.1-3c-2.7,0-5.1-1-7.1-3c-2-2-3-4.3-3-7.1c0-2.7,1-5,3-6.9
			c2-1.9,4.3-2.9,7.1-2.9c-2.7,0-5.1-1-7.1-3c-2-2-3-4.3-3-7.1c0-2.7,1-5.1,3-7.1c2-2,4.3-3,7.1-3c2.7,0,5.1-1,7.1-2.9
			c2-1.9,3-4.2,3-6.9c0-2.7,1-5.1,2.9-7.1c1.9-2,4.2-3,6.9-3c2.7,0,5.1,1,7.1,3c2,2,3,4.3,3,7.1c0-2.7,1-5.1,3-7.1c2-2,4.3-3,7.1-3
			c2.7,0,5,1,6.9,3c1.9,2,2.9,4.3,2.9,7.1c0-2.7,1-5.1,3-7.1c2-2,4.3-3,7.1-3c2.7,0,5.1,1,7.1,3c2,2,3,4.3,3,7.1c0,2.7,1,5,2.9,6.9
			c1.9,1.9,4.2,2.9,6.9,2.9c2.7,0,5.1,1,7.1,3c2,2,3,4.3,3,7.1c0,2.7-1,5.1-3,7.1c-2,2-4.3,3-7.1,3c2.7,0,5.1,1,7.1,2.9
			c2,1.9,3,4.2,3,6.9c0,2.7-1,5.1-3,7.1c-2,2-4.3,3-7.1,3c2.7,0,5.1,1,7.1,3c2,2,3,4.3,3,7.1c0,2.7-1,5-3,6.9
			c-2,1.9-4.3,2.9-7.1,2.9c2.7,0,5.1,1,7.1,3c2,2,3,4.3,3,7.1c0,2.7-1,5.1-3,7.1c-2,2-4.3,3-7.1,3c-2.7,0-5,1-6.9,2.9
			c-1.9,1.9-2.9,4.2-2.9,6.9c0,2.7-1,5.1-3,7.1c-2,2-4.3,3-7.1,3c-2.7,0-5.1-1-7.1-3c-2-2-3-4.3-3-7.1c0,2.7-1,5.1-2.9,7.1
			c-1.9,2-4.2,3-6.9,3c-2.7,0-5.1-1-7.1-3c-2-2-3-4.3-3-7.1C219.4,112.2,218.4,114.5,216.5,116.5z M202.5,96.7c1.9,2,4.2,3,6.9,3
			c2.7,0,5.1-1,7.1-3c2-2,3-4.3,3-7.1c0,2.7,1,5.1,3,7.1c2,2,4.3,3,7.1,3c2.7,0,5-1,6.9-3c1.9-2,2.9-4.3,2.9-7.1c0,2.7,1,5.1,3,7.1
			c2,2,4.3,3,7.1,3c2.7,0,5.1-1,7.1-3c2-2,3-4.3,3-7.1c0-2.7-1-5.1-3-7.1c-2-2-4.3-3-7.1-3c2.7,0,5.1-1,7.1-2.9c2-1.9,3-4.2,3-6.9
			c0-2.7-1-5.1-3-7.1c-2-2-4.3-3-7.1-3c2.7,0,5.1-1,7.1-3c2-2,3-4.3,3-7.1c0-2.7-1-5-3-6.9c-2-1.9-4.3-2.9-7.1-2.9
			c2.7,0,5.1-1,7.1-3c2-2,3-4.3,3-7.1c0-2.7-1-5.1-3-7.1c-2-2-4.3-3-7.1-3c-2.7,0-5.1,1-7.1,3c-2,2-3,4.3-3,7.1c0-2.7-1-5.1-2.9-7.1
			c-1.9-2-4.2-3-6.9-3c-2.7,0-5.1,1-7.1,3c-2,2-3,4.3-3,7.1c0-2.7-1-5.1-3-7.1c-2-2-4.3-3-7.1-3c-2.7,0-5,1-6.9,3
			c-1.9,2-2.9,4.3-2.9,7.1c0,2.7,1,5.1,2.9,7.1c1.9,2,4.2,3,6.9,3c-2.7,0-5,1-6.9,2.9c-1.9,1.9-2.9,4.2-2.9,6.9c0,2.7,1,5.1,2.9,7.1
			c1.9,2,4.2,3,6.9,3c-2.7,0-5,1-6.9,3c-1.9,2-2.9,4.3-2.9,7.1c0,2.7,1,5,2.9,6.9c1.9,1.9,4.2,2.9,6.9,2.9c-2.7,0-5,1-6.9,3
			c-1.9,2-2.9,4.3-2.9,7.1C199.6,92.4,200.6,94.7,202.5,96.7z"/>
		<path class="st1" d="M375.9,56.7c-2,2.1-4.3,3.1-7.1,3.1c2.7,0,5.1,1,7.1,3c2,2,3,4.3,3,7.1c0,2.6-1,4.8-3,6.8c-2,2-4.3,3-7.1,3
			c2.7,0,5.1,1,7.1,3c2,2,3,4.3,3,6.8c0,2.9-1,5.3-3,7.2c-2,1.9-4.3,2.9-7.1,2.9c2.7,0,5.1,1,7.1,3c2,2,3,4.4,3,7.3
			c0,2.6-1,4.8-3,6.8c-2,2-4.3,3-7.1,3c2.7,0,5.1,1,7.1,3c2,2,3,4.3,3,6.8c0,2.7-1,5.1-3,7.1c-2,2-4.3,3-7.1,3c-2.7,0-5.1,1-7.1,2.9
			c-2,1.9-3,4.1-3,6.7c0,2.9-1,5.3-2.9,7.3c-1.9,2-4.2,3-6.9,3c-2.9,0-5.2-1-7.1-3c-1.8-2-2.7-4.4-2.7-7.3c0,2.9-1,5.3-3,7.3
			c-2,2-4.4,3-7.3,3c-2.7,0-5.1-1-7.1-3c-2-2-3-4.4-3-7.3c0,2.9-0.9,5.3-2.7,7.3c-1.8,2-4.2,3-7.1,3c-2.7,0-5.1-1-7.2-3
			c-2.1-2-3.1-4.4-3.1-7.3c0-2.6-1-4.8-2.9-6.7c-1.9-1.9-4.1-2.9-6.7-2.9c-2.7,0-5.1-1-7.1-3c-2-2-3-4.3-3-7.1c0-2.7,1-5,3-6.9
			c2-1.9,4.3-2.9,7.1-2.9c2.5,0,4.8,1,6.7,2.9c1.9,1.9,2.9,4.2,2.9,6.9c0,2.7,1,5.1,3.1,7.1c2.1,2,4.5,3,7.2,3c2.9,0,5.2-1,7.1-3
			c1.8-2,2.7-4.3,2.7-7.1c0,2.7,1,5.1,3,7.1c2,2,4.3,3,7.1,3c2.9,0,5.3-1,7.3-3c2-2,3-4.3,3-7.1c0,2.7,0.9,5.1,2.7,7.1
			c1.8,2,4.2,3,7.1,3c2.7,0,5-1,6.9-3c1.9-2,2.9-4.3,2.9-7.1c0-2.7-1-5-2.9-6.9c-1.9-1.9-4.2-2.9-6.9-2.9c2.7,0,5-1,6.9-2.9
			c1.9-1.9,2.9-4.2,2.9-6.9c0-3-1-5.5-2.9-7.4c-1.9-1.9-4.2-2.9-6.9-2.9c2.9,0,5.2-1,7.1-2.9c1.8-1.9,2.7-4.3,2.7-7.2
			c0-2.7-1-5-2.9-6.9c-1.9-1.9-4.2-2.9-6.9-2.9c2.7,0,5-1,6.9-2.9c1.9-1.9,2.9-4.2,2.9-6.9c0-2.7-1-5.1-2.9-7.1c-1.9-2-4.2-3-6.9-3
			c2.7,0,5-1,6.9-3.1c1.9-2.1,2.9-4.5,2.9-7.2c0-2.4-1-4.6-2.9-6.6c-1.9-2-4.2-3-6.9-3c2.7,0,5-1,6.9-2.9c1.9-1.9,2.9-4.2,2.9-6.9
			c0-3-0.9-5.5-2.7-7.3c-1.8-1.8-4.2-2.7-7.1-2.7s-5.2,0.9-7.1,2.7c-1.8,1.8-2.7,4.3-2.7,7.3c0-2.9-1-5.3-3-7.2
			c-2-1.9-4.4-2.9-7.3-2.9c-2.9,0-5.3,1-7.2,2.9c-1.9,1.9-2.9,4.3-2.9,7.2c0-3-0.9-5.5-2.7-7.3c-1.8-1.8-4.2-2.7-7.1-2.7
			s-5.3,1-7.3,2.9c-2,1.9-3,4.3-3,7.2c0,2.6,1,4.8,3.1,6.8c2.1,2,4.5,3,7.2,3c-2.7,0-5.1,1-7.2,3c-2.1,2-3.1,4.2-3.1,6.6
			c0,2.7,1,5.1,3.1,7.2c2.1,2.1,4.5,3.1,7.2,3.1c-2.7,0-5.1,1-7.2,3c-2.1,2-3.1,4.3-3.1,7.1c0,2.6,1,4.8,3.1,6.8c2.1,2,4.5,3,7.2,3
			c-2.7,0-5.1,1-7.2,3c-2.1,2-3.1,4.3-3.1,6.8c0,2.9,1,5.3,3,7.2c2,1.9,4.4,2.9,7.3,2.9s5.2-0.9,7.1-2.7c1.8-1.8,2.7-4.3,2.7-7.3
			c0,2.9,1,5.3,2.9,7.2c1.9,1.9,4.3,2.9,7.2,2.9c2.9,0,5.3-1,7.3-2.9c2-1.9,3-4.3,3-7.2c0,3,0.9,5.5,2.7,7.3
			c1.8,1.8,4.2,2.7,7.1,2.7c-2.9,0-5.2,1-7.1,2.9c-1.8,1.9-2.7,4.4-2.7,7.4c0,2.7-1,5-3,6.9c-2,1.9-4.4,2.9-7.3,2.9
			c-2.7,0-5.1-1-7.1-2.9c-2-1.9-3-4.2-3-6.9c0,2.7-0.9,5-2.7,6.9c-1.8,1.9-4.2,2.9-7.1,2.9c-2.7,0-5.1-1-7.2-3
			c-2.1-2-3.1-4.3-3.1-6.8c0-3-0.9-5.5-2.7-7.4c-1.8-1.9-4.1-2.9-6.8-2.9c-2.9,0-5.3-1-7.2-2.9c-1.9-1.9-2.9-4.3-2.9-7.2
			c0-2.7,1-5,3-6.9c2-1.9,4.3-2.9,7.1-2.9c-2.7,0-5.1-1-7.1-2.9c-2-1.9-3-4.2-3-6.9c0-2.7,1-5.1,3-7.1c2-2,4.3-3,7.1-3
			c-2.7,0-5.1-1-7.1-3.1c-2-2.1-3-4.5-3-7.2c0-2.4,1-4.6,3-6.6c2-2,4.3-3,7.1-3c-2.7,0-5.1-1-7.1-2.9c-2-1.9-3-4.2-3-6.9
			c0-2.9,1-5.3,2.9-7.2c1.9-1.9,4.3-2.9,7.2-2.9c2.7,0,5-1,6.8-2.9c1.8-1.9,2.7-4.4,2.7-7.4c0-2.5,1-4.8,3.1-6.8c2.1-2,4.5-3,7.2-3
			c2.9,0,5.2,1,7.1,2.9c1.8,1.9,2.7,4.2,2.7,6.9c0-2.7,1-5,3-6.9c2-1.9,4.3-2.9,7.1-2.9c2.9,0,5.3,1,7.3,2.9c2,1.9,3,4.2,3,6.9
			c0-2.7,0.9-5,2.7-6.9C343.8,1,346.1,0,349,0c2.7,0,5,1,6.9,2.9c1.9,1.9,2.9,4.2,2.9,6.9c0,2.9,1,5.3,3,7.3c2,2,4.3,3,7.1,3
			c2.7,0,5.1,1,7.1,2.9c2,1.9,3,4.3,3,7.2c0,2.6-1,4.8-3,6.8c-2,2-4.3,3-7.1,3c2.5,0,4.9,1,6.9,3c2.1,2,3.1,4.2,3.1,6.6
			C378.9,52.2,377.9,54.6,375.9,56.7z"/>
		<path class="st1" d="M395.7,116.5c-2,2-4.3,3-7.1,3c-2.7,0-5-1-6.9-3c-1.9-2-2.9-4.3-2.9-7.1c0-2.7,1-5,2.9-6.9
			c1.9-1.9,4.2-2.9,6.9-2.9c-2.7,0-5-1-6.9-3c-1.9-2-2.9-4.3-2.9-7.1c0-2.7,1-5.1,2.9-7.1c1.9-2,4.2-3,6.9-3c-2.7,0-5-1-6.9-2.9
			c-1.9-1.9-2.9-4.2-2.9-6.9c0-2.7,1-5.1,2.9-7.1c1.9-2,4.2-3,6.9-3c-2.7,0-5-1-6.9-3c-1.9-2-2.9-4.3-2.9-7.1c0-2.7,1-5,2.9-6.9
			c1.9-1.9,4.2-2.9,6.9-2.9c-2.7,0-5-1-6.9-3c-1.9-2-2.9-4.3-2.9-7.1c0-2.7,1-5.1,2.9-7.1c1.9-2,4.2-3,6.9-3c2.7,0,5.1-1,7.1-2.9
			c2-1.9,3-4.2,3-6.9c0-2.7,1-5.1,3-7.1c2-2,4.3-3,7.1-3c2.7,0,5,1,6.9,3c1.9,2,2.9,4.3,2.9,7.1c0-2.7,1-5.1,3-7.1c2-2,4.3-3,7.1-3
			c2.7,0,5.1,1,7.1,3c2,2,3,4.3,3,7.1c0-2.7,1-5.1,2.9-7.1c1.9-2,4.2-3,6.9-3c2.7,0,5.1,1,7.1,3c2,2,3,4.3,3,7.1c0,2.7-1,5-3,6.9
			c-2,1.9-4.3,2.9-7.1,2.9c-2.7,0-5,1-6.9,3c-1.9,2-2.9,4.3-2.9,7.1c0-2.7-1-5.1-3-7.1c-2-2-4.3-3-7.1-3c-2.7,0-5.1,1-7.1,3
			c-2,2-3,4.3-3,7.1c0-2.7-1-5.1-2.9-7.1c-1.9-2-4.2-3-6.9-3c-2.7,0-5.1,1-7.1,3c-2,2-3,4.3-3,7.1c0,2.7,1,5.1,3,7.1
			c2,2,4.3,3,7.1,3c-2.7,0-5.1,1-7.1,2.9c-2,1.9-3,4.2-3,6.9c0,2.7,1,5.1,3,7.1c2,2,4.3,3,7.1,3c-2.7,0-5.1,1-7.1,3
			c-2,2-3,4.3-3,7.1c0,2.7,1,5,3,6.9c2,1.9,4.3,2.9,7.1,2.9c-2.7,0-5.1,1-7.1,3c-2,2-3,4.3-3,7.1c0,2.7,1,5.1,3,7.1c2,2,4.3,3,7.1,3
			c-2.7,0-5.1,1-7.1,2.9c-2,1.9-3,4.2-3,6.9C398.7,112.2,397.7,114.5,395.7,116.5z"/>
		<path class="st1" d="M541.2,116.7c-1.9-1.9-2.9-4.2-2.9-6.9c0-2.9-1-5.3-2.9-7.2c-1.9-1.9-4.4-2.9-7.4-2.9c2.9,0,5.3-1,7.3-2.9
			c2-1.9,3-4.2,3-6.9c0-2.9-1-5.3-2.9-7.3c-1.9-2-4.4-3-7.4-3c3,0,5.5-0.9,7.4-2.8c1.9-1.8,2.9-4.3,2.9-7.3c0-2.7-1-5-3-6.9
			c-2-1.9-4.4-2.9-7.3-2.9c2.9,0,5.3-1,7.3-2.9c2-1.9,3-4.2,3-6.9c0-2.9-1-5.3-2.9-7.2c-1.9-1.9-4.4-2.9-7.4-2.9
			c2.9,0,5.3-1,7.3-2.9c2-1.9,3-4.2,3-6.9c0-2.9-1-5.3-2.9-7.3c-1.9-2-4.4-3-7.4-3c-2.7,0-5,1-6.9,3c-1.9,2-2.9,4.4-2.9,7.3
			c0-2.9-1-5.3-2.9-7.3c-1.9-2-4.2-3-6.9-3c-2.7,0-5.1,1-7.1,3c-2,2-3,4.4-3,7.3c0-2.9-1-5.3-2.9-7.3c-1.9-2-4.2-3-6.9-3
			c-2.9,0-5.3,1-7.3,3c-2,2-3,4.4-3,7.3c0,2.7-0.9,5-2.8,6.9c-1.8,1.9-4.2,2.9-7.1,2.9c-2.7,0-5.1-1-7.1-2.9c-2-1.9-3-4.2-3-6.9
			c0-2.9,1-5.3,3-7.3c2-2,4.3-3,7.1-3c2.9,0,5.2-0.9,7.1-2.7c1.8-1.8,2.8-4.2,2.8-7.1c0-2.7,1-5.1,3-7.1c2-2,4.4-3,7.3-3
			c2.7,0,5,1,6.9,3c1.9,2,2.9,4.3,2.9,7.1c0-2.7,1-5.1,3-7.1c2-2,4.3-3,7.1-3c2.7,0,5,1,6.9,3c1.9,2,2.9,4.3,2.9,7.1
			c0-2.7,1-5.1,2.9-7.1c1.9-2,4.2-3,6.9-3c3,0,5.5,1,7.4,2.9c1.9,1.9,2.9,4.3,2.9,7.2c0,2.9,1,5.2,2.9,7.1c1.9,1.8,4.2,2.7,6.9,2.7
			c2.7,0,5.1,1,7.1,3c2,2,3,4.4,3,7.3c0,2.7-1,5-3,6.9c-2,1.9-4.3,2.9-7.1,2.9c2.7,0,5.1,1,7.1,3c2,2,3,4.3,3,7.1c0,2.7-1,5-3,6.9
			c-2,1.9-4.3,2.9-7.1,2.9c2.7,0,5.1,1,7.1,2.9c2,1.9,3,4.2,3,6.9c0,2.9-1,5.3-2.9,7.2c-1.9,1.9-4.3,2.9-7.2,2.9c2.7,0,5.1,1,7.1,3
			c2,2,3,4.4,3,7.3c0,2.7-1,5-3,6.9c-2,1.9-4.3,2.9-7.1,2.9c2.7,0,5.1,1,7.1,3c2,2,3,4.3,3,7.1c0,2.7-1,5-3,6.9
			c-2,1.9-4.3,2.9-7.1,2.9C545.4,119.5,543.1,118.6,541.2,116.7z M481.3,116.7c-2-1.9-3-4.2-3-6.9c0-2.9-0.9-5.3-2.8-7.2
			c-1.8-1.9-4.2-2.9-7.1-2.9c-2.7,0-5.1-1-7.1-2.9c-2-1.9-3-4.2-3-6.9c0-2.9,1-5.3,3-7.3c2-2,4.3-3,7.1-3c-2.9,0-5.3-1-7.2-2.9
			c-1.9-1.9-2.9-4.3-2.9-7.2c0-2.7,1-5,3-6.9c2-1.9,4.3-2.9,7.1-2.9c2.9,0,5.2-1,7.1-2.9c1.8-1.9,2.8-4.2,2.8-6.9c0-2.7,1-5.1,3-7.1
			c2-2,4.4-3,7.3-3c2.7,0,5,1,6.9,3c1.9,2,2.9,4.3,2.9,7.1c0-2.7,1-5.1,3-7.1c2-2,4.3-3,7.1-3c2.7,0,5,1,6.9,3
			c1.9,2,2.9,4.3,2.9,7.1c0,2.6,1,4.8,3,6.8c2,2,4.3,3,6.8,3c-2.6,0-4.8,1-6.8,2.9c-2,1.9-3,4.2-3,6.9c0-2.7-1-5-2.9-6.9
			c-1.9-1.9-4.2-2.9-6.9-2.9c-2.7,0-5.1,1-7.1,2.9c-2,1.9-3,4.2-3,6.9c0-2.7-1-5-2.9-6.9c-1.9-1.9-4.2-2.9-6.9-2.9
			c-2.9,0-5.3,1-7.3,2.9c-2,1.9-3,4.2-3,6.9c0,2.9,1,5.3,3,7.2c2,1.9,4.4,2.9,7.3,2.9c-2.9,0-5.3,1-7.3,3c-2,2-3,4.4-3,7.3
			c0,2.7,1,5,3,6.9c2,1.9,4.4,2.9,7.3,2.9c2.7,0,5-1,6.9-3c1.9-2,2.9-4.3,2.9-6.8c0,2.7,1,5,3,6.9c2,1.9,4.3,2.9,7.1,2.9
			c2.7,0,5-1,6.9-3c1.9-2,2.9-4.3,2.9-6.8c0,2.6,1,4.8,3,6.8c2,2,4.3,3,6.8,3c-2.7,0-5,1-6.9,3c-1.9,2-2.9,4.3-2.9,7.1
			c0,2.6-1,4.8-2.9,6.8c-1.9,2-4.2,3-6.9,3c-2.7,0-5.1-1-7.1-2.9c-2-1.9-3-4.2-3-6.9c0,2.6-1,4.8-2.9,6.8c-1.9,2-4.2,3-6.9,3
			C485.7,119.5,483.3,118.6,481.3,116.7z"/>
		<path class="st1" d="M581,17c2,1.9,4.3,2.9,7.1,2.9c-2.7,0-5.1,1-7.1,3c-2,2-3,4.3-3,7.1c0,2.7,1,5.1,3,7.1c2,2,4.3,3,7.1,3
			c-2.7,0-5.1,1-7.1,2.9c-2,1.9-3,4.2-3,6.9c0,2.7,1,5.1,3,7.1c2,2,4.3,3,7.1,3c-2.7,0-5.1,1-7.1,3c-2,2-3,4.3-3,7.1
			c0,2.7,1,5,3,6.9c2,1.9,4.3,2.9,7.1,2.9c-2.7,0-5.1,1-7.1,3c-2,2-3,4.3-3,7.1c0,2.7,1,5.1,3,7.1c2,2,4.3,3,7.1,3
			c-2.7,0-5.1,1-7.1,2.9c-2,1.9-3,4.2-3,6.9c0,2.7-1,5.1-3,7.1c-2,2-4.3,3-7.1,3c-2.7,0-5-1-6.9-3c-1.9-2-2.9-4.3-2.9-7.1
			c0-2.7,1-5,2.9-6.9s4.2-2.9,6.9-2.9c-2.7,0-5-1-6.9-3c-1.9-2-2.9-4.3-2.9-7.1c0-2.7,1-5.1,2.9-7.1c1.9-2,4.2-3,6.9-3
			c-2.7,0-5-1-6.9-2.9s-2.9-4.2-2.9-6.9c0-2.7,1-5.1,2.9-7.1c1.9-2,4.2-3,6.9-3c-2.7,0-5-1-6.9-3c-1.9-2-2.9-4.3-2.9-7.1
			c0-2.7,1-5,2.9-6.9c1.9-1.9,4.2-2.9,6.9-2.9c-2.7,0-5-1-6.9-3c-1.9-2-2.9-4.3-2.9-7.1c0-2.7,1-5.1,2.9-7.1c1.9-2,4.2-3,6.9-3
			c-2.7,0-5-1-6.9-2.9c-1.9-1.9-2.9-4.2-2.9-6.9c0-2.7,1-5.1,2.9-7.1c1.9-2,4.2-3,6.9-3c2.7,0,5.1,1,7.1,3c2,2,3,4.3,3,7.1
			C578,12.8,579,15.1,581,17z M620.8,102.6c1.9-1.9,4.2-2.9,6.9-2.9c-2.7,0-5-1-6.9-3c-1.9-2-2.9-4.3-2.9-7.1c0-2.7,1-5.1,2.9-7.1
			c1.9-2,4.2-3,6.9-3c-2.7,0-5-1-6.9-2.9c-1.9-1.9-2.9-4.2-2.9-6.9c0-2.7,1-5.1,2.9-7.1c1.9-2,4.2-3,6.9-3c-2.7,0-5-1-6.9-3
			c-1.9-2-2.9-4.3-2.9-7.1c0-2.7,1-5,2.9-6.9c1.9-1.9,4.2-2.9,6.9-2.9c-2.7,0-5-1-6.9-3c-1.9-2-2.9-4.3-2.9-7.1c0-2.7-1-5.1-3-7.1
			c-2-2-4.3-3-7.1-3c-2.7,0-5.1,1-7.1,3c-2,2-3,4.3-3,7.1c0-2.7-1-5.1-2.9-7.1c-1.9-2-4.2-3-6.9-3c2.7,0,5-1,6.9-2.9
			c1.9-1.9,2.9-4.2,2.9-6.9c0-2.7,1-5.1,3-7.1c2-2,4.3-3,7.1-3c2.7,0,5.1,1,7.1,3c2,2,3,4.3,3,7.1c0,2.7,1,5,2.9,6.9
			c1.9,1.9,4.2,2.9,6.9,2.9c2.7,0,5.1-1,7.1-2.9c2-1.9,3-4.2,3-6.9c0-2.7,1-5.1,3-7.1c2-2,4.3-3,7.1-3c2.7,0,5,1,6.9,3
			c1.9,2,2.9,4.3,2.9,7.1c0-2.7,1-5.1,3-7.1c2-2,4.3-3,7.1-3c2.7,0,5.1,1,7.1,3c2,2,3,4.3,3,7.1c0,2.7,1,5,2.9,6.9
			c1.9,1.9,4.2,2.9,6.9,2.9c2.7,0,5.1,1,7.1,3c2,2,3,4.3,3,7.1c0,2.7-1,5.1-3,7.1c-2,2-4.3,3-7.1,3c2.7,0,5.1,1,7.1,2.9
			c2,1.9,3,4.2,3,6.9c0,2.7-1,5.1-3,7.1c-2,2-4.3,3-7.1,3c2.7,0,5.1,1,7.1,3c2,2,3,4.3,3,7.1c0,2.7-1,5-3,6.9
			c-2,1.9-4.3,2.9-7.1,2.9c2.7,0,5.1,1,7.1,3c2,2,3,4.3,3,7.1c0,2.7-1,5.1-3,7.1c-2,2-4.3,3-7.1,3c2.7,0,5.1,1,7.1,2.9
			c2,1.9,3,4.2,3,6.9c0,2.7-1,5.1-3,7.1c-2,2-4.3,3-7.1,3c-2.7,0-5-1-6.9-3c-1.9-2-2.9-4.3-2.9-7.1c0-2.7-1-5-3-6.9
			c-2-1.9-4.3-2.9-7.1-2.9c2.7,0,5.1-1,7.1-3c2-2,3-4.3,3-7.1c0-2.7-1-5.1-3-7.1c-2-2-4.3-3-7.1-3c2.7,0,5.1-1,7.1-2.9
			c2-1.9,3-4.2,3-6.9c0-2.7-1-5.1-3-7.1c-2-2-4.3-3-7.1-3c2.7,0,5.1-1,7.1-3c2-2,3-4.3,3-7.1c0-2.7-1-5-3-6.9
			c-2-1.9-4.3-2.9-7.1-2.9c2.7,0,5.1-1,7.1-3c2-2,3-4.3,3-7.1c0-2.7-1-5.1-3-7.1c-2-2-4.3-3-7.1-3c-2.7,0-5.1,1-7.1,3
			c-2,2-3,4.3-3,7.1c0-2.7-1-5.1-2.9-7.1c-1.9-2-4.2-3-6.9-3c-2.7,0-5.1,1-7.1,3c-2,2-3,4.3-3,7.1c0,2.7,1,5.1,3,7.1
			c2,2,4.3,3,7.1,3c-2.7,0-5.1,1-7.1,2.9c-2,1.9-3,4.2-3,6.9c0,2.7,1,5.1,3,7.1c2,2,4.3,3,7.1,3c-2.7,0-5.1,1-7.1,3
			c-2,2-3,4.3-3,7.1c0,2.7,1,5,3,6.9c2,1.9,4.3,2.9,7.1,2.9c-2.7,0-5.1,1-7.1,3c-2,2-3,4.3-3,7.1c0,2.7,1,5.1,3,7.1c2,2,4.3,3,7.1,3
			c-2.7,0-5.1,1-7.1,2.9c-2,1.9-3,4.2-3,6.9c0,2.7-1,5.1-3,7.1c-2,2-4.3,3-7.1,3c-2.7,0-5-1-6.9-3c-1.9-2-2.9-4.3-2.9-7.1
			C617.9,106.8,618.9,104.5,620.8,102.6z"/>
		<path class="st1" d="M720.4,17c2,1.9,4.3,2.9,7.1,2.9c-2.7,0-5.1,1-7.1,3c-2,2-3,4.3-3,7.1c0,2.7,1,5.1,3,7.1c2,2,4.3,3,7.1,3
			c-2.7,0-5.1,1-7.1,2.9c-2,1.9-3,4.2-3,6.9c0,2.7,1,5.1,3,7.1c2,2,4.3,3,7.1,3c-2.7,0-5.1,1-7.1,3c-2,2-3,4.3-3,7.1
			c0,2.7,1,5,3,6.9c2,1.9,4.3,2.9,7.1,2.9c-2.7,0-5.1,1-7.1,3c-2,2-3,4.3-3,7.1c0,2.7,1,5.1,3,7.1c2,2,4.3,3,7.1,3
			c-2.7,0-5.1,1-7.1,2.9c-2,1.9-3,4.2-3,6.9c0,2.7-1,5.1-3,7.1c-2,2-4.3,3-7.1,3c-2.7,0-5-1-6.9-3c-1.9-2-2.9-4.3-2.9-7.1
			c0-2.7,1-5,2.9-6.9c1.9-1.9,4.2-2.9,6.9-2.9c-2.7,0-5-1-6.9-3c-1.9-2-2.9-4.3-2.9-7.1c0-2.7,1-5.1,2.9-7.1c1.9-2,4.2-3,6.9-3
			c-2.7,0-5-1-6.9-2.9c-1.9-1.9-2.9-4.2-2.9-6.9c0-2.7,1-5.1,2.9-7.1c1.9-2,4.2-3,6.9-3c-2.7,0-5-1-6.9-3c-1.9-2-2.9-4.3-2.9-7.1
			c0-2.7,1-5,2.9-6.9c1.9-1.9,4.2-2.9,6.9-2.9c-2.7,0-5-1-6.9-3c-1.9-2-2.9-4.3-2.9-7.1c0-2.7,1-5.1,2.9-7.1c1.9-2,4.2-3,6.9-3
			c-2.7,0-5-1-6.9-2.9c-1.9-1.9-2.9-4.2-2.9-6.9c0-2.7,1-5.1,2.9-7.1c1.9-2,4.2-3,6.9-3c2.7,0,5.1,1,7.1,3c2,2,3,4.3,3,7.1
			C717.4,12.8,718.4,15.1,720.4,17z M760.2,102.6c1.9-1.9,4.2-2.9,6.9-2.9c-2.7,0-5-1-6.9-3c-1.9-2-2.9-4.3-2.9-7.1
			c0-2.7,1-5.1,2.9-7.1c1.9-2,4.2-3,6.9-3c-2.7,0-5-1-6.9-2.9c-1.9-1.9-2.9-4.2-2.9-6.9c0-2.7,1-5.1,2.9-7.1c1.9-2,4.2-3,6.9-3
			c-2.7,0-5-1-6.9-3c-1.9-2-2.9-4.3-2.9-7.1c0-2.7,1-5,2.9-6.9c1.9-1.9,4.2-2.9,6.9-2.9c-2.7,0-5-1-6.9-3c-1.9-2-2.9-4.3-2.9-7.1
			c0-2.7-1-5.1-3-7.1c-2-2-4.3-3-7.1-3c-2.7,0-5.1,1-7.1,3c-2,2-3,4.3-3,7.1c0-2.7-1-5.1-2.9-7.1c-1.9-2-4.2-3-6.9-3
			c2.7,0,5-1,6.9-2.9c1.9-1.9,2.9-4.2,2.9-6.9c0-2.7,1-5.1,3-7.1c2-2,4.3-3,7.1-3c2.7,0,5.1,1,7.1,3c2,2,3,4.3,3,7.1
			c0,2.7,1,5,2.9,6.9c1.9,1.9,4.2,2.9,6.9,2.9c2.7,0,5.1-1,7.1-2.9c2-1.9,3-4.2,3-6.9c0-2.7,1-5.1,3-7.1c2-2,4.3-3,7.1-3
			c2.7,0,5,1,6.9,3C796,5,797,7.3,797,10c0-2.7,1-5.1,3-7.1c2-2,4.3-3,7.1-3c2.7,0,5.1,1,7.1,3c2,2,3,4.3,3,7.1c0,2.7,1,5,2.9,6.9
			c1.9,1.9,4.2,2.9,6.9,2.9c2.7,0,5.1,1,7.1,3c2,2,3,4.3,3,7.1c0,2.7-1,5.1-3,7.1c-2,2-4.3,3-7.1,3c2.7,0,5.1,1,7.1,2.9
			c2,1.9,3,4.2,3,6.9c0,2.7-1,5.1-3,7.1c-2,2-4.3,3-7.1,3c2.7,0,5.1,1,7.1,3c2,2,3,4.3,3,7.1c0,2.7-1,5-3,6.9
			c-2,1.9-4.3,2.9-7.1,2.9c2.7,0,5.1,1,7.1,3c2,2,3,4.3,3,7.1c0,2.7-1,5.1-3,7.1c-2,2-4.3,3-7.1,3c2.7,0,5.1,1,7.1,2.9
			c2,1.9,3,4.2,3,6.9c0,2.7-1,5.1-3,7.1c-2,2-4.3,3-7.1,3c-2.7,0-5-1-6.9-3c-1.9-2-2.9-4.3-2.9-7.1c0-2.7-1-5-3-6.9
			c-2-1.9-4.3-2.9-7.1-2.9c2.7,0,5.1-1,7.1-3c2-2,3-4.3,3-7.1c0-2.7-1-5.1-3-7.1c-2-2-4.3-3-7.1-3c2.7,0,5.1-1,7.1-2.9
			c2-1.9,3-4.2,3-6.9c0-2.7-1-5.1-3-7.1c-2-2-4.3-3-7.1-3c2.7,0,5.1-1,7.1-3c2-2,3-4.3,3-7.1c0-2.7-1-5-3-6.9
			c-2-1.9-4.3-2.9-7.1-2.9c2.7,0,5.1-1,7.1-3c2-2,3-4.3,3-7.1c0-2.7-1-5.1-3-7.1c-2-2-4.3-3-7.1-3c-2.7,0-5.1,1-7.1,3
			c-2,2-3,4.3-3,7.1c0-2.7-1-5.1-2.9-7.1c-1.9-2-4.2-3-6.9-3c-2.7,0-5.1,1-7.1,3c-2,2-3,4.3-3,7.1c0,2.7,1,5.1,3,7.1
			c2,2,4.3,3,7.1,3c-2.7,0-5.1,1-7.1,2.9c-2,1.9-3,4.2-3,6.9c0,2.7,1,5.1,3,7.1c2,2,4.3,3,7.1,3c-2.7,0-5.1,1-7.1,3
			c-2,2-3,4.3-3,7.1c0,2.7,1,5,3,6.9c2,1.9,4.3,2.9,7.1,2.9c-2.7,0-5.1,1-7.1,3c-2,2-3,4.3-3,7.1c0,2.7,1,5.1,3,7.1c2,2,4.3,3,7.1,3
			c-2.7,0-5.1,1-7.1,2.9c-2,1.9-3,4.2-3,6.9c0,2.7-1,5.1-3,7.1c-2,2-4.3,3-7.1,3c-2.7,0-5-1-6.9-3c-1.9-2-2.9-4.3-2.9-7.1
			C757.3,106.8,758.3,104.5,760.2,102.6z"/>
		<path class="st1" d="M839.9,82.6c2-2,4.3-3,7.1-3c-2.7,0-5.1-1-7.1-2.9c-2-1.9-3-4.2-3-6.9c0-2.7,1-5.1,3-7.1c2-2,4.3-3,7.1-3
			c-2.7,0-5.1-1-7.1-3c-2-2-3-4.3-3-7.1c0-2.7,1-5,3-6.9c2-1.9,4.3-2.9,7.1-2.9c-2.7,0-5.1-1-7.1-3c-2-2-3-4.3-3-7.1
			c0-2.7,1-5.1,3-7.1c2-2,4.3-3,7.1-3c2.7,0,5-1,6.9-2.9c1.9-1.9,2.9-4.2,2.9-6.9c0-2.7,1-5.1,3-7.1c2-2,4.3-3,7.1-3
			c2.7,0,5.1,1,7.1,3c2,2,3,4.3,3,7.1c0-2.7,1-5.1,2.9-7.1c1.9-2,4.2-3,6.9-3c2.7,0,5.1,1,7.1,3c2,2,3,4.3,3,7.1c0-2.7,1-5.1,3-7.1
			c2-2,4.3-3,7.1-3c2.7,0,5,1,6.9,3c1.9,2,2.9,4.3,2.9,7.1c0,2.7,1,5,3,6.9c2,1.9,4.3,2.9,7.1,2.9c2.7,0,5.1,1,7.1,3
			c2,2,3,4.3,3,7.1c0,2.7-1,5.1-3,7.1c-2,2-4.3,3-7.1,3c-2.7,0-5.1,1-7.1,2.9c-2,1.9-3,4.2-3,6.9c0,2.7-1,5.1-2.9,7.1
			c-1.9,2-4.2,3-6.9,3c-2.7,0-5.1,1-7.1,3c-2,2-3,4.3-3,7.1c0-2.7-1-5.1-3-7.1c-2-2-4.3-3-7.1-3c-2.7,0-5,1-6.9,3
			c-1.9,2-2.9,4.3-2.9,7.1c0-2.7-1-5.1-3-7.1c-2-2-4.3-3-7.1-3c2.7,0,5.1-1,7.1-3c2-2,3-4.3,3-7.1c0-2.7,1-5,2.9-6.9
			c1.9-1.9,4.2-2.9,6.9-2.9c2.7,0,5.1,1,7.1,2.9c2,1.9,3,4.2,3,6.9c0-2.7,1-5,3-6.9c2-1.9,4.3-2.9,7.1-2.9c2.7,0,5-1,6.9-3
			c1.9-2,2.9-4.3,2.9-7.1c0-2.7-1-5.1-2.9-7.1c-1.9-2-4.2-3-6.9-3c-2.7,0-5.1,1-7.1,3c-2,2-3,4.3-3,7.1c0-2.7-1-5.1-3-7.1
			c-2-2-4.3-3-7.1-3c-2.7,0-5,1-6.9,3c-1.9,2-2.9,4.3-2.9,7.1c0-2.7-1-5.1-3-7.1c-2-2-4.3-3-7.1-3c-2.7,0-5.1,1-7.1,3
			c-2,2-3,4.3-3,7.1c0,2.7,1,5.1,3,7.1c2,2,4.3,3,7.1,3c-2.7,0-5.1,1-7.1,2.9c-2,1.9-3,4.2-3,6.9c0,2.7,1,5.1,3,7.1c2,2,4.3,3,7.1,3
			c-2.7,0-5.1,1-7.1,3c-2,2-3,4.3-3,7.1c0,2.7,1,5,3,6.9c2,1.9,4.3,2.9,7.1,2.9c-2.7,0-5.1,1-7.1,3c-2,2-3,4.3-3,7.1
			c0,2.7,1,5.1,3,7.1c2,2,4.3,3,7.1,3c2.7,0,5.1-1,7.1-3c2-2,3-4.3,3-7.1c0,2.7,1,5.1,2.9,7.1c1.9,2,4.2,3,6.9,3c2.7,0,5.1-1,7.1-3
			c2-2,3-4.3,3-7.1c0,2.7,1,5.1,3,7.1c2,2,4.3,3,7.1,3c2.7,0,5-1,6.9-3c1.9-2,2.9-4.3,2.9-7.1c0-2.7,1-5.1,3-7.1c2-2,4.3-3,7.1-3
			c2.7,0,5.1,1,7.1,3c2,2,3,4.3,3,7.1c0,2.7-1,5.1-3,7.1c-2,2-4.3,3-7.1,3c-2.7,0-5.1,1-7.1,2.9c-2,1.9-3,4.2-3,6.9
			c0,2.7-1,5.1-2.9,7.1c-1.9,2-4.2,3-6.9,3c-2.7,0-5.1-1-7.1-3c-2-2-3-4.3-3-7.1c0,2.7-1,5.1-3,7.1c-2,2-4.3,3-7.1,3
			c-2.7,0-5-1-6.9-3c-1.9-2-2.9-4.3-2.9-7.1c0,2.7-1,5.1-3,7.1c-2,2-4.3,3-7.1,3c-2.7,0-5.1-1-7.1-3c-2-2-3-4.3-3-7.1
			c0-2.7-1-5-2.9-6.9s-4.2-2.9-6.9-2.9c-2.7,0-5.1-1-7.1-3c-2-2-3-4.3-3-7.1C836.9,86.9,837.9,84.6,839.9,82.6z"/>
	</g>
</g>
</svg>
