<?xml version="1.0" encoding="UTF-8"?><svg id="Layer_2" xmlns="http://www.w3.org/2000/svg" viewBox="0 0 1841.63 146.74"><defs><style>.cls-1{fill:#f9e1ce;}</style></defs><g id="Layer_1-2"><g><path class="cls-1" d="M0,39.07c0-.56,.19-1.31,.56-2.06C8.6,18.69,20.19,9.53,35.71,9.53c7.1,0,14.77,2.06,22.81,6.36,2.8,1.5,4.86,2.24,6.54,2.24,1.31,0,3.18-.75,5.42-2.24,7.29-5.05,15.14-6.73,22.62-6.73,8.41,0,22.81,1.87,22.81,7.85,0,2.99-2.43,4.67-4.67,4.67-.56,0-1.12,0-1.31-.19-5.79-1.5-11.4-2.8-17.2-2.8s-11.59,1.31-17.01,5.05c-3.18,2.06-5.98,3.37-8.6,3.74,1.31,1.12,2.06,2.43,2.06,4.11-.19,2.8-.37,5.61-.37,8.41v8.41c0,5.79,.19,11.59,.37,17.38,.19,5.79,.37,11.78,.37,17.76,0,14.21-.56,28.23-3.36,42.43,0,.19,0,.37-.19,.56,5.05,.56,10.09,1.5,14.77,2.43,4.67,1.12,9.53,1.87,14.21,2.43,2.8,.56,4.11,2.43,4.11,5.23,0,2.99-2.43,4.11-5.23,4.11-6.17-.56-12.52-1.68-18.69-3.18-6.17-1.5-12.34-2.24-18.51-2.24-6.73,0-13.46,1.12-20,4.86-.75,.37-1.5,.56-2.24,.56-2.8,0-4.67-1.68-4.67-4.49,0-8.22,20.94-10.28,27.29-10.28-.19-.19-.19-.37-.19-.75s0-.75,.19-.93c2.43-13.46,3.18-27.11,3.18-40.75,0-5.98-.19-11.78-.37-17.57-.19-5.79-.37-11.59-.37-17.57,0-6.92-.94-19.25,2.43-21.12-2.8-.56-5.23-1.68-7.66-2.99-6.92-3.55-13.27-5.42-18.69-5.42-11.22,0-20,7.29-26.54,22.06-.93,1.87-2.43,2.8-4.3,2.8-2.43,0-4.67-2.24-4.67-4.67Z"/><path class="cls-1" d="M135.53,136.65c-.37-.37-.56-.75-.75-1.12h-1.12c-.56,0-1.31-.19-2.24-.56-6.73-3.74-8.04-9.53-8.04-14.77,0-1.31,0-2.43,.19-3.55v-10.28c0-7.29,.19-14.58,.37-21.68,.19-7.1,.37-14.21,.37-21.5,0-13.65-.56-27.29-3.36-40.75-.19-1.31-.37-2.06-.37-2.99,0-5.8,5.05-9.91,5.79-14.58,0-2.8,2.06-4.3,4.86-4.3s4.49,2.06,4.49,4.86c0,5.98-5.79,11.03-5.79,14.21,0,.56,0,.75,.19,.93,2.8,13.46,3.55,26.54,3.55,40v4.86c7.29-3.93,16.08-8.04,25.98-8.04,5.61,0,22.81,3.55,22.81,10.09v13.65c0,15.14,0,29.35,2.99,43.56v.19c5.61,1.5,16.26,10.09,16.26,14.21,0,2.43-2.62,4.86-4.86,4.86-1.12,0-2.24-.56-3.18-1.5l-.37-.56c-5.05-5.05-8.23-8.23-12.9-8.23-2.62,0-5.61,1.12-8.97,3.18l-.93,.56c-4.86,2.99-11.96,7.29-19.44,7.29-5.05,0-10.47-2.06-15.52-8.04Zm37.57-66.17c-4.3-2.43-8.97-3.55-13.65-3.55-6.54,0-14.39,2.62-23.37,7.85-.93,.56-1.68,.75-2.62,.75-.37,4.49-.56,9.16-.56,13.83v14.02c0,1.31,0,2.8,.19,4.11v4.3c0,1.5,0,2.99-.19,4.67-.19,1.68-.19,2.99-.19,4.11,0,3.18,.56,4.86,3.37,6.36,.93,.56,1.68,1.31,2.06,2.24,.37-.19,.93-.19,1.5-.19,2.8,0,8.04,6.36,11.78,6.36s8.23-2.24,14.02-5.79l1.12-.56c2.99-2.06,5.98-3.37,8.97-4.11-2.43-14.96-2.43-29.54-2.43-43.74v-10.66Z"/><path class="cls-1" d="M218.52,83.19c-2.8,7.67-3.36,15.52-3.36,19.82,0,13.65,4.11,27.29,21.31,27.29,7.29,0,15.89-2.43,25.8-7.48,.56-.37,1.12-.56,1.87-.56,2.06,0,4.67,1.87,4.67,4.67,0,7.48-25.8,12.34-32.34,12.34-16.08,0-30.1-8.41-30.1-36.27,0-13.46,4.3-36.64,22.99-45.8,2.99-1.5,6.17-2.24,9.53-2.24,11.4,0,20.56,8.22,24.12,19.63,.19,0,.37,0,.56-.19h.56c2.24,.56,4.49,1.87,4.49,5.05,0,5.42-10.66,4.49-17.38,5.61-5.05,.75-10.28,1.5-15.52,1.5-.93,0-17.2-.93-17.2-3.37Zm20.38-19.07c-7.29,0-12.71,5.98-16.26,11.03,3.92,2.06,8.22,2.43,12.52,2.43,5.05,0,9.72-.75,14.96-1.5l3.92-.56c-2.06-4.49-5.05-7.85-8.97-10.09-2.24-.75-4.11-1.31-6.17-1.31Z"/><path class="cls-1" d="M270.67,137.96c0-5.98,18.13-10.28,26.17-12.15v-55.52c0-7.66,11.4-9.16,17.76-9.16,3.93,0,8.23,.93,12.71,2.8,1.87,0,3.93,.56,5.98,1.5,2.06,1.12,3.92,1.68,5.23,1.68,2.8,0,6.73-5.98,8.79-5.98,1.5,0,3.93,2.24,3.93,5.05,0,7.85-8.97,11.59-13.27,11.59-5.05,0-9.72-2.43-12.71-4.11-3.92-1.31-7.48-2.06-10.66-2.06-3.36,0-6.73,.75-10.09,2.06v50.66c.75-.19,1.5-.19,2.43-.19h2.24c6.73,0,23.55,3.74,23.55,11.4,0,2.99-2.99,4.86-5.79,4.86-1.5,0-2.8-.37-3.74-1.31-4.67-2.99-9.35-4.49-14.39-4.49-4.3,0-8.97,.94-13.83,2.8s-10.47,3.55-17.01,5.23c0,.37-.56,.56-1.5,.56-2.8,0-5.79-1.68-5.79-5.23Z"/><path class="cls-1" d="M367.13,83.19c-2.8,7.67-3.36,15.52-3.36,19.82,0,13.65,4.11,27.29,21.31,27.29,7.29,0,15.89-2.43,25.8-7.48,.56-.37,1.12-.56,1.87-.56,2.06,0,4.67,1.87,4.67,4.67,0,7.48-25.8,12.34-32.34,12.34-16.08,0-30.1-8.41-30.1-36.27,0-13.46,4.3-36.64,22.99-45.8,2.99-1.5,6.17-2.24,9.53-2.24,11.4,0,20.56,8.22,24.12,19.63,.19,0,.37,0,.56-.19h.56c2.24,.56,4.49,1.87,4.49,5.05,0,5.42-10.66,4.49-17.38,5.61-5.05,.75-10.28,1.5-15.52,1.5-.93,0-17.2-.93-17.2-3.37Zm20.38-19.07c-7.29,0-12.71,5.98-16.26,11.03,3.92,2.06,8.22,2.43,12.52,2.43,5.05,0,9.72-.75,14.96-1.5l3.92-.56c-2.06-4.49-5.05-7.85-8.97-10.09-2.24-.75-4.11-1.31-6.17-1.31Z"/><path class="cls-1" d="M460.41,135.15c0-1.31,.56-2.62,1.68-3.74,6.54-8.41,11.03-19.25,14.96-28.79l3.18-7.66c2.99-5.23,4.3-10.09,4.3-13.09,0-1.31-.37-2.8-1.12-4.11-5.8,3.18-9.91,12.15-15.14,12.15-2.99,0-5.23-2.24-5.23-4.67,0-1.31,.37-2.24,1.31-2.99,4.3-7.66,10.66-13.08,19.07-16.26,.75-.37,1.5-.56,2.06-.56,6.73,0,10.28,11.59,10.28,16.08,0,2.24-.37,4.11-.93,6.17,3.93-1.87,6.36-11.03,10.84-11.03,3.55,0,5.23,2.62,5.23,5.42,0,10.66-11.96,17.2-20.75,17.2l-2.24,7.29c-4.86,10.84-14.58,33.65-21.68,33.65-3.55,0-5.79-2.99-5.79-5.05Zm42.43,.19c0-1.87,.75-4.11,2.06-6.92,1.31-2.62,2.24-5.23,3.18-7.67,8.79-14.96,16.45-29.72,19.44-47.48v-.93c0-1.5-6.36-2.43-6.36-6.36,0-3.18,3.18-5.42,5.23-5.42,10.09,0,12.15,5.79,12.15,14.96-.75,3.55-1.5,6.73-2.43,9.53,2.06-1.31,3.92-3.18,5.98-5.79,2.06-2.62,5.05-5.79,8.97-9.35l1.31-.75c3.18-3.18,8.23-7.1,14.21-7.1,7.1,0,13.46,5.79,13.46,11.22,0,3.18-.56,5.42-1.5,7.1s-1.5,2.99-1.5,3.55,0,.93,.19,1.31v1.5c0,1.68-9.91,17.57-11.96,21.12-3.55,6.17-6.17,12.34-8.41,18.13,3.74,0,6.92-2.8,9.35-10.47,1.31-2.43,3.18-3.55,5.8-3.55,3.55,0,5.61,2.24,5.61,5.42,0,.93-.19,1.68-.56,2.43-4.3,11.59-11.03,17.38-20.19,17.38-8.41,0-11.96-3.93-11.96-7.85,1.68-8.97,5.23-15.7,8.97-22.43,2.8-5.23,8.04-14.39,10.28-20.56,0-.56,.19-.94,.75-1.12,.37-.19,.75-.56,1.31-1.12,0-2.43,.56-4.67,1.87-6.36,1.12-1.68,1.68-3.18,1.68-4.49-1.31-.19-2.06-.37-2.62-.37-2.24,0-4.49,1.12-8.23,4.86h-1.31c-8.23,8.23-11.03,18.88-25.8,19.44-3.93,9.91-8.97,18.88-14.02,28.04-3.74,6.92-1.5,14.96-9.72,14.96-4.3,0-5.23-2.06-5.23-4.86Z"/><path class="cls-1" d="M590.33,87.49c0-.93,.19-1.5,.37-2.06,3.93-10.09,10.28-15.14,19.07-15.14h1.5c.56,0,.93,0,1.5,.19,1.68-3.55,3.74-5.23,6.17-5.23,3.18,0,5.42,2.62,5.42,5.42,0,.93-.37,2.06-.93,2.99-4.86,7.66-16.08,37.95-19.82,50.47,5.61-2.06,10.09-5.61,13.46-11.03,3.93-6.17,9.53-6.36,13.83-6.36,5.98-19.07,15.33-24.12,17.57-43.18,.19-3.18,2.06-4.67,5.23-4.67,3.55,0,5.61,2.8,5.61,5.98-2.43,17.76-19.82,43.18-19.82,54.77,0,1.12,0,2.06,.19,2.62,4.11-2.99,13.65-9.16,16.82-9.16,2.8,0,5.23,2.24,5.23,5.42,0,2.06-.75,3.74-2.8,4.67-8.41,4.67-18.13,10.28-25.8,18.32-.93,1.12-2.24,1.68-3.74,1.68-3.55,0-5.42-2.43-5.42-5.23,0-2.99,3.37-5.98,6.17-8.41-1.31-3.18-1.31-7.29-1.31-10.09v-2.06c-1.31,.19-2.24,.56-2.8,1.5-7.66,11.96-19.63,17.95-35.52,17.95-3.55,0-6.73-1.68-6.73-5.61s2.8-5.23,7.1-5.23h1.31c2.24-10.84,10.09-31.22,15.7-44.86-2.8,.75-5.05,2.99-7.1,8.41-.93,2.24-2.62,3.36-5.05,3.36-3.18,0-5.42-2.62-5.42-5.42Z"/><path class="cls-1" d="M660.8,118.89c.93-2.43,3.37-5.23,6.36-5.23,3.18,0,5.05,2.8,5.05,6.36,0,8.97,4.3,11.59,10.09,11.59,8.04,0,10.28-9.72,10.28-15.14,0-7.48-4.86-14.58-7.1-22.81-.93-3.18-1.87-6.54-2.99-9.91-1.31-3.18-1.87-6.17-1.87-8.97,0-11.03,10.84-20.19,21.68-20.19,5.79,0,10.09,2.06,12.9,6.36,1.31,2.06,1.68,1.87,4.49,1.87h1.87c2.06,0,4.3,1.87,4.3,4.67s-1.5,6.92-5.05,6.92h-2.06c-3.55,0-7.66-1.12-12.34-6.36-.56-.56-1.87-2.24-4.3-2.24-2.99,0-10.47,4.3-10.47,8.97,0,9.72,12.34,28.42,12.34,42.06,0,12.15-8.04,25.98-22.06,25.98-14.77,0-21.12-8.97-21.12-23.93Z"/><path class="cls-1" d="M730.34,126.55c-2.06,4.3-5.23,6.92-6.92,8.23l-1.68,1.31c-5.05,3.93-1.12,8.04-7.48,8.04-3.55,0-5.23-2.62-5.23-5.79,0-5.79,3.74-8.6,6.17-10.66l1.12-1.12c1.68-1.31,5.42-4.67,5.42-7.85-.19-.56-.19-1.31-.19-1.87v-1.87c0-11.96,5.23-21.68,10.28-30.47,.75-1.31,1.31-3.36,1.87-6.17,.37-2.62,1.12-5.42,2.06-8.22-.19-.19-.19-.75-.19-1.5s.19-1.5,.56-2.24c2.06-4.67,3.55-9.72,4.67-14.95,.93-5.23,2.06-10.47,3.18-15.7,.56-2.8,2.24-4.11,5.05-4.11,2.99,0,5.42,2.43,5.42,5.42,0,5.79-2.06,13.27-4.49,22.99,2.24,.19,4.3,.75,5.98,1.31,1.68,.75,2.8,1.12,3.36,1.12s1.12-.19,1.87-.75c.75-.37,1.5-.56,2.24-.56,2.99,0,5.42,2.24,5.42,5.23,0,4.67-5.61,6.92-9.35,6.92-2.43,0-4.86-.56-7.1-1.5s-3.74-1.31-4.3-1.31c-3.55,0-3.93,13.65-6.92,19.25-4.49,8.04-8.97,16.08-8.97,25.24v.56c6.36-3.74,7.67-9.16,15.7-9.16,2.8,0,5.42,2.24,5.42,5.23,0,5.05-5.05,4.86-9.53,8.79-2.99,2.8-7.29,6.17-13.27,6.17h-.19Z"/><path class="cls-1" d="M809.97,124.12c0-3.55,1.12-7.1,3.18-10.66,2.06-3.37,3.74-6.73,5.42-10.28,3.93-8.79,12.52-16.82,12.52-23.93,.19-10.66,3.18-19.44,6.36-27.85,2.62-6.54,7.48-18.13,9.16-25.42,.93-4.3,1.87-8.6,3.93-12.9l-8.22-2.43c-2.24-.56-3.93-2.62-3.93-5.05,0-3.55,2.43-5.61,5.23-5.61,.75,0,1.31,0,1.68,.19l12.71,3.55c.93-.56,1.5-.93,2.06-1.31,.56-.37,1.31-.56,2.24-.56,2.8,0,5.42,2.43,5.42,5.61,0,1.87-.75,3.36-2.24,4.49-8.41,5.98-6.73,18.13-11.96,29.16-4.67,9.72-9.35,20.19-10.84,31.4,8.41-2.24,14.96-12.9,24.49-12.9,7.29,0,13.83,4.67,13.83,17.95,0,4.67-.93,9.35-2.62,14.39-3.74,9.91-9.91,19.82-17.57,28.6-3.92,4.49-8.04,8.41-12.15,11.59-8.41,6.73-17.38,11.03-24.3,11.03-7.48,0-14.39-10.66-14.39-19.07Zm18.51-16.08c-2.43,4.49-7.48,12.71-7.48,16.08,0,1.87,1.68,7.85,4.11,7.85,8.6,0,20.75-10.28,28.6-20,3.18-3.92,5.98-7.85,8.41-11.96,4.86-8.04,7.85-16.45,7.85-23.18-.19-2.8-.56-4.67-1.12-5.23-.56-.56-.94-.93-1.31-.93-.94,0-2.24,.37-3.93,1.12-1.68,.93-3.93,2.24-6.36,4.3-4.3,3.55-8.79,7.67-15.7,7.67-1.87,8.6-8.6,15.7-13.09,24.3Z"/><path class="cls-1" d="M918.01,123.75h.19c-7.29,9.16-12.9,16.82-25.8,16.82-6.17,0-13.27-5.42-13.27-11.96,0-1.5,.37-2.8,1.31-3.74,.93-.94,1.31-2.43,1.31-4.3,0-.93,0-1.87-.19-2.99-.19-.93-.19-2.06-.19-3.18,0-3.18,.75-6.54,2.43-10.09,1.5-3.36,2.8-6.92,4.11-10.47,2.62-7.85,10.09-28.6,18.32-28.6,2.99,0,5.42,2.62,5.42,5.42,0,1.31-.56,2.62-1.5,3.93-5.05,5.05-7.67,11.4-10.47,18.32h.75c8.79,0,17.38-7.29,21.12-19.07,0-4.11-8.97-3.93-8.97-9.53,0-3.18,2.62-5.42,5.61-5.42,8.22,0,14.21,8.79,14.21,14.77,0,1.31-.19,2.62-.56,3.93-4.3,13.08-11.78,21.12-22.81,24.3l-1.68,.56c-.93,.19-2.06,.56-3.18,.75-1.31,.37-2.62,.56-3.93,.56s-2.62-.19-4.11-.56c-.56,1.87-1.5,3.74-2.43,5.42-.94,1.87-1.5,3.93-1.5,5.98,0,.93,0,2.06,.19,2.99,.19,.93,.19,2.06,.19,2.99,0,2.8-.37,5.61-1.87,8.41,.37,.37,.93,.56,1.5,.56,8.04,0,12.52-5.98,17.38-12.34v.19c.94-1.68,2.62-2.43,4.67-2.43,2.99,0,5.42,2.24,5.42,5.05,0,1.68-.56,2.8-1.68,3.74Z"/><path class="cls-1" d="M1024.19,117.21c0,13.09-8.79,24.49-19.25,24.49h-4.86c-15.14,0-24.3-6.92-27.48-20.94,0-2.8,1.31-4.3,4.49-5.98,2.8,0,5.98,1.31,5.98,4.49,1.5,9.16,6.92,13.83,16.08,13.83,6.36,0,13.83-3.18,16.08-13.83,0-10.84-5.05-14.21-14.96-18.69h-3.55c-9.72-3.93-19.44-8.79-20.75-24.12l-.19-.19c-.37-.37-.56-.75-.56-1.12,0-2.06,.56-2.99,1.87-2.99l.19-.19c9.16-8.41,9.16-14.77,23.55-14.77s18.88,7.29,21.68,17.76c0,3.18,0,4.67,1.5,6.73,0,3.18-.56,8.23-5.23,8.23-1.5,0-3.55-.93-3.55-3.37v-.19c-1.68-3.55-3.37-6.73-3.37-8.04v-.19c-3.36-10.47-.56-12.34-12.15-12.34-4.67,0-6.73,2.24-9.72,5.42l-1.87,2.06c0,.75-.37,1.5-.93,2.24-.75,.75-1.5,1.5-2.24,2.43l-.19,.37c1.68,8.23,8.41,11.03,14.96,13.46h3.55c11.78,4.86,20.94,10.28,20.94,25.42Z"/><path class="cls-1" d="M1037.27,125.81c-5.05-8.23-9.16-17.01-9.16-26.73,0-6.54,1.87-13.46,6.36-21.12,8.41-14.21,19.82-19.63,34.02-19.63,16.82,2.62,28.04,13.83,33.65,33.65v8.41q-2.99,2.8-2.99,5.61c0,19.63-8.41,30.84-25.24,33.83h-8.41c-9.16,0-20.38-3.93-28.23-14.02Zm1.5-26.92c0,13.27,11.22,31.22,23.93,31.22,2.43,0,5.23-.56,8.41-1.5,15.89,0,19.63-9.91,19.63-22.62v-11.4c-2.8-16.64-11.03-25.24-22.25-25.24h-2.99c-13.27,0-26.73,13.46-26.73,29.54Z"/><path class="cls-1" d="M1167.19,131.79c-1.5,5.23-20,6.73-24.49,6.73-17.57,0-23.55-11.96-23.55-38.32v-25.42c-2.24,.37-4.49,.56-6.54,.56-4.3,0-8.41-.56-8.41-5.61,.56-2.8,2.06-4.11,4.11-4.11h2.24c.75,.19,1.5,.19,2.24,.19,12.52,0,28.6-7.48,40.38-7.48,8.04,0,12.52,3.18,16.08,10.09,5.61,0,11.03-9.35,18.32-10.66,2.8-.56,5.23-.75,7.66-.75,12.52,0,23.74,6.54,23.74,22.25v3.92c0,5.98,.75,11.96,2.06,18.13s1.87,12.53,1.87,19.07c0,2.43-.19,5.05-.56,7.67,5.79,1.5,14.96,2.06,14.96,7.66,0,2.8-2.24,4.67-4.3,4.67h-.93c-4.67-2.06-14.39-4.49-20.19-4.49-3.93,0-7.67,.75-11.22,3.55-.93,.56-1.68,.94-2.62,.94-2.24,0-4.3-2.24-4.3-4.67,0-6.17,12.34-9.35,17.57-9.35h1.31c.37,.19,.75,.19,1.31,.19,.19-2.06,.37-4.11,.37-6.17,0-6.54-.56-13.08-1.87-19.81-1.31-6.73-1.87-13.65-1.87-20.56,0-8.97-6.17-13.83-15.7-13.83-4.3,0-7.29,.37-11.96,4.67-2.99,2.8-6.17,5.79-11.22,6.73,1.31,7.29,1.12,15.14,1.12,22.62,0,2.8,0,5.61-.19,8.41-.19,2.8-.37,5.42-.37,8.22,0,9.53,2.99,12.34,8.97,12.34,.93,0,2.06-.19,3.37-.56,1.12-.19,2.43-.37,3.74-.37,2.06,0,4.11,1.87,4.11,4.67,0,5.42-6.92,5.61-11.22,5.61-5.79,0-10.47-2.24-14.02-6.73Zm-2.99-22.81v-4.49c0-21.5,1.31-37.01-11.78-37.01-5.79,0-16.82,3.55-24.86,5.79v26.92c0,20.19,2.43,28.97,15.14,28.97,4.86,0,11.4-1.12,19.63-3.55,.19,0,.37,0,.56-.19h.56c.37,0,.75,.19,1.31,.37-.56-2.8-.93-5.42-.93-8.23v-2.06c0-.56,0-1.31,.19-2.06,.19-1.5,.19-2.99,.19-4.49Z"/><path class="cls-1" d="M1254.11,83.19c-2.8,7.67-3.36,15.52-3.36,19.82,0,13.65,4.11,27.29,21.31,27.29,7.29,0,15.89-2.43,25.8-7.48,.56-.37,1.12-.56,1.87-.56,2.06,0,4.67,1.87,4.67,4.67,0,7.48-25.8,12.34-32.34,12.34-16.08,0-30.1-8.41-30.1-36.27,0-13.46,4.3-36.64,22.99-45.8,2.99-1.5,6.17-2.24,9.53-2.24,11.4,0,20.56,8.22,24.12,19.63,.19,0,.37,0,.56-.19h.56c2.24,.56,4.49,1.87,4.49,5.05,0,5.42-10.66,4.49-17.38,5.61-5.05,.75-10.28,1.5-15.52,1.5-.93,0-17.2-.93-17.2-3.37Zm20.38-19.07c-7.29,0-12.71,5.98-16.26,11.03,3.92,2.06,8.22,2.43,12.52,2.43,5.05,0,9.72-.75,14.96-1.5l3.92-.56c-2.06-4.49-5.05-7.85-8.97-10.09-2.24-.75-4.11-1.31-6.17-1.31Z"/><path class="cls-1" d="M1362.34,135.15c0-1.31,.56-2.62,1.68-3.74,6.54-8.41,11.03-19.25,14.96-28.79l3.18-7.66c2.99-5.23,4.3-10.09,4.3-13.09,0-1.31-.37-2.8-1.12-4.11-5.8,3.18-9.91,12.15-15.14,12.15-2.99,0-5.23-2.24-5.23-4.67,0-1.31,.37-2.24,1.31-2.99,4.3-7.66,10.66-13.08,19.07-16.26,.75-.37,1.5-.56,2.06-.56,6.73,0,10.28,11.59,10.28,16.08,0,2.24-.37,4.11-.93,6.17,3.93-1.87,6.36-11.03,10.84-11.03,3.55,0,5.23,2.62,5.23,5.42,0,10.66-11.96,17.2-20.75,17.2l-2.24,7.29c-4.86,10.84-14.58,33.65-21.68,33.65-3.55,0-5.79-2.99-5.79-5.05Zm42.43,.19c0-1.87,.75-4.11,2.06-6.92,1.31-2.62,2.24-5.23,3.18-7.67,8.79-14.96,16.45-29.72,19.44-47.48v-.93c0-1.5-6.36-2.43-6.36-6.36,0-3.18,3.18-5.42,5.23-5.42,10.09,0,12.15,5.79,12.15,14.96-.75,3.55-1.5,6.73-2.43,9.53,2.06-1.31,3.92-3.18,5.98-5.79,2.06-2.62,5.05-5.79,8.97-9.35l1.31-.75c3.18-3.18,8.23-7.1,14.21-7.1,7.1,0,13.46,5.79,13.46,11.22,0,3.18-.56,5.42-1.5,7.1s-1.5,2.99-1.5,3.55,0,.93,.19,1.31v1.5c0,1.68-9.91,17.57-11.96,21.12-3.55,6.17-6.17,12.34-8.41,18.13,3.74,0,6.92-2.8,9.35-10.47,1.31-2.43,3.18-3.55,5.8-3.55,3.55,0,5.61,2.24,5.61,5.42,0,.93-.19,1.68-.56,2.43-4.3,11.59-11.03,17.38-20.19,17.38-8.41,0-11.96-3.93-11.96-7.85,1.68-8.97,5.23-15.7,8.97-22.43,2.8-5.23,8.04-14.39,10.28-20.56,0-.56,.19-.94,.75-1.12,.37-.19,.75-.56,1.31-1.12,0-2.43,.56-4.67,1.87-6.36,1.12-1.68,1.68-3.18,1.68-4.49-1.31-.19-2.06-.37-2.62-.37-2.24,0-4.49,1.12-8.23,4.86h-1.31c-8.23,8.23-11.03,18.88-25.8,19.44-3.93,9.91-8.97,18.88-14.02,28.04-3.74,6.92-1.5,14.96-9.72,14.96-4.3,0-5.23-2.06-5.23-4.86Z"/><path class="cls-1" d="M1490.2,136.46c0-1.31,.37-2.62,1.12-3.55-.19-.75-.19-1.5-.19-2.43v-2.24c0-17.38,11.78-21.68,17.2-38.13,.93-2.99,8.41-15.7,8.41-16.26,0-.93-.37-1.5-1.12-1.5-4.86,0-11.03,9.72-17.95,9.72-3.18,0-5.98-2.62-5.98-6.17,0-5.05,5.79-5.61,10.47-9.53,3.55-2.8,8.41-6.36,13.65-6.36,6.73,0,12.9,7.48,12.9,13.46,0,9.16-6.36,12.71-8.97,20.38-4.11,12.34-16.64,23.55-16.64,34.4,5.79-2.43,10.47-6.54,13.83-12.34,1.31-2.06,2.99-2.8,5.05-2.8,3.55,0,5.98,2.99,5.98,6.17,0,1.12-.19,2.06-.75,2.99-5.98,9.91-18.32,20-31.03,20-3.18,0-5.98-2.62-5.98-5.79Zm26.17-84.5h-2.43c-2.99-.75-3.93-3.74-3.93-7.29,.75-1.31,2.8-3.18,5.23-3.18,.19,0,.93,.19,1.87,.37h2.24c2.06,.75,3.74,1.5,5.79,1.5,1.12,0,2.06-.37,2.8-.94,.75-.56,1.5-.75,2.06-.75,2.24,0,4.67,4.11,4.67,5.79,0,3.18-5.23,6.73-10.28,6.73-2.99,0-5.98-.93-8.04-2.24Z"/><path class="cls-1" d="M1526.28,118.89c.93-2.43,3.37-5.23,6.36-5.23,3.18,0,5.05,2.8,5.05,6.36,0,8.97,4.3,11.59,10.09,11.59,8.04,0,10.28-9.72,10.28-15.14,0-7.48-4.86-14.58-7.1-22.81-.93-3.18-1.87-6.54-2.99-9.91-1.31-3.18-1.87-6.17-1.87-8.97,0-11.03,10.84-20.19,21.68-20.19,5.79,0,10.09,2.06,12.9,6.36,1.31,2.06,1.68,1.87,4.49,1.87h1.87c2.06,0,4.3,1.87,4.3,4.67s-1.5,6.92-5.05,6.92h-2.06c-3.55,0-7.66-1.12-12.34-6.36-.56-.56-1.87-2.24-4.3-2.24-2.99,0-10.47,4.3-10.47,8.97,0,9.72,12.34,28.42,12.34,42.06,0,12.15-8.04,25.98-22.06,25.98-14.77,0-21.12-8.97-21.12-23.93Z"/><path class="cls-1" d="M1595.82,126.55c-2.06,4.3-5.23,6.92-6.92,8.23l-1.68,1.31c-5.05,3.93-1.12,8.04-7.48,8.04-3.55,0-5.23-2.62-5.23-5.79,0-5.79,3.74-8.6,6.17-10.66l1.12-1.12c1.68-1.31,5.42-4.67,5.42-7.85-.19-.56-.19-1.31-.19-1.87v-1.87c0-11.96,5.23-21.68,10.28-30.47,.75-1.31,1.31-3.36,1.87-6.17,.37-2.62,1.12-5.42,2.06-8.22-.19-.19-.19-.75-.19-1.5s.19-1.5,.56-2.24c2.06-4.67,3.55-9.72,4.67-14.95,.93-5.23,2.06-10.47,3.18-15.7,.56-2.8,2.24-4.11,5.05-4.11,2.99,0,5.42,2.43,5.42,5.42,0,5.79-2.06,13.27-4.49,22.99,2.24,.19,4.3,.75,5.98,1.31,1.68,.75,2.8,1.12,3.36,1.12s1.12-.19,1.87-.75c.75-.37,1.5-.56,2.24-.56,2.99,0,5.42,2.24,5.42,5.23,0,4.67-5.61,6.92-9.35,6.92-2.43,0-4.86-.56-7.1-1.5s-3.74-1.31-4.3-1.31c-3.55,0-3.93,13.65-6.92,19.25-4.49,8.04-8.97,16.08-8.97,25.24v.56c6.36-3.74,7.67-9.16,15.7-9.16,2.8,0,5.42,2.24,5.42,5.23,0,5.05-5.05,4.86-9.53,8.79-2.99,2.8-7.29,6.17-13.27,6.17h-.19Z"/><path class="cls-1" d="M1663.68,138.14c0-4.3,.93-9.72,4.86-12.71v-4.11c0-14.39,15.52-28.23,18.88-43.18-3.36-1.31-6.36-2.06-9.16-2.06-10.28,0-16.45,6.92-23.74,19.44-5.42,8.79-14.77,19.63-14.77,27.11,0,2.06,.19,4.67,2.24,4.67,1.68,0,3.55-.37,5.42-1.12,1.87-.75,3.93-1.12,5.98-1.12,3.74,0,6.73,2.06,6.73,5.61,0,3.18-2.24,5.61-5.23,5.61-.19,0-.37,0-.56-.19h-.75c-1.5,0-3.18,.37-5.23,1.12-2.06,.93-4.49,1.31-7.29,1.31-6.54,0-12.34-5.05-12.34-15.89s8.97-20.38,16.26-32.71c9.53-16.26,18.51-24.86,33.27-24.86,2.99,0,7.85,.56,12.15,2.06,2.8-4.49,8.04-8.04,13.27-8.04,3.74,0,6.73,1.87,6.73,5.42,0,7.29-9.72,3.93-11.22,9.91-.56,8.79-3.74,15.7-7.48,22.43-2.99,5.23-8.79,14.21-11.22,20-.56,1.31-.93,2.99-.93,4.86v1.68h1.68c.37,.19,.94,.19,1.5,.19,4.11,0,5.23-7.48,10.28-7.48,3.55,0,5.42,2.62,5.42,5.42,0,7.85-9.91,13.08-15.89,13.08-1.31,0-2.62-.19-3.55-.37-1.12-.19-1.87-.37-2.43-.37-.93,0-1.5,.19-1.68,.37-.19,.37-.19,1.5-.19,3.18v1.68c0,.56,0,1.31,.19,1.87,0,3.18-2.43,5.79-5.61,5.79-5.05,0-5.61-4.11-5.61-8.6Z"/><path class="cls-1" d="M1700.12,135.9c0-5.42,4.49-12.15,6.92-18.32,1.31-3.55,2.8-7.29,4.3-10.28,1.68-5.42,3.93-11.78,10.09-16.08,.19-1.68,.75-3.55,1.68-5.8,.75-2.24,1.31-4.49,1.68-6.73,.56-3.74,.93-7.29,2.43-11.22,5.98-15.14,11.96-30.28,18.51-45.8,.93-1.87,1.31-3.18,1.31-4.11-7.29-2.99-17.2,.75-17.2-7.1,0-4.3,3.93-5.23,7.66-5.23,4.49,0,10.09,.75,14.58,2.8,4.49,2.06,5.42,6.92,5.42,9.53,0,2.99-.94,5.42-1.87,7.48-3.18,8.04-6.36,15.7-9.53,23.37s-6.36,15.33-9.16,22.99c-.37,.93-.56,1.68-.75,2.43-.19,.93-.56,1.87-.75,2.8,3.55-.56,6.92-2.62,11.22-5.79,7.29-5.42,15.33-8.23,24.11-8.23s16.82,5.98,16.82,15.14c0,14.02-20.56,24.12-35.33,24.12h-3.18c-3.18,0-6.36,.56-9.35,1.12,2.43,7.29,5.61,14.58,8.04,16.26,1.87,1.5,5.98,10.09,6.73,10.47,6.17,2.8,11.59,4.3,17.01,4.3,1.12,0,2.24-.19,3.37-.37,1.12-.19,2.24-.37,3.36-.37,2.99,0,5.23,2.24,5.23,5.23,0,5.61-7.29,5.98-12.34,5.98-11.96,0-28.41-5.61-28.41-15.14-.75-.93-5.61-6.54-6.54-8.41-.19-.75-.37-1.5-.93-2.06-3.55-5.61-5.98-14.96-8.6-18.32-3.93,2.99-5.42,13.08-10.09,21.31-2.99,7.48-5.98,19.44-11.03,19.44-3.18,0-5.42-2.62-5.42-5.42Zm33.27-43.74c.19,.19,.37,.37,.56,.56,3.55-1.31,8.23-1.31,11.4-1.31h7.1c9.16,0,16.64-3.18,22.25-9.72,1.5-1.87,2.24-3.18,2.24-3.93,0-2.99-3.18-4.49-6.36-4.49-6.36,0-12.34,2.06-17.76,5.98-4.67,3.55-10.66,7.85-18.69,7.85h-.19c-.19,.75-.37,1.5-.56,2.24-.19,.75-.56,1.5-.75,2.24,.19,.19,.56,.37,.75,.56Z"/><path class="cls-1" d="M1827.24,123.75h.19c-7.29,9.16-12.9,16.82-25.8,16.82-6.17,0-13.27-5.42-13.27-11.96,0-1.5,.37-2.8,1.31-3.74,.93-.94,1.31-2.43,1.31-4.3,0-.93,0-1.87-.19-2.99-.19-.93-.19-2.06-.19-3.18,0-3.18,.75-6.54,2.43-10.09,1.5-3.36,2.8-6.92,4.11-10.47,2.62-7.85,10.09-28.6,18.32-28.6,2.99,0,5.42,2.62,5.42,5.42,0,1.31-.56,2.62-1.5,3.93-5.05,5.05-7.67,11.4-10.47,18.32h.75c8.79,0,17.38-7.29,21.12-19.07,0-4.11-8.97-3.93-8.97-9.53,0-3.18,2.62-5.42,5.61-5.42,8.22,0,14.21,8.79,14.21,14.77,0,1.31-.19,2.62-.56,3.93-4.3,13.08-11.78,21.12-22.81,24.3l-1.68,.56c-.93,.19-2.06,.56-3.18,.75-1.31,.37-2.62,.56-3.93,.56s-2.62-.19-4.11-.56c-.56,1.87-1.5,3.74-2.43,5.42-.94,1.87-1.5,3.93-1.5,5.98,0,.93,0,2.06,.19,2.99,.19,.93,.19,2.06,.19,2.99,0,2.8-.37,5.61-1.87,8.41,.37,.37,.93,.56,1.5,.56,8.04,0,12.52-5.98,17.38-12.34v.19c.94-1.68,2.62-2.43,4.67-2.43,2.99,0,5.42,2.24,5.42,5.05,0,1.68-.56,2.8-1.68,3.74Z"/></g></g></svg>