<?xml version="1.0" encoding="UTF-8"?><svg id="logo" xmlns="http://www.w3.org/2000/svg" viewBox="0 0 679.01 241.38">
    <defs>
        <style>
          fill: grey;
    }
      #Layer_1-2:hover{
       
        fill: red;
    }
        </style>
    </defs>
    <g id="Layer_1-2">
        <g>
            <path class="cls-1" d="M362.87,77.59c1.99,1.91,4.34,2.87,7.05,2.87-2.71,0-5.06,1-7.05,2.99-1.99,1.99-2.99,4.34-2.99,7.05s.99,5.06,2.99,7.05c1.99,2,4.34,2.99,7.05,2.99-2.71,0-5.06,.96-7.05,2.87-1.99,1.91-2.99,4.22-2.99,6.93s.99,5.06,2.99,7.05c1.99,1.99,4.34,2.99,7.05,2.99-2.71,0-5.06,1-7.05,2.99-1.99,2-2.99,4.34-2.99,7.05s.99,5.02,2.99,6.93c1.99,1.91,4.34,2.87,7.05,2.87-2.71,0-5.06,1-7.05,2.99-1.99,1.99-2.99,4.34-2.99,7.05s.99,5.06,2.99,7.05c1.99,1.99,4.34,2.99,7.05,2.99-2.71,0-5.06,.96-7.05,2.87-1.99,1.91-2.99,4.22-2.99,6.93s-1,5.06-2.99,7.05c-1.99,2-4.34,2.99-7.05,2.99s-5.02-.99-6.93-2.99c-1.91-1.99-2.87-4.34-2.87-7.05s.96-5.02,2.87-6.93,4.22-2.87,6.93-2.87c-2.71,0-5.02-.99-6.93-2.99-1.91-1.99-2.87-4.34-2.87-7.05s.96-5.06,2.87-7.05c1.91-1.99,4.22-2.99,6.93-2.99-2.71,0-5.02-.96-6.93-2.87-1.91-1.91-2.87-4.22-2.87-6.93s.96-5.06,2.87-7.05c1.91-1.99,4.22-2.99,6.93-2.99-2.71,0-5.02-.99-6.93-2.99-1.91-1.99-2.87-4.34-2.87-7.05s.96-5.02,2.87-6.93c1.91-1.91,4.22-2.87,6.93-2.87-2.71,0-5.02-.99-6.93-2.99-1.91-1.99-2.87-4.34-2.87-7.05s.96-5.06,2.87-7.05c1.91-1.99,4.22-2.99,6.93-2.99-2.71,0-5.02-.96-6.93-2.87-1.91-1.91-2.87-4.22-2.87-6.93s.96-5.06,2.87-7.05c1.91-1.99,4.22-2.99,6.93-2.99s5.06,1,7.05,2.99c1.99,1.99,2.99,4.34,2.99,7.05s.99,5.02,2.99,6.93Zm39.8,85.58c1.91-1.91,4.22-2.87,6.93-2.87-2.71,0-5.02-.99-6.93-2.99-1.91-1.99-2.87-4.34-2.87-7.05s.96-5.06,2.87-7.05c1.91-1.99,4.22-2.99,6.93-2.99-2.71,0-5.02-.96-6.93-2.87-1.91-1.91-2.87-4.22-2.87-6.93s.96-5.06,2.87-7.05c1.91-1.99,4.22-2.99,6.93-2.99-2.71,0-5.02-.99-6.93-2.99-1.91-1.99-2.87-4.34-2.87-7.05s.96-5.02,2.87-6.93c1.91-1.91,4.22-2.87,6.93-2.87-2.71,0-5.02-.99-6.93-2.99-1.91-1.99-2.87-4.34-2.87-7.05s-1-5.06-2.99-7.05c-1.99-1.99-4.34-2.99-7.05-2.99s-5.06,1-7.05,2.99c-1.99,1.99-2.99,4.34-2.99,7.05,0-2.71-.96-5.06-2.87-7.05-1.91-1.99-4.22-2.99-6.93-2.99,2.71,0,5.02-.96,6.93-2.87,1.91-1.91,2.87-4.22,2.87-6.93s.99-5.06,2.99-7.05c1.99-1.99,4.34-2.99,7.05-2.99s5.06,1,7.05,2.99c1.99,1.99,2.99,4.34,2.99,7.05s.96,5.02,2.87,6.93c1.91,1.91,4.22,2.87,6.93,2.87s5.06-.96,7.05-2.87c1.99-1.91,2.99-4.22,2.99-6.93s.99-5.06,2.99-7.05c1.99-1.99,4.34-2.99,7.05-2.99s5.02,1,6.93,2.99c1.91,1.99,2.87,4.34,2.87,7.05,0-2.71,.99-5.06,2.99-7.05,1.99-1.99,4.34-2.99,7.05-2.99s5.06,1,7.05,2.99c1.99,1.99,2.99,4.34,2.99,7.05s.96,5.02,2.87,6.93c1.91,1.91,4.22,2.87,6.93,2.87s5.06,1,7.05,2.99c1.99,1.99,2.99,4.34,2.99,7.05s-1,5.06-2.99,7.05c-1.99,2-4.34,2.99-7.05,2.99,2.71,0,5.06,.96,7.05,2.87,1.99,1.91,2.99,4.22,2.99,6.93s-1,5.06-2.99,7.05c-1.99,1.99-4.34,2.99-7.05,2.99,2.71,0,5.06,1,7.05,2.99,1.99,2,2.99,4.34,2.99,7.05s-1,5.02-2.99,6.93c-1.99,1.91-4.34,2.87-7.05,2.87,2.71,0,5.06,1,7.05,2.99,1.99,1.99,2.99,4.34,2.99,7.05s-1,5.06-2.99,7.05c-1.99,1.99-4.34,2.99-7.05,2.99,2.71,0,5.06,.96,7.05,2.87,1.99,1.91,2.99,4.22,2.99,6.93s-1,5.06-2.99,7.05c-1.99,2-4.34,2.99-7.05,2.99s-5.02-.99-6.93-2.99c-1.91-1.99-2.87-4.34-2.87-7.05s-1-5.02-2.99-6.93c-1.99-1.91-4.34-2.87-7.05-2.87,2.71,0,5.06-.99,7.05-2.99,1.99-1.99,2.99-4.34,2.99-7.05s-1-5.06-2.99-7.05c-1.99-1.99-4.34-2.99-7.05-2.99,2.71,0,5.06-.96,7.05-2.87,1.99-1.91,2.99-4.22,2.99-6.93s-1-5.06-2.99-7.05c-1.99-1.99-4.34-2.99-7.05-2.99,2.71,0,5.06-.99,7.05-2.99,1.99-1.99,2.99-4.34,2.99-7.05s-1-5.02-2.99-6.93c-1.99-1.91-4.34-2.87-7.05-2.87,2.71,0,5.06-.99,7.05-2.99,1.99-1.99,2.99-4.34,2.99-7.05s-1-5.06-2.99-7.05c-1.99-1.99-4.34-2.99-7.05-2.99s-5.06,1-7.05,2.99c-1.99,1.99-2.99,4.34-2.99,7.05,0-2.71-.96-5.06-2.87-7.05-1.91-1.99-4.22-2.99-6.93-2.99s-5.06,1-7.05,2.99c-1.99,1.99-2.99,4.34-2.99,7.05s.99,5.06,2.99,7.05c1.99,2,4.34,2.99,7.05,2.99-2.71,0-5.06,.96-7.05,2.87-1.99,1.91-2.99,4.22-2.99,6.93s.99,5.06,2.99,7.05c1.99,1.99,4.34,2.99,7.05,2.99-2.71,0-5.06,1-7.05,2.99-1.99,2-2.99,4.34-2.99,7.05s.99,5.02,2.99,6.93c1.99,1.91,4.34,2.87,7.05,2.87-2.71,0-5.06,1-7.05,2.99-1.99,1.99-2.99,4.34-2.99,7.05s.99,5.06,2.99,7.05c1.99,1.99,4.34,2.99,7.05,2.99-2.71,0-5.06,.96-7.05,2.87-1.99,1.91-2.99,4.22-2.99,6.93s-1,5.06-2.99,7.05c-1.99,2-4.34,2.99-7.05,2.99s-5.02-.99-6.93-2.99c-1.91-1.99-2.87-4.34-2.87-7.05s.96-5.02,2.87-6.93Z" />
            <path class="cls-1" d="M482.39,83.45c1.99-1.99,4.34-2.99,7.05-2.99s5.06-.96,7.05-2.87c1.99-1.91,2.99-4.22,2.99-6.93s.96-5.06,2.87-7.05c1.91-1.99,4.22-2.99,6.93-2.99,2.87,0,5.26,1,7.17,2.99,1.91,1.99,2.87,4.34,2.87,7.05,0-2.71,.99-5.06,2.99-7.05,1.99-1.99,4.34-2.99,7.05-2.99s5.06,1,7.05,2.99c1.99,1.99,2.99,4.34,2.99,7.05,0-2.71,.96-5.06,2.87-7.05,1.91-1.99,4.22-2.99,6.93-2.99,2.87,0,5.26,1,7.17,2.99,1.91,1.99,2.87,4.34,2.87,7.05s.99,5.02,2.99,6.93c1.99,1.91,4.34,2.87,7.05,2.87s5.06,1,7.05,2.99c1.99,1.99,2.99,4.34,2.99,7.05s-1,5.06-2.99,7.05c-1.99,2-4.34,2.99-7.05,2.99,2.71,0,5.06,1,7.05,2.99,1.99,1.99,2.99,4.34,2.99,7.05,0,2.55-1,4.78-2.99,6.69-1.99,1.91-4.34,2.87-7.05,2.87,2.71,0,5.06,1,7.05,2.99,1.99,1.99,2.99,4.34,2.99,7.05s-1,5.06-2.99,7.05c-1.99,1.99-4.34,2.99-7.05,2.99,2.71,0,5.06,1,7.05,2.99,1.99,1.99,2.99,4.34,2.99,7.05s-1,5.06-2.99,7.05c-1.99,1.99-4.34,2.99-7.05,2.99s-5.06,.96-7.05,2.87c-1.99,1.91-2.99,4.22-2.99,6.93s-.96,5.06-2.87,7.05c-1.91,2-4.3,2.99-7.17,2.99-2.71,0-5.02-.99-6.93-2.99-1.91-1.99-2.87-4.34-2.87-7.05,0,2.71-1,5.06-2.99,7.05-1.99,2-4.34,2.99-7.05,2.99s-5.06-.99-7.05-2.99c-1.99-1.99-2.99-4.34-2.99-7.05s-.96-5.02-2.87-6.93c-1.91-1.91-4.3-2.87-7.17-2.87,2.87,0,5.26-.99,7.17-2.99,1.91-1.99,2.87-4.34,2.87-7.05,0,2.71,.99,5.06,2.99,7.05,1.99,1.99,4.34,2.99,7.05,2.99s5.06-.99,7.05-2.99c1.99-1.99,2.99-4.34,2.99-7.05,0,2.71,.96,5.06,2.87,7.05,1.91,1.99,4.22,2.99,6.93,2.99,2.87,0,5.26-.99,7.17-2.99,1.91-1.99,2.87-4.34,2.87-7.05s-.96-5.06-2.87-7.05c-1.91-1.99-4.3-2.99-7.17-2.99,2.87,0,5.26-.99,7.17-2.99,1.91-1.99,2.87-4.34,2.87-7.05s-.96-5.06-2.87-7.05c-1.91-1.99-4.3-2.99-7.17-2.99,2.87,0,5.26-.92,7.17-2.75,1.91-1.83,2.87-4.1,2.87-6.81s-.96-5.06-2.87-7.05c-1.91-1.99-4.3-2.99-7.17-2.99,2.87,0,5.26-.99,7.17-2.99,1.91-1.99,2.87-4.34,2.87-7.05s-.96-5.06-2.87-7.05c-1.91-1.99-4.3-2.99-7.17-2.99-2.71,0-5.02,1-6.93,2.99-1.91,1.99-2.87,4.34-2.87,7.05,0-2.71-1-5.06-2.99-7.05-1.99-1.99-4.34-2.99-7.05-2.99s-5.06,1-7.05,2.99c-1.99,1.99-2.99,4.34-2.99,7.05,0-2.71-.96-5.06-2.87-7.05-1.91-1.99-4.3-2.99-7.17-2.99-2.71,0-5.02,1-6.93,2.99-1.91,1.99-2.87,4.34-2.87,7.05s.96,5.06,2.87,7.05c1.91,2,4.22,2.99,6.93,2.99-2.71,0-5.02,1-6.93,2.99-1.91,1.99-2.87,4.34-2.87,7.05s.96,4.98,2.87,6.81c1.91,1.83,4.22,2.75,6.93,2.75-2.71,0-5.02,1-6.93,2.99-1.91,1.99-2.87,4.34-2.87,7.05s.96,5.06,2.87,7.05c1.91,1.99,4.22,2.99,6.93,2.99-2.71,0-5.02,1-6.93,2.99-1.91,1.99-2.87,4.34-2.87,7.05s.96,5.06,2.87,7.05c1.91,1.99,4.22,2.99,6.93,2.99-2.71,0-5.02,.96-6.93,2.87s-2.87,4.22-2.87,6.93,.96,5.06,2.87,7.05c1.91,2,4.22,2.99,6.93,2.99-2.71,0-5.02,.99-6.93,2.99-1.91,1.99-2.87,4.34-2.87,7.05s.96,5.06,2.87,7.05c1.91,1.99,4.22,2.99,6.93,2.99-2.71,0-5.02,.96-6.93,2.87-1.91,1.91-2.87,4.22-2.87,6.93s-1,5.06-2.99,7.05c-1.99,1.99-4.34,2.99-7.05,2.99s-5.06-1-7.05-2.99c-1.99-1.99-2.99-4.34-2.99-7.05s.99-5.02,2.99-6.93c1.99-1.91,4.34-2.87,7.05-2.87-2.71,0-5.06-1-7.05-2.99-1.99-1.99-2.99-4.34-2.99-7.05s.99-5.06,2.99-7.05c1.99-2,4.34-2.99,7.05-2.99-2.71,0-5.06-.99-7.05-2.99-1.99-1.99-2.99-4.34-2.99-7.05s.99-5.02,2.99-6.93c1.99-1.91,4.34-2.87,7.05-2.87-2.71-.16-5.06-1.2-7.05-3.11-1.99-1.91-2.99-4.22-2.99-6.93s.99-5.06,2.99-7.05c1.99-1.99,4.34-2.99,7.05-2.99-2.71,0-5.06-.99-7.05-2.99-1.99-1.99-2.99-4.34-2.99-7.05s1.03-5.06,3.11-7.05c2.07-1.99,4.38-2.99,6.93-2.99-2.71,0-5.06-.96-7.05-2.87-1.99-1.91-2.99-4.14-2.99-6.69,0-2.71,.99-5.06,2.99-7.05,1.99-1.99,4.34-2.99,7.05-2.99-2.71,0-5.06-.99-7.05-2.99-1.99-1.99-2.99-4.34-2.99-7.05s.99-5.06,2.99-7.05Z" />
            <path class="cls-1" d="M616.26,177.16c-1.99,2-4.34,2.99-7.05,2.99s-5.02-.99-6.93-2.99c-1.91-1.99-2.87-4.34-2.87-7.05s-1-5.02-2.99-6.93c-1.99-1.91-4.34-2.87-7.05-2.87s-5.06-.99-7.05-2.99c-1.99-1.99-2.99-4.34-2.99-7.05s.99-5.06,2.99-7.05c1.99-1.99,4.34-2.99,7.05-2.99-2.71,0-5.06-.96-7.05-2.87-1.99-1.91-2.99-4.22-2.99-6.93s.99-5.06,2.99-7.05c1.99-1.99,4.34-2.99,7.05-2.99-2.71,0-5.06-.99-7.05-2.99-1.99-1.99-2.99-4.34-2.99-7.05s.99-5.02,2.99-6.93c1.99-1.91,4.34-2.87,7.05-2.87-2.71,0-5.06-.99-7.05-2.99-1.99-1.99-2.99-4.34-2.99-7.05s.99-5.06,2.99-7.05c1.99-1.99,4.34-2.99,7.05-2.99-2.71,0-5.06-.96-7.05-2.87-1.99-1.91-2.99-4.22-2.99-6.93s.99-5.06,2.99-7.05c1.99-1.99,4.34-2.99,7.05-2.99s5.06,1,7.05,2.99c1.99,1.99,2.99,4.34,2.99,7.05s.96,5.02,2.87,6.93c1.91,1.91,4.22,2.87,6.93,2.87-2.71,0-5.02,1-6.93,2.99-1.91,1.99-2.87,4.34-2.87,7.05s.96,5.06,2.87,7.05c1.91,2,4.22,2.99,6.93,2.99-2.71,0-5.02,.96-6.93,2.87-1.91,1.91-2.87,4.22-2.87,6.93s.96,5.06,2.87,7.05c1.91,1.99,4.22,2.99,6.93,2.99-2.71,0-5.02,1-6.93,2.99-1.91,2-2.87,4.34-2.87,7.05s.96,5.02,2.87,6.93c1.91,1.91,4.22,2.87,6.93,2.87-2.71,0-5.02,1-6.93,2.99-1.91,1.99-2.87,4.34-2.87,7.05s.96,5.06,2.87,7.05c1.91,1.99,4.22,2.99,6.93,2.99s5.06-.99,7.05-2.99c1.99-1.99,2.99-4.34,2.99-7.05,0,2.71,.99,5.06,2.99,7.05,1.99,1.99,4.34,2.99,7.05,2.99s5.02-.99,6.93-2.99c1.91-1.99,2.87-4.34,2.87-7.05,0,2.71,.99,5.06,2.99,7.05,1.99,1.99,4.34,2.99,7.05,2.99-2.71,0-5.06,.96-7.05,2.87-1.99,1.91-2.99,4.22-2.99,6.93s-.96,5.06-2.87,7.05c-1.91,2-4.22,2.99-6.93,2.99s-5.06-.99-7.05-2.99c-1.99-1.99-2.99-4.34-2.99-7.05,0,2.71-1,5.06-2.99,7.05Zm39.92-13.98c-1.99-1.91-4.34-2.87-7.05-2.87,2.71,0,5.06-.99,7.05-2.99,1.99-1.99,2.99-4.34,2.99-7.05s-1-5.06-2.99-7.05c-1.99-1.99-4.34-2.99-7.05-2.99,2.71,0,5.06-.96,7.05-2.87,1.99-1.91,2.99-4.22,2.99-6.93s-1-5.06-2.99-7.05c-1.99-1.99-4.34-2.99-7.05-2.99,2.71,0,5.06-.99,7.05-2.99,1.99-1.99,2.99-4.34,2.99-7.05s-1-5.02-2.99-6.93c-1.99-1.91-4.34-2.87-7.05-2.87,2.71,0,5.06-.99,7.05-2.99,1.99-1.99,2.99-4.34,2.99-7.05s-1-5.06-2.99-7.05c-1.99-1.99-4.34-2.99-7.05-2.99,2.71,0,5.06-.96,7.05-2.87,1.99-1.91,2.99-4.22,2.99-6.93s.96-5.06,2.87-7.05c1.91-1.99,4.22-2.99,6.93-2.99s5.06,1,7.05,2.99c1.99,1.99,2.99,4.34,2.99,7.05s-1,5.02-2.99,6.93c-1.99,1.91-4.34,2.87-7.05,2.87,2.71,0,5.06,1,7.05,2.99,1.99,1.99,2.99,4.34,2.99,7.05s-1,5.06-2.99,7.05c-1.99,2-4.34,2.99-7.05,2.99,2.71,0,5.06,.96,7.05,2.87,1.99,1.91,2.99,4.22,2.99,6.93s-1,5.06-2.99,7.05c-1.99,1.99-4.34,2.99-7.05,2.99,2.71,0,5.06,1,7.05,2.99,1.99,2,2.99,4.34,2.99,7.05s-1,5.02-2.99,6.93c-1.99,1.91-4.34,2.87-7.05,2.87,2.71,0,5.06,1,7.05,2.99,1.99,1.99,2.99,4.34,2.99,7.05s-1,5.06-2.99,7.05c-1.99,1.99-4.34,2.99-7.05,2.99,2.71,0,5.06,.96,7.05,2.87,1.99,1.91,2.99,4.22,2.99,6.93s-1,5.06-2.99,7.05c-1.99,2-4.34,2.99-7.05,2.99s-5.02-.99-6.93-2.99c-1.91-1.99-2.87-4.34-2.87-7.05s-1-5.02-2.99-6.93Z" />
        </g>
        <path class="cls-1" d="M36.93,177.16c-1.99,2-4.34,2.99-7.05,2.99s-5.02-.99-6.93-2.99c-1.91-1.99-2.87-4.34-2.87-7.05s-1-5.02-2.99-6.93c-1.99-1.91-4.34-2.87-7.05-2.87s-5.06-.99-7.05-2.99c-1.99-1.99-2.99-4.34-2.99-7.05s.99-5.06,2.99-7.05c1.99-1.99,4.34-2.99,7.05-2.99-2.71,0-5.06-.96-7.05-2.87-1.99-1.91-2.99-4.22-2.99-6.93s.99-5.06,2.99-7.05c1.99-1.99,4.34-2.99,7.05-2.99-2.71,0-5.06-.99-7.05-2.99-1.99-1.99-2.99-4.34-2.99-7.05s.99-5.02,2.99-6.93c1.99-1.91,4.34-2.87,7.05-2.87-2.71,0-5.06-.99-7.05-2.99-1.99-1.99-2.99-4.34-2.99-7.05s.99-5.06,2.99-7.05c1.99-1.99,4.34-2.99,7.05-2.99s5.06-.96,7.05-2.87c1.99-1.91,2.99-4.22,2.99-6.93s.96-5.06,2.87-7.05c1.91-1.99,4.22-2.99,6.93-2.99s5.06,1,7.05,2.99c1.99,1.99,2.99,4.34,2.99,7.05,0-2.71,.99-5.06,2.99-7.05,1.99-1.99,4.34-2.99,7.05-2.99s5.02,1,6.93,2.99c1.91,1.99,2.87,4.34,2.87,7.05,0-2.71,.99-5.06,2.99-7.05,1.99-1.99,4.34-2.99,7.05-2.99s5.06,1,7.05,2.99c1.99,1.99,2.99,4.34,2.99,7.05s.96,5.02,2.87,6.93c1.91,1.91,4.22,2.87,6.93,2.87s5.06,1,7.05,2.99c1.99,1.99,2.99,4.34,2.99,7.05s-1,5.06-2.99,7.05c-1.99,2-4.34,2.99-7.05,2.99,2.71,0,5.06,.96,7.05,2.87,1.99,1.91,2.99,4.22,2.99,6.93s-1,5.06-2.99,7.05c-1.99,1.99-4.34,2.99-7.05,2.99,2.71,0,5.06,1,7.05,2.99,1.99,2,2.99,4.34,2.99,7.05s-1,5.02-2.99,6.93c-1.99,1.91-4.34,2.87-7.05,2.87,2.71,0,5.06,1,7.05,2.99,1.99,1.99,2.99,4.34,2.99,7.05s-1,5.06-2.99,7.05c-1.99,1.99-4.34,2.99-7.05,2.99s-5.02,.96-6.93,2.87-2.87,4.22-2.87,6.93-1,5.06-2.99,7.05c-1.99,2-4.34,2.99-7.05,2.99s-5.06-.99-7.05-2.99c-1.99-1.99-2.99-4.34-2.99-7.05,0,2.71-.96,5.06-2.87,7.05-1.91,2-4.22,2.99-6.93,2.99s-5.06-.99-7.05-2.99c-1.99-1.99-2.99-4.34-2.99-7.05,0,2.71-1,5.06-2.99,7.05Zm-13.98-19.84c1.91,1.99,4.22,2.99,6.93,2.99s5.06-.99,7.05-2.99c1.99-1.99,2.99-4.34,2.99-7.05,0,2.71,.99,5.06,2.99,7.05,1.99,1.99,4.34,2.99,7.05,2.99s5.02-.99,6.93-2.99c1.91-1.99,2.87-4.34,2.87-7.05,0,2.71,.99,5.06,2.99,7.05,1.99,1.99,4.34,2.99,7.05,2.99s5.06-.99,7.05-2.99c1.99-1.99,2.99-4.34,2.99-7.05s-1-5.06-2.99-7.05c-1.99-1.99-4.34-2.99-7.05-2.99,2.71,0,5.06-.96,7.05-2.87,1.99-1.91,2.99-4.22,2.99-6.93s-1-5.06-2.99-7.05c-1.99-1.99-4.34-2.99-7.05-2.99,2.71,0,5.06-.99,7.05-2.99,1.99-1.99,2.99-4.34,2.99-7.05s-1-5.02-2.99-6.93c-1.99-1.91-4.34-2.87-7.05-2.87,2.71,0,5.06-.99,7.05-2.99,1.99-1.99,2.99-4.34,2.99-7.05s-1-5.06-2.99-7.05c-1.99-1.99-4.34-2.99-7.05-2.99s-5.06,1-7.05,2.99c-1.99,1.99-2.99,4.34-2.99,7.05,0-2.71-.96-5.06-2.87-7.05-1.91-1.99-4.22-2.99-6.93-2.99s-5.06,1-7.05,2.99c-1.99,1.99-2.99,4.34-2.99,7.05,0-2.71-1-5.06-2.99-7.05-1.99-1.99-4.34-2.99-7.05-2.99s-5.02,1-6.93,2.99c-1.91,1.99-2.87,4.34-2.87,7.05s.96,5.06,2.87,7.05c1.91,2,4.22,2.99,6.93,2.99-2.71,0-5.02,.96-6.93,2.87-1.91,1.91-2.87,4.22-2.87,6.93s.96,5.06,2.87,7.05c1.91,1.99,4.22,2.99,6.93,2.99-2.71,0-5.02,1-6.93,2.99-1.91,2-2.87,4.34-2.87,7.05s.96,5.02,2.87,6.93c1.91,1.91,4.22,2.87,6.93,2.87-2.71,0-5.02,1-6.93,2.99-1.91,1.99-2.87,4.34-2.87,7.05s.96,5.06,2.87,7.05Z" />
        <path class="cls-1" d="M136.61,177.16c-1.99,2-4.34,2.99-7.05,2.99s-5.02-.99-6.93-2.99c-1.91-1.99-2.87-4.34-2.87-7.05s-1-5.02-2.99-6.93c-1.99-1.91-4.34-2.87-7.05-2.87s-5.06-.99-7.05-2.99c-1.99-1.99-2.99-4.34-2.99-7.05s.99-5.06,2.99-7.05c1.99-1.99,4.34-2.99,7.05-2.99-2.71,0-5.06-.96-7.05-2.87-1.99-1.91-2.99-4.22-2.99-6.93s.99-5.06,2.99-7.05c1.99-1.99,4.34-2.99,7.05-2.99-2.71,0-5.06-.99-7.05-2.99-1.99-1.99-2.99-4.34-2.99-7.05s.99-5.02,2.99-6.93c1.99-1.91,4.34-2.87,7.05-2.87-2.71,0-5.06-.99-7.05-2.99-1.99-1.99-2.99-4.34-2.99-7.05s.99-5.06,2.99-7.05c1.99-1.99,4.34-2.99,7.05-2.99-2.71,0-5.06-.96-7.05-2.87-1.99-1.91-2.99-4.22-2.99-6.93s.99-5.06,2.99-7.05c1.99-1.99,4.34-2.99,7.05-2.99s5.06,1,7.05,2.99c1.99,1.99,2.99,4.34,2.99,7.05s.96,5.02,2.87,6.93c1.91,1.91,4.22,2.87,6.93,2.87-2.71,0-5.02,1-6.93,2.99-1.91,1.99-2.87,4.34-2.87,7.05s.96,5.06,2.87,7.05c1.91,2,4.22,2.99,6.93,2.99-2.71,0-5.02,.96-6.93,2.87-1.91,1.91-2.87,4.22-2.87,6.93s.96,5.06,2.87,7.05c1.91,1.99,4.22,2.99,6.93,2.99-2.71,0-5.02,1-6.93,2.99-1.91,2-2.87,4.34-2.87,7.05s.96,5.02,2.87,6.93c1.91,1.91,4.22,2.87,6.93,2.87-2.71,0-5.02,1-6.93,2.99-1.91,1.99-2.87,4.34-2.87,7.05s.96,5.06,2.87,7.05c1.91,1.99,4.22,2.99,6.93,2.99s5.06-.99,7.05-2.99c1.99-1.99,2.99-4.34,2.99-7.05,0,2.71,.99,5.06,2.99,7.05,1.99,1.99,4.34,2.99,7.05,2.99s5.02-.99,6.93-2.99c1.91-1.99,2.87-4.34,2.87-7.05,0,2.71,.99,5.06,2.99,7.05,1.99,1.99,4.34,2.99,7.05,2.99-2.71,0-5.06,.96-7.05,2.87-1.99,1.91-2.99,4.22-2.99,6.93s-.96,5.06-2.87,7.05c-1.91,2-4.22,2.99-6.93,2.99s-5.06-.99-7.05-2.99c-1.99-1.99-2.99-4.34-2.99-7.05,0,2.71-1,5.06-2.99,7.05Zm39.92-13.98c-1.99-1.91-4.34-2.87-7.05-2.87,2.71,0,5.06-.99,7.05-2.99,1.99-1.99,2.99-4.34,2.99-7.05s-1-5.06-2.99-7.05c-1.99-1.99-4.34-2.99-7.05-2.99,2.71,0,5.06-.96,7.05-2.87,1.99-1.91,2.99-4.22,2.99-6.93s-1-5.06-2.99-7.05c-1.99-1.99-4.34-2.99-7.05-2.99,2.71,0,5.06-.99,7.05-2.99,1.99-1.99,2.99-4.34,2.99-7.05s-1-5.02-2.99-6.93c-1.99-1.91-4.34-2.87-7.05-2.87,2.71,0,5.06-.99,7.05-2.99,1.99-1.99,2.99-4.34,2.99-7.05s-1-5.06-2.99-7.05c-1.99-1.99-4.34-2.99-7.05-2.99,2.71,0,5.06-.96,7.05-2.87,1.99-1.91,2.99-4.22,2.99-6.93s.96-5.06,2.87-7.05c1.91-1.99,4.22-2.99,6.93-2.99s5.06,1,7.05,2.99c1.99,1.99,2.99,4.34,2.99,7.05s-1,5.02-2.99,6.93c-1.99,1.91-4.34,2.87-7.05,2.87,2.71,0,5.06,1,7.05,2.99,1.99,1.99,2.99,4.34,2.99,7.05s-1,5.06-2.99,7.05c-1.99,2-4.34,2.99-7.05,2.99,2.71,0,5.06,.96,7.05,2.87,1.99,1.91,2.99,4.22,2.99,6.93s-1,5.06-2.99,7.05c-1.99,1.99-4.34,2.99-7.05,2.99,2.71,0,5.06,1,7.05,2.99,1.99,2,2.99,4.34,2.99,7.05s-1,5.02-2.99,6.93c-1.99,1.91-4.34,2.87-7.05,2.87,2.71,0,5.06,1,7.05,2.99,1.99,1.99,2.99,4.34,2.99,7.05s-1,5.06-2.99,7.05c-1.99,1.99-4.34,2.99-7.05,2.99,2.71,0,5.06,.96,7.05,2.87,1.99,1.91,2.99,4.22,2.99,6.93s-1,5.06-2.99,7.05c-1.99,2-4.34,2.99-7.05,2.99s-5.02-.99-6.93-2.99c-1.91-1.99-2.87-4.34-2.87-7.05s-1-5.02-2.99-6.93Z" />
        <path class="cls-1" d="M199.36,130.42c0-2.71,1-5.06,2.99-7.05,1.99-1.99,4.34-2.99,7.05-2.99s5.06-.99,7.05-2.99c1.99-1.99,2.99-4.34,2.99-7.05s.96-5.02,2.87-6.93c1.91-1.91,4.22-2.87,6.93-2.87s5.06,.96,7.05,2.87c1.99,1.91,2.99,4.22,2.99,6.93,0-2.71,1-5.02,2.99-6.93,1.99-1.91,4.34-2.87,7.05-2.87s5.02,.96,6.93,2.87c1.91,1.91,2.87,4.22,2.87,6.93,0-2.71,1-5.02,2.99-6.93,1.99-1.91,4.34-2.87,7.05-2.87s5.06-.99,7.05-2.99c1.99-1.99,2.99-4.34,2.99-7.05s-.99-5.06-2.99-7.05c-1.99-1.99-4.34-2.99-7.05-2.99s-5.06,1-7.05,2.99c-1.99,1.99-2.99,4.34-2.99,7.05,0-2.71-.96-5.06-2.87-7.05-1.91-1.99-4.22-2.99-6.93-2.99s-5.06,1-7.05,2.99c-1.99,1.99-2.99,4.34-2.99,7.05,0-2.71-.99-5.06-2.99-7.05-1.99-1.99-4.34-2.99-7.05-2.99s-5.02,1-6.93,2.99c-1.91,1.99-2.87,4.34-2.87,7.05s-.99,5.06-2.99,7.05c-1.99,2-4.34,2.99-7.05,2.99s-5.06-.99-7.05-2.99c-1.99-1.99-2.99-4.34-2.99-7.05s1-5.06,2.99-7.05c1.99-1.99,4.34-2.99,7.05-2.99s5.06-.96,7.05-2.87c1.99-1.91,2.99-4.22,2.99-6.93s.96-5.06,2.87-7.05c1.91-1.99,4.22-2.99,6.93-2.99s5.06,1,7.05,2.99c1.99,1.99,2.99,4.34,2.99,7.05,0-2.71,1-5.06,2.99-7.05,1.99-1.99,4.34-2.99,7.05-2.99s5.02,1,6.93,2.99c1.91,1.99,2.87,4.34,2.87,7.05,0-2.71,1-5.06,2.99-7.05,1.99-1.99,4.34-2.99,7.05-2.99s5.06,1,7.05,2.99c1.99,1.99,2.99,4.34,2.99,7.05s.96,5.02,2.87,6.93c1.91,1.91,4.22,2.87,6.93,2.87s5.06,1,7.05,2.99c1.99,1.99,2.99,4.34,2.99,7.05s-.99,5.06-2.99,7.05c-1.99,2-4.34,2.99-7.05,2.99s-5.02,.96-6.93,2.87c-1.91,1.91-2.87,4.22-2.87,6.93s-.99,5.06-2.99,7.05c-1.99,1.99-4.34,2.99-7.05,2.99s-5.06,1-7.05,2.99c-1.99,2-2.99,4.34-2.99,7.05,0-2.71-.96-5.06-2.87-7.05-1.91-1.99-4.22-2.99-6.93-2.99s-5.06,1-7.05,2.99c-1.99,2-2.99,4.34-2.99,7.05,0-2.71-.99-5.06-2.99-7.05-1.99-1.99-4.34-2.99-7.05-2.99s-5.02,1-6.93,2.99c-1.91,2-2.87,4.34-2.87,7.05s.96,5.02,2.87,6.93c1.91,1.91,4.22,2.87,6.93,2.87-2.71,0-5.02,1-6.93,2.99-1.91,1.99-2.87,4.34-2.87,7.05s.96,5.06,2.87,7.05c1.91,1.99,4.22,2.99,6.93,2.99s5.06-.99,7.05-2.99c1.99-1.99,2.99-4.34,2.99-7.05,0,2.71,1,5.06,2.99,7.05,1.99,1.99,4.34,2.99,7.05,2.99s5.02-.99,6.93-2.99c1.91-1.99,2.87-4.34,2.87-7.05,0,2.71,1,5.06,2.99,7.05,1.99,1.99,4.34,2.99,7.05,2.99s5.06-.99,7.05-2.99c1.99-1.99,2.99-4.34,2.99-7.05s.96-5.06,2.87-7.05c1.91-1.99,4.22-2.99,6.93-2.99s5.06,1,7.05,2.99c1.99,1.99,2.99,4.34,2.99,7.05s-.99,5.06-2.99,7.05c-1.99,1.99-4.34,2.99-7.05,2.99s-5.02,.96-6.93,2.87-2.87,4.22-2.87,6.93-.99,5.06-2.99,7.05c-1.99,2-4.34,2.99-7.05,2.99s-5.06-.99-7.05-2.99c-1.99-1.99-2.99-4.34-2.99-7.05,0,2.71-.96,5.06-2.87,7.05-1.91,2-4.22,2.99-6.93,2.99s-5.06-.99-7.05-2.99c-1.99-1.99-2.99-4.34-2.99-7.05,0,2.71-.99,5.06-2.99,7.05-1.99,2-4.34,2.99-7.05,2.99s-5.02-.99-6.93-2.99c-1.91-1.99-2.87-4.34-2.87-7.05s-.99-5.02-2.99-6.93c-1.99-1.91-4.34-2.87-7.05-2.87s-5.06-.99-7.05-2.99c-1.99-1.99-2.99-4.34-2.99-7.05s1-5.06,2.99-7.05c1.99-1.99,4.34-2.99,7.05-2.99-2.71,0-5.06-.96-7.05-2.87-1.99-1.91-2.99-4.22-2.99-6.93Z" />
        <path class="cls-1" d="M63.05,238.39c-1.99-1.99-2.99-4.34-2.99-7.05s-.96-5.02-2.87-6.93-4.22-2.87-6.93-2.87-5.06-.99-7.05-2.99c-1.99-1.99-2.99-4.34-2.99-7.05s.99-5.06,2.99-7.05c1.99-1.99,4.34-2.99,7.05-2.99-2.71,0-5.06-.96-7.05-2.87-1.99-1.91-2.99-4.22-2.99-6.93s.99-5.06,2.99-7.05c1.99-1.99,4.34-2.99,7.05-2.99-2.71,0-5.06-.99-7.05-2.99-1.99-1.99-2.99-4.34-2.99-7.05s.99-5.06,2.99-7.05c1.99-1.99,4.34-2.99,7.05-2.99-2.71,0-5.06-.96-7.05-2.87-1.99-1.91-2.99-4.22-2.99-6.93s.99-5.06,2.99-7.05c1.99-1.99,4.34-2.99,7.05-2.99-2.71,0-5.06-.99-7.05-2.99-1.99-1.99-2.99-4.34-2.99-7.05s.99-5.02,2.99-6.93c1.99-1.91,4.34-2.87,7.05-2.87-2.71,0-5.06-.99-7.05-2.99-1.99-1.99-2.99-4.34-2.99-7.05s.99-5.06,2.99-7.05c1.99-1.99,4.34-2.99,7.05-2.99-2.71,0-5.06-.96-7.05-2.87-1.99-1.91-2.99-4.22-2.99-6.93s.99-5.06,2.99-7.05c1.99-1.99,4.34-2.99,7.05-2.99s5.02,1,6.93,2.99c1.91,1.99,2.87,4.34,2.87,7.05s.99,5.02,2.99,6.93c1.99,1.91,4.34,2.87,7.05,2.87-2.71,0-5.06,1-7.05,2.99-1.99,1.99-2.99,4.34-2.99,7.05s.99,5.06,2.99,7.05c1.99,2,4.34,2.99,7.05,2.99-2.71,0-5.06,.96-7.05,2.87-1.99,1.91-2.99,4.22-2.99,6.93s.99,5.06,2.99,7.05c1.99,2,4.34,2.99,7.05,2.99-2.71,0-5.06,1-7.05,2.99-1.99,1.99-2.99,4.34-2.99,7.05s.99,5.02,2.99,6.93c1.99,1.91,4.34,2.87,7.05,2.87-2.71,0-5.06,1-7.05,2.99-1.99,2-2.99,4.34-2.99,7.05s.99,5.06,2.99,7.05c1.99,1.99,4.34,2.99,7.05,2.99-2.71,0-5.06,1-7.05,2.99-1.99,2-2.99,4.34-2.99,7.05s.99,5.02,2.99,6.93c1.99,1.91,4.34,2.87,7.05,2.87-2.71,0-5.06,1-7.05,2.99-1.99,1.99-2.99,4.34-2.99,7.05s.99,5.06,2.99,7.05c1.99,1.99,4.34,2.99,7.05,2.99s5.06-.99,7.05-2.99c1.99-1.99,2.99-4.34,2.99-7.05,0,2.71,.96,5.06,2.87,7.05,1.91,1.99,4.22,2.99,6.93,2.99s5.06,.96,7.05,2.87c1.99,1.91,2.99,4.22,2.99,6.93s-1,5.06-2.99,7.05c-1.99,2-4.34,2.99-7.05,2.99s-5.02-.99-6.93-2.99c-1.91-1.99-2.87-4.34-2.87-7.05,0,2.71-1,5.06-2.99,7.05-1.99,2-4.34,2.99-7.05,2.99s-5.06-.99-7.05-2.99Z" />
        <path class="cls-1" d="M37.15,2.99c1.99,1.99,2.99,4.34,2.99,7.05s.96,5.02,2.87,6.93,4.22,2.87,6.93,2.87,5.06,.99,7.05,2.99c1.99,1.99,2.99,4.34,2.99,7.05s-.99,5.06-2.99,7.05c-1.99,1.99-4.34,2.99-7.05,2.99,2.71,0,5.06,.96,7.05,2.87,1.99,1.91,2.99,4.22,2.99,6.93s-.99,5.06-2.99,7.05c-1.99,1.99-4.34,2.99-7.05,2.99,2.71,0,5.06,.99,7.05,2.99,1.99,1.99,2.99,4.34,2.99,7.05s-.99,5.06-2.99,7.05c-1.99,1.99-4.34,2.99-7.05,2.99,2.71,0,5.06,.96,7.05,2.87,1.99,1.91,2.99,4.22,2.99,6.93s-.99,5.06-2.99,7.05c-1.99,1.99-4.34,2.99-7.05,2.99,2.71,0,5.06,.99,7.05,2.99,1.99,1.99,2.99,4.34,2.99,7.05s-.99,5.02-2.99,6.93c-1.99,1.91-4.34,2.87-7.05,2.87,2.71,0,5.06,.99,7.05,2.99,1.99,1.99,2.99,4.34,2.99,7.05s-.99,5.06-2.99,7.05c-1.99,1.99-4.34,2.99-7.05,2.99,2.71,0,5.06,.96,7.05,2.87,1.99,1.91,2.99,4.22,2.99,6.93s-.99,5.06-2.99,7.05c-1.99,1.99-4.34,2.99-7.05,2.99s-5.02-1-6.93-2.99c-1.91-1.99-2.87-4.34-2.87-7.05s-.99-5.02-2.99-6.93c-1.99-1.91-4.34-2.87-7.05-2.87,2.71,0,5.06-1,7.05-2.99,1.99-1.99,2.99-4.34,2.99-7.05s-.99-5.06-2.99-7.05c-1.99-2-4.34-2.99-7.05-2.99,2.71,0,5.06-.96,7.05-2.87,1.99-1.91,2.99-4.22,2.99-6.93s-.99-5.06-2.99-7.05c-1.99-2-4.34-2.99-7.05-2.99,2.71,0,5.06-1,7.05-2.99,1.99-1.99,2.99-4.34,2.99-7.05s-.99-5.02-2.99-6.93c-1.99-1.91-4.34-2.87-7.05-2.87,2.71,0,5.06-1,7.05-2.99,1.99-2,2.99-4.34,2.99-7.05s-.99-5.06-2.99-7.05c-1.99-1.99-4.34-2.99-7.05-2.99,2.71,0,5.06-1,7.05-2.99,1.99-2,2.99-4.34,2.99-7.05s-.99-5.02-2.99-6.93c-1.99-1.91-4.34-2.87-7.05-2.87,2.71,0,5.06-1,7.05-2.99,1.99-1.99,2.99-4.34,2.99-7.05s-.99-5.06-2.99-7.05c-1.99-1.99-4.34-2.99-7.05-2.99s-5.06,.99-7.05,2.99c-1.99,1.99-2.99,4.34-2.99,7.05,0-2.71-.96-5.06-2.87-7.05-1.91-1.99-4.22-2.99-6.93-2.99s-5.06-.96-7.05-2.87C1.22,15.06,.22,12.75,.22,10.04S1.22,4.98,3.21,2.99C5.2,.99,7.55,0,10.26,0s5.02,.99,6.93,2.99c1.91,1.99,2.87,4.34,2.87,7.05,0-2.71,1-5.06,2.99-7.05,1.99-2,4.34-2.99,7.05-2.99s5.06,.99,7.05,2.99Z" />
    </g>
</svg>
