<?xml version="1.0" encoding="UTF-8"?><svg id="Layer_2" xmlns="http://www.w3.org/2000/svg" viewBox="0 0 153.71 52.23"><defs><style>.cls-1{fill:#0a6422;}</style></defs><g id="Layer_1-2"><path class="cls-1" d="M7.72,38h-.43c-2.75-.54-6.21-1.13-6.32-5.18-.59-.16-.97-.76-.97-1.4,0-.81,.38-1.3,1.08-1.51,.27-1.89,.65-3.83,1.19-5.72s.97-3.94,1.24-6.16c.43-3.24,.97-6.48,3.19-9.45,.27-.43,.76-.59,1.19-.59,1.03,0,1.57,.76,1.57,1.57,0,.27-.11,.59-.27,.86-1.57,2-2.11,4.32-2.48,6.75,.59,.05,1.24,.16,1.89,.43,1.57-2.81,3.83-4.81,6.1-6.64,1.89-1.51,4.86-3.83,6.37-5.72C22.95,3.17,26.08,.3,29.48,.3c.86,0,1.51,.7,1.51,1.57,0,.81-.54,1.4-1.35,1.46-2.75,.27-4.7,2.05-6.26,3.94-3.62,4.16-9.61,7.29-12.2,11.77,1.13,.92,2.05,2.11,2.86,3.62,1.4,2.92,4.64,6.53,6.37,9.94,.81,2,2.54,2.05,5.4,2.05l1.08-.05c.86,.05,1.57,.76,1.57,1.62,0,.81-.7,1.4-1.57,1.4h-1.03c-.16,0-.27,0-.38,.05-.16,.05-.27,.05-.43,.05-3.02,0-5.99-.54-7.51-3.94-1.24-2.81-4.86-6.64-6.26-9.72-1.13-2.32-2.81-3.67-5.02-3.89-.22,1.24-.49,2.48-.86,3.73-.81,2.16-1.03,4.75-1.4,7.34,.05,.22,.11,.38,.11,.49v.43c-.05,.16-.05,.27-.05,.38,0,1.67,.86,2,3.73,2.38l.38,.05c.7,.16,1.24,.76,1.24,1.46,0,.86-.65,1.62-1.46,1.62-.11,0-.16,0-.22-.05Zm-.43-32.94L2.97,3.22c-.65-.27-.97-.76-.97-1.46C2,.84,2.81,.3,3.51,.3c.16,0,.38,.05,.65,.11l4.37,1.78c.59,.27,.92,.92,.92,1.51,0,.81-.7,1.46-1.51,1.46-.22,0-.38-.05-.65-.11Z"/><path class="cls-1" d="M46.62,21.25c0,7.34-6.16,15.98-12.26,15.98-3.29,0-5.18-1.84-5.18-6.43,0-5.24,2.92-11.12,7.45-14.36,1.78-1.3,3.29-2,4.75-2,1.78,0,3.24,.97,4.37,2.97,.59,1.08,.86,2.38,.86,3.83Zm-14.36,9.18c0,1.94,.27,3.51,2.38,3.51,4.54,0,8.91-7.34,8.91-12.47,0-2.32-1.24-3.78-2.32-3.78-.81,0-1.84,.43-3.08,1.35-3.4,2.43-5.89,7.4-5.89,11.39Z"/><path class="cls-1" d="M62.69,32.46c0,1.13-2.59,2.97-4.48,2.97-.16,0-.32,0-.38-.05-.22,1.13-.38,2.16-1.62,2.16-1.03,0-1.51-.86-1.51-1.73,.76-5.83,4.32-12.53,5.51-17.93-.86,.05-1.57,.27-2.11,.65-6.1,4.59-8.75,9.02-8.8,14.42,0,.38,0,.7,.05,1.03,.05,.32,.05,.65,.05,1.03,0,.81-.65,1.46-1.46,1.46-1.62,0-1.62-1.89-1.62-3.51,0-7.94,4.75-12.85,9.99-16.79,1.67-1.3,3.08-1.13,4.75-1.3l.92-.05c1.03-.05,1.46,.86,1.46,1.73-.38,2.81-1.24,5.51-2.21,8.1-.76,2.11-2.11,5.62-2.7,7.72,.7-.38,1.57-1.4,2.65-1.4,.81,0,1.51,.65,1.51,1.51Z"/><path class="cls-1" d="M83.23,21.25c0,7.34-6.16,15.98-12.26,15.98-3.29,0-5.18-1.84-5.18-6.43,0-5.24,2.92-11.12,7.45-14.36,1.78-1.3,3.29-2,4.75-2,1.78,0,3.24,.97,4.37,2.97,.59,1.08,.86,2.38,.86,3.83Zm-14.36,9.18c0,1.94,.27,3.51,2.38,3.51,4.54,0,8.91-7.34,8.91-12.47,0-2.32-1.24-3.78-2.32-3.78-.81,0-1.84,.43-3.08,1.35-3.4,2.43-5.89,7.4-5.89,11.39Z"/><path class="cls-1" d="M107.81,3.62c2.54-.43,6.48-.11,6.48-2,0-1.24-.86-1.62-2.11-1.62-1.4,0-2.75,.11-4.05,.38-1.3,.27-2.59,.38-3.83,.38-.49,0-1.03-.05-1.51-.22s-.92-.22-1.4-.22c-.81,0-1.51,.7-1.51,1.62,0,1.73,2.81,2,4.48,2h.22c-.23,1.05-.52,2.08-.85,3.11-.45,.18-.72,.55-.8,1.11-.16,.91-.39,1.88-.66,2.88-.51,1.28-1.05,2.56-1.58,3.86-1.24-.49-2.7-.7-3.62-.7-6.91,0-12.74,8.42-12.74,14.74,0,5.24,2.65,8.42,8.53,9.45-.15,.5-.27,1-.39,1.5-1.08,2.72-2.08,5.51-2.66,8.71-2.54,.43-6.48,.11-6.48,2,0,1.24,.86,1.62,2.11,1.62,1.4,0,2.75-.11,4.05-.38,1.3-.27,2.59-.38,3.83-.38,.49,0,1.03,.05,1.51,.22,.49,.16,.92,.22,1.4,.22,.81,0,1.51-.7,1.51-1.62,0-1.73-2.81-2-4.48-2h-.22c.81-3.73,2.38-7.29,3.89-10.96,1.24,.49,2.7,.7,3.62,.7,6.91,0,12.74-8.42,12.74-14.74,0-5.24-2.65-8.42-8.53-9.45,.14-.5,.27-1,.39-1.5,1.08-2.72,2.08-5.51,2.66-8.71Zm-20.41,26.3c0-6.86,5.4-12.58,9.61-12.58,.81,0,1.62,.38,2.43,.76-.59,1.51-1.03,2.97-1.4,4.54-.54,2.21-1.19,4.32-2,6.43-.76,2.05-1.51,4.16-2.21,6.32-4.91-.76-6.43-3.02-6.43-5.45Zm22.81-7.61c0,6.86-5.4,12.58-9.61,12.58-.81,0-1.62-.38-2.43-.76,.59-1.51,1.03-2.97,1.4-4.54,.54-2.21,1.19-4.32,2-6.43,.76-2.05,1.51-4.16,2.21-6.32,4.91,.76,6.43,3.02,6.43,5.45Z"/><path class="cls-1" d="M131.89,21.25c0,7.34-6.16,15.98-12.26,15.98-3.29,0-5.18-1.84-5.18-6.43,0-5.24,2.92-11.12,7.45-14.36,1.78-1.3,3.29-2,4.75-2,1.78,0,3.24,.97,4.37,2.97,.59,1.08,.86,2.38,.86,3.83Zm-14.36,9.18c0,1.94,.27,3.51,2.38,3.51,4.54,0,8.91-7.34,8.91-12.47,0-2.32-1.24-3.78-2.32-3.78-.81,0-1.84,.43-3.08,1.35-3.4,2.43-5.89,7.4-5.89,11.39Z"/><path class="cls-1" d="M150.97,16.86c-.1,2.74-1.97,5.02-2.82,7.59h-9.24c.62-3.17,.96-6.37,.8-9.59-.08-1.76-2.83-1.77-2.74,0,.16,3.24-.21,6.46-.87,9.63-1.11,.26-1.3,1.76-.55,2.43-.74,2.97-1.68,5.89-2.62,8.76-.55,1.68,2.09,2.4,2.64,.73,.99-2.99,1.96-6.05,2.72-9.15h9.39c-.06,1.2-.02,2.41-.18,3.61-.24,1.76-.81,3.38-1.88,4.81-.45,.6-.09,1.53,.49,1.88,.7,.42,1.43,.1,1.88-.49,1.1-1.47,1.77-3.2,2.08-5.01,.32-1.85,.21-3.7,.4-5.56,.16-1.63,1.05-3.12,1.75-4.57,.78-1.62,1.43-3.24,1.5-5.06,.06-1.76-2.68-1.76-2.74,0Z"/></g></svg>