<?xml version="1.0" encoding="UTF-8"?><svg id="Layer_2" xmlns="http://www.w3.org/2000/svg" viewBox="0 0 775.71 75.82"><defs><style>.cls-1{fill:#686932;}</style></defs><g id="Layer_1-2"><g><path class="cls-1" d="M34.18,18.58c.79,0,1.33,.18,1.62,.54,.29,.36,.45,.86,.49,1.51,.04,.65,0,1.41-.11,2.3s-.16,1.84-.16,2.89c0,.11-.02,.27-.05,.49-.04,.22-.08,.45-.14,.7-.05,.25-.11,.5-.16,.76s-.1,.45-.14,.59c0,.36,.02,.72,.05,1.08,.04,.29,.06,.6,.08,.94,.02,.34,.03,.62,.03,.84-.29,.29-.43,.63-.43,1.03v4.54c.07,.36,.14,.72,.22,1.08,.07,.29,.13,.61,.16,.97,.04,.36,.05,.67,.05,.92,0,.29,0,.53-.03,.73-.02,.2-.04,.42-.05,.67-.02,.25-.04,.55-.05,.89-.02,.34-.03,.78-.03,1.32,0,.11-.02,.23-.05,.38-.04,.14-.07,.27-.11,.38-.04,.14-.07,.29-.11,.43,0,.11,.02,.28,.05,.51,.04,.23,.11,.46,.22,.67,.11,.22,.24,.41,.41,.57,.16,.16,.39,.24,.67,.24,.5,0,1.03,.05,1.57,.16,.54,.11,1.12,.2,1.73,.27,.22,0,.49,.1,.84,.3,.34,.2,.51,.44,.51,.73,.04,.32,.04,.63,0,.92-.04,.25-.1,.5-.19,.76-.09,.25-.28,.45-.57,.59l-1.19-.16h-1.94c-.54,0-.99,.1-1.35,.3-.36,.2-.92,.3-1.67,.3h-1.03c-.25,0-.59,.02-1.03,.05-.43,.04-.79,.18-1.08,.43l-3.46-.49h-5.72c-.22,0-.41-.03-.59-.08-.18-.05-.27-.22-.27-.51,0-.58,.19-1.02,.57-1.32,.38-.3,.85-.53,1.43-.67,.58-.14,1.21-.26,1.89-.35,.68-.09,1.31-.22,1.89-.41,.58-.18,1.05-.44,1.43-.78,.38-.34,.57-.85,.57-1.54,0-.54-.03-.94-.08-1.21-.05-.27-.08-.76-.08-1.49l.49-3.02v-7.07c0-.5,0-.9-.03-1.19-.02-.29-.17-.43-.46-.43-.25,0-.55,.13-.89,.41-.34,.27-.67,.58-.97,.92-.31,.34-.57,.67-.78,1-.22,.32-.32,.54-.32,.65-.54,.9-1.19,1.78-1.94,2.65s-1.55,1.71-2.38,2.54c-.83,.83-1.65,1.66-2.46,2.48s-1.5,1.67-2.08,2.54c-.32,.47-.59,.87-.78,1.22-.2,.34-.41,.68-.62,1.03-.22,.34-.45,.7-.7,1.08-.25,.38-.56,.84-.92,1.38-.5,.43-1.1,1.01-1.78,1.73-.68,.72-1.3,1.33-1.84,1.84,0,.25-.27,.4-.81,.43-.54,.04-.97,.05-1.3,.05-.22,0-.46-.13-.73-.4-.27-.27-.53-.59-.78-.95-.25-.36-.46-.72-.62-1.08-.16-.36-.24-.61-.24-.76,0-.22,.02-.49,.05-.84,.04-.34,.08-.7,.14-1.08s.11-.75,.16-1.11c.05-.36,.08-.65,.08-.86v-5.24l-.27-3.02c0-.22,.04-.54,.14-.97,.09-.43,.14-.76,.14-.97v-2.54l.16-3.19v-2.54c0-.47-.1-.91-.3-1.32-.2-.41-.44-.62-.73-.62h-.92l-1.03-.76c-.4,0-.69,.02-.89,.05-.2,.04-.39,.05-.57,.03-.18-.02-.39-.07-.62-.16-.23-.09-.55-.26-.95-.51-.22-.29-.34-.54-.38-.76-.04-.22-.05-.47-.05-.76,0-.76,.31-1.3,.92-1.62,.61-.32,1.3-.49,2.05-.49s1.37,.02,1.94,.05c.58,.04,1.13,.07,1.67,.11,.54,.04,1.08,.07,1.62,.11,.54,.04,1.15,.05,1.84,.05,.29,0,.65-.03,1.08-.08,.43-.05,.86-.11,1.3-.16,.43-.05,.85-.11,1.27-.16,.41-.05,.75-.08,1-.08h1.03c.22,0,.47,0,.76,.03,.29,.02,.56,.07,.81,.16,.25,.09,.46,.24,.62,.46,.16,.22,.24,.5,.24,.86,.04-.04,.09-.02,.16,.05,.04,.07,.07,.19,.11,.35,.04,.16,.05,.39,.05,.67,0,.07-.08,.19-.24,.35-.16,.16-.37,.33-.62,.51-.25,.18-.52,.33-.81,.46-.29,.13-.54,.19-.76,.19l-1.35,.59c-.11,0-.25,.11-.43,.32-.18,.22-.37,.46-.57,.73-.2,.27-.4,.53-.59,.78-.2,.25-.37,.43-.51,.54l-.43,4.54c0,.61,.03,1.13,.08,1.57s.08,.81,.08,1.13c0,.76,0,1.34,.03,1.75,.02,.41,.03,.75,.03,1s0,.47,.03,.65c.02,.18,.03,.4,.03,.65,0,.11-.02,.33-.05,.67-.04,.34-.05,.69-.03,1.05,.02,.36,.07,.68,.16,.97,.09,.29,.26,.43,.51,.43,.36,0,.89-.38,1.59-1.13s1.4-1.6,2.11-2.54c.7-.94,1.36-1.82,1.97-2.65,.61-.83,1.03-1.33,1.24-1.51,.83-.43,1.43-.98,1.81-1.65,.38-.67,.84-1.3,1.38-1.92,.72-.76,1.51-1.67,2.38-2.73,.86-1.06,1.71-1.95,2.54-2.67,.47-.4,.95-.76,1.46-1.11,.5-.34,.88-.87,1.13-1.59,.29-.25,.49-.5,.62-.73,.13-.23,.41-.49,.84-.78,.32-.25,.65-.62,.97-1.11,.32-.49,.7-.73,1.13-.73Z"/><path class="cls-1" d="M52.22,26.41c.83-.4,1.47-.73,1.92-1,.45-.27,1.02-.44,1.7-.51,.29,0,.58-.06,.86-.19,.29-.12,.54-.15,.76-.08h1.35c1.15,.14,1.98,.6,2.48,1.38,.5,.78,.83,1.5,.97,2.19,.47,1.51,.48,2.86,.03,4.05-.45,1.19-1.25,2.25-2.4,3.19-.29,.22-.55,.42-.78,.62-.23,.2-.57,.33-1,.4-.18,.04-.34,.07-.49,.11,.04,.07,.04,.14,0,.22,0,.07,.04,.12,.11,.13,.07,.02,.14,.06,.22,.13,.32,.07,.58,.14,.78,.19,.2,.05,.38,.13,.54,.24,.16,.11,.33,.26,.51,.46,.18,.2,.41,.51,.7,.95,.47,.5,.7,.97,.7,1.4s-.09,.95-.27,1.57c0,.43-.08,.93-.24,1.48-.16,.56-.37,1.13-.62,1.73-.25,.59-.54,1.17-.86,1.73-.32,.56-.65,1.02-.97,1.38-.68,.76-1.49,1.28-2.43,1.57-.94,.29-1.82,.67-2.65,1.13-.68,.29-1.29,.46-1.81,.51-.52,.05-1,.07-1.43,.05-.43-.02-.84-.06-1.21-.13-.38-.07-.75-.11-1.11-.11-.83,0-1.51-.16-2.05-.49-.54-.32-1.01-.58-1.4-.76-.47-.14-.83-.46-1.08-.94-.25-.49-.34-.96-.27-1.43,0-.29,.04-.67,.14-1.16,.09-.49,.24-.85,.46-1.11,.29-.36,.68-.61,1.16-.76,.49-.14,.97-.19,1.46-.14,.49,.05,.92,.16,1.3,.32s.62,.35,.73,.57c.18,.29,.33,.58,.46,.89,.13,.31,.3,.58,.51,.81s.49,.4,.84,.49c.34,.09,.84,.06,1.48-.08,.54-.14,1.06-.38,1.57-.7,.5-.32,.85-.84,1.03-1.57,.11-.58,.25-1.19,.43-1.84,.18-.65,.29-1.26,.32-1.84,.04-.58-.05-1.08-.24-1.51-.2-.43-.62-.74-1.27-.92-.25-.07-.53,0-.84,.24-.31,.23-.68,.35-1.11,.35-.4,0-.74,.05-1.03,.16-.29,.11-.56-.11-.81-.65-.07-.14-.1-.33-.08-.57,.02-.23,.06-.47,.14-.7,.07-.23,.17-.44,.3-.62,.13-.18,.26-.29,.41-.32,.47-.18,.92-.33,1.35-.46,.43-.13,.88-.31,1.35-.54,.47-.23,.98-.56,1.54-.97,.56-.41,1.2-1.02,1.92-1.81,.25-.22,.42-.49,.51-.84,.09-.34,.17-.66,.24-.95-.04-.25-.06-.51-.08-.78-.02-.27-.08-.5-.19-.68-.11-.18-.3-.3-.57-.35s-.69,0-1.27,.13c-.29,0-.43,0-.43-.03s-.16-.06-.49-.14c-.5,.29-.94,.5-1.3,.65-.36,.14-.58,.34-.65,.59-.14,.22-.34,.42-.59,.62-.25,.2-.5,.33-.76,.41-.4,.43-.71,.75-.95,.94-.23,.2-.41,.32-.51,.38-.11,.05-.2,.08-.27,.08s-.14,.04-.22,.11c-.4,.07-.72,0-.97-.22-.25-.22-.38-.45-.38-.7-.07-.36-.09-.55-.05-.57,.04-.02,.05-.17,.05-.46,.29-.47,.5-.85,.65-1.16,.14-.31,.29-.56,.43-.76,.14-.2,.31-.39,.49-.57,.18-.18,.47-.41,.86-.7l1.35-1.35,1.03-.43Z"/><path class="cls-1" d="M87.64,24.31c.61,0,1.22,.14,1.81,.43s.89,.7,.89,1.24l.16,.86c.04,.18,.02,.4-.05,.67-.07,.27-.16,.55-.27,.84-.14,.36-.29,.72-.43,1.08,0,.72-.07,1.39-.22,2-.14,.61-.22,1.3-.22,2.05v.43c0,.18-.03,.39-.08,.62-.05,.23-.12,.46-.19,.67-.07,.25-.14,.52-.22,.81v.59c0,.4-.05,.72-.16,.97-.11,.25-.25,.58-.43,.97-.07,.29-.14,.61-.19,.97-.05,.36-.08,.74-.08,1.13,0,.14,0,.32,.03,.54,.02,.22,.05,.43,.11,.65,.05,.22,.15,.4,.3,.54,.14,.14,.34,.22,.59,.22,.29,0,.59-.09,.92-.27,.32-.18,.58-.38,.76-.59,.14-.18,.32-.33,.54-.46,.22-.13,.43-.19,.65-.19h1.08c.22,0,.34,.11,.38,.32,.04,.22,.05,.47,.05,.76,0,.11-.17,.35-.51,.73-.34,.38-.73,.78-1.16,1.21-.43,.43-.86,.84-1.27,1.21-.41,.38-.69,.62-.84,.73-.11,.29-.32,.71-.65,1.27-.32,.56-.69,1.13-1.11,1.7-.41,.58-.86,1.08-1.32,1.51-.47,.43-.88,.65-1.24,.65-.29,0-.58-.08-.86-.24-.29-.16-.56-.38-.81-.65-.25-.27-.46-.55-.62-.84s-.24-.58-.24-.86v-.86c0-.14-.04-.28-.11-.41-.07-.12-.14-.27-.19-.43s-.09-.36-.11-.59c-.02-.23,0-.51,.08-.84l.32-1.35v-2.54c0-.54,.07-.97,.22-1.3,.14-.32,.22-.74,.22-1.24v-.49c0-.25,.1-.83,.3-1.73,.2-.9,.42-1.87,.67-2.92,.25-1.04,.48-2.03,.68-2.97,.2-.94,.3-1.6,.3-2,0-.29-.31-.43-.92-.43-.07,.07-.22,.19-.43,.35s-.36,.39-.43,.67l-1.84,3.78c-.07,.11-.2,.34-.38,.7-.18,.36-.37,.75-.57,1.16-.2,.41-.38,.79-.54,1.13-.16,.34-.26,.55-.3,.62-.4,.61-.87,1.27-1.43,1.97-.56,.7-.98,1.29-1.27,1.75-.29,.43-.52,.78-.7,1.05-.18,.27-.35,.54-.51,.81-.16,.27-.35,.58-.57,.92-.22,.34-.52,.82-.92,1.43-.54,.76-1.13,1.53-1.78,2.32-.65,.79-1.46,1.71-2.43,2.75-.83,.76-1.55,1.32-2.16,1.7-.61,.38-1.3,.57-2.05,.57-.25,0-.53-.05-.84-.16-.31-.11-.59-.24-.86-.41s-.51-.34-.73-.54c-.22-.2-.36-.37-.43-.51-.22-.32-.4-.72-.54-1.19-.14-.47-.25-.94-.32-1.4-.07-.47-.11-.88-.11-1.24s.04-.59,.11-.7c.14-.5,.48-.88,1-1.13,.52-.25,.93-.38,1.22-.38h1.35l1.35,.76c.11,0,.19,.03,.24,.08,.05,.05,.1,.1,.14,.13,.04,.04,.11,.05,.22,.03,.11-.02,.27-.1,.49-.24,.72-.36,1.4-.87,2.05-1.54s1.24-1.38,1.78-2.13c.54-.76,1.03-1.52,1.49-2.29,.45-.77,.82-1.49,1.11-2.13l.32-.43c0-.22,.13-.45,.38-.7,.11-.14,.23-.27,.38-.38,.07-.72,.2-1.16,.38-1.32,.18-.16,.36-.37,.54-.62,.07-.14,.18-.36,.32-.65,.14-.29,.31-.58,.49-.86,.18-.32,.4-.67,.65-1.03,0-.32,.05-.59,.16-.81,.04-.14,.09-.27,.16-.38l.59-.92c0-.07,.02-.17,.05-.3,.04-.13-.04-.28-.22-.46l-1.03-.16c-.36-.25-.67-.5-.92-.76-.25-.22-.47-.42-.65-.62-.18-.2-.27-.39-.27-.57l.16-1.03c0-.18,.26-.33,.78-.46,.52-.13,1.19-.22,2-.3s1.7-.12,2.67-.14c.97-.02,1.88-.04,2.73-.05,.85-.02,1.58-.02,2.21,0,.63,.02,1.02,.03,1.16,.03Z"/><path class="cls-1" d="M104.06,24.63c.5,0,1.12,.02,1.86,.05,.74,.04,1.36,.16,1.86,.38,.54,0,.89,.22,1.05,.65,.16,.43,.37,.92,.62,1.46,.14,.14,.31,.34,.51,.59,.2,.25,.38,.51,.54,.78,.16,.27,.3,.55,.41,.84,.11,.29,.16,.54,.16,.76l-.43,4.81c0,1.01-.22,2.12-.65,3.35-.43,1.22-1.06,2.32-1.89,3.29-.29,.29-.5,.6-.62,.95-.13,.34-.25,.69-.38,1.05-.13,.36-.27,.73-.43,1.11-.16,.38-.39,.75-.68,1.11-.22,.25-.46,.56-.73,.92-.27,.36-.56,.73-.86,1.11-.31,.38-.63,.72-.97,1.03-.34,.31-.69,.53-1.05,.67-.54,.29-.99,.54-1.35,.76-.36,.22-.68,.4-.97,.54-.29,.14-.59,.24-.89,.3-.31,.05-.64,.08-1,.08-.54,0-1.04-.13-1.51-.38-.47-.25-.87-.58-1.21-1-.34-.41-.62-.88-.84-1.4-.22-.52-.32-1.05-.32-1.59v-3.62c0-.22-.07-.41-.22-.59-.14-.18-.22-.68-.22-1.51-.04-1.04,.22-2.3,.76-3.78,.54-1.48,1.18-2.92,1.92-4.35,.74-1.42,1.48-2.68,2.21-3.78,.74-1.1,1.3-1.77,1.7-2.03,.4-.25,.73-.53,1-.84,.27-.31,.53-.58,.78-.84,.25-.25,.51-.46,.78-.62s.62-.24,1.05-.24Zm.27,6.16c-.58,0-1.16,.24-1.75,.73-.59,.49-1.14,1.04-1.65,1.67-.5,.63-.95,1.26-1.35,1.89-.4,.63-.67,1.09-.81,1.38l-.54,2.05c-.14,.5-.26,.99-.35,1.46-.09,.47-.14,.76-.14,.86v1.03c.14,.11,.27,.32,.38,.65,.11,.32,.24,.65,.41,.97,.16,.32,.35,.61,.57,.86,.22,.25,.52,.38,.92,.38,.72-.32,1.39-.65,2-.97,.5-.29,1-.59,1.49-.92s.82-.65,1-.97c.22-.5,.46-1.1,.73-1.78,.27-.68,.53-1.33,.78-1.94-.07-.29,0-.58,.24-.86,.23-.29,.35-.56,.35-.81v-1.51c0-.18-.05-.49-.14-.95-.09-.45-.23-.92-.43-1.4-.2-.49-.44-.91-.73-1.27-.29-.36-.61-.54-.97-.54Z"/><path class="cls-1" d="M114.1,51.47c-.5-.11-1.02-.24-1.54-.38-.52-.14-1-.36-1.43-.65-.43-.29-.77-.66-1-1.11-.23-.45-.31-1.03-.24-1.75,0-.36,.08-.73,.24-1.11,.16-.38,.37-.72,.62-1.03,.25-.31,.51-.55,.78-.73,.27-.18,.51-.27,.73-.27,.29,.07,.51,.12,.68,.13,.16,.02,.31,.05,.46,.08,.14,.04,.27,.05,.38,.05h.49c.61,0,1.29-.02,2.02-.05,.74-.04,1.25-.16,1.54-.38,.29,0,.51-.1,.68-.3,.16-.2,.24-.41,.24-.62l.92-1.19c.07-.43,.14-.85,.22-1.24,.07-.32,.14-.65,.19-.97,.05-.32,.12-.54,.19-.65v-.92l.43-1.46c.04-.14,.07-.29,.11-.43,.07-.36,.14-.63,.22-.81,0-.32-.05-.76-.14-1.32-.09-.56-.22-1.1-.38-1.62-.16-.52-.36-.97-.59-1.35-.23-.38-.48-.58-.73-.62-.54,0-1.11,.22-1.7,.65-.59,.43-1.18,.9-1.75,1.4-.58,.5-1.13,.96-1.67,1.35-.54,.4-1.03,.56-1.46,.49-.5-.07-.79-.21-.86-.4-.07-.2-.04-.42,.11-.67,.04-.47,.24-1.03,.62-1.67,.38-.65,.83-1.27,1.35-1.86,.52-.59,1.05-1.14,1.59-1.65,.54-.5,1.01-.86,1.4-1.08,1.19-.76,2.28-1.38,3.27-1.89,.99-.5,2.04-.68,3.16-.54,.5,.04,.91,.3,1.22,.78,.31,.49,.55,1.04,.73,1.67,.18,.63,.31,1.26,.38,1.89,.07,.63,.11,1.09,.11,1.38l-.16,.43c0,.14,0,.39,.03,.73,.02,.34,.03,.71,.03,1.11v1.13c0,.36-.02,.63-.05,.81v1.46c.25-.47,.52-1.03,.81-1.67,.29-.65,.57-1.27,.84-1.86,.27-.59,.52-1.13,.76-1.62,.23-.49,.44-.82,.62-1,.25-.25,.46-.55,.62-.89,.16-.34,.32-.69,.49-1.05,.16-.36,.32-.68,.49-.97,.16-.29,.37-.5,.62-.65,.54-.25,1.12-.59,1.76-1.03,.63-.43,1.25-.65,1.86-.65h.92v.92l-2.11,14.09v.49c.4-.36,.79-.85,1.19-1.49,.4-.63,.76-1.27,1.08-1.92,.32-.65,.63-1.27,.92-1.86,.29-.59,.52-1.05,.7-1.38,.18-.14,.31-.32,.4-.54,.09-.22,.21-.43,.35-.65l1.19-3.62c0-.22,.1-.46,.3-.73,.2-.27,.44-.53,.73-.78,.29-.25,.58-.49,.89-.7,.31-.22,.57-.38,.78-.49,.14-.14,.26-.25,.35-.32,.09-.07,.18-.13,.27-.16,.09-.04,.21-.07,.35-.11,.14-.04,.32-.09,.54-.16,.54-.07,.95-.15,1.24-.24,.29-.09,.56-.18,.81-.27,.25-.09,.49-.16,.73-.22,.23-.05,.57-.06,1-.03,.47,.07,.98,.18,1.54,.32,.56,.14,1.05,.35,1.49,.62,.43,.27,.77,.63,1.03,1.08,.25,.45,.34,1.04,.27,1.75,0,.4-.08,.77-.24,1.13-.16,.36-.37,.69-.62,1-.25,.31-.51,.55-.78,.73-.27,.18-.51,.27-.73,.27-.29-.04-.53-.06-.73-.08-.2-.02-.35-.03-.46-.03h-.32l-1.35-.49c-.61-.22-1.14-.17-1.59,.13-.45,.31-.82,.57-1.11,.78-.29,0-.46,.09-.51,.27-.05,.18-.08,.4-.08,.65l-.76,1.19c-.11,.4-.23,.77-.38,1.13-.11,.29-.22,.57-.32,.84-.11,.27-.18,.46-.22,.57v.92l-.43,1.51c-.04,.22-.07,.42-.11,.59-.04,.18-.07,.34-.11,.49-.04,.14-.07,.27-.11,.38,0,.32,.05,.77,.16,1.32,.11,.56,.25,1.1,.43,1.62,.18,.52,.39,.98,.62,1.38,.23,.4,.48,.61,.73,.65,.58,0,1.15-.22,1.73-.65,.58-.43,1.14-.91,1.7-1.43,.56-.52,1.1-.99,1.62-1.4,.52-.41,1-.6,1.43-.57,.5,.07,.8,.21,.89,.41,.09,.2,.1,.41,.03,.62-.04,.5-.24,1.08-.62,1.73-.38,.65-.83,1.29-1.35,1.92-.52,.63-1.06,1.21-1.62,1.73-.56,.52-1.02,.89-1.38,1.11-1.22,.76-2.3,1.38-3.21,1.89-.92,.5-1.95,.72-3.1,.65-.5-.04-.92-.3-1.24-.78-.32-.49-.58-1.04-.76-1.67-.18-.63-.32-1.25-.41-1.86-.09-.61-.13-1.06-.13-1.35l.16-.49c0-.14-.02-.39-.05-.73-.04-.34-.06-.7-.08-1.08-.02-.38-.04-.75-.05-1.11-.02-.36,0-.63,.03-.81v-.16c-.61,.76-1.22,1.46-1.81,2.11s-1.2,1.35-1.81,2.11c-.4,.4-.71,.79-.95,1.19-.23,.4-.47,.78-.7,1.16-.23,.38-.48,.73-.73,1.05-.25,.32-.56,.59-.92,.81-.14,.14-.3,.23-.46,.27-.16,.04-.32,.05-.49,.05s-.32,.02-.46,.05c-.14,.04-.27,.11-.38,.22-.25,.29-.61,.41-1.08,.35-.47-.05-.81-.08-1.03-.08l.43-1.03,3.02-10.53,.27-2.11c.14-.47,.25-.81,.32-1.03,.07-.22,.13-.41,.16-.57,.04-.16,.07-.35,.11-.57,.04-.22,.09-.59,.16-1.13-.25,.58-.55,1.22-.89,1.92-.34,.7-.68,1.37-1.03,2-.34,.63-.67,1.19-.97,1.67-.31,.49-.55,.78-.73,.89-.25,.79-.48,1.37-.68,1.73-.2,.36-.4,.68-.59,.95-.2,.27-.41,.55-.62,.84-.22,.29-.49,.76-.81,1.4-.14,.47-.33,.91-.57,1.32-.23,.41-.39,.73-.46,.94,0,.22-.13,.49-.38,.81-.25,.32-.55,.62-.89,.89-.34,.27-.7,.5-1.08,.7-.38,.2-.69,.3-.94,.3-.22,.07-.35,.13-.41,.19-.05,.05-.08,.1-.08,.13s-.02,.07-.05,.11c-.04,.04-.16,.09-.38,.16-.54,.07-.96,.16-1.27,.27-.31,.11-.59,.21-.84,.3-.25,.09-.51,.15-.78,.19-.27,.04-.6,.04-1,0Z"/><path class="cls-1" d="M163.19,4.06c.11,0,.26-.04,.46-.14,.2-.09,.41-.2,.65-.32,.23-.13,.46-.23,.68-.32,.22-.09,.38-.13,.49-.13,.29,0,.58-.07,.89-.22,.31-.14,.6-.22,.89-.22,.36-.04,.7-.11,1.03-.22,.29-.07,.57-.16,.84-.27,.27-.11,.49-.25,.68-.43,.22-.22,.4-.43,.54-.65,.14-.22,.28-.41,.41-.57,.13-.16,.28-.29,.46-.38,.18-.09,.41-.15,.7-.19,.25-.04,.45,.1,.59,.41,.14,.31,.23,.68,.27,1.13,.04,.45,.05,.9,.05,1.35v1c0,.22-.06,.61-.19,1.19-.13,.58-.36,1.19-.7,1.84-.34,.65-.79,1.25-1.35,1.81-.56,.56-1.27,.94-2.13,1.16-.22,0-.47,.11-.76,.32-.14,.11-.29,.2-.43,.27h-.59c-.4,0-.85,.14-1.35,.43-.5,.29-1,.64-1.49,1.05-.49,.42-.89,.86-1.21,1.32-.32,.47-.49,.88-.49,1.24-.29,.25-.42,.5-.41,.76,.02,.25-.1,.61-.35,1.08-.29,.29-.53,.71-.73,1.27-.2,.56-.3,.98-.3,1.27l-.59,1.94c0,.5-.09,1.01-.27,1.51-.18,.5-.37,1.05-.57,1.65-.2,.59-.39,1.22-.57,1.89-.18,.67-.27,1.4-.27,2.19v1.03c0,.25,.05,.49,.16,.7,.04,.14,.09,.25,.16,.32,.25,0,.51-.24,.78-.73s.61-1.03,1.03-1.62c.41-.59,.92-1.14,1.51-1.65s1.34-.76,2.24-.76l1.19-.49c.83,0,1.46,.24,1.89,.73,.43,.49,.65,1.14,.65,1.97v.49l-.43,1.03c.07,.29,.14,.58,.22,.86,.07,.25,.13,.52,.16,.81,.04,.29,.05,.54,.05,.76,0,.14,0,.28-.03,.41-.02,.13-.06,.23-.14,.3-.07,.18-.14,.33-.19,.46-.05,.13-.08,.23-.08,.3,0,.14,.02,.26,.05,.35,.04,.09,.07,.21,.11,.35,.04,.14,.04,.32,.03,.54-.02,.22-.08,.5-.19,.86v1.67c0,.11-.1,.32-.3,.65-.2,.32-.42,.71-.68,1.16-.25,.45-.52,.93-.81,1.43-.29,.5-.5,.97-.65,1.4l-.59,2.38c-.65,.94-1.26,1.78-1.84,2.54-.5,.65-.98,1.28-1.43,1.89-.45,.61-.77,.99-.94,1.13-.4,.29-.7,.53-.92,.73-.22,.2-.43,.37-.65,.51-.22,.14-.49,.25-.81,.32-.32,.07-.83,.11-1.51,.11l-1.51,.43c-.29,0-.49-.08-.59-.24-.11-.16-.18-.38-.22-.65-.04-.27-.07-.57-.11-.89-.04-.32-.13-.63-.27-.92,0-.14-.05-.32-.16-.54-.11-.22-.2-.43-.27-.65-.25-.29-.5-.56-.73-.81-.23-.25-.35-.58-.35-.97,0-.11,.03-.28,.08-.51,.05-.23,.12-.46,.19-.67,.11-.25,.22-.52,.32-.81v-1.62l.49-4.97v-1.03l1.03-5.13v-1.94c0-.29,.1-.89,.3-1.81,.2-.92,.3-2.01,.3-3.27v-1.51l1.51-6.64c0-.25,.03-.59,.08-1.03,.05-.43,.12-.86,.19-1.3,.11-.5,.22-1.03,.32-1.57l.49-1.51c.07-.5,.25-1.02,.54-1.54,.29-.52,.65-1.16,1.08-1.92,.32-.5,.74-.94,1.24-1.3,.5-.36,.99-.67,1.46-.92,.54-.29,1.1-.54,1.67-.76Zm-2.11,26.57c-.32,0-.66,.18-1,.54-.34,.36-.68,.82-1.03,1.38-.34,.56-.66,1.17-.95,1.84-.29,.67-.55,1.31-.78,1.94-.23,.63-.41,1.19-.54,1.67-.13,.49-.19,.84-.19,1.05v2.05c0,.4,.04,.74,.11,1.03,.07,.25,.14,.48,.22,.68,.07,.2,.2,.3,.38,.3h.65c.5-.18,1.05-.5,1.65-.97,.59-.47,1.14-1,1.65-1.59,.5-.59,.93-1.2,1.27-1.81,.34-.61,.51-1.17,.51-1.67v-2.54l-.27-1.03,.27-.92c0-1.3-.65-1.94-1.94-1.94Z"/><path class="cls-1" d="M178.9,24.9c.32,0,.56,.18,.7,.54,.14,.36,.22,.68,.22,.97-.65,2.27-1.22,4.34-1.73,6.21-.22,.79-.43,1.58-.65,2.35s-.41,1.48-.57,2.13-.29,1.2-.38,1.65c-.09,.45-.14,.75-.14,.89,0,.25-.05,.67-.14,1.24-.09,.58-.09,1.11,0,1.59,.09,.49,.32,.81,.7,.97,.38,.16,1.03-.06,1.97-.67,.07-.18,.31-.41,.7-.7,.4-.29,.83-.65,1.3-1.08,.29-.29,.47-.58,.54-.89,.07-.31,.18-.46,.32-.46,0-.29,.13-.56,.38-.81,.25-.25,.38-.49,.38-.7,.07-.25,.27-.72,.59-1.4s.68-1.51,1.08-2.48c.32-.68,.63-1.42,.92-2.21,.29-.79,.54-1.57,.76-2.32,.22-.76,.39-1.45,.51-2.08,.13-.63,.19-1.14,.19-1.54s.09-.7,.27-.92c.18-.22,.41-.38,.68-.49,.27-.11,.55-.17,.84-.19,.29-.02,.54-.03,.76-.03h1.24c.43,0,.78,.22,1.05,.65s.41,.92,.41,1.46c0,.11-.05,.44-.14,1-.09,.56-.2,1.2-.32,1.92-.13,.72-.28,1.46-.46,2.21-.18,.76-.36,1.39-.54,1.89-.76,1.62-1.49,3.23-2.21,4.83-.72,1.6-1.08,3.16-1.08,4.67,0,.18,.07,.38,.22,.59,.07,.11,.14,.2,.22,.27,.47,0,.95-.14,1.43-.43,.49-.29,.92-.59,1.3-.92s.71-.63,1-.92c.29-.29,.49-.43,.59-.43s.22,.05,.35,.16c.13,.11,.24,.22,.35,.32,.14,.14,.27,.29,.38,.43,0,.14-.17,.5-.51,1.05-.34,.56-.74,1.15-1.19,1.78-.45,.63-.88,1.21-1.3,1.75-.41,.54-.68,.86-.78,.97-.36,.25-.68,.48-.95,.67-.27,.2-.51,.4-.73,.59s-.44,.43-.68,.7c-.23,.27-.5,.6-.78,1-.47,.47-.95,.79-1.46,.97-.5,.18-1.03,.27-1.57,.27-.25,0-.5-.08-.73-.24-.23-.16-.44-.36-.62-.59-.18-.23-.32-.49-.43-.76-.11-.27-.16-.49-.16-.67v-1.51c.14-.43,.29-.86,.43-1.3,.11-.36,.22-.74,.32-1.13,.11-.4,.16-.74,.16-1.03,0-.22-.03-.44-.08-.68-.05-.23-.23-.35-.51-.35-.22,0-.47,.13-.76,.41-.29,.27-.58,.58-.86,.92-.29,.34-.56,.67-.81,1-.25,.32-.45,.54-.59,.65-.22,.29-.61,.73-1.19,1.32-.58,.59-1.19,1.19-1.84,1.78-.65,.59-1.27,1.12-1.86,1.59-.59,.47-1.02,.7-1.27,.7-.22,0-.43-.1-.65-.3-.22-.2-.41-.43-.57-.7-.16-.27-.3-.54-.41-.81-.11-.27-.16-.46-.16-.57v-1.51c0-.29,.02-.58,.05-.86,.04-.25,.06-.5,.08-.76,.02-.25,.03-.47,.03-.65,0-.22,.04-.51,.14-.89,.09-.38,.14-.82,.14-1.32,0-.47,.06-.95,.19-1.46,.13-.5,.22-.88,.3-1.13l.43-2.05c.07-.25,.26-.68,.57-1.3,.31-.61,.46-1.44,.46-2.48,0-.5,.02-.86,.05-1.05,.04-.2-.18-.3-.65-.3-.22,0-.44,.04-.68,.11-.23,.07-.55,.18-.95,.32-.29,.18-.58,.32-.86,.43-.29,.11-.5,.16-.65,.16-.22,0-.45-.13-.7-.41-.25-.27-.38-.62-.38-1.05s.11-.76,.32-1c.22-.23,.48-.43,.78-.59,.31-.16,.6-.32,.89-.49,.29-.16,.49-.37,.59-.62,.47-.36,1.03-.87,1.67-1.54,.65-.67,1.31-1.32,2-1.97,.68-.65,1.34-1.21,1.97-1.67,.63-.47,1.2-.7,1.7-.7h1.03Z"/><path class="cls-1" d="M195.31,42.61c0-.5,.23-.83,.7-.97,.47-.14,.94-.36,1.4-.65,.14-.11,.26-.27,.35-.49,.09-.22,.18-.41,.27-.59,.09-.18,.2-.33,.32-.46,.13-.13,.3-.17,.51-.13,.32,0,.58,.07,.76,.22,.18,.14,.38,.32,.59,.54,1.01,.68,1.61,1.48,1.81,2.38,.2,.9,.3,1.96,.3,3.19,0,.54-.06,1.02-.19,1.43-.13,.41-.3,.82-.51,1.21-.22,.4-.46,.79-.73,1.19s-.53,.81-.78,1.24c-.61,.94-1.19,1.69-1.73,2.27-.54,.58-1.28,1.13-2.21,1.67-.68,.36-1.32,.75-1.92,1.16-.59,.41-1.21,.79-1.84,1.13-.63,.34-1.28,.62-1.94,.84-.67,.22-1.41,.32-2.24,.32-.07,0-.17-.04-.3-.11-.13-.07-.26-.14-.41-.22-.14-.11-.31-.22-.49-.32,.11-.47,.31-.86,.59-1.19,.29-.32,.63-.61,1.03-.86,.4-.25,.8-.5,1.21-.73,.41-.24,.82-.5,1.22-.78,.76-.58,1.49-1.12,2.19-1.62,.7-.5,1.34-1.04,1.92-1.62,.58-.58,1.03-1.21,1.38-1.92,.34-.7,.51-1.54,.51-2.51,0-.36-.09-.67-.27-.95-.18-.27-.39-.53-.62-.78-.23-.25-.44-.52-.62-.81-.18-.29-.27-.65-.27-1.08Z"/><path class="cls-1" d="M245.26,24.31c.61,0,1.22,.14,1.81,.43s.89,.7,.89,1.24l.16,.86c.04,.18,.02,.4-.05,.67-.07,.27-.16,.55-.27,.84-.14,.36-.29,.72-.43,1.08,0,.72-.07,1.39-.22,2-.14,.61-.22,1.3-.22,2.05v.43c0,.18-.03,.39-.08,.62-.05,.23-.12,.46-.19,.67-.07,.25-.14,.52-.22,.81v.59c0,.4-.05,.72-.16,.97-.11,.25-.25,.58-.43,.97-.07,.29-.14,.61-.19,.97-.05,.36-.08,.74-.08,1.13,0,.14,0,.32,.03,.54,.02,.22,.05,.43,.11,.65,.05,.22,.15,.4,.3,.54,.14,.14,.34,.22,.59,.22,.29,0,.59-.09,.92-.27,.32-.18,.58-.38,.76-.59,.14-.18,.32-.33,.54-.46,.22-.13,.43-.19,.65-.19h1.08c.22,0,.34,.11,.38,.32,.04,.22,.05,.47,.05,.76,0,.11-.17,.35-.51,.73-.34,.38-.73,.78-1.16,1.21-.43,.43-.86,.84-1.27,1.21-.41,.38-.69,.62-.84,.73-.11,.29-.32,.71-.65,1.27-.32,.56-.69,1.13-1.11,1.7-.41,.58-.86,1.08-1.32,1.51-.47,.43-.88,.65-1.24,.65-.29,0-.58-.08-.86-.24-.29-.16-.56-.38-.81-.65-.25-.27-.46-.55-.62-.84s-.24-.58-.24-.86v-.86c0-.14-.04-.28-.11-.41-.07-.12-.14-.27-.19-.43s-.09-.36-.11-.59c-.02-.23,0-.51,.08-.84l.32-1.35v-2.54c0-.54,.07-.97,.22-1.3,.14-.32,.22-.74,.22-1.24v-.49c0-.25,.1-.83,.3-1.73,.2-.9,.42-1.87,.67-2.92,.25-1.04,.48-2.03,.68-2.97,.2-.94,.3-1.6,.3-2,0-.29-.31-.43-.92-.43-.07,.07-.22,.19-.43,.35s-.36,.39-.43,.67l-1.84,3.78c-.07,.11-.2,.34-.38,.7-.18,.36-.37,.75-.57,1.16-.2,.41-.38,.79-.54,1.13-.16,.34-.26,.55-.3,.62-.4,.61-.87,1.27-1.43,1.97-.56,.7-.98,1.29-1.27,1.75-.29,.43-.52,.78-.7,1.05-.18,.27-.35,.54-.51,.81-.16,.27-.35,.58-.57,.92-.22,.34-.52,.82-.92,1.43-.54,.76-1.13,1.53-1.78,2.32-.65,.79-1.46,1.71-2.43,2.75-.83,.76-1.55,1.32-2.16,1.7-.61,.38-1.3,.57-2.05,.57-.25,0-.53-.05-.84-.16-.31-.11-.59-.24-.86-.41s-.51-.34-.73-.54c-.22-.2-.36-.37-.43-.51-.22-.32-.4-.72-.54-1.19-.14-.47-.25-.94-.32-1.4-.07-.47-.11-.88-.11-1.24s.04-.59,.11-.7c.14-.5,.48-.88,1-1.13,.52-.25,.93-.38,1.22-.38h1.35l1.35,.76c.11,0,.19,.03,.24,.08,.05,.05,.1,.1,.14,.13,.04,.04,.11,.05,.22,.03,.11-.02,.27-.1,.49-.24,.72-.36,1.4-.87,2.05-1.54s1.24-1.38,1.78-2.13c.54-.76,1.03-1.52,1.49-2.29,.45-.77,.82-1.49,1.11-2.13l.32-.43c0-.22,.13-.45,.38-.7,.11-.14,.23-.27,.38-.38,.07-.72,.2-1.16,.38-1.32,.18-.16,.36-.37,.54-.62,.07-.14,.18-.36,.32-.65,.14-.29,.31-.58,.49-.86,.18-.32,.4-.67,.65-1.03,0-.32,.05-.59,.16-.81,.04-.14,.09-.27,.16-.38l.59-.92c0-.07,.02-.17,.05-.3,.04-.13-.04-.28-.22-.46l-1.03-.16c-.36-.25-.67-.5-.92-.76-.25-.22-.47-.42-.65-.62-.18-.2-.27-.39-.27-.57l.16-1.03c0-.18,.26-.33,.78-.46,.52-.13,1.19-.22,2-.3s1.7-.12,2.67-.14c.97-.02,1.88-.04,2.73-.05,.85-.02,1.58-.02,2.21,0,.63,.02,1.02,.03,1.16,.03Z"/><path class="cls-1" d="M262.87,24.63c.76,0,1.39,.14,1.92,.41,.52,.27,.94,.64,1.27,1.11s.56,1.01,.7,1.62c.14,.61,.2,1.26,.16,1.94,0,.97-.36,1.75-1.08,2.35-.72,.59-1.46,1.11-2.21,1.54-.68,.47-1.41,.88-2.19,1.24-.77,.36-1.49,.76-2.16,1.19-.67,.43-1.22,.94-1.67,1.51-.45,.58-.69,1.31-.73,2.21v2.27c-.07,.61,.05,1.21,.38,1.81s.74,.89,1.24,.89c.04,.04,.18-.02,.43-.16,.25-.14,.53-.32,.84-.51,.31-.2,.61-.4,.92-.62,.31-.22,.53-.38,.67-.49,.54-.25,.96-.46,1.27-.62,.31-.16,.53-.21,.68-.13,.25,0,.47,.04,.65,.11,.18,.07,.27,.34,.27,.81-.07,.79-.41,1.56-1.03,2.29-.61,.74-1.28,1.42-2,2.05-.72,.63-1.42,1.18-2.11,1.65-.68,.47-1.13,.81-1.35,1.03-.61,.54-1.18,.83-1.7,.86-.52,.04-1.05,.05-1.59,.05-.32-.04-.66-.18-1-.43-.34-.25-.65-.55-.92-.89-.27-.34-.48-.69-.62-1.05-.14-.36-.2-.67-.16-.92v-.92c0-.25-.07-.52-.22-.81-.07-.14-.14-.27-.22-.38l.16-1.08v-.86c0-.14,.04-.53,.11-1.16,.07-.63,.16-1.31,.27-2.05,.11-.74,.21-1.44,.3-2.11,.09-.67,.15-1.11,.19-1.32,.14-.11,.22-.22,.22-.32s-.02-.22-.05-.32c-.04-.11-.05-.24-.05-.41s.07-.35,.22-.57c0-.43,.09-.88,.27-1.35,.11-.25,.22-.5,.32-.76l.76-1.78c.07-.79,.45-1.61,1.13-2.46,.68-.84,1.49-1.61,2.4-2.29,.92-.68,1.86-1.23,2.83-1.65s1.8-.58,2.48-.51Zm-2.43,4.05c-.18,0-.36,.13-.54,.4-.18,.27-.36,.57-.54,.89-.18,.4-.36,.81-.54,1.24-.04,.18-.09,.39-.16,.62-.07,.24-.13,.45-.16,.65-.04,.2-.02,.36,.05,.49,.07,.13,.22,.19,.43,.19,.18,.04,.45,0,.81-.11,.36-.11,.73-.27,1.11-.49,.38-.22,.72-.48,1.03-.78,.31-.31,.48-.64,.51-1v-.92c0-.18-.05-.34-.16-.49-.11-.14-.23-.25-.38-.32-.14-.11-.32-.2-.54-.27l-.92-.11Z"/><path class="cls-1" d="M267.19,33.76c-.29,.07-.49-.08-.59-.46s-.05-.82,.16-1.32c.14-.32,.39-.7,.73-1.13,.34-.43,.75-.87,1.21-1.32,.47-.45,.97-.88,1.51-1.3,.54-.41,1.1-.76,1.67-1.05,.32-.36,.65-.68,.97-.97,.29-.25,.59-.48,.92-.67,.32-.2,.63-.3,.92-.3,.54,0,.97,.17,1.3,.51,.32,.34,.45,.82,.38,1.43l-2.11,12.74v.49c.43-.36,.84-.85,1.22-1.49,.38-.63,.74-1.27,1.08-1.92,.34-.65,.65-1.27,.92-1.86,.27-.59,.49-1.05,.67-1.38,.18-.14,.31-.32,.41-.54,.09-.22,.21-.43,.35-.65l1.19-3.62c0-.22,.1-.46,.3-.73,.2-.27,.44-.53,.73-.78,.29-.25,.58-.49,.89-.7,.31-.22,.57-.38,.78-.49,.14-.14,.27-.25,.38-.32,.11-.07,.21-.13,.3-.16,.09-.04,.2-.07,.32-.11,.13-.04,.3-.09,.51-.16,.54-.07,.95-.15,1.24-.24,.29-.09,.56-.18,.81-.27,.25-.09,.49-.16,.73-.22,.23-.05,.57-.06,1-.03,.47,.07,.98,.18,1.54,.32,.56,.14,1.05,.35,1.49,.62,.43,.27,.77,.63,1.03,1.08,.25,.45,.34,1.04,.27,1.75,0,.4-.08,.77-.24,1.13-.16,.36-.36,.69-.59,1-.23,.31-.5,.55-.78,.73-.29,.18-.54,.27-.76,.27-.29-.04-.53-.06-.73-.08-.2-.02-.35-.03-.46-.03h-.32l-1.35-.49c-.61-.22-1.14-.17-1.59,.13-.45,.31-.82,.57-1.11,.78-.29,0-.46,.09-.51,.27-.05,.18-.08,.4-.08,.65l-.76,1.19c-.11,.4-.23,.77-.38,1.13-.11,.29-.22,.57-.32,.84-.11,.27-.18,.46-.22,.57v.92l-.43,1.51c-.04,.22-.07,.42-.11,.59-.04,.18-.07,.34-.11,.49-.04,.14-.07,.27-.11,.38,0,.32,.05,.77,.16,1.32,.11,.56,.25,1.1,.43,1.62,.18,.52,.39,.98,.62,1.38,.23,.4,.49,.61,.78,.65,.54,0,1.1-.22,1.67-.65,.58-.43,1.14-.91,1.7-1.43,.56-.52,1.1-.99,1.62-1.4,.52-.41,1-.6,1.43-.57,.54,.07,.85,.21,.92,.41,.07,.2,.07,.41,0,.62-.04,.5-.24,1.08-.62,1.73-.38,.65-.83,1.29-1.35,1.92-.52,.63-1.06,1.21-1.62,1.73-.56,.52-1.02,.89-1.38,1.11-1.19,.76-2.25,1.38-3.19,1.89-.94,.5-1.98,.72-3.13,.65-.5-.04-.92-.3-1.24-.78-.32-.49-.58-1.04-.76-1.67-.18-.63-.32-1.25-.41-1.86-.09-.61-.14-1.06-.14-1.35l.16-.49c0-.14-.02-.39-.05-.73-.04-.34-.06-.7-.08-1.08-.02-.38-.04-.75-.05-1.11-.02-.36,0-.63,.03-.81v-.16c-.61,.76-1.16,1.46-1.65,2.11-.49,.65-1.04,1.35-1.65,2.11-.4,.4-.68,.81-.86,1.24-.18,.43-.34,.85-.49,1.24-.14,.4-.32,.77-.51,1.13-.2,.36-.48,.65-.84,.86-.29,.29-.57,.38-.84,.27-.27-.11-.55-.09-.84,.05-.18,.07-.41,.13-.7,.16-.29,.04-.57,.04-.84,0-.27-.04-.5-.13-.7-.27-.2-.14-.3-.36-.3-.65,.14-.32,.38-.92,.7-1.78s.66-1.82,1-2.86c.34-1.04,.65-2.1,.92-3.16,.27-1.06,.44-1.97,.51-2.73l.32-2.11c.14-.47,.23-.81,.27-1.03,.04-.22,.05-.41,.05-.57v-.57c0-.22,.04-.59,.11-1.13,0-.18-.02-.34-.05-.49-.07-.36-.25-.54-.54-.54-.18,.07-.42,.16-.73,.27-.31,.11-.62,.22-.95,.32-.4,.14-.79,.29-1.19,.43Z"/><path class="cls-1" d="M311.79,60.81c.18,.22,.4,.52,.65,.92,.25,.4,.49,.74,.7,1.03,.29,.43,.48,.91,.57,1.43,.09,.52,.1,1.03,.03,1.54,0,.07-.03,.3-.08,.7-.05,.4-.13,.82-.22,1.27-.09,.45-.2,.87-.32,1.27-.13,.4-.26,.63-.41,.7-.47,.5-.88,1-1.24,1.49-.36,.49-.85,.98-1.46,1.49-.25,.07-.57,.22-.95,.46-.38,.23-.73,.39-1.05,.46-.97,.22-2.01,.4-3.1,.57-1.1,.16-1.95,.12-2.56-.13-.76-.29-1.4-.45-1.92-.49-.52-.04-.98-.16-1.38-.38-.76-.65-1.3-1.34-1.62-2.08-.32-.74-.44-1.42-.35-2.05,.09-.63,.35-1.15,.78-1.57,.43-.41,1.03-.62,1.78-.62,.32,0,.68,.13,1.05,.4,.38,.27,.82,.58,1.32,.95,.5,.36,1.12,.73,1.86,1.11,.74,.38,1.63,.66,2.67,.84,.22-.07,.57-.05,1.05,.08,.49,.12,.87,.04,1.16-.24,.25-.22,.44-.39,.57-.51,.13-.13,.19-.3,.19-.51,0-.29,.02-.67,.05-1.13,.04-.47-.18-.85-.65-1.13l-.92-1.03c-.29-.07-.62-.39-1-.95-.38-.56-.69-1.14-.94-1.75-.25-.61-.43-1.16-.54-1.65-.11-.49-.14-.98-.11-1.49,.04-.5,.13-1.05,.27-1.65,.14-.59,.32-1.31,.54-2.13,.11-.18,.2-.33,.27-.46,.07-.13,.14-.25,.22-.38,.07-.13,.16-.29,.27-.49,.11-.2,.25-.46,.43-.78,.4-.68,.84-1.36,1.32-2.03,.49-.67,.85-1.2,1.11-1.59,.22-.47,.27-.84,.16-1.11-.11-.27-.36-.15-.76,.35-.47,.47-1.06,.94-1.78,1.4-.72,.47-1.33,.7-1.84,.7s-.78-.22-.84-.67-.08-.87-.08-1.27v-1.51c.14-.43,.29-.86,.43-1.3,.11-.36,.22-.74,.32-1.13,.11-.4,.16-.74,.16-1.03,0-.22-.03-.44-.08-.68-.05-.23-.23-.35-.51-.35-.22,0-.47,.13-.76,.41-.29,.27-.58,.58-.86,.92-.29,.34-.56,.67-.81,1-.25,.32-.45,.54-.59,.65-.22,.29-.61,.73-1.19,1.32-.58,.59-1.19,1.19-1.84,1.78-.65,.59-1.27,1.12-1.86,1.59-.59,.47-1.02,.7-1.27,.7-.22,0-.43-.1-.65-.3-.22-.2-.41-.43-.57-.7-.16-.27-.3-.54-.41-.81-.11-.27-.16-.46-.16-.57v-1.51c0-.29,.02-.58,.05-.86,.04-.25,.06-.5,.08-.76,.02-.25,.03-.47,.03-.65,0-.22,.04-.51,.14-.89,.09-.38,.14-.82,.14-1.32,0-.47,.06-.95,.19-1.46,.13-.5,.22-.88,.3-1.13l.43-2.05c.07-.25,.26-.68,.57-1.3,.31-.61,.46-1.44,.46-2.48,0-.5,.02-.86,.05-1.05,.04-.2-.18-.3-.65-.3-.22,0-.44,.04-.68,.11-.23,.07-.55,.18-.95,.32-.29,.18-.58,.32-.86,.43-.29,.11-.5,.16-.65,.16-.22,0-.45-.13-.7-.41-.25-.27-.38-.62-.38-1.05s.11-.76,.32-1c.22-.23,.48-.43,.78-.59,.31-.16,.6-.32,.89-.49,.29-.16,.49-.37,.59-.62,.47-.36,1.03-.87,1.67-1.54,.65-.67,1.31-1.32,2-1.97,.68-.65,1.34-1.21,1.97-1.67,.63-.47,1.2-.7,1.7-.7h1.03c.32,0,.56,.18,.7,.54,.14,.36,.22,.68,.22,.97-.65,2.27-1.22,4.34-1.73,6.21-.22,.79-.43,1.58-.65,2.35s-.41,1.48-.57,2.13-.29,1.2-.38,1.65c-.09,.45-.14,.75-.14,.89,0,.25-.05,.67-.14,1.24-.09,.58-.09,1.11,0,1.59,.09,.49,.32,.81,.7,.97,.38,.16,1.03-.06,1.97-.67,.07-.18,.31-.41,.7-.7,.4-.29,.83-.65,1.3-1.08,.29-.29,.47-.58,.54-.89,.07-.31,.18-.46,.32-.46,0-.29,.13-.56,.38-.81,.25-.25,.38-.49,.38-.7,.07-.25,.27-.72,.59-1.4s.68-1.51,1.08-2.48c.32-.68,.63-1.42,.92-2.21,.29-.79,.54-1.57,.76-2.32,.22-.76,.39-1.45,.51-2.08,.13-.63,.19-1.14,.19-1.54s.09-.7,.27-.92c.18-.22,.41-.38,.68-.49,.27-.11,.55-.17,.84-.19,.29-.02,.54-.03,.76-.03h1.24c.43,0,.78,.22,1.05,.65s.41,.92,.41,1.46c0,.11-.05,.44-.14,1-.09,.56-.2,1.2-.32,1.92-.13,.72-.28,1.46-.46,2.21-.18,.76-.36,1.39-.54,1.89-.76,1.62-1.49,3.23-2.21,4.83-.72,1.6-1.08,3.16-1.08,4.67,0,.18,.07,.38,.22,.59,.07,.11,.14,.2,.22,.27,.47,0,.95-.14,1.43-.43,.49-.29,.92-.59,1.3-.92s.71-.63,1-.92c.29-.29,.49-.43,.59-.43s.2,.06,.27,.19c.07,.13,.14,.26,.22,.41,.07,.18,.13,.38,.16,.59,0,.18-.07,.5-.22,.97-.14,.47-.49,1.04-1.03,1.73-.18,.58-.41,1.17-.68,1.78s-.54,1.2-.81,1.75c-.27,.56-.52,1.06-.76,1.51-.23,.45-.42,.78-.57,1-.11,.14-.23,.36-.35,.65-.13,.29-.24,.59-.35,.92-.11,.32-.22,.65-.32,.97-.11,.32-.22,.58-.32,.76-.68,1.58-.79,2.68-.32,3.29,.18,.61,.38,1.21,.59,1.78,.22,.58,.47,.99,.76,1.24Z"/><path class="cls-1" d="M327.07,24.9c.32,0,.56,.18,.7,.54,.14,.36,.22,.68,.22,.97-.65,2.27-1.22,4.34-1.73,6.21-.22,.79-.43,1.58-.65,2.35s-.41,1.48-.57,2.13-.29,1.2-.38,1.65c-.09,.45-.14,.75-.14,.89,0,.25-.05,.67-.14,1.24-.09,.58-.09,1.11,0,1.59,.09,.49,.32,.81,.7,.97,.38,.16,1.03-.06,1.97-.67,.07-.18,.31-.41,.7-.7,.4-.29,.83-.65,1.3-1.08,.29-.29,.47-.58,.54-.89,.07-.31,.18-.46,.32-.46,0-.29,.13-.56,.38-.81,.25-.25,.38-.49,.38-.7,.07-.25,.27-.72,.59-1.4s.68-1.51,1.08-2.48c.32-.68,.63-1.42,.92-2.21,.29-.79,.54-1.57,.76-2.32,.22-.76,.39-1.45,.51-2.08,.13-.63,.19-1.14,.19-1.54s.09-.7,.27-.92c.18-.22,.41-.38,.68-.49,.27-.11,.55-.17,.84-.19,.29-.02,.54-.03,.76-.03h1.24c.43,0,.78,.22,1.05,.65s.41,.92,.41,1.46c0,.11-.05,.44-.14,1-.09,.56-.2,1.2-.32,1.92-.13,.72-.28,1.46-.46,2.21-.18,.76-.36,1.39-.54,1.89-.76,1.62-1.49,3.23-2.21,4.83-.72,1.6-1.08,3.16-1.08,4.67,0,.18,.07,.38,.22,.59,.07,.11,.14,.2,.22,.27,.47,0,.95-.14,1.43-.43,.49-.29,.92-.59,1.3-.92s.71-.63,1-.92c.29-.29,.49-.43,.59-.43s.22,.05,.35,.16c.13,.11,.24,.22,.35,.32,.14,.14,.27,.29,.38,.43,0,.14-.17,.5-.51,1.05-.34,.56-.74,1.15-1.19,1.78-.45,.63-.88,1.21-1.3,1.75-.41,.54-.68,.86-.78,.97-.36,.25-.68,.48-.95,.67-.27,.2-.51,.4-.73,.59s-.44,.43-.68,.7c-.23,.27-.5,.6-.78,1-.47,.47-.95,.79-1.46,.97-.5,.18-1.03,.27-1.57,.27-.25,0-.5-.08-.73-.24-.23-.16-.44-.36-.62-.59-.18-.23-.32-.49-.43-.76-.11-.27-.16-.49-.16-.67v-1.51c.14-.43,.29-.86,.43-1.3,.11-.36,.22-.74,.32-1.13,.11-.4,.16-.74,.16-1.03,0-.22-.03-.44-.08-.68-.05-.23-.23-.35-.51-.35-.22,0-.47,.13-.76,.41-.29,.27-.58,.58-.86,.92-.29,.34-.56,.67-.81,1-.25,.32-.45,.54-.59,.65-.22,.29-.61,.73-1.19,1.32-.58,.59-1.19,1.19-1.84,1.78-.65,.59-1.27,1.12-1.86,1.59-.59,.47-1.02,.7-1.27,.7-.22,0-.43-.1-.65-.3-.22-.2-.41-.43-.57-.7-.16-.27-.3-.54-.41-.81-.11-.27-.16-.46-.16-.57v-1.51c0-.29,.02-.58,.05-.86,.04-.25,.06-.5,.08-.76,.02-.25,.03-.47,.03-.65,0-.22,.04-.51,.14-.89,.09-.38,.14-.82,.14-1.32,0-.47,.06-.95,.19-1.46,.13-.5,.22-.88,.3-1.13l.43-2.05c.07-.25,.26-.68,.57-1.3,.31-.61,.46-1.44,.46-2.48,0-.5,.02-.86,.05-1.05,.04-.2-.18-.3-.65-.3-.22,0-.44,.04-.68,.11-.23,.07-.55,.18-.95,.32-.29,.18-.58,.32-.86,.43-.29,.11-.5,.16-.65,.16-.22,0-.45-.13-.7-.41-.25-.27-.38-.62-.38-1.05s.11-.76,.32-1c.22-.23,.48-.43,.78-.59,.31-.16,.6-.32,.89-.49,.29-.16,.49-.37,.59-.62,.47-.36,1.03-.87,1.67-1.54,.65-.67,1.31-1.32,2-1.97,.68-.65,1.34-1.21,1.97-1.67,.63-.47,1.2-.7,1.7-.7h1.03Z"/><path class="cls-1" d="M351.86,24.9c.32,0,.56,.18,.7,.54,.14,.36,.22,.68,.22,.97-.65,2.27-1.22,4.34-1.73,6.21-.22,.79-.43,1.58-.65,2.35s-.41,1.48-.57,2.13-.29,1.2-.38,1.65c-.09,.45-.14,.75-.14,.89,0,.25-.05,.67-.14,1.24-.09,.58-.09,1.11,0,1.59,.09,.49,.32,.81,.7,.97,.38,.16,1.03-.06,1.97-.67,.07-.18,.31-.41,.7-.7,.4-.29,.83-.65,1.3-1.08,.29-.29,.47-.58,.54-.89,.07-.31,.18-.46,.32-.46,0-.29,.13-.56,.38-.81,.25-.25,.38-.49,.38-.7,.07-.25,.27-.72,.59-1.4s.68-1.51,1.08-2.48c.32-.68,.63-1.42,.92-2.21,.29-.79,.54-1.57,.76-2.32,.22-.76,.39-1.45,.51-2.08,.13-.63,.19-1.14,.19-1.54s.09-.7,.27-.92c.18-.22,.41-.38,.68-.49,.27-.11,.55-.17,.84-.19,.29-.02,.54-.03,.76-.03h1.24c.43,0,.78,.22,1.05,.65s.41,.92,.41,1.46c0,.11-.05,.44-.14,1-.09,.56-.2,1.2-.32,1.92-.13,.72-.28,1.46-.46,2.21-.18,.76-.36,1.39-.54,1.89-.76,1.62-1.49,3.23-2.21,4.83-.72,1.6-1.08,3.16-1.08,4.67,0,.18,.07,.38,.22,.59,.07,.11,.14,.2,.22,.27,.47,0,.95-.14,1.43-.43,.49-.29,.92-.59,1.3-.92s.71-.63,1-.92c.29-.29,.49-.43,.59-.43s.22,.05,.35,.16c.13,.11,.24,.22,.35,.32,.14,.14,.27,.29,.38,.43,0,.14-.17,.5-.51,1.05-.34,.56-.74,1.15-1.19,1.78-.45,.63-.88,1.21-1.3,1.75-.41,.54-.68,.86-.78,.97-.36,.25-.68,.48-.95,.67-.27,.2-.51,.4-.73,.59s-.44,.43-.68,.7c-.23,.27-.5,.6-.78,1-.47,.47-.95,.79-1.46,.97-.5,.18-1.03,.27-1.57,.27-.25,0-.5-.08-.73-.24-.23-.16-.44-.36-.62-.59-.18-.23-.32-.49-.43-.76-.11-.27-.16-.49-.16-.67v-1.51c.14-.43,.29-.86,.43-1.3,.11-.36,.22-.74,.32-1.13,.11-.4,.16-.74,.16-1.03,0-.22-.03-.44-.08-.68-.05-.23-.23-.35-.51-.35-.22,0-.47,.13-.76,.41-.29,.27-.58,.58-.86,.92-.29,.34-.56,.67-.81,1-.25,.32-.45,.54-.59,.65-.22,.29-.61,.73-1.19,1.32-.58,.59-1.19,1.19-1.84,1.78-.65,.59-1.27,1.12-1.86,1.59-.59,.47-1.02,.7-1.27,.7-.22,0-.43-.1-.65-.3-.22-.2-.41-.43-.57-.7-.16-.27-.3-.54-.41-.81-.11-.27-.16-.46-.16-.57v-1.51c0-.29,.02-.58,.05-.86,.04-.25,.06-.5,.08-.76,.02-.25,.03-.47,.03-.65,0-.22,.04-.51,.14-.89,.09-.38,.14-.82,.14-1.32,0-.47,.06-.95,.19-1.46,.13-.5,.22-.88,.3-1.13l.43-2.05c.07-.25,.26-.68,.57-1.3,.31-.61,.46-1.44,.46-2.48,0-.5,.02-.86,.05-1.05,.04-.2-.18-.3-.65-.3-.22,0-.44,.04-.68,.11-.23,.07-.55,.18-.95,.32-.29,.18-.58,.32-.86,.43-.29,.11-.5,.16-.65,.16-.22,0-.45-.13-.7-.41-.25-.27-.38-.62-.38-1.05s.11-.76,.32-1c.22-.23,.48-.43,.78-.59,.31-.16,.6-.32,.89-.49,.29-.16,.49-.37,.59-.62,.47-.36,1.03-.87,1.67-1.54,.65-.67,1.31-1.32,2-1.97,.68-.65,1.34-1.21,1.97-1.67,.63-.47,1.2-.7,1.7-.7h1.03Z"/><path class="cls-1" d="M368.27,42.61c0-.5,.23-.83,.7-.97,.47-.14,.94-.36,1.4-.65,.14-.11,.26-.27,.35-.49,.09-.22,.18-.41,.27-.59,.09-.18,.2-.33,.32-.46,.13-.13,.3-.17,.51-.13,.32,0,.58,.07,.76,.22,.18,.14,.38,.32,.59,.54,1.01,.68,1.61,1.48,1.81,2.38,.2,.9,.3,1.96,.3,3.19,0,.54-.06,1.02-.19,1.43-.13,.41-.3,.82-.51,1.21-.22,.4-.46,.79-.73,1.19s-.53,.81-.78,1.24c-.61,.94-1.19,1.69-1.73,2.27-.54,.58-1.28,1.13-2.21,1.67-.68,.36-1.32,.75-1.92,1.16-.59,.41-1.21,.79-1.84,1.13-.63,.34-1.28,.62-1.94,.84-.67,.22-1.41,.32-2.24,.32-.07,0-.17-.04-.3-.11-.13-.07-.26-.14-.41-.22-.14-.11-.31-.22-.49-.32,.11-.47,.31-.86,.59-1.19,.29-.32,.63-.61,1.03-.86,.4-.25,.8-.5,1.21-.73,.41-.24,.82-.5,1.22-.78,.76-.58,1.49-1.12,2.19-1.62,.7-.5,1.34-1.04,1.92-1.62,.58-.58,1.03-1.21,1.38-1.92,.34-.7,.51-1.54,.51-2.51,0-.36-.09-.67-.27-.95-.18-.27-.39-.53-.62-.78-.23-.25-.44-.52-.62-.81-.18-.29-.27-.65-.27-1.08Z"/><path class="cls-1" d="M404.4,19.5c.11,0,.3,.06,.57,.19s.54,.29,.81,.49c.27,.2,.51,.42,.73,.68,.22,.25,.32,.5,.32,.76-.32,.79-.63,1.53-.92,2.21-.25,.61-.5,1.21-.76,1.81-.25,.59-.45,1.05-.59,1.38-.11,.14-.31,.44-.59,.89-.29,.45-.59,.94-.92,1.46-.32,.52-.6,1.04-.84,1.54-.23,.5-.35,.86-.35,1.08l.49,.76c.36,0,.91-.36,1.65-1.08,.74-.72,1.52-1.51,2.35-2.38,.83-.86,1.64-1.66,2.43-2.38,.79-.72,1.44-1.08,1.94-1.08,.54,0,.95,.28,1.24,.84,.29,.56,.51,1.18,.68,1.86,.16,.68,.26,1.33,.3,1.94,.04,.61,.05,.97,.05,1.08,0,.22-.08,.64-.24,1.27-.16,.63-.28,1.2-.35,1.7-.14,.11-.22,.22-.22,.35s.02,.23,.05,.3c.04,.11,.09,.2,.16,.27-.04,.4-.19,.96-.46,1.7-.27,.74-.57,1.47-.89,2.19-.32,.72-.63,1.38-.92,1.97-.29,.59-.49,.95-.59,1.05-.4,.61-.82,1.15-1.27,1.62-.45,.47-.93,.92-1.43,1.35-.5,.47-1.12,.93-1.84,1.38-.72,.45-1.31,1.05-1.78,1.81-.54,.5-1.11,.94-1.7,1.3-.59,.36-1.14,.75-1.65,1.16-.5,.41-.9,.88-1.19,1.4-.29,.52-.38,1.18-.27,1.97v1.08c-.04,.5-.09,.93-.16,1.27-.07,.34-.15,.7-.24,1.08-.09,.38-.17,.8-.24,1.27-.07,.47-.11,1.1-.11,1.89-.04,.65-.08,1.15-.14,1.51-.05,.36-.13,.65-.22,.86-.09,.22-.17,.4-.24,.54-.07,.14-.13,.32-.16,.54v1.16c0,.49-.04,1.11-.11,1.86v1.19c0,.76,.19,1.2,.57,1.32,.38,.13,.84,.19,1.38,.19h1.03c.54,0,1,.24,1.38,.73,.38,.49,.57,1,.57,1.54,0,.22-.14,.43-.41,.65-.27,.22-.62,.45-1.05,.7-.54,0-1.09,.16-1.65,.49-.56,.32-1.22,.45-1.97,.38h-2.11c-.76,.18-1.53,.3-2.32,.35-.79,.05-1.57,.19-2.32,.4-.4-.04-.69-.04-.89,0-.2,.04-.38,.09-.54,.16-.16,.07-.32,.14-.49,.22-.16,.07-.37,.11-.62,.11-.22-.04-.42-.14-.62-.32-.2-.18-.36-.39-.49-.62-.13-.23-.22-.46-.3-.67-.07-.22-.11-.38-.11-.49,.04-.43,.17-.75,.41-.94,.23-.2,.51-.34,.84-.43s.66-.13,1-.13h.89c.14-.11,.32-.19,.51-.24,.2-.05,.38-.13,.54-.22,.16-.09,.31-.2,.43-.32,.13-.13,.19-.32,.19-.57,.11-.25,.23-.59,.35-1.03,.13-.43,.24-.85,.35-1.24,.11-.4,.21-.76,.3-1.11,.09-.34,.15-.57,.19-.67v-.49c0-.14,.05-.51,.16-1.11,.11-.59,.25-1.21,.43-1.86,.14-.76,.34-1.6,.59-2.54,.07-.22,.16-.42,.27-.59,.07-.18,.14-.35,.22-.51,.07-.16,.11-.3,.11-.41,0-.25,.03-.67,.08-1.27s.08-1.58,.08-2.94l.59-1.51,.59-3.46,.16-1.51c0-.11,.05-.28,.16-.51,.11-.23,.23-.5,.38-.78,.14-.29,.27-.59,.38-.92,.11-.32,.16-.63,.16-.92,.04-.5,.06-.97,.08-1.4,.02-.43,.04-.85,.08-1.24,.04-.4,.07-.81,.11-1.24,.11-.5,.23-.99,.38-1.46,.11-.4,.22-.79,.32-1.19,.11-.4,.23-.72,.38-.97l.11-3.02c0-.68-.34-1.03-1.03-1.03-.29,0-.57,.13-.84,.38-.27,.25-.59,.52-.94,.81-.79,.79-1.4,1.19-1.84,1.19-.18-.04-.29-.08-.32-.13-.04-.05-.07-.12-.11-.19-.04-.07-.04-.16,0-.27,0-.72,.23-1.38,.7-1.97,.47-.59,.94-1.23,1.4-1.92,.54-1.01,1.19-1.98,1.94-2.92,.76-.94,1.53-1.88,2.32-2.83,.79-.95,1.54-1.93,2.24-2.92,.7-.99,1.29-2.06,1.75-3.21,.18-.07,.34-.14,.49-.22,.36-.14,.68-.22,.97-.22Zm2,14.26c-.29,0-.64,.13-1.05,.38-.41,.25-.83,.55-1.24,.89-.41,.34-.77,.67-1.05,.97-.29,.31-.43,.51-.43,.62-.5,1.04-.91,1.99-1.21,2.83-.31,.85-.66,1.75-1.05,2.73v1.51c0,.29,.06,.61,.19,.97,.13,.36,.57,.58,1.32,.65,.22,0,.53-.14,.94-.43,.41-.29,.82-.63,1.22-1.03,.47-.43,.95-.94,1.46-1.51,.29-.18,.56-.4,.81-.67,.25-.27,.54-.55,.86-.84,.22-.47,.34-.78,.38-.94,.04-.16,.05-.5,.05-1,0-.11-.02-.24-.05-.41-.04-.16-.07-.33-.11-.51-.07-.18-.13-.38-.16-.59v-1.65c0-.27-.02-.54-.05-.81-.04-.27-.12-.52-.24-.76-.13-.23-.32-.37-.57-.41Z"/><path class="cls-1" d="M429.94,24.14c.76,0,1.3,.22,1.62,.65,.32,.43,.49,1.03,.49,1.78,0,.14-.05,.46-.16,.95-.11,.49-.24,1.03-.4,1.62-.16,.59-.33,1.2-.51,1.81-.18,.61-.32,1.1-.43,1.46,0,.29-.02,.59-.05,.89-.04,.31-.16,.71-.38,1.22-.29,.22-.43,.57-.43,1.05v1.05l-.16,2.86v2.11c0,.11,0,.3,.03,.57,.02,.27,.05,.54,.11,.81,.05,.27,.15,.5,.3,.7,.14,.2,.34,.3,.59,.3l.76-1.19c.22-.18,.47-.41,.76-.67,.29-.27,.58-.53,.86-.78,.32-.29,.65-.59,.97-.92,.22,0,.4,.09,.54,.27,.14,.18,.22,.38,.22,.59l-.22,.43c-.14,.29-.29,.5-.43,.65-.25,.72-.58,1.34-.97,1.86-.4,.52-.83,1.03-1.3,1.51-.47,.49-.95,.98-1.43,1.49-.49,.5-.95,1.08-1.38,1.73l-1.19,1.67c0,.32-.1,.66-.3,1-.2,.34-.43,.61-.7,.81-.27,.2-.56,.29-.86,.27-.31-.02-.55-.23-.73-.62-.22-.65-.32-1.29-.32-1.92s.05-1.24,.16-1.84c.11-.59,.22-1.16,.32-1.7s.16-1.06,.16-1.57v-3.02c0-.18-.13-.31-.38-.38-.14-.04-.27-.05-.38-.05s-.38,.32-.81,.95c-.43,.63-.93,1.35-1.48,2.16-.56,.81-1.13,1.63-1.7,2.46-.58,.83-1.04,1.42-1.4,1.78-.11,.14-.28,.35-.51,.62-.23,.27-.49,.53-.76,.78-.27,.25-.57,.48-.89,.67s-.61,.3-.86,.3c-.5,0-.92-.18-1.24-.54-.32-.36-.58-.78-.76-1.27-.18-.49-.32-.97-.4-1.46-.09-.49-.14-.84-.14-1.05l-.16-3.89,.76-6.32c0-.11,.05-.36,.16-.76,.11-.4,.25-.83,.43-1.3,.18-.47,.39-.93,.62-1.38,.23-.45,.48-.82,.73-1.11,1.04-.97,2.05-2.16,3.02-3.56,.47-.65,.92-1.12,1.35-1.4,.43-.29,.86-.51,1.3-.67,.43-.16,.86-.29,1.3-.38s.92-.28,1.46-.57c.22,0,.49-.12,.84-.35,.34-.23,.66-.46,.95-.68h2.43l1.03-.49Zm-6.91,5.99c-.65,.54-1.26,1.16-1.84,1.86-.58,.7-1.08,1.41-1.51,2.13-.43,.72-.77,1.4-1.03,2.03-.25,.63-.38,1.13-.38,1.49,0,.18-.02,.51-.05,1-.04,.49-.02,.99,.05,1.51,.07,.52,.21,.99,.41,1.4,.2,.41,.55,.62,1.05,.62,.47,0,1.02-.41,1.65-1.24,.63-.83,1.22-1.76,1.78-2.81,.56-1.04,1.03-2.02,1.4-2.92,.38-.9,.57-1.44,.57-1.62,0-.14,.02-.5,.05-1.05,.04-.56,0-1.1-.08-1.62-.09-.52-.29-.9-.59-1.13-.31-.23-.8-.12-1.49,.35Z"/><path class="cls-1" d="M445.6,4.06c.11,0,.26-.04,.46-.14,.2-.09,.41-.2,.65-.32,.23-.13,.46-.23,.68-.32,.22-.09,.38-.13,.49-.13,.29,0,.58-.07,.89-.22,.31-.14,.6-.22,.89-.22,.36-.04,.7-.11,1.03-.22,.29-.07,.57-.16,.84-.27,.27-.11,.49-.25,.68-.43,.22-.22,.4-.43,.54-.65,.14-.22,.28-.41,.41-.57,.13-.16,.28-.29,.46-.38,.18-.09,.41-.15,.7-.19,.25-.04,.45,.1,.59,.41,.14,.31,.23,.68,.27,1.13,.04,.45,.05,.9,.05,1.35v1c0,.22-.06,.61-.19,1.19-.13,.58-.36,1.19-.7,1.84-.34,.65-.79,1.25-1.35,1.81-.56,.56-1.27,.94-2.13,1.16-.22,0-.47,.11-.76,.32-.14,.11-.29,.2-.43,.27h-.59c-.4,0-.85,.14-1.35,.43-.5,.29-1,.64-1.49,1.05-.49,.42-.89,.86-1.21,1.32-.32,.47-.49,.88-.49,1.24-.29,.25-.42,.5-.41,.76,.02,.25-.1,.61-.35,1.08-.29,.29-.53,.71-.73,1.27-.2,.56-.3,.98-.3,1.27l-.59,1.94c0,.5-.09,1.01-.27,1.51-.18,.5-.37,1.05-.57,1.65-.2,.59-.39,1.22-.57,1.89-.18,.67-.27,1.4-.27,2.19v1.03c0,.25,.05,.49,.16,.7,.04,.14,.09,.25,.16,.32,.25,0,.51-.24,.78-.73s.61-1.03,1.03-1.62c.41-.59,.92-1.14,1.51-1.65s1.34-.76,2.24-.76l1.19-.49c.83,0,1.46,.24,1.89,.73,.43,.49,.65,1.14,.65,1.97v.49l-.43,1.03c.07,.29,.14,.58,.22,.86,.07,.25,.13,.52,.16,.81,.04,.29,.05,.54,.05,.76,0,.14,0,.28-.03,.41-.02,.13-.06,.23-.14,.3-.07,.18-.14,.33-.19,.46-.05,.13-.08,.23-.08,.3,0,.14,.02,.26,.05,.35,.04,.09,.07,.21,.11,.35,.04,.14,.04,.32,.03,.54-.02,.22-.08,.5-.19,.86v1.67c0,.11-.1,.32-.3,.65-.2,.32-.42,.71-.68,1.16-.25,.45-.52,.93-.81,1.43-.29,.5-.5,.97-.65,1.4l-.59,2.38c-.65,.94-1.26,1.78-1.84,2.54-.5,.65-.98,1.28-1.43,1.89-.45,.61-.77,.99-.94,1.13-.4,.29-.7,.53-.92,.73-.22,.2-.43,.37-.65,.51-.22,.14-.49,.25-.81,.32-.32,.07-.83,.11-1.51,.11l-1.51,.43c-.29,0-.49-.08-.59-.24-.11-.16-.18-.38-.22-.65-.04-.27-.07-.57-.11-.89-.04-.32-.13-.63-.27-.92,0-.14-.05-.32-.16-.54-.11-.22-.2-.43-.27-.65-.25-.29-.5-.56-.73-.81-.23-.25-.35-.58-.35-.97,0-.11,.03-.28,.08-.51,.05-.23,.12-.46,.19-.67,.11-.25,.22-.52,.32-.81v-1.62l.49-4.97v-1.03l1.03-5.13v-1.94c0-.29,.1-.89,.3-1.81,.2-.92,.3-2.01,.3-3.27v-1.51l1.51-6.64c0-.25,.03-.59,.08-1.03,.05-.43,.12-.86,.19-1.3,.11-.5,.22-1.03,.32-1.57l.49-1.51c.07-.5,.25-1.02,.54-1.54,.29-.52,.65-1.16,1.08-1.92,.32-.5,.74-.94,1.24-1.3,.5-.36,.99-.67,1.46-.92,.54-.29,1.1-.54,1.67-.76Zm-2.11,26.57c-.32,0-.66,.18-1,.54-.34,.36-.68,.82-1.03,1.38-.34,.56-.66,1.17-.95,1.84-.29,.67-.55,1.31-.78,1.94-.23,.63-.41,1.19-.54,1.67-.13,.49-.19,.84-.19,1.05v2.05c0,.4,.04,.74,.11,1.03,.07,.25,.14,.48,.22,.68,.07,.2,.2,.3,.38,.3h.65c.5-.18,1.05-.5,1.65-.97,.59-.47,1.14-1,1.65-1.59,.5-.59,.93-1.2,1.27-1.81,.34-.61,.51-1.17,.51-1.67v-2.54l-.27-1.03,.27-.92c0-1.3-.65-1.94-1.94-1.94Z"/><path class="cls-1" d="M461.2,24.63c.5,0,1.12,.02,1.86,.05,.74,.04,1.36,.16,1.86,.38,.54,0,.89,.22,1.05,.65,.16,.43,.37,.92,.62,1.46,.14,.14,.31,.34,.51,.59,.2,.25,.38,.51,.54,.78,.16,.27,.3,.55,.41,.84,.11,.29,.16,.54,.16,.76l-.43,4.81c0,1.01-.22,2.12-.65,3.35-.43,1.22-1.06,2.32-1.89,3.29-.29,.29-.5,.6-.62,.95-.13,.34-.25,.69-.38,1.05-.13,.36-.27,.73-.43,1.11-.16,.38-.39,.75-.68,1.11-.22,.25-.46,.56-.73,.92-.27,.36-.56,.73-.86,1.11-.31,.38-.63,.72-.97,1.03-.34,.31-.69,.53-1.05,.67-.54,.29-.99,.54-1.35,.76-.36,.22-.68,.4-.97,.54-.29,.14-.59,.24-.89,.3-.31,.05-.64,.08-1,.08-.54,0-1.04-.13-1.51-.38-.47-.25-.87-.58-1.21-1-.34-.41-.62-.88-.84-1.4-.22-.52-.32-1.05-.32-1.59v-3.62c0-.22-.07-.41-.22-.59-.14-.18-.22-.68-.22-1.51-.04-1.04,.22-2.3,.76-3.78,.54-1.48,1.18-2.92,1.92-4.35,.74-1.42,1.48-2.68,2.21-3.78,.74-1.1,1.3-1.77,1.7-2.03,.4-.25,.73-.53,1-.84,.27-.31,.53-.58,.78-.84,.25-.25,.51-.46,.78-.62s.62-.24,1.05-.24Zm.27,6.16c-.58,0-1.16,.24-1.75,.73-.59,.49-1.14,1.04-1.65,1.67-.5,.63-.95,1.26-1.35,1.89-.4,.63-.67,1.09-.81,1.38l-.54,2.05c-.14,.5-.26,.99-.35,1.46-.09,.47-.14,.76-.14,.86v1.03c.14,.11,.27,.32,.38,.65,.11,.32,.24,.65,.41,.97,.16,.32,.35,.61,.57,.86,.22,.25,.52,.38,.92,.38,.72-.32,1.39-.65,2-.97,.5-.29,1-.59,1.49-.92s.82-.65,1-.97c.22-.5,.46-1.1,.73-1.78,.27-.68,.53-1.33,.78-1.94-.07-.29,0-.58,.24-.86,.23-.29,.35-.56,.35-.81v-1.51c0-.18-.05-.49-.14-.95-.09-.45-.23-.92-.43-1.4-.2-.49-.44-.91-.73-1.27-.29-.36-.61-.54-.97-.54Z"/><path class="cls-1" d="M477.84,25.22c.54,0,.87,.19,1,.57,.13,.38,.16,.83,.11,1.35s-.14,1.05-.24,1.59c-.11,.54-.14,.97-.11,1.3v1.51c0,.11,.02,.3,.05,.57,.04,.27,.13,.5,.27,.7,.14,.2,.35,.32,.62,.35,.27,.04,.66-.11,1.16-.43,.18-.14,.45-.44,.81-.89,.36-.45,.75-.95,1.16-1.51,.41-.56,.85-1.15,1.3-1.78,.45-.63,.87-1.2,1.27-1.7,.4-.5,.76-.93,1.08-1.27,.32-.34,.56-.51,.7-.51,.54,0,1.02,.13,1.43,.4,.41,.27,.77,.6,1.08,1,.31,.4,.54,.8,.7,1.22,.16,.41,.24,.75,.24,1l-.32,1.35c0,.11-.02,.31-.05,.59-.04,.29-.03,.55,.03,.78,.05,.23,.15,.39,.3,.46,.14,.07,.41-.04,.81-.32,.22-.18,.59-.59,1.13-1.24,.54-.65,1.13-1.31,1.78-2,.65-.68,1.31-1.3,2-1.84,.68-.54,1.3-.81,1.84-.81,.72,0,1.25,.23,1.59,.67,.34,.45,.51,.93,.51,1.43,0,.11-.04,.32-.11,.62-.07,.31-.16,.63-.27,.97-.11,.34-.2,.67-.27,1-.07,.32-.11,.56-.11,.7v1.08c0,.54-.16,1.3-.49,2.29s-.67,2.04-1.05,3.16c-.38,1.12-.72,2.2-1.03,3.24-.31,1.04-.46,1.89-.46,2.54,0,.18-.02,.41-.05,.67-.04,.27-.04,.5,0,.7,.04,.2,.14,.32,.32,.35,.18,.04,.49-.09,.92-.38,.18-.11,.47-.31,.86-.59,.4-.29,.79-.53,1.19-.73,.4-.2,.74-.29,1.03-.27,.29,.02,.41,.3,.38,.84-.65,.79-1.26,1.51-1.84,2.16-.5,.58-1.01,1.14-1.51,1.7-.5,.56-.88,.98-1.13,1.27-.54,.4-.97,.78-1.3,1.13s-.62,.69-.89,1c-.27,.3-.57,.55-.89,.73-.32,.18-.76,.27-1.3,.27-.4,0-.72-.12-.97-.35-.25-.23-.47-.5-.65-.78-.18-.29-.31-.58-.38-.89-.07-.31-.11-.53-.11-.67,0-1.01,.14-1.97,.41-2.89,.27-.92,.58-1.79,.95-2.62,.36-.83,.7-1.65,1.03-2.46,.32-.81,.54-1.61,.65-2.4,0-.14,.02-.32,.05-.54,.04-.22,.09-.43,.16-.65,.07-.25,.14-.5,.22-.76,0-.25-.02-.59-.05-1.03-.04-.43-.12-.84-.24-1.21-.13-.38-.3-.68-.51-.92s-.49-.28-.81-.14c-.72,.25-1.35,.86-1.89,1.81s-1.04,2.07-1.51,3.35c-.47,1.28-.9,2.63-1.3,4.05-.4,1.42-.79,2.73-1.19,3.92-.4,1.19-.8,2.18-1.21,2.97-.41,.79-.86,1.19-1.32,1.19-.25,0-.55-.05-.89-.16-.34-.11-.68-.24-1-.41-.32-.16-.59-.33-.81-.51-.22-.18-.32-.32-.32-.43-.04-.9,.07-1.78,.32-2.65,.25-.86,.53-1.67,.84-2.43,.31-.76,.59-1.45,.86-2.08s.41-1.2,.41-1.7v-.43c0-.68,.25-1.64,.76-2.86,.14-.47,.32-.92,.54-1.35,.22-.43,.29-.79,.22-1.08,0-.43-.2-.78-.59-1.05-.4-.27-.7-.32-.92-.14-.61,.18-1.17,.55-1.67,1.11-.5,.56-.95,1.15-1.32,1.78s-.7,1.22-.97,1.78c-.27,.56-.46,.95-.57,1.16-.5,.76-.88,1.49-1.13,2.21-.25,.72-.52,1.39-.81,2,0,.07-.09,.49-.27,1.24-.18,.76-.45,1.57-.81,2.43-.36,.86-.82,1.65-1.38,2.35-.56,.7-1.23,1.05-2.03,1.05-.22,0-.42-.08-.62-.24-.2-.16-.36-.36-.49-.59-.13-.23-.23-.47-.3-.7-.07-.23-.11-.42-.11-.57,0-.22-.08-.48-.24-.78-.16-.31-.14-.69,.08-1.16,.14-.29,.4-.97,.76-2.05,.36-1.08,.73-2.26,1.11-3.54,.38-1.28,.7-2.51,.97-3.7,.27-1.19,.39-2.05,.35-2.59,0-.22,.07-.43,.22-.65,.14-.22,.22-.45,.22-.7,0-.5-.05-.9-.14-1.19-.09-.29-.39-.43-.89-.43-.22,0-.42,.07-.62,.22-.2,.14-.41,.32-.62,.51-.22,.2-.46,.37-.73,.51-.27,.14-.62,.22-1.05,.22-.25,0-.49-.07-.7-.22-.11-.07-.18-.14-.22-.22,0-.5,.15-.98,.46-1.43,.31-.45,.66-.67,1.05-.67,.47-.5,.95-1,1.46-1.49,.5-.49,1.03-.84,1.57-1.05,.11-.11,.35-.34,.73-.7,.38-.36,.8-.73,1.27-1.11,.47-.38,.94-.72,1.4-1.03,.47-.31,.83-.46,1.08-.46Z"/><path class="cls-1" d="M512.5,24.9c.32,0,.56,.18,.7,.54,.14,.36,.22,.68,.22,.97-.65,2.27-1.22,4.34-1.73,6.21-.22,.79-.43,1.58-.65,2.35s-.41,1.48-.57,2.13-.29,1.2-.38,1.65c-.09,.45-.14,.75-.14,.89,0,.25-.05,.67-.14,1.24-.09,.58-.09,1.11,0,1.59,.09,.49,.32,.81,.7,.97,.38,.16,1.03-.06,1.97-.67,.07-.18,.31-.41,.7-.7,.4-.29,.83-.65,1.3-1.08,.29-.29,.47-.58,.54-.89,.07-.31,.18-.46,.32-.46,0-.29,.13-.56,.38-.81,.25-.25,.38-.49,.38-.7,.07-.25,.27-.72,.59-1.4s.68-1.51,1.08-2.48c.32-.68,.63-1.42,.92-2.21,.29-.79,.54-1.57,.76-2.32,.22-.76,.39-1.45,.51-2.08,.13-.63,.19-1.14,.19-1.54s.09-.7,.27-.92c.18-.22,.41-.38,.68-.49,.27-.11,.55-.17,.84-.19,.29-.02,.54-.03,.76-.03h1.24c.43,0,.78,.22,1.05,.65s.41,.92,.41,1.46c0,.11-.05,.44-.14,1-.09,.56-.2,1.2-.32,1.92-.13,.72-.28,1.46-.46,2.21-.18,.76-.36,1.39-.54,1.89-.76,1.62-1.49,3.23-2.21,4.83-.72,1.6-1.08,3.16-1.08,4.67,0,.18,.07,.38,.22,.59,.07,.11,.14,.2,.22,.27,.47,0,.95-.14,1.43-.43,.49-.29,.92-.59,1.3-.92s.71-.63,1-.92c.29-.29,.49-.43,.59-.43s.22,.05,.35,.16c.13,.11,.24,.22,.35,.32,.14,.14,.27,.29,.38,.43,0,.14-.17,.5-.51,1.05-.34,.56-.74,1.15-1.19,1.78-.45,.63-.88,1.21-1.3,1.75-.41,.54-.68,.86-.78,.97-.36,.25-.68,.48-.95,.67-.27,.2-.51,.4-.73,.59s-.44,.43-.68,.7c-.23,.27-.5,.6-.78,1-.47,.47-.95,.79-1.46,.97-.5,.18-1.03,.27-1.57,.27-.25,0-.5-.08-.73-.24-.23-.16-.44-.36-.62-.59-.18-.23-.32-.49-.43-.76-.11-.27-.16-.49-.16-.67v-1.51c.14-.43,.29-.86,.43-1.3,.11-.36,.22-.74,.32-1.13,.11-.4,.16-.74,.16-1.03,0-.22-.03-.44-.08-.68-.05-.23-.23-.35-.51-.35-.22,0-.47,.13-.76,.41-.29,.27-.58,.58-.86,.92-.29,.34-.56,.67-.81,1-.25,.32-.45,.54-.59,.65-.22,.29-.61,.73-1.19,1.32-.58,.59-1.19,1.19-1.84,1.78-.65,.59-1.27,1.12-1.86,1.59-.59,.47-1.02,.7-1.27,.7-.22,0-.43-.1-.65-.3-.22-.2-.41-.43-.57-.7-.16-.27-.3-.54-.41-.81-.11-.27-.16-.46-.16-.57v-1.51c0-.29,.02-.58,.05-.86,.04-.25,.06-.5,.08-.76,.02-.25,.03-.47,.03-.65,0-.22,.04-.51,.14-.89,.09-.38,.14-.82,.14-1.32,0-.47,.06-.95,.19-1.46,.13-.5,.22-.88,.3-1.13l.43-2.05c.07-.25,.26-.68,.57-1.3,.31-.61,.46-1.44,.46-2.48,0-.5,.02-.86,.05-1.05,.04-.2-.18-.3-.65-.3-.22,0-.44,.04-.68,.11-.23,.07-.55,.18-.95,.32-.29,.18-.58,.32-.86,.43-.29,.11-.5,.16-.65,.16-.22,0-.45-.13-.7-.41-.25-.27-.38-.62-.38-1.05s.11-.76,.32-1c.22-.23,.48-.43,.78-.59,.31-.16,.6-.32,.89-.49,.29-.16,.49-.37,.59-.62,.47-.36,1.03-.87,1.67-1.54,.65-.67,1.31-1.32,2-1.97,.68-.65,1.34-1.21,1.97-1.67,.63-.47,1.2-.7,1.7-.7h1.03Z"/><path class="cls-1" d="M550.36,24.31c.61,0,1.22,.14,1.81,.43s.89,.7,.89,1.24l.16,.86c.04,.18,.02,.4-.05,.67-.07,.27-.16,.55-.27,.84-.14,.36-.29,.72-.43,1.08,0,.72-.07,1.39-.22,2-.14,.61-.22,1.3-.22,2.05v.43c0,.18-.03,.39-.08,.62-.05,.23-.12,.46-.19,.67-.07,.25-.14,.52-.22,.81v.59c0,.4-.05,.72-.16,.97-.11,.25-.25,.58-.43,.97-.07,.29-.14,.61-.19,.97-.05,.36-.08,.74-.08,1.13,0,.14,0,.32,.03,.54,.02,.22,.05,.43,.11,.65,.05,.22,.15,.4,.3,.54,.14,.14,.34,.22,.59,.22,.29,0,.59-.09,.92-.27,.32-.18,.58-.38,.76-.59,.14-.18,.32-.33,.54-.46,.22-.13,.43-.19,.65-.19h1.08c.22,0,.34,.11,.38,.32,.04,.22,.05,.47,.05,.76,0,.11-.17,.35-.51,.73-.34,.38-.73,.78-1.16,1.21-.43,.43-.86,.84-1.27,1.21-.41,.38-.69,.62-.84,.73-.11,.29-.32,.71-.65,1.27-.32,.56-.69,1.13-1.11,1.7-.41,.58-.86,1.08-1.32,1.51-.47,.43-.88,.65-1.24,.65-.29,0-.58-.08-.86-.24-.29-.16-.56-.38-.81-.65-.25-.27-.46-.55-.62-.84s-.24-.58-.24-.86v-.86c0-.14-.04-.28-.11-.41-.07-.12-.14-.27-.19-.43s-.09-.36-.11-.59c-.02-.23,0-.51,.08-.84l.32-1.35v-2.54c0-.54,.07-.97,.22-1.3,.14-.32,.22-.74,.22-1.24v-.49c0-.25,.1-.83,.3-1.73,.2-.9,.42-1.87,.67-2.92,.25-1.04,.48-2.03,.68-2.97,.2-.94,.3-1.6,.3-2,0-.29-.31-.43-.92-.43-.07,.07-.22,.19-.43,.35s-.36,.39-.43,.67l-1.84,3.78c-.07,.11-.2,.34-.38,.7-.18,.36-.37,.75-.57,1.16-.2,.41-.38,.79-.54,1.13-.16,.34-.26,.55-.3,.62-.4,.61-.87,1.27-1.43,1.97-.56,.7-.98,1.29-1.27,1.75-.29,.43-.52,.78-.7,1.05-.18,.27-.35,.54-.51,.81-.16,.27-.35,.58-.57,.92-.22,.34-.52,.82-.92,1.43-.54,.76-1.13,1.53-1.78,2.32-.65,.79-1.46,1.71-2.43,2.75-.83,.76-1.55,1.32-2.16,1.7-.61,.38-1.3,.57-2.05,.57-.25,0-.53-.05-.84-.16-.31-.11-.59-.24-.86-.41s-.51-.34-.73-.54c-.22-.2-.36-.37-.43-.51-.22-.32-.4-.72-.54-1.19-.14-.47-.25-.94-.32-1.4-.07-.47-.11-.88-.11-1.24s.04-.59,.11-.7c.14-.5,.48-.88,1-1.13,.52-.25,.93-.38,1.22-.38h1.35l1.35,.76c.11,0,.19,.03,.24,.08,.05,.05,.1,.1,.14,.13,.04,.04,.11,.05,.22,.03,.11-.02,.27-.1,.49-.24,.72-.36,1.4-.87,2.05-1.54s1.24-1.38,1.78-2.13c.54-.76,1.03-1.52,1.49-2.29,.45-.77,.82-1.49,1.11-2.13l.32-.43c0-.22,.13-.45,.38-.7,.11-.14,.23-.27,.38-.38,.07-.72,.2-1.16,.38-1.32,.18-.16,.36-.37,.54-.62,.07-.14,.18-.36,.32-.65,.14-.29,.31-.58,.49-.86,.18-.32,.4-.67,.65-1.03,0-.32,.05-.59,.16-.81,.04-.14,.09-.27,.16-.38l.59-.92c0-.07,.02-.17,.05-.3,.04-.13-.04-.28-.22-.46l-1.03-.16c-.36-.25-.67-.5-.92-.76-.25-.22-.47-.42-.65-.62-.18-.2-.27-.39-.27-.57l.16-1.03c0-.18,.26-.33,.78-.46,.52-.13,1.19-.22,2-.3s1.7-.12,2.67-.14c.97-.02,1.88-.04,2.73-.05,.85-.02,1.58-.02,2.21,0,.63,.02,1.02,.03,1.16,.03Z"/><path class="cls-1" d="M578.92,24.9c.61,.07,1.06,.33,1.35,.78,.29,.45,.43,.94,.43,1.48l-.27,1.51c-.07,.18-.17,.35-.3,.51-.13,.16-.26,.33-.41,.51-.14,.18-.32,.38-.54,.59-.07,.76-.3,1.41-.68,1.97-.38,.56-.64,1.21-.78,1.97,0,.29-.04,.58-.11,.86-.07,.29-.14,.56-.22,.81-.11,.29-.22,.58-.32,.86v.59c-.07,.4-.18,.69-.32,.89-.14,.2-.32,.5-.54,.89-.07,.29-.15,.61-.24,.97-.09,.36-.17,.74-.24,1.13,0,.29,.04,.69,.14,1.21,.09,.52,.41,.82,.95,.89,.29,0,.56-.08,.81-.24,.25-.16,.52-.33,.81-.51,.18-.14,.37-.28,.57-.41,.2-.12,.42-.19,.67-.19,.72,.18,1.03,.35,.95,.51-.09,.16-.21,.39-.35,.67,0,.11-.13,.35-.4,.73s-.59,.77-.95,1.19c-.36,.41-.73,.8-1.11,1.16-.38,.36-.66,.59-.84,.7-.11,.25-.37,.64-.78,1.16-.41,.52-.88,1.04-1.4,1.54-.52,.5-1.05,.94-1.59,1.3-.54,.36-.99,.52-1.35,.49-.25-.04-.51-.15-.78-.35-.27-.2-.51-.44-.73-.73-.22-.29-.38-.58-.49-.89-.11-.31-.14-.6-.11-.89v-.86c.18-.68,.09-1.08-.27-1.19l.11-1.08,.49-1.35c.07-.5,.13-.93,.16-1.27,.04-.34,.13-.76,.27-1.27v-.49c-.14-.58-.79-.86-1.94-.86-.9,.07-1.66,.12-2.27,.13-.61,.02-1.26,.06-1.94,.13,0,.18-.03,.33-.08,.46-.05,.13-.08,.28-.08,.46,0,.29-.05,.68-.14,1.19-.09,.5-.14,.9-.14,1.19-.18,.68-.28,1.26-.3,1.73-.02,.47-.03,1.15-.03,2.05-.07,.4-.13,.73-.16,1-.04,.27-.13,.44-.27,.51-.18,.22-.47,.43-.86,.65-.4,.22-.7,.45-.92,.7-.47,.43-.93,.76-1.38,.97-.45,.22-1.05,.29-1.81,.22-.5-.07-.92-.33-1.24-.78-.32-.45-.41-1.09-.27-1.92,.04-.07,.09-.16,.16-.27,.04-.07,.07-.16,.11-.27,.04-.11,.05-.23,.05-.38,.07-.4,.17-.8,.3-1.22,.13-.41,.22-.71,.3-.89l.32-1.46c.07-.54,.22-.95,.43-1.21,.22-.27,.36-.67,.43-1.21,0-.5,.1-.93,.3-1.27,.2-.34,.3-.76,.3-1.27l.49-.92c0-.25,.04-.58,.14-1,.09-.41,.2-.85,.32-1.3,.13-.45,.24-.91,.35-1.38,.11-.47,.18-.9,.22-1.3,0-.29-.09-.61-.27-.97-.18-.36-.54-.58-1.08-.65-.22,0-.43,.06-.65,.19-.22,.13-.7,.15-1.46,.08-.07-.07-.13-.16-.16-.27-.07-.22-.11-.47-.11-.76v-.43c0-.07,.04-.23,.11-.49,0-.29,.34-.73,1.03-1.32,.68-.59,1.46-1.17,2.32-1.73,.86-.56,1.7-1.04,2.51-1.46,.81-.41,1.32-.6,1.54-.57,.61,0,1.08,.24,1.4,.73s.45,.98,.38,1.49c-.11,1.04-.16,1.8-.16,2.27v.76c-.07,.76-.22,1.41-.43,1.97-.22,.56-.36,1.2-.43,1.92v.49c0,.18,0,.39-.03,.62-.02,.23-.05,.46-.08,.67-.04,.25-.05,.52-.05,.81v.11l.86-.43c.25,.07,.47,.11,.65,.11s.47-.04,.86-.11c.18-.04,.34-.07,.49-.11,.32-.07,.67-.18,1.03-.32,.07-.25,.31-.36,.7-.32,.4,.04,.72,.09,.97,.16,.22,0,.42-.07,.62-.22,.2-.14,.39-.32,.57-.54l.43-1.78c0-.25,.05-.63,.16-1.13,.11-.5,.16-.99,.16-1.46,.04-.22,.07-.43,.11-.65,.04-.18,.07-.37,.11-.57,.04-.2,.05-.39,.05-.57,0-.5,.16-1.01,.49-1.51,.25-.32,.63-.65,1.13-.97,.5-.32,1.03-.61,1.59-.86,.56-.25,1.09-.46,1.59-.62,.5-.16,.86-.24,1.08-.24Z"/><path class="cls-1" d="M591.94,24.9c.32,0,.56,.18,.7,.54,.14,.36,.22,.68,.22,.97-.65,2.27-1.22,4.34-1.73,6.21-.22,.79-.43,1.58-.65,2.35s-.41,1.48-.57,2.13-.29,1.2-.38,1.65c-.09,.45-.14,.75-.14,.89,0,.25-.05,.67-.14,1.24-.09,.58-.09,1.11,0,1.59,.09,.49,.32,.81,.7,.97,.38,.16,1.03-.06,1.97-.67,.07-.18,.31-.41,.7-.7,.4-.29,.83-.65,1.3-1.08,.29-.29,.47-.58,.54-.89,.07-.31,.18-.46,.32-.46,0-.29,.13-.56,.38-.81,.25-.25,.38-.49,.38-.7,.07-.25,.27-.72,.59-1.4s.68-1.51,1.08-2.48c.32-.68,.63-1.42,.92-2.21,.29-.79,.54-1.57,.76-2.32,.22-.76,.39-1.45,.51-2.08,.13-.63,.19-1.14,.19-1.54s.09-.7,.27-.92c.18-.22,.41-.38,.68-.49,.27-.11,.55-.17,.84-.19,.29-.02,.54-.03,.76-.03h1.24c.43,0,.78,.22,1.05,.65s.41,.92,.41,1.46c0,.11-.05,.44-.14,1-.09,.56-.2,1.2-.32,1.92-.13,.72-.28,1.46-.46,2.21-.18,.76-.36,1.39-.54,1.89-.76,1.62-1.49,3.23-2.21,4.83-.72,1.6-1.08,3.16-1.08,4.67,0,.18,.07,.38,.22,.59,.07,.11,.14,.2,.22,.27,.47,0,.95-.14,1.43-.43,.49-.29,.92-.59,1.3-.92s.71-.63,1-.92c.29-.29,.49-.43,.59-.43s.22,.05,.35,.16c.13,.11,.24,.22,.35,.32,.14,.14,.27,.29,.38,.43,0,.14-.17,.5-.51,1.05-.34,.56-.74,1.15-1.19,1.78-.45,.63-.88,1.21-1.3,1.75-.41,.54-.68,.86-.78,.97-.36,.25-.68,.48-.95,.67-.27,.2-.51,.4-.73,.59s-.44,.43-.68,.7c-.23,.27-.5,.6-.78,1-.47,.47-.95,.79-1.46,.97-.5,.18-1.03,.27-1.57,.27-.25,0-.5-.08-.73-.24-.23-.16-.44-.36-.62-.59-.18-.23-.32-.49-.43-.76-.11-.27-.16-.49-.16-.67v-1.51c.14-.43,.29-.86,.43-1.3,.11-.36,.22-.74,.32-1.13,.11-.4,.16-.74,.16-1.03,0-.22-.03-.44-.08-.68-.05-.23-.23-.35-.51-.35-.22,0-.47,.13-.76,.41-.29,.27-.58,.58-.86,.92-.29,.34-.56,.67-.81,1-.25,.32-.45,.54-.59,.65-.22,.29-.61,.73-1.19,1.32-.58,.59-1.19,1.19-1.84,1.78-.65,.59-1.27,1.12-1.86,1.59-.59,.47-1.02,.7-1.27,.7-.22,0-.43-.1-.65-.3-.22-.2-.41-.43-.57-.7-.16-.27-.3-.54-.41-.81-.11-.27-.16-.46-.16-.57v-1.51c0-.29,.02-.58,.05-.86,.04-.25,.06-.5,.08-.76,.02-.25,.03-.47,.03-.65,0-.22,.04-.51,.14-.89,.09-.38,.14-.82,.14-1.32,0-.47,.06-.95,.19-1.46,.13-.5,.22-.88,.3-1.13l.43-2.05c.07-.25,.26-.68,.57-1.3,.31-.61,.46-1.44,.46-2.48,0-.5,.02-.86,.05-1.05,.04-.2-.18-.3-.65-.3-.22,0-.44,.04-.68,.11-.23,.07-.55,.18-.95,.32-.29,.18-.58,.32-.86,.43-.29,.11-.5,.16-.65,.16-.22,0-.45-.13-.7-.41-.25-.27-.38-.62-.38-1.05s.11-.76,.32-1c.22-.23,.48-.43,.78-.59,.31-.16,.6-.32,.89-.49,.29-.16,.49-.37,.59-.62,.47-.36,1.03-.87,1.67-1.54,.65-.67,1.31-1.32,2-1.97,.68-.65,1.34-1.21,1.97-1.67,.63-.47,1.2-.7,1.7-.7h1.03Z"/><path class="cls-1" d="M625.9,60.81c.18,.22,.4,.52,.65,.92,.25,.4,.49,.74,.7,1.03,.29,.43,.48,.91,.57,1.43,.09,.52,.1,1.03,.03,1.54,0,.07-.03,.3-.08,.7-.05,.4-.13,.82-.22,1.27-.09,.45-.2,.87-.32,1.27-.13,.4-.26,.63-.41,.7-.47,.5-.88,1-1.24,1.49-.36,.49-.85,.98-1.46,1.49-.25,.07-.57,.22-.95,.46-.38,.23-.73,.39-1.05,.46-.97,.22-2.01,.4-3.1,.57-1.1,.16-1.95,.12-2.56-.13-.76-.29-1.4-.45-1.92-.49-.52-.04-.98-.16-1.38-.38-.76-.65-1.3-1.34-1.62-2.08-.32-.74-.44-1.42-.35-2.05,.09-.63,.35-1.15,.78-1.57,.43-.41,1.03-.62,1.78-.62,.32,0,.68,.13,1.05,.4,.38,.27,.82,.58,1.32,.95,.5,.36,1.12,.73,1.86,1.11,.74,.38,1.63,.66,2.67,.84,.22-.07,.57-.05,1.05,.08,.49,.12,.87,.04,1.16-.24,.25-.22,.44-.39,.57-.51,.13-.13,.19-.3,.19-.51,0-.29,.02-.67,.05-1.13,.04-.47-.18-.85-.65-1.13l-.92-1.03c-.29-.07-.62-.39-1-.95-.38-.56-.69-1.14-.94-1.75-.25-.61-.43-1.16-.54-1.65-.11-.49-.14-.98-.11-1.49,.04-.5,.13-1.05,.27-1.65,.14-.59,.32-1.31,.54-2.13,.11-.18,.2-.33,.27-.46,.07-.13,.14-.25,.22-.38,.07-.13,.16-.29,.27-.49,.11-.2,.25-.46,.43-.78,.4-.68,.84-1.36,1.32-2.03,.49-.67,.85-1.2,1.11-1.59,.22-.47,.27-.84,.16-1.11-.11-.27-.36-.15-.76,.35-.47,.47-1.06,.94-1.78,1.4-.72,.47-1.33,.7-1.84,.7s-.78-.22-.84-.67-.08-.87-.08-1.27v-1.51c.14-.43,.29-.86,.43-1.3,.11-.36,.22-.74,.32-1.13,.11-.4,.16-.74,.16-1.03,0-.22-.03-.44-.08-.68-.05-.23-.23-.35-.51-.35-.22,0-.47,.13-.76,.41-.29,.27-.58,.58-.86,.92-.29,.34-.56,.67-.81,1-.25,.32-.45,.54-.59,.65-.22,.29-.61,.73-1.19,1.32-.58,.59-1.19,1.19-1.84,1.78-.65,.59-1.27,1.12-1.86,1.59-.59,.47-1.02,.7-1.27,.7-.22,0-.43-.1-.65-.3-.22-.2-.41-.43-.57-.7-.16-.27-.3-.54-.41-.81-.11-.27-.16-.46-.16-.57v-1.51c0-.29,.02-.58,.05-.86,.04-.25,.06-.5,.08-.76,.02-.25,.03-.47,.03-.65,0-.22,.04-.51,.14-.89,.09-.38,.14-.82,.14-1.32,0-.47,.06-.95,.19-1.46,.13-.5,.22-.88,.3-1.13l.43-2.05c.07-.25,.26-.68,.57-1.3,.31-.61,.46-1.44,.46-2.48,0-.5,.02-.86,.05-1.05,.04-.2-.18-.3-.65-.3-.22,0-.44,.04-.68,.11-.23,.07-.55,.18-.95,.32-.29,.18-.58,.32-.86,.43-.29,.11-.5,.16-.65,.16-.22,0-.45-.13-.7-.41-.25-.27-.38-.62-.38-1.05s.11-.76,.32-1c.22-.23,.48-.43,.78-.59,.31-.16,.6-.32,.89-.49,.29-.16,.49-.37,.59-.62,.47-.36,1.03-.87,1.67-1.54,.65-.67,1.31-1.32,2-1.97,.68-.65,1.34-1.21,1.97-1.67,.63-.47,1.2-.7,1.7-.7h1.03c.32,0,.56,.18,.7,.54,.14,.36,.22,.68,.22,.97-.65,2.27-1.22,4.34-1.73,6.21-.22,.79-.43,1.58-.65,2.35s-.41,1.48-.57,2.13-.29,1.2-.38,1.65c-.09,.45-.14,.75-.14,.89,0,.25-.05,.67-.14,1.24-.09,.58-.09,1.11,0,1.59,.09,.49,.32,.81,.7,.97,.38,.16,1.03-.06,1.97-.67,.07-.18,.31-.41,.7-.7,.4-.29,.83-.65,1.3-1.08,.29-.29,.47-.58,.54-.89,.07-.31,.18-.46,.32-.46,0-.29,.13-.56,.38-.81,.25-.25,.38-.49,.38-.7,.07-.25,.27-.72,.59-1.4s.68-1.51,1.08-2.48c.32-.68,.63-1.42,.92-2.21,.29-.79,.54-1.57,.76-2.32,.22-.76,.39-1.45,.51-2.08,.13-.63,.19-1.14,.19-1.54s.09-.7,.27-.92c.18-.22,.41-.38,.68-.49,.27-.11,.55-.17,.84-.19,.29-.02,.54-.03,.76-.03h1.24c.43,0,.78,.22,1.05,.65s.41,.92,.41,1.46c0,.11-.05,.44-.14,1-.09,.56-.2,1.2-.32,1.92-.13,.72-.28,1.46-.46,2.21-.18,.76-.36,1.39-.54,1.89-.76,1.62-1.49,3.23-2.21,4.83-.72,1.6-1.08,3.16-1.08,4.67,0,.18,.07,.38,.22,.59,.07,.11,.14,.2,.22,.27,.47,0,.95-.14,1.43-.43,.49-.29,.92-.59,1.3-.92s.71-.63,1-.92c.29-.29,.49-.43,.59-.43s.2,.06,.27,.19c.07,.13,.14,.26,.22,.41,.07,.18,.13,.38,.16,.59,0,.18-.07,.5-.22,.97-.14,.47-.49,1.04-1.03,1.73-.18,.58-.41,1.17-.68,1.78s-.54,1.2-.81,1.75c-.27,.56-.52,1.06-.76,1.51-.23,.45-.42,.78-.57,1-.11,.14-.23,.36-.35,.65-.13,.29-.24,.59-.35,.92-.11,.32-.22,.65-.32,.97-.11,.32-.22,.58-.32,.76-.68,1.58-.79,2.68-.32,3.29,.18,.61,.38,1.21,.59,1.78,.22,.58,.47,.99,.76,1.24Z"/><path class="cls-1" d="M641.18,24.9c.32,0,.56,.18,.7,.54,.14,.36,.22,.68,.22,.97-.65,2.27-1.22,4.34-1.73,6.21-.22,.79-.43,1.58-.65,2.35s-.41,1.48-.57,2.13-.29,1.2-.38,1.65c-.09,.45-.14,.75-.14,.89,0,.25-.05,.67-.14,1.24-.09,.58-.09,1.11,0,1.59,.09,.49,.32,.81,.7,.97,.38,.16,1.03-.06,1.97-.67,.07-.18,.31-.41,.7-.7,.4-.29,.83-.65,1.3-1.08,.29-.29,.47-.58,.54-.89,.07-.31,.18-.46,.32-.46,0-.29,.13-.56,.38-.81,.25-.25,.38-.49,.38-.7,.07-.25,.27-.72,.59-1.4s.68-1.51,1.08-2.48c.32-.68,.63-1.42,.92-2.21,.29-.79,.54-1.57,.76-2.32,.22-.76,.39-1.45,.51-2.08,.13-.63,.19-1.14,.19-1.54s.09-.7,.27-.92c.18-.22,.41-.38,.68-.49,.27-.11,.55-.17,.84-.19,.29-.02,.54-.03,.76-.03h1.24c.43,0,.78,.22,1.05,.65s.41,.92,.41,1.46c0,.11-.05,.44-.14,1-.09,.56-.2,1.2-.32,1.92-.13,.72-.28,1.46-.46,2.21-.18,.76-.36,1.39-.54,1.89-.76,1.62-1.49,3.23-2.21,4.83-.72,1.6-1.08,3.16-1.08,4.67,0,.18,.07,.38,.22,.59,.07,.11,.14,.2,.22,.27,.47,0,.95-.14,1.43-.43,.49-.29,.92-.59,1.3-.92s.71-.63,1-.92c.29-.29,.49-.43,.59-.43s.22,.05,.35,.16c.13,.11,.24,.22,.35,.32,.14,.14,.27,.29,.38,.43,0,.14-.17,.5-.51,1.05-.34,.56-.74,1.15-1.19,1.78-.45,.63-.88,1.21-1.3,1.75-.41,.54-.68,.86-.78,.97-.36,.25-.68,.48-.95,.67-.27,.2-.51,.4-.73,.59s-.44,.43-.68,.7c-.23,.27-.5,.6-.78,1-.47,.47-.95,.79-1.46,.97-.5,.18-1.03,.27-1.57,.27-.25,0-.5-.08-.73-.24-.23-.16-.44-.36-.62-.59-.18-.23-.32-.49-.43-.76-.11-.27-.16-.49-.16-.67v-1.51c.14-.43,.29-.86,.43-1.3,.11-.36,.22-.74,.32-1.13,.11-.4,.16-.74,.16-1.03,0-.22-.03-.44-.08-.68-.05-.23-.23-.35-.51-.35-.22,0-.47,.13-.76,.41-.29,.27-.58,.58-.86,.92-.29,.34-.56,.67-.81,1-.25,.32-.45,.54-.59,.65-.22,.29-.61,.73-1.19,1.32-.58,.59-1.19,1.19-1.84,1.78-.65,.59-1.27,1.12-1.86,1.59-.59,.47-1.02,.7-1.27,.7-.22,0-.43-.1-.65-.3-.22-.2-.41-.43-.57-.7-.16-.27-.3-.54-.41-.81-.11-.27-.16-.46-.16-.57v-1.51c0-.29,.02-.58,.05-.86,.04-.25,.06-.5,.08-.76,.02-.25,.03-.47,.03-.65,0-.22,.04-.51,.14-.89,.09-.38,.14-.82,.14-1.32,0-.47,.06-.95,.19-1.46,.13-.5,.22-.88,.3-1.13l.43-2.05c.07-.25,.26-.68,.57-1.3,.31-.61,.46-1.44,.46-2.48,0-.5,.02-.86,.05-1.05,.04-.2-.18-.3-.65-.3-.22,0-.44,.04-.68,.11-.23,.07-.55,.18-.95,.32-.29,.18-.58,.32-.86,.43-.29,.11-.5,.16-.65,.16-.22,0-.45-.13-.7-.41-.25-.27-.38-.62-.38-1.05s.11-.76,.32-1c.22-.23,.48-.43,.78-.59,.31-.16,.6-.32,.89-.49,.29-.16,.49-.37,.59-.62,.47-.36,1.03-.87,1.67-1.54,.65-.67,1.31-1.32,2-1.97,.68-.65,1.34-1.21,1.97-1.67,.63-.47,1.2-.7,1.7-.7h1.03Z"/><path class="cls-1" d="M680.66,24.9c.32,0,.56,.18,.7,.54,.14,.36,.22,.68,.22,.97-.65,2.27-1.22,4.34-1.73,6.21-.22,.79-.43,1.58-.65,2.35s-.41,1.48-.57,2.13-.29,1.2-.38,1.65c-.09,.45-.14,.75-.14,.89,0,.25-.05,.67-.14,1.24-.09,.58-.09,1.11,0,1.59,.09,.49,.32,.81,.7,.97,.38,.16,1.03-.06,1.97-.67,.07-.18,.31-.41,.7-.7,.4-.29,.83-.65,1.3-1.08,.29-.29,.47-.58,.54-.89,.07-.31,.18-.46,.32-.46,0-.29,.13-.56,.38-.81,.25-.25,.38-.49,.38-.7,.07-.25,.27-.72,.59-1.4s.68-1.51,1.08-2.48c.32-.68,.63-1.42,.92-2.21,.29-.79,.54-1.57,.76-2.32,.22-.76,.39-1.45,.51-2.08,.13-.63,.19-1.14,.19-1.54s.09-.7,.27-.92c.18-.22,.41-.38,.68-.49,.27-.11,.55-.17,.84-.19,.29-.02,.54-.03,.76-.03h1.24c.43,0,.78,.22,1.05,.65s.41,.92,.41,1.46c0,.11-.05,.44-.14,1-.09,.56-.2,1.2-.32,1.92-.13,.72-.28,1.46-.46,2.21-.18,.76-.36,1.39-.54,1.89-.76,1.62-1.49,3.23-2.21,4.83-.72,1.6-1.08,3.16-1.08,4.67,0,.18,.07,.38,.22,.59,.07,.11,.14,.2,.22,.27,.47,0,.95-.14,1.43-.43,.49-.29,.92-.59,1.3-.92s.71-.63,1-.92c.29-.29,.49-.43,.59-.43s.22,.05,.35,.16c.13,.11,.24,.22,.35,.32,.14,.14,.27,.29,.38,.43,0,.14-.17,.5-.51,1.05-.34,.56-.74,1.15-1.19,1.78-.45,.63-.88,1.21-1.3,1.75-.41,.54-.68,.86-.78,.97-.36,.25-.68,.48-.95,.67-.27,.2-.51,.4-.73,.59s-.44,.43-.68,.7c-.23,.27-.5,.6-.78,1-.47,.47-.95,.79-1.46,.97-.5,.18-1.03,.27-1.57,.27-.25,0-.5-.08-.73-.24-.23-.16-.44-.36-.62-.59-.18-.23-.32-.49-.43-.76-.11-.27-.16-.49-.16-.67v-1.51c.14-.43,.29-.86,.43-1.3,.11-.36,.22-.74,.32-1.13,.11-.4,.16-.74,.16-1.03,0-.22-.03-.44-.08-.68-.05-.23-.23-.35-.51-.35-.22,0-.47,.13-.76,.41-.29,.27-.58,.58-.86,.92-.29,.34-.56,.67-.81,1-.25,.32-.45,.54-.59,.65-.22,.29-.61,.73-1.19,1.32-.58,.59-1.19,1.19-1.84,1.78-.65,.59-1.27,1.12-1.86,1.59-.59,.47-1.02,.7-1.27,.7-.22,0-.43-.1-.65-.3-.22-.2-.41-.43-.57-.7-.16-.27-.3-.54-.41-.81-.11-.27-.16-.46-.16-.57v-1.51c0-.29,.02-.58,.05-.86,.04-.25,.06-.5,.08-.76,.02-.25,.03-.47,.03-.65,0-.22,.04-.51,.14-.89,.09-.38,.14-.82,.14-1.32,0-.47,.06-.95,.19-1.46,.13-.5,.22-.88,.3-1.13l.43-2.05c.07-.25,.26-.68,.57-1.3,.31-.61,.46-1.44,.46-2.48,0-.5,.02-.86,.05-1.05,.04-.2-.18-.3-.65-.3-.22,0-.44,.04-.68,.11-.23,.07-.55,.18-.95,.32-.29,.18-.58,.32-.86,.43-.29,.11-.5,.16-.65,.16-.22,0-.45-.13-.7-.41-.25-.27-.38-.62-.38-1.05s.11-.76,.32-1c.22-.23,.48-.43,.78-.59,.31-.16,.6-.32,.89-.49,.29-.16,.49-.37,.59-.62,.47-.36,1.03-.87,1.67-1.54,.65-.67,1.31-1.32,2-1.97,.68-.65,1.34-1.21,1.97-1.67,.63-.47,1.2-.7,1.7-.7h1.03Z"/><path class="cls-1" d="M720.02,24.63c.5,0,1.12,.02,1.86,.05,.74,.04,1.36,.16,1.86,.38,.54,0,.89,.22,1.05,.65,.16,.43,.37,.92,.62,1.46,.14,.14,.31,.34,.51,.59,.2,.25,.38,.51,.54,.78,.16,.27,.3,.55,.41,.84,.11,.29,.16,.54,.16,.76l-.43,4.81c0,1.01-.22,2.12-.65,3.35-.43,1.22-1.06,2.32-1.89,3.29-.29,.29-.5,.6-.62,.95-.13,.34-.25,.69-.38,1.05-.13,.36-.27,.73-.43,1.11-.16,.38-.39,.75-.68,1.11-.22,.25-.46,.56-.73,.92-.27,.36-.56,.73-.86,1.11-.31,.38-.63,.72-.97,1.03-.34,.31-.69,.53-1.05,.67-.54,.29-.99,.54-1.35,.76-.36,.22-.68,.4-.97,.54-.29,.14-.59,.24-.89,.3-.31,.05-.64,.08-1,.08-.54,0-1.04-.13-1.51-.38-.47-.25-.87-.58-1.21-1-.34-.41-.62-.88-.84-1.4-.22-.52-.32-1.05-.32-1.59v-3.62c0-.22-.07-.41-.22-.59-.14-.18-.22-.68-.22-1.51-.04-1.04,.22-2.3,.76-3.78,.54-1.48,1.18-2.92,1.92-4.35,.74-1.42,1.48-2.68,2.21-3.78,.74-1.1,1.3-1.77,1.7-2.03,.4-.25,.73-.53,1-.84,.27-.31,.53-.58,.78-.84,.25-.25,.51-.46,.78-.62s.62-.24,1.05-.24Zm.27,6.16c-.58,0-1.16,.24-1.75,.73-.59,.49-1.14,1.04-1.65,1.67-.5,.63-.95,1.26-1.35,1.89-.4,.63-.67,1.09-.81,1.38l-.54,2.05c-.14,.5-.26,.99-.35,1.46-.09,.47-.14,.76-.14,.86v1.03c.14,.11,.27,.32,.38,.65,.11,.32,.24,.65,.41,.97,.16,.32,.35,.61,.57,.86,.22,.25,.52,.38,.92,.38,.72-.32,1.39-.65,2-.97,.5-.29,1-.59,1.49-.92s.82-.65,1-.97c.22-.5,.46-1.1,.73-1.78,.27-.68,.53-1.33,.78-1.94-.07-.29,0-.58,.24-.86,.23-.29,.35-.56,.35-.81v-1.51c0-.18-.05-.49-.14-.95-.09-.45-.23-.92-.43-1.4-.2-.49-.44-.91-.73-1.27-.29-.36-.61-.54-.97-.54Z"/><path class="cls-1" d="M755.12,60.16c.22,.32,.49,.74,.81,1.24,.32,.5,.61,.9,.86,1.19,.29,.5,.48,1,.57,1.49,.09,.49,.1,1.03,.03,1.65,0,.04-.03,.24-.08,.62-.05,.38-.14,.79-.24,1.24-.11,.45-.23,.88-.35,1.3-.13,.41-.26,.68-.41,.78-.43,.43-.84,.9-1.22,1.4-.38,.5-.87,.97-1.48,1.4-.22,.18-.52,.39-.92,.62-.4,.23-.74,.39-1.03,.46-.97,.22-2.01,.39-3.1,.51-1.1,.13-1.95,.1-2.56-.08-.76-.29-1.4-.46-1.94-.51-.54-.05-1.01-.23-1.4-.51-.97-.83-1.6-1.62-1.89-2.38-.29-.76-.34-1.43-.16-2.02,.18-.59,.51-1.06,1-1.4,.49-.34,1.03-.51,1.65-.51,.32,0,.68,.13,1.05,.4,.38,.27,.83,.59,1.35,.97,.52,.38,1.14,.76,1.86,1.16,.72,.4,1.6,.7,2.65,.92,.11-.07,.26-.1,.46-.08,.2,.02,.41,.04,.62,.05,.22,.02,.43,.02,.65,0,.22-.02,.4-.12,.54-.3,.5-.32,.76-.61,.76-.86,0-.29,.02-.67,.05-1.13,.04-.47-.18-.85-.65-1.13l-.92-.92c-.29-.07-.63-.43-1.03-1.08-.4-.65-.7-1.28-.92-1.89-.25-.58-.43-1.1-.54-1.57-.11-.47-.13-.95-.08-1.43,.05-.49,.19-1.02,.41-1.59,.22-.58,.49-1.26,.81-2.05,.07-.18,.21-.41,.41-.7,.2-.29,.41-.6,.65-.95,.23-.34,.47-.68,.7-1.03,.23-.34,.41-.64,.51-.89,.14-.47,.33-.86,.57-1.19,.23-.32,.39-.68,.46-1.08,.07-.22,.07-.39,0-.51-.07-.13-.22-.15-.43-.08-.11,.11-.27,.29-.49,.54-.22,.25-.46,.5-.73,.76-.27,.25-.58,.48-.92,.67-.34,.2-.67,.3-1,.3-.54,0-.9-.18-1.08-.54-.18-.36-.27-.78-.27-1.27s.03-.99,.08-1.51c.05-.52,.06-.93,.03-1.21l.49-1.78c0-.11,.02-.3,.05-.57,.04-.27,.04-.5,0-.7-.04-.2-.16-.31-.38-.35-.22-.04-.56,.11-1.03,.43-.22,.14-.51,.43-.89,.86-.38,.43-.81,.93-1.3,1.48-.49,.56-.98,1.15-1.48,1.78-.5,.63-.98,1.2-1.43,1.7-.45,.5-.86,.93-1.21,1.27-.36,.34-.61,.51-.76,.51-.54,0-.99-.1-1.35-.3-.36-.2-.65-.44-.86-.73-.22-.29-.38-.59-.49-.92s-.16-.61-.16-.86l.16-2.27c0-.11,.02-.31,.05-.59,.04-.29,.03-.55-.03-.78-.05-.23-.16-.39-.32-.46-.16-.07-.42,.04-.78,.32-.22,.18-.59,.59-1.13,1.24-.54,.65-1.13,1.32-1.78,2.03-.65,.7-1.31,1.33-2,1.89-.68,.56-1.3,.84-1.84,.84-.72,0-1.28-.22-1.67-.65-.4-.43-.63-.92-.7-1.46-.04-.22-.05-.48-.03-.78,.02-.31,.05-.62,.11-.95,.05-.32,.1-.63,.14-.92,.04-.29,.05-.5,.05-.65v-1.03c0-.54,.16-1.3,.49-2.29,.32-.99,.69-2.05,1.11-3.19,.41-1.13,.78-2.22,1.11-3.27,.32-1.04,.49-1.89,.49-2.54,0-.18,.03-.4,.08-.67,.05-.27,.07-.49,.05-.67-.02-.18-.11-.29-.27-.32-.16-.04-.48,.07-.95,.32-.18,.11-.46,.31-.84,.59-.38,.29-.76,.51-1.13,.67-.38,.16-.7,.19-.97,.08-.27-.11-.39-.5-.35-1.19,.61-.68,1.19-1.35,1.73-2,.47-.54,.93-1.07,1.38-1.59,.45-.52,.82-.93,1.11-1.21,.54-.36,.98-.72,1.32-1.08,.34-.36,.66-.67,.95-.92,.29-.25,.6-.46,.95-.62,.34-.16,.76-.24,1.27-.24,.36,0,.67,.12,.94,.35,.27,.23,.49,.5,.68,.78,.18,.29,.31,.59,.38,.89,.07,.31,.11,.53,.11,.68,0,1.01-.12,1.94-.35,2.81-.23,.86-.51,1.71-.84,2.54s-.66,1.65-1,2.46c-.34,.81-.6,1.67-.78,2.57-.07,.18-.13,.37-.16,.57-.04,.2-.09,.41-.16,.62-.07,.25-.13,.5-.16,.76-.36,1.44-.4,2.5-.11,3.19,.29,.68,.77,.88,1.46,.59,.68-.25,1.32-.86,1.92-1.84,.59-.97,1.14-2.12,1.65-3.46,.5-1.33,.97-2.74,1.4-4.21,.43-1.48,.85-2.83,1.27-4.08,.41-1.24,.84-2.27,1.27-3.08,.43-.81,.88-1.21,1.35-1.21h1c.41,0,.82,.02,1.21,.05,.4,.04,.73,.08,1,.13,.27,.05,.41,.14,.41,.24,.04,.9-.07,1.8-.32,2.7-.25,.9-.54,1.75-.86,2.57-.32,.81-.66,1.57-1,2.27-.34,.7-.57,1.31-.68,1.81l-.27,1.19c-.07,.29-.16,.68-.27,1.19-.11,.5-.27,1.06-.49,1.67-.18,.43-.35,.86-.51,1.3-.16,.43-.24,.79-.24,1.08,0,.76,.12,1.3,.35,1.62,.23,.32,.62,.29,1.16-.11,.54-.36,1.05-.85,1.54-1.46,.49-.61,.93-1.22,1.32-1.84,.4-.61,.74-1.19,1.03-1.73,.29-.54,.49-.92,.59-1.13,.54-.76,.93-1.49,1.16-2.21,.23-.72,.49-1.39,.78-2,.25-.5,.45-.98,.59-1.43,.14-.45,.31-.87,.49-1.27,.14-.83,.31-1.49,.49-2,.18-.5,.27-.99,.27-1.46,0-.4,.09-.69,.27-.89,.18-.2,.4-.33,.65-.41,.25-.07,.53-.1,.84-.08,.31,.02,.57,.03,.78,.03h1.19c.47,0,.84,.23,1.11,.67,.27,.45,.41,.93,.41,1.43,0,.11-.06,.4-.19,.86-.13,.47-.29,1.02-.49,1.65-.2,.63-.41,1.29-.65,1.97-.23,.68-.44,1.3-.62,1.84-.07,.14-.13,.29-.16,.43-.04,.14-.09,.25-.16,.32-.14,.29-.31,.66-.49,1.11-.18,.45-.35,.94-.51,1.46-.16,.52-.29,1.06-.38,1.62-.09,.56-.12,1.11-.08,1.65,0,.22-.08,.57-.24,1.05-.16,.49-.24,.84-.24,1.05v1.27c0,.34,.25,.51,.76,.51,.22,0,.48-.14,.78-.41,.31-.27,.63-.58,.97-.95,.34-.36,.69-.73,1.05-1.11,.36-.38,.72-.66,1.08-.84,.29-.11,.47-.02,.54,.27,.04,.14,.05,.31,.05,.49-.11,.54-.31,1.19-.59,1.94-.29,.76-.6,1.54-.95,2.35-.34,.81-.68,1.58-1,2.32-.32,.74-.58,1.34-.76,1.81-.14,.4-.33,.85-.57,1.35-.23,.5-.44,.9-.62,1.19-.22,.61-.42,1.32-.62,2.13-.2,.81-.3,1.45-.3,1.92,0,.54,.08,1.16,.24,1.86,.16,.7,.39,1.12,.68,1.27Z"/><path class="cls-1" d="M771.64,24.63c.76,0,1.39,.14,1.92,.41,.52,.27,.94,.64,1.27,1.11s.56,1.01,.7,1.62c.14,.61,.2,1.26,.16,1.94,0,.97-.36,1.75-1.08,2.35-.72,.59-1.46,1.11-2.21,1.54-.68,.47-1.41,.88-2.19,1.24-.77,.36-1.49,.76-2.16,1.19-.67,.43-1.22,.94-1.67,1.51-.45,.58-.69,1.31-.73,2.21v2.27c-.07,.61,.05,1.21,.38,1.81s.74,.89,1.24,.89c.04,.04,.18-.02,.43-.16,.25-.14,.53-.32,.84-.51,.31-.2,.61-.4,.92-.62,.31-.22,.53-.38,.67-.49,.54-.25,.96-.46,1.27-.62,.31-.16,.53-.21,.68-.13,.25,0,.47,.04,.65,.11,.18,.07,.27,.34,.27,.81-.07,.79-.41,1.56-1.03,2.29-.61,.74-1.28,1.42-2,2.05-.72,.63-1.42,1.18-2.11,1.65-.68,.47-1.13,.81-1.35,1.03-.61,.54-1.18,.83-1.7,.86-.52,.04-1.05,.05-1.59,.05-.32-.04-.66-.18-1-.43-.34-.25-.65-.55-.92-.89-.27-.34-.48-.69-.62-1.05-.14-.36-.2-.67-.16-.92v-.92c0-.25-.07-.52-.22-.81-.07-.14-.14-.27-.22-.38l.16-1.08v-.86c0-.14,.04-.53,.11-1.16,.07-.63,.16-1.31,.27-2.05,.11-.74,.21-1.44,.3-2.11,.09-.67,.15-1.11,.19-1.32,.14-.11,.22-.22,.22-.32s-.02-.22-.05-.32c-.04-.11-.05-.24-.05-.41s.07-.35,.22-.57c0-.43,.09-.88,.27-1.35,.11-.25,.22-.5,.32-.76l.76-1.78c.07-.79,.45-1.61,1.13-2.46,.68-.84,1.49-1.61,2.4-2.29,.92-.68,1.86-1.23,2.83-1.65s1.8-.58,2.48-.51Zm-2.43,4.05c-.18,0-.36,.13-.54,.4-.18,.27-.36,.57-.54,.89-.18,.4-.36,.81-.54,1.24-.04,.18-.09,.39-.16,.62-.07,.24-.13,.45-.16,.65-.04,.2-.02,.36,.05,.49,.07,.13,.22,.19,.43,.19,.18,.04,.45,0,.81-.11,.36-.11,.73-.27,1.11-.49,.38-.22,.72-.48,1.03-.78,.31-.31,.48-.64,.51-1v-.92c0-.18-.05-.34-.16-.49-.11-.14-.23-.25-.38-.32-.14-.11-.32-.2-.54-.27l-.92-.11Z"/></g></g></svg>