<?xml version="1.0" encoding="utf-8"?>
<!-- Generator: Adobe Illustrator 27.0.1, SVG Export Plug-In . SVG Version: 6.00 Build 0)  -->
<svg version="1.1" id="Layer_2_00000023240383406142824140000002820095145844101541_"
	 xmlns="http://www.w3.org/2000/svg" xmlns:xlink="http://www.w3.org/1999/xlink" x="0px" y="0px" viewBox="0 0 775.7 75.8"
	 style="enable-background:new 0 0 775.7 75.8;" xml:space="preserve">
<style type="text/css">
	.st0{fill:#686932;}
</style>
<g id="Layer_1-2">
	<g>
		<path class="st0" d="M34.2,18.6c0.8,0,1.3,0.2,1.6,0.5c0.3,0.4,0.5,0.9,0.5,1.5s0,1.4-0.1,2.3S36,24.8,36,25.8c0,0.1,0,0.3,0,0.5
			c0,0.2-0.1,0.5-0.1,0.7c0,0.2-0.1,0.5-0.2,0.8s-0.1,0.5-0.1,0.6c0,0.4,0,0.7,0,1.1c0,0.3,0.1,0.6,0.1,0.9s0,0.6,0,0.8
			c-0.3,0.3-0.4,0.6-0.4,1v4.5c0.1,0.4,0.1,0.7,0.2,1.1c0.1,0.3,0.1,0.6,0.2,1c0,0.4,0,0.7,0,0.9c0,0.3,0,0.5,0,0.7
			c0,0.2,0,0.4,0,0.7c0,0.2,0,0.5,0,0.9c0,0.3,0,0.8,0,1.3c0,0.1,0,0.2,0,0.4c0,0.1-0.1,0.3-0.1,0.4c0,0.1-0.1,0.3-0.1,0.4
			c0,0.1,0,0.3,0,0.5c0,0.2,0.1,0.5,0.2,0.7c0.1,0.2,0.2,0.4,0.4,0.6c0.2,0.2,0.4,0.2,0.7,0.2c0.5,0,1,0,1.6,0.2s1.1,0.2,1.7,0.3
			c0.2,0,0.5,0.1,0.8,0.3c0.3,0.2,0.5,0.4,0.5,0.7c0,0.3,0,0.6,0,0.9c0,0.2-0.1,0.5-0.2,0.8c-0.1,0.2-0.3,0.5-0.6,0.6l-1.2-0.2h-1.9
			c-0.5,0-1,0.1-1.3,0.3c-0.4,0.2-0.9,0.3-1.7,0.3h-1c-0.2,0-0.6,0-1,0c-0.4,0-0.8,0.2-1.1,0.4l-3.5-0.5H22c-0.2,0-0.4,0-0.6-0.1
			c-0.2,0-0.3-0.2-0.3-0.5c0-0.6,0.2-1,0.6-1.3s0.9-0.5,1.4-0.7s1.2-0.3,1.9-0.3c0.7-0.1,1.3-0.2,1.9-0.4c0.6-0.2,1-0.4,1.4-0.8
			c0.4-0.3,0.6-0.8,0.6-1.5c0-0.5,0-0.9-0.1-1.2s-0.1-0.8-0.1-1.5l0.5-3v-7.1c0-0.5,0-0.9,0-1.2c0-0.3-0.2-0.4-0.5-0.4
			c-0.2,0-0.5,0.1-0.9,0.4c-0.3,0.3-0.7,0.6-1,0.9c-0.3,0.3-0.6,0.7-0.8,1c-0.2,0.3-0.3,0.5-0.3,0.7c-0.5,0.9-1.2,1.8-1.9,2.7
			s-1.5,1.7-2.4,2.5c-0.8,0.8-1.6,1.7-2.5,2.5S17.6,43,17,43.8c-0.3,0.5-0.6,0.9-0.8,1.2c-0.2,0.3-0.4,0.7-0.6,1
			c-0.2,0.3-0.4,0.7-0.7,1.1S14.3,48,14,48.5c-0.5,0.4-1.1,1-1.8,1.7c-0.7,0.7-1.3,1.3-1.8,1.8c0,0.2-0.3,0.4-0.8,0.4
			c-0.5,0-1,0-1.3,0c-0.2,0-0.5-0.1-0.7-0.4s-0.5-0.6-0.8-1s-0.5-0.7-0.6-1.1s-0.2-0.6-0.2-0.8c0-0.2,0-0.5,0.1-0.8
			c0-0.3,0.1-0.7,0.1-1.1s0.1-0.8,0.2-1.1c0.1-0.4,0.1-0.7,0.1-0.9v-5.2l-0.3-3c0-0.2,0-0.5,0.1-1c0.1-0.4,0.1-0.8,0.1-1v-2.5
			l0.2-3.2V27c0-0.5-0.1-0.9-0.3-1.3c-0.2-0.4-0.4-0.6-0.7-0.6H4.5l-1-0.8c-0.4,0-0.7,0-0.9,0c-0.2,0-0.4,0-0.6,0
			c-0.2,0-0.4-0.1-0.6-0.2S0.8,24,0.4,23.7c-0.2-0.3-0.3-0.5-0.4-0.8S0,22.5,0,22.2c0-0.8,0.3-1.3,0.9-1.6c0.6-0.3,1.3-0.5,2-0.5
			s1.4,0,1.9,0c0.6,0,1.1,0.1,1.7,0.1s1.1,0.1,1.6,0.1s1.1,0,1.8,0c0.3,0,0.6,0,1.1-0.1s0.9-0.1,1.3-0.2c0.4,0,0.9-0.1,1.3-0.2
			c0.4,0,0.8-0.1,1-0.1h1c0.2,0,0.5,0,0.8,0c0.3,0,0.6,0.1,0.8,0.2s0.5,0.2,0.6,0.5c0.2,0.2,0.2,0.5,0.2,0.9c0,0,0.1,0,0.2,0
			c0,0.1,0.1,0.2,0.1,0.4s0,0.4,0,0.7c0,0.1-0.1,0.2-0.2,0.4s-0.4,0.3-0.6,0.5s-0.5,0.3-0.8,0.5C16.5,24,16.3,24,16.1,24l-1.4,0.6
			c-0.1,0-0.2,0.1-0.4,0.3c-0.2,0.2-0.4,0.5-0.6,0.7s-0.4,0.5-0.6,0.8c-0.2,0.2-0.4,0.4-0.5,0.5l-0.4,4.5c0,0.6,0,1.1,0.1,1.6
			s0.1,0.8,0.1,1.1c0,0.8,0,1.3,0,1.8c0,0.4,0,0.8,0,1s0,0.5,0,0.7c0,0.2,0,0.4,0,0.7c0,0.1,0,0.3-0.1,0.7c0,0.3-0.1,0.7,0,1
			s0.1,0.7,0.2,1s0.3,0.4,0.5,0.4c0.4,0,0.9-0.4,1.6-1.1s1.4-1.6,2.1-2.5c0.7-0.9,1.4-1.8,2-2.7c0.6-0.8,1-1.3,1.2-1.5
			c0.8-0.4,1.4-1,1.8-1.6s0.8-1.3,1.4-1.9c0.7-0.8,1.5-1.7,2.4-2.7c0.9-1.1,1.7-2,2.5-2.7c0.5-0.4,1-0.8,1.5-1.1
			c0.5-0.3,0.9-0.9,1.1-1.6c0.3-0.2,0.5-0.5,0.6-0.7c0.1-0.2,0.4-0.5,0.8-0.8c0.3-0.2,0.7-0.6,1-1.1S33.8,18.6,34.2,18.6L34.2,18.6z
			"/>
		<path class="st0" d="M52.2,26.4c0.8-0.4,1.5-0.7,1.9-1c0.5-0.3,1-0.4,1.7-0.5c0.3,0,0.6-0.1,0.9-0.2c0.3-0.1,0.5-0.1,0.8-0.1h1.3
			c1.2,0.1,2,0.6,2.5,1.4c0.5,0.8,0.8,1.5,1,2.2c0.5,1.5,0.5,2.9,0,4.1c-0.5,1.2-1.2,2.2-2.4,3.2c-0.3,0.2-0.5,0.4-0.8,0.6
			s-0.6,0.3-1,0.4c-0.2,0-0.3,0.1-0.5,0.1c0,0.1,0,0.1,0,0.2c0,0.1,0,0.1,0.1,0.1c0.1,0,0.1,0.1,0.2,0.1c0.3,0.1,0.6,0.1,0.8,0.2
			c0.2,0,0.4,0.1,0.5,0.2s0.3,0.3,0.5,0.5c0.2,0.2,0.4,0.5,0.7,1c0.5,0.5,0.7,1,0.7,1.4s-0.1,1-0.3,1.6c0,0.4-0.1,0.9-0.2,1.5
			c-0.2,0.6-0.4,1.1-0.6,1.7c-0.2,0.6-0.5,1.2-0.9,1.7s-0.7,1-1,1.4c-0.7,0.8-1.5,1.3-2.4,1.6s-1.8,0.7-2.7,1.1
			c-0.7,0.3-1.3,0.5-1.8,0.5s-1,0.1-1.4,0s-0.8-0.1-1.2-0.1c-0.4-0.1-0.8-0.1-1.1-0.1c-0.8,0-1.5-0.2-2-0.5c-0.5-0.3-1-0.6-1.4-0.8
			c-0.5-0.1-0.8-0.5-1.1-0.9c-0.2-0.5-0.3-1-0.3-1.4c0-0.3,0-0.7,0.1-1.2c0.1-0.5,0.2-0.8,0.5-1.1c0.3-0.4,0.7-0.6,1.2-0.8
			c0.5-0.1,1-0.2,1.5-0.1c0.5,0,0.9,0.2,1.3,0.3s0.6,0.3,0.7,0.6c0.2,0.3,0.3,0.6,0.5,0.9c0.1,0.3,0.3,0.6,0.5,0.8s0.5,0.4,0.8,0.5
			c0.3,0.1,0.8,0.1,1.5-0.1c0.5-0.1,1.1-0.4,1.6-0.7c0.5-0.3,0.8-0.8,1-1.6c0.1-0.6,0.2-1.2,0.4-1.8s0.3-1.3,0.3-1.8
			c0-0.6,0-1.1-0.2-1.5c-0.2-0.4-0.6-0.7-1.3-0.9c-0.2-0.1-0.5,0-0.8,0.2c-0.3,0.2-0.7,0.3-1.1,0.3c-0.4,0-0.7,0-1,0.2
			c-0.3,0.1-0.6-0.1-0.8-0.7c-0.1-0.1-0.1-0.3-0.1-0.6c0-0.2,0.1-0.5,0.1-0.7c0.1-0.2,0.2-0.4,0.3-0.6s0.3-0.3,0.4-0.3
			c0.5-0.2,0.9-0.3,1.3-0.5c0.4-0.1,0.9-0.3,1.3-0.5c0.5-0.2,1-0.6,1.5-1s1.2-1,1.9-1.8c0.2-0.2,0.4-0.5,0.5-0.8
			c0.1-0.3,0.2-0.7,0.2-1c0-0.2-0.1-0.5-0.1-0.8s-0.1-0.5-0.2-0.7c-0.1-0.2-0.3-0.3-0.6-0.4s-0.7,0-1.3,0.1c-0.3,0-0.4,0-0.4,0
			s-0.2-0.1-0.5-0.1c-0.5,0.3-0.9,0.5-1.3,0.6c-0.4,0.1-0.6,0.3-0.7,0.6c-0.1,0.2-0.3,0.4-0.6,0.6s-0.5,0.3-0.8,0.4
			c-0.4,0.4-0.7,0.8-1,0.9c-0.2,0.2-0.4,0.3-0.5,0.4c-0.1,0-0.2,0.1-0.3,0.1s-0.1,0-0.2,0.1c-0.4,0.1-0.7,0-1-0.2s-0.4-0.5-0.4-0.7
			c-0.1-0.4-0.1-0.5,0-0.6s0-0.2,0-0.5c0.3-0.5,0.5-0.9,0.7-1.2c0.1-0.3,0.3-0.6,0.4-0.8s0.3-0.4,0.5-0.6s0.5-0.4,0.9-0.7l1.3-1.4
			L52.2,26.4L52.2,26.4z"/>
		<path class="st0" d="M87.6,24.3c0.6,0,1.2,0.1,1.8,0.4s0.9,0.7,0.9,1.2l0.2,0.9c0,0.2,0,0.4-0.1,0.7s-0.2,0.5-0.3,0.8
			c-0.1,0.4-0.3,0.7-0.4,1.1c0,0.7-0.1,1.4-0.2,2c-0.1,0.6-0.2,1.3-0.2,2v0.4c0,0.2,0,0.4-0.1,0.6S89.1,35,89,35.2
			c-0.1,0.2-0.1,0.5-0.2,0.8v0.6c0,0.4-0.1,0.7-0.2,1s-0.2,0.6-0.4,1c-0.1,0.3-0.1,0.6-0.2,1S88,40.3,88,40.6c0,0.1,0,0.3,0,0.5
			c0,0.2,0.1,0.4,0.1,0.7c0.1,0.2,0.2,0.4,0.3,0.5c0.1,0.1,0.3,0.2,0.6,0.2c0.3,0,0.6-0.1,0.9-0.3c0.3-0.2,0.6-0.4,0.8-0.6
			c0.1-0.2,0.3-0.3,0.5-0.5c0.2-0.1,0.4-0.2,0.7-0.2h1.1c0.2,0,0.3,0.1,0.4,0.3c0,0.2,0.1,0.5,0.1,0.8c0,0.1-0.2,0.3-0.5,0.7
			c-0.3,0.4-0.7,0.8-1.2,1.2s-0.9,0.8-1.3,1.2c-0.4,0.4-0.7,0.6-0.8,0.7c-0.1,0.3-0.3,0.7-0.7,1.3c-0.3,0.6-0.7,1.1-1.1,1.7
			c-0.4,0.6-0.9,1.1-1.3,1.5c-0.5,0.4-0.9,0.7-1.2,0.7c-0.3,0-0.6-0.1-0.9-0.2c-0.3-0.2-0.6-0.4-0.8-0.7s-0.5-0.5-0.6-0.8
			s-0.2-0.6-0.2-0.9v-0.9c0-0.1,0-0.3-0.1-0.4c-0.1-0.1-0.1-0.3-0.2-0.4s-0.1-0.4-0.1-0.6c0-0.2,0-0.5,0.1-0.8l0.3-1.3v-2.5
			c0-0.5,0.1-1,0.2-1.3c0.1-0.3,0.2-0.7,0.2-1.2v-0.5c0-0.2,0.1-0.8,0.3-1.7c0.2-0.9,0.4-1.9,0.7-2.9c0.2-1,0.5-2,0.7-3
			c0.2-0.9,0.3-1.6,0.3-2c0-0.3-0.3-0.4-0.9-0.4c-0.1,0.1-0.2,0.2-0.4,0.4s-0.4,0.4-0.4,0.7l-1.8,3.8c-0.1,0.1-0.2,0.3-0.4,0.7
			s-0.4,0.8-0.6,1.2s-0.4,0.8-0.5,1.1s-0.3,0.5-0.3,0.6c-0.4,0.6-0.9,1.3-1.4,2s-1,1.3-1.3,1.8c-0.3,0.4-0.5,0.8-0.7,1
			s-0.3,0.5-0.5,0.8s-0.3,0.6-0.6,0.9c-0.2,0.3-0.5,0.8-0.9,1.4c-0.5,0.8-1.1,1.5-1.8,2.3s-1.5,1.7-2.4,2.8
			c-0.8,0.8-1.6,1.3-2.2,1.7s-1.3,0.6-2.1,0.6c-0.2,0-0.5,0-0.8-0.2s-0.6-0.2-0.9-0.4s-0.5-0.3-0.7-0.5s-0.4-0.4-0.4-0.5
			c-0.2-0.3-0.4-0.7-0.5-1.2c-0.1-0.5-0.2-0.9-0.3-1.4c-0.1-0.5-0.1-0.9-0.1-1.2s0-0.6,0.1-0.7c0.1-0.5,0.5-0.9,1-1.1
			s0.9-0.4,1.2-0.4h1.3l1.3,0.8c0.1,0,0.2,0,0.2,0.1c0.1,0,0.1,0.1,0.1,0.1c0,0,0.1,0,0.2,0s0.3-0.1,0.5-0.2
			c0.7-0.4,1.4-0.9,2.1-1.5s1.2-1.4,1.8-2.1c0.5-0.8,1-1.5,1.5-2.3c0.4-0.8,0.8-1.5,1.1-2.1l0.3-0.4c0-0.2,0.1-0.5,0.4-0.7
			c0.1-0.1,0.2-0.3,0.4-0.4c0.1-0.7,0.2-1.2,0.4-1.3s0.4-0.4,0.5-0.6c0.1-0.1,0.2-0.4,0.3-0.7s0.3-0.6,0.5-0.9
			c0.2-0.3,0.4-0.7,0.7-1c0-0.3,0.1-0.6,0.2-0.8c0-0.1,0.1-0.3,0.2-0.4l0.6-0.9c0-0.1,0-0.2,0.1-0.3c0-0.1,0-0.3-0.2-0.5l-1-0.2
			c-0.4-0.2-0.7-0.5-0.9-0.8c-0.2-0.2-0.5-0.4-0.7-0.6s-0.3-0.4-0.3-0.6l0.2-1c0-0.2,0.3-0.3,0.8-0.5s1.2-0.2,2-0.3s1.7-0.1,2.7-0.1
			c1,0,1.9,0,2.7,0c0.8,0,1.6,0,2.2,0S87.5,24.2,87.6,24.3L87.6,24.3z"/>
		<path class="st0" d="M104.1,24.6c0.5,0,1.1,0,1.9,0c0.7,0,1.4,0.2,1.9,0.4c0.5,0,0.9,0.2,1.1,0.6s0.4,0.9,0.6,1.5
			c0.1,0.1,0.3,0.3,0.5,0.6c0.2,0.2,0.4,0.5,0.5,0.8s0.3,0.5,0.4,0.8s0.2,0.5,0.2,0.8l-0.4,4.8c0,1-0.2,2.1-0.7,3.3
			c-0.4,1.2-1.1,2.3-1.9,3.3c-0.3,0.3-0.5,0.6-0.6,1c-0.1,0.3-0.2,0.7-0.4,1s-0.3,0.7-0.4,1.1s-0.4,0.8-0.7,1.1
			c-0.2,0.2-0.5,0.6-0.7,0.9c-0.3,0.4-0.6,0.7-0.9,1.1c-0.3,0.4-0.6,0.7-1,1c-0.3,0.3-0.7,0.5-1.1,0.7c-0.5,0.3-1,0.5-1.3,0.8
			c-0.4,0.2-0.7,0.4-1,0.5s-0.6,0.2-0.9,0.3c-0.3,0-0.6,0.1-1,0.1c-0.5,0-1-0.1-1.5-0.4s-0.9-0.6-1.2-1c-0.3-0.4-0.6-0.9-0.8-1.4
			c-0.2-0.5-0.3-1-0.3-1.6v-3.6c0-0.2-0.1-0.4-0.2-0.6c-0.1-0.2-0.2-0.7-0.2-1.5c0-1,0.2-2.3,0.8-3.8s1.2-2.9,1.9-4.3
			c0.7-1.4,1.5-2.7,2.2-3.8c0.7-1.1,1.3-1.8,1.7-2c0.4-0.2,0.7-0.5,1-0.8s0.5-0.6,0.8-0.8c0.2-0.2,0.5-0.5,0.8-0.6
			S103.6,24.6,104.1,24.6L104.1,24.6z M104.3,30.8c-0.6,0-1.2,0.2-1.8,0.7s-1.1,1-1.7,1.7c-0.5,0.6-0.9,1.3-1.3,1.9
			s-0.7,1.1-0.8,1.4l-0.5,2c-0.1,0.5-0.3,1-0.3,1.5c-0.1,0.5-0.1,0.8-0.1,0.9v1c0.1,0.1,0.3,0.3,0.4,0.7c0.1,0.3,0.2,0.7,0.4,1
			c0.2,0.3,0.3,0.6,0.6,0.9s0.5,0.4,0.9,0.4c0.7-0.3,1.4-0.7,2-1c0.5-0.3,1-0.6,1.5-0.9s0.8-0.7,1-1c0.2-0.5,0.5-1.1,0.7-1.8
			c0.3-0.7,0.5-1.3,0.8-1.9c-0.1-0.3,0-0.6,0.2-0.9c0.2-0.3,0.3-0.6,0.3-0.8V35c0-0.2-0.1-0.5-0.1-1c-0.1-0.5-0.2-0.9-0.4-1.4
			c-0.2-0.5-0.4-0.9-0.7-1.3S104.7,30.8,104.3,30.8L104.3,30.8z"/>
		<path class="st0" d="M114.1,51.5c-0.5-0.1-1-0.2-1.5-0.4c-0.5-0.1-1-0.4-1.4-0.7s-0.8-0.7-1-1.1s-0.3-1-0.2-1.8
			c0-0.4,0.1-0.7,0.2-1.1c0.2-0.4,0.4-0.7,0.6-1c0.2-0.3,0.5-0.5,0.8-0.7s0.5-0.3,0.7-0.3c0.3,0.1,0.5,0.1,0.7,0.1
			c0.2,0,0.3,0,0.5,0.1c0.1,0,0.3,0,0.4,0h0.5c0.6,0,1.3,0,2,0c0.7,0,1.2-0.2,1.5-0.4c0.3,0,0.5-0.1,0.7-0.3
			c0.2-0.2,0.2-0.4,0.2-0.6l0.9-1.2c0.1-0.4,0.1-0.8,0.2-1.2c0.1-0.3,0.1-0.7,0.2-1s0.1-0.5,0.2-0.7v-0.9l0.4-1.5
			c0-0.1,0.1-0.3,0.1-0.4c0.1-0.4,0.1-0.6,0.2-0.8c0-0.3-0.1-0.8-0.1-1.3s-0.2-1.1-0.4-1.6c-0.2-0.5-0.4-1-0.6-1.4
			c-0.2-0.4-0.5-0.6-0.7-0.6c-0.5,0-1.1,0.2-1.7,0.6s-1.2,0.9-1.8,1.4c-0.6,0.5-1.1,1-1.7,1.3c-0.5,0.4-1,0.6-1.5,0.5
			c-0.5-0.1-0.8-0.2-0.9-0.4c-0.1-0.2,0-0.4,0.1-0.7c0-0.5,0.2-1,0.6-1.7c0.4-0.6,0.8-1.3,1.3-1.9s1.1-1.1,1.6-1.6
			c0.5-0.5,1-0.9,1.4-1.1c1.2-0.8,2.3-1.4,3.3-1.9c1-0.5,2-0.7,3.2-0.5c0.5,0,0.9,0.3,1.2,0.8c0.3,0.5,0.6,1,0.7,1.7
			s0.3,1.3,0.4,1.9s0.1,1.1,0.1,1.4l-0.2,0.4c0,0.1,0,0.4,0,0.7c0,0.3,0,0.7,0,1.1V34c0,0.4,0,0.6-0.1,0.8v1.5
			c0.2-0.5,0.5-1,0.8-1.7c0.3-0.7,0.6-1.3,0.8-1.9s0.5-1.1,0.8-1.6c0.2-0.5,0.4-0.8,0.6-1c0.2-0.2,0.5-0.5,0.6-0.9
			c0.2-0.3,0.3-0.7,0.5-1c0.2-0.4,0.3-0.7,0.5-1c0.2-0.3,0.4-0.5,0.6-0.6c0.5-0.2,1.1-0.6,1.8-1c0.6-0.4,1.2-0.6,1.9-0.6h0.9v0.9
			l-2.1,14.1v0.5c0.4-0.4,0.8-0.8,1.2-1.5c0.4-0.6,0.8-1.3,1.1-1.9c0.3-0.7,0.6-1.3,0.9-1.9s0.5-1,0.7-1.4c0.2-0.1,0.3-0.3,0.4-0.5
			s0.2-0.4,0.4-0.7l1.2-3.6c0-0.2,0.1-0.5,0.3-0.7s0.4-0.5,0.7-0.8s0.6-0.5,0.9-0.7c0.3-0.2,0.6-0.4,0.8-0.5
			c0.1-0.1,0.3-0.2,0.4-0.3c0.1-0.1,0.2-0.1,0.3-0.2c0.1,0,0.2-0.1,0.4-0.1s0.3-0.1,0.5-0.2c0.5-0.1,0.9-0.1,1.2-0.2
			c0.3-0.1,0.6-0.2,0.8-0.3s0.5-0.2,0.7-0.2c0.2,0,0.6-0.1,1,0c0.5,0.1,1,0.2,1.5,0.3s1.1,0.4,1.5,0.6c0.4,0.3,0.8,0.6,1,1.1
			c0.2,0.5,0.3,1,0.3,1.8c0,0.4-0.1,0.8-0.2,1.1c-0.2,0.4-0.4,0.7-0.6,1s-0.5,0.5-0.8,0.7s-0.5,0.3-0.7,0.3c-0.3,0-0.5-0.1-0.7-0.1
			s-0.4,0-0.5,0h-0.3l-1.4-0.5c-0.6-0.2-1.1-0.2-1.6,0.1c-0.4,0.3-0.8,0.6-1.1,0.8c-0.3,0-0.5,0.1-0.5,0.3c-0.1,0.2-0.1,0.4-0.1,0.7
			l-0.8,1.2c-0.1,0.4-0.2,0.8-0.4,1.1c-0.1,0.3-0.2,0.6-0.3,0.8c-0.1,0.3-0.2,0.5-0.2,0.6v0.9l-0.4,1.5c0,0.2-0.1,0.4-0.1,0.6
			c0,0.2-0.1,0.3-0.1,0.5c0,0.1-0.1,0.3-0.1,0.4c0,0.3,0.1,0.8,0.2,1.3c0.1,0.6,0.2,1.1,0.4,1.6s0.4,1,0.6,1.4s0.5,0.6,0.7,0.7
			c0.6,0,1.1-0.2,1.7-0.7s1.1-0.9,1.7-1.4s1.1-1,1.6-1.4c0.5-0.4,1-0.6,1.4-0.6c0.5,0.1,0.8,0.2,0.9,0.4s0.1,0.4,0,0.6
			c0,0.5-0.2,1.1-0.6,1.7c-0.4,0.7-0.8,1.3-1.4,1.9c-0.5,0.6-1.1,1.2-1.6,1.7s-1,0.9-1.4,1.1c-1.2,0.8-2.3,1.4-3.2,1.9
			c-0.9,0.5-1.9,0.7-3.1,0.7c-0.5,0-0.9-0.3-1.2-0.8c-0.3-0.5-0.6-1-0.8-1.7c-0.2-0.6-0.3-1.2-0.4-1.9s-0.1-1.1-0.1-1.3l0.2-0.5
			c0-0.1,0-0.4-0.1-0.7c0-0.3-0.1-0.7-0.1-1.1s0-0.8-0.1-1.1c0-0.4,0-0.6,0-0.8v-0.2c-0.6,0.8-1.2,1.5-1.8,2.1s-1.2,1.3-1.8,2.1
			c-0.4,0.4-0.7,0.8-0.9,1.2c-0.2,0.4-0.5,0.8-0.7,1.2s-0.5,0.7-0.7,1s-0.6,0.6-0.9,0.8c-0.1,0.1-0.3,0.2-0.5,0.3s-0.3,0-0.5,0
			s-0.3,0-0.5,0c-0.1,0-0.3,0.1-0.4,0.2c-0.2,0.3-0.6,0.4-1.1,0.3c-0.5,0-0.8-0.1-1-0.1l0.4-1l3-10.5l0.3-2.1c0.1-0.5,0.2-0.8,0.3-1
			c0.1-0.2,0.1-0.4,0.2-0.6c0-0.2,0.1-0.3,0.1-0.6s0.1-0.6,0.2-1.1c-0.2,0.6-0.6,1.2-0.9,1.9c-0.3,0.7-0.7,1.4-1,2
			c-0.3,0.6-0.7,1.2-1,1.7c-0.3,0.5-0.6,0.8-0.7,0.9c-0.2,0.8-0.5,1.4-0.7,1.7s-0.4,0.7-0.6,1c-0.2,0.3-0.4,0.5-0.6,0.8
			c-0.2,0.3-0.5,0.8-0.8,1.4c-0.1,0.5-0.3,0.9-0.6,1.3c-0.2,0.4-0.4,0.7-0.5,0.9c0,0.2-0.1,0.5-0.4,0.8s-0.6,0.6-0.9,0.9
			s-0.7,0.5-1.1,0.7c-0.4,0.2-0.7,0.3-0.9,0.3c-0.2,0.1-0.3,0.1-0.4,0.2c-0.1,0-0.1,0.1-0.1,0.1s0,0.1-0.1,0.1c0,0-0.2,0.1-0.4,0.2
			c-0.5,0.1-1,0.2-1.3,0.3s-0.6,0.2-0.8,0.3s-0.5,0.2-0.8,0.2C114.9,51.5,114.5,51.5,114.1,51.5L114.1,51.5z"/>
		<path class="st0" d="M163.2,4.1c0.1,0,0.3,0,0.5-0.1c0.2-0.1,0.4-0.2,0.6-0.3c0.2-0.1,0.5-0.2,0.7-0.3c0.2-0.1,0.4-0.1,0.5-0.1
			c0.3,0,0.6-0.1,0.9-0.2c0.3-0.1,0.6-0.2,0.9-0.2c0.4,0,0.7-0.1,1-0.2c0.3-0.1,0.6-0.2,0.8-0.3c0.3-0.1,0.5-0.2,0.7-0.4
			c0.2-0.2,0.4-0.4,0.5-0.6s0.3-0.4,0.4-0.6s0.3-0.3,0.5-0.4c0.2-0.1,0.4-0.2,0.7-0.2c0.2,0,0.4,0.1,0.6,0.4s0.2,0.7,0.3,1.1
			c0,0.5,0.1,0.9,0.1,1.3v1c0,0.2-0.1,0.6-0.2,1.2s-0.4,1.2-0.7,1.8s-0.8,1.2-1.4,1.8c-0.6,0.6-1.3,0.9-2.1,1.2
			c-0.2,0-0.5,0.1-0.8,0.3c-0.1,0.1-0.3,0.2-0.4,0.3h-0.6c-0.4,0-0.9,0.1-1.4,0.4s-1,0.6-1.5,1.1c-0.5,0.4-0.9,0.9-1.2,1.3
			c-0.3,0.5-0.5,0.9-0.5,1.2c-0.3,0.2-0.4,0.5-0.4,0.8c0,0.2-0.1,0.6-0.4,1.1c-0.3,0.3-0.5,0.7-0.7,1.3c-0.2,0.6-0.3,1-0.3,1.3
			l-0.6,1.9c0,0.5-0.1,1-0.3,1.5c-0.2,0.5-0.4,1-0.6,1.6c-0.2,0.6-0.4,1.2-0.6,1.9c-0.2,0.7-0.3,1.4-0.3,2.2v1
			c0,0.2,0.1,0.5,0.2,0.7c0,0.1,0.1,0.2,0.2,0.3c0.2,0,0.5-0.2,0.8-0.7s0.6-1,1-1.6c0.4-0.6,0.9-1.1,1.5-1.6s1.3-0.8,2.2-0.8
			l1.2-0.5c0.8,0,1.5,0.2,1.9,0.7s0.6,1.1,0.6,2v0.5l-0.4,1c0.1,0.3,0.1,0.6,0.2,0.9c0.1,0.2,0.1,0.5,0.2,0.8c0,0.3,0.1,0.5,0.1,0.8
			c0,0.1,0,0.3,0,0.4c0,0.1-0.1,0.2-0.1,0.3c-0.1,0.2-0.1,0.3-0.2,0.5c-0.1,0.1-0.1,0.2-0.1,0.3c0,0.1,0,0.3,0.1,0.3
			c0,0.1,0.1,0.2,0.1,0.3s0,0.3,0,0.5c0,0.2-0.1,0.5-0.2,0.9v1.7c0,0.1-0.1,0.3-0.3,0.7c-0.2,0.3-0.4,0.7-0.7,1.2
			c-0.2,0.5-0.5,0.9-0.8,1.4s-0.5,1-0.6,1.4l-0.6,2.4c-0.6,0.9-1.3,1.8-1.8,2.5c-0.5,0.7-1,1.3-1.4,1.9s-0.8,1-0.9,1.1
			c-0.4,0.3-0.7,0.5-0.9,0.7s-0.4,0.4-0.6,0.5s-0.5,0.2-0.8,0.3c-0.3,0.1-0.8,0.1-1.5,0.1l-1.5,0.4c-0.3,0-0.5-0.1-0.6-0.2
			c-0.1-0.2-0.2-0.4-0.2-0.7c0-0.3-0.1-0.6-0.1-0.9s-0.1-0.6-0.3-0.9c0-0.1-0.1-0.3-0.2-0.5s-0.2-0.4-0.3-0.7
			c-0.2-0.3-0.5-0.6-0.7-0.8s-0.4-0.6-0.4-1c0-0.1,0-0.3,0.1-0.5s0.1-0.5,0.2-0.7c0.1-0.2,0.2-0.5,0.3-0.8v-1.6l0.5-5v-1l1-5.1v-1.9
			c0-0.3,0.1-0.9,0.3-1.8s0.3-2,0.3-3.3v-1.5l1.5-6.6c0-0.2,0-0.6,0.1-1c0.1-0.4,0.1-0.9,0.2-1.3c0.1-0.5,0.2-1,0.3-1.6l0.5-1.5
			c0.1-0.5,0.2-1,0.5-1.5s0.6-1.2,1.1-1.9c0.3-0.5,0.7-0.9,1.2-1.3s1-0.7,1.5-0.9C162.1,4.5,162.6,4.2,163.2,4.1L163.2,4.1z
			 M161.1,30.6c-0.3,0-0.7,0.2-1,0.5s-0.7,0.8-1,1.4c-0.3,0.6-0.7,1.2-0.9,1.8c-0.3,0.7-0.6,1.3-0.8,1.9c-0.2,0.6-0.4,1.2-0.5,1.7
			c-0.1,0.5-0.2,0.8-0.2,1v2c0,0.4,0,0.7,0.1,1c0.1,0.2,0.1,0.5,0.2,0.7c0.1,0.2,0.2,0.3,0.4,0.3h0.6c0.5-0.2,1.1-0.5,1.6-1
			c0.6-0.5,1.1-1,1.6-1.6c0.5-0.6,0.9-1.2,1.3-1.8c0.3-0.6,0.5-1.2,0.5-1.7v-2.5l-0.3-1l0.3-0.9C163,31.3,162.4,30.6,161.1,30.6
			L161.1,30.6z"/>
		<path class="st0" d="M178.9,24.9c0.3,0,0.6,0.2,0.7,0.5s0.2,0.7,0.2,1c-0.6,2.3-1.2,4.3-1.7,6.2c-0.2,0.8-0.4,1.6-0.6,2.3
			s-0.4,1.5-0.6,2.1s-0.3,1.2-0.4,1.7c-0.1,0.5-0.1,0.8-0.1,0.9c0,0.2-0.1,0.7-0.1,1.2c-0.1,0.6-0.1,1.1,0,1.6
			c0.1,0.5,0.3,0.8,0.7,1c0.4,0.2,1-0.1,2-0.7c0.1-0.2,0.3-0.4,0.7-0.7c0.4-0.3,0.8-0.7,1.3-1.1c0.3-0.3,0.5-0.6,0.5-0.9
			c0.1-0.3,0.2-0.5,0.3-0.5c0-0.3,0.1-0.6,0.4-0.8s0.4-0.5,0.4-0.7c0.1-0.2,0.3-0.7,0.6-1.4s0.7-1.5,1.1-2.5
			c0.3-0.7,0.6-1.4,0.9-2.2s0.5-1.6,0.8-2.3c0.2-0.8,0.4-1.5,0.5-2.1c0.1-0.6,0.2-1.1,0.2-1.5s0.1-0.7,0.3-0.9
			c0.2-0.2,0.4-0.4,0.7-0.5c0.3-0.1,0.6-0.2,0.8-0.2s0.5,0,0.8,0h1.2c0.4,0,0.8,0.2,1.1,0.6s0.4,0.9,0.4,1.5c0,0.1-0.1,0.4-0.1,1
			s-0.2,1.2-0.3,1.9c-0.1,0.7-0.3,1.5-0.5,2.2c-0.2,0.8-0.4,1.4-0.5,1.9c-0.8,1.6-1.5,3.2-2.2,4.8s-1.1,3.2-1.1,4.7
			c0,0.2,0.1,0.4,0.2,0.6c0.1,0.1,0.1,0.2,0.2,0.3c0.5,0,0.9-0.1,1.4-0.4c0.5-0.3,0.9-0.6,1.3-0.9s0.7-0.6,1-0.9
			c0.3-0.3,0.5-0.4,0.6-0.4s0.2,0,0.4,0.2s0.2,0.2,0.4,0.3c0.1,0.1,0.3,0.3,0.4,0.4c0,0.1-0.2,0.5-0.5,1c-0.3,0.6-0.7,1.2-1.2,1.8
			c-0.4,0.6-0.9,1.2-1.3,1.8c-0.4,0.5-0.7,0.9-0.8,1c-0.4,0.2-0.7,0.5-0.9,0.7c-0.3,0.2-0.5,0.4-0.7,0.6s-0.4,0.4-0.7,0.7
			c-0.2,0.3-0.5,0.6-0.8,1c-0.5,0.5-0.9,0.8-1.5,1c-0.5,0.2-1,0.3-1.6,0.3c-0.2,0-0.5-0.1-0.7-0.2s-0.4-0.4-0.6-0.6
			s-0.3-0.5-0.4-0.8c-0.1-0.3-0.2-0.5-0.2-0.7v-1.5c0.1-0.4,0.3-0.9,0.4-1.3c0.1-0.4,0.2-0.7,0.3-1.1c0.1-0.4,0.2-0.7,0.2-1
			c0-0.2,0-0.4-0.1-0.7c-0.1-0.2-0.2-0.3-0.5-0.3c-0.2,0-0.5,0.1-0.8,0.4c-0.3,0.3-0.6,0.6-0.9,0.9c-0.3,0.3-0.6,0.7-0.8,1
			c-0.2,0.3-0.4,0.5-0.6,0.7c-0.2,0.3-0.6,0.7-1.2,1.3s-1.2,1.2-1.8,1.8s-1.3,1.1-1.9,1.6s-1,0.7-1.3,0.7c-0.2,0-0.4-0.1-0.6-0.3
			s-0.4-0.4-0.6-0.7s-0.3-0.5-0.4-0.8s-0.2-0.5-0.2-0.6v-1.5c0-0.3,0-0.6,0.1-0.9c0-0.2,0.1-0.5,0.1-0.8c0-0.2,0-0.5,0-0.7
			c0-0.2,0-0.5,0.1-0.9c0.1-0.4,0.1-0.8,0.1-1.3c0-0.5,0.1-1,0.2-1.5c0.1-0.5,0.2-0.9,0.3-1.1l0.4-2c0.1-0.2,0.3-0.7,0.6-1.3
			c0.3-0.6,0.5-1.4,0.5-2.5c0-0.5,0-0.9,0.1-1c0-0.2-0.2-0.3-0.6-0.3c-0.2,0-0.4,0-0.7,0.1c-0.2,0.1-0.6,0.2-0.9,0.3
			c-0.3,0.2-0.6,0.3-0.9,0.4c-0.3,0.1-0.5,0.2-0.6,0.2c-0.2,0-0.4-0.1-0.7-0.4c-0.2-0.3-0.4-0.6-0.4-1s0.1-0.8,0.3-1
			c0.2-0.2,0.5-0.4,0.8-0.6c0.3-0.2,0.6-0.3,0.9-0.5c0.3-0.2,0.5-0.4,0.6-0.6c0.5-0.4,1-0.9,1.7-1.5c0.6-0.7,1.3-1.3,2-2
			c0.7-0.6,1.3-1.2,2-1.7c0.6-0.5,1.2-0.7,1.7-0.7L178.9,24.9L178.9,24.9z"/>
		<path class="st0" d="M195.3,42.6c0-0.5,0.2-0.8,0.7-1s0.9-0.4,1.4-0.7c0.1-0.1,0.3-0.3,0.4-0.5c0.1-0.2,0.2-0.4,0.3-0.6
			c0.1-0.2,0.2-0.3,0.3-0.5c0.1-0.1,0.3-0.2,0.5-0.1c0.3,0,0.6,0.1,0.8,0.2c0.2,0.1,0.4,0.3,0.6,0.5c1,0.7,1.6,1.5,1.8,2.4
			s0.3,2,0.3,3.2c0,0.5-0.1,1-0.2,1.4s-0.3,0.8-0.5,1.2c-0.2,0.4-0.5,0.8-0.7,1.2s-0.5,0.8-0.8,1.2c-0.6,0.9-1.2,1.7-1.7,2.3
			s-1.3,1.1-2.2,1.7c-0.7,0.4-1.3,0.8-1.9,1.2c-0.6,0.4-1.2,0.8-1.8,1.1c-0.6,0.3-1.3,0.6-1.9,0.8c-0.7,0.2-1.4,0.3-2.2,0.3
			c-0.1,0-0.2,0-0.3-0.1s-0.3-0.1-0.4-0.2c-0.1-0.1-0.3-0.2-0.5-0.3c0.1-0.5,0.3-0.9,0.6-1.2c0.3-0.3,0.6-0.6,1-0.9s0.8-0.5,1.2-0.7
			c0.4-0.2,0.8-0.5,1.2-0.8c0.8-0.6,1.5-1.1,2.2-1.6s1.3-1,1.9-1.6c0.6-0.6,1-1.2,1.4-1.9c0.3-0.7,0.5-1.5,0.5-2.5
			c0-0.4-0.1-0.7-0.3-1c-0.2-0.3-0.4-0.5-0.6-0.8s-0.4-0.5-0.6-0.8S195.3,43,195.3,42.6L195.3,42.6z"/>
		<path class="st0" d="M245.3,24.3c0.6,0,1.2,0.1,1.8,0.4s0.9,0.7,0.9,1.2l0.2,0.9c0,0.2,0,0.4-0.1,0.7s-0.2,0.5-0.3,0.8
			c-0.1,0.4-0.3,0.7-0.4,1.1c0,0.7-0.1,1.4-0.2,2c-0.1,0.6-0.2,1.3-0.2,2v0.4c0,0.2,0,0.4-0.1,0.6s-0.1,0.5-0.2,0.7
			c-0.1,0.2-0.1,0.5-0.2,0.8v0.6c0,0.4-0.1,0.7-0.2,1s-0.2,0.6-0.4,1c-0.1,0.3-0.1,0.6-0.2,1s-0.1,0.7-0.1,1.1c0,0.1,0,0.3,0,0.5
			c0,0.2,0.1,0.4,0.1,0.7c0.1,0.2,0.1,0.4,0.3,0.5c0.1,0.1,0.3,0.2,0.6,0.2c0.3,0,0.6-0.1,0.9-0.3c0.3-0.2,0.6-0.4,0.8-0.6
			c0.1-0.2,0.3-0.3,0.5-0.5c0.2-0.1,0.4-0.2,0.6-0.2h1.1c0.2,0,0.3,0.1,0.4,0.3c0,0.2,0.1,0.5,0.1,0.8c0,0.1-0.2,0.3-0.5,0.7
			s-0.7,0.8-1.2,1.2c-0.4,0.4-0.9,0.8-1.3,1.2c-0.4,0.4-0.7,0.6-0.8,0.7c-0.1,0.3-0.3,0.7-0.6,1.3c-0.3,0.6-0.7,1.1-1.1,1.7
			c-0.4,0.6-0.9,1.1-1.3,1.5c-0.5,0.4-0.9,0.7-1.2,0.7c-0.3,0-0.6-0.1-0.9-0.2c-0.3-0.2-0.6-0.4-0.8-0.7s-0.5-0.5-0.6-0.8
			s-0.2-0.6-0.2-0.9v-0.9c0-0.1,0-0.3-0.1-0.4c-0.1-0.1-0.1-0.3-0.2-0.4s-0.1-0.4-0.1-0.6s0-0.5,0.1-0.8l0.3-1.3v-2.5
			c0-0.5,0.1-1,0.2-1.3c0.1-0.3,0.2-0.7,0.2-1.2v-0.5c0-0.2,0.1-0.8,0.3-1.7c0.2-0.9,0.4-1.9,0.7-2.9c0.2-1,0.5-2,0.7-3
			c0.2-0.9,0.3-1.6,0.3-2c0-0.3-0.3-0.4-0.9-0.4c-0.1,0.1-0.2,0.2-0.4,0.4s-0.4,0.4-0.4,0.7l-1.8,3.8c-0.1,0.1-0.2,0.3-0.4,0.7
			c-0.2,0.4-0.4,0.8-0.6,1.2c-0.2,0.4-0.4,0.8-0.5,1.1c-0.2,0.3-0.3,0.5-0.3,0.6c-0.4,0.6-0.9,1.3-1.4,2s-1,1.3-1.3,1.8
			c-0.3,0.4-0.5,0.8-0.7,1s-0.4,0.5-0.5,0.8c-0.2,0.3-0.4,0.6-0.6,0.9c-0.2,0.3-0.5,0.8-0.9,1.4c-0.5,0.8-1.1,1.5-1.8,2.3
			s-1.5,1.7-2.4,2.8c-0.8,0.8-1.6,1.3-2.2,1.7s-1.3,0.6-2.1,0.6c-0.2,0-0.5,0-0.8-0.2s-0.6-0.2-0.9-0.4s-0.5-0.3-0.7-0.5
			s-0.4-0.4-0.4-0.5c-0.2-0.3-0.4-0.7-0.5-1.2c-0.1-0.5-0.2-0.9-0.3-1.4c-0.1-0.5-0.1-0.9-0.1-1.2s0-0.6,0.1-0.7
			c0.1-0.5,0.5-0.9,1-1.1s0.9-0.4,1.2-0.4h1.4l1.4,0.8c0.1,0,0.2,0,0.2,0.1c0.1,0,0.1,0.1,0.1,0.1c0,0,0.1,0,0.2,0s0.3-0.1,0.5-0.2
			c0.7-0.4,1.4-0.9,2.1-1.5s1.2-1.4,1.8-2.1c0.5-0.8,1-1.5,1.5-2.3c0.4-0.8,0.8-1.5,1.1-2.1l0.3-0.4c0-0.2,0.1-0.5,0.4-0.7
			c0.1-0.1,0.2-0.3,0.4-0.4c0.1-0.7,0.2-1.2,0.4-1.3c0.2-0.2,0.4-0.4,0.5-0.6c0.1-0.1,0.2-0.4,0.3-0.7c0.1-0.3,0.3-0.6,0.5-0.9
			c0.2-0.3,0.4-0.7,0.6-1c0-0.3,0.1-0.6,0.2-0.8c0-0.1,0.1-0.3,0.2-0.4l0.6-0.9c0-0.1,0-0.2,0.1-0.3c0-0.1,0-0.3-0.2-0.5l-1-0.2
			c-0.4-0.2-0.7-0.5-0.9-0.8c-0.2-0.2-0.5-0.4-0.6-0.6s-0.3-0.4-0.3-0.6l0.2-1c0-0.2,0.3-0.3,0.8-0.5s1.2-0.2,2-0.3s1.7-0.1,2.7-0.1
			c1,0,1.9,0,2.7,0c0.9,0,1.6,0,2.2,0S245.1,24.2,245.3,24.3L245.3,24.3z"/>
		<path class="st0" d="M262.9,24.6c0.8,0,1.4,0.1,1.9,0.4c0.5,0.3,0.9,0.6,1.3,1.1s0.6,1,0.7,1.6s0.2,1.3,0.2,1.9
			c0,1-0.4,1.8-1.1,2.4c-0.7,0.6-1.5,1.1-2.2,1.5c-0.7,0.5-1.4,0.9-2.2,1.2c-0.8,0.4-1.5,0.8-2.2,1.2s-1.2,0.9-1.7,1.5
			c-0.5,0.6-0.7,1.3-0.7,2.2V42c-0.1,0.6,0,1.2,0.4,1.8s0.7,0.9,1.2,0.9c0,0,0.2,0,0.4-0.2s0.5-0.3,0.8-0.5c0.3-0.2,0.6-0.4,0.9-0.6
			c0.3-0.2,0.5-0.4,0.7-0.5c0.5-0.2,1-0.5,1.3-0.6s0.5-0.2,0.7-0.1c0.2,0,0.5,0,0.6,0.1s0.3,0.3,0.3,0.8c-0.1,0.8-0.4,1.6-1,2.3
			c-0.6,0.7-1.3,1.4-2,2s-1.4,1.2-2.1,1.7c-0.7,0.5-1.1,0.8-1.4,1c-0.6,0.5-1.2,0.8-1.7,0.9c-0.5,0-1.1,0-1.6,0
			c-0.3,0-0.7-0.2-1-0.4s-0.6-0.5-0.9-0.9s-0.5-0.7-0.6-1s-0.2-0.7-0.2-0.9v-0.9c0-0.2-0.1-0.5-0.2-0.8c-0.1-0.1-0.1-0.3-0.2-0.4
			l0.2-1.1v-0.9c0-0.1,0-0.5,0.1-1.2s0.2-1.3,0.3-2c0.1-0.7,0.2-1.4,0.3-2.1c0.1-0.7,0.1-1.1,0.2-1.3c0.1-0.1,0.2-0.2,0.2-0.3
			s0-0.2-0.1-0.3c0-0.1-0.1-0.2-0.1-0.4s0.1-0.3,0.2-0.6c0-0.4,0.1-0.9,0.3-1.3c0.1-0.2,0.2-0.5,0.3-0.8l0.8-1.8
			c0.1-0.8,0.4-1.6,1.1-2.5c0.7-0.8,1.5-1.6,2.4-2.3c0.9-0.7,1.9-1.2,2.8-1.6S262.2,24.6,262.9,24.6L262.9,24.6z M260.4,28.7
			c-0.2,0-0.4,0.1-0.5,0.4c-0.2,0.3-0.4,0.6-0.5,0.9c-0.2,0.4-0.4,0.8-0.5,1.2c0,0.2-0.1,0.4-0.2,0.6c-0.1,0.2-0.1,0.4-0.2,0.6
			c0,0.2,0,0.4,0,0.5c0.1,0.1,0.2,0.2,0.4,0.2c0.2,0,0.5,0,0.8-0.1s0.7-0.3,1.1-0.5c0.4-0.2,0.7-0.5,1-0.8c0.3-0.3,0.5-0.6,0.5-1
			v-0.9c0-0.2,0-0.3-0.2-0.5c-0.1-0.1-0.2-0.2-0.4-0.3c-0.1-0.1-0.3-0.2-0.5-0.3L260.4,28.7L260.4,28.7z"/>
		<path class="st0" d="M267.2,33.8c-0.3,0.1-0.5-0.1-0.6-0.5s0-0.8,0.2-1.3c0.1-0.3,0.4-0.7,0.7-1.1c0.3-0.4,0.8-0.9,1.2-1.3
			c0.5-0.5,1-0.9,1.5-1.3c0.5-0.4,1.1-0.8,1.7-1c0.3-0.4,0.6-0.7,1-1c0.3-0.2,0.6-0.5,0.9-0.7c0.3-0.2,0.6-0.3,0.9-0.3
			c0.5,0,1,0.2,1.3,0.5c0.3,0.3,0.5,0.8,0.4,1.4l-2.1,12.7v0.5c0.4-0.4,0.8-0.8,1.2-1.5c0.4-0.6,0.7-1.3,1.1-1.9
			c0.3-0.7,0.6-1.3,0.9-1.9c0.3-0.6,0.5-1,0.7-1.4c0.2-0.1,0.3-0.3,0.4-0.5c0.1-0.2,0.2-0.4,0.4-0.7l1.2-3.6c0-0.2,0.1-0.5,0.3-0.7
			c0.2-0.3,0.4-0.5,0.7-0.8s0.6-0.5,0.9-0.7c0.3-0.2,0.6-0.4,0.8-0.5c0.1-0.1,0.3-0.2,0.4-0.3c0.1-0.1,0.2-0.1,0.3-0.2
			c0.1,0,0.2-0.1,0.3-0.1c0.1,0,0.3-0.1,0.5-0.2c0.5-0.1,1-0.1,1.2-0.2c0.3-0.1,0.6-0.2,0.8-0.3s0.5-0.2,0.7-0.2c0.2,0,0.6-0.1,1,0
			c0.5,0.1,1,0.2,1.5,0.3s1,0.4,1.5,0.6c0.4,0.3,0.8,0.6,1,1.1c0.2,0.5,0.3,1,0.3,1.8c0,0.4-0.1,0.8-0.2,1.1c-0.2,0.4-0.4,0.7-0.6,1
			s-0.5,0.5-0.8,0.7c-0.3,0.2-0.5,0.3-0.8,0.3c-0.3,0-0.5-0.1-0.7-0.1s-0.4,0-0.5,0h-0.3l-1.4-0.5c-0.6-0.2-1.1-0.2-1.6,0.1
			c-0.5,0.3-0.8,0.6-1.1,0.8c-0.3,0-0.5,0.1-0.5,0.3c0,0.2-0.1,0.4-0.1,0.7l-0.8,1.2c-0.1,0.4-0.2,0.8-0.4,1.1
			c-0.1,0.3-0.2,0.6-0.3,0.8c-0.1,0.3-0.2,0.5-0.2,0.6v0.9l-0.4,1.5c0,0.2-0.1,0.4-0.1,0.6c0,0.2-0.1,0.3-0.1,0.5
			c0,0.1-0.1,0.3-0.1,0.4c0,0.3,0,0.8,0.2,1.3c0.1,0.6,0.2,1.1,0.4,1.6s0.4,1,0.6,1.4c0.2,0.4,0.5,0.6,0.8,0.7
			c0.5,0,1.1-0.2,1.7-0.7c0.6-0.4,1.1-0.9,1.7-1.4s1.1-1,1.6-1.4s1-0.6,1.4-0.6c0.5,0.1,0.9,0.2,0.9,0.4s0.1,0.4,0,0.6
			c0,0.5-0.2,1.1-0.6,1.7c-0.4,0.7-0.8,1.3-1.4,1.9c-0.5,0.6-1.1,1.2-1.6,1.7s-1,0.9-1.4,1.1c-1.2,0.8-2.2,1.4-3.2,1.9
			c-0.9,0.5-2,0.7-3.1,0.7c-0.5,0-0.9-0.3-1.2-0.8c-0.3-0.5-0.6-1-0.8-1.7c-0.2-0.6-0.3-1.2-0.4-1.9s-0.1-1.1-0.1-1.3l0.2-0.5
			c0-0.1,0-0.4,0-0.7c0-0.3-0.1-0.7-0.1-1.1s0-0.8,0-1.1c0-0.4,0-0.6,0-0.8v-0.2c-0.6,0.8-1.2,1.5-1.6,2.1s-1,1.3-1.6,2.1
			c-0.4,0.4-0.7,0.8-0.9,1.2s-0.3,0.8-0.5,1.2c-0.1,0.4-0.3,0.8-0.5,1.1c-0.2,0.4-0.5,0.7-0.8,0.9c-0.3,0.3-0.6,0.4-0.8,0.3
			s-0.5-0.1-0.8,0c-0.2,0.1-0.4,0.1-0.7,0.2c-0.3,0-0.6,0-0.8,0s-0.5-0.1-0.7-0.3s-0.3-0.4-0.3-0.7c0.1-0.3,0.4-0.9,0.7-1.8
			s0.7-1.8,1-2.9s0.6-2.1,0.9-3.2c0.3-1.1,0.4-2,0.5-2.7l0.3-2.1c0.1-0.5,0.2-0.8,0.3-1c0-0.2,0-0.4,0-0.6v-0.6c0-0.2,0-0.6,0.1-1.1
			c0-0.2,0-0.3,0-0.5c-0.1-0.4-0.2-0.5-0.5-0.5c-0.2,0.1-0.4,0.2-0.7,0.3s-0.6,0.2-1,0.3C268,33.4,267.6,33.6,267.2,33.8L267.2,33.8
			z"/>
		<path class="st0" d="M311.8,60.8c0.2,0.2,0.4,0.5,0.6,0.9c0.2,0.4,0.5,0.7,0.7,1c0.3,0.4,0.5,0.9,0.6,1.4s0.1,1,0,1.5
			c0,0.1,0,0.3-0.1,0.7c0,0.4-0.1,0.8-0.2,1.3s-0.2,0.9-0.3,1.3c-0.1,0.4-0.3,0.6-0.4,0.7c-0.5,0.5-0.9,1-1.2,1.5s-0.9,1-1.5,1.5
			c-0.2,0.1-0.6,0.2-1,0.5c-0.4,0.2-0.7,0.4-1,0.5c-1,0.2-2,0.4-3.1,0.6c-1.1,0.2-2,0.1-2.6-0.1c-0.8-0.3-1.4-0.4-1.9-0.5
			c-0.5,0-1-0.2-1.4-0.4c-0.8-0.7-1.3-1.3-1.6-2.1c-0.3-0.7-0.4-1.4-0.4-2.1c0.1-0.6,0.4-1.2,0.8-1.6c0.4-0.4,1-0.6,1.8-0.6
			c0.3,0,0.7,0.1,1,0.4c0.4,0.3,0.8,0.6,1.3,0.9c0.5,0.4,1.1,0.7,1.9,1.1s1.6,0.7,2.7,0.8c0.2-0.1,0.6-0.1,1,0.1
			c0.5,0.1,0.9,0,1.2-0.2c0.2-0.2,0.4-0.4,0.6-0.5c0.1-0.1,0.2-0.3,0.2-0.5c0-0.3,0-0.7,0-1.1c0-0.5-0.2-0.8-0.6-1.1l-0.9-1
			c-0.3-0.1-0.6-0.4-1-0.9s-0.7-1.1-0.9-1.8s-0.4-1.2-0.5-1.7c-0.1-0.5-0.1-1-0.1-1.5c0-0.5,0.1-1,0.3-1.7c0.1-0.6,0.3-1.3,0.5-2.1
			c0.1-0.2,0.2-0.3,0.3-0.5c0.1-0.1,0.1-0.2,0.2-0.4c0.1-0.1,0.2-0.3,0.3-0.5s0.2-0.5,0.4-0.8c0.4-0.7,0.8-1.4,1.3-2
			c0.5-0.7,0.9-1.2,1.1-1.6c0.2-0.5,0.3-0.8,0.2-1.1s-0.4-0.2-0.8,0.3c-0.5,0.5-1.1,0.9-1.8,1.4c-0.7,0.5-1.3,0.7-1.8,0.7
			s-0.8-0.2-0.8-0.7s-0.1-0.9-0.1-1.3v-1.5c0.1-0.4,0.3-0.9,0.4-1.3c0.1-0.4,0.2-0.7,0.3-1.1c0.1-0.4,0.2-0.7,0.2-1
			c0-0.2,0-0.4-0.1-0.7c0-0.2-0.2-0.3-0.5-0.3c-0.2,0-0.5,0.1-0.8,0.4c-0.3,0.3-0.6,0.6-0.9,0.9c-0.3,0.3-0.6,0.7-0.8,1
			c-0.2,0.3-0.5,0.5-0.6,0.7c-0.2,0.3-0.6,0.7-1.2,1.3c-0.6,0.6-1.2,1.2-1.8,1.8s-1.3,1.1-1.9,1.6s-1,0.7-1.3,0.7
			c-0.2,0-0.4-0.1-0.6-0.3s-0.4-0.4-0.6-0.7s-0.3-0.5-0.4-0.8c-0.1-0.3-0.2-0.5-0.2-0.6v-1.5c0-0.3,0-0.6,0-0.9
			c0-0.2,0.1-0.5,0.1-0.8c0-0.2,0-0.5,0-0.7c0-0.2,0-0.5,0.1-0.9c0.1-0.4,0.1-0.8,0.1-1.3c0-0.5,0.1-1,0.2-1.5
			c0.1-0.5,0.2-0.9,0.3-1.1l0.4-2c0.1-0.2,0.3-0.7,0.6-1.3c0.3-0.6,0.5-1.4,0.5-2.5c0-0.5,0-0.9,0-1c0-0.2-0.2-0.3-0.6-0.3
			c-0.2,0-0.4,0-0.7,0.1c-0.2,0.1-0.5,0.2-1,0.3c-0.3,0.2-0.6,0.3-0.9,0.4c-0.3,0.1-0.5,0.2-0.6,0.2c-0.2,0-0.5-0.1-0.7-0.4
			c-0.2-0.3-0.4-0.6-0.4-1s0.1-0.8,0.3-1c0.2-0.2,0.5-0.4,0.8-0.6c0.3-0.2,0.6-0.3,0.9-0.5c0.3-0.2,0.5-0.4,0.6-0.6
			c0.5-0.4,1-0.9,1.7-1.5c0.6-0.7,1.3-1.3,2-2c0.7-0.6,1.3-1.2,2-1.7c0.6-0.5,1.2-0.7,1.7-0.7h1c0.3,0,0.6,0.2,0.7,0.5
			s0.2,0.7,0.2,1c-0.6,2.3-1.2,4.3-1.7,6.2c-0.2,0.8-0.4,1.6-0.6,2.3s-0.4,1.5-0.6,2.1s-0.3,1.2-0.4,1.7s-0.1,0.8-0.1,0.9
			c0,0.2,0,0.7-0.1,1.2c-0.1,0.6-0.1,1.1,0,1.6c0.1,0.5,0.3,0.8,0.7,1s1-0.1,2-0.7c0.1-0.2,0.3-0.4,0.7-0.7c0.4-0.3,0.8-0.7,1.3-1.1
			c0.3-0.3,0.5-0.6,0.5-0.9c0.1-0.3,0.2-0.5,0.3-0.5c0-0.3,0.1-0.6,0.4-0.8s0.4-0.5,0.4-0.7c0.1-0.2,0.3-0.7,0.6-1.4
			s0.7-1.5,1.1-2.5c0.3-0.7,0.6-1.4,0.9-2.2s0.5-1.6,0.8-2.3c0.2-0.8,0.4-1.5,0.5-2.1c0.1-0.6,0.2-1.1,0.2-1.5s0.1-0.7,0.3-0.9
			s0.4-0.4,0.7-0.5s0.5-0.2,0.8-0.2s0.5,0,0.8,0h1.2c0.4,0,0.8,0.2,1,0.6s0.4,0.9,0.4,1.5c0,0.1,0,0.4-0.1,1
			c-0.1,0.6-0.2,1.2-0.3,1.9c-0.1,0.7-0.3,1.5-0.5,2.2c-0.2,0.8-0.4,1.4-0.5,1.9c-0.8,1.6-1.5,3.2-2.2,4.8s-1.1,3.2-1.1,4.7
			c0,0.2,0.1,0.4,0.2,0.6c0.1,0.1,0.1,0.2,0.2,0.3c0.5,0,1-0.1,1.4-0.4c0.5-0.3,0.9-0.6,1.3-0.9s0.7-0.6,1-0.9
			c0.3-0.3,0.5-0.4,0.6-0.4s0.2,0.1,0.3,0.2c0.1,0.1,0.1,0.3,0.2,0.4c0.1,0.2,0.1,0.4,0.2,0.6c0,0.2-0.1,0.5-0.2,1
			c-0.1,0.5-0.5,1-1,1.7c-0.2,0.6-0.4,1.2-0.7,1.8s-0.5,1.2-0.8,1.8c-0.3,0.6-0.5,1.1-0.8,1.5c-0.2,0.5-0.4,0.8-0.6,1
			c-0.1,0.1-0.2,0.4-0.4,0.7c-0.1,0.3-0.2,0.6-0.4,0.9c-0.1,0.3-0.2,0.7-0.3,1c-0.1,0.3-0.2,0.6-0.3,0.8c-0.7,1.6-0.8,2.7-0.3,3.3
			c0.2,0.6,0.4,1.2,0.6,1.8C311.2,60.1,311.4,60.6,311.8,60.8L311.8,60.8z"/>
		<path class="st0" d="M327.1,24.9c0.3,0,0.6,0.2,0.7,0.5s0.2,0.7,0.2,1c-0.6,2.3-1.2,4.3-1.7,6.2c-0.2,0.8-0.4,1.6-0.6,2.3
			s-0.4,1.5-0.6,2.1s-0.3,1.2-0.4,1.7s-0.1,0.8-0.1,0.9c0,0.2,0,0.7-0.1,1.2c-0.1,0.6-0.1,1.1,0,1.6c0.1,0.5,0.3,0.8,0.7,1
			s1-0.1,2-0.7c0.1-0.2,0.3-0.4,0.7-0.7c0.4-0.3,0.8-0.7,1.3-1.1c0.3-0.3,0.5-0.6,0.5-0.9c0.1-0.3,0.2-0.5,0.3-0.5
			c0-0.3,0.1-0.6,0.4-0.8s0.4-0.5,0.4-0.7c0.1-0.2,0.3-0.7,0.6-1.4s0.7-1.5,1.1-2.5c0.3-0.7,0.6-1.4,0.9-2.2s0.5-1.6,0.8-2.3
			c0.2-0.8,0.4-1.5,0.5-2.1c0.1-0.6,0.2-1.1,0.2-1.5s0.1-0.7,0.3-0.9s0.4-0.4,0.7-0.5s0.5-0.2,0.8-0.2s0.5,0,0.8,0h1.2
			c0.4,0,0.8,0.2,1,0.6s0.4,0.9,0.4,1.5c0,0.1,0,0.4-0.1,1c-0.1,0.6-0.2,1.2-0.3,1.9c-0.1,0.7-0.3,1.5-0.5,2.2
			c-0.2,0.8-0.4,1.4-0.5,1.9c-0.8,1.6-1.5,3.2-2.2,4.8s-1.1,3.2-1.1,4.7c0,0.2,0.1,0.4,0.2,0.6c0.1,0.1,0.1,0.2,0.2,0.3
			c0.5,0,1-0.1,1.4-0.4c0.5-0.3,0.9-0.6,1.3-0.9s0.7-0.6,1-0.9c0.3-0.3,0.5-0.4,0.6-0.4s0.2,0,0.4,0.2s0.2,0.2,0.4,0.3
			c0.1,0.1,0.3,0.3,0.4,0.4c0,0.1-0.2,0.5-0.5,1c-0.3,0.6-0.7,1.2-1.2,1.8c-0.5,0.6-0.9,1.2-1.3,1.8c-0.4,0.5-0.7,0.9-0.8,1
			c-0.4,0.2-0.7,0.5-1,0.7c-0.3,0.2-0.5,0.4-0.7,0.6s-0.4,0.4-0.7,0.7c-0.2,0.3-0.5,0.6-0.8,1c-0.5,0.5-1,0.8-1.5,1
			c-0.5,0.2-1,0.3-1.6,0.3c-0.2,0-0.5-0.1-0.7-0.2s-0.4-0.4-0.6-0.6s-0.3-0.5-0.4-0.8c-0.1-0.3-0.2-0.5-0.2-0.7v-1.5
			c0.1-0.4,0.3-0.9,0.4-1.3c0.1-0.4,0.2-0.7,0.3-1.1c0.1-0.4,0.2-0.7,0.2-1c0-0.2,0-0.4-0.1-0.7c0-0.2-0.2-0.3-0.5-0.3
			c-0.2,0-0.5,0.1-0.8,0.4c-0.3,0.3-0.6,0.6-0.9,0.9c-0.3,0.3-0.6,0.7-0.8,1c-0.2,0.3-0.5,0.5-0.6,0.7c-0.2,0.3-0.6,0.7-1.2,1.3
			c-0.6,0.6-1.2,1.2-1.8,1.8s-1.3,1.1-1.9,1.6s-1,0.7-1.3,0.7c-0.2,0-0.4-0.1-0.6-0.3s-0.4-0.4-0.6-0.7s-0.3-0.5-0.4-0.8
			c-0.1-0.3-0.2-0.5-0.2-0.6v-1.5c0-0.3,0-0.6,0-0.9c0-0.2,0.1-0.5,0.1-0.8c0-0.2,0-0.5,0-0.7c0-0.2,0-0.5,0.1-0.9
			c0.1-0.4,0.1-0.8,0.1-1.3c0-0.5,0.1-1,0.2-1.5c0.1-0.5,0.2-0.9,0.3-1.1l0.4-2c0.1-0.2,0.3-0.7,0.6-1.3c0.3-0.6,0.5-1.4,0.5-2.5
			c0-0.5,0-0.9,0-1c0-0.2-0.2-0.3-0.6-0.3c-0.2,0-0.4,0-0.7,0.1c-0.2,0.1-0.5,0.2-1,0.3c-0.3,0.2-0.6,0.3-0.9,0.4
			c-0.3,0.1-0.5,0.2-0.6,0.2c-0.2,0-0.5-0.1-0.7-0.4c-0.2-0.3-0.4-0.6-0.4-1s0.1-0.8,0.3-1c0.2-0.2,0.5-0.4,0.8-0.6
			c0.3-0.2,0.6-0.3,0.9-0.5c0.3-0.2,0.5-0.4,0.6-0.6c0.5-0.4,1-0.9,1.7-1.5c0.6-0.7,1.3-1.3,2-2c0.7-0.6,1.3-1.2,2-1.7
			c0.6-0.5,1.2-0.7,1.7-0.7L327.1,24.9L327.1,24.9z"/>
		<path class="st0" d="M351.9,24.9c0.3,0,0.6,0.2,0.7,0.5s0.2,0.7,0.2,1c-0.6,2.3-1.2,4.3-1.7,6.2c-0.2,0.8-0.4,1.6-0.6,2.3
			s-0.4,1.5-0.6,2.1s-0.3,1.2-0.4,1.7s-0.1,0.8-0.1,0.9c0,0.2,0,0.7-0.1,1.2c-0.1,0.6-0.1,1.1,0,1.6c0.1,0.5,0.3,0.8,0.7,1
			s1-0.1,2-0.7c0.1-0.2,0.3-0.4,0.7-0.7c0.4-0.3,0.8-0.7,1.3-1.1c0.3-0.3,0.5-0.6,0.5-0.9c0.1-0.3,0.2-0.5,0.3-0.5
			c0-0.3,0.1-0.6,0.4-0.8s0.4-0.5,0.4-0.7c0.1-0.2,0.3-0.7,0.6-1.4s0.7-1.5,1.1-2.5c0.3-0.7,0.6-1.4,0.9-2.2s0.5-1.6,0.8-2.3
			c0.2-0.8,0.4-1.5,0.5-2.1c0.1-0.6,0.2-1.1,0.2-1.5s0.1-0.7,0.3-0.9s0.4-0.4,0.7-0.5s0.5-0.2,0.8-0.2s0.5,0,0.8,0h1.2
			c0.4,0,0.8,0.2,1,0.6s0.4,0.9,0.4,1.5c0,0.1,0,0.4-0.1,1c-0.1,0.6-0.2,1.2-0.3,1.9c-0.1,0.7-0.3,1.5-0.5,2.2
			c-0.2,0.8-0.4,1.4-0.5,1.9c-0.8,1.6-1.5,3.2-2.2,4.8s-1.1,3.2-1.1,4.7c0,0.2,0.1,0.4,0.2,0.6c0.1,0.1,0.1,0.2,0.2,0.3
			c0.5,0,1-0.1,1.4-0.4c0.5-0.3,0.9-0.6,1.3-0.9s0.7-0.6,1-0.9c0.3-0.3,0.5-0.4,0.6-0.4s0.2,0,0.4,0.2s0.2,0.2,0.4,0.3
			c0.1,0.1,0.3,0.3,0.4,0.4c0,0.1-0.2,0.5-0.5,1c-0.3,0.6-0.7,1.2-1.2,1.8c-0.5,0.6-0.9,1.2-1.3,1.8c-0.4,0.5-0.7,0.9-0.8,1
			c-0.4,0.2-0.7,0.5-1,0.7c-0.3,0.2-0.5,0.4-0.7,0.6s-0.4,0.4-0.7,0.7c-0.2,0.3-0.5,0.6-0.8,1c-0.5,0.5-1,0.8-1.5,1
			c-0.5,0.2-1,0.3-1.6,0.3c-0.2,0-0.5-0.1-0.7-0.2s-0.4-0.4-0.6-0.6s-0.3-0.5-0.4-0.8c-0.1-0.3-0.2-0.5-0.2-0.7v-1.5
			c0.1-0.4,0.3-0.9,0.4-1.3c0.1-0.4,0.2-0.7,0.3-1.1c0.1-0.4,0.2-0.7,0.2-1c0-0.2,0-0.4-0.1-0.7c0-0.2-0.2-0.3-0.5-0.3
			c-0.2,0-0.5,0.1-0.8,0.4c-0.3,0.3-0.6,0.6-0.9,0.9c-0.3,0.3-0.6,0.7-0.8,1c-0.2,0.3-0.5,0.5-0.6,0.7c-0.2,0.3-0.6,0.7-1.2,1.3
			c-0.6,0.6-1.2,1.2-1.8,1.8s-1.3,1.1-1.9,1.6s-1,0.7-1.3,0.7c-0.2,0-0.4-0.1-0.6-0.3s-0.4-0.4-0.6-0.7s-0.3-0.5-0.4-0.8
			c-0.1-0.3-0.2-0.5-0.2-0.6v-1.5c0-0.3,0-0.6,0-0.9c0-0.2,0.1-0.5,0.1-0.8c0-0.2,0-0.5,0-0.7c0-0.2,0-0.5,0.1-0.9
			c0.1-0.4,0.1-0.8,0.1-1.3c0-0.5,0.1-1,0.2-1.5c0.1-0.5,0.2-0.9,0.3-1.1l0.4-2c0.1-0.2,0.3-0.7,0.6-1.3c0.3-0.6,0.5-1.4,0.5-2.5
			c0-0.5,0-0.9,0-1c0-0.2-0.2-0.3-0.6-0.3c-0.2,0-0.4,0-0.7,0.1c-0.2,0.1-0.5,0.2-1,0.3c-0.3,0.2-0.6,0.3-0.9,0.4
			c-0.3,0.1-0.5,0.2-0.6,0.2c-0.2,0-0.5-0.1-0.7-0.4c-0.2-0.3-0.4-0.6-0.4-1s0.1-0.8,0.3-1c0.2-0.2,0.5-0.4,0.8-0.6
			c0.3-0.2,0.6-0.3,0.9-0.5c0.3-0.2,0.5-0.4,0.6-0.6c0.5-0.4,1-0.9,1.7-1.5c0.6-0.7,1.3-1.3,2-2c0.7-0.6,1.3-1.2,2-1.7
			c0.6-0.5,1.2-0.7,1.7-0.7L351.9,24.9L351.9,24.9z"/>
		<path class="st0" d="M368.3,42.6c0-0.5,0.2-0.8,0.7-1s0.9-0.4,1.4-0.7c0.1-0.1,0.3-0.3,0.4-0.5s0.2-0.4,0.3-0.6s0.2-0.3,0.3-0.5
			c0.1-0.1,0.3-0.2,0.5-0.1c0.3,0,0.6,0.1,0.8,0.2c0.2,0.1,0.4,0.3,0.6,0.5c1,0.7,1.6,1.5,1.8,2.4s0.3,2,0.3,3.2
			c0,0.5-0.1,1-0.2,1.4s-0.3,0.8-0.5,1.2c-0.2,0.4-0.5,0.8-0.7,1.2s-0.5,0.8-0.8,1.2c-0.6,0.9-1.2,1.7-1.7,2.3s-1.3,1.1-2.2,1.7
			c-0.7,0.4-1.3,0.8-1.9,1.2c-0.6,0.4-1.2,0.8-1.8,1.1s-1.3,0.6-1.9,0.8c-0.7,0.2-1.4,0.3-2.2,0.3c-0.1,0-0.2,0-0.3-0.1
			c-0.1-0.1-0.3-0.1-0.4-0.2c-0.1-0.1-0.3-0.2-0.5-0.3c0.1-0.5,0.3-0.9,0.6-1.2c0.3-0.3,0.6-0.6,1-0.9s0.8-0.5,1.2-0.7
			c0.4-0.2,0.8-0.5,1.2-0.8c0.8-0.6,1.5-1.1,2.2-1.6s1.3-1,1.9-1.6c0.6-0.6,1-1.2,1.4-1.9c0.3-0.7,0.5-1.5,0.5-2.5
			c0-0.4-0.1-0.7-0.3-1c-0.2-0.3-0.4-0.5-0.6-0.8c-0.2-0.2-0.4-0.5-0.6-0.8S368.3,43,368.3,42.6L368.3,42.6z"/>
		<path class="st0" d="M404.4,19.5c0.1,0,0.3,0.1,0.6,0.2s0.5,0.3,0.8,0.5c0.3,0.2,0.5,0.4,0.7,0.7c0.2,0.2,0.3,0.5,0.3,0.8
			c-0.3,0.8-0.6,1.5-0.9,2.2c-0.2,0.6-0.5,1.2-0.8,1.8c-0.2,0.6-0.5,1-0.6,1.4c-0.1,0.1-0.3,0.4-0.6,0.9c-0.3,0.5-0.6,0.9-0.9,1.5
			c-0.3,0.5-0.6,1-0.8,1.5c-0.2,0.5-0.4,0.9-0.4,1.1l0.5,0.8c0.4,0,0.9-0.4,1.6-1.1s1.5-1.5,2.4-2.4c0.8-0.9,1.6-1.7,2.4-2.4
			c0.8-0.7,1.4-1.1,1.9-1.1c0.5,0,1,0.3,1.2,0.8c0.3,0.6,0.5,1.2,0.7,1.9c0.2,0.7,0.3,1.3,0.3,1.9c0,0.6,0,1,0,1.1
			c0,0.2-0.1,0.6-0.2,1.3c-0.2,0.6-0.3,1.2-0.4,1.7c-0.1,0.1-0.2,0.2-0.2,0.3s0,0.2,0,0.3c0,0.1,0.1,0.2,0.2,0.3
			c0,0.4-0.2,1-0.5,1.7s-0.6,1.5-0.9,2.2c-0.3,0.7-0.6,1.4-0.9,2s-0.5,1-0.6,1c-0.4,0.6-0.8,1.2-1.3,1.6c-0.5,0.5-0.9,0.9-1.4,1.3
			c-0.5,0.5-1.1,0.9-1.8,1.4s-1.3,1-1.8,1.8c-0.5,0.5-1.1,0.9-1.7,1.3c-0.6,0.4-1.1,0.8-1.6,1.2c-0.5,0.4-0.9,0.9-1.2,1.4
			s-0.4,1.2-0.3,2v1.1c0,0.5-0.1,0.9-0.2,1.3s-0.1,0.7-0.2,1.1s-0.2,0.8-0.2,1.3c-0.1,0.5-0.1,1.1-0.1,1.9c0,0.7-0.1,1.2-0.1,1.5
			c0,0.4-0.1,0.7-0.2,0.9c-0.1,0.2-0.2,0.4-0.2,0.5c-0.1,0.1-0.1,0.3-0.2,0.5v1.2c0,0.5,0,1.1-0.1,1.9v1.2c0,0.8,0.2,1.2,0.6,1.3
			c0.4,0.1,0.8,0.2,1.4,0.2h1c0.5,0,1,0.2,1.4,0.7c0.4,0.5,0.6,1,0.6,1.5c0,0.2-0.1,0.4-0.4,0.7s-0.6,0.4-1,0.7
			c-0.5,0-1.1,0.2-1.6,0.5c-0.6,0.3-1.2,0.4-2,0.4h-2.1c-0.8,0.2-1.5,0.3-2.3,0.3c-0.8,0.1-1.6,0.2-2.3,0.4c-0.4,0-0.7,0-0.9,0
			s-0.4,0.1-0.5,0.2c-0.2,0.1-0.3,0.1-0.5,0.2c-0.2,0.1-0.4,0.1-0.6,0.1c-0.2,0-0.4-0.1-0.6-0.3c-0.2-0.2-0.4-0.4-0.5-0.6
			s-0.2-0.5-0.3-0.7c-0.1-0.2-0.1-0.4-0.1-0.5c0-0.4,0.2-0.8,0.4-0.9c0.2-0.2,0.5-0.3,0.8-0.4s0.7-0.1,1-0.1h0.9
			c0.1-0.1,0.3-0.2,0.5-0.2c0.2-0.1,0.4-0.1,0.5-0.2c0.2-0.1,0.3-0.2,0.4-0.3c0.1-0.1,0.2-0.3,0.2-0.6c0.1-0.2,0.2-0.6,0.4-1
			c0.1-0.4,0.2-0.8,0.4-1.2c0.1-0.4,0.2-0.8,0.3-1.1c0.1-0.3,0.1-0.6,0.2-0.7v-0.5c0-0.1,0-0.5,0.2-1.1c0.1-0.6,0.2-1.2,0.4-1.9
			c0.1-0.8,0.3-1.6,0.6-2.5c0.1-0.2,0.2-0.4,0.3-0.6c0.1-0.2,0.1-0.3,0.2-0.5c0.1-0.2,0.1-0.3,0.1-0.4c0-0.2,0-0.7,0.1-1.3
			s0.1-1.6,0.1-2.9l0.6-1.5l0.6-3.5l0.2-1.5c0-0.1,0-0.3,0.2-0.5c0.1-0.2,0.2-0.5,0.4-0.8c0.1-0.3,0.3-0.6,0.4-0.9
			c0.1-0.3,0.2-0.6,0.2-0.9c0-0.5,0.1-1,0.1-1.4s0-0.8,0.1-1.2c0-0.4,0.1-0.8,0.1-1.2c0.1-0.5,0.2-1,0.4-1.5
			c0.1-0.4,0.2-0.8,0.3-1.2c0.1-0.4,0.2-0.7,0.4-1l0.1-3c0-0.7-0.3-1-1-1c-0.3,0-0.6,0.1-0.8,0.4s-0.6,0.5-0.9,0.8
			c-0.8,0.8-1.4,1.2-1.8,1.2c-0.2,0-0.3-0.1-0.3-0.1c0,0-0.1-0.1-0.1-0.2c0-0.1,0-0.2,0-0.3c0-0.7,0.2-1.4,0.7-2s0.9-1.2,1.4-1.9
			c0.5-1,1.2-2,1.9-2.9c0.8-0.9,1.5-1.9,2.3-2.8s1.5-1.9,2.2-2.9c0.7-1,1.3-2.1,1.8-3.2c0.2-0.1,0.3-0.1,0.5-0.2
			C403.8,19.6,404.1,19.5,404.4,19.5L404.4,19.5z M406.4,33.8c-0.3,0-0.6,0.1-1,0.4c-0.4,0.2-0.8,0.5-1.2,0.9s-0.8,0.7-1,1
			c-0.3,0.3-0.4,0.5-0.4,0.6c-0.5,1-0.9,2-1.2,2.8c-0.3,0.8-0.7,1.8-1,2.7v1.5c0,0.3,0.1,0.6,0.2,1s0.6,0.6,1.3,0.7
			c0.2,0,0.5-0.1,0.9-0.4s0.8-0.6,1.2-1c0.5-0.4,1-0.9,1.5-1.5c0.3-0.2,0.6-0.4,0.8-0.7c0.2-0.3,0.5-0.5,0.9-0.8
			c0.2-0.5,0.3-0.8,0.4-0.9s0-0.5,0-1c0-0.1,0-0.2,0-0.4c0-0.2-0.1-0.3-0.1-0.5c-0.1-0.2-0.1-0.4-0.2-0.6v-1.7c0-0.3,0-0.5,0-0.8
			c0-0.3-0.1-0.5-0.2-0.8C406.9,33.9,406.7,33.8,406.4,33.8L406.4,33.8z"/>
		<path class="st0" d="M429.9,24.1c0.8,0,1.3,0.2,1.6,0.6s0.5,1,0.5,1.8c0,0.1,0,0.5-0.2,1c-0.1,0.5-0.2,1-0.4,1.6s-0.3,1.2-0.5,1.8
			c-0.2,0.6-0.3,1.1-0.4,1.5c0,0.3,0,0.6,0,0.9c0,0.3-0.2,0.7-0.4,1.2c-0.3,0.2-0.4,0.6-0.4,1v1l-0.2,2.9v2.1c0,0.1,0,0.3,0,0.6
			c0,0.3,0,0.5,0.1,0.8c0,0.3,0.1,0.5,0.3,0.7c0.1,0.2,0.3,0.3,0.6,0.3l0.8-1.2c0.2-0.2,0.5-0.4,0.8-0.7c0.3-0.3,0.6-0.5,0.9-0.8
			c0.3-0.3,0.6-0.6,1-0.9c0.2,0,0.4,0.1,0.5,0.3s0.2,0.4,0.2,0.6l-0.2,0.4c-0.1,0.3-0.3,0.5-0.4,0.7c-0.2,0.7-0.6,1.3-1,1.9
			c-0.4,0.5-0.8,1-1.3,1.5c-0.5,0.5-1,1-1.4,1.5c-0.5,0.5-1,1.1-1.4,1.7l-1.2,1.7c0,0.3-0.1,0.7-0.3,1c-0.2,0.3-0.4,0.6-0.7,0.8
			c-0.3,0.2-0.6,0.3-0.9,0.3c-0.3,0-0.5-0.2-0.7-0.6c-0.2-0.7-0.3-1.3-0.3-1.9s0-1.2,0.2-1.8c0.1-0.6,0.2-1.2,0.3-1.7
			s0.2-1.1,0.2-1.6v-3c0-0.2-0.1-0.3-0.4-0.4c-0.1,0-0.3,0-0.4,0s-0.4,0.3-0.8,1s-0.9,1.3-1.5,2.2c-0.6,0.8-1.1,1.6-1.7,2.5
			c-0.6,0.8-1,1.4-1.4,1.8c-0.1,0.1-0.3,0.3-0.5,0.6s-0.5,0.5-0.8,0.8c-0.3,0.2-0.6,0.5-0.9,0.7s-0.6,0.3-0.9,0.3
			c-0.5,0-0.9-0.2-1.2-0.5c-0.3-0.4-0.6-0.8-0.8-1.3c-0.2-0.5-0.3-1-0.4-1.5c-0.1-0.5-0.1-0.8-0.1-1l-0.2-3.9l0.8-6.3
			c0-0.1,0-0.4,0.2-0.8c0.1-0.4,0.2-0.8,0.4-1.3c0.2-0.5,0.4-0.9,0.6-1.4c0.2-0.5,0.5-0.8,0.7-1.1c1-1,2-2.2,3-3.6
			c0.5-0.6,0.9-1.1,1.4-1.4c0.4-0.3,0.9-0.5,1.3-0.7c0.4-0.2,0.9-0.3,1.3-0.4s0.9-0.3,1.5-0.6c0.2,0,0.5-0.1,0.8-0.4
			c0.3-0.2,0.7-0.5,1-0.7h2.4L429.9,24.1L429.9,24.1z M423,30.1c-0.6,0.5-1.3,1.2-1.8,1.9c-0.6,0.7-1.1,1.4-1.5,2.1
			c-0.4,0.7-0.8,1.4-1,2c-0.2,0.6-0.4,1.1-0.4,1.5c0,0.2,0,0.5,0,1c0,0.5,0,1,0,1.5c0.1,0.5,0.2,1,0.4,1.4s0.5,0.6,1,0.6
			c0.5,0,1-0.4,1.6-1.2s1.2-1.8,1.8-2.8c0.6-1,1-2,1.4-2.9c0.4-0.9,0.6-1.4,0.6-1.6c0-0.1,0-0.5,0-1c0-0.6,0-1.1-0.1-1.6
			c-0.1-0.5-0.3-0.9-0.6-1.1C424.2,29.5,423.7,29.7,423,30.1L423,30.1z"/>
		<path class="st0" d="M445.6,4.1c0.1,0,0.3,0,0.5-0.1c0.2-0.1,0.4-0.2,0.6-0.3c0.2-0.1,0.5-0.2,0.7-0.3s0.4-0.1,0.5-0.1
			c0.3,0,0.6-0.1,0.9-0.2c0.3-0.1,0.6-0.2,0.9-0.2c0.4,0,0.7-0.1,1-0.2c0.3-0.1,0.6-0.2,0.8-0.3s0.5-0.2,0.7-0.4
			c0.2-0.2,0.4-0.4,0.5-0.6s0.3-0.4,0.4-0.6s0.3-0.3,0.5-0.4S454,0,454.3,0c0.2,0,0.5,0.1,0.6,0.4c0.1,0.3,0.2,0.7,0.3,1.1
			c0,0.5,0,0.9,0,1.3v1c0,0.2-0.1,0.6-0.2,1.2s-0.4,1.2-0.7,1.8c-0.3,0.7-0.8,1.2-1.4,1.8c-0.6,0.6-1.3,0.9-2.1,1.2
			c-0.2,0-0.5,0.1-0.8,0.3c-0.1,0.1-0.3,0.2-0.4,0.3h-0.6c-0.4,0-0.9,0.1-1.4,0.4s-1,0.6-1.5,1.1c-0.5,0.4-0.9,0.9-1.2,1.3
			c-0.3,0.5-0.5,0.9-0.5,1.2c-0.3,0.2-0.4,0.5-0.4,0.8c0,0.2-0.1,0.6-0.4,1.1c-0.3,0.3-0.5,0.7-0.7,1.3c-0.2,0.6-0.3,1-0.3,1.3
			l-0.6,1.9c0,0.5-0.1,1-0.3,1.5s-0.4,1-0.6,1.6c-0.2,0.6-0.4,1.2-0.6,1.9s-0.3,1.4-0.3,2.2v1c0,0.2,0,0.5,0.2,0.7
			c0,0.1,0.1,0.2,0.2,0.3c0.2,0,0.5-0.2,0.8-0.7s0.6-1,1-1.6c0.4-0.6,0.9-1.1,1.5-1.6s1.3-0.8,2.2-0.8l1.2-0.5
			c0.8,0,1.5,0.2,1.9,0.7c0.4,0.5,0.6,1.1,0.6,2v0.5l-0.4,1c0.1,0.3,0.1,0.6,0.2,0.9c0.1,0.2,0.1,0.5,0.2,0.8c0,0.3,0,0.5,0,0.8
			c0,0.1,0,0.3,0,0.4c0,0.1-0.1,0.2-0.1,0.3c-0.1,0.2-0.1,0.3-0.2,0.5c0,0.1-0.1,0.2-0.1,0.3c0,0.1,0,0.3,0,0.3
			c0,0.1,0.1,0.2,0.1,0.3c0,0.1,0,0.3,0,0.5c0,0.2-0.1,0.5-0.2,0.9v1.7c0,0.1-0.1,0.3-0.3,0.7c-0.2,0.3-0.4,0.7-0.7,1.2
			c-0.2,0.5-0.5,0.9-0.8,1.4s-0.5,1-0.6,1.4l-0.6,2.4c-0.6,0.9-1.3,1.8-1.8,2.5c-0.5,0.7-1,1.3-1.4,1.9c-0.5,0.6-0.8,1-0.9,1.1
			c-0.4,0.3-0.7,0.5-0.9,0.7s-0.4,0.4-0.6,0.5s-0.5,0.2-0.8,0.3s-0.8,0.1-1.5,0.1l-1.5,0.4c-0.3,0-0.5-0.1-0.6-0.2
			c-0.1-0.2-0.2-0.4-0.2-0.7s-0.1-0.6-0.1-0.9c0-0.3-0.1-0.6-0.3-0.9c0-0.1,0-0.3-0.2-0.5c-0.1-0.2-0.2-0.4-0.3-0.7
			c-0.2-0.3-0.5-0.6-0.7-0.8s-0.4-0.6-0.4-1c0-0.1,0-0.3,0.1-0.5s0.1-0.5,0.2-0.7c0.1-0.2,0.2-0.5,0.3-0.8v-1.6l0.5-5v-1l1-5.1v-1.9
			c0-0.3,0.1-0.9,0.3-1.8c0.2-0.9,0.3-2,0.3-3.3v-1.5l1.5-6.6c0-0.2,0-0.6,0.1-1c0-0.4,0.1-0.9,0.2-1.3c0.1-0.5,0.2-1,0.3-1.6
			l0.5-1.5c0.1-0.5,0.2-1,0.5-1.5s0.6-1.2,1.1-1.9c0.3-0.5,0.7-0.9,1.2-1.3s1-0.7,1.5-0.9C444.5,4.5,445,4.2,445.6,4.1L445.6,4.1z
			 M443.5,30.6c-0.3,0-0.7,0.2-1,0.5s-0.7,0.8-1,1.4c-0.3,0.6-0.7,1.2-1,1.8c-0.3,0.7-0.5,1.3-0.8,1.9c-0.2,0.6-0.4,1.2-0.5,1.7
			c-0.1,0.5-0.2,0.8-0.2,1v2c0,0.4,0,0.7,0.1,1c0.1,0.2,0.1,0.5,0.2,0.7c0.1,0.2,0.2,0.3,0.4,0.3h0.6c0.5-0.2,1-0.5,1.6-1
			c0.6-0.5,1.1-1,1.6-1.6c0.5-0.6,0.9-1.2,1.3-1.8s0.5-1.2,0.5-1.7v-2.5l-0.3-1l0.3-0.9C445.4,31.3,444.8,30.6,443.5,30.6
			L443.5,30.6z"/>
		<path class="st0" d="M461.2,24.6c0.5,0,1.1,0,1.9,0c0.7,0,1.4,0.2,1.9,0.4c0.5,0,0.9,0.2,1,0.6c0.2,0.4,0.4,0.9,0.6,1.5
			c0.1,0.1,0.3,0.3,0.5,0.6s0.4,0.5,0.5,0.8s0.3,0.5,0.4,0.8c0.1,0.3,0.2,0.5,0.2,0.8l-0.4,4.8c0,1-0.2,2.1-0.6,3.3
			c-0.4,1.2-1.1,2.3-1.9,3.3c-0.3,0.3-0.5,0.6-0.6,1c-0.1,0.3-0.2,0.7-0.4,1s-0.3,0.7-0.4,1.1s-0.4,0.8-0.7,1.1
			c-0.2,0.2-0.5,0.6-0.7,0.9c-0.3,0.4-0.6,0.7-0.9,1.1c-0.3,0.4-0.6,0.7-1,1c-0.3,0.3-0.7,0.5-1,0.7c-0.5,0.3-1,0.5-1.4,0.8
			c-0.4,0.2-0.7,0.4-1,0.5s-0.6,0.2-0.9,0.3c-0.3,0-0.6,0.1-1,0.1c-0.5,0-1-0.1-1.5-0.4s-0.9-0.6-1.2-1c-0.3-0.4-0.6-0.9-0.8-1.4
			s-0.3-1-0.3-1.6v-3.6c0-0.2-0.1-0.4-0.2-0.6c-0.1-0.2-0.2-0.7-0.2-1.5c0-1,0.2-2.3,0.8-3.8s1.2-2.9,1.9-4.3
			c0.7-1.4,1.5-2.7,2.2-3.8c0.7-1.1,1.3-1.8,1.7-2c0.4-0.2,0.7-0.5,1-0.8s0.5-0.6,0.8-0.8c0.2-0.2,0.5-0.5,0.8-0.6
			S460.8,24.6,461.2,24.6L461.2,24.6z M461.5,30.8c-0.6,0-1.2,0.2-1.8,0.7s-1.1,1-1.6,1.7c-0.5,0.6-1,1.3-1.4,1.9s-0.7,1.1-0.8,1.4
			l-0.5,2c-0.1,0.5-0.3,1-0.4,1.5c-0.1,0.5-0.1,0.8-0.1,0.9v1c0.1,0.1,0.3,0.3,0.4,0.7c0.1,0.3,0.2,0.7,0.4,1
			c0.2,0.3,0.4,0.6,0.6,0.9s0.5,0.4,0.9,0.4c0.7-0.3,1.4-0.7,2-1c0.5-0.3,1-0.6,1.5-0.9s0.8-0.7,1-1c0.2-0.5,0.5-1.1,0.7-1.8
			c0.3-0.7,0.5-1.3,0.8-1.9c-0.1-0.3,0-0.6,0.2-0.9c0.2-0.3,0.4-0.6,0.4-0.8V35c0-0.2,0-0.5-0.1-1c-0.1-0.5-0.2-0.9-0.4-1.4
			c-0.2-0.5-0.4-0.9-0.7-1.3S461.8,30.8,461.5,30.8L461.5,30.8z"/>
		<path class="st0" d="M477.8,25.2c0.5,0,0.9,0.2,1,0.6s0.2,0.8,0.1,1.4s-0.1,1-0.2,1.6c-0.1,0.5-0.1,1-0.1,1.3v1.5
			c0,0.1,0,0.3,0,0.6c0,0.3,0.1,0.5,0.3,0.7c0.1,0.2,0.4,0.3,0.6,0.3c0.3,0,0.7-0.1,1.2-0.4c0.2-0.1,0.5-0.4,0.8-0.9s0.8-1,1.2-1.5
			s0.9-1.1,1.3-1.8c0.5-0.6,0.9-1.2,1.3-1.7s0.8-0.9,1.1-1.3c0.3-0.3,0.6-0.5,0.7-0.5c0.5,0,1,0.1,1.4,0.4s0.8,0.6,1.1,1
			s0.5,0.8,0.7,1.2c0.2,0.4,0.2,0.8,0.2,1l-0.3,1.4c0,0.1,0,0.3,0,0.6c0,0.3,0,0.5,0,0.8c0,0.2,0.1,0.4,0.3,0.5
			c0.1,0.1,0.4,0,0.8-0.3c0.2-0.2,0.6-0.6,1.1-1.2s1.1-1.3,1.8-2c0.6-0.7,1.3-1.3,2-1.8c0.7-0.5,1.3-0.8,1.8-0.8
			c0.7,0,1.2,0.2,1.6,0.7c0.3,0.5,0.5,0.9,0.5,1.4c0,0.1,0,0.3-0.1,0.6c-0.1,0.3-0.2,0.6-0.3,1s-0.2,0.7-0.3,1
			c-0.1,0.3-0.1,0.6-0.1,0.7v1.1c0,0.5-0.2,1.3-0.5,2.3s-0.7,2-1,3.2c-0.4,1.1-0.7,2.2-1,3.2s-0.5,1.9-0.5,2.5c0,0.2,0,0.4,0,0.7
			c0,0.3,0,0.5,0,0.7s0.1,0.3,0.3,0.3c0.2,0,0.5-0.1,0.9-0.4c0.2-0.1,0.5-0.3,0.9-0.6c0.4-0.3,0.8-0.5,1.2-0.7s0.7-0.3,1-0.3
			s0.4,0.3,0.4,0.8c-0.6,0.8-1.3,1.5-1.8,2.2c-0.5,0.6-1,1.1-1.5,1.7s-0.9,1-1.1,1.3c-0.5,0.4-1,0.8-1.3,1.1s-0.6,0.7-0.9,1
			c-0.3,0.3-0.6,0.5-0.9,0.7s-0.8,0.3-1.3,0.3c-0.4,0-0.7-0.1-1-0.3s-0.5-0.5-0.6-0.8c-0.2-0.3-0.3-0.6-0.4-0.9
			c-0.1-0.3-0.1-0.5-0.1-0.7c0-1,0.1-2,0.4-2.9s0.6-1.8,1-2.6c0.4-0.8,0.7-1.7,1-2.5c0.3-0.8,0.5-1.6,0.6-2.4c0-0.1,0-0.3,0-0.5
			c0-0.2,0.1-0.4,0.2-0.7c0.1-0.2,0.1-0.5,0.2-0.8c0-0.2,0-0.6,0-1c0-0.4-0.1-0.8-0.2-1.2c-0.1-0.4-0.3-0.7-0.5-0.9
			s-0.5-0.3-0.8-0.1c-0.7,0.2-1.4,0.9-1.9,1.8s-1,2.1-1.5,3.3s-0.9,2.6-1.3,4s-0.8,2.7-1.2,3.9c-0.4,1.2-0.8,2.2-1.2,3
			s-0.9,1.2-1.3,1.2c-0.2,0-0.5,0-0.9-0.2c-0.3-0.1-0.7-0.2-1-0.4c-0.3-0.2-0.6-0.3-0.8-0.5c-0.2-0.2-0.3-0.3-0.3-0.4
			c0-0.9,0.1-1.8,0.3-2.7c0.2-0.9,0.5-1.7,0.8-2.4c0.3-0.8,0.6-1.5,0.9-2.1s0.4-1.2,0.4-1.7v-0.4c0-0.7,0.2-1.6,0.8-2.9
			c0.1-0.5,0.3-0.9,0.5-1.3s0.3-0.8,0.2-1.1c0-0.4-0.2-0.8-0.6-1c-0.4-0.3-0.7-0.3-0.9-0.1c-0.6,0.2-1.2,0.5-1.7,1.1s-1,1.2-1.3,1.8
			s-0.7,1.2-1,1.8c-0.3,0.6-0.5,1-0.6,1.2c-0.5,0.8-0.9,1.5-1.1,2.2c-0.2,0.7-0.5,1.4-0.8,2c0,0.1-0.1,0.5-0.3,1.2
			c-0.2,0.8-0.5,1.6-0.8,2.4s-0.8,1.7-1.4,2.3c-0.6,0.7-1.2,1-2,1c-0.2,0-0.4-0.1-0.6-0.2c-0.2-0.2-0.4-0.4-0.5-0.6
			s-0.2-0.5-0.3-0.7c-0.1-0.2-0.1-0.4-0.1-0.6c0-0.2-0.1-0.5-0.2-0.8c-0.2-0.3-0.1-0.7,0.1-1.2c0.1-0.3,0.4-1,0.8-2
			c0.4-1.1,0.7-2.3,1.1-3.5c0.4-1.3,0.7-2.5,1-3.7c0.3-1.2,0.4-2,0.4-2.6c0-0.2,0.1-0.4,0.2-0.7c0.1-0.2,0.2-0.5,0.2-0.7
			c0-0.5,0-0.9-0.1-1.2c-0.1-0.3-0.4-0.4-0.9-0.4c-0.2,0-0.4,0.1-0.6,0.2c-0.2,0.1-0.4,0.3-0.6,0.5c-0.2,0.2-0.5,0.4-0.7,0.5
			c-0.3,0.1-0.6,0.2-1,0.2c-0.2,0-0.5-0.1-0.7-0.2c-0.1-0.1-0.2-0.1-0.2-0.2c0-0.5,0.1-1,0.5-1.4s0.7-0.7,1-0.7c0.5-0.5,1-1,1.5-1.5
			c0.5-0.5,1-0.8,1.6-1c0.1-0.1,0.4-0.3,0.7-0.7s0.8-0.7,1.3-1.1c0.5-0.4,0.9-0.7,1.4-1C477.3,25.4,477.6,25.2,477.8,25.2
			L477.8,25.2z"/>
		<path class="st0" d="M512.5,24.9c0.3,0,0.6,0.2,0.7,0.5s0.2,0.7,0.2,1c-0.7,2.3-1.2,4.3-1.7,6.2c-0.2,0.8-0.4,1.6-0.6,2.3
			s-0.4,1.5-0.6,2.1s-0.3,1.2-0.4,1.7s-0.1,0.8-0.1,0.9c0,0.2,0,0.7-0.1,1.2c-0.1,0.6-0.1,1.1,0,1.6c0.1,0.5,0.3,0.8,0.7,1
			s1-0.1,2-0.7c0.1-0.2,0.3-0.4,0.7-0.7c0.4-0.3,0.8-0.7,1.3-1.1c0.3-0.3,0.5-0.6,0.5-0.9c0.1-0.3,0.2-0.5,0.3-0.5
			c0-0.3,0.1-0.6,0.4-0.8s0.4-0.5,0.4-0.7c0.1-0.2,0.3-0.7,0.6-1.4s0.7-1.5,1.1-2.5c0.3-0.7,0.6-1.4,0.9-2.2s0.5-1.6,0.8-2.3
			c0.2-0.8,0.4-1.5,0.5-2.1c0.1-0.6,0.2-1.1,0.2-1.5s0.1-0.7,0.3-0.9s0.4-0.4,0.7-0.5s0.5-0.2,0.8-0.2c0.3,0,0.5,0,0.8,0h1.2
			c0.4,0,0.8,0.2,1,0.6s0.4,0.9,0.4,1.5c0,0.1,0,0.4-0.1,1s-0.2,1.2-0.3,1.9c-0.1,0.7-0.3,1.5-0.5,2.2c-0.2,0.8-0.4,1.4-0.5,1.9
			c-0.8,1.6-1.5,3.2-2.2,4.8c-0.7,1.6-1.1,3.2-1.1,4.7c0,0.2,0.1,0.4,0.2,0.6c0.1,0.1,0.1,0.2,0.2,0.3c0.5,0,1-0.1,1.4-0.4
			c0.5-0.3,0.9-0.6,1.3-0.9s0.7-0.6,1-0.9c0.3-0.3,0.5-0.4,0.6-0.4s0.2,0,0.3,0.2s0.2,0.2,0.3,0.3c0.1,0.1,0.3,0.3,0.4,0.4
			c0,0.1-0.2,0.5-0.5,1c-0.3,0.6-0.7,1.2-1.2,1.8c-0.5,0.6-0.9,1.2-1.3,1.8c-0.4,0.5-0.7,0.9-0.8,1c-0.4,0.2-0.7,0.5-1,0.7
			c-0.3,0.2-0.5,0.4-0.7,0.6s-0.4,0.4-0.7,0.7c-0.2,0.3-0.5,0.6-0.8,1c-0.5,0.5-1,0.8-1.5,1c-0.5,0.2-1,0.3-1.6,0.3
			c-0.2,0-0.5-0.1-0.7-0.2s-0.4-0.4-0.6-0.6s-0.3-0.5-0.4-0.8c-0.1-0.3-0.2-0.5-0.2-0.7v-1.5c0.1-0.4,0.3-0.9,0.4-1.3
			c0.1-0.4,0.2-0.7,0.3-1.1c0.1-0.4,0.2-0.7,0.2-1c0-0.2,0-0.4-0.1-0.7c0-0.2-0.2-0.3-0.5-0.3c-0.2,0-0.5,0.1-0.8,0.4
			c-0.3,0.3-0.6,0.6-0.9,0.9c-0.3,0.3-0.6,0.7-0.8,1c-0.2,0.3-0.5,0.5-0.6,0.7c-0.2,0.3-0.6,0.7-1.2,1.3c-0.6,0.6-1.2,1.2-1.8,1.8
			s-1.3,1.1-1.9,1.6s-1,0.7-1.3,0.7c-0.2,0-0.4-0.1-0.6-0.3s-0.4-0.4-0.6-0.7s-0.3-0.5-0.4-0.8c-0.1-0.3-0.2-0.5-0.2-0.6v-1.5
			c0-0.3,0-0.6,0-0.9c0-0.2,0.1-0.5,0.1-0.8c0-0.2,0-0.5,0-0.7c0-0.2,0-0.5,0.1-0.9c0.1-0.4,0.1-0.8,0.1-1.3c0-0.5,0.1-1,0.2-1.5
			c0.1-0.5,0.2-0.9,0.3-1.1l0.4-2c0.1-0.2,0.3-0.7,0.6-1.3c0.3-0.6,0.5-1.4,0.5-2.5c0-0.5,0-0.9,0-1c0-0.2-0.2-0.3-0.6-0.3
			c-0.2,0-0.4,0-0.7,0.1c-0.2,0.1-0.5,0.2-1,0.3c-0.3,0.2-0.6,0.3-0.9,0.4c-0.3,0.1-0.5,0.2-0.6,0.2c-0.2,0-0.5-0.1-0.7-0.4
			c-0.2-0.3-0.4-0.6-0.4-1s0.1-0.8,0.3-1c0.2-0.2,0.5-0.4,0.8-0.6c0.3-0.2,0.6-0.3,0.9-0.5c0.3-0.2,0.5-0.4,0.6-0.6
			c0.5-0.4,1-0.9,1.7-1.5c0.6-0.7,1.3-1.3,2-2c0.7-0.6,1.3-1.2,2-1.7c0.6-0.5,1.2-0.7,1.7-0.7L512.5,24.9L512.5,24.9z"/>
		<path class="st0" d="M550.4,24.3c0.6,0,1.2,0.1,1.8,0.4s0.9,0.7,0.9,1.2l0.2,0.9c0,0.2,0,0.4,0,0.7s-0.2,0.5-0.3,0.8
			c-0.1,0.4-0.3,0.7-0.4,1.1c0,0.7-0.1,1.4-0.2,2c-0.1,0.6-0.2,1.3-0.2,2v0.4c0,0.2,0,0.4-0.1,0.6s-0.1,0.5-0.2,0.7
			c-0.1,0.2-0.1,0.5-0.2,0.8v0.6c0,0.4,0,0.7-0.2,1s-0.2,0.6-0.4,1c-0.1,0.3-0.1,0.6-0.2,1s-0.1,0.7-0.1,1.1c0,0.1,0,0.3,0,0.5
			c0,0.2,0,0.4,0.1,0.7c0,0.2,0.2,0.4,0.3,0.5c0.1,0.1,0.3,0.2,0.6,0.2c0.3,0,0.6-0.1,0.9-0.3c0.3-0.2,0.6-0.4,0.8-0.6
			c0.1-0.2,0.3-0.3,0.5-0.5c0.2-0.1,0.4-0.2,0.7-0.2h1.1c0.2,0,0.3,0.1,0.4,0.3c0,0.2,0,0.5,0,0.8c0,0.1-0.2,0.3-0.5,0.7
			s-0.7,0.8-1.2,1.2s-0.9,0.8-1.3,1.2c-0.4,0.4-0.7,0.6-0.8,0.7c-0.1,0.3-0.3,0.7-0.7,1.3c-0.3,0.6-0.7,1.1-1.1,1.7
			c-0.4,0.6-0.9,1.1-1.3,1.5c-0.5,0.4-0.9,0.7-1.2,0.7c-0.3,0-0.6-0.1-0.9-0.2c-0.3-0.2-0.6-0.4-0.8-0.7s-0.5-0.5-0.6-0.8
			s-0.2-0.6-0.2-0.9v-0.9c0-0.1,0-0.3-0.1-0.4c-0.1-0.1-0.1-0.3-0.2-0.4s-0.1-0.4-0.1-0.6c0-0.2,0-0.5,0.1-0.8l0.3-1.3v-2.5
			c0-0.5,0.1-1,0.2-1.3c0.1-0.3,0.2-0.7,0.2-1.2v-0.5c0-0.2,0.1-0.8,0.3-1.7c0.2-0.9,0.4-1.9,0.7-2.9c0.2-1,0.5-2,0.7-3
			c0.2-0.9,0.3-1.6,0.3-2c0-0.3-0.3-0.4-0.9-0.4c-0.1,0.1-0.2,0.2-0.4,0.4s-0.4,0.4-0.4,0.7l-1.8,3.8c-0.1,0.1-0.2,0.3-0.4,0.7
			s-0.4,0.8-0.6,1.2s-0.4,0.8-0.5,1.1s-0.3,0.5-0.3,0.6c-0.4,0.6-0.9,1.3-1.4,2s-1,1.3-1.3,1.8c-0.3,0.4-0.5,0.8-0.7,1
			s-0.3,0.5-0.5,0.8c-0.2,0.3-0.3,0.6-0.6,0.9c-0.2,0.3-0.5,0.8-0.9,1.4c-0.5,0.8-1.1,1.5-1.8,2.3s-1.5,1.7-2.4,2.8
			c-0.8,0.8-1.5,1.3-2.2,1.7s-1.3,0.6-2,0.6c-0.2,0-0.5,0-0.8-0.2s-0.6-0.2-0.9-0.4s-0.5-0.3-0.7-0.5s-0.4-0.4-0.4-0.5
			c-0.2-0.3-0.4-0.7-0.5-1.2c-0.1-0.5-0.2-0.9-0.3-1.4c-0.1-0.5-0.1-0.9-0.1-1.2s0-0.6,0.1-0.7c0.1-0.5,0.5-0.9,1-1.1
			s0.9-0.4,1.2-0.4h1.3l1.3,0.8c0.1,0,0.2,0,0.2,0.1c0,0,0.1,0.1,0.1,0.1c0,0,0.1,0,0.2,0s0.3-0.1,0.5-0.2c0.7-0.4,1.4-0.9,2-1.5
			s1.2-1.4,1.8-2.1c0.5-0.8,1-1.5,1.5-2.3c0.5-0.8,0.8-1.5,1.1-2.1l0.3-0.4c0-0.2,0.1-0.5,0.4-0.7c0.1-0.1,0.2-0.3,0.4-0.4
			c0.1-0.7,0.2-1.2,0.4-1.3s0.4-0.4,0.5-0.6c0.1-0.1,0.2-0.4,0.3-0.7s0.3-0.6,0.5-0.9c0.2-0.3,0.4-0.7,0.7-1c0-0.3,0-0.6,0.2-0.8
			c0-0.1,0.1-0.3,0.2-0.4l0.6-0.9c0-0.1,0-0.2,0-0.3c0-0.1,0-0.3-0.2-0.5l-1-0.2c-0.4-0.2-0.7-0.5-0.9-0.8c-0.2-0.2-0.5-0.4-0.7-0.6
			c-0.2-0.2-0.3-0.4-0.3-0.6l0.2-1c0-0.2,0.3-0.3,0.8-0.5s1.2-0.2,2-0.3s1.7-0.1,2.7-0.1c1,0,1.9,0,2.7,0c0.8,0,1.6,0,2.2,0
			S550.2,24.2,550.4,24.3L550.4,24.3z"/>
		<path class="st0" d="M578.9,24.9c0.6,0.1,1.1,0.3,1.3,0.8s0.4,0.9,0.4,1.5l-0.3,1.5c-0.1,0.2-0.2,0.4-0.3,0.5s-0.3,0.3-0.4,0.5
			c-0.1,0.2-0.3,0.4-0.5,0.6c-0.1,0.8-0.3,1.4-0.7,2c-0.4,0.6-0.6,1.2-0.8,2c0,0.3,0,0.6-0.1,0.9c-0.1,0.3-0.1,0.6-0.2,0.8
			c-0.1,0.3-0.2,0.6-0.3,0.9v0.6c-0.1,0.4-0.2,0.7-0.3,0.9s-0.3,0.5-0.5,0.9c-0.1,0.3-0.2,0.6-0.2,1c-0.1,0.4-0.2,0.7-0.2,1.1
			c0,0.3,0,0.7,0.1,1.2c0.1,0.5,0.4,0.8,1,0.9c0.3,0,0.6-0.1,0.8-0.2s0.5-0.3,0.8-0.5c0.2-0.1,0.4-0.3,0.6-0.4
			c0.2-0.1,0.4-0.2,0.7-0.2c0.7,0.2,1,0.3,1,0.5c-0.1,0.2-0.2,0.4-0.3,0.7c0,0.1-0.1,0.3-0.4,0.7s-0.6,0.8-1,1.2
			c-0.4,0.4-0.7,0.8-1.1,1.2s-0.7,0.6-0.8,0.7c-0.1,0.2-0.4,0.6-0.8,1.2c-0.4,0.5-0.9,1-1.4,1.5s-1,0.9-1.6,1.3
			c-0.5,0.4-1,0.5-1.3,0.5c-0.2,0-0.5-0.2-0.8-0.3c-0.3-0.2-0.5-0.4-0.7-0.7s-0.4-0.6-0.5-0.9c-0.1-0.3-0.1-0.6-0.1-0.9v-0.9
			c0.2-0.7,0.1-1.1-0.3-1.2l0.1-1.1l0.5-1.3c0.1-0.5,0.1-0.9,0.2-1.3c0-0.3,0.1-0.8,0.3-1.3v-0.5c-0.1-0.6-0.8-0.9-1.9-0.9
			c-0.9,0.1-1.7,0.1-2.3,0.1c-0.6,0-1.3,0.1-1.9,0.1c0,0.2,0,0.3-0.1,0.5c0,0.1-0.1,0.3-0.1,0.5c0,0.3,0,0.7-0.1,1.2
			c-0.1,0.5-0.1,0.9-0.1,1.2c-0.2,0.7-0.3,1.3-0.3,1.7c0,0.5,0,1.2,0,2c-0.1,0.4-0.1,0.7-0.2,1c0,0.3-0.1,0.4-0.3,0.5
			c-0.2,0.2-0.5,0.4-0.9,0.7c-0.4,0.2-0.7,0.5-0.9,0.7c-0.5,0.4-0.9,0.8-1.4,1c-0.5,0.2-1,0.3-1.8,0.2c-0.5-0.1-0.9-0.3-1.2-0.8
			c-0.3-0.5-0.4-1.1-0.3-1.9c0-0.1,0.1-0.2,0.2-0.3c0-0.1,0.1-0.2,0.1-0.3s0-0.2,0-0.4c0.1-0.4,0.2-0.8,0.3-1.2
			c0.1-0.4,0.2-0.7,0.3-0.9l0.3-1.5c0.1-0.5,0.2-1,0.4-1.2c0.2-0.3,0.4-0.7,0.4-1.2c0-0.5,0.1-0.9,0.3-1.3s0.3-0.8,0.3-1.3l0.5-0.9
			c0-0.2,0-0.6,0.1-1c0.1-0.4,0.2-0.8,0.3-1.3c0.1-0.5,0.2-0.9,0.3-1.4s0.2-0.9,0.2-1.3c0-0.3-0.1-0.6-0.3-1s-0.5-0.6-1.1-0.6
			c-0.2,0-0.4,0.1-0.7,0.2c-0.2,0.1-0.7,0.2-1.5,0.1c-0.1-0.1-0.1-0.2-0.2-0.3c-0.1-0.2-0.1-0.5-0.1-0.8v-0.4c0-0.1,0-0.2,0.1-0.5
			c0-0.3,0.3-0.7,1-1.3c0.7-0.6,1.5-1.2,2.3-1.7s1.7-1,2.5-1.5c0.8-0.4,1.3-0.6,1.5-0.6c0.6,0,1.1,0.2,1.4,0.7s0.5,1,0.4,1.5
			c-0.1,1-0.2,1.8-0.2,2.3v0.8c-0.1,0.8-0.2,1.4-0.4,2c-0.2,0.6-0.4,1.2-0.4,1.9v0.5c0,0.2,0,0.4,0,0.6c0,0.2,0,0.5-0.1,0.7
			c0,0.2,0,0.5,0,0.8V37l0.9-0.4c0.2,0.1,0.5,0.1,0.7,0.1s0.5,0,0.9-0.1c0.2,0,0.3-0.1,0.5-0.1c0.3-0.1,0.7-0.2,1-0.3
			c0.1-0.2,0.3-0.4,0.7-0.3c0.4,0,0.7,0.1,1,0.2c0.2,0,0.4-0.1,0.6-0.2c0.2-0.1,0.4-0.3,0.6-0.5l0.4-1.8c0-0.2,0-0.6,0.2-1.1
			s0.2-1,0.2-1.5c0-0.2,0.1-0.4,0.1-0.6c0-0.2,0.1-0.4,0.1-0.6c0-0.2,0-0.4,0-0.6c0-0.5,0.2-1,0.5-1.5c0.2-0.3,0.6-0.6,1.1-1
			s1-0.6,1.6-0.9s1.1-0.5,1.6-0.6C578.3,24.9,578.7,24.9,578.9,24.9L578.9,24.9z"/>
		<path class="st0" d="M591.9,24.9c0.3,0,0.6,0.2,0.7,0.5s0.2,0.7,0.2,1c-0.7,2.3-1.2,4.3-1.7,6.2c-0.2,0.8-0.4,1.6-0.7,2.3
			s-0.4,1.5-0.6,2.1s-0.3,1.2-0.4,1.7s-0.1,0.8-0.1,0.9c0,0.2,0,0.7-0.1,1.2c-0.1,0.6-0.1,1.1,0,1.6c0.1,0.5,0.3,0.8,0.7,1
			s1-0.1,2-0.7c0.1-0.2,0.3-0.4,0.7-0.7c0.4-0.3,0.8-0.7,1.3-1.1c0.3-0.3,0.5-0.6,0.5-0.9c0.1-0.3,0.2-0.5,0.3-0.5
			c0-0.3,0.1-0.6,0.4-0.8s0.4-0.5,0.4-0.7c0.1-0.2,0.3-0.7,0.6-1.4s0.7-1.5,1.1-2.5c0.3-0.7,0.6-1.4,0.9-2.2s0.5-1.6,0.8-2.3
			c0.2-0.8,0.4-1.5,0.5-2.1c0.1-0.6,0.2-1.1,0.2-1.5s0.1-0.7,0.3-0.9s0.4-0.4,0.7-0.5s0.5-0.2,0.8-0.2c0.3,0,0.5,0,0.8,0h1.2
			c0.4,0,0.8,0.2,1,0.6s0.4,0.9,0.4,1.5c0,0.1,0,0.4-0.1,1s-0.2,1.2-0.3,1.9c-0.1,0.7-0.3,1.5-0.5,2.2c-0.2,0.8-0.4,1.4-0.5,1.9
			c-0.8,1.6-1.5,3.2-2.2,4.8c-0.7,1.6-1.1,3.2-1.1,4.7c0,0.2,0.1,0.4,0.2,0.6c0.1,0.1,0.1,0.2,0.2,0.3c0.5,0,1-0.1,1.4-0.4
			c0.5-0.3,0.9-0.6,1.3-0.9s0.7-0.6,1-0.9c0.3-0.3,0.5-0.4,0.6-0.4s0.2,0,0.3,0.2s0.2,0.2,0.3,0.3c0.1,0.1,0.3,0.3,0.4,0.4
			c0,0.1-0.2,0.5-0.5,1c-0.3,0.6-0.7,1.2-1.2,1.8c-0.5,0.6-0.9,1.2-1.3,1.8c-0.4,0.5-0.7,0.9-0.8,1c-0.4,0.2-0.7,0.5-1,0.7
			c-0.3,0.2-0.5,0.4-0.7,0.6s-0.4,0.4-0.7,0.7c-0.2,0.3-0.5,0.6-0.8,1c-0.5,0.5-1,0.8-1.5,1c-0.5,0.2-1,0.3-1.6,0.3
			c-0.2,0-0.5-0.1-0.7-0.2s-0.4-0.4-0.6-0.6s-0.3-0.5-0.4-0.8c-0.1-0.3-0.2-0.5-0.2-0.7v-1.5c0.1-0.4,0.3-0.9,0.4-1.3
			c0.1-0.4,0.2-0.7,0.3-1.1c0.1-0.4,0.2-0.7,0.2-1c0-0.2,0-0.4-0.1-0.7c0-0.2-0.2-0.3-0.5-0.3c-0.2,0-0.5,0.1-0.8,0.4
			c-0.3,0.3-0.6,0.6-0.9,0.9c-0.3,0.3-0.6,0.7-0.8,1c-0.2,0.3-0.5,0.5-0.6,0.7c-0.2,0.3-0.6,0.7-1.2,1.3s-1.2,1.2-1.8,1.8
			s-1.3,1.1-1.9,1.6c-0.6,0.5-1,0.7-1.3,0.7c-0.2,0-0.4-0.1-0.7-0.3c-0.2-0.2-0.4-0.4-0.6-0.7c-0.2-0.3-0.3-0.5-0.4-0.8
			s-0.2-0.5-0.2-0.6v-1.5c0-0.3,0-0.6,0-0.9c0-0.2,0.1-0.5,0.1-0.8c0-0.2,0-0.5,0-0.7c0-0.2,0-0.5,0.1-0.9c0.1-0.4,0.1-0.8,0.1-1.3
			c0-0.5,0.1-1,0.2-1.5c0.1-0.5,0.2-0.9,0.3-1.1l0.4-2c0.1-0.2,0.3-0.7,0.6-1.3c0.3-0.6,0.5-1.4,0.5-2.5c0-0.5,0-0.9,0-1
			c0-0.2-0.2-0.3-0.7-0.3c-0.2,0-0.4,0-0.7,0.1c-0.2,0.1-0.5,0.2-1,0.3c-0.3,0.2-0.6,0.3-0.9,0.4c-0.3,0.1-0.5,0.2-0.7,0.2
			c-0.2,0-0.5-0.1-0.7-0.4c-0.2-0.3-0.4-0.6-0.4-1s0.1-0.8,0.3-1c0.2-0.2,0.5-0.4,0.8-0.6c0.3-0.2,0.6-0.3,0.9-0.5
			c0.3-0.2,0.5-0.4,0.6-0.6c0.5-0.4,1-0.9,1.7-1.5c0.7-0.7,1.3-1.3,2-2c0.7-0.6,1.3-1.2,2-1.7c0.6-0.5,1.2-0.7,1.7-0.7L591.9,24.9
			L591.9,24.9z"/>
		<path class="st0" d="M625.9,60.8c0.2,0.2,0.4,0.5,0.7,0.9c0.2,0.4,0.5,0.7,0.7,1c0.3,0.4,0.5,0.9,0.6,1.4s0.1,1,0,1.5
			c0,0.1,0,0.3-0.1,0.7c0,0.4-0.1,0.8-0.2,1.3c-0.1,0.4-0.2,0.9-0.3,1.3c-0.1,0.4-0.3,0.6-0.4,0.7c-0.5,0.5-0.9,1-1.2,1.5
			s-0.8,1-1.5,1.5c-0.2,0.1-0.6,0.2-1,0.5c-0.4,0.2-0.7,0.4-1,0.5c-1,0.2-2,0.4-3.1,0.6c-1.1,0.2-2,0.1-2.6-0.1
			c-0.8-0.3-1.4-0.4-1.9-0.5c-0.5,0-1-0.2-1.4-0.4c-0.8-0.7-1.3-1.3-1.6-2.1c-0.3-0.7-0.4-1.4-0.3-2.1c0.1-0.6,0.3-1.2,0.8-1.6
			c0.4-0.4,1-0.6,1.8-0.6c0.3,0,0.7,0.1,1,0.4c0.4,0.3,0.8,0.6,1.3,0.9c0.5,0.4,1.1,0.7,1.9,1.1s1.6,0.7,2.7,0.8
			c0.2-0.1,0.6-0.1,1,0.1c0.5,0.1,0.9,0,1.2-0.2c0.2-0.2,0.4-0.4,0.6-0.5c0.1-0.1,0.2-0.3,0.2-0.5c0-0.3,0-0.7,0-1.1
			c0-0.5-0.2-0.8-0.7-1.1l-0.9-1c-0.3-0.1-0.6-0.4-1-0.9s-0.7-1.1-0.9-1.8s-0.4-1.2-0.5-1.7s-0.1-1-0.1-1.5c0-0.5,0.1-1,0.3-1.7
			c0.1-0.6,0.3-1.3,0.5-2.1c0.1-0.2,0.2-0.3,0.3-0.5c0.1-0.1,0.1-0.2,0.2-0.4c0.1-0.1,0.2-0.3,0.3-0.5c0.1-0.2,0.2-0.5,0.4-0.8
			c0.4-0.7,0.8-1.4,1.3-2c0.5-0.7,0.8-1.2,1.1-1.6c0.2-0.5,0.3-0.8,0.2-1.1c-0.1-0.3-0.4-0.2-0.8,0.3c-0.5,0.5-1.1,0.9-1.8,1.4
			c-0.7,0.5-1.3,0.7-1.8,0.7s-0.8-0.2-0.8-0.7s-0.1-0.9-0.1-1.3v-1.5c0.1-0.4,0.3-0.9,0.4-1.3c0.1-0.4,0.2-0.7,0.3-1.1
			c0.1-0.4,0.2-0.7,0.2-1c0-0.2,0-0.4-0.1-0.7c0-0.2-0.2-0.3-0.5-0.3c-0.2,0-0.5,0.1-0.8,0.4c-0.3,0.3-0.6,0.6-0.9,0.9
			c-0.3,0.3-0.6,0.7-0.8,1c-0.2,0.3-0.5,0.5-0.6,0.7c-0.2,0.3-0.6,0.7-1.2,1.3s-1.2,1.2-1.8,1.8s-1.3,1.1-1.9,1.6
			c-0.6,0.5-1,0.7-1.3,0.7c-0.2,0-0.4-0.1-0.7-0.3c-0.2-0.2-0.4-0.4-0.6-0.7c-0.2-0.3-0.3-0.5-0.4-0.8s-0.2-0.5-0.2-0.6v-1.5
			c0-0.3,0-0.6,0-0.9c0-0.2,0.1-0.5,0.1-0.8c0-0.2,0-0.5,0-0.7c0-0.2,0-0.5,0.1-0.9c0.1-0.4,0.1-0.8,0.1-1.3c0-0.5,0.1-1,0.2-1.5
			c0.1-0.5,0.2-0.9,0.3-1.1l0.4-2c0.1-0.2,0.3-0.7,0.6-1.3c0.3-0.6,0.5-1.4,0.5-2.5c0-0.5,0-0.9,0-1c0-0.2-0.2-0.3-0.7-0.3
			c-0.2,0-0.4,0-0.7,0.1c-0.2,0.1-0.5,0.2-1,0.3c-0.3,0.2-0.6,0.3-0.9,0.4c-0.3,0.1-0.5,0.2-0.7,0.2c-0.2,0-0.5-0.1-0.7-0.4
			c-0.2-0.3-0.4-0.6-0.4-1s0.1-0.8,0.3-1c0.2-0.2,0.5-0.4,0.8-0.6c0.3-0.2,0.6-0.3,0.9-0.5c0.3-0.2,0.5-0.4,0.6-0.6
			c0.5-0.4,1-0.9,1.7-1.5c0.7-0.7,1.3-1.3,2-2c0.7-0.6,1.3-1.2,2-1.7c0.6-0.5,1.2-0.7,1.7-0.7h1c0.3,0,0.6,0.2,0.7,0.5
			s0.2,0.7,0.2,1c-0.7,2.3-1.2,4.3-1.7,6.2c-0.2,0.8-0.4,1.6-0.7,2.3s-0.4,1.5-0.6,2.1s-0.3,1.2-0.4,1.7s-0.1,0.8-0.1,0.9
			c0,0.2,0,0.7-0.1,1.2c-0.1,0.6-0.1,1.1,0,1.6c0.1,0.5,0.3,0.8,0.7,1s1-0.1,2-0.7c0.1-0.2,0.3-0.4,0.7-0.7c0.4-0.3,0.8-0.7,1.3-1.1
			c0.3-0.3,0.5-0.6,0.5-0.9c0.1-0.3,0.2-0.5,0.3-0.5c0-0.3,0.1-0.6,0.4-0.8s0.4-0.5,0.4-0.7c0.1-0.2,0.3-0.7,0.6-1.4
			s0.7-1.5,1.1-2.5c0.3-0.7,0.6-1.4,0.9-2.2s0.5-1.6,0.8-2.3c0.2-0.8,0.4-1.5,0.5-2.1c0.1-0.6,0.2-1.1,0.2-1.5s0.1-0.7,0.3-0.9
			s0.4-0.4,0.7-0.5s0.5-0.2,0.8-0.2c0.3,0,0.5,0,0.8,0h1.2c0.4,0,0.8,0.2,1,0.6s0.4,0.9,0.4,1.5c0,0.1,0,0.4-0.1,1s-0.2,1.2-0.3,1.9
			c-0.1,0.7-0.3,1.5-0.5,2.2c-0.2,0.8-0.4,1.4-0.5,1.9c-0.8,1.6-1.5,3.2-2.2,4.8c-0.7,1.6-1.1,3.2-1.1,4.7c0,0.2,0.1,0.4,0.2,0.6
			c0.1,0.1,0.1,0.2,0.2,0.3c0.5,0,1-0.1,1.4-0.4c0.5-0.3,0.9-0.6,1.3-0.9s0.7-0.6,1-0.9c0.3-0.3,0.5-0.4,0.6-0.4s0.2,0.1,0.3,0.2
			c0.1,0.1,0.1,0.3,0.2,0.4c0.1,0.2,0.1,0.4,0.2,0.6c0,0.2-0.1,0.5-0.2,1c-0.1,0.5-0.5,1-1,1.7c-0.2,0.6-0.4,1.2-0.7,1.8
			s-0.5,1.2-0.8,1.8c-0.3,0.6-0.5,1.1-0.8,1.5c-0.2,0.5-0.4,0.8-0.6,1c-0.1,0.1-0.2,0.4-0.3,0.7c-0.1,0.3-0.2,0.6-0.3,0.9
			c-0.1,0.3-0.2,0.7-0.3,1c-0.1,0.3-0.2,0.6-0.3,0.8c-0.7,1.6-0.8,2.7-0.3,3.3c0.2,0.6,0.4,1.2,0.6,1.8
			C625.3,60.1,625.6,60.6,625.9,60.8L625.9,60.8z"/>
		<path class="st0" d="M641.2,24.9c0.3,0,0.6,0.2,0.7,0.5s0.2,0.7,0.2,1c-0.7,2.3-1.2,4.3-1.7,6.2c-0.2,0.8-0.4,1.6-0.7,2.3
			s-0.4,1.5-0.6,2.1s-0.3,1.2-0.4,1.7s-0.1,0.8-0.1,0.9c0,0.2,0,0.7-0.1,1.2c-0.1,0.6-0.1,1.1,0,1.6c0.1,0.5,0.3,0.8,0.7,1
			s1-0.1,2-0.7c0.1-0.2,0.3-0.4,0.7-0.7c0.4-0.3,0.8-0.7,1.3-1.1c0.3-0.3,0.5-0.6,0.5-0.9c0.1-0.3,0.2-0.5,0.3-0.5
			c0-0.3,0.1-0.6,0.4-0.8s0.4-0.5,0.4-0.7c0.1-0.2,0.3-0.7,0.6-1.4s0.7-1.5,1.1-2.5c0.3-0.7,0.6-1.4,0.9-2.2s0.5-1.6,0.8-2.3
			c0.2-0.8,0.4-1.5,0.5-2.1c0.1-0.6,0.2-1.1,0.2-1.5s0.1-0.7,0.3-0.9s0.4-0.4,0.7-0.5s0.5-0.2,0.8-0.2c0.3,0,0.5,0,0.8,0h1.2
			c0.4,0,0.8,0.2,1,0.6s0.4,0.9,0.4,1.5c0,0.1,0,0.4-0.1,1s-0.2,1.2-0.3,1.9c-0.1,0.7-0.3,1.5-0.5,2.2c-0.2,0.8-0.4,1.4-0.5,1.9
			c-0.8,1.6-1.5,3.2-2.2,4.8c-0.7,1.6-1.1,3.2-1.1,4.7c0,0.2,0.1,0.4,0.2,0.6c0.1,0.1,0.1,0.2,0.2,0.3c0.5,0,1-0.1,1.4-0.4
			c0.5-0.3,0.9-0.6,1.3-0.9s0.7-0.6,1-0.9c0.3-0.3,0.5-0.4,0.6-0.4s0.2,0,0.3,0.2s0.2,0.2,0.3,0.3c0.1,0.1,0.3,0.3,0.4,0.4
			c0,0.1-0.2,0.5-0.5,1c-0.3,0.6-0.7,1.2-1.2,1.8c-0.5,0.6-0.9,1.2-1.3,1.8c-0.4,0.5-0.7,0.9-0.8,1c-0.4,0.2-0.7,0.5-1,0.7
			c-0.3,0.2-0.5,0.4-0.7,0.6s-0.4,0.4-0.7,0.7c-0.2,0.3-0.5,0.6-0.8,1c-0.5,0.5-1,0.8-1.5,1c-0.5,0.2-1,0.3-1.6,0.3
			c-0.2,0-0.5-0.1-0.7-0.2s-0.4-0.4-0.6-0.6s-0.3-0.5-0.4-0.8c-0.1-0.3-0.2-0.5-0.2-0.7v-1.5c0.1-0.4,0.3-0.9,0.4-1.3
			c0.1-0.4,0.2-0.7,0.3-1.1c0.1-0.4,0.2-0.7,0.2-1c0-0.2,0-0.4-0.1-0.7c0-0.2-0.2-0.3-0.5-0.3c-0.2,0-0.5,0.1-0.8,0.4
			c-0.3,0.3-0.6,0.6-0.9,0.9c-0.3,0.3-0.6,0.7-0.8,1c-0.2,0.3-0.5,0.5-0.6,0.7c-0.2,0.3-0.6,0.7-1.2,1.3s-1.2,1.2-1.8,1.8
			s-1.3,1.1-1.9,1.6c-0.6,0.5-1,0.7-1.3,0.7c-0.2,0-0.4-0.1-0.7-0.3c-0.2-0.2-0.4-0.4-0.6-0.7c-0.2-0.3-0.3-0.5-0.4-0.8
			s-0.2-0.5-0.2-0.6v-1.5c0-0.3,0-0.6,0-0.9c0-0.2,0.1-0.5,0.1-0.8c0-0.2,0-0.5,0-0.7c0-0.2,0-0.5,0.1-0.9c0.1-0.4,0.1-0.8,0.1-1.3
			c0-0.5,0.1-1,0.2-1.5c0.1-0.5,0.2-0.9,0.3-1.1l0.4-2c0.1-0.2,0.3-0.7,0.6-1.3c0.3-0.6,0.5-1.4,0.5-2.5c0-0.5,0-0.9,0-1
			c0-0.2-0.2-0.3-0.7-0.3c-0.2,0-0.4,0-0.7,0.1c-0.2,0.1-0.5,0.2-1,0.3c-0.3,0.2-0.6,0.3-0.9,0.4c-0.3,0.1-0.5,0.2-0.7,0.2
			c-0.2,0-0.5-0.1-0.7-0.4c-0.2-0.3-0.4-0.6-0.4-1s0.1-0.8,0.3-1c0.2-0.2,0.5-0.4,0.8-0.6c0.3-0.2,0.6-0.3,0.9-0.5
			c0.3-0.2,0.5-0.4,0.6-0.6c0.5-0.4,1-0.9,1.7-1.5c0.7-0.7,1.3-1.3,2-2c0.7-0.6,1.3-1.2,2-1.7c0.6-0.5,1.2-0.7,1.7-0.7L641.2,24.9
			L641.2,24.9z"/>
		<path class="st0" d="M680.7,24.9c0.3,0,0.6,0.2,0.7,0.5s0.2,0.7,0.2,1c-0.7,2.3-1.2,4.3-1.7,6.2c-0.2,0.8-0.4,1.6-0.7,2.3
			s-0.4,1.5-0.6,2.1s-0.3,1.2-0.4,1.7s-0.1,0.8-0.1,0.9c0,0.2,0,0.7-0.1,1.2c-0.1,0.6-0.1,1.1,0,1.6c0.1,0.5,0.3,0.8,0.7,1
			s1-0.1,2-0.7c0.1-0.2,0.3-0.4,0.7-0.7c0.4-0.3,0.8-0.7,1.3-1.1c0.3-0.3,0.5-0.6,0.5-0.9c0.1-0.3,0.2-0.5,0.3-0.5
			c0-0.3,0.1-0.6,0.4-0.8s0.4-0.5,0.4-0.7c0.1-0.2,0.3-0.7,0.6-1.4s0.7-1.5,1.1-2.5c0.3-0.7,0.6-1.4,0.9-2.2s0.5-1.6,0.8-2.3
			c0.2-0.8,0.4-1.5,0.5-2.1c0.1-0.6,0.2-1.1,0.2-1.5s0.1-0.7,0.3-0.9s0.4-0.4,0.7-0.5s0.5-0.2,0.8-0.2c0.3,0,0.5,0,0.8,0h1.2
			c0.4,0,0.8,0.2,1,0.6s0.4,0.9,0.4,1.5c0,0.1,0,0.4-0.1,1s-0.2,1.2-0.3,1.9c-0.1,0.7-0.3,1.5-0.5,2.2c-0.2,0.8-0.4,1.4-0.5,1.9
			c-0.8,1.6-1.5,3.2-2.2,4.8c-0.7,1.6-1.1,3.2-1.1,4.7c0,0.2,0.1,0.4,0.2,0.6c0.1,0.1,0.1,0.2,0.2,0.3c0.5,0,1-0.1,1.4-0.4
			c0.5-0.3,0.9-0.6,1.3-0.9s0.7-0.6,1-0.9c0.3-0.3,0.5-0.4,0.6-0.4s0.2,0,0.3,0.2s0.2,0.2,0.3,0.3c0.1,0.1,0.3,0.3,0.4,0.4
			c0,0.1-0.2,0.5-0.5,1c-0.3,0.6-0.7,1.2-1.2,1.8c-0.5,0.6-0.9,1.2-1.3,1.8c-0.4,0.5-0.7,0.9-0.8,1c-0.4,0.2-0.7,0.5-1,0.7
			c-0.3,0.2-0.5,0.4-0.7,0.6s-0.4,0.4-0.7,0.7c-0.2,0.3-0.5,0.6-0.8,1c-0.5,0.5-1,0.8-1.5,1c-0.5,0.2-1,0.3-1.6,0.3
			c-0.2,0-0.5-0.1-0.7-0.2s-0.4-0.4-0.6-0.6s-0.3-0.5-0.4-0.8c-0.1-0.3-0.2-0.5-0.2-0.7v-1.5c0.1-0.4,0.3-0.9,0.4-1.3
			c0.1-0.4,0.2-0.7,0.3-1.1c0.1-0.4,0.2-0.7,0.2-1c0-0.2,0-0.4-0.1-0.7c0-0.2-0.2-0.3-0.5-0.3c-0.2,0-0.5,0.1-0.8,0.4
			c-0.3,0.3-0.6,0.6-0.9,0.9c-0.3,0.3-0.6,0.7-0.8,1c-0.2,0.3-0.5,0.5-0.6,0.7c-0.2,0.3-0.6,0.7-1.2,1.3s-1.2,1.2-1.8,1.8
			s-1.3,1.1-1.9,1.6c-0.6,0.5-1,0.7-1.3,0.7c-0.2,0-0.4-0.1-0.7-0.3c-0.2-0.2-0.4-0.4-0.6-0.7c-0.2-0.3-0.3-0.5-0.4-0.8
			s-0.2-0.5-0.2-0.6v-1.5c0-0.3,0-0.6,0-0.9c0-0.2,0.1-0.5,0.1-0.8c0-0.2,0-0.5,0-0.7c0-0.2,0-0.5,0.1-0.9c0.1-0.4,0.1-0.8,0.1-1.3
			c0-0.5,0.1-1,0.2-1.5c0.1-0.5,0.2-0.9,0.3-1.1l0.4-2c0.1-0.2,0.3-0.7,0.6-1.3c0.3-0.6,0.5-1.4,0.5-2.5c0-0.5,0-0.9,0-1
			c0-0.2-0.2-0.3-0.7-0.3c-0.2,0-0.4,0-0.7,0.1c-0.2,0.1-0.5,0.2-1,0.3c-0.3,0.2-0.6,0.3-0.9,0.4c-0.3,0.1-0.5,0.2-0.7,0.2
			c-0.2,0-0.5-0.1-0.7-0.4c-0.2-0.3-0.4-0.6-0.4-1s0.1-0.8,0.3-1c0.2-0.2,0.5-0.4,0.8-0.6c0.3-0.2,0.6-0.3,0.9-0.5
			c0.3-0.2,0.5-0.4,0.6-0.6c0.5-0.4,1-0.9,1.7-1.5c0.7-0.7,1.3-1.3,2-2c0.7-0.6,1.3-1.2,2-1.7c0.6-0.5,1.2-0.7,1.7-0.7L680.7,24.9
			L680.7,24.9z"/>
		<path class="st0" d="M720,24.6c0.5,0,1.1,0,1.9,0c0.7,0,1.4,0.2,1.9,0.4c0.5,0,0.9,0.2,1,0.6s0.4,0.9,0.6,1.5
			c0.1,0.1,0.3,0.3,0.5,0.6s0.4,0.5,0.5,0.8s0.3,0.5,0.4,0.8s0.2,0.5,0.2,0.8l-0.4,4.8c0,1-0.2,2.1-0.7,3.3
			c-0.4,1.2-1.1,2.3-1.9,3.3c-0.3,0.3-0.5,0.6-0.6,1c-0.1,0.3-0.2,0.7-0.4,1s-0.3,0.7-0.4,1.1s-0.4,0.8-0.7,1.1
			c-0.2,0.2-0.5,0.6-0.7,0.9c-0.3,0.4-0.6,0.7-0.9,1.1c-0.3,0.4-0.6,0.7-1,1c-0.3,0.3-0.7,0.5-1,0.7c-0.5,0.3-1,0.5-1.3,0.8
			c-0.4,0.2-0.7,0.4-1,0.5s-0.6,0.2-0.9,0.3c-0.3,0-0.6,0.1-1,0.1c-0.5,0-1-0.1-1.5-0.4c-0.5-0.2-0.9-0.6-1.2-1
			c-0.3-0.4-0.6-0.9-0.8-1.4c-0.2-0.5-0.3-1-0.3-1.6v-3.6c0-0.2-0.1-0.4-0.2-0.6c-0.1-0.2-0.2-0.7-0.2-1.5c0-1,0.2-2.3,0.8-3.8
			c0.5-1.5,1.2-2.9,1.9-4.3c0.7-1.4,1.5-2.7,2.2-3.8c0.7-1.1,1.3-1.8,1.7-2c0.4-0.2,0.7-0.5,1-0.8s0.5-0.6,0.8-0.8
			c0.2-0.2,0.5-0.5,0.8-0.6S719.6,24.6,720,24.6L720,24.6z M720.3,30.8c-0.6,0-1.2,0.2-1.8,0.7s-1.1,1-1.7,1.7
			c-0.5,0.6-1,1.3-1.3,1.9c-0.4,0.6-0.7,1.1-0.8,1.4l-0.5,2c-0.1,0.5-0.3,1-0.3,1.5c-0.1,0.5-0.1,0.8-0.1,0.9v1
			c0.1,0.1,0.3,0.3,0.4,0.7c0.1,0.3,0.2,0.7,0.4,1c0.2,0.3,0.3,0.6,0.6,0.9c0.2,0.2,0.5,0.4,0.9,0.4c0.7-0.3,1.4-0.7,2-1
			c0.5-0.3,1-0.6,1.5-0.9s0.8-0.7,1-1c0.2-0.5,0.5-1.1,0.7-1.8c0.3-0.7,0.5-1.3,0.8-1.9c-0.1-0.3,0-0.6,0.2-0.9
			c0.2-0.3,0.3-0.6,0.3-0.8V35c0-0.2,0-0.5-0.1-1c-0.1-0.5-0.2-0.9-0.4-1.4c-0.2-0.5-0.4-0.9-0.7-1.3S720.7,30.8,720.3,30.8
			L720.3,30.8z"/>
		<path class="st0" d="M755.1,60.2c0.2,0.3,0.5,0.7,0.8,1.2s0.6,0.9,0.9,1.2c0.3,0.5,0.5,1,0.6,1.5c0.1,0.5,0.1,1,0,1.7
			c0,0,0,0.2-0.1,0.6c0,0.4-0.1,0.8-0.2,1.2c-0.1,0.4-0.2,0.9-0.3,1.3c-0.1,0.4-0.3,0.7-0.4,0.8c-0.4,0.4-0.8,0.9-1.2,1.4
			c-0.4,0.5-0.9,1-1.5,1.4c-0.2,0.2-0.5,0.4-0.9,0.6c-0.4,0.2-0.7,0.4-1,0.5c-1,0.2-2,0.4-3.1,0.5c-1.1,0.1-2,0.1-2.6-0.1
			c-0.8-0.3-1.4-0.5-1.9-0.5s-1-0.2-1.4-0.5c-1-0.8-1.6-1.6-1.9-2.4c-0.3-0.8-0.3-1.4-0.2-2c0.2-0.6,0.5-1.1,1-1.4
			c0.5-0.3,1-0.5,1.7-0.5c0.3,0,0.7,0.1,1,0.4c0.4,0.3,0.8,0.6,1.3,1c0.5,0.4,1.1,0.8,1.9,1.2s1.6,0.7,2.7,0.9
			c0.1-0.1,0.3-0.1,0.5-0.1s0.4,0,0.6,0.1c0.2,0,0.4,0,0.7,0c0.2,0,0.4-0.1,0.5-0.3c0.5-0.3,0.8-0.6,0.8-0.9c0-0.3,0-0.7,0-1.1
			c0-0.5-0.2-0.8-0.7-1.1l-0.9-0.9c-0.3-0.1-0.6-0.4-1-1.1s-0.7-1.3-0.9-1.9c-0.2-0.6-0.4-1.1-0.5-1.6s-0.1-1-0.1-1.4
			c0-0.5,0.2-1,0.4-1.6c0.2-0.6,0.5-1.3,0.8-2c0.1-0.2,0.2-0.4,0.4-0.7c0.2-0.3,0.4-0.6,0.7-1c0.2-0.3,0.5-0.7,0.7-1
			c0.2-0.3,0.4-0.6,0.5-0.9c0.1-0.5,0.3-0.9,0.6-1.2c0.2-0.3,0.4-0.7,0.5-1.1c0.1-0.2,0.1-0.4,0-0.5c-0.1-0.1-0.2-0.2-0.4-0.1
			c-0.1,0.1-0.3,0.3-0.5,0.5s-0.5,0.5-0.7,0.8c-0.3,0.2-0.6,0.5-0.9,0.7c-0.3,0.2-0.7,0.3-1,0.3c-0.5,0-0.9-0.2-1.1-0.5
			s-0.3-0.8-0.3-1.3s0-1,0.1-1.5c0-0.5,0.1-0.9,0-1.2l0.5-1.8c0-0.1,0-0.3,0-0.6c0-0.3,0-0.5,0-0.7s-0.2-0.3-0.4-0.3
			c-0.2,0-0.6,0.1-1,0.4c-0.2,0.1-0.5,0.4-0.9,0.9s-0.8,0.9-1.3,1.5c-0.5,0.6-1,1.2-1.5,1.8c-0.5,0.6-1,1.2-1.4,1.7
			s-0.9,0.9-1.2,1.3c-0.4,0.3-0.6,0.5-0.8,0.5c-0.5,0-1-0.1-1.3-0.3s-0.7-0.4-0.9-0.7c-0.2-0.3-0.4-0.6-0.5-0.9s-0.2-0.6-0.2-0.9
			l0.2-2.3c0-0.1,0-0.3,0-0.6c0-0.3,0-0.5,0-0.8c0-0.2-0.2-0.4-0.3-0.5c-0.2-0.1-0.4,0-0.8,0.3c-0.2,0.2-0.6,0.6-1.1,1.2
			s-1.1,1.3-1.8,2c-0.7,0.7-1.3,1.3-2,1.9c-0.7,0.6-1.3,0.8-1.8,0.8c-0.7,0-1.3-0.2-1.7-0.7c-0.4-0.4-0.6-0.9-0.7-1.5
			c0-0.2,0-0.5,0-0.8c0-0.3,0-0.6,0.1-1c0-0.3,0.1-0.6,0.1-0.9c0-0.3,0-0.5,0-0.7v-1c0-0.5,0.2-1.3,0.5-2.3c0.3-1,0.7-2,1.1-3.2
			c0.4-1.1,0.8-2.2,1.1-3.3c0.3-1,0.5-1.9,0.5-2.5c0-0.2,0-0.4,0.1-0.7c0-0.3,0.1-0.5,0-0.7c0-0.2-0.1-0.3-0.3-0.3
			c-0.2,0-0.5,0.1-1,0.3c-0.2,0.1-0.5,0.3-0.8,0.6c-0.4,0.3-0.8,0.5-1.1,0.7c-0.4,0.2-0.7,0.2-1,0.1c-0.3-0.1-0.4-0.5-0.3-1.2
			c0.6-0.7,1.2-1.4,1.7-2c0.5-0.5,0.9-1.1,1.4-1.6s0.8-0.9,1.1-1.2c0.5-0.4,1-0.7,1.3-1.1s0.7-0.7,1-0.9c0.3-0.2,0.6-0.5,1-0.6
			c0.3-0.2,0.8-0.2,1.3-0.2c0.4,0,0.7,0.1,0.9,0.4s0.5,0.5,0.7,0.8c0.2,0.3,0.3,0.6,0.4,0.9c0.1,0.3,0.1,0.5,0.1,0.7
			c0,1-0.1,1.9-0.3,2.8c-0.2,0.9-0.5,1.7-0.8,2.5s-0.7,1.7-1,2.5c-0.3,0.8-0.6,1.7-0.8,2.6c-0.1,0.2-0.1,0.4-0.2,0.6
			c0,0.2-0.1,0.4-0.2,0.6c-0.1,0.2-0.1,0.5-0.2,0.8c-0.4,1.4-0.4,2.5-0.1,3.2c0.3,0.7,0.8,0.9,1.5,0.6c0.7-0.2,1.3-0.9,1.9-1.8
			c0.6-1,1.1-2.1,1.7-3.5c0.5-1.3,1-2.7,1.4-4.2c0.4-1.5,0.8-2.8,1.3-4.1c0.4-1.2,0.8-2.3,1.3-3.1s0.9-1.2,1.3-1.2h1
			c0.4,0,0.8,0,1.2,0c0.4,0,0.7,0.1,1,0.1s0.4,0.1,0.4,0.2c0,0.9-0.1,1.8-0.3,2.7c-0.2,0.9-0.5,1.8-0.9,2.6c-0.3,0.8-0.7,1.6-1,2.3
			s-0.6,1.3-0.7,1.8l-0.3,1.2c-0.1,0.3-0.2,0.7-0.3,1.2c-0.1,0.5-0.3,1.1-0.5,1.7c-0.2,0.4-0.3,0.9-0.5,1.3
			c-0.2,0.4-0.2,0.8-0.2,1.1c0,0.8,0.1,1.3,0.3,1.6s0.6,0.3,1.2-0.1c0.5-0.4,1-0.8,1.5-1.5s0.9-1.2,1.3-1.8c0.4-0.6,0.7-1.2,1-1.7
			c0.3-0.5,0.5-0.9,0.6-1.1c0.5-0.8,0.9-1.5,1.2-2.2c0.2-0.7,0.5-1.4,0.8-2c0.2-0.5,0.5-1,0.6-1.4s0.3-0.9,0.5-1.3
			c0.1-0.8,0.3-1.5,0.5-2c0.2-0.5,0.3-1,0.3-1.5c0-0.4,0.1-0.7,0.3-0.9c0.2-0.2,0.4-0.3,0.7-0.4c0.2-0.1,0.5-0.1,0.8-0.1
			s0.6,0,0.8,0h1.2c0.5,0,0.8,0.2,1.1,0.7c0.3,0.5,0.4,0.9,0.4,1.4c0,0.1-0.1,0.4-0.2,0.9c-0.1,0.5-0.3,1-0.5,1.6s-0.4,1.3-0.7,2
			c-0.2,0.7-0.4,1.3-0.6,1.8c-0.1,0.1-0.1,0.3-0.2,0.4c0,0.1-0.1,0.2-0.2,0.3c-0.1,0.3-0.3,0.7-0.5,1.1s-0.3,0.9-0.5,1.5
			c-0.2,0.5-0.3,1.1-0.4,1.6c-0.1,0.6-0.1,1.1-0.1,1.7c0,0.2-0.1,0.6-0.2,1c-0.2,0.5-0.2,0.8-0.2,1V44c0,0.3,0.2,0.5,0.8,0.5
			c0.2,0,0.5-0.1,0.8-0.4c0.3-0.3,0.6-0.6,1-1c0.3-0.4,0.7-0.7,1-1.1s0.7-0.7,1.1-0.8c0.3-0.1,0.5,0,0.5,0.3c0,0.1,0,0.3,0,0.5
			c-0.1,0.5-0.3,1.2-0.6,1.9c-0.3,0.8-0.6,1.5-1,2.3c-0.3,0.8-0.7,1.6-1,2.3c-0.3,0.7-0.6,1.3-0.8,1.8c-0.1,0.4-0.3,0.8-0.6,1.3
			c-0.2,0.5-0.4,0.9-0.6,1.2c-0.2,0.6-0.4,1.3-0.6,2.1s-0.3,1.5-0.3,1.9c0,0.5,0.1,1.2,0.2,1.9S754.9,60,755.1,60.2L755.1,60.2z"/>
		<path class="st0" d="M771.6,24.6c0.8,0,1.4,0.1,1.9,0.4c0.5,0.3,0.9,0.6,1.3,1.1s0.6,1,0.7,1.6s0.2,1.3,0.2,1.9
			c0,1-0.4,1.8-1.1,2.4c-0.7,0.6-1.5,1.1-2.2,1.5c-0.7,0.5-1.4,0.9-2.2,1.2c-0.8,0.4-1.5,0.8-2.2,1.2s-1.2,0.9-1.7,1.5
			c-0.5,0.6-0.7,1.3-0.7,2.2V42c-0.1,0.6,0,1.2,0.4,1.8s0.7,0.9,1.2,0.9c0,0,0.2,0,0.4-0.2s0.5-0.3,0.8-0.5c0.3-0.2,0.6-0.4,0.9-0.6
			c0.3-0.2,0.5-0.4,0.7-0.5c0.5-0.2,1-0.5,1.3-0.6s0.5-0.2,0.7-0.1c0.2,0,0.5,0,0.7,0.1c0.2,0.1,0.3,0.3,0.3,0.8
			c-0.1,0.8-0.4,1.6-1,2.3c-0.6,0.7-1.3,1.4-2,2s-1.4,1.2-2.1,1.7c-0.7,0.5-1.1,0.8-1.3,1c-0.6,0.5-1.2,0.8-1.7,0.9
			c-0.5,0-1,0-1.6,0c-0.3,0-0.7-0.2-1-0.4s-0.7-0.5-0.9-0.9c-0.3-0.3-0.5-0.7-0.6-1s-0.2-0.7-0.2-0.9v-0.9c0-0.2-0.1-0.5-0.2-0.8
			c-0.1-0.1-0.1-0.3-0.2-0.4l0.2-1.1v-0.9c0-0.1,0-0.5,0.1-1.2s0.2-1.3,0.3-2c0.1-0.7,0.2-1.4,0.3-2.1c0.1-0.7,0.2-1.1,0.2-1.3
			c0.1-0.1,0.2-0.2,0.2-0.3s0-0.2,0-0.3c0-0.1,0-0.2,0-0.4s0.1-0.3,0.2-0.6c0-0.4,0.1-0.9,0.3-1.3c0.1-0.2,0.2-0.5,0.3-0.8l0.8-1.8
			c0.1-0.8,0.5-1.6,1.1-2.5c0.7-0.8,1.5-1.6,2.4-2.3c0.9-0.7,1.9-1.2,2.8-1.6S771,24.6,771.6,24.6L771.6,24.6z M769.2,28.7
			c-0.2,0-0.4,0.1-0.5,0.4s-0.4,0.6-0.5,0.9c-0.2,0.4-0.4,0.8-0.5,1.2c0,0.2-0.1,0.4-0.2,0.6c-0.1,0.2-0.1,0.4-0.2,0.6
			c0,0.2,0,0.4,0,0.5s0.2,0.2,0.4,0.2c0.2,0,0.5,0,0.8-0.1s0.7-0.3,1.1-0.5s0.7-0.5,1-0.8c0.3-0.3,0.5-0.6,0.5-1v-0.9
			c0-0.2,0-0.3-0.2-0.5c-0.1-0.1-0.2-0.2-0.4-0.3c-0.1-0.1-0.3-0.2-0.5-0.3L769.2,28.7L769.2,28.7z"/>
	</g>
</g>
<g>
	<path class="st0" d="M662.6,17c-1-1.2-2-2.1-3.2-3.2c0,1.6,0,4.8-1.3,4.8c-0.3-0.1-0.5-0.3-0.5-0.6c0-0.5,0-1,0.2-1.5
		c0.1-0.5,0.1-1,0.2-1.5c-0.6,0.6-1.9,2.1-2.5,2.1c-0.3,0-0.9-0.4-0.9-0.7c0-0.4,2.5-2.4,3-3h-0.7c-0.9,0-4.6-0.1-4.6-1
		c0-0.5,0-0.9,0.9-0.9c1.3,0.4,2.5,0.5,3.9,0.5c-0.9-0.7-3-2.6-3-3.4c0-0.3,0.2-0.7,0.6-0.7c0.5,0,2.6,2.6,3.2,3c0-0.2,0-0.4,0-0.6
		c0-0.2,0-0.4,0-0.6c0-1.2,0.1-4,1-4c0.5,0,0.9,0.3,0.9,0.7v0.2c-0.4,1.5-0.5,2.9-0.5,4.5c1-1.1,2.8-3.8,4-3.8
		c0.4,0,0.8,0.5,0.8,0.9c0,0.2-0.1,0.3-0.2,0.4h-0.1c-1.2,1-2.2,2-3.2,3.2c1.6,0,4.6,0,4.6,1.3c-0.1,0.3-0.4,0.5-0.7,0.5h-0.1
		c-1.1-0.3-2.2-0.3-3.3-0.3c0.9,0.7,3,2.4,3,3.2c0,0.5-0.2,0.7-0.7,0.7C662.9,17.3,662.7,17.2,662.6,17L662.6,17z"/>
</g>
</svg>
