<?xml version="1.0" encoding="UTF-8"?><svg id="Layer_2" xmlns="http://www.w3.org/2000/svg" viewBox="0 0 801.54 159.54">
    <defs>
        <style>
            .cls-1 {
                fill: #3347ff;
            }

        </style>
    </defs>
    <g id="Layer_1-2">
        <g>
            <path class="cls-1" d="M22.83,17.07c1.99,1.91,4.34,2.87,7.05,2.87-2.71,0-5.06,1-7.05,2.99-1.99,1.99-2.99,4.34-2.99,7.05s.99,5.06,2.99,7.05c1.99,2,4.34,2.99,7.05,2.99-2.71,0-5.06,.96-7.05,2.87-1.99,1.91-2.99,4.22-2.99,6.93s.99,5.06,2.99,7.05c1.99,1.99,4.34,2.99,7.05,2.99-2.71,0-5.06,1-7.05,2.99-1.99,2-2.99,4.34-2.99,7.05s.99,5.02,2.99,6.93c1.99,1.91,4.34,2.87,7.05,2.87-2.71,0-5.06,1-7.05,2.99-1.99,1.99-2.99,4.34-2.99,7.05s.99,5.06,2.99,7.05c1.99,1.99,4.34,2.99,7.05,2.99-2.71,0-5.06,.96-7.05,2.87-1.99,1.91-2.99,4.22-2.99,6.93s-.96,5.06-2.87,7.05c-1.91,2-4.22,2.99-6.93,2.99s-5.06-.99-7.05-2.99c-1.99-1.99-2.99-4.34-2.99-7.05s.99-5.02,2.99-6.93c1.99-1.91,4.34-2.87,7.05-2.87-2.71,0-5.06-.99-7.05-2.99-1.99-1.99-2.99-4.34-2.99-7.05s.99-5.06,2.99-7.05c1.99-1.99,4.34-2.99,7.05-2.99-2.71,0-5.06-.96-7.05-2.87-1.99-1.91-2.99-4.22-2.99-6.93s.99-5.06,2.99-7.05c1.99-1.99,4.34-2.99,7.05-2.99-2.71,0-5.06-.99-7.05-2.99-1.99-1.99-2.99-4.34-2.99-7.05s.99-5.02,2.99-6.93c1.99-1.91,4.34-2.87,7.05-2.87-2.71,0-5.06-.99-7.05-2.99-1.99-1.99-2.99-4.34-2.99-7.05s.99-5.06,2.99-7.05c1.99-1.99,4.34-2.99,7.05-2.99-2.71,0-5.06-.96-7.05-2.87C.99,15.16,0,12.85,0,10.14S.99,5.08,2.99,3.09C4.98,1.09,7.33,.1,10.04,.1s5.02,1,6.93,2.99c1.91,1.99,2.87,4.34,2.87,7.05s.99,5.02,2.99,6.93ZM62.75,3.09c1.99-1.99,4.34-2.99,7.05-2.99s5.02,1,6.93,2.99c1.91,1.99,2.87,4.34,2.87,7.05s.99,5.02,2.99,6.93c1.99,1.91,4.34,2.87,7.05,2.87s5.06,1,7.05,2.99c1.99,1.99,2.99,4.34,2.99,7.05s-1,5.06-2.99,7.05c-1.99,2-4.34,2.99-7.05,2.99,2.71,0,5.06,.96,7.05,2.87,1.99,1.91,2.99,4.22,2.99,6.93s-1,5.06-2.99,7.05c-1.99,1.99-4.34,2.99-7.05,2.99,2.71,0,5.06,1,7.05,2.99,1.99,2,2.99,4.34,2.99,7.05s-1,5.02-2.99,6.93c-1.99,1.91-4.34,2.87-7.05,2.87,2.71,0,5.06,1,7.05,2.99,1.99,1.99,2.99,4.34,2.99,7.05s-1,5.06-2.99,7.05c-1.99,1.99-4.34,2.99-7.05,2.99,2.71,0,5.06,.96,7.05,2.87,1.99,1.91,2.99,4.22,2.99,6.93s-1,5.06-2.99,7.05c-1.99,2-4.34,2.99-7.05,2.99s-5.06-.99-7.05-2.99c-1.99-1.99-2.99-4.34-2.99-7.05s-.96-5.02-2.87-6.93c-1.91-1.91-4.22-2.87-6.93-2.87,2.71,0,5.02-.99,6.93-2.99,1.91-1.99,2.87-4.34,2.87-7.05s-.96-5.06-2.87-7.05c-1.91-1.99-4.22-2.99-6.93-2.99,2.71,0,5.02-.96,6.93-2.87,1.91-1.91,2.87-4.22,2.87-6.93s-.96-5.06-2.87-7.05c-1.91-1.99-4.22-2.99-6.93-2.99,2.71,0,5.02-.99,6.93-2.99,1.91-1.99,2.87-4.34,2.87-7.05s-.96-5.02-2.87-6.93c-1.91-1.91-4.22-2.87-6.93-2.87,2.71,0,5.02-.99,6.93-2.99,1.91-1.99,2.87-4.34,2.87-7.05s-.96-5.06-2.87-7.05c-1.91-1.99-4.22-2.99-6.93-2.99s-5.06,1-7.05,2.99c-1.99,1.99-2.99,4.34-2.99,7.05,0-2.71-1-5.06-2.99-7.05-1.99-1.99-4.34-2.99-7.05-2.99s-5.02,1-6.93,2.99c-1.91,1.99-2.87,4.34-2.87,7.05,0-2.71-1-5.06-2.99-7.05-1.99-1.99-4.34-2.99-7.05-2.99,2.71,0,5.06-.96,7.05-2.87,1.99-1.91,2.99-4.22,2.99-6.93s.96-5.06,2.87-7.05c1.91-1.99,4.22-2.99,6.93-2.99s5.06,1,7.05,2.99c1.99,1.99,2.99,4.34,2.99,7.05,0-2.71,.99-5.06,2.99-7.05Z" />
            <path class="cls-1" d="M102.67,22.93c1.99-1.99,4.34-2.99,7.05-2.99s5.06-.96,7.05-2.87c1.99-1.91,2.99-4.22,2.99-6.93s.96-5.06,2.87-7.05c1.91-1.99,4.22-2.99,6.93-2.99,2.87,0,5.26,1,7.17,2.99,1.91,1.99,2.87,4.34,2.87,7.05,0-2.71,.99-5.06,2.99-7.05,1.99-1.99,4.34-2.99,7.05-2.99s5.06,1,7.05,2.99c1.99,1.99,2.99,4.34,2.99,7.05,0-2.71,.96-5.06,2.87-7.05,1.91-1.99,4.22-2.99,6.93-2.99,2.87,0,5.26,1,7.17,2.99,1.91,1.99,2.87,4.34,2.87,7.05s.99,5.02,2.99,6.93c1.99,1.91,4.34,2.87,7.05,2.87s5.06,1,7.05,2.99c1.99,1.99,2.99,4.34,2.99,7.05s-1,5.06-2.99,7.05c-1.99,2-4.34,2.99-7.05,2.99,2.71,0,5.06,1,7.05,2.99,1.99,1.99,2.99,4.34,2.99,7.05,0,2.55-1,4.78-2.99,6.69-1.99,1.91-4.34,2.87-7.05,2.87,2.71,0,5.06,1,7.05,2.99,1.99,1.99,2.99,4.34,2.99,7.05s-1,5.06-2.99,7.05c-1.99,1.99-4.34,2.99-7.05,2.99,2.71,0,5.06,1,7.05,2.99,1.99,1.99,2.99,4.34,2.99,7.05s-1,5.06-2.99,7.05c-1.99,1.99-4.34,2.99-7.05,2.99s-5.06,.96-7.05,2.87c-1.99,1.91-2.99,4.22-2.99,6.93s-.96,5.06-2.87,7.05c-1.91,2-4.3,2.99-7.17,2.99-2.71,0-5.02-.99-6.93-2.99-1.91-1.99-2.87-4.34-2.87-7.05,0,2.71-1,5.06-2.99,7.05-1.99,2-4.34,2.99-7.05,2.99s-5.06-.99-7.05-2.99c-1.99-1.99-2.99-4.34-2.99-7.05s-.96-5.02-2.87-6.93c-1.91-1.91-4.3-2.87-7.17-2.87,2.87,0,5.26-.99,7.17-2.99,1.91-1.99,2.87-4.34,2.87-7.05,0,2.71,.99,5.06,2.99,7.05,1.99,1.99,4.34,2.99,7.05,2.99s5.06-.99,7.05-2.99c1.99-1.99,2.99-4.34,2.99-7.05,0,2.71,.96,5.06,2.87,7.05,1.91,1.99,4.22,2.99,6.93,2.99,2.87,0,5.26-.99,7.17-2.99,1.91-1.99,2.87-4.34,2.87-7.05s-.96-5.06-2.87-7.05c-1.91-1.99-4.3-2.99-7.17-2.99,2.87,0,5.26-.99,7.17-2.99,1.91-1.99,2.87-4.34,2.87-7.05s-.96-5.06-2.87-7.05c-1.91-1.99-4.3-2.99-7.17-2.99,2.87,0,5.26-.92,7.17-2.75,1.91-1.83,2.87-4.1,2.87-6.81s-.96-5.06-2.87-7.05c-1.91-1.99-4.3-2.99-7.17-2.99,2.87,0,5.26-.99,7.17-2.99,1.91-1.99,2.87-4.34,2.87-7.05s-.96-5.06-2.87-7.05c-1.91-1.99-4.3-2.99-7.17-2.99-2.71,0-5.02,1-6.93,2.99-1.91,1.99-2.87,4.34-2.87,7.05,0-2.71-1-5.06-2.99-7.05-1.99-1.99-4.34-2.99-7.05-2.99s-5.06,1-7.05,2.99c-1.99,1.99-2.99,4.34-2.99,7.05,0-2.71-.96-5.06-2.87-7.05-1.91-1.99-4.3-2.99-7.17-2.99-2.71,0-5.02,1-6.93,2.99-1.91,1.99-2.87,4.34-2.87,7.05s.96,5.06,2.87,7.05c1.91,2,4.22,2.99,6.93,2.99-2.71,0-5.02,1-6.93,2.99-1.91,1.99-2.87,4.34-2.87,7.05s.96,4.98,2.87,6.81c1.91,1.83,4.22,2.75,6.93,2.75-2.71,0-5.02,1-6.93,2.99-1.91,1.99-2.87,4.34-2.87,7.05s.96,5.06,2.87,7.05c1.91,1.99,4.22,2.99,6.93,2.99-2.71,0-5.02,1-6.93,2.99-1.91,1.99-2.87,4.34-2.87,7.05s.96,5.06,2.87,7.05c1.91,1.99,4.22,2.99,6.93,2.99-2.71,0-5.02,.96-6.93,2.87s-2.87,4.22-2.87,6.93,.96,5.06,2.87,7.05c1.91,2,4.22,2.99,6.93,2.99-2.71,0-5.02,.99-6.93,2.99-1.91,1.99-2.87,4.34-2.87,7.05s.96,5.06,2.87,7.05c1.91,1.99,4.22,2.99,6.93,2.99-2.71,0-5.02,.96-6.93,2.87-1.91,1.91-2.87,4.22-2.87,6.93s-1,5.06-2.99,7.05c-1.99,1.99-4.34,2.99-7.05,2.99s-5.06-1-7.05-2.99c-1.99-1.99-2.99-4.34-2.99-7.05s.99-5.02,2.99-6.93c1.99-1.91,4.34-2.87,7.05-2.87-2.71,0-5.06-1-7.05-2.99-1.99-1.99-2.99-4.34-2.99-7.05s.99-5.06,2.99-7.05c1.99-2,4.34-2.99,7.05-2.99-2.71,0-5.06-.99-7.05-2.99-1.99-1.99-2.99-4.34-2.99-7.05s.99-5.02,2.99-6.93c1.99-1.91,4.34-2.87,7.05-2.87-2.71-.16-5.06-1.2-7.05-3.11-1.99-1.91-2.99-4.22-2.99-6.93s.99-5.06,2.99-7.05c1.99-1.99,4.34-2.99,7.05-2.99-2.71,0-5.06-.99-7.05-2.99-1.99-1.99-2.99-4.34-2.99-7.05s1.03-5.06,3.11-7.05c2.07-1.99,4.38-2.99,6.93-2.99-2.71,0-5.06-.96-7.05-2.87-1.99-1.91-2.99-4.14-2.99-6.69,0-2.71,.99-5.06,2.99-7.05,1.99-1.99,4.34-2.99,7.05-2.99-2.71,0-5.06-.99-7.05-2.99-1.99-1.99-2.99-4.34-2.99-7.05s.99-5.06,2.99-7.05Z" />
            <path class="cls-1" d="M236.54,116.63c-1.99,2-4.34,2.99-7.05,2.99s-5.02-.99-6.93-2.99c-1.91-1.99-2.87-4.34-2.87-7.05s-1-5.02-2.99-6.93c-1.99-1.91-4.34-2.87-7.05-2.87s-5.06-.99-7.05-2.99c-1.99-1.99-2.99-4.34-2.99-7.05s.99-5.06,2.99-7.05c1.99-1.99,4.34-2.99,7.05-2.99-2.71,0-5.06-.96-7.05-2.87-1.99-1.91-2.99-4.22-2.99-6.93s.99-5.06,2.99-7.05c1.99-1.99,4.34-2.99,7.05-2.99-2.71,0-5.06-.99-7.05-2.99-1.99-1.99-2.99-4.34-2.99-7.05s.99-5.02,2.99-6.93c1.99-1.91,4.34-2.87,7.05-2.87-2.71,0-5.06-.99-7.05-2.99-1.99-1.99-2.99-4.34-2.99-7.05s.99-5.06,2.99-7.05c1.99-1.99,4.34-2.99,7.05-2.99s5.06-.96,7.05-2.87c1.99-1.91,2.99-4.22,2.99-6.93s.96-5.06,2.87-7.05c1.91-1.99,4.22-2.99,6.93-2.99s5.06,1,7.05,2.99c1.99,1.99,2.99,4.34,2.99,7.05,0-2.71,.99-5.06,2.99-7.05,1.99-1.99,4.34-2.99,7.05-2.99s5.02,1,6.93,2.99c1.91,1.99,2.87,4.34,2.87,7.05,0-2.71,.99-5.06,2.99-7.05,1.99-1.99,4.34-2.99,7.05-2.99s5.06,1,7.05,2.99c1.99,1.99,2.99,4.34,2.99,7.05s.96,5.02,2.87,6.93c1.91,1.91,4.22,2.87,6.93,2.87s5.06,1,7.05,2.99c1.99,1.99,2.99,4.34,2.99,7.05s-1,5.06-2.99,7.05c-1.99,2-4.34,2.99-7.05,2.99,2.71,0,5.06,.96,7.05,2.87,1.99,1.91,2.99,4.22,2.99,6.93s-1,5.06-2.99,7.05c-1.99,1.99-4.34,2.99-7.05,2.99,2.71,0,5.06,1,7.05,2.99,1.99,2,2.99,4.34,2.99,7.05s-1,5.02-2.99,6.93c-1.99,1.91-4.34,2.87-7.05,2.87,2.71,0,5.06,1,7.05,2.99,1.99,1.99,2.99,4.34,2.99,7.05s-1,5.06-2.99,7.05c-1.99,1.99-4.34,2.99-7.05,2.99s-5.02,.96-6.93,2.87-2.87,4.22-2.87,6.93-1,5.06-2.99,7.05c-1.99,2-4.34,2.99-7.05,2.99s-5.06-.99-7.05-2.99c-1.99-1.99-2.99-4.34-2.99-7.05,0,2.71-.96,5.06-2.87,7.05-1.91,2-4.22,2.99-6.93,2.99s-5.06-.99-7.05-2.99c-1.99-1.99-2.99-4.34-2.99-7.05,0,2.71-1,5.06-2.99,7.05Zm-13.98-19.84c1.91,1.99,4.22,2.99,6.93,2.99s5.06-.99,7.05-2.99c1.99-1.99,2.99-4.34,2.99-7.05,0,2.71,.99,5.06,2.99,7.05,1.99,1.99,4.34,2.99,7.05,2.99s5.02-.99,6.93-2.99c1.91-1.99,2.87-4.34,2.87-7.05,0,2.71,.99,5.06,2.99,7.05,1.99,1.99,4.34,2.99,7.05,2.99s5.06-.99,7.05-2.99,2.99-4.34,2.99-7.05-1-5.06-2.99-7.05c-1.99-1.99-4.34-2.99-7.05-2.99,2.71,0,5.06-.96,7.05-2.87,1.99-1.91,2.99-4.22,2.99-6.93s-1-5.06-2.99-7.05c-1.99-1.99-4.34-2.99-7.05-2.99,2.71,0,5.06-.99,7.05-2.99s2.99-4.34,2.99-7.05-1-5.02-2.99-6.93c-1.99-1.91-4.34-2.87-7.05-2.87,2.71,0,5.06-.99,7.05-2.99,1.99-1.99,2.99-4.34,2.99-7.05s-1-5.06-2.99-7.05c-1.99-1.99-4.34-2.99-7.05-2.99s-5.06,1-7.05,2.99c-1.99,1.99-2.99,4.34-2.99,7.05,0-2.71-.96-5.06-2.87-7.05-1.91-1.99-4.22-2.99-6.93-2.99s-5.06,1-7.05,2.99c-1.99,1.99-2.99,4.34-2.99,7.05,0-2.71-1-5.06-2.99-7.05-1.99-1.99-4.34-2.99-7.05-2.99s-5.02,1-6.93,2.99c-1.91,1.99-2.87,4.34-2.87,7.05s.96,5.06,2.87,7.05c1.91,2,4.22,2.99,6.93,2.99-2.71,0-5.02,.96-6.93,2.87-1.91,1.91-2.87,4.22-2.87,6.93s.96,5.06,2.87,7.05c1.91,1.99,4.22,2.99,6.93,2.99-2.71,0-5.02,1-6.93,2.99-1.91,2-2.87,4.34-2.87,7.05s.96,5.02,2.87,6.93c1.91,1.91,4.22,2.87,6.93,2.87-2.71,0-5.02,1-6.93,2.99-1.91,1.99-2.87,4.34-2.87,7.05s.96,5.06,2.87,7.05Z" />
            <path class="cls-1" d="M316.14,116.63c-1.99,2-4.34,2.99-7.05,2.99s-5.02-.99-6.93-2.99c-1.91-1.99-2.87-4.34-2.87-7.05s.96-5.02,2.87-6.93c1.91-1.91,4.22-2.87,6.93-2.87-2.71,0-5.02-.99-6.93-2.99-1.91-1.99-2.87-4.34-2.87-7.05s.96-5.06,2.87-7.05c1.91-1.99,4.22-2.99,6.93-2.99-2.71,0-5.02-.96-6.93-2.87-1.91-1.91-2.87-4.22-2.87-6.93s.96-5.06,2.87-7.05c1.91-1.99,4.22-2.99,6.93-2.99-2.71,0-5.02-.99-6.93-2.99-1.91-1.99-2.87-4.34-2.87-7.05s.96-5.02,2.87-6.93c1.91-1.91,4.22-2.87,6.93-2.87-2.71,0-5.02-.99-6.93-2.99-1.91-1.99-2.87-4.34-2.87-7.05s.96-5.06,2.87-7.05c1.91-1.99,4.22-2.99,6.93-2.99s5.06-.96,7.05-2.87c1.99-1.91,2.99-4.22,2.99-6.93s.99-5.06,2.99-7.05c1.99-1.99,4.34-2.99,7.05-2.99s5.02,1,6.93,2.99c1.91,1.99,2.87,4.34,2.87,7.05,0-2.71,.99-5.06,2.99-7.05,1.99-1.99,4.34-2.99,7.05-2.99s5.06,1,7.05,2.99c1.99,1.99,2.99,4.34,2.99,7.05,0-2.71,.96-5.06,2.87-7.05,1.91-1.99,4.22-2.99,6.93-2.99s5.06,1,7.05,2.99c1.99,1.99,2.99,4.34,2.99,7.05s-1,5.02-2.99,6.93c-1.99,1.91-4.34,2.87-7.05,2.87s-5.02,1-6.93,2.99c-1.91,1.99-2.87,4.34-2.87,7.05,0-2.71-1-5.06-2.99-7.05-1.99-1.99-4.34-2.99-7.05-2.99s-5.06,1-7.05,2.99c-1.99,1.99-2.99,4.34-2.99,7.05,0-2.71-.96-5.06-2.87-7.05-1.91-1.99-4.22-2.99-6.93-2.99s-5.06,1-7.05,2.99c-1.99,1.99-2.99,4.34-2.99,7.05s.99,5.06,2.99,7.05c1.99,2,4.34,2.99,7.05,2.99-2.71,0-5.06,.96-7.05,2.87-1.99,1.91-2.99,4.22-2.99,6.93s.99,5.06,2.99,7.05c1.99,1.99,4.34,2.99,7.05,2.99-2.71,0-5.06,1-7.05,2.99-1.99,2-2.99,4.34-2.99,7.05s.99,5.02,2.99,6.93c1.99,1.91,4.34,2.87,7.05,2.87-2.71,0-5.06,1-7.05,2.99-1.99,1.99-2.99,4.34-2.99,7.05s.99,5.06,2.99,7.05c1.99,1.99,4.34,2.99,7.05,2.99-2.71,0-5.06,.96-7.05,2.87-1.99,1.91-2.99,4.22-2.99,6.93s-1,5.06-2.99,7.05Z" />
            <path class="cls-1" d="M365.87,22.93c1.99-1.99,4.34-2.99,7.05-2.99s5.06-.96,7.05-2.87c1.99-1.91,2.99-4.22,2.99-6.93s.96-5.06,2.87-7.05c1.91-1.99,4.22-2.99,6.93-2.99,2.87,0,5.26,1,7.17,2.99,1.91,1.99,2.87,4.34,2.87,7.05,0-2.71,.99-5.06,2.99-7.05,1.99-1.99,4.34-2.99,7.05-2.99s5.06,1,7.05,2.99c1.99,1.99,2.99,4.34,2.99,7.05,0-2.71,.96-5.06,2.87-7.05,1.91-1.99,4.22-2.99,6.93-2.99,2.87,0,5.26,1,7.17,2.99,1.91,1.99,2.87,4.34,2.87,7.05s.99,5.02,2.99,6.93c1.99,1.91,4.34,2.87,7.05,2.87s5.06,1,7.05,2.99c1.99,1.99,2.99,4.34,2.99,7.05s-1,5.06-2.99,7.05c-1.99,2-4.34,2.99-7.05,2.99,2.71,0,5.06,1,7.05,2.99,1.99,1.99,2.99,4.34,2.99,7.05,0,2.55-1,4.78-2.99,6.69-1.99,1.91-4.34,2.87-7.05,2.87,2.71,0,5.06,1,7.05,2.99,1.99,1.99,2.99,4.34,2.99,7.05s-1,5.06-2.99,7.05c-1.99,1.99-4.34,2.99-7.05,2.99,2.71,0,5.06,1,7.05,2.99,1.99,1.99,2.99,4.34,2.99,7.05s-1,5.06-2.99,7.05c-1.99,1.99-4.34,2.99-7.05,2.99s-5.06,.96-7.05,2.87c-1.99,1.91-2.99,4.22-2.99,6.93s-.96,5.06-2.87,7.05c-1.91,2-4.3,2.99-7.17,2.99-2.71,0-5.02-.99-6.93-2.99-1.91-1.99-2.87-4.34-2.87-7.05,0,2.71-1,5.06-2.99,7.05-1.99,2-4.34,2.99-7.05,2.99s-5.06-.99-7.05-2.99c-1.99-1.99-2.99-4.34-2.99-7.05s-.96-5.02-2.87-6.93c-1.91-1.91-4.3-2.87-7.17-2.87,2.87,0,5.26-.99,7.17-2.99,1.91-1.99,2.87-4.34,2.87-7.05,0,2.71,.99,5.06,2.99,7.05,1.99,1.99,4.34,2.99,7.05,2.99s5.06-.99,7.05-2.99c1.99-1.99,2.99-4.34,2.99-7.05,0,2.71,.96,5.06,2.87,7.05,1.91,1.99,4.22,2.99,6.93,2.99,2.87,0,5.26-.99,7.17-2.99,1.91-1.99,2.87-4.34,2.87-7.05s-.96-5.06-2.87-7.05c-1.91-1.99-4.3-2.99-7.17-2.99,2.87,0,5.26-.99,7.17-2.99,1.91-1.99,2.87-4.34,2.87-7.05s-.96-5.06-2.87-7.05c-1.91-1.99-4.3-2.99-7.17-2.99,2.87,0,5.26-.92,7.17-2.75,1.91-1.83,2.87-4.1,2.87-6.81s-.96-5.06-2.87-7.05c-1.91-1.99-4.3-2.99-7.17-2.99,2.87,0,5.26-.99,7.17-2.99,1.91-1.99,2.87-4.34,2.87-7.05s-.96-5.06-2.87-7.05c-1.91-1.99-4.3-2.99-7.17-2.99-2.71,0-5.02,1-6.93,2.99-1.91,1.99-2.87,4.34-2.87,7.05,0-2.71-1-5.06-2.99-7.05-1.99-1.99-4.34-2.99-7.05-2.99s-5.06,1-7.05,2.99c-1.99,1.99-2.99,4.34-2.99,7.05,0-2.71-.96-5.06-2.87-7.05-1.91-1.99-4.3-2.99-7.17-2.99-2.71,0-5.02,1-6.93,2.99-1.91,1.99-2.87,4.34-2.87,7.05s.96,5.06,2.87,7.05c1.91,2,4.22,2.99,6.93,2.99-2.71,0-5.02,1-6.93,2.99-1.91,1.99-2.87,4.34-2.87,7.05s.96,4.98,2.87,6.81c1.91,1.83,4.22,2.75,6.93,2.75-2.71,0-5.02,1-6.93,2.99-1.91,1.99-2.87,4.34-2.87,7.05s.96,5.06,2.87,7.05c1.91,1.99,4.22,2.99,6.93,2.99-2.71,0-5.02,1-6.93,2.99-1.91,1.99-2.87,4.34-2.87,7.05s.96,5.06,2.87,7.05c1.91,1.99,4.22,2.99,6.93,2.99-2.71,0-5.02,.96-6.93,2.87s-2.87,4.22-2.87,6.93,.96,5.06,2.87,7.05c1.91,2,4.22,2.99,6.93,2.99-2.71,0-5.02,.99-6.93,2.99-1.91,1.99-2.87,4.34-2.87,7.05s.96,5.06,2.87,7.05c1.91,1.99,4.22,2.99,6.93,2.99-2.71,0-5.02,.96-6.93,2.87-1.91,1.91-2.87,4.22-2.87,6.93s-1,5.06-2.99,7.05c-1.99,1.99-4.34,2.99-7.05,2.99s-5.06-1-7.05-2.99c-1.99-1.99-2.99-4.34-2.99-7.05s.99-5.02,2.99-6.93c1.99-1.91,4.34-2.87,7.05-2.87-2.71,0-5.06-1-7.05-2.99-1.99-1.99-2.99-4.34-2.99-7.05s.99-5.06,2.99-7.05c1.99-2,4.34-2.99,7.05-2.99-2.71,0-5.06-.99-7.05-2.99-1.99-1.99-2.99-4.34-2.99-7.05s.99-5.02,2.99-6.93c1.99-1.91,4.34-2.87,7.05-2.87-2.71-.16-5.06-1.2-7.05-3.11-1.99-1.91-2.99-4.22-2.99-6.93s.99-5.06,2.99-7.05c1.99-1.99,4.34-2.99,7.05-2.99-2.71,0-5.06-.99-7.05-2.99-1.99-1.99-2.99-4.34-2.99-7.05s1.03-5.06,3.11-7.05c2.07-1.99,4.38-2.99,6.93-2.99-2.71,0-5.06-.96-7.05-2.87-1.99-1.91-2.99-4.14-2.99-6.69,0-2.71,.99-5.06,2.99-7.05,1.99-1.99,4.34-2.99,7.05-2.99-2.71,0-5.06-.99-7.05-2.99-1.99-1.99-2.99-4.34-2.99-7.05s.99-5.06,2.99-7.05Z" />
            <path class="cls-1" d="M545.52,116.75c-1.91-1.91-2.87-4.22-2.87-6.93,0-2.87-.96-5.26-2.87-7.17-1.91-1.91-4.38-2.87-7.41-2.87,2.87,0,5.3-.96,7.29-2.87,1.99-1.91,2.99-4.22,2.99-6.93,0-2.87-.96-5.3-2.87-7.29-1.91-1.99-4.38-2.99-7.41-2.99,3.03,0,5.5-.92,7.41-2.75,1.91-1.83,2.87-4.26,2.87-7.29,0-2.71-1-5.02-2.99-6.93-1.99-1.91-4.42-2.87-7.29-2.87,2.87,0,5.3-.96,7.29-2.87,1.99-1.91,2.99-4.22,2.99-6.93,0-2.87-.96-5.26-2.87-7.17-1.91-1.91-4.38-2.87-7.41-2.87,2.87,0,5.3-.96,7.29-2.87,1.99-1.91,2.99-4.22,2.99-6.93,0-2.87-.96-5.3-2.87-7.29-1.91-1.99-4.38-2.99-7.41-2.99-2.71,0-5.02,1-6.93,2.99-1.91,1.99-2.87,4.42-2.87,7.29,0-2.87-.96-5.3-2.87-7.29-1.91-1.99-4.22-2.99-6.93-2.99s-5.06,1-7.05,2.99c-1.99,1.99-2.99,4.42-2.99,7.29,0-2.87-.96-5.3-2.87-7.29-1.91-1.99-4.22-2.99-6.93-2.99-2.87,0-5.3,1-7.29,2.99-1.99,1.99-2.99,4.42-2.99,7.29,0,2.71-.92,5.02-2.75,6.93-1.83,1.91-4.18,2.87-7.05,2.87-2.71,0-5.06-.96-7.05-2.87-1.99-1.91-2.99-4.22-2.99-6.93,0-2.87,.99-5.3,2.99-7.29,1.99-1.99,4.34-2.99,7.05-2.99,2.87,0,5.22-.92,7.05-2.75,1.83-1.83,2.75-4.18,2.75-7.05,0-2.71,.99-5.06,2.99-7.05,1.99-1.99,4.42-2.99,7.29-2.99,2.71,0,5.02,1,6.93,2.99,1.91,1.99,2.87,4.34,2.87,7.05,0-2.71,.99-5.06,2.99-7.05,1.99-1.99,4.34-2.99,7.05-2.99s5.02,1,6.93,2.99c1.91,1.99,2.87,4.34,2.87,7.05,0-2.71,.96-5.06,2.87-7.05,1.91-1.99,4.22-2.99,6.93-2.99,3.03,0,5.5,.96,7.41,2.87,1.91,1.91,2.87,4.3,2.87,7.17s.96,5.22,2.87,7.05c1.91,1.83,4.22,2.75,6.93,2.75s5.06,1,7.05,2.99c1.99,1.99,2.99,4.42,2.99,7.29,0,2.71-1,5.02-2.99,6.93-1.99,1.91-4.34,2.87-7.05,2.87,2.71,0,5.06,1,7.05,2.99,1.99,1.99,2.99,4.34,2.99,7.05s-1,5.02-2.99,6.93c-1.99,1.91-4.34,2.87-7.05,2.87,2.71,0,5.06,.96,7.05,2.87,1.99,1.91,2.99,4.22,2.99,6.93,0,2.87-.96,5.26-2.87,7.17-1.91,1.91-4.3,2.87-7.17,2.87,2.71,0,5.06,1,7.05,2.99,1.99,1.99,2.99,4.42,2.99,7.29,0,2.71-1,5.02-2.99,6.93-1.99,1.91-4.34,2.87-7.05,2.87,2.71,0,5.06,1,7.05,2.99,1.99,1.99,2.99,4.34,2.99,7.05s-1,5.02-2.99,6.93c-1.99,1.91-4.34,2.87-7.05,2.87s-5.02-.96-6.93-2.87Zm-59.88,0c-1.99-1.91-2.99-4.22-2.99-6.93,0-2.87-.92-5.26-2.75-7.17-1.83-1.91-4.18-2.87-7.05-2.87-2.71,0-5.06-.96-7.05-2.87-1.99-1.91-2.99-4.22-2.99-6.93,0-2.87,.99-5.3,2.99-7.29,1.99-1.99,4.34-2.99,7.05-2.99-2.87,0-5.26-.96-7.17-2.87-1.91-1.91-2.87-4.3-2.87-7.17,0-2.71,.99-5.02,2.99-6.93,1.99-1.91,4.34-2.87,7.05-2.87,2.87,0,5.22-.96,7.05-2.87,1.83-1.91,2.75-4.22,2.75-6.93s.99-5.06,2.99-7.05c1.99-1.99,4.42-2.99,7.29-2.99,2.71,0,5.02,1,6.93,2.99,1.91,1.99,2.87,4.34,2.87,7.05,0-2.71,.99-5.06,2.99-7.05,1.99-1.99,4.34-2.99,7.05-2.99s5.02,1,6.93,2.99c1.91,1.99,2.87,4.34,2.87,7.05,0,2.55,.99,4.82,2.99,6.81,1.99,1.99,4.26,2.99,6.81,2.99-2.55,0-4.82,.96-6.81,2.87-1.99,1.91-2.99,4.22-2.99,6.93,0-2.71-.96-5.02-2.87-6.93-1.91-1.91-4.22-2.87-6.93-2.87s-5.06,.96-7.05,2.87c-1.99,1.91-2.99,4.22-2.99,6.93,0-2.71-.96-5.02-2.87-6.93-1.91-1.91-4.22-2.87-6.93-2.87-2.87,0-5.3,.96-7.29,2.87-1.99,1.91-2.99,4.22-2.99,6.93,0,2.87,.99,5.26,2.99,7.17,1.99,1.91,4.42,2.87,7.29,2.87-2.87,0-5.3,1-7.29,2.99-1.99,1.99-2.99,4.42-2.99,7.29,0,2.71,.99,5.02,2.99,6.93,1.99,1.91,4.42,2.87,7.29,2.87,2.71,0,5.02-.99,6.93-2.99,1.91-1.99,2.87-4.26,2.87-6.81,0,2.71,.99,5.02,2.99,6.93,1.99,1.91,4.34,2.87,7.05,2.87s5.02-.99,6.93-2.99c1.91-1.99,2.87-4.26,2.87-6.81,0,2.55,.99,4.82,2.99,6.81,1.99,1.99,4.26,2.99,6.81,2.99-2.71,0-5.02,1-6.93,2.99-1.91,1.99-2.87,4.34-2.87,7.05,0,2.55-.96,4.82-2.87,6.81-1.91,2-4.22,2.99-6.93,2.99s-5.06-.96-7.05-2.87c-1.99-1.91-2.99-4.22-2.99-6.93,0,2.55-.96,4.82-2.87,6.81-1.91,2-4.22,2.99-6.93,2.99-2.87,0-5.3-.96-7.29-2.87Z" />
            <path class="cls-1" d="M625.12,102.65c1.91-1.91,4.22-2.87,6.93-2.87-2.71,0-5.02-.99-6.93-2.99-1.91-1.99-2.87-4.34-2.87-7.05s.96-5.06,2.87-7.05c1.91-1.99,4.22-2.99,6.93-2.99-2.71,0-5.02-.96-6.93-2.87-1.91-1.91-2.87-4.22-2.87-6.93s.96-5.06,2.87-7.05c1.91-1.99,4.22-2.99,6.93-2.99-2.71,0-5.02-.99-6.93-2.99-1.91-1.99-2.87-4.34-2.87-7.05s.96-5.02,2.87-6.93c1.91-1.91,4.22-2.87,6.93-2.87-2.71,0-5.02-.99-6.93-2.99-1.91-1.99-2.87-4.34-2.87-7.05s-1-5.06-2.99-7.05c-1.99-1.99-4.34-2.99-7.05-2.99s-5.06,1-7.05,2.99c-1.99,1.99-2.99,4.34-2.99,7.05,0-2.71-.96-5.06-2.87-7.05-1.91-1.99-4.22-2.99-6.93-2.99,2.71,0,5.02-.96,6.93-2.87,1.91-1.91,2.87-4.22,2.87-6.93s.99-5.06,2.99-7.05c1.99-1.99,4.34-2.99,7.05-2.99s5.06,1,7.05,2.99c1.99,1.99,2.99,4.34,2.99,7.05s.96,5.02,2.87,6.93c1.91,1.91,4.22,2.87,6.93,2.87s5.06-.96,7.05-2.87c1.99-1.91,2.99-4.22,2.99-6.93s.99-5.06,2.99-7.05c1.99-1.99,4.34-2.99,7.05-2.99s5.02,1,6.93,2.99c1.91,1.99,2.87,4.34,2.87,7.05,0-2.71,.99-5.06,2.99-7.05,1.99-1.99,4.34-2.99,7.05-2.99s5.06,1,7.05,2.99c1.99,1.99,2.99,4.34,2.99,7.05s.96,5.02,2.87,6.93c1.91,1.91,4.22,2.87,6.93,2.87s5.06,1,7.05,2.99c1.99,1.99,2.99,4.34,2.99,7.05s-1,5.06-2.99,7.05c-1.99,2-4.34,2.99-7.05,2.99,2.71,0,5.06,.96,7.05,2.87,1.99,1.91,2.99,4.22,2.99,6.93s-1,5.06-2.99,7.05c-1.99,1.99-4.34,2.99-7.05,2.99,2.71,0,5.06,1,7.05,2.99,1.99,2,2.99,4.34,2.99,7.05s-1,5.02-2.99,6.93c-1.99,1.91-4.34,2.87-7.05,2.87,2.71,0,5.06,1,7.05,2.99,1.99,1.99,2.99,4.34,2.99,7.05s-1,5.06-2.99,7.05c-1.99,1.99-4.34,2.99-7.05,2.99,2.71,0,5.06,.96,7.05,2.87,1.99,1.91,2.99,4.22,2.99,6.93s-1,5.06-2.99,7.05c-1.99,2-4.34,2.99-7.05,2.99s-5.02-.99-6.93-2.99c-1.91-1.99-2.87-4.34-2.87-7.05s-1-5.02-2.99-6.93c-1.99-1.91-4.34-2.87-7.05-2.87,2.71,0,5.06-.99,7.05-2.99s2.99-4.34,2.99-7.05-1-5.06-2.99-7.05c-1.99-1.99-4.34-2.99-7.05-2.99,2.71,0,5.06-.96,7.05-2.87,1.99-1.91,2.99-4.22,2.99-6.93s-1-5.06-2.99-7.05c-1.99-1.99-4.34-2.99-7.05-2.99,2.71,0,5.06-.99,7.05-2.99s2.99-4.34,2.99-7.05-1-5.02-2.99-6.93c-1.99-1.91-4.34-2.87-7.05-2.87,2.71,0,5.06-.99,7.05-2.99,1.99-1.99,2.99-4.34,2.99-7.05s-1-5.06-2.99-7.05c-1.99-1.99-4.34-2.99-7.05-2.99s-5.06,1-7.05,2.99c-1.99,1.99-2.99,4.34-2.99,7.05,0-2.71-.96-5.06-2.87-7.05-1.91-1.99-4.22-2.99-6.93-2.99s-5.06,1-7.05,2.99c-1.99,1.99-2.99,4.34-2.99,7.05s.99,5.06,2.99,7.05c1.99,2,4.34,2.99,7.05,2.99-2.71,0-5.06,.96-7.05,2.87-1.99,1.91-2.99,4.22-2.99,6.93s.99,5.06,2.99,7.05c1.99,1.99,4.34,2.99,7.05,2.99-2.71,0-5.06,1-7.05,2.99-1.99,2-2.99,4.34-2.99,7.05s.99,5.02,2.99,6.93c1.99,1.91,4.34,2.87,7.05,2.87-2.71,0-5.06,1-7.05,2.99-1.99,1.99-2.99,4.34-2.99,7.05s.99,5.06,2.99,7.05c1.99,1.99,4.34,2.99,7.05,2.99-2.71,0-5.06,.96-7.05,2.87-1.99,1.91-2.99,4.22-2.99,6.93s-1,5.06-2.99,7.05c-1.99,2-4.34,2.99-7.05,2.99s-5.02-.99-6.93-2.99c-1.91-1.99-2.87-4.34-2.87-7.05s.96-5.02,2.87-6.93Zm16.82,6.84c0,2.71-.96,5.06-2.87,7.05-1.91,2-4.22,2.99-6.93,2.99-2.71,0-5.06-.99-7.05-2.99-1.99-1.99-2.99-4.34-2.99-7.05s-.99-5.02-2.99-6.93c-1.99-1.91-4.34-2.87-7.05-2.87,2.71,0,5.06-.99,7.05-2.99,1.99-1.99,2.99-4.34,2.99-7.05s-.99-5.06-2.99-7.05c-1.99-1.99-4.34-2.99-7.05-2.99,2.71,0,5.06-.96,7.05-2.87,1.99-1.91,2.99-4.22,2.99-6.93s-.99-5.06-2.99-7.05c-1.99-1.99-4.34-2.99-7.05-2.99,2.71,0,5.06-.99,7.05-2.99,1.99-1.99,2.99-4.34,2.99-7.05s-.99-5.02-2.99-6.93c-1.99-1.91-4.34-2.87-7.05-2.87,2.71,0,5.06-.99,7.05-2.99,1.99-1.99,2.99-4.34,2.99-7.05s-.99-5.06-2.99-7.05c-1.99-1.99-4.34-2.99-7.05-2.99-2.71,0-5.02,1-6.93,2.99-1.91,1.99-2.87,4.34-2.87,7.05,0-2.71-.99-5.06-2.99-7.05-1.99-1.99-4.34-2.99-7.05-2.99-2.71,0-5.06,1-7.05,2.99-1.99,1.99-2.99,4.34-2.99,7.05s1,5.06,2.99,7.05c1.99,2,4.34,2.99,7.05,2.99-2.71,0-5.06,.96-7.05,2.87-1.99,1.91-2.99,4.22-2.99,6.93s1,5.06,2.99,7.05,4.34,2.99,7.05,2.99c-2.71,0-5.06,1-7.05,2.99-1.99,2-2.99,4.34-2.99,7.05s1,5.02,2.99,6.93c1.99,1.91,4.34,2.87,7.05,2.87-2.71,0-5.06,1-7.05,2.99-1.99,1.99-2.99,4.34-2.99,7.05s1,5.06,2.99,7.05,4.34,2.99,7.05,2.99c-2.71,0-5.06,.96-7.05,2.87-1.99,1.91-2.99,4.22-2.99,6.93s-.96,5.06-2.87,7.05c-1.91,2-4.22,2.99-6.93,2.99-2.71,0-5.06-.99-7.05-2.99-1.99-1.99-2.99-4.34-2.99-7.05s1-5.02,2.99-6.93c1.99-1.91,4.34-2.87,7.05-2.87-2.71,0-5.06-.99-7.05-2.99-1.99-1.99-2.99-4.34-2.99-7.05s1-5.06,2.99-7.05c1.99-1.99,4.34-2.99,7.05-2.99-2.71,0-5.06-.96-7.05-2.87-1.99-1.91-2.99-4.22-2.99-6.93s1-5.06,2.99-7.05c1.99-1.99,4.34-2.99,7.05-2.99-2.71,0-5.06-.99-7.05-2.99-1.99-1.99-2.99-4.34-2.99-7.05s1-5.02,2.99-6.93c1.99-1.91,4.34-2.87,7.05-2.87-2.71,0-5.06-.99-7.05-2.99-1.99-1.99-2.99-4.34-2.99-7.05s1-5.06,2.99-7.05c1.99-1.99,4.34-2.99,7.05-2.99,2.71,0,5.02-.96,6.93-2.87,1.91-1.91,2.87-4.22,2.87-6.93,0-2.71,1-5.06,2.99-7.05C587.16,1,589.51,0,592.22,0c2.71,0,5.06,1,7.05,2.99,1.99,1.99,2.99,4.34,2.99,7.05,0-2.71,.96-5.06,2.87-7.05C607.04,1,609.35,0,612.06,0c2.71,0,5.06,1,7.05,2.99,1.99,1.99,2.99,4.34,2.99,7.05,0,2.71,1,5.02,2.99,6.93,1.99,1.91,4.34,2.87,7.05,2.87,2.71,0,5.02-.96,6.93-2.87,1.91-1.91,2.87-4.22,2.87-6.93,0-2.71,1-5.06,2.99-7.05C646.92,1,649.27,0,651.98,0s5.06,1,7.05,2.99c1.99,1.99,2.99,4.34,2.99,7.05,0,2.71,.96,5.02,2.87,6.93,1.91,1.91,4.22,2.87,6.93,2.87-2.71,0-5.02,1-6.93,2.99-1.91,1.99-2.87,4.34-2.87,7.05,0-2.71-.99-5.06-2.99-7.05-1.99-1.99-4.34-2.99-7.05-2.99s-5.06,1-7.05,2.99c-1.99,1.99-2.99,4.34-2.99,7.05s-.96,5.06-2.87,7.05c-1.91,2-4.22,2.99-6.93,2.99,2.71,0,5.02,.96,6.93,2.87,1.91,1.91,2.87,4.22,2.87,6.93s-.96,5.06-2.87,7.05c-1.91,1.99-4.22,2.99-6.93,2.99,2.71,0,5.02,1,6.93,2.99,1.91,2,2.87,4.34,2.87,7.05s-.96,5.02-2.87,6.93c-1.91,1.91-4.22,2.87-6.93,2.87,2.71,0,5.02,1,6.93,2.99,1.91,1.99,2.87,4.34,2.87,7.05s-.96,5.06-2.87,7.05c-1.91,1.99-4.22,2.99-6.93,2.99,2.71,0,5.02,.96,6.93,2.87,1.91,1.91,2.87,4.22,2.87,6.93Z" />
            <path class="cls-1" d="M784.57,116.75c-1.91-1.91-2.87-4.22-2.87-6.93,0-2.87-.96-5.26-2.87-7.17-1.91-1.91-4.38-2.87-7.41-2.87,2.87,0,5.3-.96,7.29-2.87,1.99-1.91,2.99-4.22,2.99-6.93,0-2.87-.96-5.3-2.87-7.29-1.91-1.99-4.38-2.99-7.41-2.99,3.03,0,5.5-.92,7.41-2.75,1.91-1.83,2.87-4.26,2.87-7.29,0-2.71-1-5.02-2.99-6.93-1.99-1.91-4.42-2.87-7.29-2.87,2.87,0,5.3-.96,7.29-2.87,1.99-1.91,2.99-4.22,2.99-6.93,0-2.87-.96-5.26-2.87-7.17-1.91-1.91-4.38-2.87-7.41-2.87,2.87,0,5.3-.96,7.29-2.87,1.99-1.91,2.99-4.22,2.99-6.93,0-2.87-.96-5.3-2.87-7.29-1.91-1.99-4.38-2.99-7.41-2.99-2.71,0-5.02,1-6.93,2.99-1.91,1.99-2.87,4.42-2.87,7.29,0-2.87-.96-5.3-2.87-7.29-1.91-1.99-4.22-2.99-6.93-2.99s-5.06,1-7.05,2.99c-1.99,1.99-2.99,4.42-2.99,7.29,0-2.87-.96-5.3-2.87-7.29-1.91-1.99-4.22-2.99-6.93-2.99-2.87,0-5.3,1-7.29,2.99-1.99,1.99-2.99,4.42-2.99,7.29,0,2.71-.92,5.02-2.75,6.93-1.83,1.91-4.18,2.87-7.05,2.87-2.71,0-5.06-.96-7.05-2.87-1.99-1.91-2.99-4.22-2.99-6.93,0-2.87,.99-5.3,2.99-7.29,1.99-1.99,4.34-2.99,7.05-2.99,2.87,0,5.22-.92,7.05-2.75,1.83-1.83,2.75-4.18,2.75-7.05,0-2.71,.99-5.06,2.99-7.05,1.99-1.99,4.42-2.99,7.29-2.99,2.71,0,5.02,1,6.93,2.99,1.91,1.99,2.87,4.34,2.87,7.05,0-2.71,.99-5.06,2.99-7.05,1.99-1.99,4.34-2.99,7.05-2.99s5.02,1,6.93,2.99c1.91,1.99,2.87,4.34,2.87,7.05,0-2.71,.96-5.06,2.87-7.05,1.91-1.99,4.22-2.99,6.93-2.99,3.03,0,5.5,.96,7.41,2.87,1.91,1.91,2.87,4.3,2.87,7.17s.96,5.22,2.87,7.05c1.91,1.83,4.22,2.75,6.93,2.75s5.06,1,7.05,2.99c1.99,1.99,2.99,4.42,2.99,7.29,0,2.71-1,5.02-2.99,6.93-1.99,1.91-4.34,2.87-7.05,2.87,2.71,0,5.06,1,7.05,2.99,1.99,1.99,2.99,4.34,2.99,7.05s-1,5.02-2.99,6.93c-1.99,1.91-4.34,2.87-7.05,2.87,2.71,0,5.06,.96,7.05,2.87,1.99,1.91,2.99,4.22,2.99,6.93,0,2.87-.96,5.26-2.87,7.17-1.91,1.91-4.3,2.87-7.17,2.87,2.71,0,5.06,1,7.05,2.99,1.99,1.99,2.99,4.42,2.99,7.29,0,2.71-1,5.02-2.99,6.93-1.99,1.91-4.34,2.87-7.05,2.87,2.71,0,5.06,1,7.05,2.99,1.99,1.99,2.99,4.34,2.99,7.05s-1,5.02-2.99,6.93c-1.99,1.91-4.34,2.87-7.05,2.87s-5.02-.96-6.93-2.87Zm-59.88,0c-1.99-1.91-2.99-4.22-2.99-6.93,0-2.87-.92-5.26-2.75-7.17-1.83-1.91-4.18-2.87-7.05-2.87-2.71,0-5.06-.96-7.05-2.87-1.99-1.91-2.99-4.22-2.99-6.93,0-2.87,.99-5.3,2.99-7.29,1.99-1.99,4.34-2.99,7.05-2.99-2.87,0-5.26-.96-7.17-2.87-1.91-1.91-2.87-4.3-2.87-7.17,0-2.71,.99-5.02,2.99-6.93,1.99-1.91,4.34-2.87,7.05-2.87,2.87,0,5.22-.96,7.05-2.87,1.83-1.91,2.75-4.22,2.75-6.93s.99-5.06,2.99-7.05c1.99-1.99,4.42-2.99,7.29-2.99,2.71,0,5.02,1,6.93,2.99,1.91,1.99,2.87,4.34,2.87,7.05,0-2.71,.99-5.06,2.99-7.05,1.99-1.99,4.34-2.99,7.05-2.99s5.02,1,6.93,2.99c1.91,1.99,2.87,4.34,2.87,7.05,0,2.55,.99,4.82,2.99,6.81,1.99,1.99,4.26,2.99,6.81,2.99-2.55,0-4.82,.96-6.81,2.87-1.99,1.91-2.99,4.22-2.99,6.93,0-2.71-.96-5.02-2.87-6.93-1.91-1.91-4.22-2.87-6.93-2.87s-5.06,.96-7.05,2.87c-1.99,1.91-2.99,4.22-2.99,6.93,0-2.71-.96-5.02-2.87-6.93-1.91-1.91-4.22-2.87-6.93-2.87-2.87,0-5.3,.96-7.29,2.87-1.99,1.91-2.99,4.22-2.99,6.93,0,2.87,.99,5.26,2.99,7.17,1.99,1.91,4.42,2.87,7.29,2.87-2.87,0-5.3,1-7.29,2.99-1.99,1.99-2.99,4.42-2.99,7.29,0,2.71,.99,5.02,2.99,6.93,1.99,1.91,4.42,2.87,7.29,2.87,2.71,0,5.02-.99,6.93-2.99,1.91-1.99,2.87-4.26,2.87-6.81,0,2.71,.99,5.02,2.99,6.93,1.99,1.91,4.34,2.87,7.05,2.87s5.02-.99,6.93-2.99c1.91-1.99,2.87-4.26,2.87-6.81,0,2.55,.99,4.82,2.99,6.81,1.99,1.99,4.26,2.99,6.81,2.99-2.71,0-5.02,1-6.93,2.99-1.91,1.99-2.87,4.34-2.87,7.05,0,2.55-.96,4.82-2.87,6.81-1.91,2-4.22,2.99-6.93,2.99s-5.06-.96-7.05-2.87c-1.99-1.91-2.99-4.22-2.99-6.93,0,2.55-.96,4.82-2.87,6.81-1.91,2-4.22,2.99-6.93,2.99-2.87,0-5.3-.96-7.29-2.87Z" />
        </g>
    </g>
</svg>
