<?xml version="1.0" encoding="utf-8"?>
<!-- Generator: Adobe Illustrator 27.0.1, SVG Export Plug-In . SVG Version: 6.00 Build 0)  -->
<svg version="1.1" id="Layer_2_00000013154003439786627290000000699292168889552034_"
	 xmlns="http://www.w3.org/2000/svg" xmlns:xlink="http://www.w3.org/1999/xlink" x="0px" y="0px" viewBox="0 0 1016 150.4"
	 style="enable-background:new 0 0 1016 150.4;" xml:space="preserve">
<style type="text/css">
	.st0{fill:#F5E2D0;}
</style>
<g id="Layer_1-2">
	<g>
		<path class="st0" d="M47.1,78.4c0-1.3-0.6-2.6-1.8-3.8c-1.1-1.1-2.6-1.8-4.7-2.3h-0.3c-0.7,0-1.3-0.2-1.7-0.3
			c-0.6-0.2-1.2-0.5-1.9-0.8c-0.2-0.2-0.4-0.4-0.6-0.6c-0.2-0.2-0.4-0.4-0.5-0.8c-0.1-0.2-0.2-0.5-0.4-1.2c-0.1-0.4-0.1-1.1-0.1-2.3
			l0.7-13.5l0.7-4.1l-0.4-0.5c0-0.3,0.1-0.6,0.1-1l0.2-4c0-0.8,0.3-1.2,0.6-1.5c0.1-0.1,0.4-0.4,1.2-0.4h0.3l1.3-0.4h0.1
			c0.2,0,0.3-0.1,0.5-0.1s0.4,0,0.6,0l4.6,0.2c1.1,0.1,1.4,0.3,1.5,0.3c0.3,0.2,0.5,0.5,0.6,0.8c0.2,0.5,0.3,1,0.4,1.6
			c0.1,0.9,0.2,1.7,0.4,2.4c0.2,1,0.7,1.8,1.3,2.5c0.8,0.8,1.9,1.3,3.4,1.4c1.2,0.1,2.3-0.5,3.1-1.5c0.5-0.7,0.9-1.5,1.1-2.3
			c0.2-0.7,0.3-1.5,0.4-2.2c0.1-0.7,0.1-1.1,0.1-1.3l0.3-6c0-0.4,0-0.8-0.1-1.6c-0.1-0.6-0.2-1.3-0.4-1.9c-0.2-0.7-0.3-1.2-0.6-1.8
			c-0.6-1.5-1.6-1.9-2.3-1.9c-0.8,0-1.5,0.4-2.1,0.7c-0.3,0.2-0.7,0.4-1.2,0.6s-1.1,0.5-1.8,0.7c-0.6,0.2-1.2,0.2-2,0.2l-4-0.2
			c-1.2-0.1-2.5,0-3.8,0c-1.1,0.1-2.2,0.1-3.3,0l-2.5-0.6l-2.5,0.3l-12.5-0.6c-0.2,0-0.4,0-0.5-0.1c-0.3-0.1-0.5-0.1-0.8-0.2
			l-0.2-0.1l-2.3-0.1c-0.5,0-1.1,0-1.9,0.1c-0.8,0.1-1.1,0.1-1.1,0.1c-0.5,0-0.6-0.1-0.6-0.1c-0.2-0.1-0.4-0.2-0.6-0.4l-1.5-1.1
			c-0.7-0.5-1.7-0.8-2.8-0.9c-0.7,0-1.9,0.1-2.8,1.6c-0.4,0.6-0.7,1.3-1,2.1c-0.3,0.7-0.5,1.5-0.6,2.1c-0.1,0.6-0.2,0.9-0.2,1.1
			L1,38.6v0.2V39c0,0.1-0.1,0.3-0.1,0.6c-0.1,0.5-0.2,0.9-0.3,1.5c-0.1,0.5-0.2,1-0.3,1.5c-0.2,0.6-0.3,1-0.3,1.3
			C-0.1,45,0.2,46,0.6,47c0.6,1.3,1.9,2.1,3.4,2.2c1.4,0.1,2.6-0.3,3.4-1c0.7-0.6,1.3-1.3,1.7-2.2c0.3-0.7,0.6-1.5,0.8-2.4
			c0.2-0.6,0.4-1.1,0.7-1.6c0.2-0.3,0.5-0.6,0.8-0.8c0.1-0.1,0.6-0.3,1.6-0.2l9.3,0.5c0.2,0.2,0.4,0.3,0.5,0.5
			c0.2,0.2,0.3,0.4,0.4,0.6c0,0,0,0,0,0.1c0,0.2-0.1,0.4-0.1,0.7c-0.1,0.6-0.2,1.1-0.2,1.7l-0.5,10.3l-0.2,0.4
			c-0.4,0.8-0.5,1.4-0.6,1.9l-0.5,8.9c0,0.9-0.1,1.7-0.2,2.2c-0.1,0.3-0.2,0.7-0.3,1L17,70.4c-0.3,0-0.8,0.1-1.4,0.3
			c-0.6,0.1-1.1,0.3-1.8,0.5s-1.4,0.4-2.2,0.6l-0.4,0.1L11,72.3c-0.6,0.5-1.1,1.1-1.6,1.8c-0.4,0.5-0.7,1.1-1.1,1.6
			c-0.4,0.7-0.8,1.4-1.1,2.1l-0.1,0.3v0.3c0,0.6,0,1,0.2,1.4c0.1,0.3,0.3,0.7,0.5,0.9c0.2,0.5,0.5,0.7,0.9,1l0.4,0.2h0.5
			c1,0.1,2.1,0,2.8-0.5c0.2,0,0.5,0,0.8,0.1c0.6,0.1,1.2,0.1,1.8,0.2c0.8,0.1,1.7,0.2,2.6,0.2c1.5,0.1,2.8,0,4.1-0.3
			c1.2-0.3,1.5-0.3,1.5-0.3l7.5,0.4c0.5,0.3,1.1,0.5,1.7,0.6c0.7,0.2,1.4,0.3,2.1,0.4c0.7,0.1,1.3,0.1,2,0.2c0.5,0,0.9,0.1,1.3,0.1
			c0.3,0.1,0.7,0.2,1,0.4c0.7,0.3,1.4,0.4,2.1,0.5H41h0.1c1.8-0.1,3.3-0.7,4.3-1.7C46.8,80.8,47.1,79.4,47.1,78.4L47.1,78.4z"/>
		<path class="st0" d="M92.1,53.5c0.6-1,0.9-1.8,1-2.4l0.1-0.7l-0.1-0.1l0.1-0.2c0.1-0.5,0.3-1.2,0.6-1.9c0.5-1.2,0.6-1.6,0.6-2
			c0-0.2,0-0.6,0-1.4c0-0.9-0.1-1.7-0.3-2.7c-0.2-0.9-0.6-1.9-1-2.7c-0.7-1.2-2-2-3.6-2c-1.3-0.1-2.8,0.5-4.5,1.6
			c-1.3,0.9-2.7,1.8-4.1,2.8c-0.4,0.3-0.8,0.5-1.1,0.8c0.2-0.2,0.4-0.4,0.5-0.6c0.4-0.5,0.7-0.8,0.9-0.9l0.2-0.2l0.1-0.2
			c0.2-0.4,0.6-0.9,1.1-1.6c0.4-0.7,0.9-1.4,1.3-2.2c0.5-0.8,1-1.7,1.6-2.7l0.2-0.3v-0.3c0.1-0.7-0.2-1.3-0.9-2
			c-0.4-0.4-0.9-0.8-1.4-1.1c-0.5-0.3-1-0.6-1.6-0.8c-0.7-0.3-1.2-0.4-1.7-0.5l0,0c-0.7,0-1.4,0.1-2.3,0.3l-0.2,0.1
			C77.4,29.9,77.2,30,77,30l-0.8,0.2l-0.3,0.6c-0.8,1.2-1.7,2.4-2.8,3.5c-1.1,1.1-2.3,2.2-3.6,3.3c-1.3,1.1-2.6,2.2-3.9,3.3
			c-1.3,1.2-2.5,2.3-3.4,3.6c-0.7,0.8-1.5,1.4-2.2,2.1c-1,0.9-1.6,2-1.7,3.1c-0.2,0.5,0,0.9,0.1,1.2c0.1,0.2,0.2,0.3,0.3,0.4
			c0.5,0.6,1.4,0.9,1.7,0.9l0.4,0.1c1.2,0.1,2.6-0.5,4.3-1.6c0.4-0.2,0.7-0.4,1-0.6l-0.3,2.6c-0.2,0.3-0.4,0.7-0.6,1.2l-0.6,1.4
			c-0.3,0.6-0.5,1.2-0.8,1.9l-0.3,1.7c-0.1,0.5-0.2,1-0.2,1.6c-0.1,0.5-0.1,1.1-0.2,1.6v0.1c0,0.2-0.1,0.4-0.2,0.6
			c-0.2,0.3-0.3,0.6-0.5,0.9c-0.3,0.4-0.5,0.7-0.7,0.9c-0.3,0.5-0.5,0.8-0.5,1.2l-0.3,1.7l-1.1,4l-1.1,2v0.3
			c-0.1,1.6-0.2,2.7-0.3,3.4s-0.2,1.2-0.2,1.6c-0.1,0.2-0.2,0.4-0.3,0.5c-0.2,0.2-0.4,0.5-0.6,0.9v0.1c-0.5,1.1-0.9,2.2-1.2,3.1
			c-0.3,0.8-0.6,1.6-0.8,2.3c-0.3,1-0.4,1.4-0.4,1.6v0.4c-0.1,0.2-0.2,0.4-0.3,0.6c-0.2,0.4-0.3,0.9-0.5,1.3
			c-0.2,0.5-0.4,0.9-0.6,1.5c-0.2,0.5-0.4,0.9-0.5,1l-0.2,0.3v0.1c-0.1,0-0.2,0.1-0.3,0.1c-0.3,0.1-0.6,0.2-0.8,0.2h-0.8
			c-0.7,0-1.4,0-2.1,0.2c-0.8,0.2-1.5,0.4-2.1,0.8c-0.6,0.3-1.3,0.9-1.5,2.2v0.2c0,0.3,0,0.6,0.2,1.1c0.1,0.3,0.3,0.7,0.5,1.1
			c0.3,0.5,0.6,0.9,1.1,1.2c0.6,0.5,1.2,0.7,1.9,0.9h0.3c0.1,0,0.2,0,0.3,0c0.5,0,1-0.1,1.5-0.2l0.8-0.2c0.1,0,0.2-0.1,0.4-0.1
			c0,0,0.2,0,0.8,0.1l0.4,0.1l0.4-0.1c1-0.2,2.1-0.3,3.2-0.3c1.2,0,2.5-0.1,3.7-0.2l3,0.2c1.5,0.2,3,0,4.2-0.5
			c0.6-0.2,1.1-0.3,1.6-0.3H70v-0.8c0.8-0.3,1.4-0.6,1.9-0.9c1.2-0.6,1.5-1.4,1.5-2c0.1-1-0.3-2-1.1-2.9c-1.1-1.2-2.6-1.6-3.6-1.6
			l-1.6-0.1c-0.4,0-0.7-0.1-1-0.1c0-0.1,0-0.2,0-0.2l0.1-1.4c0.2-0.9,0.3-1.7,0.3-2.3l0.1-1.2c0-0.1,0-0.1,0-0.1
			c0.1-0.2,0.3-0.5,0.5-0.7c0.2-0.4,0.4-0.9,0.6-1.4c0.1-0.5,0.2-1.1,0.4-2v-0.1c0.1-0.9,0.2-1.6,0.3-2c0.1-0.5,0.3-1,0.4-1.4
			c0.2-0.5,0.3-0.9,0.5-1.3c0.2-0.5,0.3-1,0.4-1.7l0.1-1.6v-0.1c-0.1-0.6,0-1.1,0.3-1.4c0.4-0.5,0.8-0.9,1.4-1.2
			c0.7-0.4,1.5-0.9,2.4-1.2c1.1-0.5,2.1-1,3.1-1.6l0.2-0.2l0.2-0.2c0.6-0.7,1.3-1.2,2.2-1.6c1.3-0.5,2.4-1.1,3.2-1.7
			c0.9-0.5,1.7-1.1,2.5-1.6c0.8-0.5,1.6-1.2,2.3-2c0.3-0.2,0.6-0.6,1.2-1.5c0.5-0.7,1-1.5,1.6-2.3C91,55.3,91.5,54.5,92.1,53.5
			L92.1,53.5z M73.8,60.6c0-0.2,0-0.3,0-0.4l0.1-1.6c0.6-1.1,1.2-2.1,1.7-3s1.2-2,2-3.2l0.1-0.2c0.1-0.1,0.1-0.1,0.2-0.2
			c0.4-0.3,0.9-0.6,1.5-1c0.6-0.3,1.1-0.6,1.7-0.9c0,0.2,0,0.4,0,0.5L81,53v0.2c0.1,0.3,0.1,0.6,0.2,0.9c0,0.2,0.1,0.4,0.1,0.5
			c0,0.1,0,0.2,0,0.2c-0.1,0.7-0.1,0.9-0.1,0.9s-0.1,0.2-0.3,0.5c-0.4,0.3-0.9,0.5-1.2,0.9c-0.3,0.2-0.6,0.4-0.9,0.5l-0.3,0.1
			l-0.2,0.2c-0.8,0.6-1.5,1.2-2.3,1.6c-0.6,0.4-1.1,0.7-1.7,1C74.1,60.6,73.9,60.6,73.8,60.6C73.9,60.6,73.8,60.6,73.8,60.6
			L73.8,60.6z"/>
		<path class="st0" d="M154.8,56.7c0.2-0.6,0.3-1,0.4-1.5c0.1-0.5,0.1-1,0-1.5c0-0.2-0.1-0.3-0.1-0.5c0-0.1,0.1-0.2,0.1-0.3
			c0.2-0.3,0.4-0.7,0.5-1.2c0.1-0.3,0.1-0.6,0.1-0.9c0-0.4,0-0.9,0-1.4s-0.1-1.1-0.2-1.5l-0.1-0.7l0.6-1.3l0.1-1.2
			c0.1-1.8-0.3-3.3-1.3-4.5c-0.7-0.9-2-1.9-4.3-2h-0.4l-1.9,0.7c-1.7,0-3.2,0.5-4.4,1.4c-0.8,0.6-1.6,1.3-2.3,2.1
			c0.1-0.2,0.1-0.4,0.2-0.5c0.3-1,0.7-1.9,1-2.8c0.4-0.9,0.7-1.7,1-2.5c0.4-0.9,0.6-1.8,0.7-2.7l1.1-3v-0.3c0,0,0-0.3,0.4-1.3
			c0.3-0.7,0.6-1.1,0.7-1.2l0.2-0.2l0.1-0.2c0.5-0.9,0.8-1.6,0.9-2.3l0.7-0.5l0.1-0.9c0,0,0-0.2,0.4-0.8c0.4-0.6,1-1.1,1.6-1.6
			c0.7-0.5,1.4-1,2.1-1.3c0.7-0.3,1-0.3,1.1-0.4l1.4,0.1l0.4-0.2c0.3-0.1,0.7-0.3,1-0.6c0.1,0,0.1-0.1,0.2-0.1h0.1h0.2
			c1.7-0.3,3.2-1,4.4-2.1c1.1-0.9,1.9-2,2.6-3.2c0.7-1.1,1.2-2.2,1.4-3.3s0.4-1.8,0.5-2.2l0.1-1.6c0-0.7,0.1-1.5,0-2.3
			c0-0.9-0.2-1.8-0.5-2.5c-0.6-1.5-1.9-2-2.9-1.9c-0.7,0.1-1.2,0.2-1.8,0.4s-1.1,0.6-1.4,1.1c-0.2,0.3-0.5,0.6-0.8,1
			c-0.2,0.2-0.4,0.4-0.6,0.7c-0.1,0.1-0.2,0.2-0.4,0.2c-0.4,0.1-0.7,0.2-1.1,0.3h-0.1c-0.3,0.1-0.7,0.2-1.1,0.2
			c-0.7,0-1.4,0.1-2.1,0.4c-0.2,0.1-0.4,0.1-0.5,0.1c-0.4,0-0.9,0.1-1.5,0.3c-0.4,0.1-0.8,0.3-1.3,0.5c-0.3,0.2-0.6,0.3-0.9,0.4
			h-0.1h-0.2l-0.4,0.1c-1,0.3-2,0.7-2.9,1.1c-0.8,0.4-1.7,0.9-2.6,1.4c-1,0.6-1.9,1.5-2.6,2.4l-0.1,0.1c-0.7,1.1-1.4,2.1-1.9,2.9
			c-0.6,0.9-1,1.9-1.2,2.8l-0.8,2.2l-0.1,0.2c-0.2,0.8-0.4,1.6-0.6,2.5c-0.1,0.7-0.3,1.4-0.4,2.1c-0.1,0.6-0.2,1.2-0.2,1.6l-2.8,10
			l-0.2,2.8c-0.1,1.8-0.3,3.4-0.7,4.6c-0.6,2.1-0.6,2.8-0.7,3.2l-0.1,2.8l-2,7.7l-0.1,1.9l-1,6.9c-0.1-0.4-0.3-0.7-0.5-1
			c-0.6-0.8-1.4-1.2-2.3-1.3h-0.9l-2.1,2.1c-0.4,0.4-0.8,0.8-1.2,1.2c-0.3,0.3-0.6,0.5-0.8,0.7l0.2-3.6l0.7-4v-0.2
			c0-0.1,0-0.4,0.2-1.1l0.5-1.5c0.4-0.9,0.6-1.7,0.7-2.5c0.1-0.5,0.1-1,0.1-1.3c0.2-0.5,0.4-1.2,0.7-2c0.3-0.9,0.6-1.8,0.9-2.8
			c0.3-0.9,0.6-1.8,0.8-2.5c0.4-1.1,0.4-1.6,0.5-2c0.1-1.6-0.2-3-0.9-4c-0.6-0.9-1.7-1.9-4-2h-0.4l-1.7,0.7l-3.9-0.2l-0.6,0.4
			c-0.4,0.3-0.9,0.6-1.4,0.9c-0.2,0.1-0.3,0.2-0.3,0.2h-0.4l-0.4,0.2c-0.7,0.3-1.3,0.5-1.8,0.6c-0.8,0.1-1.6,0.3-2.3,0.5
			c-0.8,0.3-1.7,0.6-2.5,1.1c-0.9,0.5-1.8,1.4-2.8,2.6c-0.8,1.1-1.6,2-2.2,2.8c-0.8,0.9-1.4,2-2,3.1s-1,2.5-1.2,3.9
			c-0.2,1.3-0.3,2.6-0.3,3.9c0,0.5,0.1,1.2,0.3,2.1c0.2,0.9,0.5,1.7,0.9,2.6c0.4,0.9,1,1.7,1.7,2.4c0.9,0.9,2,1.5,3.3,1.5
			c0.1,0,0.2,0,0.3,0c-0.9,0.8-1.9,1.5-2.8,2.1c-0.2-0.1-0.5-0.2-0.8-0.2L95,67.9l-1-0.8l-1,0.1c-0.8-0.1-1.6,0.1-2.7,0.6
			c-1.3,0.5-2.3,1.5-2.8,2.8c-0.3,0.7-0.3,1.5-0.2,2.3c0.1,0.8,0.2,1.6,0.4,2.4c0.2,0.8,0.4,1.5,0.6,2.3c0.2,0.7,0.3,1.1,0.3,1.3
			l0.1,0.3l0.2,0.3c0.5,0.9,1.3,1.6,2.7,2.2c1.2,0.6,2.3,0.9,3.3,0.9c1.7,0.1,3.1-0.4,4.4-1.3c0.9-0.7,2.1-1.6,3.4-2.7l0.1-0.1
			c1.6-1.6,3-3,4.1-4.2c0.6-0.6,1.1-1.2,1.6-1.8c-0.1,0.3-0.1,0.6-0.2,0.8c-0.2,0.8-0.4,1.5-0.6,2.3c-0.2,0.9-0.4,1.9-0.4,2.9
			c-0.1,1.1,0.1,2.2,0.4,3.5l0.1,0.2c0.6,1.5,1.7,2.1,2.4,2.3c0.4,0.1,0.8,0.2,1.3,0.2s0.9-0.1,1.3-0.2c0.8-0.2,1.6-0.7,2.2-1.4
			c0.5-0.6,0.9-1.2,1-1.9l1.7-2.1c0.7-0.9,1.4-1.7,2.2-2.4c0.8-0.8,1.6-1.5,2.3-2.2c0.8-0.8,1.5-1.6,2.2-2.4
			c0.7-0.9,1.4-1.9,1.9-3.1c0.2-0.3,0.5-0.7,0.7-1l0.3-0.5l-0.1,0.9c-0.1,0.3-0.3,0.6-0.4,0.8l-0.1,0.2c-0.2,0.4-0.3,0.8-0.4,1.2
			c-0.2,0.5-0.2,0.9-0.2,1.2c-0.1,1.1,0.3,2.1,0.9,2.9c0.3,0.3,0.5,0.6,0.8,1c0.1,0.3,0.2,0.6,0.3,0.9v0.1V77l0.2,0.4
			c0.1,0.2,0.2,0.5,0.2,0.8c0,0.5,0.1,1,0.1,1.4c0.1,0.7,0.2,1.4,0.6,1.9c0.3,0.5,1,1.3,2.5,1.4h0.3l2.4-0.5c1.1,0.1,1.9,0,2.5-0.1
			c0.8-0.1,1.4-0.4,2-0.7c0.4-0.3,0.9-0.6,1.3-0.9c0.2-0.2,0.6-0.5,1.4-1c0.3-0.2,0.8-0.7,1.9-2c0.7-0.9,1.5-1.8,2.4-2.8
			c1-1.2,2-2.5,3.1-3.9l0.2-0.3l1.2-3.9c0.2-0.5,0.5-1.1,0.9-1.7c0.5-0.8,0.9-1.5,1.4-2.2c0.4-0.7,0.8-1.2,1.1-1.7
			c0.5-0.7,0.8-1.3,0.9-2L154.8,56.7L154.8,56.7z M110.6,52.7c-0.3,0.7-0.6,1.5-1,2.2s-0.9,1.4-1.4,1.9c-0.2,0.2-0.4,0.3-0.6,0.4
			c-0.2-0.4-0.2-0.8-0.3-1.3c0-0.7,0-1.4,0-2.1c0.1-0.7,0.1-1.2,0.1-1.4c0.1-0.8,0.5-1.5,1.1-2c0.9-0.8,1.8-1.6,2.6-2.4
			c0.1,0.6,0.1,1.3,0,2c-0.1,0.8-0.2,1.4-0.2,1.7C111,51.7,110.9,51.9,110.6,52.7L110.6,52.7z M144.3,51.1c0.1,0,0.1,0.2,0.1,0.6
			l-0.6,1.6l0.4,1.9l-0.2,3.7c0,0.4-0.2,1-0.6,1.6c-0.5,0.8-1.1,1.6-1.9,2.4c-0.7,0.8-1.5,1.5-2.4,2.1c-0.5,0.4-1,0.6-1.4,0.8
			c0-0.3,0-0.6,0-0.9l0.2-3.2c0,0,0-0.3,0.3-1.1c0.2-0.7,0.5-1.5,0.9-2.4s0.9-1.9,1.3-2.9c0.5-0.9,0.9-1.8,1.5-2.5
			c0.5-0.7,1-1.3,1.4-1.7c0.1-0.1,0.2-0.2,0.2-0.2C144.1,50.9,144.3,51,144.3,51.1L144.3,51.1z"/>
		<path class="st0" d="M188.6,46.4c0.1-2-0.1-3.6-0.5-4.9c-0.6-1.7-2.3-2.8-4.9-3.4l-2.4-0.2c-0.6-0.2-1.2-0.2-1.9,0
			c-0.2,0-0.5,0.1-0.8,0.1H178h-0.1c-1.1,0.1-2.1,0.5-3,1.3c-0.2,0.2-0.3,0.2-0.4,0.2c-0.5,0-1.1,0-1.6,0.2c-0.3,0.1-0.6,0.2-1,0.3
			l-1.1-0.1l-1.8,1.4c-1.1,0.5-2.1,1.2-3,2s-1.8,1.7-2.6,2.5c-0.8,0.9-1.5,1.7-2.1,2.6c-0.6,0.9-1.1,1.7-1.5,2.5l-1.9,3.9
			c-0.3,0.7-0.6,1.5-0.6,2.2c-0.3,0.5-0.4,1-0.4,1.4c0,0.1,0,0.2,0,0.3l-0.2,0.1l-0.6,2.7c-0.2,0.8-0.4,1.7-0.5,2.6
			c-0.2,0.8-0.3,1.6-0.5,2.4c-0.2,1.1-0.3,1.5-0.3,1.8l-0.1,1.2l-0.5,2l0.7,1.2l-0.2,1.2c-0.1,0.7-0.1,1.5,0.1,2.4
			c0.2,0.7,0.4,1.5,0.8,2.2c0.3,0.7,0.7,1.3,1.1,1.9l-1.9,1.7l6.1,0.3c1.1,0.1,2.5,0.1,4,0.1h0.2c1.8,0,3.8-0.4,6.1-1.1l0.2-0.1
			c0.6-0.3,1.3-0.5,1.8-0.7c0.6-0.2,1.2-0.5,1.8-0.7c0.6-0.3,1.3-0.6,1.9-0.9c0.7-0.4,1.3-1,1.9-1.7c0.6-0.6,1.3-1.2,1.9-2
			c0.7-0.8,1.3-1.7,1.9-2.6c0.6-0.9,1.1-1.8,1.5-2.6c0.5-1,0.8-1.9,0.9-2.7c0.2-1,0.3-2,0.5-3.1c0.2-1.5,0-2.8-0.6-4l-0.1-0.1
			c-0.3-0.5-0.7-1-1-1.3c-0.2-0.2-0.5-0.4-0.7-0.6c0.1-0.1,0.3-0.3,0.6-0.5c0.8-0.6,1.5-1.5,2.1-2.5s1.1-2,1.5-3s0.8-2.1,1-3
			C188.4,47.9,188.6,47.1,188.6,46.4L188.6,46.4z M171.4,55.3c-0.6,0.3-1.1,0.5-1.6,0.6c-0.4,0.1-0.8,0.2-1.3,0.4l1-2.7v-0.3
			c0-0.1,0-0.3,0.1-0.6s0.2-0.5,0.2-0.7c0.1-0.1,0.1-0.2,0.2-0.3l0.1-0.1c0.1-0.2,0.3-0.4,0.4-0.6c0.1-0.1,0.2-0.3,0.3-0.4
			c0.1-0.1,0.2-0.2,0.4-0.3c0.5-0.2,1.1-0.6,1.9-1.1c0.4-0.3,0.8-0.5,1.2-0.7c0.4,0.1,0.8,0.2,1.1,0.2c0.8,0,1.1,0.2,1.1,0.2l0,0
			c0.1,0,0.1,0.1,0.1,0.1c0.1,0.2,0.1,0.3,0.1,0.5c0,0.3,0,0.5,0.1,0.8c-0.1,0.3-0.2,0.6-0.3,1c-0.1,0.2-0.2,0.4-0.4,0.5
			c-1.1,1.1-2,1.9-2.8,2.5C172.6,54.6,172,55,171.4,55.3L171.4,55.3z M168,74.2c-0.1,0-0.3,0.1-0.4,0.2c-0.2,0-0.3-0.2-0.4-0.3
			c-0.4-0.7-0.7-1.4-0.8-2.3c-0.1-1-0.2-2.1-0.1-3.1c0.1-1.4,0.2-1.9,0.2-2l0.1-0.2l0.1-1.8c0.9,0.4,1.7,0.1,1.8,0.1
			s0.4-0.1,0.9-0.1c1,0.1,1.8-0.2,2.3-0.6c0.1,0.4,0.2,0.9,0.1,1.4c-0.1,0.8-0.3,1.6-0.6,2.4c-0.3,1-0.6,1.9-0.8,2.8
			c-0.3,0.7-0.7,1.4-1.3,2.2C168.7,73.8,168.3,74.1,168,74.2L168,74.2z"/>
		<path class="st0" d="M221.3,62.8h-0.8l-0.6,0.5c-0.5,0.5-1,0.9-1.5,1.3s-1,0.8-1.5,1.2c-0.2,0.2-0.4,0.3-0.6,0.5l0.2-3.1l0.5-4.4
			l0.1-1.8c0-0.1,0-0.1,0-0.1l0.3-0.2l0.2-0.5c0.5-1,0.8-1.7,0.9-2.4c0.1-0.4,0.1-0.9,0.2-1.3c0.2-0.5,0.4-1.2,0.7-2
			c0.3-1,0.6-1.9,1-2.8c0.3-0.9,0.6-1.8,0.8-2.6c0.3-1.2,0.4-1.6,0.4-1.9c0.1-1.6-0.2-3-0.9-4c-0.6-0.9-1.7-1.9-4-2h-0.4l-1.6,0.7
			l-4-0.2l-0.6,0.4c-0.4,0.3-0.9,0.6-1.4,0.9c-0.2,0.1-0.3,0.2-0.3,0.2H208l-0.4,0.2c-0.7,0.3-1.3,0.5-1.8,0.6
			c-0.8,0.1-1.6,0.3-2.3,0.5c-0.8,0.3-1.7,0.6-2.5,1.1c-0.9,0.5-1.8,1.4-2.8,2.6c-1.5,2-3.1,3.7-4.7,5l-0.1,0.1
			c-0.5,0.5-1,1.2-1.5,2c-0.4,0.7-0.8,1.5-1.2,2.3c-0.3,0.8-0.6,1.5-0.9,2.2c-0.3,0.8-0.4,1.2-0.4,1.5l-1.7,9.7l-0.1,6.3
			c0,0.5,0,1.1,0.1,2s0.3,1.8,0.6,2.6c0.3,1,0.8,1.9,1.4,2.7c0.8,1,2,1.6,3.3,1.7c0.8,0.1,1.6-0.2,2.4-0.6c0.6-0.3,1.2-0.8,1.8-1.2
			c0.5-0.4,0.9-0.8,1.4-1.3c0.4-0.4,0.6-0.7,0.9-0.9c0.7-0.6,1.5-1.5,2.5-2.8c1-1.2,1.9-2.5,2.9-3.7l1.2-1.5l-0.1,1
			c0,0.7-0.1,1.3-0.3,2c-0.2,0.8-0.4,1.7-0.6,2.7c-0.2,1-0.4,2.1-0.4,3.2c-0.1,1.2,0.1,2.4,0.4,3.6l0.1,0.2c0.7,1.8,2,2.2,2.7,2.3
			c0.1,0,0.3,0,0.4,0c0.8,0,1.6-0.2,2.2-0.7c0.7-0.4,1.2-1,1.7-1.8c0.4-0.6,0.6-1.2,0.8-1.8l1.7-2.1c0.6-0.9,1.3-1.7,2-2.3l2.4-2.2
			c0.8-0.8,1.6-1.6,2.3-2.4s1.3-1.8,1.8-3c0.3-0.3,0.5-0.7,0.8-1.1l0.6-1.1v-0.5c0-0.8-0.2-1.5-0.7-2.2
			C223.1,63.3,222.3,62.8,221.3,62.8L221.3,62.8z M205.4,55.1c-0.6,1.3-1.4,2.7-2.3,4.2c-0.9,1.5-1.8,2.8-2.8,4
			c-0.5,0.5-0.8,0.8-1,1c-0.1-0.4-0.2-0.8-0.3-1.3c-0.1-0.7-0.1-1.3,0-1.9c0.1-0.8,0.2-1.4,0.2-1.7c0-0.1,0.1-0.5,0.5-1.5
			c0.4-0.8,0.9-1.8,1.6-2.8c0.7-1,1.5-2,2.3-3c0.8-0.9,1.7-1.7,2.6-2.4c0,0,0,0,0.1,0c0.1,0.7,0.1,1.3,0,2c-0.1,0.8-0.1,1.3-0.2,1.6
			C206.2,53.4,206,53.9,205.4,55.1L205.4,55.1z"/>
		<path class="st0" d="M280.9,33.8c0.1-0.7,0.2-1.5,0.2-2.3c0-0.3,0.1-0.5,0.2-0.7s0.1-0.4,0.2-0.7l-0.4-6.6l-0.3-1.9
			c0.1-0.4,0-1-0.2-1.7c-0.2-0.8-0.4-1.5-0.7-2.3s-0.6-1.5-0.9-2.2c-0.3-0.7-0.6-1.1-0.8-1.4c-0.4-0.2-0.7-0.5-0.8-0.8
			s-0.1-0.8-0.2-1.2s-0.2-0.8-0.4-1.2c-0.2-0.4-0.5-0.7-1.1-0.9c-0.1,0-0.3-0.1-0.4-0.4c-0.2-0.3-0.4-0.5-0.7-0.8
			c-0.2,0-0.4-0.1-0.5-0.1c-0.1-0.1-0.3-0.1-0.6-0.2c-0.3-0.3-0.8-0.8-1.6-1.2s-1.6-0.9-2.5-1.4c-1-0.6-2-1.1-3.2-1.7
			C265,4.1,264,4.4,263,5s-1.8,1.3-2.5,2.1s-1.2,1.7-1.6,2.6s-0.6,1.6-0.6,2.1c0,0.8,0.3,1.6,0.9,2.4c0.6,0.7,1.2,1.4,1.9,2
			c0.8,0.7,1.7,1.3,2.8,1.8c0.4,0.5,0.9,0.8,1.3,0.9s0.9,0.2,1.4,0.2s1,0,1.5,0.1s1,0.3,1.5,0.8c0.7,0.6,1.3,1.4,1.9,2.2
			c0.5,0.8,1,1.7,1.4,2.7c0.1,1,0.3,1.9,0.7,2.7s0.6,1.9,0.6,3.2c0,0.3,0.1,0.5,0.1,0.8c0,0.2,0.1,0.4,0.1,0.5
			c0,0.2,0.1,0.4,0.1,0.4l0.3,3.7c0,0.4-0.1,1.3-0.3,2.7c-0.2,1.4-0.5,2.9-0.8,4.5c-0.2-0.7-0.4-1.4-0.7-1.9
			c-0.2-0.5-0.7-0.8-1.3-0.8c-0.8-0.4-1.4-0.6-1.8-0.7c-0.5-0.1-1.1-0.1-1.8-0.2c-1.2-0.1-2.2,0.3-3.1,1.2s-2,1.7-3.2,2.4
			c-0.6,0.4-1.6,1.4-2.9,3s-2.5,3.5-3.8,5.7s-2.4,4.3-3.4,6.6c-1,2.2-1.5,4.2-1.6,5.8c-0.1,1.3-0.2,2.1-0.3,2.3
			c-0.2,0.3-0.2,0.6-0.3,0.9l0.4,5.7c0,0.8-0.1,1.7,0,2.5c0,0.8,0.2,1.6,0.4,2.2c0.2,0.7,0.6,1.2,1.1,1.6s1.2,0.7,2,0.7
			c1.1,0.1,2.2,0,3.5-0.3c1.3-0.2,2.7-0.8,4.3-1.7c0.7-0.2,1.3-0.5,2-0.9c0.6-0.4,1.2-0.9,1.9-1.5c0.6-0.6,1.1-1.1,1.7-1.6
			c0.5-0.5,1-1,1.3-1.4c1-1.1,1.6-2.2,2-3.4s0.9-2.2,1.3-3.2c1.1-1.4,2.1-3.1,2.8-5c0.7-1.9,1.2-3.6,1.2-5.2l0.5-1.3
			c0.4-0.8,0.7-1.8,0.8-3s0.5-2.6,1-4.4c0-0.5,0.1-0.9,0.3-1.4c0.1-0.3,0.2-0.6,0.3-0.9c0-0.1,0-0.3,0-0.5s-0.1-0.3-0.2-0.5
			c-0.1,0-0.1-0.1,0.1-0.2s0.3-0.2,0.4-0.2l0.3-1.6c0.1-0.2,0.2-0.5,0.3-0.9c0.1-0.4,0.3-0.9,0.4-1.5c0.1-0.5,0.2-1.1,0.3-1.7
			s0.2-1.1,0.2-1.5c0.1-0.2,0.2-0.5,0.3-1C280.7,35,280.8,34.4,280.9,33.8L280.9,33.8z M269.5,54.3c-0.1,0.7-0.1,1.2-0.2,1.5l-1,2.3
			c0,0.4-0.2,0.8-0.4,1.2c-0.3,0.4-0.4,0.9-0.5,1.3c-0.5,0.9-1,2-1.6,3.1c-0.6,1.1-1.1,2.1-1.5,2.8c-0.2,0.4-0.6,0.9-1.2,1.3
			s-1.2,0.8-1.9,1.2c-0.8,0.4-1.6,0.8-2.5,1.1c-0.6,0-1-0.2-1.3-0.6c-0.2-0.3-0.4-0.8-0.5-1.2c-0.1-0.4-0.1-0.9-0.2-1.4
			s-0.1-0.9-0.2-1.2l0.1-1.6c0-0.2,0.1-0.6,0.2-1.3s0.3-1.5,0.5-2.2c0.2-0.9,0.5-2,0.8-3.2c0.3-0.4,0.8-1.1,1.5-2.1
			c0.7-0.9,1.5-1.9,2.4-2.8c0.9-0.9,1.8-1.8,2.8-2.5s1.9-1,2.8-1c0.6,0,1,0.3,1.3,0.9s0.4,1.2,0.4,2S269.6,53.6,269.5,54.3
			L269.5,54.3z"/>
		<path class="st0" d="M312.4,64.8c-0.5,0.5-1.1,0.9-1.6,1.3s-0.9,0.8-1.4,1.2s-0.9,0.7-1.2,1l-1.3,1.8c-0.4,0-0.7-0.2-0.9-0.5
			s-0.3-0.7-0.4-1.1s-0.1-0.8-0.1-1.3s0-0.7,0-0.9l0.2-3.3l0.5-4.4c0-0.3,0-0.9,0.1-1.6s0.3-1.3,0.8-1.6c0.4-0.8,0.6-1.4,0.7-1.9
			s0.1-0.9,0.2-1.4c0.2-0.5,0.5-1.3,0.8-2.2s0.6-1.9,0.9-2.8s0.5-1.7,0.8-2.5s0.3-1.2,0.3-1.5c0.1-1.2-0.1-2.1-0.6-2.8
			s-1.3-1.1-2.5-1.1l-1.6,0.7l-1.4-0.1l-2.4-0.1c-0.5,0.3-1,0.6-1.5,1c-0.5,0.3-1,0.5-1.3,0.5c-0.9,0.4-1.6,0.7-2.3,0.8
			s-1.4,0.3-2,0.5c-0.7,0.2-1.4,0.5-2.1,0.9s-1.4,1.1-2.2,2.1c-1.6,2.1-3.3,3.9-5,5.3c-0.4,0.4-0.8,1-1.2,1.7s-0.8,1.4-1.1,2.1
			c-0.3,0.7-0.6,1.4-0.8,2s-0.3,1-0.3,1.2l-1.7,9.8l-0.1,6.1c0,0.3,0,0.9,0.1,1.7c0.1,0.8,0.3,1.5,0.5,2.3s0.6,1.4,1.1,2
			s1.1,0.9,1.9,0.9c0.4,0,0.9-0.1,1.4-0.4s1-0.6,1.4-1s0.9-0.8,1.2-1.2c0.4-0.4,0.7-0.7,0.9-0.9c0.6-0.5,1.4-1.4,2.3-2.7
			c1-1.2,1.9-2.5,2.8-3.7s1.8-2.3,2.5-3.2s1.2-1.4,1.3-1.4s0.4,0.1,0.6,0.1c0.4,0.1,0.6,0.3,0.6,0.6l-0.1,1.7l-0.2,3
			c0,0.8-0.2,1.6-0.4,2.4s-0.4,1.7-0.6,2.6s-0.4,1.9-0.4,2.8c0,1,0.1,2,0.4,3c0.2,0.6,0.6,1,1.1,1c0.5,0.1,0.9-0.1,1.4-0.3
			c0.4-0.3,0.8-0.7,1.2-1.2c0.3-0.5,0.5-1,0.5-1.5l2-2.5c0.7-1,1.5-1.8,2.3-2.6s1.6-1.5,2.3-2.2c0.8-0.7,1.5-1.5,2.1-2.2
			s1.2-1.7,1.7-2.8c0.2-0.2,0.5-0.5,0.7-1l0.4-0.7c0-0.3-0.1-0.7-0.3-0.9C313,65,312.8,64.9,312.4,64.8L312.4,64.8z M299.6,51.9
			c-0.1,0.9-0.2,1.4-0.2,1.6c0,0.3-0.4,1.1-1,2.5c-0.7,1.4-1.5,2.8-2.4,4.4c-1,1.6-2,3-3,4.2c-1,1.2-1.9,1.8-2.7,1.8
			c-0.8,0-1.3-0.4-1.6-1.1s-0.5-1.4-0.5-2.2c-0.1-0.8-0.1-1.6,0-2.3c0.1-0.8,0.1-1.3,0.2-1.5c0-0.6,0.3-1.3,0.7-2.3s1-2,1.8-3.1
			s1.6-2.2,2.5-3.2c1-1,2-2,3-2.8c1.1-0.7,1.9-0.8,2.3-0.4c0.5,0.4,0.7,1,0.8,1.8C299.7,50.2,299.7,51.1,299.6,51.9L299.6,51.9z"/>
		<path class="st0" d="M478,62.8h-0.8l-0.6,0.5c-0.5,0.5-1,0.9-1.5,1.3s-1,0.8-1.5,1.2c-0.2,0.2-0.4,0.3-0.6,0.5l0.2-3.1l0.5-4.4
			l0.1-1.8c0-0.1,0-0.1,0-0.1l0.3-0.2l0.2-0.5c0.5-1,0.8-1.7,0.9-2.4c0.1-0.4,0.1-0.9,0.2-1.3c0.2-0.5,0.4-1.2,0.7-2
			c0.3-1,0.6-1.9,1-2.8c0.3-0.9,0.6-1.8,0.8-2.6c0.3-1.2,0.4-1.6,0.4-1.9c0.1-1.6-0.2-3-1-4c-0.6-0.9-1.7-1.9-4-2h-0.5l-1.6,0.7
			l-4-0.2l-0.5,0.4c-0.4,0.3-0.9,0.6-1.5,0.9c-0.2,0.1-0.3,0.2-0.3,0.2h-0.4l-0.5,0.2c-0.7,0.3-1.3,0.5-1.8,0.6
			c-0.8,0.1-1.6,0.3-2.3,0.5c-0.8,0.3-1.7,0.6-2.5,1.1c-0.9,0.5-1.8,1.4-2.8,2.6c-1.5,2-3.1,3.7-4.7,5l-0.1,0.1
			c-0.5,0.5-1,1.2-1.5,2c-0.4,0.7-0.8,1.5-1.2,2.3c-0.3,0.8-0.6,1.5-0.9,2.2c-0.3,0.8-0.4,1.2-0.4,1.5l-1.5,8.5
			c-0.2-0.2-0.4-0.4-0.6-0.6c-0.7-0.4-1.4-0.7-2.1-0.7h-0.8l-1.3,1.2c-0.4,0.3-0.9,0.7-1.4,1.1l-0.8,0.4c0-0.1-0.1-0.2-0.1-0.2
			l0.2-3.1l0.4-4.5c0-0.3,0.1-0.8,0.1-1.6c0-0.1,0-0.2,0-0.2l0.3-0.2l0.2-0.5c0.5-1,0.8-1.7,0.9-2.4c0.1-0.5,0.1-0.9,0.2-1.3
			c0.2-0.5,0.4-1.2,0.7-2c0.3-0.9,0.6-1.8,0.9-2.8c0.3-0.9,0.6-1.8,0.8-2.5c0.4-1.1,0.4-1.6,0.5-2c0.1-1.6-0.2-3-1-4
			c-0.6-0.9-1.7-1.9-4-2h-0.5l-1.9,0.8l-4.4,0.8l-0.4,0.4c-0.4,0.4-0.9,0.9-1.3,1.4c0,0.1-0.1,0.1-0.1,0.1l-1.1,0.2l-0.8,3.3
			c0,0,0,0,0,0.1c-0.3,0.4-0.4,0.8-0.4,1.2c0,0.1,0,0.2,0,0.3c0,0.3-0.1,0.7-0.2,1.2v0.2c0,0.3-0.1,0.6-0.4,1
			c-0.5,0.8-1,1.9-1.6,3.4c-0.4,0.9-0.9,1.7-1.4,2.3c-0.9,1-1.5,2.1-1.7,3.2l0,0c-0.2,0.3-0.4,0.5-0.6,0.8c-0.3,0.3-0.6,0.7-0.9,1.1
			c-0.5,0.6-0.8,1.2-0.9,1.8v0.2c0,0,0,0-0.1,0.1c-0.5,0.3-0.8,0.6-1.2,0.8c0-0.2,0-0.6,0-1.4l0.3-6c0-0.7,0-1.4,0-2s-0.1-1.3-0.2-2
			l-0.3-2.3l-0.1-3.4l0.1-1.5c0.1-0.4,0.1-0.8,0.2-1.3c0.1-0.6,0.1-1.2,0-1.8c-0.1-0.7-0.4-1.4-0.8-1.9c-0.5-0.7-1.2-1.2-2.2-1.4
			h-0.1c-0.7-0.1-1.5-0.1-2.4,0.2c-0.6,0.2-1.3,0.4-2,0.7s-1.3,0.6-1.9,0.9c-0.4,0.2-0.7,0.4-0.9,0.6c-0.2,0-0.5,0-0.6,0.1
			c-0.4,0.1-0.7,0.2-1,0.3s-0.6,0.3-1,0.5c-0.1,0.1-0.3,0.2-0.5,0.3c-0.8,0-1.7,0.4-2.5,1.2c-1.1,0.9-1.7,1.9-2,3.1l-0.1,0.5
			l0.1,0.5c0.1,0.3,0.2,0.7,0.4,1l0.2,0.3c0.2,0.4,0.7,1,1.5,1.3l1.3,0.5l-1.5,2.6c-0.1,0.2-0.2,0.3-0.2,0.3
			c-0.9,0.6-1.1,1.7-1.2,2.4c-0.2,0.2-0.3,0.3-0.5,0.5c-0.5,0.5-0.9,1-1,1.5l-0.4,0.5l-0.1,0.2c-0.5,0.9-1.1,1.9-1.8,2.9
			c-0.7,1-1.6,2.1-2.5,3.1s-2,2-3,3c-0.9,0.8-1.8,1.5-2.8,2.1c-0.1,0-0.2-0.1-0.3-0.1l-1.8-0.8l-2-0.1c-0.5,0-1.1,0.1-1.9,0.4
			c-0.5,0.2-1,0.5-1.5,0.8c0.1-0.3,0.2-0.6,0.2-0.8v-0.7l-0.4-0.6c-0.2-0.3-0.5-0.6-0.7-0.9c-0.2-0.2-0.4-0.4-0.6-0.7
			c-0.5-0.5-1.1-0.8-1.8-0.8c-1,0-1.8,0.6-2.4,1.1c-0.4,0.4-0.9,0.8-1.5,1.2c-0.5,0.4-1,0.7-1.6,1c0.2-1.7,0.8-3.5,1.7-5.2
			c1.2-2.4,2.5-4.9,3.8-7.3l0.1-0.2c0.4-0.8,0.7-1.8,1.1-3.1c0.4-1.2,0.7-2.4,0.9-3.5c0.3-1.1,0.5-2.1,0.7-3
			c0.3-1.2,0.3-1.6,0.3-1.9c0.1-1.2-0.2-2.3-0.8-3.4c-0.7-1.3-1.9-2-3.2-2.1l-1.9-0.1c-0.4,0-0.8,0-1.3,0c-0.7,0-1.3,0.1-1.9,0.3
			c-0.8,0.2-1.4,0.7-1.9,1.2c-0.6,0.7-1,1.6-1,2.7c0,0.3-0.1,0.9-0.4,2c-0.2,0.9-0.5,1.9-0.9,3s-0.8,2.3-1.3,3.4s-1,2.2-1.5,3.2v0.1
			c-0.7,1.5-1.3,2.7-1.8,3.7c-0.8,1.5-1,2.1-1.2,2.4l-0.1,0.2l0,0c-0.5,0.5-0.9,1-1.1,1.5c-0.3,0.3-0.5,0.7-0.7,1.3
			c0,0.1-0.1,0.2-0.3,0.4c-0.7,0.6-1.3,1.1-1.9,1.4c-0.6,0.4-1.1,0.8-1.4,1.2c-0.3,0.2-0.6,0.3-0.8,0.4c0-0.5,0-1,0.1-1.6
			c0.2-1,0.3-1.7,0.4-2.2c0,0,0-0.2,0.2-1c0.2-0.7,0.4-1.5,0.7-2.4c0.3-1,0.6-2,1-3.2s0.8-2.4,1.2-3.6c0.9-2.8,2-6,3.2-9.5l0.1-0.3
			v-0.3c0-0.7-0.1-1.5-0.4-2.3c-0.5-1.3-1.5-2.2-2.8-2.2l-1.6-0.1c-1.2-0.1-2.5,0.4-3.9,1.3c-1.1,0.7-2.2,1.6-3.4,2.6
			c-1.1,1-2.2,2-3.3,3c-1,0.9-1.8,1.6-2.5,2.1l-0.4,0.2l-0.2,0.5c0,0,0,0-0.1,0.1c-0.5,0.2-0.9,0.4-1.4,0.7
			c-0.7,0.3-1.3,0.7-1.8,1.2c-0.7,0.7-1.1,1.7-1.2,2.8c-0.1,1.2,0.3,2.2,1,3.1c0.7,0.9,1.6,1.3,2.5,1.4c0.5,0,1-0.1,1.7-0.3
			c0.5-0.2,1-0.4,1.5-0.7c0.2-0.1,0.4-0.1,0.6-0.2c-0.1,1.5-0.4,2.3-0.6,2.8c-0.8,1.4-1,2-1.1,2.3l-0.9,3.2c-0.1,0.4-0.3,1-0.5,1.7
			c-0.3,0.9-0.5,1.8-0.5,2.7c0,0.6-0.1,1.2-0.2,1.6c-0.2,0.7-0.3,1.3-0.4,1.8c0,0.2,0,0.5-0.1,0.9c0,0.3-0.1,0.7-0.2,1.1
			c-0.1,0.5-0.2,1.1-0.2,1.6l-0.1,2.3c0,0.4,0.1,0.9,0.3,1.6c0.2,0.5,0.4,1.1,0.7,1.6c0.3,0.6,0.7,1.1,1.2,1.6
			c0.9,0.9,1.7,1.1,2.3,1.1c0.9,0.1,1.9-0.3,3.3-1.3c1-0.7,2.1-1.5,3.1-2.4c1.1-0.9,2.1-1.8,3.1-2.7c0.9-0.8,1.5-1.5,2-1.9
			c0.3-0.3,0.7-0.6,1.1-1.1c0.2-0.2,0.4-0.4,0.5-0.6v0.1l-0.9,2.3l-0.1,2.7c0,0.5,0.1,1.1,0.3,1.8c0.2,0.6,0.5,1.2,0.9,1.7
			c0.4,0.6,0.8,1,1.3,1.4c0.7,0.5,1.4,0.8,2.2,0.8c0.2,0,0.3,0,0.5,0c0.9,0,1.8-0.1,2.6-0.4c1.1-0.3,2.1-0.9,3.1-1.8l0.2-0.2
			c0.4-0.5,0.8-1,1.2-1.4c0.3-0.3,0.6-0.6,0.9-0.9c0.3-0.2,0.6-0.5,1-0.7c0.4-0.3,0.9-0.6,1.5-0.9l0.3-0.2c0.2-0.2,0.5-0.5,1.5-1.6
			c0.7-0.8,1.4-1.7,2.2-2.7l0,0c0,0.7,0.1,1.5,0.4,2.7c0.3,1.4,0.9,2.7,1.6,3.9c0.2,0.4,0.5,0.8,1,1.3c0.4,0.4,0.9,0.8,1.5,1.2
			c0.5,0.3,1.1,0.6,1.7,0.9c0.7,0.3,1.3,0.4,2,0.5c1.6,0.1,3.1-0.3,4.2-1.2c0.9-0.7,2-1.7,3.4-3.3c1.6-1.5,3-2.9,4-4.1
			c1.1-1.2,2.1-2.4,3-3.6l0.2-0.3c0.5-0.8,0.8-1.5,1.2-1.9c0.4-0.5,0.7-0.9,1-1.3c0.3-0.3,0.6-0.7,0.9-1.1c0.4-0.4,0.8-1,1.4-1.7
			l0.2-0.3c0.2-0.4,0.5-0.9,0.8-1.4c0,0.3,0.1,0.5,0.1,0.8c0.1,0.4,0.1,0.9,0.1,1.4c0,0.4,0,0.9-0.1,1.4v0.3c0,0.7-0.1,1.5-0.2,2.3
			l-0.4,2.9l0,0c-0.2,0.5-0.2,1.1-0.2,1.7s0.1,1.2,0.4,2l-0.7,3.2c-1,2.6,0.6,3.5,1,3.7c0.5,0.2,1.1,0.4,1.6,0.4
			c1.6,0.1,3-0.2,4.1-0.9c1-0.6,1.9-1.4,2.7-2.3c0.7-0.8,1.5-1.8,2.1-2.8c0.6-0.8,1.3-1.7,2-2.5c0.7-0.7,1.4-1.4,1.9-1.9
			s0.9-1.1,1.4-1.6c0.4-0.5,0.8-0.9,1.3-1.4s1.1-1.1,1.8-1.9l0.2-0.3c0-0.1,0.1-0.2,0.2-0.3l-0.2,4.3c0,0.7-0.1,1.3-0.3,2
			c-0.2,0.9-0.4,1.8-0.6,2.7c-0.2,1-0.3,2.1-0.4,3.1c-0.1,1.2,0.1,2.4,0.4,3.6l0.1,0.2c0.5,1.3,1.5,2,2.7,2.1c0.1,0,0.1,0,0.2,0
			c0.7,0,1.4-0.2,2.2-0.6c0.6-0.3,1.2-0.8,1.9-1.3c0.6-0.5,1.1-1.1,1.6-1.7l1.5-2.4c0.6-0.8,1.2-1.4,2-1.9c0.9-0.7,1.8-1.3,2.7-1.9
			c1-0.7,1.9-1.4,2.7-2.2c0.9-0.8,1.6-1.9,2.1-3.1c0.1-0.1,0.2-0.3,0.3-0.4v3.1c0,0.5,0,1.1,0.1,2s0.3,1.8,0.6,2.6
			c0.3,1,0.8,1.9,1.4,2.7c0.8,1,2,1.6,3.3,1.7c0.8,0,1.6-0.2,2.4-0.6c0.6-0.3,1.2-0.8,1.8-1.2c0.5-0.4,1-0.8,1.4-1.3
			c0.4-0.4,0.6-0.7,0.9-0.9c0.7-0.6,1.5-1.5,2.5-2.8c1-1.2,1.9-2.5,2.9-3.7l1.2-1.5v1c0,0.7-0.1,1.3-0.3,2c-0.2,0.8-0.4,1.7-0.6,2.7
			s-0.4,2.1-0.5,3.2c-0.1,1.2,0.1,2.4,0.4,3.6l0.1,0.2c0.7,1.8,2,2.2,2.7,2.3c0.1,0,0.3,0,0.4,0c0.8,0,1.5-0.2,2.2-0.7
			c0.7-0.4,1.2-1,1.7-1.8c0.4-0.6,0.6-1.2,0.8-1.8l1.7-2.1c0.6-0.9,1.3-1.7,2-2.3l2.4-2.2c0.8-0.8,1.6-1.6,2.3-2.4
			c0.7-0.8,1.3-1.8,1.8-3c0.3-0.3,0.5-0.7,0.8-1.1l0.6-1.1v-0.5c0-0.8-0.2-1.5-0.7-2.2c-0.6-0.8-1.4-1.2-2.3-1.3L478,62.8z
			 M462,55.1c-0.6,1.3-1.4,2.7-2.3,4.2s-1.8,2.8-2.8,4c-0.5,0.5-0.8,0.8-1,1c-0.1-0.4-0.2-0.8-0.3-1.3c-0.1-0.7,0-1.3,0-1.9
			c0.1-0.8,0.2-1.4,0.2-1.7c0-0.1,0-0.5,0.5-1.5c0.4-0.8,0.9-1.8,1.6-2.8s1.5-2,2.3-3c0.8-0.9,1.7-1.7,2.6-2.4c0,0,0,0,0.1,0
			c0.1,0.7,0.1,1.3,0,2c-0.1,0.8-0.1,1.3-0.2,1.6C462.8,53.4,462.6,53.9,462,55.1L462,55.1z"/>
		<path class="st0" d="M542.6,40.7c-0.3,0-0.9,0.1-1.7,0.3s-1.6,0.5-2.5,0.8s-1.7,0.8-2.5,1.2c-0.8,0.5-1.4,0.9-1.8,1.4
			c-0.5,0.8-0.8,1.5-0.9,2.3c0,0.3-0.1,0.6-0.1,0.9c-0.1,0.3-0.1,0.6-0.2,0.9c-0.1,0.3-0.2,0.7-0.2,1c0,0.7-0.2,1.5-0.4,2.2
			c-0.2,0.8-0.3,1.4-0.3,1.8l-0.8,2.7c-0.3,0.3-0.6,0.6-0.9,0.8c-0.3,0.2-0.7,0.3-1,0.3c-0.4-0.1-0.9-0.2-1.5-0.3s-1,0.1-1.1,0.5
			c-0.6,0.2-1.1,0.3-1.6,0.4c-0.2,0-0.5,0.1-0.8,0.1c-0.6,0.1-1.1,0.1-1.3,0.1c-0.3,0-0.6-0.1-1-0.2l-1.4,0.6v-0.2
			c0-0.5,0.1-0.9,0.2-1.2c0.1-0.3,0.1-0.7,0.2-1s0.1-0.7,0.1-1v-0.8c0.2-1.1,0.5-2.1,0.8-2.9s0.7-1.9,0.8-3l0.1-1.2
			c0-0.7,0.2-1.9,0.4-3.5c0.2-0.8,0-1.6-0.5-2.3s-1.2-1.2-2.1-1.2c-0.3-0.1-1.1,0.2-2.4,0.8c-1.3,0.6-2.6,1.3-4,2.1
			s-2.6,1.6-3.8,2.5s-1.7,1.5-1.7,2c-0.1,0.4-0.2,0.6-0.2,0.8c0,0.1,0,0.3,0,0.7c0,0.5,0,0.8,0.1,1.2c0,0.2,0.1,0.3,0.2,0.4
			c1.2,0.2,1.9,0.2,2.3,0s0.7-0.3,1-0.2c0.8,0.2,1.4,0.5,1.6,1.1c0.2,0.6,0.4,1.1,0.3,1.5c-0.1,0.6-0.2,1.3-0.4,2s-0.4,1.4-0.7,2.1
			c-0.2,0.7-0.4,1.3-0.6,2c-0.2,0.6-0.3,1.2-0.3,1.5l-0.8,1.4c0,0.8-0.2,1.4-0.6,2c-0.3,0.5-0.5,1.2-0.6,1.9
			c-0.2,0.8-0.4,1.4-0.8,1.8s-0.6,1-0.8,1.8l-0.6,2.2c-0.1,0.3-0.3,0.7-0.5,1.4c-0.2,0.6-0.4,1.2-0.6,1.9c0,0.2,0,0.4-0.1,0.6
			s-0.1,0.3-0.2,0.4c-0.1,0.2-0.2,0.3-0.3,0.4c-0.3,1.3-0.2,2.3,0.3,3s1.1,1.2,1.9,1.3c1.2,0.2,2.1,0.1,2.8-0.2s1.5-0.8,2.2-1.4
			c0.4-0.4,0.8-0.7,1.5-1c0.6-0.3,1.1-0.6,1.4-0.9c0.2-0.1,0.4-0.4,0.5-0.8s0.2-0.9,0.3-1.5c0.1-1.4,0.1-2.5,0.2-3.2
			c0.1-0.7,0.3-1.6,0.6-2.7c0-0.4,0.1-1.1,0.3-1.8c0.2-0.8,0.3-1.4,0.3-1.8c0-0.3,0.1-0.5,0.2-0.7c0.1-0.2,0.2-0.4,0.2-0.7
			c1.1-0.1,2.1-0.1,3,0c0.9,0.1,2.1,0,3.5,0c1.8,0.1,2.8,0.6,3,1.5v0.8c-0.3,0.8-0.4,1.4-0.5,1.9s-0.2,1.2-0.3,2l-0.9,2.1l-0.3,1.7
			c0.5,0.2,0.7,0.8,0.3,1.9l-0.1,1.3c-0.1,0.4,0,0.9,0.1,1.4s0.4,1,0.7,1.4s0.7,0.9,1.1,1.2s0.8,0.5,1.2,0.6
			c0.6,0.1,1.3-0.1,2.1-0.6c0.9-0.5,1.7-1.1,2.6-1.9c0.8-0.7,1.6-1.5,2.3-2.3s1.1-1.4,1.3-1.7c0.3-0.2,0.7-0.5,1.4-1
			s1.2-1.1,1.8-1.7s1.1-1.2,1.6-1.8s0.7-0.9,0.7-1.1c0.2-0.4,0.5-0.8,0.6-1c0.2-0.2-0.3-0.5-1.4-0.9c-0.4,0-0.8,0.1-1.1,0.2
			c-0.3,0.2-0.6,0.4-0.9,0.6c-0.5,0.3-0.9,0.5-1.3,0.7c-0.4,0.2-0.8,0.3-1.3,0.3c-0.8-0.2-1.3-0.6-1.4-1.5c-0.1-0.8-0.1-1.4-0.1-1.9
			c0.1-0.6,0.3-1.2,0.5-1.7s0.3-1,0.5-1.5c0.4-0.6,0.7-1,0.9-1.3s0.4-0.8,0.6-1.4v-0.9c0.2-0.4,0.4-0.9,0.6-1.3
			c0.1-0.4,0.3-0.8,0.4-1.2c0.1-0.4,0.2-0.9,0.2-1.3c0.3-1.2,0.7-2.2,1.4-3c0.6-0.8,1-1.8,1.2-3c0.3-0.3,0.7-0.6,0.9-0.9
			s0.5-0.5,0.7-0.8c0.2-0.2,0.4-0.5,0.5-0.8l0.5-2.3c0-0.8-0.1-1.6-0.5-2.3S543.6,40.9,542.6,40.7L542.6,40.7z"/>
		<path class="st0" d="M580.7,64.8c-0.5,0.5-1,1-1.4,1.4s-0.8,0.8-1.3,1.3c-0.4,0.4-0.8,0.8-1.2,1l-1.7,1.1c-0.4,0-0.7-0.2-0.9-0.5
			s-0.3-0.6-0.4-1c-0.1-0.4-0.1-0.7-0.1-1.1s0-0.6,0-0.8l0.2-3.3l0.7-4.2c0-0.4,0.1-0.9,0.3-1.6c0.2-0.7,0.4-1.2,0.5-1.7
			c0.3-0.7,0.5-1.4,0.6-2s0.1-1.1,0.1-1.5c0.2-0.5,0.5-1.3,0.8-2.2s0.6-1.9,0.9-2.8c0.3-0.9,0.6-1.7,0.8-2.5s0.4-1.2,0.4-1.5
			c0.1-1.2-0.1-2.1-0.6-2.8s-1.3-1.1-2.5-1.1l-1.7,0.7l-3.7-0.2c-0.5,0.3-1,0.6-1.5,1c-0.5,0.3-1,0.5-1.4,0.5
			c-0.9,0.4-1.6,0.7-2.3,0.8s-1.4,0.3-2,0.5s-1.4,0.5-2.1,0.9c-0.7,0.4-1.4,1.1-2.2,2.1c-0.8,1.1-1.6,2-2.2,2.8s-1.2,1.7-1.7,2.8
			c-0.5,0.9-0.8,2-1,3.2s-0.3,2.5-0.3,3.8c0,0.3,0,0.9,0.2,1.6c0.2,0.7,0.4,1.4,0.8,2.1c0.3,0.7,0.8,1.4,1.3,1.9
			c0.5,0.6,1.2,0.9,2,0.9c0.4,0,0.9,0,1.4-0.1s1.1-0.2,1.7-0.4c0.6-0.2,1-0.4,1.5-0.6s0.7-0.5,0.9-0.7c0.3-0.3,0.6-0.5,0.9-0.8
			c0.3-0.3,0.6-0.5,0.9-0.5c-1.2,1.7-2.5,3.5-4.2,5.2s-3.3,3-5,3.9c-0.3,0.2-0.6,0.3-0.8,0.3s-0.3,0-0.3-0.1s-0.1-0.1-0.2-0.2
			c-0.1-0.1-0.2-0.1-0.4-0.2l-4.3-0.5l-1-0.7c-0.5,0-1.1,0.1-1.9,0.4c-0.8,0.3-1.4,0.9-1.7,1.7c-0.1,0.2-0.1,0.6-0.1,1.3
			c0.1,0.7,0.2,1.4,0.4,2.2s0.4,1.5,0.6,2.2s0.3,1.2,0.3,1.4c0.3,0.5,0.8,0.9,1.8,1.4c0.9,0.4,1.8,0.7,2.6,0.7
			c1.2,0.1,2.2-0.2,3.1-0.9c0.9-0.7,2-1.6,3.4-2.7c1.6-1.5,2.9-2.9,4-4.1s2.1-2.4,3-3.5c1-1.2,1.8-2.3,2.4-3.3c0.5-0.9,1-2,1.5-3
			c-0.2,0.8-0.3,1.6-0.3,2.3s-0.1,1.2-0.1,1.3l-1.2,4.7c0,0.8-0.2,1.6-0.4,2.3c-0.2,0.8-0.4,1.5-0.6,2.3s-0.3,1.6-0.4,2.5
			c0,0.9,0.1,1.8,0.4,2.8c0.2,0.6,0.6,1,1.1,1.2s1,0.1,1.5,0s0.9-0.4,1.3-0.9s0.6-0.9,0.6-1.4l2-2.5c0.8-1,1.6-1.8,2.4-2.6
			c0.8-0.7,1.6-1.5,2.3-2.2s1.4-1.5,2.1-2.2c0.7-0.8,1.2-1.7,1.8-2.8c0.2-0.3,0.5-0.7,0.6-1l0.4-0.7c0-0.3-0.1-0.7-0.3-0.9
			C581.3,65,581,64.8,580.7,64.8L580.7,64.8z M569.3,50.1c-0.1,0.9-0.2,1.4-0.2,1.6s-0.2,0.8-0.5,1.6s-0.7,1.7-1.2,2.5
			c-0.5,0.9-1.1,1.7-1.8,2.3c-0.7,0.7-1.4,1-2.1,1c-0.8,0-1.3-0.4-1.6-1s-0.5-1.4-0.5-2.2s0-1.6,0-2.3s0.1-1.2,0.1-1.5
			c0.2-1.3,0.8-2.4,1.8-3.3s1.9-1.8,2.8-2.6c1.1-0.7,1.9-0.8,2.3-0.4c0.4,0.4,0.7,1,0.8,1.8S569.4,49.3,569.3,50.1L569.3,50.1z"/>
		<path class="st0" d="M623.1,42.1c-0.7-0.5-1.4-0.8-2.3-1.1c-0.9-0.3-1.6-0.5-2.4-0.6c-0.7-0.1-1.2-0.1-1.5,0
			c-0.4,0.1-0.8,0.2-1.2,0.3s-0.8,0.2-1.3,0.3s-1.1,0.2-2,0.3c-0.3,0.1-0.6,0.2-0.8,0.2s-0.4,0.1-0.5,0.1s-0.3,0.1-0.5,0.2
			c-0.2,0.1-0.4,0.3-0.6,0.5c-0.3,0.2-0.8,0.4-1.3,0.7s-1,0.7-1.4,1c-0.5,0.4-0.9,0.8-1.2,1.2s-0.5,0.8-0.5,1.1l-2.1,5.5
			c-0.2,0.3-0.4,0.7-0.6,1c-0.2,0.3-0.4,0.6-0.7,0.8c-0.3,0.5-0.7,1.2-1.2,2.1c-0.5,0.9-1,1.8-1.6,2.8s-1.2,1.9-1.8,2.9
			s-1.3,1.7-2,2.2v-0.8l4.4-19.6c0.2-0.9,0-1.7-0.5-2.2c-0.5-0.6-1.1-0.9-2-0.9c-0.5,0-0.9,0.1-1.5,0.4s-1,0.6-1.5,1
			s-1.1,0.9-1.6,1.4c-0.9,0.4-1.8,0.9-2.7,1.5s-1.7,1.2-2.5,1.9s-1.4,1.3-2,2c-0.6,0.6-1,1.2-1.2,1.7c-0.4,0.8-0.5,1.5-0.4,2
			c0.1,0.6,0.4,0.8,0.9,0.8c0.6-0.2,1.2-0.4,1.9-0.6c0.5-0.1,1-0.3,1.5-0.4c0.5-0.1,0.9-0.3,1.2-0.4c0.5,0,0.7,0.3,0.8,0.9
			c0,0.2,0.1,0.5,0,0.8c-0.2,0.8-0.2,1.4-0.3,1.8s0,0.6,0,0.9c0,0.2-0.1,0.5-0.1,0.9c-0.1,0.3-0.2,0.9-0.5,1.6l-0.7,3.2
			c-0.2,1.2-0.5,2.6-1,4.2s-1.1,3.2-1.7,4.8c-0.6,1.6-1.2,3.1-1.8,4.4s-1,2.2-1.2,2.7c0,0.4,0.1,0.8,0.4,1c0.3,0.2,0.7,0.4,1.1,0.5
			s0.8,0.1,1.3,0.1s0.8-0.1,1.1-0.2c0.5-0.2,0.9-0.2,1.3,0s0.8,0.1,1.3-0.3c0.6-0.3,1-0.7,1.4-1.3c0.3-0.5,0.6-1.1,0.9-1.7
			s0.5-1.2,0.9-1.9c0.3-0.7,0.8-1.3,1.4-1.9c1-1.1,1.9-2.2,2.7-3.1s1.7-2,2.7-3.1v0.2c-0.1,0.3-0.1,0.7-0.1,1.3c0,0.6,0,1.1,0,1.7
			s0,1.2,0,1.7s0,0.9,0,1.1l-0.3,0.7c0,0.4,0,1.2,0.1,2.1c0.1,1,0.2,1.9,0.5,2.9c0.2,1,0.6,1.9,1,2.7s1.1,1.2,1.9,1.3
			c1.8,0.2,3.4-0.1,4.9-0.8c1.5-0.7,3.2-1.6,5.1-2.7c0.6-0.3,1.3-0.8,2.2-1.6c0.9-0.8,1.8-1.6,2.7-2.6c0.9-0.9,1.6-1.9,2.2-2.9
			s1-1.8,1.1-2.6c0.1-0.3,0.2-0.7,0-1c-0.1-0.3-0.6-0.6-1.4-0.7c-0.7-0.1-1.4,0.2-2.3,0.8c-0.8,0.6-1.7,1.3-2.6,2.1
			c-0.9,0.8-1.8,1.5-2.8,2.1s-1.8,0.9-2.7,0.9c-0.5-0.1-0.8-0.4-1.2-1.1c-0.3-0.6-0.6-1.4-0.8-2.2c-0.2-0.8-0.4-1.7-0.5-2.6
			s-0.2-1.6-0.1-2.1c0.1-0.2,0.1-0.4,0.2-0.6s0.1-0.5,0.2-0.8s0.1-0.6,0.2-0.9l0.8-2.3l0.1-1.4c0.1-0.2,0.2-0.5,0.4-0.9
			s0.4-0.8,0.6-1.3c0.2-0.5,0.5-1.1,0.7-1.7l1.3-1.8c0-0.4,0.1-0.7,0.2-1c0.1-0.3,0.4-0.4,0.8-0.4c0.5-0.3,1.1-0.7,1.8-1.1
			c0.7-0.4,1.5-0.5,2.5-0.1l2.1,0.9h0.5c0.2,0,0.4,0,0.7,0.1s0.7,0.1,1.1,0.2c0.3,0,0.7-0.1,1.2-0.4c0.5-0.2,0.9-0.6,1.3-1.1
			s0.7-1,1-1.5s0.4-1.1,0.5-1.7c0.2-1.1,0.1-2-0.3-2.8C624.2,43.2,623.7,42.6,623.1,42.1L623.1,42.1z"/>
		<path class="st0" d="M658.1,64.8c-0.5,0.5-1.1,0.9-1.6,1.3s-0.9,0.8-1.4,1.2s-0.9,0.7-1.2,1l-1.3,1.8c-0.4,0-0.7-0.2-0.9-0.5
			s-0.3-0.7-0.4-1.1s-0.1-0.8-0.1-1.3s0-0.7,0-0.9l0.2-3.3l0.5-4.4c0-0.3,0-0.9,0.1-1.6s0.3-1.3,0.8-1.6c0.4-0.8,0.6-1.4,0.7-1.9
			c0.1-0.5,0.1-0.9,0.2-1.4c0.2-0.5,0.5-1.3,0.8-2.2s0.6-1.9,0.9-2.8s0.5-1.7,0.8-2.5c0.2-0.8,0.3-1.2,0.3-1.5
			c0.1-1.2-0.1-2.1-0.6-2.8s-1.3-1.1-2.5-1.1l-1.6,0.7l-1.4-0.1l-2.3-0.1c-0.5,0.3-1,0.6-1.5,1c-0.5,0.3-1,0.5-1.3,0.5
			c-0.9,0.4-1.6,0.7-2.3,0.8s-1.4,0.3-2,0.5s-1.4,0.5-2.1,0.9c-0.7,0.4-1.4,1.1-2.2,2.1c-1.6,2.1-3.3,3.9-5,5.3
			c-0.4,0.4-0.8,1-1.2,1.7s-0.8,1.4-1.1,2.1s-0.6,1.4-0.8,2s-0.3,1-0.3,1.2l-1.7,9.8l-0.1,6.1c0,0.3,0,0.9,0.1,1.7
			c0.1,0.8,0.3,1.5,0.5,2.3s0.6,1.4,1.1,2s1.1,0.9,1.9,0.9c0.4,0,0.8-0.1,1.4-0.4s1-0.6,1.4-1s0.8-0.8,1.2-1.2
			c0.4-0.4,0.7-0.7,0.8-0.9c0.6-0.5,1.4-1.4,2.3-2.7c1-1.2,1.9-2.5,2.8-3.7c0.9-1.2,1.8-2.3,2.5-3.2s1.2-1.4,1.3-1.4
			s0.4,0.1,0.6,0.1c0.4,0.1,0.6,0.3,0.6,0.6l-0.1,1.7l-0.2,3c0,0.8-0.2,1.6-0.4,2.4s-0.4,1.7-0.6,2.6s-0.3,1.9-0.4,2.8
			c0,1,0.1,2,0.3,3c0.2,0.6,0.6,1,1.1,1c0.5,0.1,0.9-0.1,1.4-0.3c0.4-0.3,0.8-0.7,1.2-1.2c0.3-0.5,0.5-1,0.5-1.5l2-2.5
			c0.7-1,1.5-1.8,2.3-2.6c0.8-0.7,1.6-1.5,2.3-2.2c0.8-0.7,1.5-1.5,2.1-2.2c0.7-0.8,1.2-1.7,1.7-2.8c0.2-0.2,0.5-0.5,0.7-1l0.4-0.7
			c0-0.3-0.1-0.7-0.3-0.9C658.7,65,658.5,64.9,658.1,64.8L658.1,64.8z M645.3,51.9c-0.1,0.9-0.2,1.4-0.2,1.6c0,0.3-0.3,1.1-1,2.5
			s-1.5,2.8-2.4,4.4c-1,1.6-2,3-3,4.2c-1,1.2-1.9,1.8-2.7,1.8s-1.3-0.4-1.6-1.1s-0.5-1.4-0.5-2.2c-0.1-0.8-0.1-1.6,0-2.3
			c0.1-0.8,0.2-1.3,0.2-1.5c0-0.6,0.3-1.3,0.7-2.3s1-2,1.8-3.1s1.6-2.2,2.5-3.2c1-1,2-2,3-2.8c1.1-0.7,1.9-0.8,2.3-0.4
			c0.5,0.4,0.7,1,0.8,1.8C645.4,50.2,645.4,51.1,645.3,51.9L645.3,51.9z"/>
		<path class="st0" d="M699.9,42.1c-0.7-0.5-1.4-0.8-2.3-1.1c-0.9-0.3-1.6-0.5-2.4-0.6c-0.7-0.1-1.2-0.1-1.5,0
			c-0.4,0.1-0.8,0.2-1.2,0.3s-0.8,0.2-1.3,0.3s-1.1,0.2-2,0.3c-0.3,0.1-0.6,0.2-0.8,0.2s-0.4,0.1-0.5,0.1s-0.3,0.1-0.5,0.2
			c-0.2,0.1-0.4,0.3-0.6,0.5c-0.3,0.2-0.8,0.4-1.3,0.7s-1,0.7-1.4,1c-0.5,0.4-0.9,0.8-1.2,1.2s-0.5,0.8-0.5,1.1l-2.1,5.5
			c-0.2,0.3-0.4,0.7-0.6,1c-0.2,0.3-0.4,0.6-0.7,0.8c-0.3,0.5-0.7,1.2-1.2,2.1c-0.5,0.9-1,1.8-1.6,2.8s-1.2,1.9-1.8,2.9
			s-1.3,1.7-2,2.2v-0.8l4.3-19.6c0.2-0.9,0-1.7-0.5-2.2c-0.5-0.6-1.1-0.9-2-0.9c-0.5,0-0.9,0.1-1.5,0.4s-1,0.6-1.5,1
			s-1.1,0.9-1.6,1.4c-0.9,0.4-1.8,0.9-2.7,1.5s-1.7,1.2-2.5,1.9s-1.4,1.3-2,2c-0.6,0.6-1,1.2-1.2,1.7c-0.4,0.8-0.5,1.5-0.4,2
			c0.1,0.6,0.4,0.8,0.9,0.8c0.6-0.2,1.2-0.4,1.9-0.6c0.5-0.1,1-0.3,1.5-0.4c0.5-0.1,0.9-0.3,1.2-0.4c0.5,0,0.7,0.3,0.8,0.9
			c0,0.2,0.1,0.5,0,0.8c-0.2,0.8-0.2,1.4-0.3,1.8s0,0.6,0,0.9c0,0.2-0.1,0.5-0.1,0.9c-0.1,0.3-0.2,0.9-0.5,1.6l-0.7,3.2
			c-0.2,1.2-0.5,2.6-1,4.2s-1.1,3.2-1.7,4.8c-0.6,1.6-1.2,3.1-1.8,4.4s-1,2.2-1.2,2.7c0,0.4,0.1,0.8,0.4,1c0.3,0.2,0.7,0.4,1.1,0.5
			s0.8,0.1,1.3,0.1s0.8-0.1,1.1-0.2c0.5-0.2,0.9-0.2,1.3,0s0.8,0.1,1.3-0.3c0.6-0.3,1-0.7,1.4-1.3c0.3-0.5,0.6-1.1,0.9-1.7
			c0.2-0.6,0.5-1.2,0.9-1.9c0.3-0.7,0.8-1.3,1.4-1.9c1-1.1,1.9-2.2,2.7-3.1s1.7-2,2.7-3.1v0.2c-0.1,0.3-0.1,0.7-0.1,1.3
			c0,0.6,0,1.1,0,1.7s0,1.2,0,1.7s0,0.9,0,1.1l-0.3,0.7c0,0.4,0,1.2,0.1,2.1c0.1,1,0.2,1.9,0.5,2.9c0.2,1,0.6,1.9,1,2.7
			c0.5,0.8,1.1,1.2,1.9,1.3c1.8,0.2,3.4-0.1,4.9-0.8c1.5-0.7,3.2-1.6,5.1-2.7c0.6-0.3,1.3-0.8,2.2-1.6c0.9-0.8,1.8-1.6,2.7-2.6
			c0.9-0.9,1.6-1.9,2.2-2.9s1-1.8,1.1-2.6c0.1-0.3,0.2-0.7,0-1c-0.1-0.3-0.6-0.6-1.4-0.7c-0.7-0.1-1.4,0.2-2.3,0.8s-1.7,1.3-2.6,2.1
			c-0.9,0.8-1.8,1.5-2.8,2.1s-1.8,0.9-2.7,0.9c-0.5-0.1-0.8-0.4-1.2-1.1c-0.3-0.6-0.6-1.4-0.8-2.2c-0.2-0.8-0.4-1.7-0.5-2.6
			s-0.2-1.6-0.1-2.1c0.1-0.2,0.1-0.4,0.2-0.6s0.1-0.5,0.2-0.8s0.1-0.6,0.2-0.9l0.8-2.3l0.1-1.4c0.1-0.2,0.2-0.5,0.4-0.9
			s0.4-0.8,0.6-1.3c0.2-0.5,0.5-1.1,0.7-1.7l1.3-1.8c0-0.4,0.1-0.7,0.2-1c0.1-0.3,0.4-0.4,0.8-0.4c0.5-0.3,1.1-0.7,1.8-1.1
			c0.7-0.4,1.5-0.5,2.5-0.1l2.1,0.9h0.5c0.2,0,0.4,0,0.7,0.1s0.7,0.1,1.1,0.2c0.3,0,0.7-0.1,1.2-0.4c0.5-0.2,0.9-0.6,1.3-1.1
			s0.7-1,1-1.5s0.4-1.1,0.5-1.7c0.2-1.1,0.1-2-0.3-2.8C701,43.2,700.5,42.6,699.9,42.1L699.9,42.1z"/>
		<path class="st0" d="M728.8,40l-2.3-0.1c-0.3-0.1-0.6-0.1-1,0s-0.9,0.1-1.3,0.1c-0.7,0.1-1.4,0.3-2,0.8s-1.1,0.7-1.6,0.7
			c-0.3,0-0.7,0-1,0.1s-0.8,0.2-1.3,0.4h-0.8l-1.4,1.1c-1,0.5-1.9,1-2.8,1.8s-1.7,1.5-2.4,2.3s-1.4,1.6-1.9,2.4s-1,1.5-1.3,2.2
			l-1.3,2.7c-0.2,0.4-0.4,0.8-0.6,1.2c-0.3,0.7-0.5,1.4-0.5,2.1c-0.2,0.3-0.4,0.6-0.4,0.9s0,0.5,0,0.6c0,0.2,0,0.3,0,0.5
			s-0.2,0.3-0.5,0.5c-0.1,0.3-0.2,0.9-0.4,1.8c-0.2,0.8-0.3,1.7-0.5,2.5c-0.2,0.9-0.3,1.7-0.5,2.4s-0.2,1.2-0.2,1.5l-0.1,1.3
			l-0.3,1.4l0.3,0.5c0.1,0.2,0.2,0.3,0.2,0.5s0.1,0.4,0,0.7l-0.2,1.3c-0.1,0.4,0,1,0.1,1.6s0.3,1.2,0.6,1.8c0.3,0.6,0.6,1.1,1,1.6
			s0.7,0.7,1,0.8c0.2,0.1,0.3,0.2,0.2,0.3c0.3,0,0.7,0,1.3,0.1c1.2,0.1,2.5,0.1,4.1,0.1s3.4-0.3,5.6-1c0.7-0.3,1.3-0.6,1.9-0.8
			s1.2-0.4,1.7-0.7c0.5-0.2,1.1-0.5,1.6-0.8s1-0.8,1.5-1.3c0.6-0.5,1.2-1.2,1.8-1.9s1.2-1.5,1.7-2.3s1-1.6,1.3-2.4s0.6-1.5,0.7-2.2
			c0.2-0.9,0.3-2,0.5-3s0-2-0.4-2.8c-0.3-0.4-0.5-0.7-0.7-0.9s-0.4-0.4-0.7-0.5s-0.5-0.2-0.9-0.2s-0.8-0.1-1.3-0.3
			c-0.1-0.1-0.2-0.2-0.3-0.2s-0.2-0.1-0.2-0.2c0.1-0.3,0.2-0.4,0.3-0.3s0.3,0,0.7-0.4c0.8-0.5,1.2-0.9,1.5-1.1s0.5-0.5,1-0.9
			c0.6-0.5,1.1-1.2,1.7-2c0.5-0.9,1-1.8,1.4-2.8s0.7-1.9,0.9-2.8c0.2-0.9,0.3-1.6,0.4-2.2c0.1-1.7,0-3.1-0.4-4.1
			S730.7,40.4,728.8,40L728.8,40z M724.5,51.8c-0.2,0.5-0.5,0.9-0.8,1.3c-1.2,1.2-2.2,2.1-3,2.7c-0.8,0.6-1.6,1.1-2.3,1.4
			c-0.7,0.3-1.3,0.6-1.9,0.7c-0.6,0.2-1.2,0.4-1.9,0.6c-0.2,0-0.5,0.2-0.7,0.5s-0.4,0.6-0.6,0.9c-0.2,0.4-0.3,0.7-0.3,1.1
			s0,0.7,0.1,0.9c0.3,0.9,0.7,1.2,1.1,1.1s1-0.2,1.6-0.2s1.1-0.1,1.4-0.5c0.3-0.3,0.6-0.5,1-0.3c0.9,0.3,1.4,0.8,1.7,1.5
			c0.2,0.7,0.3,1.5,0.2,2.4s-0.3,1.8-0.7,2.8c-0.3,1-0.6,1.9-0.8,2.8c-0.3,0.8-0.8,1.8-1.6,2.8c-0.7,1-1.5,1.7-2.2,2
			c-0.1,0-0.2,0-0.2,0.1s-0.1,0.1-0.2,0.1c-1.2,0.1-2.1-0.3-2.6-1.2s-0.9-1.9-1.1-3.1c-0.2-1.2-0.2-2.4-0.1-3.5s0.2-2,0.3-2.4
			l0.2-3.5c0.1-1.1,0.1-1.9,0.2-2.6c0.1-0.7,0.4-1.5,0.8-2.4l1.6-4.4c0-0.3,0.1-0.7,0.2-1.1c0.1-0.4,0.3-0.8,0.4-1.1
			c0.1-0.2,0.3-0.3,0.5-0.6c0.1-0.2,0.3-0.3,0.4-0.6c0.2-0.2,0.3-0.5,0.4-0.7c0.2-0.1,0.4-0.2,0.6-0.4c0.1-0.1,0.2-0.2,0.3-0.2
			c0.3-0.1,0.9-0.4,1.7-1c0.8-0.5,1.6-0.9,2.4-1.2c0.4,0.1,0.6,0.2,0.6,0.2s0.2,0,0.5,0.1c0.9,0,1.6,0.2,2,0.4s0.7,0.6,0.9,0.9
			c0.2,0.4,0.3,0.8,0.3,1.2s0.1,0.8,0.1,1.1C724.8,50.8,724.7,51.3,724.5,51.8L724.5,51.8z"/>
		<path class="st0" d="M767.3,64.8c-0.5,0.5-1.1,0.9-1.6,1.3s-0.9,0.8-1.4,1.2s-0.9,0.7-1.2,1l-1.3,1.8c-0.4,0-0.7-0.2-0.9-0.5
			s-0.3-0.7-0.4-1.1s-0.1-0.8-0.1-1.3s0-0.7,0-0.9l0.2-3.3l0.5-4.4c0-0.3,0-0.9,0.1-1.6s0.3-1.3,0.8-1.6c0.4-0.8,0.6-1.4,0.7-1.9
			c0.1-0.5,0.1-0.9,0.2-1.4c0.2-0.5,0.5-1.3,0.8-2.2s0.6-1.9,0.9-2.8s0.5-1.7,0.8-2.5c0.2-0.8,0.3-1.2,0.3-1.5
			c0.1-1.2-0.1-2.1-0.6-2.8s-1.3-1.1-2.5-1.1l-1.6,0.7l-1.4-0.1l-2.3-0.1c-0.5,0.3-1,0.6-1.5,1c-0.5,0.3-1,0.5-1.3,0.5
			c-0.9,0.4-1.6,0.7-2.3,0.8s-1.4,0.3-2,0.5s-1.4,0.5-2.1,0.9c-0.7,0.4-1.4,1.1-2.2,2.1c-1.6,2.1-3.3,3.9-5,5.3
			c-0.4,0.4-0.8,1-1.2,1.7s-0.8,1.4-1.1,2.1s-0.6,1.4-0.8,2s-0.3,1-0.3,1.2l-1.7,9.8l-0.1,6.1c0,0.3,0,0.9,0.1,1.7
			c0.1,0.8,0.3,1.5,0.5,2.3s0.6,1.4,1.1,2s1.1,0.9,1.9,0.9c0.4,0,0.8-0.1,1.4-0.4s1-0.6,1.4-1s0.8-0.8,1.2-1.2
			c0.4-0.4,0.7-0.7,0.8-0.9c0.6-0.5,1.4-1.4,2.3-2.7c1-1.2,1.9-2.5,2.8-3.7c0.9-1.2,1.8-2.3,2.5-3.2s1.2-1.4,1.3-1.4
			s0.4,0.1,0.6,0.1c0.4,0.1,0.6,0.3,0.6,0.6l-0.1,1.7l-0.2,3c0,0.8-0.2,1.6-0.4,2.4s-0.4,1.7-0.6,2.6s-0.3,1.9-0.4,2.8
			c0,1,0.1,2,0.3,3c0.2,0.6,0.6,1,1.1,1c0.5,0.1,0.9-0.1,1.4-0.3c0.4-0.3,0.8-0.7,1.2-1.2c0.3-0.5,0.5-1,0.5-1.5l2-2.5
			c0.7-1,1.5-1.8,2.3-2.6c0.8-0.7,1.6-1.5,2.3-2.2c0.8-0.7,1.5-1.5,2.1-2.2c0.7-0.8,1.2-1.7,1.7-2.8c0.2-0.2,0.5-0.5,0.7-1l0.4-0.7
			c0-0.3-0.1-0.7-0.3-0.9C767.9,65,767.6,64.9,767.3,64.8L767.3,64.8z M754.4,51.9c-0.1,0.9-0.2,1.4-0.2,1.6c0,0.3-0.3,1.1-1,2.5
			s-1.5,2.8-2.4,4.4c-1,1.6-2,3-3,4.2c-1,1.2-1.9,1.8-2.7,1.8s-1.3-0.4-1.6-1.1s-0.5-1.4-0.5-2.2c-0.1-0.8-0.1-1.6,0-2.3
			c0.1-0.8,0.2-1.3,0.2-1.5c0-0.6,0.3-1.3,0.7-2.3s1-2,1.8-3.1s1.6-2.2,2.5-3.2c1-1,2-2,3-2.8c1.1-0.7,1.9-0.8,2.3-0.4
			c0.5,0.4,0.7,1,0.8,1.8C754.5,50.2,754.5,51.1,754.4,51.9L754.4,51.9z"/>
		<path class="st0" d="M812.6,80.3c1-0.6,1.9-1.3,2.8-1.9c0.9-0.7,1.5-1.3,1.8-1.9c0.3-0.3,0.7-0.7,1.3-1.5c0.7-0.9,1.5-1.8,2.2-2.8
			s1.4-1.9,2-2.8c0.9-1.3,1.2-1.9,1.2-2.5s0-1.1,0-1.6c-0.2-1.3-1.2-2.2-2.4-2.2l-1.7-0.1c-0.7,0-1.4,0.1-2,0.5
			c-0.5,0.3-0.9,0.5-1.3,0.9l-0.2,0.3c0,0-0.2,0.2-0.8,0.8c-0.5,0.5-1,0.9-1.6,1.4s-1.2,0.9-1.9,1.2c0.1-0.3,0.2-0.7,0.3-1.1
			c0.2-0.6,0.4-0.9,0.5-1.1c0.5-0.7,0.8-1.6,0.9-2.6c0.1-0.7,0.2-1.1,0.2-1.3c0.2-0.4,0.4-0.7,0.5-0.8c0.5-0.5,0.8-1.2,1.2-1.9
			l0.9-1.8c0.1-0.1,0.2-0.2,0.3-0.3L817,57c0.6-0.6,1-1.3,1.3-2l0.8-2c0.2-0.4,0.3-0.8,0.5-1.1c0.2-0.5,0.4-0.9,0.6-1.4
			c0.1-0.4,0.2-0.8,0.3-1.3s0.2-1,0.2-1.7c0-0.5,0-0.9,0-1.3c0-0.4-0.1-0.7-0.2-1c-0.1-0.2-0.1-0.4-0.2-0.7l0.1-1.7
			c0-0.7-0.1-1.7-1.1-2.7c-0.5-0.5-1.2-1-1.9-1.5c-0.7-0.4-1.4-0.7-2.1-1c-0.8-0.3-1.5-0.5-2.2-0.5l0,0c-1.3-0.1-2.9,0.4-4.8,1.3
			c-1.7,0.8-3.5,1.9-5.2,3.2c-1.8,1.3-3.4,2.7-4.8,4.1c-1.6,1.6-2.6,3.1-3.1,4.6c-0.2,0.6-0.4,1.2-0.2,1.9c0,0,0,0,0,0.1
			c0,0.8,0.1,1.6,0.5,2.3c0.2,0.3,0.3,0.5,0.5,0.8l0.5,0.6h0.8c0.9,0,1.9-0.2,3-0.8c0.9-0.5,1.7-1,2.5-1.5c0.7-0.5,1.4-1,1.9-1.4
			c0.3-0.2,0.5-0.3,0.6-0.4c0.3-0.1,0.7-0.2,1.1-0.2c0.2,0,0.3-0.1,0.5-0.1c-0.1,0.3-0.2,0.7-0.3,1.1c-0.3,0.8-0.8,1.6-1.2,2.4
			c-0.5,0.8-1,1.6-1.4,2.3c-0.5,0.8-0.9,1.4-1.1,1.8l-0.9,1c-0.5,1.1-0.9,1.7-1.1,1.9c-0.7,0.8-1.1,1.9-1.2,3.2c0,0.4-0.1,0.8-0.2,1
			c-0.5,0.7-0.8,1.6-0.9,2.6l-0.8,2.3l-0.1,2.3l0.1,0.4c0.1,0.3,0.2,0.5,0.2,0.7c0,0.1,0,0.2,0,0.3c0,0.7,0,1.2,0.1,1.6
			c0,0.1,0.1,0.2,0.1,0.3c0.1,0.7,0.4,1.5,1.3,2.4c0.6,0.6,1.2,1.1,2,1.6s1.6,1,2.4,1.3c0.9,0.4,1.7,0.6,2.3,0.6c0.1,0,0.2,0,0.2,0
			c0.8,0,1.8-0.2,3-0.7C810.5,81.5,811.6,80.9,812.6,80.3L812.6,80.3z"/>
		<path class="st0" d="M859,49.9L859,49.9l-0.1-0.3c0.1-0.5,0.3-1.1,0.6-1.8c0.5-1.1,0.5-1.6,0.6-1.9c0-0.2,0-0.6,0-1.4
			c0-0.8-0.1-1.7-0.3-2.6s-0.6-1.8-1-2.6c-0.7-1.2-2-1.9-3.6-2c-1.3-0.1-2.8,0.5-4.5,1.5c-1.3,0.8-2.7,1.8-4.1,2.7
			c-0.4,0.3-0.8,0.5-1.1,0.8c0.2-0.2,0.4-0.4,0.5-0.6c0.4-0.5,0.7-0.8,0.9-0.9l0.2-0.2l0.1-0.2c0.2-0.4,0.6-0.9,1-1.6
			c0.4-0.7,0.9-1.4,1.3-2.1c0.5-0.8,1-1.7,1.6-2.6l0.2-0.3v-0.3c0-0.7-0.2-1.3-0.9-1.9c-0.4-0.4-0.9-0.8-1.4-1.1
			c-0.5-0.3-1-0.6-1.5-0.8c-0.7-0.3-1.2-0.4-1.7-0.5l0,0c-0.7,0-1.5,0.1-2.3,0.3l-0.2,0.1c-0.2,0.1-0.4,0.2-0.6,0.2l-0.8,0.2
			l-0.4,0.6c-0.8,1.2-1.7,2.4-2.8,3.4s-2.3,2.1-3.6,3.2c-1.3,1.1-2.6,2.1-3.9,3.2c-1.3,1.1-2.5,2.3-3.4,3.5
			c-0.7,0.8-1.5,1.4-2.2,2.1c-1,0.9-1.6,1.9-1.7,3.1c-0.2,0.5,0,0.9,0.1,1.2c0.1,0.2,0.2,0.3,0.3,0.4c0.5,0.6,1.4,0.8,1.7,0.9
			l0.4,0.1c1.2,0.1,2.6-0.5,4.3-1.6c0.4-0.2,0.7-0.4,1-0.6l-0.3,2.5c-0.2,0.3-0.4,0.7-0.6,1.1l-0.6,1.4c-0.3,0.6-0.5,1.2-0.8,1.8
			l-0.3,1.7c-0.1,0.5-0.2,1-0.2,1.5c-0.1,0.5-0.1,1.1-0.2,1.6v0.1c0,0.2-0.1,0.4-0.2,0.6c-0.2,0.3-0.3,0.6-0.5,0.8
			c-0.3,0.4-0.5,0.7-0.7,0.9c-0.3,0.5-0.5,0.8-0.5,1.1l-0.3,1.7l-1.1,3.9l-1.1,1.9v0.3c-0.1,1.6-0.2,2.7-0.3,3.4
			c-0.1,0.7-0.2,1.1-0.2,1.5c-0.1,0.2-0.2,0.4-0.3,0.5c-0.2,0.2-0.4,0.5-0.6,0.8V79c-0.5,1.1-0.9,2.1-1.2,3.1
			c-0.3,0.8-0.6,1.5-0.8,2.3c-0.3,1-0.4,1.4-0.4,1.6v0.4c-0.1,0.2-0.2,0.4-0.3,0.6c-0.2,0.4-0.3,0.8-0.5,1.3s-0.4,0.9-0.6,1.5
			c-0.2,0.5-0.4,0.8-0.5,1l-0.2,0.3v0.1c-0.1,0-0.2,0.1-0.3,0.1c-0.3,0.1-0.6,0.2-0.8,0.2h-0.8c-0.7,0-1.4,0-2.1,0.2
			c-0.8,0.2-1.5,0.4-2.1,0.8c-0.6,0.3-1.3,0.9-1.5,2.1v0.2c0,0.3,0,0.6,0.2,1.1c0.1,0.3,0.3,0.7,0.5,1.1c0.3,0.5,0.6,0.8,1.1,1.2
			c0.6,0.5,1.2,0.7,1.9,0.8h0.3c0.1,0,0.2,0,0.3,0c0.5,0,1-0.1,1.5-0.2l0.8-0.2c0.1,0,0.2-0.1,0.4-0.1c0,0,0.2,0,0.8,0.1l0.4,0.1
			l0.4-0.1c1-0.2,2.1-0.3,3.2-0.3c1.2,0,2.5-0.1,3.7-0.2l3,0.2c1.5,0.2,3,0,4.2-0.5c0.6-0.2,1.1-0.3,1.6-0.3h0.5l0.5-0.2
			c0.8-0.3,1.4-0.6,1.9-0.9c1.2-0.6,1.5-1.4,1.5-1.9c0.1-1-0.3-1.9-1.1-2.8c-1.1-1.2-2.6-1.5-3.6-1.6l-1.6-0.1c-0.4,0-0.7-0.1-1-0.1
			c0-0.1,0-0.2,0-0.2l0.1-1.4c0.2-0.9,0.3-1.7,0.3-2.3l0.1-1.2c0-0.1,0-0.1,0-0.1c0.1-0.2,0.3-0.5,0.5-0.7c0.2-0.4,0.4-0.8,0.6-1.4
			c0.1-0.5,0.2-1.1,0.4-1.9v-0.1c0.1-0.8,0.2-1.5,0.3-2c0.1-0.5,0.3-1,0.4-1.4c0.2-0.5,0.3-0.9,0.5-1.3c0.2-0.5,0.3-1,0.4-1.7
			l0.1-1.5v-0.1c-0.1-0.6,0-1.1,0.3-1.4c0.4-0.5,0.8-0.8,1.5-1.1c0.7-0.4,1.5-0.8,2.4-1.1c1.1-0.5,2.1-1,3.1-1.6l0.2-0.2l0.2-0.2
			c0.6-0.7,1.3-1.2,2.2-1.6c1.3-0.5,2.4-1.1,3.2-1.7c0.9-0.5,1.7-1.1,2.5-1.6s1.5-1.2,2.3-2c0.3-0.2,0.6-0.6,1.2-1.5
			c0.5-0.7,1-1.5,1.6-2.3c0.6-0.8,1.1-1.8,1.6-2.7c0.5-1,0.9-1.8,1-2.4L859,49.9L859,49.9z M847,55c0,0-0.1,0.2-0.3,0.5
			c-0.5,0.3-0.9,0.5-1.2,0.8c-0.3,0.2-0.6,0.4-0.9,0.5l-0.3,0.1l-0.2,0.2c-0.8,0.6-1.5,1.1-2.3,1.6c-0.6,0.4-1.1,0.7-1.7,1
			c-0.2,0.1-0.4,0.2-0.5,0.2c-0.1,0-0.1,0-0.2,0c0-0.2,0-0.3,0-0.4l0.1-1.5c0.6-1.1,1.2-2.1,1.7-3s1.2-2,2-3.1l0.1-0.2
			c0-0.1,0.1-0.1,0.2-0.2c0.4-0.3,0.9-0.6,1.5-1c0.6-0.3,1.1-0.6,1.7-0.8c0,0.2,0,0.4,0,0.5l-0.1,2.1v0.2c0,0.3,0.1,0.6,0.2,0.9
			c0,0.2,0.1,0.4,0.1,0.5c0,0.1,0,0.2,0,0.2C847.1,54.8,847,55,847,55L847,55z"/>
		<path class="st0" d="M937.5,68.1v-0.2v-0.2c-0.1-0.6-0.3-1.1-0.6-1.6c-1-1.5-2.5-1.6-3.4-1.2c-0.9,0.3-1.7,0.9-2.4,1.6l-1.6,1.6
			c0,0,0,0,0,0.1c0-0.1,0.1-0.3,0.2-0.5c0.4-1,0.6-1.7,0.6-2.2v-0.1v-0.1c0-0.7,0.1-1.4,0.2-2.1c0.2-0.8,0.4-1.5,0.6-2.2
			c0.3-0.8,0.6-1.5,0.9-2.1c0.2-0.5,0.5-1,0.7-1.3s0.4-0.7,0.5-1.1c0-0.1,0.1-0.2,0.1-0.2l0.1-0.3c0.3-0.8,0.7-1.8,1.1-2.8
			c0.4-1.1,0.8-2.1,1.2-3.1s0.7-1.9,0.9-2.6c0.4-1.1,0.4-1.5,0.5-1.8c0.1-1.1-0.2-2.2-0.7-3.3c-0.7-1.3-1.9-2.1-3.3-2.2l-1.8-0.1
			c-0.3,0-0.7,0-1.1-0.1c-0.7-0.1-1.4,0-2,0.1c-0.8,0.2-1.4,0.5-2,1.1c-0.7,0.7-1,1.5-1.1,2.7c0,0.5-0.2,1-0.4,1.6
			c-0.3,0.8-0.7,1.9-1,3.2c-0.3,0.6-0.6,1.2-0.8,1.9c-0.2,0.6-0.5,1.2-0.9,1.9c-0.5,1-1,2.1-1.5,3.3c-0.3,0.9-0.9,1.8-1.7,2.8
			l-0.2,0.3c-0.2,0.3-0.5,0.9-1,1.7s-1,1.6-1.6,2.5s-1.3,1.7-2.1,2.6c-0.4,0.5-0.8,0.8-1.2,1.2v-0.1c0-0.1,0-0.4,0.3-1
			s0.6-1.3,0.9-1.9v-0.1c0.4-1,0.7-2,1-2.8c0.2-0.8,0.4-1.3,0.5-1.8l0.5-1.8c0.2-0.6,0.5-1.4,1-2.3c0.6-1.1,1.2-2.3,1.8-3.6
			s1.1-2.7,1.6-4.1c0.5-1.6,0.8-3.2,0.8-4.7c0-0.4-0.1-1.9-2.1-2.5c-0.5-0.1-1.1-0.2-1.8-0.3s-1.4-0.2-2.1-0.2l-1.5-0.1
			c-1.5-0.1-2.9,0.8-4,2.7c-0.8,1.3-1.6,3-2.4,5c-0.7,1.9-1.5,4-2.3,6.3c-0.8,2.2-1.6,4.3-2.5,6.3c-0.8,1.9-1.7,3.6-2.7,4.9
			c-0.8,1.1-1.4,1.6-1.9,1.8c-0.1-0.5-0.1-1.5,0.5-3.4V63c0.1-0.3,0.1-0.6,0.2-0.8c0.2-0.4,0.3-0.8,0.4-1.2c0-0.2,0.1-0.3,0.2-0.5
			l0.1-0.3c0.3-1.2,0.8-2.4,1.3-3.5c0.6-1.2,1.2-2.5,1.8-3.8s1.1-2.7,1.6-4.1c0.5-1.5,0.8-3.1,0.9-4.8c0-0.4,0-0.9-0.1-1.5
			c-0.1-0.7-0.4-1.4-0.7-2s-0.8-1.2-1.3-1.7c-0.7-0.7-1.7-1.1-2.7-1.2c-1.1-0.1-2,0.1-2.9,0.4c-0.7,0.3-1.4,0.7-2,1.2
			c-0.5,0.4-1.1,0.9-1.7,1.5c-0.5,0.4-1,0.9-1.8,1.3l-0.3,0.2c-0.5,0.5-1.1,1.1-1.9,1.9l-2.3,2.4c-0.4,0.5-0.9,0.9-1.3,1.4
			c0.1-1,0-2-0.2-2.9c-0.2-1.2-0.6-2.3-1.2-3.3c-0.6-1-1.5-1.9-2.6-2.5c-1-0.6-2.3-1-3.8-1c-1.4-0.2-3,0-4.8,0.7
			c-1.7,0.6-3.3,1.5-5,2.5c-1.6,1.1-3.1,2.3-4.3,3.7c-1.3,1.4-2.1,2.9-2.4,4.4l-1.8,3.7c-0.3,0.7-0.5,1.5-0.7,2.2
			c-0.3,0.5-0.4,1-0.4,1.4c0,0.2,0,0.3,0,0.5l-0.2,0.8c-0.1,0.3-0.2,1-0.4,2.1c-0.2,1-0.4,2.1-0.6,3.2c-0.2,1.2-0.4,2.2-0.6,3.2
			c-0.2,1.4-0.3,1.8-0.3,2l-0.1,1.2l-0.5,2.3l0.4,0.7c0.1,0.1,0.1,0.2,0.2,0.4c0.1,0.3,0.1,0.4,0.1,0.4l-0.1,1.3
			c-0.1,0.7,0,1.5,0.3,2.3c0.2,0.8,0.6,1.5,1.1,2.2s1.1,1.3,1.7,1.8c0.8,0.6,1.6,1,2.5,1.2h0.2c0.7,0,1.3,0.1,2,0.1
			c0.2,0,0.4,0,0.6,0c1.3,0,2.6-0.6,3.9-1.6l0.1-0.1c0.1-0.1,0.5-0.4,1.9-1.3c1.2-0.7,2.4-1.6,3.6-2.5c1.2-1,2.4-2.1,3.5-3.2
			c1.3-1.4,2-2.9,2.3-4.6V69c0.1-2-0.8-2.8-1.5-3.2c-0.4-0.2-0.9-0.3-1.4-0.4c-0.7-0.2-1.5-0.1-2.3,0.3c-0.5,0.2-1.1,0.5-1.9,0.8
			l-0.4,0.2c-0.2,0.2-0.6,0.4-1,0.7c-0.5,0.3-0.9,0.6-1.4,0.8c-0.3,0.2-0.7,0.4-1,0.5c0-0.1-0.1-0.1-0.1-0.2
			c-0.3-0.6-0.4-1.1-0.3-1.6l0.2-3.7c0.1-1,0.4-1.7,0.8-2.2c0.6-0.7,1.3-1.3,2.2-1.8c1-0.6,2.1-1.1,3.2-1.5c1.3-0.5,2.5-1.2,3.7-1.9
			c1.3-0.7,2.5-1.4,3.8-2.3c0.3-0.2,0.6-0.5,0.8-0.7c0.3,1,0.9,1.5,1.4,1.7c0.6,0.3,1.7,0.5,3,0c0.7-0.2,1.3-0.6,2-1
			c-0.1,0.6-0.3,1.5-0.8,2.7c-0.6,1.5-1.2,3.2-2,4.9c-0.7,1.7-1.4,3.4-2,4.9c-0.7,1.7-1,3.1-1.1,4.1l-0.1,1.6c0,0.2,0,0.4-0.1,0.8
			s-0.2,0.9-0.3,1.3c-0.1,0.6-0.2,1.1-0.3,1.7s-0.1,1.2,0,1.6c0.1,1.3,0.6,2.4,1.4,3.4c0.7,0.8,1.9,1.8,4,1.9
			c1.3,0.1,2.7-0.4,4.2-1.5c1.2-0.9,2.3-1.9,3.5-3c1-1,2-1.9,2.8-2.9l-0.3,2.3v-0.1c0,0.6,0,1.3,0.2,2s0.5,1.4,1,2.1
			s1.1,1.3,1.9,1.8c0.8,0.5,1.8,0.8,3,0.9c1,0,1.8-0.6,2.6-1.2c0.6-0.5,1.3-1.2,2.1-2s1.6-1.7,2.4-2.6c0.8-0.9,1.6-1.8,2.4-2.6
			l1.7-1.7l-0.4,1.3v0.4c0,0.2,0,0.6-0.1,1.4c-0.1,0.9-0.2,1.7-0.3,2.6c-0.1,1.1,0.1,2,0.5,2.9c0.3,0.7,1.2,2,3.4,2.1
			c0.1,0,0.2,0,0.3,0c1.1,0,2.2-0.3,3.2-0.8s2-1,2.9-1.6s1.6-1.2,2.3-1.8c0.4-0.3,0.7-0.6,0.9-0.8c1-0.5,1.9-1.2,2.5-2.1
			c0.4-0.6,0.9-1.3,1.6-2c0.3-0.4,0.7-0.8,1.2-1.4c0.4-0.5,0.8-1.1,1.2-1.7s0.8-1.3,1.1-1.9C937.2,69.5,937.4,68.8,937.5,68.1
			L937.5,68.1z M872.9,50.3c0.2-0.5,0.5-1,0.8-1.5c0.2-0.3,0.3-0.5,0.5-0.8l0.3,0.1c0.1,0,0.1,0.1,0.1,0.1l0,0v0.9
			c0,0.1-0.2,0.2-0.2,0.3c-0.4,0.3-0.8,0.6-1.2,0.8C873.1,50.2,873,50.3,872.9,50.3L872.9,50.3z"/>
		<path class="st0" d="M975,64.5L975,64.5c-1.3-0.2-2.5,0.2-3.8,1.1c-0.9,0.6-1.8,1.3-2.8,2.2c-0.8,0.7-1.7,1.4-2.6,1.9
			c-0.3,0.2-0.6,0.4-1,0.5c-0.2-0.5-0.5-1.1-0.7-1.8c-0.2-0.7-0.4-1.5-0.5-2.3c-0.1-0.7-0.1-1.1-0.1-1.4c0-0.1,0.1-0.2,0.1-0.4
			c0.1-0.2,0.2-0.5,0.2-0.8c0.1-0.3,0.1-0.5,0.2-0.9l0.8-2.5l0.1-1.4c0.1-0.1,0.1-0.3,0.2-0.5c0.2-0.4,0.4-0.9,0.6-1.3
			c0.2-0.5,0.5-1.1,0.7-1.7l1.4-2v-0.3l0.1-0.1c0.4-0.3,1-0.7,1.7-1.1c0.1,0,0.2-0.1,0.7,0l2.4,1h0.8c0.1,0,0.3,0,0.5,0.1
			c0.3,0,0.7,0.1,1.1,0.2h0.2c0.7,0,1.5-0.2,2.3-0.6c0.7-0.4,1.3-0.9,1.8-1.5s0.9-1.2,1.3-1.9c0.4-0.8,0.6-1.6,0.7-2.5
			c0.2-1.5,0-2.8-0.5-3.8s-1.2-1.9-2.2-2.5c-0.8-0.6-1.8-1-2.8-1.3c-0.9-0.3-1.8-0.5-2.5-0.7h-0.1c-0.9-0.1-1.6-0.1-2.2,0
			c-0.4,0.1-0.9,0.2-1.4,0.3c-0.4,0.1-0.8,0.2-1.2,0.3c-0.2,0.1-0.7,0.2-1.6,0.2l-0.4,0.1c-0.3,0.1-0.5,0.2-0.7,0.2
			c-0.3,0.1-0.5,0.1-0.7,0.2c-0.3,0.1-0.5,0.2-0.8,0.4c-0.2,0.1-0.5,0.3-0.7,0.5c-0.4,0.2-0.8,0.4-1.2,0.7c-0.5,0.3-1.1,0.7-1.6,1.1
			c-0.6,0.5-1.1,1-1.5,1.5c-0.5,0.6-0.8,1.2-0.9,1.9l-2,5.1c-0.2,0.3-0.5,0.7-0.7,1.1l-0.3,0.2l-0.2,0.3c-0.2,0.4-0.5,0.9-0.9,1.5
			l2.3-10.5c0.3-1.9-0.3-3.2-0.9-3.9c-0.8-1-2-1.5-3.4-1.6c-0.8,0-1.7,0.2-2.5,0.6c-0.6,0.3-1.2,0.7-1.8,1.2c-0.5,0.4-1,0.8-1.5,1.3
			c-0.9,0.4-1.8,0.9-2.7,1.5s-1.8,1.3-2.6,2s-1.6,1.4-2.2,2.2c-0.7,0.8-1.2,1.5-1.5,2.1c-0.6,1.2-0.8,2.3-0.5,3.4
			c0.4,1.9,2,2.5,3.2,2.3l2-0.6c0.3-0.1,0.5-0.2,0.8-0.2c0,0.3-0.1,0.6-0.1,0.8v0.9c0,0.1,0,0.3-0.1,0.5c0,0.1-0.1,0.5-0.4,1.3
			l-0.8,3.5v0.1c-0.2,1.1-0.5,2.4-1,3.9c-0.5,1.6-1,3.2-1.6,4.7c-0.6,1.6-1.2,3-1.8,4.3c-0.7,1.6-1,2.3-1.2,2.6l-0.2,0.4V77
			c-0.1,1.1,0.3,2.1,1.2,2.7c0.5,0.4,1.2,0.8,2,0.9c0.6,0.1,1.2,0.1,1.8,0.1c0.6-0.1,1.2-0.1,1.6-0.3l0,0c0.6,0.2,1.8,0.4,3.1-0.6
			c0.8-0.5,1.4-1.1,1.9-1.9c0.4-0.6,0.7-1.3,1-2c0.2-0.6,0.5-1.2,0.8-1.8c0.2-0.4,0.5-0.8,1-1.2l0.2-0.2c0.7-0.8,1.3-1.5,1.9-2.2
			c0,0.1,0,0.2,0,0.2l-0.3,0.7v0.3c0,0.6,0,1.3,0.1,2.4c0.1,1,0.3,2.1,0.5,3.2c0.3,1.2,0.7,2.3,1.3,3.2c1,1.7,2.4,2.2,3.4,2.3
			c0.5,0.1,0.9,0.1,1.4,0.1c1.6,0,3.2-0.3,4.6-1c1.5-0.7,3.3-1.7,5.2-2.7c0.7-0.4,1.5-1,2.6-1.8c1-0.8,1.9-1.7,2.8-2.7
			c0.9-1,1.8-2.1,2.5-3.1c0.8-1.2,1.2-2.2,1.4-3.3c0.2-0.7,0.2-1.4,0-2C977.5,64.9,975.7,64.6,975,64.5L975,64.5z"/>
		<path class="st0" d="M1015.4,64.1c-0.6-0.8-1.4-1.2-2.3-1.3h-0.8l-0.6,0.5c-0.5,0.5-1,0.9-1.5,1.3s-1,0.8-1.5,1.2
			c-0.2,0.2-0.4,0.3-0.6,0.5l0.2-3.1l0.5-4.4l0.1-1.8c0-0.1,0-0.1,0-0.1l0.3-0.2l0.2-0.5c0.5-1,0.8-1.7,0.9-2.4
			c0.1-0.4,0.1-0.9,0.2-1.3c0.2-0.5,0.4-1.1,0.7-2c0.3-1,0.7-1.9,1-2.8c0.3-0.9,0.6-1.8,0.8-2.6c0.3-1.2,0.4-1.6,0.4-1.9
			c0.1-1.6-0.2-3-1-4c-0.6-0.9-1.7-1.9-4-2h-0.5l-1.6,0.7l-4-0.2l-0.5,0.4c-0.4,0.3-0.9,0.6-1.5,0.9c-0.2,0.1-0.3,0.2-0.3,0.2h-0.3
			l-0.5,0.2c-0.7,0.3-1.3,0.5-1.8,0.6c-0.8,0.1-1.6,0.3-2.3,0.5c-0.8,0.3-1.7,0.6-2.5,1.1c-0.9,0.5-1.8,1.4-2.8,2.6
			c-1.5,2-3.1,3.7-4.7,5l-0.2,0.1c-0.5,0.5-1,1.2-1.5,2c-0.4,0.7-0.8,1.5-1.2,2.3c-0.3,0.8-0.6,1.5-0.8,2.2
			c-0.3,0.8-0.4,1.2-0.4,1.5l-1.7,9.7l-0.1,6.3c0,0.5,0,1.1,0.1,2s0.3,1.8,0.6,2.6c0.3,1,0.8,1.9,1.4,2.7c0.8,1,2,1.6,3.3,1.7
			c0.8,0,1.6-0.2,2.4-0.6c0.6-0.3,1.2-0.8,1.8-1.2c0.5-0.4,1-0.8,1.4-1.3c0.4-0.4,0.7-0.7,0.8-0.9c0.7-0.6,1.5-1.5,2.5-2.8
			c1-1.2,1.9-2.5,2.8-3.7l1.2-1.5v1c0,0.7-0.1,1.3-0.3,2c-0.2,0.8-0.4,1.7-0.7,2.7c-0.2,1-0.4,2.1-0.5,3.2c-0.1,1.2,0.1,2.4,0.4,3.6
			l0.1,0.2c0.7,1.8,2,2.2,2.7,2.3c0.2,0,0.3,0,0.4,0c0.8,0,1.5-0.2,2.2-0.7c0.7-0.4,1.2-1,1.7-1.8c0.4-0.6,0.6-1.2,0.8-1.8l1.7-2.1
			c0.7-0.9,1.3-1.7,2-2.3l2.3-2.2c0.8-0.8,1.6-1.6,2.3-2.4s1.3-1.8,1.8-3c0.3-0.3,0.5-0.7,0.8-1.1l0.6-1.1v-0.5
			C1016.1,65.5,1015.9,64.8,1015.4,64.1L1015.4,64.1z M997.1,55.1c-0.6,1.3-1.4,2.7-2.3,4.2c-0.9,1.5-1.8,2.8-2.8,4
			c-0.5,0.5-0.8,0.8-1,1c-0.1-0.4-0.2-0.8-0.3-1.3c-0.1-0.7,0-1.3,0-1.9c0.1-0.8,0.2-1.4,0.2-1.7c0-0.1,0-0.5,0.5-1.5
			c0.4-0.8,0.9-1.8,1.6-2.8c0.7-1,1.5-2,2.3-3c0.8-0.9,1.7-1.7,2.6-2.4c0,0,0,0,0.1,0c0.1,0.7,0.1,1.3,0,2c-0.1,0.8-0.2,1.3-0.2,1.6
			C997.9,53.4,997.7,53.9,997.1,55.1L997.1,55.1z"/>
	</g>
</g>
</svg>
